<?xml version="1.0" encoding="utf-8"?>
<!-- Generator: Adobe Illustrator 22.1.0, SVG Export Plug-In . SVG Version: 6.00 Build 0)  -->
<svg version="1.1" id="Layer_1" xmlns="http://www.w3.org/2000/svg" xmlns:xlink="http://www.w3.org/1999/xlink" x="0px" y="0px" width="200px" height="200px"
	 viewBox="0 0 200 200" style="enable-background:new 0 0 200 200;" xml:space="preserve">
<style type="text/css">
	.st0{display:none;opacity:0.28;fill:#29F400;enable-background:new    ;}
	.st1{fill:#AA9400;}
	.st2{fill:#754C24;}
	.st3{fill:#C9FF2C;}
	.st4{fill:#C9FFEC;stroke:#754C8B;stroke-miterlimit:10;}
	.st5{fill:#FF0A0A;}
	.st6{fill:#362AFF;}
	.st7{fill:#002074;}
	.st8{fill:#C9FFEC;}
	.st9{fill:#754C8B;}
</style>
<g id="Layer_5">
	<polygon class="st0" points="124.6,114.8 166.5,170.5 99.6,180.9 105.1,126.6 130.7,115.6 118.4,120.2 109.4,123.4 92.9,125.5 
		81.1,125.7 68.7,125.5 59,125 65.8,126.5 76.3,175.5 22.5,170.8 49.8,118.8 	"/>
	<polygon class="st0" points="113.4,122.4 150.9,171.3 101.9,178.1 104.4,125.6 87.9,127.8 77.5,127.9 63.7,127.8 55.3,177.8 
		22.4,167.5 54,127.3 	"/>
	<g>
		<path class="st1" d="M58.8,92.4C53.5,93,48,93.7,43.4,96.2s-8.5,7.5-8,12.8c0.4,4.3,3.4,8,7.2,10.2s8.1,3,12.4,3.5
			c7.6,1,15.3,1.2,23,1.1c15.2,0,30.9-1,44.8-7.3c6.7-3.1,13.3-8,15-15.2c0.4-1.5,0.5-3.1-0.1-4.5c-1.1-2.8-4.2-4.1-7.1-4.9
			c-20.3-5.6-41.8-3.3-62.8-0.8c-5.7,0.7-11.4,1.3-17.2,2"/>
		<g>
			<path class="st2" d="M58.8,87.9c-8.1,0.9-16.7,2.1-22.7,8.2c-5.4,5.6-7,13.7-2.8,20.5c4.4,7,12.6,9.4,20.3,10.5
				c10,1.4,20.2,1.5,30.3,1.2c16.9-0.4,37.4-2.3,50.6-14.2c5.2-4.6,10.3-13.2,6.5-20.2c-3.9-7.1-15.2-8-22.2-8.9
				c-22.6-3-45.7,1-68.3,3.6c-5.7,0.7-5.8,9.7,0,9c18.6-2.2,37.4-5.2,56.2-4.6c5.1,0.2,10.3,0.6,15.3,1.6c2.6,0.5,9.5,0.9,11,3.3
				c2.1,3.4-3.2,8.6-5.5,10.4c-3.2,2.6-7.1,4.4-11,5.8c-16.8,6.2-36.4,6-54,4.8c-6.8-0.5-21.2-0.7-22.6-9.7
				c-1.5-9.6,12.5-11.6,18.9-12.3C64.5,96.2,64.6,87.2,58.8,87.9L58.8,87.9z"/>
		</g>
	</g>
	<g>
		<g>
			<path class="st3" d="M127.3,98.3c5.8,0,5.8-9,0-9S121.4,98.3,127.3,98.3L127.3,98.3z"/>
		</g>
	</g>
	<g>
		<g>
			<path class="st3" d="M129,113.5c5.8,0,5.8-9,0-9S123.2,113.5,129,113.5L129,113.5z"/>
		</g>
	</g>
	<g>
		<g>
			<path class="st3" d="M109.5,121c5.8,0,5.8-9,0-9S103.7,121,109.5,121L109.5,121z"/>
		</g>
	</g>
	<g>
		<g>
			<path class="st3" d="M85.7,123.5c5.8,0,5.8-9,0-9C79.9,114.5,79.9,123.5,85.7,123.5L85.7,123.5z"/>
		</g>
	</g>
	<g>
		<g>
			<path class="st3" d="M65.7,123.3c5.8,0,5.8-9,0-9C59.9,114.3,59.9,123.3,65.7,123.3L65.7,123.3z"/>
		</g>
	</g>
	<g>
		<g>
			<path class="st3" d="M48,119.3c5.8,0,5.8-9,0-9S42.2,119.3,48,119.3L48,119.3z"/>
		</g>
	</g>
	<g>
		<g>
			<path class="st3" d="M45.5,106c5.8,0,5.8-9,0-9S39.7,106,45.5,106L45.5,106z"/>
		</g>
	</g>
	<path class="st4" d="M55.5,107.4"/>
</g>
<g id="Layer_4">
	<g>
		<g>
			<path class="st2" d="M111.6,29.5c-1.6-3.3-1.9-7.4,0.7-10.4c1.8-2.1,7.5-3.7,9.6-0.8c-0.4-0.6,0.2,2.9,0.2,3.5
				c0.2,2.3,0,4.6-0.5,6.8c-1,3.9-3.2,7.3-3.8,11.4c-0.9,6.3,8.7,9,9.6,2.7c0.6-4,2.8-7.5,3.8-11.4c0.9-3.6,1.2-7.4,0.7-11.1
				c-0.9-7.8-4.6-11.8-12.5-13c-6.4-1-12.8,2.1-16.2,7.5c-3.9,6.2-3.2,13.5-0.2,19.9C105.7,40.3,114.3,35.3,111.6,29.5L111.6,29.5z"
				/>
		</g>
	</g>
	<g>
		<g>
			<path class="st2" d="M120.4,66.2c2.5,1.4,5.3,0.9,7.4-1.1c1.5-1.4,2.2-3.7,2.2-5.7c-0.1-2.4-1.2-4.7-3.3-5.9
				c-2.4-1.4-5.6-1-7.5,1c-1.8,1.9-2,5.2,0,7.1c2,1.8,5.1,2,7.1,0l0.1-0.1c-0.3,0.3-0.7,0.5-1,0.8c0.1-0.1,0.2-0.1,0.3-0.2
				c-0.4,0.2-0.8,0.3-1.2,0.5c0.1,0,0.1,0,0.2,0c-0.4,0.1-0.9,0.1-1.3,0.2c0.1,0,0.3,0,0.4,0c-0.4-0.1-0.9-0.1-1.3-0.2
				c0.1,0,0.3,0.1,0.4,0.1c-0.4-0.2-0.8-0.3-1.2-0.5c0.1,0.1,0.2,0.1,0.3,0.2c-0.3-0.3-0.7-0.5-1-0.8c0.1,0.1,0.2,0.2,0.3,0.3
				c-0.3-0.3-0.5-0.7-0.8-1c0.1,0.1,0.2,0.3,0.2,0.4c-0.2-0.4-0.3-0.8-0.5-1.2c0.1,0.1,0.1,0.3,0.1,0.4c-0.1-0.4-0.1-0.9-0.2-1.3
				c0,0.3,0,0.6,0,0.9c0.1-0.4,0.1-0.9,0.2-1.3c0,0.3-0.1,0.6-0.2,0.9c0.2-0.4,0.3-0.8,0.5-1.2c-0.1,0.2-0.2,0.4-0.3,0.6
				c0.3-0.3,0.5-0.7,0.8-1c-0.1,0.2-0.3,0.3-0.4,0.4c0.3-0.3,0.7-0.5,1-0.8c-0.1,0-0.1,0.1-0.2,0.1c0.4-0.2,0.8-0.3,1.2-0.5
				c-0.1,0.1-0.2,0.1-0.3,0.1c0.4-0.1,0.9-0.1,1.3-0.2c-0.1,0-0.1,0-0.2,0c0.4,0.1,0.9,0.1,1.3,0.2c-0.1,0-0.1,0-0.2,0
				c0.4,0.2,0.8,0.3,1.2,0.5c-0.1,0-0.1-0.1-0.2-0.1c-2.3-1.3-5.6-0.6-6.8,1.8C117.4,61.7,117.9,64.9,120.4,66.2L120.4,66.2z"/>
		</g>
	</g>
</g>
<g id="Layer_3">
	<polygon class="st5" points="44.4,56.6 50.3,72.3 58.8,72.1 60.3,70.1 54.9,62.3 54.3,52.9 	"/>
	<polygon class="st6" points="29.4,60.1 36.9,59.1 42.8,72.6 34.5,78.3 	"/>
	<g>
		<g>
			<path class="st7" d="M32.2,76.8c4.3,6,5.7,13.1,8.9,19.7c1.1,2.3,4.6,0.3,3.5-2c-3.2-6.6-4.5-13.7-8.9-19.7
				C34.1,72.7,30.7,74.7,32.2,76.8L32.2,76.8z"/>
		</g>
	</g>
	<g>
		<g>
			<path class="st7" d="M25.9,60.2c1.5,4.2,3,8.5,4.5,12.7c0.7,1.9,1.3,6.4,3.5,7.5c1.6,0.8,3.1-0.3,4.4-1.2
				c3.8-2.7,6.3-4.6,11.3-4.4c3.3,0.2,11.9,1,13.1-3.8c0.6-2.2-1.5-3.3-2.7-4.6c-3.6-4-3.4-9.6-3.3-14.6c0-1.4-1.3-2.2-2.5-1.9
				c-3.8,0.8-7,2.6-10.6,4.2c-4.7,2.1-9.3,3.1-14.4,2.9c-2.6-0.1-2.6,3.9,0,4c4.4,0.1,8.7-0.4,12.9-2c4.5-1.7,8.5-4.3,13.2-5.3
				c-0.8-0.6-1.7-1.3-2.5-1.9c-0.1,4.9-0.1,10.2,2.4,14.6c0.5,0.8,3,3.9,3.1,3.8c-0.8,1.9-8.7,0.6-10.3,0.6c-2.1,0-4,0.3-5.9,1.1
				c-2.2,1-3.8,3.1-5.9,4c-1.1,1-1.3,1.1-0.8,0.2c0.5-0.8,0.4-1.6-0.4-2.4c-0.4-1.5-1.1-3.1-1.6-4.5c-1.2-3.3-2.4-6.7-3.5-10
				C28.9,56.7,25.1,57.7,25.9,60.2L25.9,60.2z"/>
		</g>
	</g>
</g>
<g id="Layer_6">
	<g>
		<path class="st8" d="M68.5,100.3c12.2-1.8,24.7,0,36.8-2.2c0.3-0.1,0.6-0.1,0.8-0.3c0.2-0.2,0.2-0.6,0.2-0.9
			c-0.1-1.8-0.1-3.6-0.2-5.4c-0.2-6.5-0.4-13-1.9-19.3s-4.3-12.5-9.1-16.9c-3.5-3.3-8.1-5.5-12.9-6.1s-9.8,0.5-13.8,3.2
			c-6.3,4.2-9.8,11.9-10.2,19.5S60,87,63.1,94c0.7,1.7,1.5,3.4,2.3,5.1"/>
		<g>
			<path class="st9" d="M68.5,104.8c9.2-1.2,18.4-0.7,27.7-1.2c3.4-0.2,8.3-0.1,11.4-1.6c3-1.5,3.1-3.9,3.1-6.9
				c0.1-15.3-1.2-34-14.1-44.4c-11.9-9.5-29.3-7.6-37.9,5.2c-9.5,14.2-3.7,31.3,2.8,45.3c2.4,5.2,10.2,0.7,7.8-4.5
				c-3.8-8.2-7.6-17.2-6.4-26.4c1.1-8.9,7.4-16.9,17-16.8C89.3,53.6,96,61,98.8,69.4c1.4,4.3,2.1,8.7,2.5,13.2
				c0.3,4.1,1.4,9.9,0.6,14c0.7-0.9,1.4-1.8,2.1-2.7c-2.3,1-6,0.7-8.5,0.8c-3.1,0.2-6.2,0.2-9.2,0.2c-5.9,0.1-11.7,0.2-17.5,1
				C62.9,96.5,62.8,105.6,68.5,104.8L68.5,104.8z"/>
		</g>
	</g>
</g>
</svg>
