<?xml version="1.0" encoding="utf-8"?>
<!-- Generator: Adobe Illustrator 22.1.0, SVG Export Plug-In . SVG Version: 6.00 Build 0)  -->
<svg version="1.1" id="Layer_4" xmlns="http://www.w3.org/2000/svg" xmlns:xlink="http://www.w3.org/1999/xlink" x="0px" y="0px" width="200px" height="200px"
	 viewBox="0 0 200 200" style="enable-background:new 0 0 200 200;" xml:space="preserve">
<style type="text/css">
	.st0{fill:#FFECC4;}
	.st1{fill:#5F3B00;}
	.st2{fill:#754C24;}
	.st3{fill:#42210B;}
	.st4{fill:#A67C52;}
</style>
<g>
	<path class="st0" d="M136.3,103.8c3.2-2.1,5.2-5.7,6.8-9.1c3.3-7.1,5.8-14.6,6.6-22.4s-0.3-15.9-3.7-22.9c-1.7-3.5-4.6-7.1-8.5-7.2
		c-2.3-0.1-4.6,1.1-6.2,2.8c-1.6,1.7-2.7,3.8-3.7,5.9c-5.6,11.9-8.8,24.8-9.7,37.8c-0.3,5.6,0.3,12.2,5,15.2
		c1.9,1.2,4.1,1.6,6.4,1.9c2.3,0.2,4.9,0.1,6.3-1.8"/>
	<g>
		<path class="st1" d="M137.4,105.8c5.6-4.2,8.3-10.8,10.6-17.1c2.9-7.9,4.6-16.4,4-24.8c-0.7-9.2-8.7-33.1-21.8-21
			c-5.5,5.1-8.1,14.6-10.2,21.5c-2.4,8-4,16.5-4.4,24.9c-0.2,5.5,0.4,11.8,4.9,15.6c4.2,3.6,12.4,4.8,16.6,0.7
			c2.1-2-1.1-5.2-3.2-3.2c-2.7,2.6-8.5,0.7-10.8-1.4c-1.9-1.8-2.6-4.5-2.9-7c-0.5-4.8,0.2-9.8,0.9-14.5c0.8-5.3,2.1-10.5,3.7-15.6
			c1.7-5.4,3.6-11.7,7.1-16.2c6-7.6,11.6,0.9,13.6,6.9c1.7,5.1,2.2,10.6,1.9,16c-0.4,5.5-1.7,10.8-3.5,16
			c-1.9,5.3-4.2,11.8-8.9,15.3C132.8,103.6,135.1,107.5,137.4,105.8L137.4,105.8z"/>
	</g>
</g>
<g>
	<g>
		<path class="st2" d="M138.5,54.3c1.7-2.3-1.9-4.9-3.5-2.6C133.3,54,136.8,56.6,138.5,54.3L138.5,54.3z"/>
	</g>
</g>
<g>
	<g>
		<path class="st3" d="M132.9,64.6c1.7-2.3-1.9-4.9-3.5-2.6C127.7,64.3,131.3,66.9,132.9,64.6L132.9,64.6z"/>
	</g>
</g>
<g>
	<g>
		<path class="st4" d="M142,63.4c1.7-2.3-1.9-4.9-3.5-2.6C136.7,63.1,140.3,65.7,142,63.4L142,63.4z"/>
	</g>
</g>
<g>
	<g>
		<path class="st2" d="M140.3,88.2c1.7-2.3-1.9-4.9-3.5-2.6C135.1,88,138.6,90.5,140.3,88.2L140.3,88.2z"/>
	</g>
</g>
<g>
	<g>
		<path class="st4" d="M131.8,75.4c1.7-2.3-1.9-4.9-3.5-2.6C126.6,75.1,130.1,77.7,131.8,75.4L131.8,75.4z"/>
	</g>
</g>
<g>
	<g>
		<path class="st3" d="M144.8,72c1.7-2.3-1.9-4.9-3.5-2.6C139.6,71.6,143.2,74.2,144.8,72L144.8,72z"/>
	</g>
</g>
<g>
	<g>
		<path class="st2" d="M134,95.8c1.7-2.3-1.9-4.9-3.5-2.6C128.8,95.5,132.4,98.1,134,95.8L134,95.8z"/>
	</g>
</g>
<g>
	<g>
		<path class="st3" d="M128.5,84.8c1.7-2.3-1.9-4.9-3.5-2.6C123.3,84.5,126.9,87.1,128.5,84.8L128.5,84.8z"/>
	</g>
</g>
<g>
	<g>
		<path class="st4" d="M140.2,79.8c1.7-2.3-1.9-4.9-3.5-2.6C135,79.5,138.5,82.1,140.2,79.8L140.2,79.8z"/>
	</g>
</g>
</svg>
