<?xml version="1.0" encoding="utf-8"?>
<!-- Generator: Adobe Illustrator 22.1.0, SVG Export Plug-In . SVG Version: 6.00 Build 0)  -->
<svg version="1.1" id="Layer_4_copy" xmlns="http://www.w3.org/2000/svg" xmlns:xlink="http://www.w3.org/1999/xlink" x="0px"
	 y="0px" width="200px" height="200px" viewBox="0 0 200 200" style="enable-background:new 0 0 200 200;" xml:space="preserve">
<style type="text/css">
	.st0{fill:#FFFD8A;stroke:#AB8A00;stroke-miterlimit:10;}
	.st1{fill:#AB8A00;}
	.st2{fill:#5F3B00;}
</style>
<polygon class="st0" points="13.2,102.5 19.9,138.8 148.5,131.2 148.5,90.8 130.7,98.8 "/>
<g>
	<g>
		<path class="st1" d="M147.7,88.9c-3,6.3-3.3,12.8-2.9,19.7c0.5,7.8,1,15.7,1.5,23.5c1.5-1.5,3-3,4.5-4.5
			c-28.5-1-56.3,1.7-84.5,5.4c-6.7,0.9-13.3,1.7-20,2.2s-14.3,1.5-21,0.4c-3.6-0.6-3.9-2.7-5.2-6.1c-1.2-3.3-2.2-6.8-2.9-10.3
			c-1.4-6.6-1.7-13.3-1.2-20c-1.9,1.4-3.8,2.9-5.7,4.3c24.8,8.4,51.7,4.3,77.2,2.7c13.4-0.9,26.7-1.8,40-3.6
			c10.1-1.4,20.5-3,26.7-11.9c3.3-4.7-4.5-9.2-7.8-4.5c-5.5,7.8-20,7.7-28.4,8.6c-12.1,1.3-24.2,2-36.2,2.8
			c-23,1.5-46.8,4.8-69.1-2.7c-2.9-1-5.5,1.6-5.7,4.3c-0.5,7.2-0.1,14.4,1.3,21.6c1.2,6.3,3.1,13.9,6.8,19.3
			c3.6,5.3,10.3,4.6,15.9,4.6c8,0.1,15.9-0.5,23.8-1.3c15.7-1.7,31.2-4.3,47-5.6c16.3-1.4,32.6-1.7,49-1.2c2.3,0.1,4.7-2.1,4.5-4.5
			c-0.4-6.6-0.9-13.2-1.3-19.8c-0.4-6.2-1.4-13,1.4-18.9C157.9,88.2,150.2,83.7,147.7,88.9L147.7,88.9z"/>
	</g>
</g>
<g>
	<path class="st2" d="M27.9,122.9l0.1,1.4l1.4-0.1c0.3,0,0.6,0,0.7,0.1s0.2,0.3,0.2,0.5s0,0.4-0.2,0.5c-0.1,0.1-0.4,0.2-0.7,0.2
		l-2.9,0.2c-0.3,0-0.6,0-0.7-0.1s-0.2-0.3-0.2-0.5s0-0.4,0.2-0.5c0.1-0.1,0.4-0.2,0.7-0.2h0.2l-0.3-5.3h-0.2c-0.3,0-0.6,0-0.7-0.1
		s-0.2-0.3-0.2-0.5s0-0.4,0.2-0.5c0.1-0.1,0.4-0.2,0.7-0.2l3.1-0.2c0.9-0.1,1.7,0.1,2.2,0.6c0.6,0.5,0.9,1.1,0.9,1.8
		c0,0.4,0,0.8-0.2,1.1c-0.1,0.3-0.3,0.5-0.6,0.8c-0.3,0.3-0.6,0.5-0.9,0.6c-0.3,0.2-0.8,0.2-1.3,0.3L27.9,122.9z M27.8,121.5
		l1.3-0.1c0.6,0,1-0.2,1.4-0.5c0.3-0.3,0.5-0.6,0.5-1c0-0.3-0.2-0.6-0.5-0.8c-0.3-0.2-0.7-0.3-1.2-0.3l-1.6,0.1L27.8,121.5z"/>
	<path class="st2" d="M40.2,122.5l-5.5,0.3c0.2,0.3,0.4,0.6,0.8,0.8c0.4,0.2,0.9,0.3,1.5,0.2c0.5,0,1.2-0.2,2-0.4
		c0.3-0.1,0.6-0.2,0.7-0.2c0.2,0,0.3,0,0.5,0.2c0.1,0.1,0.2,0.3,0.2,0.5s0,0.3-0.2,0.5s-0.6,0.4-1.3,0.5c-0.7,0.2-1.3,0.3-1.9,0.3
		c-1.1,0.1-2-0.2-2.6-0.8c-0.7-0.6-1.1-1.3-1.1-2.2c-0.1-0.9,0.2-1.7,0.9-2.4c0.7-0.6,1.5-1,2.4-1c0.5,0,1.1,0,1.5,0.2
		c0.5,0.2,0.8,0.4,1.1,0.6c0.3,0.3,0.6,0.7,0.9,1.2c0.2,0.3,0.3,0.7,0.3,1.1L40.2,122.5z M38.6,121.3c-0.2-0.4-0.5-0.6-0.9-0.8
		c-0.3-0.2-0.7-0.2-1.2-0.2s-0.8,0.1-1.2,0.4c-0.3,0.2-0.6,0.5-0.8,0.9L38.6,121.3z"/>
	<path class="st2" d="M44.4,119.9l0.2,2.7c0,0.3,0.1,0.5,0.2,0.6c0.2,0.1,0.5,0.2,1,0.2c0.7,0,1.3-0.2,1.9-0.6
		c0.2-0.1,0.4-0.2,0.5-0.2c0.2,0,0.3,0,0.5,0.2c0.1,0.1,0.2,0.3,0.2,0.5s0,0.3-0.2,0.5s-0.6,0.4-1.2,0.6c-0.6,0.2-1.2,0.3-1.6,0.4
		c-0.8,0.1-1.5-0.1-1.9-0.4s-0.7-0.8-0.7-1.3l-0.2-3h-0.5c-0.3,0-0.6,0-0.7-0.1c-0.1-0.1-0.2-0.3-0.2-0.5s0-0.4,0.2-0.5
		c0.1-0.1,0.4-0.2,0.7-0.2h0.5l-0.1-1.2c0-0.3,0-0.6,0.1-0.7s0.3-0.2,0.5-0.2s0.4,0,0.5,0.2c0.1,0.1,0.2,0.4,0.2,0.7l0.1,1.2
		l2.5-0.2c0.3,0,0.6,0,0.7,0.1c0.1,0.1,0.2,0.3,0.2,0.5s0,0.4-0.2,0.5c-0.1,0.1-0.4,0.2-0.7,0.2L44.4,119.9z"/>
	<path class="st2" d="M53.4,118l0.3,4.6l1.6-0.1c0.3,0,0.6,0,0.7,0.1c0.1,0.1,0.2,0.3,0.2,0.5s0,0.4-0.2,0.5
		c-0.1,0.1-0.4,0.2-0.7,0.2l-4.6,0.3c-0.3,0-0.6,0-0.7-0.1c-0.1-0.1-0.2-0.3-0.2-0.5s0-0.4,0.2-0.5c0.1-0.1,0.4-0.2,0.7-0.2l1.6-0.1
		l-0.2-3.3l-1.1,0.1c-0.3,0-0.6,0-0.7-0.1c-0.1-0.1-0.2-0.3-0.2-0.5s0-0.4,0.2-0.5s0.4-0.2,0.7-0.2L53.4,118z M53.1,115.5l0.1,1.4
		l-1.6,0.1l-0.1-1.4L53.1,115.5z"/>
	<path class="st2" d="M60.6,119l0.2,2.7c0,0.3,0.1,0.5,0.2,0.6c0.2,0.1,0.5,0.2,1,0.2c0.7,0,1.3-0.2,1.9-0.6
		c0.2-0.1,0.4-0.2,0.5-0.2c0.2,0,0.3,0,0.5,0.2c0.1,0.1,0.2,0.3,0.2,0.5s-0.1,0.3-0.2,0.5c-0.2,0.2-0.6,0.4-1.2,0.6
		c-0.6,0.2-1.2,0.3-1.6,0.4c-0.8,0.1-1.5-0.1-1.9-0.4s-0.7-0.8-0.7-1.3l-0.2-3h-0.5c-0.3,0-0.6,0-0.7-0.1c-0.1-0.1-0.2-0.3-0.2-0.5
		s0-0.4,0.2-0.5c0.1-0.1,0.4-0.2,0.7-0.2h0.5l-0.1-1.2c0-0.3,0-0.6,0.1-0.7s0.3-0.2,0.5-0.2s0.4,0,0.5,0.2c0.1,0.1,0.2,0.4,0.2,0.7
		l0.1,1.2l2.5-0.2c0.3,0,0.6,0,0.7,0.1s0.2,0.3,0.2,0.5s0,0.4-0.2,0.5s-0.4,0.2-0.7,0.2L60.6,119z"/>
	<path class="st2" d="M70.5,118.6c-0.2-0.1-0.5-0.2-0.7-0.3s-0.5-0.1-0.8-0.1c-0.5,0-0.9,0.1-1.2,0.3c-0.1,0.1-0.2,0.2-0.2,0.3
		c0,0.1,0.1,0.2,0.3,0.3c0.1,0.1,0.5,0.1,1,0.1c0.9,0.1,1.5,0.2,1.9,0.3c0.5,0.1,0.8,0.4,1.1,0.7c0.3,0.3,0.4,0.6,0.4,1
		c0,0.5-0.2,0.9-0.6,1.3c-0.6,0.5-1.4,0.8-2.3,0.8c-0.4,0-0.8,0-1.1,0c-0.3,0-0.6-0.1-0.9-0.2c-0.1,0.1-0.1,0.1-0.2,0.1
		s-0.1,0.1-0.2,0.1c-0.2,0-0.4,0-0.5-0.2c-0.1-0.1-0.2-0.4-0.2-0.7v-0.5c0-0.3,0-0.6,0.1-0.7s0.3-0.2,0.5-0.2s0.3,0,0.4,0.1
		s0.2,0.2,0.3,0.4c0.2,0.2,0.5,0.3,0.8,0.4s0.6,0.1,1,0.1c0.6,0,1.1-0.2,1.4-0.4c0.2-0.1,0.2-0.2,0.2-0.3c0-0.2-0.1-0.3-0.4-0.4
		c-0.2-0.1-0.7-0.2-1.5-0.2c-1.1,0-1.8-0.2-2.2-0.5c-0.4-0.3-0.6-0.7-0.6-1.2s0.2-0.9,0.5-1.2c0.5-0.5,1.2-0.7,2.1-0.8
		c0.3,0,0.6,0,0.9,0s0.6,0.1,0.8,0.2c0.1-0.1,0.2-0.1,0.2-0.2c0.1,0,0.1-0.1,0.2-0.1c0.2,0,0.3,0,0.5,0.2c0.1,0.1,0.2,0.4,0.2,0.7
		v0.3c0,0.3,0,0.5-0.1,0.6c-0.1,0.2-0.3,0.3-0.6,0.3c-0.2,0-0.3,0-0.4-0.1C70.6,118.9,70.5,118.8,70.5,118.6z"/>
	<path class="st2" d="M87.2,116.2c0.2-0.2,0.3-0.3,0.5-0.3s0.4,0,0.5,0.2s0.2,0.4,0.2,0.7l0.1,0.9c0,0.3,0,0.6-0.1,0.7
		s-0.3,0.2-0.5,0.2s-0.3,0-0.5-0.1c-0.1-0.1-0.2-0.2-0.2-0.5c-0.1-0.2-0.2-0.4-0.4-0.5c-0.4-0.2-0.8-0.3-1.4-0.2
		c-0.6,0-1.1,0.3-1.5,0.7c-0.4,0.4-0.5,0.9-0.5,1.5c0,0.5,0.2,0.9,0.6,1.2c0.4,0.3,1,0.4,1.9,0.3c0.6,0,1-0.1,1.4-0.3
		c0.2-0.1,0.4-0.2,0.6-0.4c0.2-0.2,0.3-0.3,0.5-0.3s0.3,0,0.5,0.2c0.1,0.1,0.2,0.3,0.2,0.5c0,0.3-0.2,0.6-0.6,0.9
		c-0.6,0.4-1.5,0.7-2.6,0.8c-1,0.1-1.9-0.1-2.5-0.5c-0.8-0.5-1.3-1.3-1.3-2.3c-0.1-1,0.2-1.8,0.8-2.4c0.6-0.7,1.4-1,2.4-1.1
		c0.4,0,0.7,0,1,0C86.6,116,87,116.1,87.2,116.2z"/>
	<path class="st2" d="M96.9,118.5c0,0.5-0.1,1-0.3,1.5c-0.3,0.5-0.7,0.9-1.2,1.2c-0.6,0.3-1.1,0.5-1.8,0.5c-0.6,0-1.2-0.1-1.8-0.3
		c-0.6-0.2-1-0.6-1.4-1.1c-0.3-0.5-0.5-1-0.5-1.5s0.1-1.1,0.3-1.6c0.3-0.5,0.7-1,1.2-1.3s1.1-0.5,1.7-0.6c0.6,0,1.2,0.1,1.8,0.3
		c0.6,0.3,1,0.7,1.4,1.2S96.9,118,96.9,118.5z M95.5,118.6c0-0.4-0.2-0.8-0.5-1.2c-0.5-0.5-1-0.7-1.7-0.6c-0.6,0-1.1,0.3-1.5,0.7
		c-0.4,0.4-0.6,0.9-0.5,1.4c0,0.4,0.3,0.8,0.7,1.1c0.4,0.3,1,0.5,1.6,0.5s1.1-0.3,1.5-0.6C95.4,119.4,95.6,119,95.5,118.6z"/>
	<path class="st2" d="M105,118c0,0.5-0.1,1-0.3,1.5c-0.3,0.5-0.7,0.9-1.2,1.2c-0.6,0.3-1.1,0.5-1.8,0.5c-0.6,0-1.2-0.1-1.8-0.3
		c-0.6-0.2-1-0.6-1.4-1.1c-0.3-0.5-0.5-1-0.5-1.5s0.1-1.1,0.4-1.6s0.7-1,1.2-1.3s1.1-0.5,1.7-0.6c0.6,0,1.2,0.1,1.8,0.3
		c0.6,0.3,1,0.7,1.4,1.2S104.9,117.5,105,118z M103.6,118.1c0-0.4-0.2-0.8-0.5-1.2c-0.5-0.5-1-0.7-1.7-0.6c-0.6,0-1.1,0.3-1.5,0.7
		c-0.4,0.4-0.6,0.9-0.5,1.4c0,0.4,0.3,0.8,0.7,1.1c0.4,0.3,1,0.5,1.6,0.5s1.1-0.3,1.5-0.6C103.5,118.9,103.7,118.5,103.6,118.1z"/>
	<path class="st2" d="M108.5,118.4l0.1,2.2l-1.6,0.1c-0.3,0-0.6,0-0.7-0.1s-0.2-0.3-0.2-0.5s0-0.4,0.2-0.5c0.1-0.1,0.4-0.2,0.7-0.2
		h0.2l-0.4-5.8h-0.2c-0.3,0-0.6,0-0.7-0.1s-0.2-0.3-0.2-0.5s0-0.4,0.2-0.5c0.1-0.1,0.4-0.2,0.7-0.2l1.6-0.1l0.3,4.5l1-0.9
		c-0.1-0.2-0.2-0.3-0.2-0.5s0-0.4,0.2-0.5c0.1-0.1,0.4-0.2,0.7-0.2l1.5-0.1c0.3,0,0.6,0,0.7,0.1s0.2,0.3,0.2,0.5s0,0.4-0.2,0.5
		c-0.1,0.1-0.4,0.2-0.7,0.2h-0.4l-1.6,1.4l2.3,1.8h0.4c0.3,0,0.6,0,0.7,0.1s0.2,0.3,0.2,0.5s0,0.4-0.2,0.5s-0.4,0.2-0.7,0.2
		l-1.6,0.1c-0.3,0-0.6,0-0.7-0.1s-0.2-0.3-0.2-0.5s0.1-0.3,0.2-0.5l-1.5-1.2L108.5,118.4z"/>
	<path class="st2" d="M118.1,114.1l0.3,4.6l1.6-0.1c0.3,0,0.6,0,0.7,0.1s0.2,0.3,0.2,0.5s0,0.4-0.2,0.5c-0.1,0.1-0.4,0.2-0.7,0.2
		l-4.6,0.3c-0.3,0-0.6,0-0.7-0.1s-0.2-0.3-0.2-0.5s0-0.4,0.2-0.5c0.1-0.1,0.4-0.2,0.7-0.2l1.6-0.1l-0.2-3.3l-1.1,0.1
		c-0.3,0-0.6,0-0.7-0.1s-0.2-0.3-0.2-0.5s0-0.4,0.2-0.5c0.1-0.1,0.4-0.2,0.7-0.2L118.1,114.1z M117.8,111.5l0.1,1.4l-1.6,0.1
		l-0.1-1.4L117.8,111.5z"/>
	<path class="st2" d="M129.2,117.1l-5.5,0.3c0.2,0.3,0.4,0.6,0.8,0.8c0.4,0.2,0.9,0.3,1.5,0.2c0.5,0,1.2-0.2,2-0.4
		c0.3-0.1,0.6-0.2,0.7-0.2c0.2,0,0.3,0,0.5,0.2c0.1,0.1,0.2,0.3,0.2,0.5s0,0.3-0.2,0.5s-0.6,0.4-1.3,0.5c-0.7,0.2-1.3,0.3-1.9,0.3
		c-1.1,0.1-2-0.2-2.6-0.8c-0.7-0.6-1.1-1.3-1.1-2.2c-0.1-0.9,0.2-1.7,0.9-2.4c0.7-0.6,1.5-1,2.4-1c0.5,0,1.1,0,1.5,0.2
		c0.5,0.2,0.8,0.4,1.1,0.6c0.3,0.3,0.6,0.7,0.9,1.2c0.2,0.3,0.3,0.7,0.3,1.1L129.2,117.1z M127.6,115.8c-0.2-0.4-0.5-0.6-0.9-0.8
		c-0.3-0.2-0.7-0.2-1.2-0.2s-0.8,0.1-1.2,0.4c-0.3,0.2-0.6,0.5-0.8,0.9L127.6,115.8z"/>
	<path class="st2" d="M135.2,114.6c-0.2-0.1-0.5-0.2-0.7-0.3s-0.5-0.1-0.8-0.1c-0.5,0-0.9,0.1-1.2,0.3c-0.1,0.1-0.2,0.2-0.2,0.3
		c0,0.1,0.1,0.2,0.3,0.3c0.1,0.1,0.5,0.1,1,0.1c0.9,0.1,1.5,0.2,1.9,0.3c0.5,0.1,0.8,0.4,1.1,0.7c0.3,0.3,0.4,0.6,0.4,1
		c0,0.5-0.2,0.9-0.6,1.3c-0.6,0.5-1.4,0.8-2.3,0.8c-0.4,0-0.8,0-1.1,0s-0.6-0.1-0.9-0.2c-0.1,0.1-0.1,0.1-0.2,0.1
		c-0.1,0-0.1,0.1-0.2,0.1c-0.2,0-0.4,0-0.5-0.2c-0.1-0.1-0.2-0.4-0.2-0.7v-0.5c0-0.3,0-0.6,0.1-0.7s0.3-0.2,0.5-0.2s0.3,0,0.4,0.1
		c0.1,0.1,0.2,0.2,0.3,0.4c0.2,0.2,0.5,0.3,0.8,0.4s0.6,0.1,1,0.1c0.6,0,1.1-0.2,1.4-0.4c0.2-0.1,0.2-0.2,0.2-0.3
		c0-0.2-0.1-0.3-0.4-0.4c-0.2-0.1-0.7-0.2-1.5-0.2c-1.1,0-1.8-0.2-2.2-0.5s-0.6-0.7-0.6-1.2s0.1-0.9,0.5-1.2
		c0.5-0.5,1.2-0.7,2.1-0.8c0.3,0,0.6,0,0.9,0c0.3,0,0.6,0.1,0.8,0.2c0.1-0.1,0.2-0.1,0.2-0.2c0.1,0,0.1-0.1,0.2-0.1
		c0.2,0,0.3,0,0.5,0.2s0.2,0.4,0.2,0.7v0.3c0,0.3,0,0.5-0.1,0.6c-0.1,0.2-0.3,0.3-0.6,0.3c-0.2,0-0.3,0-0.4-0.1
		C135.3,114.9,135.2,114.8,135.2,114.6z"/>
</g>
</svg>
