<?xml version="1.0" encoding="utf-8"?>
<!-- Generator: Adobe Illustrator 22.1.0, SVG Export Plug-In . SVG Version: 6.00 Build 0)  -->
<svg version="1.1" id="Layer_1" xmlns="http://www.w3.org/2000/svg" xmlns:xlink="http://www.w3.org/1999/xlink" x="0px" y="0px" width="200px" height="200px"
	 viewBox="0 0 200 200" style="enable-background:new 0 0 200 200;" xml:space="preserve">
<style type="text/css">
	.st0{fill:#FFECC4;}
	.st1{fill:#5F3B00;}
	.st2{fill:#A67C52;}
	.st3{fill:#754C24;}
	.st4{fill:#42210B;}
</style>
<polygon class="st0" points="57.5,41.5 37.5,50.5 13.3,100 18,134 37.5,150.3 69.8,156.3 101.3,149.8 127,129.8 131.5,105 
	125.8,81.5 102.8,54.8 64.9,43.3 "/>
<g id="Layer_3">
	<g>
		<g>
			<path class="st1" d="M59,35.4c-13.1-0.2-23.4,9.2-30.4,19.4c-7.5,10.9-13.1,24.1-17,36.7c-3.9,12.5-5.2,26.5-0.5,39
				c4.3,11.4,13.4,20,24.4,24.9c13,5.8,27.8,6.5,41.9,5.3c13.6-1.2,27.8-4.3,39-12.4c20.7-14.8,24.3-44.1,15.1-66.5
				c-10.7-26.2-37-41.6-64.6-43.2c-6.4-0.4-6.4,9.6,0,10c20.3,1.2,40.5,11.2,51.3,28.8c10.2,16.7,11.9,40.5-0.9,56.5
				c-7.2,8.9-18.6,13.1-29.5,15.3c-11.9,2.4-25.1,3-37,0.6c-9.9-2-19.8-6.6-26.1-14.8c-6.5-8.5-7.7-20-6.1-30.3
				c2.1-12.7,7.5-25.2,13.5-36.6C37.6,58,46.2,45.2,59,45.4C65.5,45.5,65.5,35.5,59,35.4L59,35.4z"/>
		</g>
	</g>
</g>
<g id="Layer_2_1_">
	<g>
		<g>
			<path class="st2" d="M36.3,91.5c6.4,0,6.4-10,0-10C29.8,81.5,29.8,91.5,36.3,91.5L36.3,91.5z"/>
		</g>
	</g>
	<g>
		<g>
			<path class="st2" d="M37.5,119.3c6.4,0,6.4-10,0-10S31.1,119.3,37.5,119.3L37.5,119.3z"/>
		</g>
	</g>
	<g>
		<g>
			<path class="st2" d="M65.3,96.3c6.4,0,6.4-10,0-10C58.8,86.3,58.8,96.3,65.3,96.3L65.3,96.3z"/>
		</g>
	</g>
	<g>
		<g>
			<path class="st2" d="M79.3,129.8c6.4,0,6.4-10,0-10C72.8,119.8,72.8,129.8,79.3,129.8L79.3,129.8z"/>
		</g>
	</g>
	<g>
		<g>
			<path class="st2" d="M101.3,77.8c6.4,0,6.4-10,0-10C94.8,67.8,94.8,77.8,101.3,77.8L101.3,77.8z"/>
		</g>
	</g>
	<g>
		<g>
			<path class="st3" d="M102.8,113.8c6.4,0,6.4-10,0-10C96.3,103.8,96.3,113.8,102.8,113.8L102.8,113.8z"/>
		</g>
	</g>
	<g>
		<g>
			<path class="st3" d="M69.8,67.5c6.4,0,6.4-10,0-10C63.3,57.5,63.3,67.5,69.8,67.5L69.8,67.5z"/>
		</g>
	</g>
	<g>
		<g>
			<path class="st3" d="M50,141.3c6.4,0,6.4-10,0-10S43.6,141.3,50,141.3L50,141.3z"/>
		</g>
	</g>
	<g>
		<g>
			<path class="st3" d="M98.3,137.3c6.4,0,6.4-10,0-10C91.8,127.3,91.8,137.3,98.3,137.3L98.3,137.3z"/>
		</g>
	</g>
	<g>
		<g>
			<path class="st4" d="M56,118c6.4,0,6.4-10,0-10S49.6,118,56,118L56,118z"/>
		</g>
	</g>
	<g>
		<g>
			<path class="st4" d="M117,95.8c6.4,0,6.4-10,0-10S110.6,95.8,117,95.8L117,95.8z"/>
		</g>
	</g>
</g>
</svg>
