<?xml version="1.0" encoding="utf-8"?>
<!-- Generator: Adobe Illustrator 22.1.0, SVG Export Plug-In . SVG Version: 6.00 Build 0)  -->
<svg version="1.1" id="Layer_4_copy_5" xmlns="http://www.w3.org/2000/svg" xmlns:xlink="http://www.w3.org/1999/xlink" x="0px"
	 y="0px" width="200px" height="200px" viewBox="0 0 200 200" style="enable-background:new 0 0 200 200;" xml:space="preserve">
<style type="text/css">
	.st0{fill:#FFECC4;}
	.st1{fill:#5F3B00;}
	.st2{fill:#754C24;}
	.st3{fill:#42210B;}
	.st4{fill:#A67C52;}
</style>
<g>
	<path class="st0" d="M40.8,112.7c3.1-2.3,9-4.9,10.1-9c2.1-7.6,4.2-14.2,3.6-22c-0.6-7.8-1-17.6-4.8-24.5
		c-1.9-3.4-6.9-6.3-10.9-6.2c-2.3,0-3.9,2.3-6,3.2c-6.4,2.5-6.3,6.6-7.2,8.8c-4.9,12.1-8.4,23.1-5.8,36.1c1.1,5.5,2.9,11.6,7.8,14.4
		c1.9,1.1,4.2,1.4,6.4,1.5c2.3,0.1,4.9-0.2,6.2-2.1"/>
	<g>
		<path class="st1" d="M42,114.7c3.8-2.7,8.7-4.8,10.7-9.3c2.6-5.9,4-13.7,4.2-20.1c0.1-6.5-0.6-13.5-2-19.9
			c-1.1-5.3-3-10.6-7.6-13.7c-4.4-3-8.8-3.7-13.3-0.9c-4.1,2.6-8,4-9.8,8.9c-4.7,12.7-9.2,25.3-6.8,39c1,5.7,2.8,12.4,7.8,15.9
			c4.5,3.2,12.5,4.2,16.5-0.1c2-2.1-1.2-5.3-3.2-3.2c-3.2,3.4-9.9,0.9-12.3-1.9c-1.8-2.1-2.8-4.8-3.5-7.5c-1.7-6.5-2-13.2-0.9-19.8
			c1.1-6.2,3.4-11.9,5.5-17.7c0.5-1.3,0.8-2.8,1.4-4.1c1.4-2.8,3.8-3.4,6.3-4.9c3-1.8,5.4-2.6,8.7-0.7c2.9,1.7,4.4,4.1,5.4,7.2
			c1.9,5.6,2.3,11.6,2.8,17.5c0.5,6.4-0.3,12.3-1.9,18.5c-0.8,2.9-1.3,5.9-3.6,8.1c-2,1.9-4.6,3.2-6.9,4.7
			C37.3,112.4,39.6,116.3,42,114.7L42,114.7z"/>
	</g>
</g>
<g>
	<g>
		<path class="st2" d="M34.4,104.3c1.5-2.4-2.1-4.8-3.7-2.4C29.1,104.3,32.8,106.7,34.4,104.3L34.4,104.3z"/>
	</g>
</g>
<g>
	<g>
		<path class="st3" d="M29.1,94c1.5-2.4-2.1-4.8-3.7-2.4C23.9,93.9,27.6,96.3,29.1,94L29.1,94z"/>
	</g>
</g>
<g>
	<g>
		<path class="st4" d="M46.7,69.8c1.5-2.4-2.1-4.8-3.7-2.4C41.4,69.8,45.1,72.2,46.7,69.8L46.7,69.8z"/>
	</g>
</g>
<g>
	<g>
		<path class="st2" d="M45.4,90.3c1.5-2.4-2.1-4.8-3.7-2.4C40.2,90.3,43.9,92.7,45.4,90.3L45.4,90.3z"/>
	</g>
</g>
<g>
	<g>
		<path class="st4" d="M46.7,79.5c1.5-2.4-2.1-4.8-3.7-2.4C41.4,79.5,45.1,81.9,46.7,79.5L46.7,79.5z"/>
	</g>
</g>
<g>
	<g>
		<path class="st3" d="M31.7,79.6c1.5-2.4-2.1-4.8-3.7-2.4C26.5,79.5,30.2,81.9,31.7,79.6L31.7,79.6z"/>
	</g>
</g>
<g>
	<g>
		<path class="st2" d="M37.5,86.9c1.5-2.4-2.1-4.8-3.7-2.4C32.3,86.9,35.9,89.3,37.5,86.9L37.5,86.9z"/>
	</g>
</g>
<g>
	<g>
		<path class="st3" d="M41.9,98.5c1.5-2.4-2.1-4.8-3.7-2.4C36.7,98.4,40.4,100.8,41.9,98.5L41.9,98.5z"/>
	</g>
</g>
<g>
	<g>
		<path class="st4" d="M36.4,69.8c1.5-2.4-2.1-4.8-3.7-2.4C31.1,69.8,34.8,72.2,36.4,69.8L36.4,69.8z"/>
	</g>
</g>
<g>
	<g>
		<path class="st3" d="M40.8,60.6c1.4-2.4-2.4-4.6-3.8-2.2C35.6,60.8,39.4,63,40.8,60.6L40.8,60.6z"/>
	</g>
</g>
</svg>
