<?xml version="1.0" encoding="utf-8"?>
<!-- Generator: Adobe Illustrator 22.1.0, SVG Export Plug-In . SVG Version: 6.00 Build 0)  -->
<svg version="1.1" id="Layer_4_copy_4" xmlns="http://www.w3.org/2000/svg" xmlns:xlink="http://www.w3.org/1999/xlink" x="0px"
	 y="0px" width="200px" height="200px" viewBox="0 0 200 200" style="enable-background:new 0 0 200 200;" xml:space="preserve">
<style type="text/css">
	.st0{fill:#FFECC4;}
	.st1{fill:#5F3B00;}
	.st2{fill:#754C24;}
	.st3{fill:#42210B;}
	.st4{fill:#A67C52;}
</style>
<g>
	<path class="st0" d="M69.9,110c2.7-2.7,4.4-6,4.9-10.3c1-7.8,3.9-15.6,2.2-23.3c-2.6-11.8-4.4-14.6-9.1-20.9
		c-2.3-3.1-4.7-7-8.6-6.4c-2.3,0.4-4.3,2-5.5,4c-1.3,2-1.9,4.2-2.5,6.5c-3.2,12.7-3.9,26-2.2,39c0.7,5.5,2.6,11.9,7.8,14
		c2.1,0.8,4.4,0.8,6.6,0.6c2.3-0.2,4.8-0.9,5.8-2.9"/>
	<g>
		<path class="st1" d="M71.5,111.5c5.6-6,6.1-14.2,7.5-22c1.4-8.1,0.4-15.6-2.4-23.3c-2.7-7.6-11.7-24.5-21.5-17.5
			C48.8,53,48,63.1,47,70c-1.3,9.4-1.5,19.1-0.2,28.6c0.8,5.7,2.4,12.3,7.7,15.4c5,2.9,13.2,2.3,16.6-2.6c1.7-2.4-2.2-4.6-3.9-2.3
			c-1.9,2.7-7.9,2.4-10.5,0.9c-2.5-1.4-3.7-4.3-4.5-6.9c-1.6-5.3-1.8-11.2-1.8-16.7c-0.1-6.3,0.4-12.7,1.5-18.9
			c0.8-4.8,3.5-20.8,11.1-14.6c5.4,4.4,9,12.8,10.7,19.3c1.8,6.9,1.6,12.7,0.2,19.7c-1.1,5.9-1.3,11.8-5.6,16.5
			C66.4,110.5,69.5,113.7,71.5,111.5L71.5,111.5z"/>
	</g>
</g>
<g>
	<g>
		<path class="st2" d="M62.3,102.5c1.2-2.5-2.8-4.4-4-1.9C57.2,103.2,61.1,105.1,62.3,102.5L62.3,102.5z"/>
	</g>
</g>
<g>
	<g>
		<path class="st3" d="M61.4,97.6c1.2-2.5-2.8-4.4-4-1.9C56.2,98.3,60.2,100.1,61.4,97.6L61.4,97.6z"/>
	</g>
</g>
<g>
	<g>
		<path class="st4" d="M63.6,60.4c1.2-2.5-2.8-4.4-4-1.9C58.4,61.1,62.4,63,63.6,60.4L63.6,60.4z"/>
	</g>
</g>
<g>
	<g>
		<path class="st2" d="M70.2,85.1c1.2-2.5-2.8-4.4-4-1.9C65,85.8,68.9,87.7,70.2,85.1L70.2,85.1z"/>
	</g>
</g>
<g>
	<g>
		<path class="st4" d="M71.1,76.3c1.2-2.5-2.8-4.4-4-1.9C65.9,77,69.9,78.8,71.1,76.3L71.1,76.3z"/>
	</g>
</g>
<g>
	<g>
		<path class="st3" d="M56.3,78.4c1.2-2.5-2.8-4.4-4-1.9S55.1,80.9,56.3,78.4L56.3,78.4z"/>
	</g>
</g>
<g>
	<g>
		<path class="st2" d="M64.6,69.5c1.2-2.5-2.8-4.4-4-1.9C59.4,70.2,63.3,72.1,64.6,69.5L64.6,69.5z"/>
	</g>
</g>
<g>
	<g>
		<path class="st3" d="M69,92.2c1.2-2.5-2.8-4.4-4-1.9C63.8,92.9,67.8,94.8,69,92.2L69,92.2z"/>
	</g>
</g>
<g>
	<g>
		<path class="st4" d="M62.3,82.1c1.2-2.5-2.8-4.4-4-1.9C57.1,82.8,61,84.7,62.3,82.1L62.3,82.1z"/>
	</g>
</g>
</svg>
