<?xml version="1.0" encoding="utf-8"?>
<!-- Generator: Adobe Illustrator 22.1.0, SVG Export Plug-In . SVG Version: 6.00 Build 0)  -->
<svg version="1.1" id="Layer_4_copy_2" xmlns="http://www.w3.org/2000/svg" xmlns:xlink="http://www.w3.org/1999/xlink" x="0px"
	 y="0px" width="200px" height="200px" viewBox="0 0 200 200" style="enable-background:new 0 0 200 200;" xml:space="preserve">
<style type="text/css">
	.st0{fill:#FFECC4;}
	.st1{fill:#5F3B00;}
	.st2{fill:#754C24;}
	.st3{fill:#42210B;}
	.st4{fill:#A67C52;}
</style>
<g>
	<path class="st0" d="M116.4,104.5c3-2.5,6-7.2,6.9-11.4c1.6-7.7,3.7-16.3,2.6-24c-1-7.8-2.7-12.4-6.9-19c-2.1-3.3-3.7-5.5-7.6-5.2
		c-2.3,0.2-5.1,0-7.3,3.3c-1.3,1.9-0.9,2.5-1.9,4.6c-7.2,15-5,25.4-4.5,38.5c0.3,5.6,0.4,10.4,5.4,12.9c2,1,4.4,3,6.6,3
		c2.3,0,4.9-0.4,6-2.4"/>
	<g>
		<path class="st1" d="M118,106.1c6.2-5.6,7.8-12.9,9.3-20.8c1.5-8.1,1.7-16.1-0.6-24.1c-1.6-5.6-4.7-13.5-9.6-17
			c-4.1-2.9-10.9-1.9-14.1,1.8c-2.2,2.5-3.1,6.2-4.3,9.2C97.2,59,96,62.9,95.4,67c-1.2,7.6-0.4,15.2,0,22.8c0.3,5.8,0.2,12,5.4,15.7
			c4.8,3.4,12,6.3,16.5,0.9c1.8-2.2-1.3-5.4-3.2-3.2c-2.8,3.4-7.1,1-9.9-0.9c-2.7-1.9-3.6-3.7-4-6.9c-0.6-4.8-0.6-9.7-0.9-14.5
			c-0.2-5-0.2-10,0.8-14.9c1-5.2,2.8-11.7,5.8-16c1.5-2.1,4.8-3.4,7.5-2.5c2.5,0.9,4.2,4.6,5.4,6.7c2.5,4.4,4,9.1,4.8,14.1
			c1,6.5,0,13-1.3,19.4c-1.2,6-2.8,11.1-7.4,15.4C112.7,104.8,115.9,108,118,106.1L118,106.1z"/>
	</g>
</g>
<g>
	<g>
		<path class="st2" d="M116.7,94.6c1.4-2.4-2.4-4.6-3.8-2.2C111.5,94.8,115.3,97,116.7,94.6L116.7,94.6z"/>
	</g>
</g>
<g>
	<g>
		<path class="st3" d="M112.6,54.1c1.4-2.4-2.4-4.6-3.8-2.2C107.4,54.3,111.2,56.5,112.6,54.1L112.6,54.1z"/>
	</g>
</g>
<g>
	<g>
		<path class="st4" d="M111.7,79.6c1.4-2.4-2.4-4.6-3.8-2.2C106.5,79.9,110.3,82.1,111.7,79.6L111.7,79.6z"/>
	</g>
</g>
<g>
	<g>
		<path class="st2" d="M118.8,82.4c1.4-2.4-2.4-4.6-3.8-2.2C113.6,82.7,117.4,84.9,118.8,82.4L118.8,82.4z"/>
	</g>
</g>
<g>
	<g>
		<path class="st4" d="M120.4,71c1.4-2.4-2.4-4.6-3.8-2.2C115.2,71.3,119,73.5,120.4,71L120.4,71z"/>
	</g>
</g>
<g>
	<g>
		<path class="st3" d="M105.5,71.9c1.4-2.4-2.4-4.6-3.8-2.2S104.1,74.3,105.5,71.9L105.5,71.9z"/>
	</g>
</g>
<g>
	<g>
		<path class="st2" d="M108.2,62.7c1.4-2.4-2.4-4.6-3.8-2.2C103,63,106.8,65.2,108.2,62.7L108.2,62.7z"/>
	</g>
</g>
<g>
	<g>
		<path class="st3" d="M109.5,91.7c1.4-2.4-2.4-4.6-3.8-2.2S108.1,94.1,109.5,91.7L109.5,91.7z"/>
	</g>
</g>
<g>
	<g>
		<path class="st4" d="M116.7,65.4c1.4-2.4-2.4-4.6-3.8-2.2C111.5,65.7,115.3,67.9,116.7,65.4L116.7,65.4z"/>
	</g>
</g>
</svg>
