<?xml version="1.0" encoding="utf-8"?>
<!-- Generator: Adobe Illustrator 22.1.0, SVG Export Plug-In . SVG Version: 6.00 Build 0)  -->
<svg version="1.1" id="Layer_4_copy_3" xmlns="http://www.w3.org/2000/svg" xmlns:xlink="http://www.w3.org/1999/xlink" x="0px"
	 y="0px" width="200px" height="200px" viewBox="0 0 200 200" style="enable-background:new 0 0 200 200;" xml:space="preserve">
<style type="text/css">
	.st0{fill:#FFECC4;}
	.st1{fill:#5F3B00;}
	.st2{fill:#754C24;}
	.st3{fill:#42210B;}
	.st4{fill:#A67C52;}
</style>
<g>
	<path class="st0" d="M92.4,108.5c3-2.5,4.9-5.6,5.8-9.8c1.6-7.7,3.6-16,2.5-23.8c-1-7.8,0.8-10.2-5.7-20.8c-2.1-3.4-0.6-7.2-8-7.1
		c-2.3,0-5,3.7-6.4,5.5s-1.7,2-2.4,4.3c-4.3,12.4-6.1,25.6-5.6,38.6c0.3,5.6,1.6,12.1,6.6,14.6c2,1,4.3,1.2,6.5,1.2
		c2.3,0,4.9-0.4,6-2.4"/>
	<g>
		<path class="st1" d="M94,110.1c4.9-4.4,6.2-9.9,7.5-16.2c1.4-7,1.9-13.6,1.3-20.7c-0.4-3.9-0.3-7.9-1.6-11.7
			c-0.9-2.7-2.3-5.2-3.7-7.8c-0.9-1.7-1.3-3.7-2.3-5.3c-1.7-3.1-5.9-4.3-9.3-3.5c-3.9,1-7.7,6.1-9.3,9.6C73.5,61,72.2,69,71.3,76.1
			c-1,7.2-1.5,14.7-0.7,21.9c0.5,4.9,2,10.4,6.4,13.3c4.4,3,12.7,3.5,16.4-0.9c1.8-2.2-1.3-5.4-3.2-3.2c-2.5,3-8.8,2.1-11.4-0.2
			c-2.2-1.9-3-5.1-3.5-7.9c-1-6-0.6-12.5,0-18.6c0.7-6.6,2-13.2,3.9-19.5c0.8-2.7,1.6-5,3.4-7.3c1.7-2.3,5.5-6.5,8.4-3.4
			c0.9,1,1.1,2.7,1.6,3.9c1,2.2,2.4,4.2,3.4,6.5c1.6,3.6,1.8,7.1,2.1,10.9c0.4,6,0.7,11.4-0.3,17.4c-1.1,6.5-1.9,13.3-7,17.9
			C88.7,108.8,91.9,112,94,110.1L94,110.1z"/>
	</g>
</g>
<g>
	<g>
		<path class="st2" d="M85.5,100.4c1.4-2.4-2.4-4.6-3.8-2.2C80.3,100.7,84.1,102.8,85.5,100.4L85.5,100.4z"/>
	</g>
</g>
<g>
	<g>
		<path class="st3" d="M89.9,60c1.4-2.4-2.4-4.6-3.8-2.2C84.7,60.2,88.5,62.4,89.9,60L89.9,60z"/>
	</g>
</g>
<g>
	<g>
		<path class="st4" d="M82.8,92.7c2.7,0.7,3.8-3.5,1.1-4.2C81.1,87.7,80,92,82.8,92.7L82.8,92.7z"/>
	</g>
</g>
<g>
	<g>
		<path class="st2" d="M94.8,83.7c1.4-2.4-2.4-4.6-3.8-2.2C89.6,84,93.4,86.2,94.8,83.7L94.8,83.7z"/>
	</g>
</g>
<g>
	<g>
		<path class="st4" d="M87.7,80.2c1.4-2.4-2.4-4.6-3.8-2.2C82.5,80.4,86.3,82.6,87.7,80.2L87.7,80.2z"/>
	</g>
</g>
<g>
	<g>
		<path class="st3" d="M81.5,75.9c1.4-2.4-2.4-4.6-3.8-2.2S80.1,78.3,81.5,75.9L81.5,75.9z"/>
	</g>
</g>
<g>
	<g>
		<path class="st2" d="M94.8,73c1.4-2.4-2.4-4.6-3.8-2.2C89.6,73.3,93.4,75.5,94.8,73L94.8,73z"/>
	</g>
</g>
<g>
	<g>
		<path class="st3" d="M93.9,92.9c1.4-2.4-2.4-4.6-3.8-2.2C88.7,93.1,92.5,95.3,93.9,92.9L93.9,92.9z"/>
	</g>
</g>
<g>
	<g>
		<path class="st4" d="M83.7,66.3c1.4-2.4-2.4-4.6-3.8-2.2C78.5,66.5,82.3,68.7,83.7,66.3L83.7,66.3z"/>
	</g>
</g>
</svg>
