<?xml version="1.0" encoding="utf-8"?>
<!-- Generator: Adobe Illustrator 22.1.0, SVG Export Plug-In . SVG Version: 6.00 Build 0)  -->
<svg version="1.1" id="Layer_1" xmlns="http://www.w3.org/2000/svg" xmlns:xlink="http://www.w3.org/1999/xlink" x="0px" y="0px" width="200px" height="200px"
	 viewBox="0 0 200 200" style="enable-background:new 0 0 200 200;" xml:space="preserve">
<style type="text/css">
	.st0{fill:#FFECC4;}
	.st1{fill:#5F3B00;}
	.st2{fill:#A67C52;}
	.st3{fill:#754C24;}
	.st4{fill:#42210B;}
</style>
<g id="Layer_3">
	<polygon class="st0" points="56,39.5 37.5,51.5 22.8,79.8 14.5,114.3 23,141.3 41.1,149.5 76.5,154.3 101.3,149.8 111.3,135 
		108,124.8 89.3,119.3 66.5,96.9 60.4,63 65.3,44.8 	"/>
	<g>
		<g>
			<path class="st1" d="M59,35.4c-13.9-0.2-24.7,10.4-31.8,21.4c-7.7,12.1-14,26.8-17.2,40.8c-3.1,13.3-2.8,28.1,4.5,40
				c6.8,11.1,18.6,18.2,31,21.3c13.9,3.5,29,2.7,43.1,1.4c10.2-0.9,18.6-4.3,23.9-13.6c4.3-7.6,7.3-22.7-3.6-26.5
				c-5.3-1.8-11.1,0.4-15.6-3.8c-3.4-3.1-5.6-7.3-9.1-10.5c-3.2-2.8-8.6-4.7-9.8-9.1c-0.6-2.4-0.4-5-0.6-7.4
				c-0.3-3.9-1-7.8-2.4-11.5c-1.6-4.5-5.4-8.3-6.1-13.1c-1-6.8,2.5-13.3,6.1-18.7c3.5-5.4-5.1-10.4-8.6-5c-5.3,8.2-9.3,18.1-6.7,28
				c1,3.9,3.5,6.7,5.2,10.2c2.3,4.9,2.5,10.1,2.8,15.4c0.3,4.2,1.3,8.1,4,11.4c2.5,3,6.1,4.5,9,7c7.2,6.2,10.1,14.4,20.6,16
				c3.4,0.5,8.3-1.3,8.8,3c0.6,4.8-2.5,10.8-5.9,14c-5.9,5.5-15.9,4.5-23.3,4.8c-13.8,0.5-28.2,0.8-40.6-6.1
				c-10.8-5.9-17.4-15.9-18.4-28.2c-1.1-14.9,5-29.4,11.2-42.6C34.9,62.2,44,45.2,59,45.4C65.5,45.5,65.5,35.5,59,35.4L59,35.4z"/>
		</g>
	</g>
</g>
<g id="Layer_2_1_">
	<g>
		<g>
			<path class="st2" d="M36.3,91.5c6.4,0,6.4-10,0-10C29.8,81.5,29.8,91.5,36.3,91.5L36.3,91.5z"/>
		</g>
	</g>
	<g>
		<g>
			<path class="st2" d="M37.5,119.3c6.4,0,6.4-10,0-10S31.1,119.3,37.5,119.3L37.5,119.3z"/>
		</g>
	</g>
	<g>
		<g>
			<path class="st2" d="M65.3,96.3c6.4,0,6.4-10,0-10C58.8,86.3,58.8,96.3,65.3,96.3L65.3,96.3z"/>
		</g>
	</g>
	<g>
		<g>
			<path class="st2" d="M79.3,129.8c6.4,0,6.4-10,0-10C72.8,119.8,72.8,129.8,79.3,129.8L79.3,129.8z"/>
		</g>
	</g>
	<g>
		<g>
			<path class="st3" d="M50,141.3c6.4,0,6.4-10,0-10S43.6,141.3,50,141.3L50,141.3z"/>
		</g>
	</g>
	<g>
		<g>
			<path class="st3" d="M98.3,137.3c6.4,0,6.4-10,0-10C91.8,127.3,91.8,137.3,98.3,137.3L98.3,137.3z"/>
		</g>
	</g>
	<g>
		<g>
			<path class="st4" d="M56,118c6.4,0,6.4-10,0-10S49.6,118,56,118L56,118z"/>
		</g>
	</g>
</g>
</svg>
