<?xml version="1.0" encoding="utf-8"?>
<!-- Generator: Adobe Illustrator 22.1.0, SVG Export Plug-In . SVG Version: 6.00 Build 0)  -->
<svg version="1.1" id="Layer_2_1_" xmlns="http://www.w3.org/2000/svg" xmlns:xlink="http://www.w3.org/1999/xlink" x="0px" y="0px" width="200px" height="200px"
	 viewBox="0 0 200 200" style="enable-background:new 0 0 200 200;" xml:space="preserve">
<style type="text/css">
	.st0{fill:#FFF7D4;}
	.st1{fill:#00005E;}
	.st2{fill:#00536A;}
	.st3{fill:#229A73;}
	.st4{fill:#C92200;}
</style>
<g>
	<polygon class="st0" points="42.7,20.5 13.8,25.3 20.7,47.3 24.7,125.7 100,125.7 95.2,20.5 	"/>
	<g>
		<path class="st1" d="M31.7,43.2c-0.6,0-1.2,0-1.8-0.2c-0.2,0.2-0.4,0.3-0.6,0.3s-0.5-0.1-0.6-0.2c-0.2-0.2-0.3-0.4-0.3-0.6
			c0-0.1,0-0.3,0-0.5s0-0.4,0-0.5L28,33.8c0-0.3,0-0.6,0.2-0.9c0.2-0.3,0.4-0.5,0.8-0.5c0.5,0,0.7,0.2,0.8,0.8c0,0.1,0,0.2,0,0.3
			s0,0.2,0,0.3l0.2,2.6c0.3-0.2,0.6-0.4,0.9-0.5s0.6-0.2,0.9-0.2c1.1-0.1,2,0.3,2.7,1c0.7,0.7,1,1.6,1.1,2.6c0.1,1.1-0.2,2-0.9,2.7
			C33.6,42.8,32.7,43.2,31.7,43.2z M31.6,37.4c-0.2,0-0.5,0.1-0.8,0.3s-0.6,0.4-1,0.7c0,0.4,0.1,1.4,0.2,2.9
			c0.6,0.2,1.2,0.3,1.6,0.3c0.6,0,1-0.3,1.4-0.7s0.5-0.9,0.5-1.5S33.3,38.3,33,38C32.5,37.5,32.1,37.3,31.6,37.4z"/>
		<path class="st1" d="M42.1,37.4c0,0.7-0.3,1.1-0.9,1.1c-0.6,0-0.9-0.2-0.9-0.8l0-0.7c-1,0.2-1.7,0.8-2.1,1.7l0.2,3.4
			c0,0.3-0.1,0.5-0.2,0.7c-0.2,0.2-0.4,0.3-0.7,0.3S37,43,36.8,42.9c-0.2-0.2-0.2-0.4-0.3-0.6l-0.3-4.5c0-0.1,0-0.4,0-0.6
			c0-0.3,0-0.5,0-0.6c0-0.3,0-0.5,0.2-0.7c0.1-0.2,0.4-0.3,0.6-0.3c0.5,0,0.8,0.2,0.9,0.7c0.8-0.6,1.6-1,2.6-1.1
			c0.9-0.1,1.4,0.5,1.5,1.7C42.1,37.2,42.1,37.3,42.1,37.4z"/>
		<path class="st1" d="M46.2,42.5c-0.8,0-1.6-0.2-2.2-0.7c-0.7-0.6-1.1-1.4-1.2-2.5c-0.1-1,0.1-1.9,0.7-2.7c0.6-1,1.6-1.5,2.8-1.6
			c0.9-0.1,1.7,0.3,2.2,1c0.5,0.6,0.8,1.4,0.9,2.4c0.1,1.1-0.2,2-0.7,2.8C48.1,42,47.3,42.5,46.2,42.5z M46.3,36.8
			c-0.6,0-1,0.3-1.3,0.8c-0.2,0.4-0.4,1-0.3,1.5c0,0.5,0.2,1,0.5,1.2s0.6,0.3,0.9,0.3c0.4,0,0.7-0.2,1-0.5s0.5-0.8,0.5-1.3
			C47.6,37.5,47.2,36.8,46.3,36.8z"/>
		<path class="st1" d="M53.9,42.1c-1,0.1-1.9-0.2-2.6-0.7c-0.7-0.6-1.2-1.3-1.2-2.3c-0.1-0.9,0.2-1.9,0.8-2.9
			c0.7-1.1,1.5-1.7,2.4-1.8c0.5,0,1,0.1,1.7,0.3c0.8,0.3,1.2,0.6,1.2,1c0,0.2-0.1,0.4-0.2,0.6c-0.2,0.2-0.4,0.3-0.6,0.3
			c-0.2,0-0.4-0.1-0.7-0.3S54,36,53.4,36.1c-0.4,0-0.7,0.4-1.1,1.1c-0.4,0.7-0.5,1.3-0.5,1.8s0.2,0.8,0.6,1.1
			c0.3,0.2,0.8,0.3,1.3,0.3c0.3,0,0.7-0.2,1.1-0.4c0.4-0.3,0.7-0.4,0.8-0.4c0.2,0,0.5,0.1,0.6,0.2c0.2,0.2,0.3,0.4,0.3,0.6
			c0,0.4-0.3,0.7-1.1,1.1C54.9,41.9,54.4,42.1,53.9,42.1z"/>
		<path class="st1" d="M60.8,41.7c-0.8,0-1.6-0.2-2.2-0.7c-0.7-0.6-1.1-1.4-1.2-2.5c-0.1-1,0.1-1.9,0.7-2.7c0.6-1,1.6-1.5,2.8-1.6
			c0.9-0.1,1.7,0.3,2.2,1c0.5,0.6,0.8,1.4,0.9,2.4c0.1,1.1-0.2,2-0.7,2.8C62.7,41.2,61.8,41.6,60.8,41.7z M60.9,36
			c-0.6,0-1,0.3-1.3,0.8c-0.2,0.4-0.4,1-0.3,1.5c0,0.5,0.2,1,0.5,1.2s0.6,0.3,0.9,0.3c0.4,0,0.7-0.2,1-0.5s0.5-0.8,0.5-1.3
			C62.1,36.7,61.7,35.9,60.9,36z"/>
		<path class="st1" d="M67.3,39.9c0,0.9-0.2,1.3-0.9,1.4c-0.3,0-0.5-0.1-0.7-0.2c-0.2-0.2-0.3-0.4-0.3-0.7L64.9,31
			c0-0.3,0.1-0.5,0.2-0.7c0.2-0.2,0.4-0.3,0.7-0.3c0.3,0,0.5,0.1,0.7,0.2c0.2,0.2,0.3,0.4,0.3,0.6L67.3,39.9z"/>
		<path class="st1" d="M70.2,32.5c-0.3,0-0.5-0.1-0.8-0.3c-0.2-0.2-0.3-0.4-0.4-0.7c0-0.3,0.1-0.5,0.3-0.7c0.2-0.2,0.4-0.3,0.7-0.3
			s0.5,0.1,0.8,0.2c0.2,0.2,0.3,0.4,0.4,0.7c0,0.3-0.1,0.5-0.3,0.7C70.7,32.4,70.5,32.5,70.2,32.5z M71.1,37.5c0,0.3,0,0.7,0.1,1.2
			c0,0.6,0.1,1,0.1,1.2c0,0.3-0.1,0.5-0.2,0.7c-0.2,0.2-0.4,0.3-0.7,0.3s-0.5-0.1-0.7-0.2c-0.2-0.2-0.3-0.4-0.3-0.6
			c0-0.3,0-0.7-0.1-1.2c0-0.6-0.1-1-0.1-1.2c0-0.4,0-0.9,0-1.5s0-1.1,0-1.5c0-0.3,0.1-0.5,0.2-0.7c0.2-0.2,0.4-0.3,0.7-0.3
			c0.3,0,0.5,0.1,0.7,0.2c0.2,0.2,0.3,0.4,0.3,0.6c0,0.4,0,0.9,0,1.5C71,36.6,71.1,37.1,71.1,37.5z"/>
		<path class="st1" d="M32.2,52.7c0.6-0.1,1-0.1,1.3-0.2c0.9,0,1.3,0.2,1.3,0.8s-0.4,0.9-1.3,0.9c-0.3,0-0.7,0.1-1.3,0.1
			c0,0.5,0,1.1,0.1,1.8c0.1,1.1,0.1,1.7,0.1,1.8c0,0.8,0,1.5,0,2c-0.1,0.5-0.4,0.8-0.9,0.8c-0.3,0-0.5-0.1-0.7-0.2s-0.3-0.4-0.3-0.6
			c0-0.1,0-0.1,0-0.2c0.1-0.7,0.1-1.3,0.1-1.8l-0.2-3.4c-0.1,0-0.2,0-0.4,0.1c-0.2,0-0.3,0.1-0.4,0.1c-0.3,0-0.5-0.1-0.7-0.2
			c-0.2-0.2-0.3-0.4-0.3-0.6c0-0.4,0.2-0.7,0.6-0.9c0.2-0.1,0.6-0.1,1.2-0.2c0-0.1,0-0.3,0-0.8c0.1-1,0.3-1.8,0.7-2.3
			c0.5-0.6,1.3-1,2.4-1.1c0.8,0,1.3,0.2,1.3,0.8s-0.3,0.9-1.1,1c-0.6,0-0.9,0.2-1.2,0.6c-0.2,0.3-0.3,0.8-0.3,1.4V52.7z"/>
		<path class="st1" d="M41.9,54.3c0,0.7-0.3,1.1-0.9,1.1c-0.6,0-0.9-0.2-0.9-0.8L40,53.8c-1,0.2-1.7,0.8-2.1,1.7l0.2,3.4
			c0,0.3-0.1,0.5-0.2,0.7c-0.2,0.2-0.4,0.3-0.7,0.3s-0.5-0.1-0.7-0.2c-0.2-0.2-0.2-0.4-0.3-0.6l-0.3-4.5c0-0.1,0-0.4,0-0.6
			c0-0.3,0-0.5,0-0.6c0-0.3,0-0.5,0.2-0.7c0.1-0.2,0.4-0.3,0.6-0.3c0.5,0,0.8,0.2,0.9,0.7c0.8-0.6,1.6-1,2.6-1.1
			c0.9-0.1,1.4,0.5,1.5,1.7C41.9,54,41.9,54.2,41.9,54.3z"/>
		<path class="st1" d="M46,59.4c-0.8,0-1.6-0.2-2.2-0.7c-0.7-0.6-1.1-1.4-1.2-2.5c-0.1-1,0.1-1.9,0.7-2.7c0.6-1,1.6-1.5,2.8-1.6
			c0.9-0.1,1.7,0.3,2.2,1c0.5,0.6,0.8,1.4,0.9,2.4c0.1,1.1-0.2,2-0.7,2.8C47.9,58.8,47.1,59.3,46,59.4z M46.1,53.7
			c-0.6,0-1,0.3-1.3,0.8c-0.2,0.4-0.4,1-0.3,1.5c0,0.5,0.2,1,0.5,1.2s0.6,0.3,0.9,0.3c0.4,0,0.7-0.2,1-0.5s0.5-0.8,0.5-1.3
			C47.4,54.3,46.9,53.6,46.1,53.7z"/>
		<path class="st1" d="M56.6,54.3c-0.1,1.1-0.2,2.2-0.1,3.4c0,1.5-0.1,2.6-0.6,3.2c-0.5,0.9-1.6,1.4-3.1,1.5
			c-1.8,0.1-2.7-0.2-2.7-0.9c0-0.3,0.1-0.5,0.2-0.6c0.2-0.2,0.4-0.3,0.6-0.3c0.2,0,0.5,0,0.9,0.1s0.7,0.1,1,0.1
			c0.7,0,1.2-0.3,1.5-0.7s0.4-1.1,0.4-2c-0.2,0.3-0.5,0.4-0.8,0.6c-0.3,0.1-0.6,0.2-0.9,0.2c-0.9,0.1-1.7-0.2-2.3-0.8
			s-0.9-1.3-1-2.2c-0.1-1.2,0.2-2.3,1-3.1c0.7-0.8,1.8-1.3,3.1-1.4c0.4,0,0.8,0,1.1,0.1s0.6,0.2,0.8,0.4c0.6,0,0.9,0.4,0.9,1
			C56.7,53.3,56.7,53.7,56.6,54.3z M53.9,53.1c-0.8,0-1.4,0.3-1.8,0.9c-0.4,0.5-0.5,1.1-0.5,1.8c0,0.5,0.2,0.9,0.4,1.2
			s0.5,0.4,0.9,0.4s0.7-0.3,1.1-0.7c0.3-0.4,0.5-0.8,0.5-1.3c0.1-0.4,0.1-1.1,0.2-2.1c-0.2-0.1-0.3-0.1-0.5-0.2
			C54.2,53.1,54,53,53.9,53.1z"/>
		<path class="st1" d="M33.5,76.9c-1,0.1-1.9-0.2-2.6-0.7c-0.7-0.6-1.2-1.3-1.2-2.3C29.6,73,29.9,72,30.5,71
			c0.7-1.1,1.5-1.7,2.4-1.8c0.5,0,1,0.1,1.7,0.3c0.8,0.3,1.2,0.6,1.2,1c0,0.2-0.1,0.4-0.2,0.6c-0.2,0.2-0.4,0.3-0.6,0.3
			c-0.2,0-0.4-0.1-0.7-0.3C34,71,33.6,70.9,33.1,71c-0.4,0-0.7,0.4-1.1,1.1s-0.5,1.3-0.5,1.8s0.2,0.8,0.6,1.1
			c0.3,0.2,0.8,0.3,1.3,0.3c0.3,0,0.7-0.2,1.1-0.4c0.4-0.3,0.7-0.4,0.8-0.4c0.2,0,0.5,0.1,0.6,0.2c0.2,0.2,0.3,0.4,0.3,0.6
			c0,0.4-0.3,0.7-1.1,1.1C34.5,76.7,33.9,76.9,33.5,76.9z"/>
		<path class="st1" d="M39.2,69.9c0.3-0.3,0.7-0.6,1-0.8c0.4-0.2,0.8-0.3,1.2-0.3c0.8,0,1.4,0.1,1.7,0.6c0.3,0.3,0.5,0.8,0.6,1.5
			c0.1,0.6,0.1,1.1,0.2,1.7c0.1,0.7,0.2,1.2,0.2,1.3c0.1,0.5,0.2,0.9,0.3,1.3c0,0.1,0,0.2,0,0.3c0,0.3-0.1,0.5-0.3,0.6
			c-0.2,0.2-0.4,0.3-0.7,0.3c-0.5,0-0.8-0.2-0.9-0.6c-0.1-0.4-0.3-0.9-0.4-1.5c0-0.8-0.1-1.3-0.1-1.7c0-0.1,0-0.3,0-0.5s0-0.4,0-0.5
			c0-0.3,0-0.5,0-0.6c-0.1-0.2-0.2-0.4-0.4-0.4c-0.5,0-0.9,0.3-1.3,0.8c-0.2,0.2-0.5,0.7-0.8,1.4c0.1,1.6,0.1,2.6-0.1,3
			c-0.2,0.4-0.4,0.6-0.8,0.6c-0.3,0-0.5-0.1-0.7-0.2c-0.2-0.2-0.3-0.4-0.3-0.6c0-0.1,0-0.2,0.1-0.4c0-0.1,0-0.7,0-1.8
			c-0.1-0.9-0.2-2.4-0.2-4.6v-0.2c0-0.5,0-0.9,0-1.1c0-0.1,0-0.3-0.1-0.6c-0.1-0.3-0.1-0.5-0.1-0.6c0-0.3,0.1-0.5,0.2-0.7
			c0.2-0.2,0.4-0.3,0.7-0.3c0.5,0,0.8,0.2,0.9,0.7c0.1,0.3,0.2,0.7,0.2,1.2s0,0.9,0,1.4C39.1,69,39.2,69.5,39.2,69.9z"/>
		<path class="st1" d="M48.4,76.1c-0.8,0-1.6-0.2-2.2-0.7c-0.7-0.6-1.1-1.4-1.2-2.5c-0.1-1,0.1-1.9,0.7-2.7c0.6-1,1.6-1.5,2.8-1.6
			c0.9-0.1,1.7,0.3,2.2,1c0.5,0.6,0.8,1.4,0.9,2.4c0.1,1.1-0.2,2-0.7,2.8C50.3,75.5,49.5,76,48.4,76.1z M48.5,70.4
			c-0.6,0-1,0.3-1.3,0.8c-0.2,0.4-0.4,1-0.3,1.5c0,0.5,0.2,1,0.5,1.2s0.6,0.3,0.9,0.3c0.4,0,0.7-0.2,1-0.5s0.5-0.8,0.5-1.3
			C49.8,71,49.3,70.3,48.5,70.4z"/>
		<path class="st1" d="M56.1,75.6c-1,0.1-1.9-0.2-2.6-0.7c-0.7-0.6-1.2-1.3-1.2-2.3c-0.1-0.9,0.2-1.9,0.8-2.9
			c0.7-1.1,1.5-1.7,2.4-1.8c0.5,0,1,0.1,1.7,0.3c0.8,0.3,1.2,0.6,1.2,1c0,0.2-0.1,0.4-0.2,0.6c-0.2,0.2-0.4,0.3-0.6,0.3
			c-0.2,0-0.4-0.1-0.7-0.3c-0.3-0.2-0.7-0.3-1.3-0.2c-0.4,0-0.7,0.4-1.1,1.1C54.1,71.4,54,72,54,72.5s0.2,0.8,0.6,1.1
			c0.3,0.2,0.8,0.3,1.3,0.3c0.3,0,0.7-0.2,1.1-0.4c0.4-0.3,0.7-0.4,0.8-0.4c0.2,0,0.5,0.1,0.6,0.2c0.2,0.2,0.3,0.4,0.3,0.6
			c0,0.4-0.3,0.7-1.1,1.1C57.1,75.4,56.5,75.6,56.1,75.6z"/>
		<path class="st1" d="M63,75.2c-0.8,0-1.6-0.2-2.2-0.7c-0.7-0.6-1.1-1.4-1.2-2.5c-0.1-1,0.1-1.9,0.7-2.7c0.6-1,1.6-1.5,2.8-1.6
			c0.9-0.1,1.7,0.3,2.2,1c0.5,0.6,0.8,1.4,0.9,2.4c0.1,1.1-0.2,2-0.7,2.8C64.8,74.7,64,75.2,63,75.2z M63,69.5c-0.6,0-1,0.3-1.3,0.8
			c-0.2,0.4-0.4,1-0.3,1.5c0,0.5,0.2,1,0.5,1.2s0.6,0.3,0.9,0.3c0.4,0,0.7-0.2,1-0.5c0.3-0.3,0.5-0.8,0.5-1.3
			C64.3,70.2,63.9,69.5,63,69.5z"/>
		<path class="st1" d="M69.5,73.4c0,0.9-0.2,1.3-0.9,1.4c-0.3,0-0.5-0.1-0.7-0.2c-0.2-0.2-0.3-0.4-0.3-0.7l-0.5-9.4
			c0-0.3,0.1-0.5,0.2-0.7c0.2-0.2,0.4-0.3,0.7-0.3c0.3,0,0.5,0.1,0.7,0.2c0.2,0.2,0.3,0.4,0.3,0.6L69.5,73.4z"/>
		<path class="st1" d="M77.2,74.4c-0.2,0-0.6-0.2-1-0.6c-0.4,0.2-0.8,0.4-1.1,0.5c-0.3,0.1-0.6,0.2-0.8,0.2
			c-1.1,0.1-1.9-0.2-2.5-0.7c-0.6-0.6-0.9-1.4-1-2.6c-0.1-1.1,0.3-2.1,1.1-2.9c0.8-0.8,1.7-1.3,2.8-1.3c0.4,0,0.9,0.1,1.5,0.3
			c0.7,0.3,1.1,0.6,1.1,1c0,0.2,0,0.3-0.1,0.4c0,0.2-0.1,0.4-0.1,0.7c0,0.3,0,0.6,0,1c0,0.9,0.1,1.5,0.3,1.8c0,0,0.1,0.3,0.4,0.7
			c0.2,0.4,0.3,0.6,0.3,0.6c0,0.2-0.1,0.4-0.2,0.6C77.7,74.3,77.4,74.4,77.2,74.4z M75.3,69.9c0-0.1,0-0.3,0-0.5s0-0.4,0.1-0.6
			c-0.1,0-0.2-0.1-0.2-0.1c-0.1,0-0.1,0-0.2,0c-0.6,0-1.1,0.3-1.6,0.8c-0.4,0.5-0.6,1.1-0.6,1.7s0.2,1.1,0.4,1.4
			c0.2,0.3,0.6,0.4,1,0.4c0.3,0,0.5-0.1,0.8-0.2c0.2-0.1,0.5-0.3,0.7-0.5C75.4,71.2,75.3,70.4,75.3,69.9z"/>
		<path class="st1" d="M83.6,68.1c-0.1,0-0.2,0-0.3,0c-0.1,0-0.2,0-0.3,0c-0.2,0-0.4,0-0.6,0.1c0.2,1.8,0.3,3,0.3,3.6
			c0,0.1,0,0.2,0,0.3c0,0.2,0,0.3,0,0.4c0.1,1-0.2,1.6-0.9,1.6c-0.3,0-0.5-0.1-0.7-0.2c-0.2-0.2-0.3-0.4-0.3-0.6s0-0.4,0-0.7
			c0-0.3,0-0.6,0-0.7c0-0.6-0.1-1.7-0.3-3.5c-0.3,0-0.7,0-1.3,0c-0.6,0-0.9-0.3-0.9-0.8c0-0.3,0.1-0.5,0.2-0.7
			c0.2-0.2,0.4-0.3,0.7-0.3c0.2,0,0.6,0,1.2,0c0-0.1,0-0.4-0.1-0.7c0-0.3-0.1-0.5-0.1-0.7c0-0.3,0.1-0.5,0.2-0.7
			c0.2-0.2,0.4-0.3,0.7-0.3c0.7,0,1,0.5,1.1,1.6v0.6c0.3-0.1,0.5-0.1,0.7-0.1c0.5,0,0.9,0,1.1,0c0.4,0.1,0.6,0.4,0.6,0.8
			c0,0.3-0.1,0.5-0.2,0.7C84.1,68,83.8,68.1,83.6,68.1z"/>
		<path class="st1" d="M89.1,73.6c-1.1,0.1-2-0.1-2.7-0.6c-0.8-0.5-1.2-1.3-1.3-2.4c-0.1-1.2,0.2-2.1,0.7-3c0.6-0.9,1.5-1.4,2.6-1.5
			c0.8,0,1.5,0,2,0.3c0.7,0.3,1.1,0.8,1.1,1.5c0,0.5-0.2,1-0.8,1.4c-0.2,0.2-0.7,0.5-1.5,0.9L87,71.3c0.2,0.2,0.5,0.4,0.8,0.5
			C88.3,72,88.6,72,89,72c0.6,0,1.1-0.2,1.5-0.5c0.4-0.2,0.7-0.4,0.9-0.4c0.5,0,0.7,0.2,0.7,0.6c0,0.5-0.3,1-1.1,1.3
			C90.5,73.4,89.8,73.6,89.1,73.6z M88.6,67.8c-0.4,0-0.8,0.2-1.1,0.5c-0.3,0.3-0.5,0.7-0.7,1.3c0.5-0.3,1-0.5,1.5-0.7
			c0.6-0.3,1.1-0.6,1.4-0.9C89.5,67.9,89.1,67.8,88.6,67.8z"/>
		<path class="st1" d="M34.5,93.7c-1,0.1-1.9-0.2-2.6-0.7c-0.7-0.6-1.2-1.3-1.2-2.3c-0.1-0.9,0.2-1.9,0.8-2.9
			c0.7-1.1,1.5-1.7,2.4-1.8c0.5,0,1,0.1,1.7,0.3c0.8,0.3,1.2,0.6,1.2,1c0,0.2-0.1,0.4-0.2,0.6c-0.2,0.2-0.4,0.3-0.6,0.3
			c-0.2,0-0.4-0.1-0.7-0.3c-0.3-0.2-0.7-0.3-1.3-0.2c-0.4,0-0.7,0.4-1.1,1.1c-0.4,0.7-0.5,1.3-0.5,1.8s0.2,0.8,0.6,1.1
			c0.3,0.2,0.8,0.3,1.3,0.3c0.3,0,0.7-0.2,1.1-0.4c0.4-0.3,0.7-0.4,0.8-0.4c0.2,0,0.5,0.1,0.6,0.2c0.2,0.2,0.3,0.4,0.3,0.6
			c0,0.4-0.3,0.7-1.1,1.1C35.5,93.5,34.9,93.7,34.5,93.7z"/>
		<path class="st1" d="M40.1,86.7c0.3-0.3,0.7-0.6,1-0.8c0.4-0.2,0.8-0.3,1.2-0.3c0.8,0,1.4,0.1,1.7,0.6c0.3,0.3,0.5,0.8,0.6,1.5
			c0.1,0.6,0.1,1.1,0.2,1.7c0.1,0.7,0.2,1.2,0.2,1.3c0.1,0.5,0.2,0.9,0.3,1.3c0,0.1,0,0.2,0,0.3c0,0.3-0.1,0.5-0.3,0.6
			c-0.2,0.2-0.4,0.3-0.7,0.3c-0.5,0-0.8-0.2-0.9-0.6c-0.1-0.4-0.3-0.9-0.4-1.5c-0.1-0.6-0.2-1.2-0.2-1.6c0-0.1,0-0.3,0-0.5
			s0-0.4,0-0.5c0-0.3,0-0.5,0-0.6c-0.1-0.2-0.2-0.4-0.4-0.4c-0.5,0-0.9,0.3-1.3,0.8c-0.2,0.2-0.5,0.7-0.8,1.4c0.1,1.6,0.1,2.6-0.1,3
			c-0.2,0.4-0.4,0.6-0.8,0.6c-0.3,0-0.5-0.1-0.7-0.2c-0.2-0.2-0.3-0.4-0.3-0.6c0-0.1,0-0.2,0.1-0.4c0-0.1,0-0.7,0-1.8
			c-0.1-0.9-0.2-2.4-0.2-4.6v-0.2c0-0.5,0-0.9,0-1.1c0-0.1,0-0.3-0.1-0.6C38.1,83.3,38,83.1,38,83c0-0.3,0.1-0.5,0.2-0.7
			c0.2-0.2,0.4-0.3,0.7-0.3c0.5,0,0.8,0.2,0.9,0.7C40,83,40,83.4,40.1,84c0,0.5,0,0.9,0,1.4C40.1,85.8,40.1,86.3,40.1,86.7z"/>
		<path class="st1" d="M50,92.7c-1.1,0.1-2-0.1-2.7-0.6c-0.8-0.5-1.2-1.3-1.3-2.4c-0.1-1.2,0.2-2.1,0.7-3c0.6-0.9,1.5-1.4,2.6-1.5
			c0.8,0,1.5,0,2,0.3c0.7,0.3,1.1,0.8,1.1,1.5c0,0.5-0.2,1-0.8,1.4c-0.2,0.2-0.7,0.5-1.5,0.9L48,90.4c0.2,0.2,0.5,0.4,0.8,0.5
			s0.7,0.1,1.1,0.1c0.6,0,1.1-0.2,1.5-0.5c0.4-0.2,0.7-0.4,0.9-0.4c0.5,0,0.7,0.2,0.7,0.6c0,0.5-0.3,1-1.1,1.3
			C51.4,92.5,50.7,92.7,50,92.7z M49.5,86.9c-0.4,0-0.8,0.2-1.1,0.5s-0.5,0.7-0.6,1.3c0.5-0.3,1-0.5,1.5-0.8
			c0.6-0.3,1.1-0.6,1.4-0.9C50.4,87,50,86.9,49.5,86.9z"/>
		<path class="st1" d="M57.8,92.3c-1.1,0.1-2-0.1-2.7-0.6c-0.8-0.5-1.2-1.3-1.3-2.4c-0.1-1.2,0.2-2.1,0.7-3c0.6-0.9,1.5-1.4,2.6-1.5
			c0.8,0,1.5,0,2,0.3c0.7,0.3,1.1,0.8,1.1,1.5c0,0.5-0.2,1-0.8,1.4c-0.2,0.2-0.7,0.5-1.5,0.9L55.8,90c0.2,0.2,0.5,0.4,0.8,0.5
			s0.7,0.1,1.1,0.1c0.6,0,1.1-0.2,1.5-0.5c0.4-0.2,0.7-0.4,0.9-0.4c0.5,0,0.7,0.2,0.7,0.6c0,0.5-0.3,1-1.1,1.3
			C59.2,92,58.5,92.2,57.8,92.3z M57.3,86.5c-0.4,0-0.8,0.2-1.1,0.5s-0.5,0.7-0.7,1.3c0.5-0.3,1-0.5,1.5-0.8
			c0.6-0.3,1.1-0.6,1.4-0.9C58.2,86.5,57.8,86.4,57.3,86.5z"/>
		<path class="st1" d="M66.7,86.4c-0.5,0-0.7-0.1-0.8-0.5c-0.2,0-0.4,0-0.6,0c-1.1,0.1-1.6,0.2-1.6,0.5c0,0.2,0.4,0.4,1,0.7
			c0.9,0.4,1.6,0.7,1.9,0.9c0.7,0.4,1,1,1.1,1.6c0,0.8-0.3,1.4-1,1.8c-0.6,0.4-1.3,0.6-2.1,0.6c-0.6,0-1.2,0-1.7-0.2
			c-0.7-0.2-1.1-0.6-1.1-1.1S62,90,62.6,90c0.2,0,0.5,0,0.9,0.1s0.7,0.2,0.9,0.1c0.9-0.1,1.4-0.3,1.4-0.6c0-0.2-0.3-0.5-1-0.7
			c-1-0.4-1.6-0.6-1.9-0.8c-0.7-0.4-1-0.9-1.1-1.6c-0.1-0.9,0.4-1.6,1.3-1.9c0.6-0.2,1.4-0.4,2.6-0.4c0.5,0,0.8,0,1,0.1
			c0.3,0.1,0.5,0.4,0.5,0.9C67.3,86,67.1,86.4,66.7,86.4z"/>
		<path class="st1" d="M72.4,91.4c-1.1,0.1-2-0.1-2.7-0.6c-0.8-0.5-1.2-1.3-1.3-2.4c-0.1-1.2,0.2-2.1,0.7-3c0.6-0.9,1.5-1.4,2.6-1.5
			c0.8,0,1.5,0,2,0.3c0.7,0.3,1.1,0.8,1.1,1.5c0,0.5-0.2,1-0.8,1.4c-0.2,0.2-0.7,0.5-1.5,0.9l-2.2,1.1c0.2,0.2,0.5,0.4,0.8,0.5
			s0.7,0.1,1.1,0.1c0.6,0,1.1-0.2,1.5-0.5c0.4-0.2,0.7-0.4,0.9-0.4c0.5,0,0.7,0.2,0.7,0.6c0,0.5-0.3,1-1.1,1.3
			C73.8,91.2,73.2,91.4,72.4,91.4z M71.9,85.6c-0.4,0-0.8,0.2-1.1,0.5c-0.3,0.3-0.5,0.7-0.6,1.3c0.5-0.3,1-0.5,1.5-0.8
			c0.6-0.3,1.1-0.6,1.4-0.9C72.8,85.7,72.4,85.6,71.9,85.6z"/>
		<path class="st1" d="M35.1,103c0.6-0.1,1-0.1,1.3-0.2c0.9,0,1.3,0.2,1.3,0.8c0,0.6-0.4,0.9-1.3,0.9c-0.3,0-0.7,0.1-1.3,0.1
			c0,0.5,0,1.1,0.1,1.8c0.1,1.1,0.1,1.7,0.1,1.8c0,0.8,0,1.5,0,2c-0.1,0.5-0.4,0.8-0.9,0.8c-0.3,0-0.5-0.1-0.7-0.2
			c-0.2-0.2-0.3-0.4-0.3-0.6c0-0.1,0-0.1,0-0.2c0.1-0.7,0.1-1.3,0.1-1.8l-0.2-3.4c-0.1,0-0.2,0-0.4,0.1c-0.2,0-0.3,0.1-0.4,0.1
			c-0.3,0-0.5-0.1-0.7-0.2c-0.2-0.2-0.3-0.4-0.3-0.6c0-0.4,0.2-0.7,0.6-0.9c0.2-0.1,0.6-0.1,1.2-0.2c0-0.1,0-0.3,0-0.8
			c0.1-1,0.3-1.8,0.7-2.3c0.5-0.6,1.3-1,2.4-1.1c0.8,0,1.3,0.2,1.3,0.8c0,0.6-0.3,0.9-1.1,1c-0.6,0-0.9,0.2-1.2,0.6
			c-0.2,0.3-0.3,0.8-0.3,1.4L35.1,103z"/>
		<path class="st1" d="M44.8,104.6c0,0.7-0.3,1.1-0.9,1.1c-0.6,0-0.9-0.2-0.9-0.8l-0.1-0.7c-1,0.2-1.7,0.8-2.1,1.7l0.2,3.4
			c0,0.3-0.1,0.5-0.2,0.7c-0.2,0.2-0.4,0.3-0.7,0.3s-0.5-0.1-0.7-0.2c-0.2-0.2-0.2-0.4-0.3-0.6l-0.3-4.5c0-0.1,0-0.4,0-0.6
			c0-0.3,0-0.5,0-0.6c0-0.3,0-0.5,0.2-0.7c0.1-0.2,0.4-0.3,0.6-0.3c0.5,0,0.8,0.2,0.9,0.7c0.8-0.6,1.6-1,2.6-1.1
			c0.9-0.1,1.4,0.5,1.5,1.7C44.8,104.4,44.8,104.5,44.8,104.6z"/>
		<path class="st1" d="M47.2,101.1c-0.3,0-0.5-0.1-0.8-0.2c-0.2-0.2-0.3-0.4-0.4-0.7c0-0.3,0.1-0.5,0.3-0.7s0.4-0.3,0.7-0.3
			s0.5,0.1,0.8,0.2c0.2,0.2,0.3,0.4,0.4,0.7c0,0.3-0.1,0.5-0.3,0.7C47.7,101,47.5,101.1,47.2,101.1z M48,106.1c0,0.3,0,0.7,0.1,1.2
			c0,0.6,0.1,1,0.1,1.2c0,0.3-0.1,0.5-0.2,0.7c-0.2,0.2-0.4,0.3-0.7,0.3s-0.5-0.1-0.7-0.2c-0.2-0.2-0.3-0.4-0.3-0.6
			c0-0.3,0-0.7-0.1-1.2c0-0.6-0.1-1-0.1-1.2c0-0.4,0-0.9,0-1.5s0-1.1,0-1.5c0-0.3,0.1-0.5,0.2-0.7c0.2-0.2,0.4-0.3,0.7-0.3
			s0.5,0.1,0.7,0.2c0.2,0.2,0.3,0.4,0.3,0.6c0,0.4,0,0.9,0,1.5S48,105.7,48,106.1z"/>
		<path class="st1" d="M53.5,109.3c-1.1,0.1-2-0.1-2.7-0.6c-0.8-0.5-1.2-1.3-1.3-2.4c-0.1-1.2,0.2-2.1,0.7-3
			c0.6-0.9,1.5-1.4,2.6-1.5c0.8,0,1.5,0,2,0.3c0.7,0.3,1.1,0.8,1.1,1.5c0,0.5-0.2,1-0.8,1.4c-0.2,0.2-0.7,0.5-1.5,0.9l-2.2,1.1
			c0.2,0.2,0.5,0.4,0.8,0.5s0.7,0.1,1.1,0.1c0.6,0,1.1-0.2,1.5-0.5c0.4-0.2,0.7-0.4,0.9-0.4c0.5,0,0.7,0.2,0.7,0.6
			c0,0.5-0.3,1-1.1,1.3C54.8,109.1,54.2,109.3,53.5,109.3z M52.9,103.5c-0.4,0-0.8,0.2-1.1,0.5s-0.5,0.7-0.7,1.3
			c0.5-0.3,1-0.5,1.5-0.8c0.6-0.3,1.1-0.6,1.4-0.9C53.8,103.6,53.4,103.5,52.9,103.5z"/>
		<path class="st1" d="M62.3,103.5c-0.5,0-0.7-0.1-0.8-0.5c-0.2,0-0.4,0-0.6,0c-1.1,0.1-1.6,0.2-1.6,0.5c0,0.2,0.4,0.4,1,0.7
			c0.9,0.4,1.6,0.7,1.9,0.9c0.7,0.4,1,1,1.1,1.6c0,0.8-0.3,1.4-1,1.8c-0.6,0.4-1.3,0.6-2.1,0.6c-0.6,0-1.2,0-1.7-0.2
			c-0.7-0.2-1.1-0.6-1.1-1.1s0.2-0.7,0.8-0.7c0.2,0,0.5,0,0.9,0.1s0.7,0.2,0.9,0.1c0.9-0.1,1.4-0.3,1.4-0.6c0-0.2-0.3-0.5-1-0.7
			c-1-0.4-1.6-0.6-1.9-0.8c-0.7-0.4-1-0.9-1.1-1.6c-0.1-0.9,0.4-1.6,1.3-1.9c0.6-0.2,1.4-0.4,2.6-0.4c0.5,0,0.8,0,1,0.1
			c0.3,0.1,0.5,0.4,0.5,0.9C63,103,62.8,103.5,62.3,103.5z"/>
	</g>
</g>
<g>
	<g>
		<path class="st2" d="M15.2,38c0.9,29.3,0.9,58.8,4.2,88c0.3,2.7,2.1,5,5,5c24.9,0.2,50.2-5.9,74.7,0.6c3,0.8,6.5-1.5,6.3-4.8
			c-1.6-35.9-3.2-71.9-4.7-107.8c-0.1-2.8-2.2-4.9-5-5c-17.9-1-35.8-0.6-53.7,1.2c-8.5,0.9-17.1,2-25.5,3.5c-3.4,0.6-7,0.9-8.4,4.6
			c-1,2.8,0.1,6.2,0.5,9c0.9,6.3,10.5,3.6,9.6-2.7c-0.1-0.6-0.8-3-0.5-3.7c-0.8,1-1.5,2-2.3,3c2.6-1.1,6.7-1.1,9.5-1.6
			c3.4-0.5,6.8-1,10.3-1.4c6.8-0.8,13.6-1.4,20.4-1.8c13.3-0.8,26.7-0.8,40-0.2c-1.7-1.7-3.3-3.3-5-5c1.6,35.9,3.2,71.9,4.7,107.8
			c2.1-1.6,4.2-3.2,6.3-4.8c-25.5-6.8-51.5-0.8-77.4-1c1.7,1.7,3.3,3.3,5,5C26,96.8,26,67.2,25,37.9C25,31.6,15,31.5,15.2,38
			L15.2,38z"/>
	</g>
</g>
<g>
	<g>
		<path class="st3" d="M74.8,75.5C79,79.8,85.9,86.4,92,81.6c2.9-2.2,5.1-5.6,7.9-8c3-2.6,6.2-4.9,9.6-7c5.5-3.4,0.4-12-5-8.6
			c-4.6,2.8-8.9,6-12.8,9.7c-1.6,1.4-4.3,3.4-5.2,5.3c-0.9,0.9-0.7,0.9,0.8-0.1c-0.5-0.3-0.9-0.6-1.4-0.9c-1.2-1.3-2.7-2.3-4-3.6
			C77.4,63.8,70.3,70.9,74.8,75.5L74.8,75.5z"/>
	</g>
	<g>
		<path class="st3" d="M75.3,102c6.4,2.4,11.6,11.3,18.2,4.2c5.8-6.2,10.7-11.8,18.2-16.1c5.6-3.2,0.5-11.9-5-8.6
			c-4.1,2.4-8,5.1-11.5,8.2c-1.6,1.4-3.2,2.9-4.6,4.5c-0.8,0.9-3,4.8-4.2,5.1c1.3,0.2,2.6,0.3,3.9,0.5c-1.8-0.8-3.5-2.9-5.2-4.1
			c-2.2-1.5-4.6-2.5-7.1-3.4C71.9,90.1,69.3,99.7,75.3,102L75.3,102z"/>
	</g>
</g>
<g>
	<g>
		<path class="st4" d="M73.8,38.8c3.5,4.1,8.1,6.4,13,8.3c2.6,1,5.4,1.9,7.9,3.3c2.6,1.5,4.7,3.7,7.5,4.9c5.8,2.6,10.9-6,5-8.6
			c-2.3-1-4-2.7-6.1-4.1c-2.2-1.4-4.6-2.4-7-3.3c-4.9-1.9-9.7-3.3-13.2-7.4C76.8,26.8,69.7,33.9,73.8,38.8L73.8,38.8z"/>
	</g>
</g>
<g>
	<g>
		<path class="st4" d="M97,25.3c-4.2,4-8.2,8.2-11.9,12.7c-3.3,4.1-7.1,8.2-8.6,13.3c-1.8,6.2,7.8,8.8,9.6,2.7
			c1.3-4.2,5.3-8.2,8.2-11.4c3.1-3.6,6.4-6.9,9.8-10.2C108.8,28,101.7,20.9,97,25.3L97,25.3z"/>
	</g>
</g>
</svg>
