<?xml version="1.0" encoding="utf-8"?>
<!-- Generator: Adobe Illustrator 22.1.0, SVG Export Plug-In . SVG Version: 6.00 Build 0)  -->
<svg version="1.1" id="Layer_2_1_" xmlns="http://www.w3.org/2000/svg" xmlns:xlink="http://www.w3.org/1999/xlink" x="0px" y="0px" width="200px" height="200px"
	 viewBox="0 0 200 200" style="enable-background:new 0 0 200 200;" xml:space="preserve">
<g>
	<g>
		<path d="M40.6,69.3C56.8,62,74,57,91.6,54.5c6.3-0.9,3.6-10.5-2.7-9.6c-18.6,2.6-36.4,8-53.4,15.8C29.7,63.3,34.8,72,40.6,69.3
			L40.6,69.3z"/>
	</g>
</g>
<g>
	<g>
		<path d="M46.1,83.1c13.8-2.8,27.7-5.5,41.6-8C94,74,91.3,64.3,85,65.5c-13.9,2.5-27.8,5.2-41.6,8C37.2,74.7,39.8,84.4,46.1,83.1
			L46.1,83.1z"/>
	</g>
</g>
<g>
	<g>
		<path d="M40.4,96.8c16.3,3.6,33.3,1.7,49.3,6.7c6.2,1.9,8.8-7.7,2.7-9.6c-16-5-33-3.1-49.3-6.7C36.8,85.8,34.1,95.4,40.4,96.8
			L40.4,96.8z"/>
	</g>
</g>
<g>
	<g>
		<path d="M92.4,29c10.3,1.5,22,15.4,16.3,25.8c-1.6,2.9-0.1,6.3,3,7.3c5.4,1.7,8,11.6,9,16.5c0.7,3.6,0.8,7.6-1,10.9
			c-1.6,2.7-4.2,3.3-6.3,5.4c-2.5,2.6-1.4,5.2-1.6,8.4c-0.2,3.6-1.9,6.9-4.2,9.6c-2.5,2.8-5.6,4.9-8.9,6.7c-2.6,1.4-8.1,5.2-11,3.6
			c-5.6-3.1-10.7,5.5-5,8.6c8.8,4.9,20.2-2.3,27.2-7.6c3.9-3,7.2-6.6,9.4-11c2.3-4.8,2.3-9.2,2.4-14.3c-0.5,1.2-1,2.4-1.5,3.5
			c1.4-1.5,3.8-2.3,5.4-3.9c1.7-1.8,3-3.9,4-6.3c2-4.9,2.1-10.1,1.1-15.3c-1.8-9.2-6.4-21.1-16.2-24.3c1,2.4,2,4.9,3,7.3
			c8.6-15.8-5.1-38-22.2-40.5C88.8,18.4,86,28,92.4,29L92.4,29z"/>
	</g>
</g>
<g>
	<g>
		<path d="M124.7,27.5c3.6,2.3,6.8,4.9,9.5,8.2c2.3,2.7,6.8,8.2,5,12.1c-1.1,2.4-0.8,5.5,1.8,6.8c6.5,3.4,8.6,12,9.2,18.8
			c0.6,7.9-1.2,15.1-6,21.4c-3.9,5.1,4.8,10.1,8.6,5c6.5-8.4,8.4-19.1,7.1-29.5c-1.4-9.3-5-19.7-13.9-24.3c0.6,2.3,1.2,4.6,1.8,6.8
			c6.1-13.5-7.5-27.3-18.1-33.9C124.2,15.4,119.2,24.1,124.7,27.5L124.7,27.5z"/>
	</g>
</g>
</svg>
