<?xml version="1.0" encoding="utf-8"?>
<!-- Generator: Adobe Illustrator 22.1.0, SVG Export Plug-In . SVG Version: 6.00 Build 0)  -->
<svg version="1.1" id="Layer_2_1_" xmlns="http://www.w3.org/2000/svg" xmlns:xlink="http://www.w3.org/1999/xlink" x="0px" y="0px" width="200px" height="200px"
	 viewBox="0 0 200 200" style="enable-background:new 0 0 200 200;" xml:space="preserve">
<style type="text/css">
	.st0{fill:#FF710A;stroke:#BF3000;stroke-miterlimit:10;}
</style>
<g>
	<g>
		<path class="st0" d="M93.9,74.5c6.9-0.5,9-7.7,8.7-13.6c-0.2-3.5-1.8-6.9-5.4-8c-2.8-0.9-5.4-0.2-7.9,1c-4.9,2.3-9.5,6.6-9.1,12.5
			c0.2,3.2,2.6,6.2,6,6c0.8-0.1,0.9-0.3,1.2-0.6C87.4,71.8,89,74.8,93.9,74.5z"/>
	</g>
</g>
<g>
	<g>
		<path class="st0" d="M58.3,135c-0.2,5.5,5.4,9.4,10.5,8.2c4.3-1,6.8-4.9,7.9-8.9c0.6-2.4,0.8-4.9-0.5-7.2s-3.9-3.6-6.5-3.7
			c-4.9-0.2-2.4,5.5-5.6,5.6C60.9,129.2,58.4,131.6,58.3,135L58.3,135z"/>
	</g>
</g>
<g>
	<g>
		<path class="st0" d="M117.4,148.4c2.6,0.4,4.5,1.3,7.2,0.4c2.5-0.8,4.3-2.7,5.4-4.9c2.3-4.6,2-10.9-1.4-14.9
			c-3.4-4-9-4.8-13.4-2.1c-4.1,2.5-6,7.5-5.6,12.2c0.3,3.2,2.5,6,6,6C115.7,145.1,114.2,147.8,117.4,148.4L117.4,148.4z"/>
	</g>
</g>
</svg>
