<?xml version="1.0" encoding="utf-8"?><svg width="112" height="112" viewBox="0 0 112 112" xmlns="http://www.w3.org/2000/svg" xmlns:xlink="http://www.w3.org/1999/xlink"><svg width="28" height="28" viewBox="-2 -2 28 28" id="boxicons-bx-cctv" xmlns="http://www.w3.org/2000/svg"><path d="M20.916 9.564a.998.998 0 00-.513-1.316L7.328 2.492c-.995-.438-2.22.051-2.645 1.042l-2.21 5.154a2.001 2.001 0 001.052 2.624L9.563 13.9 8.323 17H4v-3H2v8h2v-3h4.323c.823 0 1.552-.494 1.856-1.258l1.222-3.054 5.205 2.23a1 1 0 001.31-.517l.312-.71 1.701.68 2-5-1.536-.613.523-1.194zm-4.434 5.126L4.313 9.475l2.208-5.152 12.162 5.354-2.201 5.013z"/></svg><svg width="28" height="28" viewBox="-2 -2 28 28" id="boxicons-bx-chevron-down" x="28" xmlns="http://www.w3.org/2000/svg"><path d="M16.293 9.293L12 13.586 7.707 9.293l-1.414 1.414L12 16.414l5.707-5.707z"/></svg><svg width="28" height="28" viewBox="-2 -2 28 28" id="boxicons-bx-football" y="28" xmlns="http://www.w3.org/2000/svg"><path d="M19.071 4.929a9.936 9.936 0 00-7.07-2.938 9.943 9.943 0 00-7.072 2.938c-3.899 3.898-3.899 10.243 0 14.142a9.94 9.94 0 007.073 2.938 9.936 9.936 0 007.07-2.937c3.899-3.898 3.899-10.243-.001-14.143zM12.181 4h-.359c.061-.001.119-.009.18-.009s.118.008.179.009zm6.062 13H16l-1.258 2.516a7.956 7.956 0 01-2.741.493 7.96 7.96 0 01-2.746-.494L8 17.01H5.765a7.96 7.96 0 01-1.623-3.532L6 11 4.784 8.567a7.936 7.936 0 011.559-2.224 7.994 7.994 0 013.22-1.969L12 6l2.438-1.625a8.01 8.01 0 013.22 1.968 7.94 7.94 0 011.558 2.221L18 11l1.858 2.478A7.952 7.952 0 0118.243 17z"/><path d="M8.5 11l1.5 4h4l1.5-4L12 8.5z"/></svg><svg width="28" height="28" viewBox="-2 -2 28 28" id="boxicons-bx-glasses-alt" x="28" y="28" xmlns="http://www.w3.org/2000/svg"><path d="M21.948 11.684l-2-6A.997.997 0 0019 5h-3v2h2.279l1.334 4H15c-1.103 0-2 .897-2 2h-2c0-1.103-.897-2-2-2H4.387l1.334-4H8V5H5a.998.998 0 00-.948.684l-2 6 .012.004A.928.928 0 002 12v4c0 1.654 1.346 3 3 3h3c1.654 0 3-1.346 3-3v-1h2v1c0 1.654 1.346 3 3 3h3c1.654 0 3-1.346 3-3v-4a.964.964 0 00-.063-.313l.011-.003zM9 16c0 .551-.448 1-1 1H5c-.552 0-1-.449-1-1v-3h5v3zm11 0c0 .551-.448 1-1 1h-3c-.552 0-1-.449-1-1v-3h5v3z"/></svg><svg width="28" height="28" viewBox="-2 -2 28 28" id="boxicons-bx-message-dots" x="56" xmlns="http://www.w3.org/2000/svg"><path d="M20 2H4c-1.103 0-2 .897-2 2v12c0 1.103.897 2 2 2h3v3.766L13.277 18H20c1.103 0 2-.897 2-2V4c0-1.103-.897-2-2-2zm0 14h-7.277L9 18.234V16H4V4h16v12z"/><circle cx="15" cy="10" r="2"/><circle cx="9" cy="10" r="2"/></svg><svg width="28" height="28" viewBox="-2 -2 28 28" id="boxicons-bx-palette" x="56" y="28" xmlns="http://www.w3.org/2000/svg"><path d="M13.4 2.096a10.08 10.08 0 00-8.937 3.331A10.054 10.054 0 002.096 13.4c.53 3.894 3.458 7.207 7.285 8.246a9.982 9.982 0 002.618.354l.142-.001a3.001 3.001 0 002.516-1.426 2.989 2.989 0 00.153-2.879l-.199-.416a1.919 1.919 0 01.094-1.912 2.004 2.004 0 012.576-.755l.412.197c.412.198.85.299 1.301.299A3.022 3.022 0 0022 12.14a9.935 9.935 0 00-.353-2.76c-1.04-3.826-4.353-6.754-8.247-7.284zm5.158 10.909l-.412-.197c-1.828-.878-4.07-.198-5.135 1.494-.738 1.176-.813 2.576-.204 3.842l.199.416a.983.983 0 01-.051.961.992.992 0 01-.844.479h-.112a8.061 8.061 0 01-2.095-.283c-3.063-.831-5.403-3.479-5.826-6.586-.321-2.355.352-4.623 1.893-6.389a8.002 8.002 0 017.16-2.664c3.107.423 5.755 2.764 6.586 5.826.198.73.293 1.474.282 2.207-.012.807-.845 1.183-1.441.894z"/><circle cx="7.5" cy="14.5" r="1.5"/><circle cx="7.5" cy="10.5" r="1.5"/><circle cx="10.5" cy="7.5" r="1.5"/><circle cx="14.5" cy="7.5" r="1.5"/></svg><svg width="28" height="28" viewBox="-2 -2 28 28" id="boxicons-bx-shield-alt-2" y="56" xmlns="http://www.w3.org/2000/svg"><path d="M21.438 5.089a1.002 1.002 0 00-.959.015c-.684.389-1.355.577-2.053.577-2.035 0-3.952-1.629-5.722-3.39-.375-.373-1.063-.373-1.438 0C9.592 3.959 7.598 5.663 5.51 5.663c-.69 0-1.351-.184-2.018-.561-.298-.166-.658-.171-.96-.012s-.501.461-.528.801c-.011.129-.944 12.872 9.683 16.041a.99.99 0 00.286.042H12c.097 0 .192-.014.285-.041 10.657-3.17 9.695-15.916 9.684-16.044a1 1 0 00-.531-.8zm-9.452 14.842c-6.979-2.255-7.934-9.412-8.014-12.477.505.14 1.019.209 1.537.209 2.492 0 4.65-1.567 6.476-3.283 1.893 1.788 3.983 3.301 6.442 3.301.53 0 1.057-.074 1.575-.22-.074 3.065-1.021 10.217-8.016 12.47z"/></svg><svg width="28" height="28" viewBox="-2 -2 28 28" id="boxicons-bxl-medium-square" x="28" y="56" xmlns="http://www.w3.org/2000/svg"><path d="M20 3H4a1 1 0 00-1 1v16a1 1 0 001 1h16a1 1 0 001-1V4a1 1 0 00-1-1zm-2.046 4.265l-.966.925a.28.28 0 00-.106.271v6.801a.28.28 0 00.106.271l.942.926v.204h-4.741v-.204l.977-.948c.097-.096.097-.125.097-.271V9.742l-2.716 6.896h-.368L8.018 9.742v4.622a.644.644 0 00.176.531l1.271 1.541v.203H5.861v-.203l1.271-1.541a.618.618 0 00.164-.531V9.02a.468.468 0 00-.152-.395l-1.13-1.36v-.203H9.52l2.71 5.943 2.382-5.943h3.343v.203z"/></svg><svg width="28" height="28" viewBox="-2 -2 28 28" id="boxicons-bxl-sass" x="56" y="56" xmlns="http://www.w3.org/2000/svg"><path d="M12 2c5.522 0 10 4.478 10 10s-4.478 10-10 10S2 17.522 2 12 6.478 2 12 2zm-1.987 13.332c.146.537.13 1.039-.021 1.493l-.054.15a2.803 2.803 0 01-.527.821c-.582.633-1.394.872-1.742.671-.375-.219-.188-1.112.487-1.825.726-.765 1.766-1.258 1.766-1.258v-.002l.091-.05zm8.258-9.051c-.452-1.777-3.397-2.362-6.185-1.371-1.656.589-3.453 1.515-4.743 2.723-1.536 1.434-1.78 2.684-1.68 3.206.355 1.843 2.881 3.048 3.92 3.942v.005c-.307.149-2.548 1.274-3.072 2.438-.563 1.225.088 2.101.513 2.212 1.313.363 2.662-.3 3.388-1.374.699-1.051.638-2.4.337-3.063.413-.112.899-.162 1.524-.086 1.751.199 2.101 1.3 2.024 1.75-.074.449-.436.711-.561.786-.126.076-.163.101-.151.151.013.074.076.074.175.063.138-.025.914-.375.951-1.227.037-1.074-.988-2.273-2.813-2.25-.75.014-1.226.076-1.563.214a.295.295 0 00-.088-.088c-1.125-1.213-3.213-2.063-3.125-3.675.025-.588.237-2.137 4-4.012 3.088-1.538 5.551-1.112 5.977-.175.61 1.336-1.314 3.825-4.526 4.187-1.225.138-1.862-.337-2.026-.513-.174-.188-.198-.2-.261-.161-.101.05-.038.212 0 .313.1.249.487.688 1.163.912.587.188 2.024.299 3.75-.375 1.937-.749 3.449-2.838 3.012-4.588l.06.056z"/></svg><svg width="28" height="28" viewBox="-2 -2 28 28" id="boxicons-bxs-dock-top" x="84" xmlns="http://www.w3.org/2000/svg"><path d="M3 5v14c0 1.103.897 2 2 2h14c1.103 0 2-.897 2-2V5c0-1.103-.897-2-2-2H5c-1.103 0-2 .897-2 2zm2 14v-9h14.001l.001 9H5z"/></svg><svg width="28" height="28" viewBox="-2 -2 28 28" id="boxicons-bxs-message-alt-detail" x="84" y="28" xmlns="http://www.w3.org/2000/svg"><path d="M8.5 18l3.5 4 3.5-4H19c1.103 0 2-.897 2-2V4c0-1.103-.897-2-2-2H5c-1.103 0-2 .897-2 2v12c0 1.103.897 2 2 2h3.5zM7 7h10v2H7V7zm0 4h7v2H7v-2z"/></svg><svg width="28" height="28" viewBox="-2 -2 28 28" id="boxicons-bxs-message-detail" x="84" y="56" xmlns="http://www.w3.org/2000/svg"><path d="M20 2H4c-1.103 0-2 .894-2 1.992v12.016C2 17.106 2.897 18 4 18h3v4l6.351-4H20c1.103 0 2-.894 2-1.992V3.992A1.998 1.998 0 0020 2zm-6 11H7v-2h7v2zm3-4H7V7h10v2z"/></svg><svg width="28" height="28" viewBox="-2 -2 28 28" id="boxicons-bxs-music" y="84" xmlns="http://www.w3.org/2000/svg"><path d="M6 18.573c2.206 0 4-1.794 4-4V4.428L19 7.7v7.43a3.953 3.953 0 00-2-.557c-2.206 0-4 1.794-4 4s1.794 4 4 4 4-1.794 4-4V7a.998.998 0 00-.658-.939l-11-4A.999.999 0 008 3v8.13a3.953 3.953 0 00-2-.557c-2.206 0-4 1.794-4 4s1.794 4 4 4z"/></svg><svg width="28" height="28" viewBox="-2 -2 28 28" id="boxicons-bxs-phone-outgoing" x="28" y="84" xmlns="http://www.w3.org/2000/svg"><path d="M16.793 5.793l-4.5 4.5 1.414 1.414 4.5-4.5L21 10V3h-7z"/><path d="M16.422 13.446a1.001 1.001 0 00-1.391.043l-2.393 2.461c-.576-.11-1.734-.471-2.926-1.66-1.192-1.193-1.553-2.354-1.66-2.926l2.459-2.394a1 1 0 00.043-1.391L6.859 3.516a1 1 0 00-1.391-.087L3.299 5.29a.996.996 0 00-.291.648c-.015.25-.301 6.172 4.291 10.766 4.006 4.006 9.024 4.299 10.406 4.299.202 0 .326-.006.359-.008a.992.992 0 00.648-.291l1.86-2.171a1 1 0 00-.086-1.391l-4.064-3.696z"/></svg><svg width="28" height="28" viewBox="-2 -2 28 28" id="boxicons-bxs-save" x="56" y="84" xmlns="http://www.w3.org/2000/svg"><path d="M5 21h14a2 2 0 002-2V8l-5-5H5a2 2 0 00-2 2v14a2 2 0 002 2zM7 5h4v2h2V5h2v4H7V5zm0 8h10v6H7v-6z"/></svg><svg width="28" height="28" viewBox="-2 -2 28 28" id="boxicons-bxs-user-circle" x="84" y="84" xmlns="http://www.w3.org/2000/svg"><path d="M12 2C6.579 2 2 6.579 2 12s4.579 10 10 10 10-4.579 10-10S17.421 2 12 2zm0 5c1.727 0 3 1.272 3 3s-1.273 3-3 3c-1.726 0-3-1.272-3-3s1.274-3 3-3zm-5.106 9.772c.897-1.32 2.393-2.2 4.106-2.2h2c1.714 0 3.209.88 4.106 2.2C15.828 18.14 14.015 19 12 19s-3.828-.86-5.106-2.228z"/></svg></svg>