<?xml version="1.0" encoding="utf-8"?><svg width="112" height="112" viewBox="0 0 112 112" xmlns="http://www.w3.org/2000/svg" xmlns:xlink="http://www.w3.org/1999/xlink"><svg width="28" height="28" viewBox="-2 -2 28 28" id="boxicons-bx-arrow-to-bottom" xmlns="http://www.w3.org/2000/svg"><path d="M6 18h12v2H6zm5-14v8.586L6.707 8.293 5.293 9.707 12 16.414l6.707-6.707-1.414-1.414L13 12.586V4z"/></svg><svg width="28" height="28" viewBox="-2 -2 28 28" id="boxicons-bx-bell-off" x="28" xmlns="http://www.w3.org/2000/svg"><path d="M12 22a2.98 2.98 0 002.818-2H9.182A2.98 2.98 0 0012 22zm9-4v-2a.996.996 0 00-.293-.707L19 13.586V10c0-3.217-2.185-5.927-5.145-6.742C13.562 2.52 12.846 2 12 2s-1.562.52-1.855 1.258c-1.323.364-2.463 1.128-3.346 2.127L3.707 2.293 2.293 3.707l18 18 1.414-1.414-1.362-1.362A.993.993 0 0021 18zM12 5c2.757 0 5 2.243 5 5v4c0 .266.105.52.293.707L19 16.414V17h-.586L8.207 6.793C9.12 5.705 10.471 5 12 5zm-5.293 9.707A.996.996 0 007 14v-2.879L5.068 9.189C5.037 9.457 5 9.724 5 10v3.586l-1.707 1.707A.996.996 0 003 16v2a1 1 0 001 1h10.879l-2-2H5v-.586l1.707-1.707z"/></svg><svg width="28" height="28" viewBox="-2 -2 28 28" id="boxicons-bx-bolt-circle" y="28" xmlns="http://www.w3.org/2000/svg"><path d="M12 2C6.486 2 2 6.486 2 12s4.486 10 10 10 10-4.486 10-10S17.514 2 12 2zm0 18c-4.411 0-8-3.589-8-8s3.589-8 8-8 8 3.589 8 8-3.589 8-8 8z"/><path d="M13 6l-6 7h4v5l6-7h-4z"/></svg><svg width="28" height="28" viewBox="-2 -2 28 28" id="boxicons-bx-camera-movie" x="28" y="28" xmlns="http://www.w3.org/2000/svg"><path d="M18 11c0-.959-.68-1.761-1.581-1.954C16.779 8.445 17 7.75 17 7c0-2.206-1.794-4-4-4-1.517 0-2.821.857-3.5 2.104C8.821 3.857 7.517 3 6 3 3.794 3 2 4.794 2 7c0 .902.312 1.727.817 2.396A1.994 1.994 0 002 11v8c0 1.103.897 2 2 2h12c1.103 0 2-.897 2-2v-2.638l4 2v-7l-4 2V11zm-5-6c1.103 0 2 .897 2 2s-.897 2-2 2-2-.897-2-2 .897-2 2-2zM6 5c1.103 0 2 .897 2 2s-.897 2-2 2-2-.897-2-2 .897-2 2-2zM4 19v-8h12l.002 8H4z"/></svg><svg width="28" height="28" viewBox="-2 -2 28 28" id="boxicons-bx-hive" x="56" xmlns="http://www.w3.org/2000/svg"><path d="M20.895 7.553l-2-4A1.001 1.001 0 0018 3h-5c-.379 0-.725.214-.895.553L10.382 7H6c-.379 0-.725.214-.895.553l-2 4a1 1 0 000 .895l2 4c.17.338.516.552.895.552h4.382l1.724 3.447A.998.998 0 0013 21h5c.379 0 .725-.214.895-.553l2-4a1 1 0 000-.895L19.118 12l1.776-3.553a1 1 0 00.001-.894zM13.618 5h3.764l1.5 3-1.5 3h-3.764l-1.5-3 1.5-3zm-8.5 7l1.5-3h3.764l1.5 3-1.5 3H6.618l-1.5-3zm12.264 7h-3.764l-1.5-3 1.5-3h3.764l1.5 3-1.5 3z"/></svg><svg width="28" height="28" viewBox="-2 -2 28 28" id="boxicons-bx-low-vision" x="56" y="28" xmlns="http://www.w3.org/2000/svg"><path d="M12 4.998c-1.836 0-3.356.389-4.617.971L3.707 2.293 2.293 3.707l3.315 3.316c-2.613 1.952-3.543 4.618-3.557 4.66l-.105.316.105.316C2.073 12.382 4.367 19 12 19c1.835 0 3.354-.389 4.615-.971l3.678 3.678 1.414-1.414-3.317-3.317c2.614-1.952 3.545-4.618 3.559-4.66l.105-.316-.105-.316c-.022-.068-2.316-6.686-9.949-6.686zM4.074 12c.103-.236.274-.586.521-.989l5.867 5.867C6.249 16.23 4.523 13.035 4.074 12zm9.247 4.907l-7.48-7.481a8.138 8.138 0 011.188-.982l8.055 8.054a8.835 8.835 0 01-1.763.409zm3.648-1.352l-1.541-1.541c.354-.596.572-1.28.572-2.015 0-.474-.099-.924-.255-1.349A.983.983 0 0115 11a1 1 0 01-1-1c0-.439.288-.802.682-.936A3.97 3.97 0 0012 7.999c-.735 0-1.419.218-2.015.572l-1.07-1.07A9.292 9.292 0 0112 6.998c5.351 0 7.425 3.847 7.926 5a8.573 8.573 0 01-2.957 3.557z"/></svg><svg width="28" height="28" viewBox="-2 -2 28 28" id="boxicons-bx-message-rounded-edit" y="56" xmlns="http://www.w3.org/2000/svg"><path d="M12 2C6.486 2 2 5.589 2 10c0 2.908 1.898 5.515 5 6.934V22l5.34-4.005C17.697 17.852 22 14.32 22 10c0-4.411-4.486-8-10-8zm0 14h-.333L9 18v-2.417l-.641-.247C5.67 14.301 4 12.256 4 10c0-3.309 3.589-6 8-6s8 2.691 8 6-3.589 6-8 6z"/><path d="M8.503 11.589v1.398h1.398l3.87-3.864-1.399-1.398zm5.927-3.125l-1.398-1.398 1.067-1.067 1.398 1.398z"/></svg><svg width="28" height="28" viewBox="-2 -2 28 28" id="boxicons-bx-spa" x="28" y="56" xmlns="http://www.w3.org/2000/svg"><path d="M20.787 9.023c-.125.027-1.803.418-3.953 1.774-.323-1.567-1.279-4.501-4.108-7.485L12 2.546l-.726.767C8.435 6.308 7.483 9.25 7.163 10.827 5.005 9.448 3.34 9.052 3.218 9.024L2 8.752V10c0 7.29 3.925 12 10 12 5.981 0 10-4.822 10-12V8.758l-1.213.265zM8.999 12.038c.002-.033.152-3.1 3.001-6.532C14.814 8.906 14.999 12 15 12v.125a18.933 18.933 0 00-3.01 3.154 19.877 19.877 0 00-2.991-3.113v-.128zM12 20c-5.316 0-7.549-4.196-7.937-8.564 1.655.718 4.616 2.426 7.107 6.123l.841 1.249.825-1.26c2.426-3.708 5.425-5.411 7.096-6.122C19.534 15.654 17.304 20 12 20z"/></svg><svg width="28" height="28" viewBox="-2 -2 28 28" id="boxicons-bx-train" x="56" y="56" xmlns="http://www.w3.org/2000/svg"><circle cx="8.5" cy="14.5" r="1.5"/><circle cx="15.5" cy="14.5" r="1.5"/><path d="M18.87 3.34A3.55 3.55 0 0016.38 2H7.62a3.47 3.47 0 00-2.5 1.35A4.32 4.32 0 004 6v12a1 1 0 001 1h2l-2 3h2.32L8 21h8l.68 1H19l-2-3h2a1 1 0 001-1V6a4.15 4.15 0 00-1.13-2.66zM7.62 4h8.72a1.77 1.77 0 011 .66 3.25 3.25 0 01.25.34H6.39a2.3 2.3 0 01.25-.35A1.65 1.65 0 017.62 4zM6 8V7h12v3H6zm12 9H6v-5h12z"/></svg><svg width="28" height="28" viewBox="-2 -2 28 28" id="boxicons-bx-user-minus" x="84" xmlns="http://www.w3.org/2000/svg"><path d="M14 11h8v2h-8zM8 4a3.91 3.91 0 00-4 4 3.91 3.91 0 004 4 3.91 3.91 0 004-4 3.91 3.91 0 00-4-4zm0 6a1.91 1.91 0 01-2-2 1.91 1.91 0 012-2 1.91 1.91 0 012 2 1.91 1.91 0 01-2 2zm-4 8a3 3 0 013-3h2a3 3 0 013 3v1h2v-1a5 5 0 00-5-5H7a5 5 0 00-5 5v1h2z"/></svg><svg width="28" height="28" viewBox="-2 -2 28 28" id="boxicons-bxl-magento" x="84" y="28" xmlns="http://www.w3.org/2000/svg"><path d="M12 22.019l-3.717-2.146V9.863l2.479-1.43v10.01l1.238.753 1.238-.753V8.434l2.479 1.43v10.01L12 22.019zm8.666-15.014v10.009l-2.475 1.43V8.434L12 4.861 5.807 8.434v10.01l-2.473-1.43V7.005L12 2l8.666 5.005z"/></svg><svg width="28" height="28" viewBox="-2 -2 28 28" id="boxicons-bxs-cable-car" x="84" y="56" xmlns="http://www.w3.org/2000/svg"><path d="M2 9.76l9-2.45V10H7a2 2 0 00-2 2v8a2 2 0 002 2h10a2 2 0 002-2v-8a2 2 0 00-2-2h-4V6.76l9-2.45V2.24L2 7.69zM11 12v3H7v-3zm6 0v3h-4v-3z"/></svg><svg width="28" height="28" viewBox="-2 -2 28 28" id="boxicons-bxs-fast-forward-circle" y="84" xmlns="http://www.w3.org/2000/svg"><path d="M12 2C6.485 2 2 6.485 2 12s4.485 10 10 10c5.514 0 10-4.485 10-10S17.514 2 12 2zm1 14v-4l-6 4V8l6 4V8l6 4-6 4z"/></svg><svg width="28" height="28" viewBox="-2 -2 28 28" id="boxicons-bxs-gift" x="28" y="84" xmlns="http://www.w3.org/2000/svg"><path d="M5 12H4v8a2 2 0 002 2h5V12H5zm13 0h-5v10h5a2 2 0 002-2v-8h-2zm.791-5A4.92 4.92 0 0019 5.5C19 3.57 17.43 2 15.5 2c-1.622 0-2.705 1.482-3.404 3.085C11.407 3.57 10.269 2 8.5 2 6.57 2 5 3.57 5 5.5c0 .596.079 1.089.209 1.5H2v4h9V9h2v2h9V7h-3.209zM7 5.5C7 4.673 7.673 4 8.5 4c.888 0 1.714 1.525 2.198 3H8c-.374 0-1 0-1-1.5zM15.5 4c.827 0 1.5.673 1.5 1.5C17 7 16.374 7 16 7h-2.477c.51-1.576 1.251-3 1.977-3z"/></svg><svg width="28" height="28" viewBox="-2 -2 28 28" id="boxicons-bxs-tag-x" x="56" y="84" xmlns="http://www.w3.org/2000/svg"><path d="M21.842 6.218a1.977 1.977 0 00-.424-.628A1.99 1.99 0 0020 5H8c-.297 0-.578.132-.769.359l-5 6c-.309.371-.309.91 0 1.281l5 6c.191.228.472.36.769.36h12a1.977 1.977 0 001.41-.582A1.99 1.99 0 0022 17V7c0-.266-.052-.525-.158-.782zm-4.135 8.075l-1.414 1.414L14 13.414l-2.293 2.293-1.414-1.414L12.586 12l-2.293-2.293 1.414-1.414L14 10.586l2.293-2.293 1.414 1.414L15.414 12l2.293 2.293z"/></svg><svg width="28" height="28" viewBox="-2 -2 28 28" id="boxicons-bxs-virus-block" x="84" y="84" xmlns="http://www.w3.org/2000/svg"><path d="M18.952 17.538c-.749-.749-.908-1.869-.5-2.846l.021-.049c.399-.974 1.309-1.643 2.362-1.643h.08c.638 0 1.085-.447 1.085-1s-.447-1-1-1h-.17c-1.053 0-1.958-.669-2.357-1.644l-.021-.049c-.408-.977-.249-2.097.5-2.846l.119-.119a.999.999 0 10-1.414-1.414l-.119.119c-.749.749-1.869.908-2.846.5l-.049-.021C13.669 5.128 13 4.218 13 3.165v-.081C13 2.447 12.553 2 12 2s-1 .447-1 1v.036c0 1.096-.66 2.084-1.673 2.503l-.006.003a2.71 2.71 0 01-2.953-.588l-.025-.025-2.636-2.636-1.414 1.414 18 18 1.414-1.414-2.636-2.636-.119-.119zM12 10a2 2 0 112 2c-.257 0-.501-.053-.728-.142l-1.131-1.131A1.998 1.998 0 0112 10zm-4 3a1 1 0 01-1-1 .99.99 0 01.244-.635L5.431 9.552A2.634 2.634 0 013.085 11h-.001C2.447 11 2 11.447 2 12s.447 1 1 1h.068a2.66 2.66 0 012.459 1.644l.021.049a2.69 2.69 0 01-.583 2.929l-.036.036a.999.999 0 101.414 1.414l.036-.036a2.689 2.689 0 012.929-.583l.143.06A2.505 2.505 0 0111 20.83v.085c0 .638.447 1.085 1 1.085s1-.448 1-1v-.17c0-.976.568-1.853 1.443-2.266l-5.809-5.809A.98.98 0 018 13z"/></svg></svg>