<?xml version="1.0" encoding="utf-8"?><svg width="112" height="112" viewBox="0 0 112 112" xmlns="http://www.w3.org/2000/svg" xmlns:xlink="http://www.w3.org/1999/xlink"><svg viewBox="-10.67 -10.67 149.33 149.33" width="28" height="28" id="devicon-amazonwebservices-original-wordmark" xmlns="http://www.w3.org/2000/svg"><path fill="#201C1D" d="M44.634 57.361c-2.599 0-5.499 1.001-6.107 4.296-.064.351.167.517.391.567l2.663.32c.246-.014.414-.28.461-.533.228-1.134 1.16-1.669 2.201-1.669.563 0 1.193.193 1.527.71.381.576.354 1.359.354 2.024v.391c-1.582.182-3.666.292-5.147.958-1.709.76-2.912 2.307-2.912 4.58 0 2.913 1.785 4.366 4.083 4.366 1.94 0 3.013-.456 4.509-2.022.497.738.656 1.073 1.562 1.846a.55.55 0 00.64-.071v.035c.545-.497 1.535-1.401 2.094-1.881.222-.187.174-.493 0-.746-.5-.707-1.029-1.276-1.029-2.592v-4.366c0-1.85.156-3.556-1.172-4.828-1.046-1.031-2.791-1.385-4.118-1.385zm35.786 0c-2.6 0-5.498 1.001-6.106 4.296-.064.351.166.517.39.567l2.664.32c.246-.014.415-.28.461-.533.229-1.134 1.161-1.669 2.201-1.669.564 0 1.193.193 1.526.71.381.576.319 1.359.319 2.024v.391c-1.582.182-3.63.292-5.112.958-1.711.76-2.91 2.307-2.91 4.58 0 2.913 1.785 4.366 4.082 4.366 1.938 0 3.011-.456 4.509-2.022.495.738.656 1.073 1.563 1.846a.548.548 0 00.639-.071v.035c.546-.497 1.537-1.401 2.095-1.881.222-.187.171-.493 0-.746-.5-.707-1.03-1.276-1.03-2.592v-4.366c0-1.85.12-3.556-1.206-4.828-1.05-1.031-2.759-1.385-4.085-1.385zm-20.13.142c-1.68 0-2.924.848-3.585 2.663h-.036v-1.882a.534.534 0 00-.496-.497h-2.557a.54.54 0 00-.533.533v14.378a.554.554 0 00.498.497h2.733a.537.537 0 00.532-.533v-7.633c0-1.664-.08-3.94 1.882-3.94 1.937 0 1.668 2.339 1.668 3.94v7.633c0 .271.222.515.498.533h2.733c.29 0 .532-.243.532-.533v-7.633c0-.816-.033-2.006.248-2.733s.971-1.207 1.634-1.207c.789 0 1.394.275 1.598 1.242.126.575.071 2.094.071 2.698v7.633c0 .271.222.515.496.533h2.734c.29 0 .532-.243.532-.533v-9.088c0-1.545.154-3.298-.71-4.509-.765-1.088-2.015-1.563-3.16-1.563-1.605 0-3.101.848-3.763 2.663-.764-1.814-1.842-2.662-3.549-2.662zm46.472 0c-3.949 0-6.142 3.473-6.142 7.953 0 4.448 2.167 8.022 6.142 8.022 3.823 0 6.249-3.492 6.249-7.881 0-4.537-2.198-8.094-6.249-8.094zm15.585 0c-1.887 0-2.966.943-3.728 2.911h-.035v-2.201c-.049-.222-.258-.377-.497-.39h-2.521a.525.525 0 00-.533.461v14.378c0 .271.225.515.497.533h2.699a.54.54 0 00.531-.533v-7.739c0-.97.083-1.855.463-2.733.306-.697.899-1.137 1.562-1.137 1.883 0 1.703 2.295 1.703 3.87v7.811a.545.545 0 00.498.462h2.733a.537.537 0 00.532-.462v-9.053c0-1.392.003-3.324-.71-4.474-.764-1.241-1.975-1.704-3.194-1.704zm-32.803.249c-.278 0-.497.22-.498.532v2.059c.001.31.213.531.498.533h4.686l-5.361 7.916c-.326.511-.354 1.089-.354 1.421v2.095c0 .302.328.63.639.461 3.056-1.668 6.717-1.52 9.479-.035.336.183.675-.16.675-.462V70.07a.934.934 0 00-.497-.781c-1.568-.901-3.388-1.178-5.111-1.136l4.65-6.815c.43-.613.67-.981.674-1.279v-1.774c0-.306-.209-.532-.496-.532h-8.984zm17.218 2.698c.865 0 1.504.386 1.811 1.384.354 1.152.391 2.588.391 3.799 0 1.846-.086 4.899-2.201 4.899-2.139 0-2.13-3.78-2.13-5.538-.001-1.753.117-4.544 2.129-4.544zm-60.673 5.254v.604c0 1.092.04 2.01-.497 2.981-.434.79-1.116 1.279-1.881 1.279-1.045 0-1.668-.849-1.668-2.06-.001-2.387 2.074-2.804 4.046-2.804zm35.786 0v.604c0 1.092.04 2.01-.496 2.981-.435.79-1.112 1.279-1.882 1.279-1.047 0-1.669-.849-1.669-2.06 0-2.387 2.073-2.804 4.047-2.804z"/><path d="M99.59 73.656v2.06h1.386v-2.06H99.59zm-40.152.356v14.662h1.278V87.36c.272.521.582.91.958 1.171.376.262.806.391 1.277.391.939 0 1.75-.479 2.45-1.455.701-.977 1.065-2.392 1.065-4.189 0-1.178-.151-2.154-.462-2.981-.311-.826-.725-1.441-1.242-1.847-.519-.406-1.107-.639-1.739-.639-.452 0-.874.118-1.244.354-.368.236-.666.622-.958 1.101v-5.254h-1.383zm13.135 3.443c-.962 0-1.728.285-2.271.852s-.815 1.296-.815 2.202c0 .525.115.972.318 1.384.202.413.49.748.852.994.364.246 1.09.57 2.166.923.745.24 1.19.444 1.385.604.281.233.427.538.427.959 0 .486-.17.892-.498 1.207-.328.317-.786.461-1.385.461-.6 0-1.094-.168-1.455-.532-.362-.364-.557-.918-.64-1.668l-1.384.283c.313 2.278 1.449 3.41 3.408 3.408 1.045 0 1.844-.295 2.449-.923.604-.628.924-1.471.924-2.485 0-.548-.098-1.022-.284-1.419a2.251 2.251 0 00-.782-.924c-.336-.229-1.089-.536-2.236-.923-.834-.292-1.321-.506-1.49-.64-.284-.224-.427-.53-.427-.922 0-.4.133-.739.427-.995.294-.255.747-.39 1.349-.39 1.058 0 1.65.581 1.774 1.739l1.35-.213c-.094-.732-.253-1.312-.496-1.705a2.665 2.665 0 00-1.065-.958c-.465-.232-.992-.319-1.601-.319zm8.486 0c-1.109 0-2.046.457-2.77 1.42-.723.963-1.063 2.358-1.063 4.189 0 1.764.348 3.146 1.063 4.083.718.934 1.646 1.384 2.806 1.384.921 0 1.685-.276 2.307-.852.624-.575 1.077-1.423 1.313-2.557l-1.42-.248c-.407 1.451-1.16 2.163-2.2 2.165-.664 0-1.206-.281-1.669-.887-.464-.607-.726-1.507-.78-2.698h6.105v-.497c0-1.792-.357-3.137-1.065-4.083-.709-.945-1.569-1.419-2.627-1.419zm8.414 0c-.331 0-.621.112-.888.355-.267.242-.567.744-.888 1.49v-1.633h-1.243v10.615h1.385v-5.538c0-.772.074-1.516.249-2.201.1-.394.289-.703.532-.923.244-.221.523-.32.816-.32.326 0 .65.131.994.391l.462-1.668c-.482-.386-.955-.568-1.419-.568zm16.969 0c-1.096 0-1.999.462-2.699 1.385-.696.923-1.063 2.309-1.063 4.153 0 1.831.372 3.218 1.063 4.154.693.934 1.559 1.384 2.628 1.384.884 0 1.642-.328 2.272-.994.63-.665 1.014-1.646 1.172-2.911l-1.35-.213c-.101.905-.336 1.557-.71 1.988-.373.43-.823.639-1.349.639-.67 0-1.241-.313-1.67-.958-.427-.646-.638-1.68-.638-3.124 0-1.4.227-2.41.674-3.053.448-.644 1.021-.994 1.704-.994.457 0 .847.177 1.172.531.327.356.543.918.674 1.634l1.351-.283c-.162-1.119-.521-1.962-1.102-2.521-.58-.56-1.284-.817-2.129-.817zm7.917 0c-1.11 0-2.046.457-2.77 1.42-.723.963-1.065 2.358-1.065 4.189 0 1.764.349 3.146 1.065 4.083.719.934 1.646 1.384 2.805 1.384.918 0 1.685-.276 2.308-.852.622-.575 1.075-1.423 1.314-2.557l-1.42-.248c-.41 1.451-1.128 2.163-2.166 2.165-.664 0-1.241-.281-1.704-.887-.463-.607-.725-1.507-.781-2.698h6.106v-.497c0-1.792-.357-3.137-1.065-4.083-.706-.945-1.568-1.419-2.627-1.419zm8.202 0c-.966 0-1.729.285-2.272.852-.545.566-.817 1.296-.817 2.202 0 .525.082.972.284 1.384.2.413.489.748.853.994.361.246 1.09.57 2.166.923.743.24 1.226.444 1.42.604.281.233.426.538.426.959 0 .486-.168.892-.497 1.207-.326.317-.785.461-1.384.461-.602 0-1.094-.168-1.456-.532-.361-.364-.595-.918-.675-1.668l-1.384.283c.313 2.278 1.446 3.41 3.407 3.408 1.047 0 1.881-.295 2.485-.923s.922-1.471.922-2.485c0-.548-.096-1.022-.282-1.419a2.322 2.322 0 00-.817-.924c-.336-.229-1.054-.536-2.2-.923-.835-.292-1.357-.506-1.527-.64-.283-.224-.426-.53-.426-.922 0-.4.167-.739.462-.995.294-.255.75-.39 1.35-.39 1.058 0 1.649.581 1.774 1.739l1.349-.213c-.094-.732-.252-1.312-.497-1.705a2.662 2.662 0 00-1.064-.958c-.463-.232-.994-.319-1.6-.319zm-31.668.213l3.09 10.615h1.313l3.089-10.615h-1.42l-1.811 6.497c-.219.785-.413 1.464-.533 2.023-.15-.705-.296-1.446-.496-2.166l-1.775-6.354h-1.457zm8.697 0v10.615h1.386V77.668H99.59zm-45.513.143c-1.098 0-1.981.492-2.697 1.455-.717.963-1.102 2.358-1.102 4.189 0 1.765.355 3.113 1.065 4.047.709.935 1.657 1.42 2.806 1.42.911 0 1.655-.312 2.271-.888.616-.575 1.042-1.423 1.279-2.556l-1.385-.213c-.404 1.451-1.136 2.163-2.165 2.165-.659 0-1.21-.281-1.669-.888-.46-.606-.727-1.506-.781-2.697h6.035l.036-.497c0-1.792-.364-3.172-1.065-4.119-.701-.945-1.581-1.418-2.628-1.418zm-15.584.248l2.485 10.615h1.455l1.634-8.165.284 1.81 1.313 6.355h1.42l2.521-10.615h-1.313L46.906 84.2l-.462 2.06-.426-2.06-1.207-6.142h-1.42l-1.278 6.213-.426 2.201-.496-2.272-1.279-6.142h-1.419zm42.53.852c.69 0 1.258.333 1.704.994.306.452.506 1.14.567 2.059h-4.58c.044-.932.307-1.65.747-2.201.44-.55.943-.852 1.562-.852zm33.3 0c.688 0 1.258.333 1.704.994.308.452.506 1.14.569 2.059h-4.581c.044-.932.308-1.65.746-2.201.437-.55.943-.852 1.562-.852zm-60.246.39c.682 0 1.23.334 1.67.995.304.452.505 1.14.567 2.059h-4.51c.043-.932.275-1.687.711-2.236.434-.552.948-.818 1.562-.818zm8.805 0c.615 0 1.14.342 1.563.995.423.652.604 1.659.604 3.053 0 1.357-.2 2.37-.64 3.053-.439.684-.96 1.029-1.526 1.029-.416 0-.794-.14-1.136-.426-.344-.286-.595-.696-.782-1.242-.186-.546-.283-1.387-.283-2.485 0-1.294.231-2.263.674-2.947.443-.684.96-1.03 1.526-1.03z"/><path fill="#F7A80D" d="M18.594 68.048l-5.29 2.271 4.899 2.095 5.681-2.095-5.29-2.271zm-7.952 2.839l-.178 10.226 7.74 3.408V73.905l-7.562-3.018zm15.904 0l-6.994 2.663v10.012l6.994-2.84v-9.835zm8.343-31.809l-5.326 2.271 4.935 2.095 5.681-2.095-5.29-2.271zm-7.385 3.018V52.32l6.604 1.917.213-9.302-6.817-2.839zm14.769.567l-6.249 2.663v10.047l6.249-2.84v-9.87zM9.877 53.468l-5.29 2.272 4.899 2.095 5.68-2.095-5.289-2.272zm-7.951 2.841l-.178 10.224 7.739 3.408V59.326l-7.561-3.017zm15.904 0l-6.994 2.662v10.012l6.994-2.84v-9.834zm9.088-3.218l-5.29 2.271 4.899 2.094 5.68-2.094-5.289-2.271zm-7.952 2.839l-.177 10.225 7.739 3.408V58.948l-7.562-3.018zm15.905 0l-6.994 2.663v10.012l6.994-2.841V55.93zm16.662-16.852l-5.289 2.271 4.899 2.095 5.681-2.095-5.291-2.271zm-7.952 2.84l-.178 10.225 7.74 3.407V44.936l-7.562-3.018zm15.904 0l-6.994 2.663v10.011l6.994-2.84v-9.834z"/></svg><svg viewBox="-10.67 -10.67 149.33 149.33" width="28" height="28" id="devicon-appcelerator-original-wordmark" x="28" xmlns="http://www.w3.org/2000/svg"><path fill="#AC162C" d="M108.722 86.325L66.089 12.483a3.163 3.163 0 00-5.487 0L17.966 86.325a3.091 3.091 0 000 3.132c.567.98 1.612 1.543 2.744 1.543h85.27c1.132 0 2.174-.563 2.742-1.543a3.091 3.091 0 000-3.132zm-27.125-5.962l.114-3.2-12.302 2.173-.56-.319.16-4.017h-.321s-3.371 5.379-10.837 5.379c-5.538 0-10.756-2.26-10.756-11.248C47.095 60.059 53.916 57 61.062 57H69v-3.836c0-3.612-2.645-5.7-7.141-5.7-5.058 0-11.228.803-11.228.803L50 47.705v-6.101s6.674-.802 13.34-.802c6.102 0 13.66 1.606 13.66 10.596v20.688l3.967-.779-1.24-2.994 10.219 4.498-8.349 7.552zM54.88 68.479c0 4.173 3.126 5.027 5.935 5.027 2.65 0 5.186-.754 8.186-4.045V63h-5.85c-5.463 0-8.271 1.144-8.271 5.479z"/><path fill="#555759" d="M10.819 112.77H8.552l-.178-.178.049-1.351h-.101s-1.069 1.784-3.438 1.784c-1.759 0-3.415-.711-3.415-3.567 0-2.878 2.166-3.848 4.434-3.848h2.472v-1.145c0-1.146-.816-1.809-2.242-1.809-1.606 0-3.541.255-3.541.255l-.18-.177v-1.938s2.039-.254 4.154-.254c1.936 0 4.254.51 4.254 3.362v8.866zm-2.445-5.22H6.565c-1.732 0-2.624.38-2.624 1.757 0 1.326.967 1.605 1.858 1.605.841 0 1.758-.228 2.574-1.275v-2.087zm5.911-6.754h2.293l.177.179-.051 1.351h.102s1.046-1.784 3.415-1.784c1.937 0 3.286.74 3.286 3.593v5.197c0 2.855-2.446 3.694-4.561 3.694-.867 0-1.528-.051-2.191-.102v4.179h-2.47v-16.307zm2.47 9.962a13.97 13.97 0 002.318.053c1.07-.104 1.987-.536 1.987-2.063v-4.459c0-1.3-.636-1.632-1.579-1.632-.866 0-1.758.356-2.727 1.551v6.55zm9.886-9.962h2.293l.178.179-.052 1.351h.103s1.045-1.784 3.413-1.784c1.938 0 3.288.74 3.288 3.593v5.197c0 2.855-2.447 3.694-4.562 3.694-.865 0-1.529-.051-2.19-.102v4.179h-2.471v-16.307zm2.47 9.962c.661.077 1.631.104 2.317.053 1.07-.104 1.987-.536 1.987-2.063v-4.459c0-1.3-.637-1.632-1.579-1.632-.866 0-1.757.356-2.726 1.551v6.55zm17.707-7.745s-1.451-.254-3.059-.254c-1.426 0-2.624.205-2.624 2.038v4.001c0 1.836 1.198 2.038 2.624 2.038 1.607 0 3.059-.256 3.059-.256l.179.179v2.012s-1.708.256-3.822.256c-2.116 0-4.509-.662-4.509-3.517v-5.427c0-2.852 2.393-3.541 4.509-3.541 2.114 0 3.822.254 3.822.254v2.04l-.179.177zm11.414 4.537h-6.395v1.247c0 1.836 1.197 2.038 2.624 2.038 1.604 0 3.211-.256 3.211-.256l.175.179v2.012s-1.857.256-3.973.256c-2.113 0-4.51-.662-4.51-3.517v-5.17c0-2.981 2.422-3.797 4.689-3.797 2.266 0 4.661.74 4.661 3.797 0 1.3-.205 2.801-.229 2.955l-.253.256zm-6.394-3.391v1.452h4.203c.051-.305.128-.866.103-1.425-.052-1.147-.868-1.529-2.089-1.529-1.301 0-2.217.458-2.217 1.502zm12.227-8.203v16.814h-2.472V95.956h2.472zm11.974 11.594h-6.393v1.247c0 1.836 1.198 2.038 2.622 2.038 1.605 0 3.211-.256 3.211-.256l.177.179v2.012s-1.858.256-3.974.256-4.511-.662-4.511-3.517v-5.17c0-2.981 2.42-3.797 4.688-3.797 2.271 0 4.665.74 4.665 3.797 0 1.3-.204 2.801-.229 2.955l-.256.256zm-6.393-3.391v1.452h4.201c.051-.305.128-.866.101-1.425-.05-1.147-.864-1.529-2.089-1.529-1.296 0-2.213.458-2.213 1.502zm15.946-1.146c-1.044 0-2.344 0-3.718 1.276v8.481h-2.473v-11.974h2.295l.178.179-.052 1.351h.103c-.155 0 1.298-1.935 3.845-1.784v2.294l-.178.177zm11.058 9.757h-2.27l-.178-.178.053-1.351h-.104s-1.069 1.784-3.438 1.784c-1.758 0-3.414-.711-3.414-3.567 0-2.878 2.166-3.848 4.434-3.848h2.469v-1.145c0-1.146-.815-1.809-2.242-1.809-1.604 0-3.54.255-3.54.255l-.177-.177v-1.938s2.037-.254 4.151-.254c1.935 0 4.256.51 4.256 3.362v8.866zm-2.448-5.22h-1.808c-1.731 0-2.622.38-2.622 1.757 0 1.326.964 1.605 1.857 1.605.842 0 1.757-.228 2.572-1.275v-2.087zm6.089-4.792H99.02v-1.962h1.271v-2.548h2.473v2.548h2.879v1.962h-2.879v6.801c0 .97.509 1.353 1.377 1.353.839 0 1.578-.101 1.578-.101l.181.177v1.782s-.894.256-2.242.256c-2.167 0-3.366-1.198-3.366-3.467v-6.801zm16.742 6.498c0 3.081-2.399 3.77-4.663 3.77-2.27 0-4.69-.79-4.69-3.77v-4.917c0-2.981 2.421-3.797 4.69-3.797 2.264 0 4.663.714 4.663 3.797v4.917zm-2.448-4.587c0-1.35-.841-2.012-2.215-2.012-1.506 0-2.217.687-2.217 2.012v4.255c0 1.4.813 1.988 2.217 1.988 1.5 0 2.215-.664 2.215-1.988v-4.255zm11.769-1.656c-1.044 0-2.342 0-3.72 1.276v8.481h-2.47v-11.974h2.293l.177.179-.051 1.351h.102c-.151 0 1.302-1.935 3.846-1.784v2.294l-.177.177z"/></svg><svg viewBox="-10.67 -10.67 149.33 149.33" width="28" height="28" id="devicon-c-plain" y="28" xmlns="http://www.w3.org/2000/svg"><path fill="#03599C" d="M117.5 33.5l.3-.2c-.6-1.1-1.5-2.1-2.4-2.6L67.1 2.9c-.8-.5-1.9-.7-3.1-.7-1.2 0-2.3.3-3.1.7l-48 27.9c-1.7 1-2.9 3.5-2.9 5.4v55.7c0 1.1.2 2.3.9 3.4l-.2.1c.5.8 1.2 1.5 1.9 1.9l48.2 27.9c.8.5 1.9.7 3.1.7 1.2 0 2.3-.3 3.1-.7l48-27.9c1.7-1 2.9-3.5 2.9-5.4V36.1c.1-.8 0-1.7-.4-2.6zM64 88.5c9.1 0 17.1-5 21.3-12.4l12.9 7.6c-6.8 11.8-19.6 19.8-34.2 19.8-21.8 0-39.5-17.7-39.5-39.5S42.2 24.5 64 24.5c14.7 0 27.5 8.1 34.3 20l-13 7.5C81.1 44.5 73.1 39.5 64 39.5c-13.5 0-24.5 11-24.5 24.5s11 24.5 24.5 24.5z"/></svg><svg viewBox="-10.67 -10.67 149.33 149.33" width="28" height="28" id="devicon-cplusplus-line" x="28" y="28" xmlns="http://www.w3.org/2000/svg"><path d="M87 70v-5h5v-4h-5v-5h-5v5h-5v4h5v5zm18-14h-4v5h-6v4h6v5h4v-5h5v-4h-5zm11.5-23.7c-.6-1.1-1.4-2.1-2.3-2.6L66.1 1.9c-.8-.5-1.9-.7-3.1-.7-1.2 0-2.3.3-3.1.7L11.4 29.7c-1.7 1-3.4 3.5-3.4 5.4v55.7c0 1.1.7 2.3 1.4 3.4l.1.1c.5.8 1.3 1.5 2 1.9l48.3 27.9c.8.5 2 .7 3.2.7 1.2 0 2.3-.3 3.1-.7l47.5-27.9c1.7-1 2.4-3.5 2.4-5.4V35.1c0-.8.4-1.8 0-2.6l.5-.2zm-4.2 2.1c0 .3-.3.5-.3.7v55.7c0 .8-.2 1.7-.4 2L64 120.6c-.1.1-.5.2-1.1.2-.6 0-1-.1-1.1-.2L13.6 92.8s-.1-.1-.2-.1l-.6-.6c-.4-.7.2-1.1-.8-1.2V35.2c1-.5.9-1.7 1.4-1.9L61.7 5.4c.1 0 .6-.2 1.2-.2s1 .1 1.1.2l48 27.7.4.9c.1.1-.1.3-.1.4zM63 87.5c-13.5 0-24.5-11-24.5-24.5s11-24.5 24.5-24.5c9.1 0 17.1 5 21.3 12.5l13-7.5c-6.8-11.9-19.6-20-34.3-20-21.8 0-39.5 17.7-39.5 39.5s17.7 39.5 39.5 39.5c14.6 0 27.4-8 34.2-19.8l-12.9-7.6C80.1 82.5 72.1 87.5 63 87.5z" fill="#9C033A"/></svg><svg viewBox="-10.67 -10.67 149.33 149.33" width="28" height="28" id="devicon-docker-plain-wordmark" x="56" xmlns="http://www.w3.org/2000/svg"><path d="M86 118.4c0-.3.1-.6 0-.9-.2-.3-.3-.5-.5-.7-.5-.6-1-1.1-1.6-1.7l-5.9-6 4.6-4.7 2.5-2.7c.4-.4.9-1.2.9-1.8v-.4c0-.9-.4-1.4-1.3-1.6l.2.1h-.7c-.6 0-2.3 1.6-2.7 2.1-1.5 1.5-2.5 2.9-4.5 4.4V92.6c0-1.1-.6-1.6-1.7-1.6H75c-1.1 0-2 .5-2 1.6v25.9c0 1.1.9 1.5 2 1.5h.3c1.1 0 1.7-.5 1.7-1.5v-4.6l3 2.9c.9.9 1.8 1.5 2.6 2.3.4.4 1.2.9 1.8.9h.3c1 0 1.3-.5 1.5-1.3l-.2.1v-.4zM125.1 98h-.4c-2.2 0-4.2.6-6 1.9-3 2.2-4.7 5.1-4.7 8.9v9.8c0 1.1.4 1.4 1.5 1.4h.3c1.1 0 2.2-.4 2.2-1.4v-9.2c0-2 .4-3.9 1.9-5.4 1.2-1.2 2.7-2.2 4.4-2.2 1.3 0 2.8-.3 2.8-1.9 0-1.2-.9-1.9-2-1.9zm-15.4 5c-1.1-1.8-2.6-3.2-4.5-4.1-3.5-1.7-7.2-1.9-10.6.1l-.5.3c-1.4.8-2.6 1.8-3.5 3.1-2.6 3.8-2.9 8.1-.6 12.1l.2.4c1 1.7 2.3 3.1 4 4 3.6 2 7.5 2.2 11.1.2l.3-.2c1-.6 1.2-1.6.7-2.6-.2-.4-.6-.7-1-.9h-.2c-.7-.1-2.6.7-3.3 1-1.4.2-3 .3-4.4-.2l7.6-6.6c1.1-1 2.3-2.1 3.5-3 1-.8 2-1.9 1.2-3.3v-.3zm-6.9 3.6l-8.5 7.3c-.3-.3-.5-.7-.7-1-.6-1-1-2.2-1-3.4-.1-3 1-5.5 3.7-7 2-1.2 4.2-1.4 6.4-.6 1.1.4 2.4 1.1 3.1 2.1-1 .9-2.1 1.7-3 2.6zM22 91h-.3c-1.1 0-1.7.4-1.7 1.5v8.1c-2-1.8-4.4-2.5-7.2-2.5H12c-1.9 0-3.7.3-5.4 1.3-3.6 2.1-5.6 5.2-5.6 9.4v.8c0 1.9.5 3.5 1.5 5.2 2.1 3.6 5.4 5.4 9.5 5.4h.8c1.9 0 3.9-.3 5.5-1.2 3.6-2.1 5.7-5.2 5.7-9.3v-17c0-1.3-.9-1.7-2-1.7zm-3.1 21.8c-1.5 2.5-3.7 3.9-6.6 3.9-1.2 0-2.4-.3-3.4-.9-2.6-1.4-4.1-3.7-4.1-6.7 0-1.1.2-2.1.7-3.1 1.4-2.9 3.7-4.5 6.9-4.5 1.6 0 3 .5 4.2 1.4 2.1 1.5 3.3 3.5 3.3 6.1.1 1.4-.3 2.6-1 3.8zM37.6 98H37c-1.9 0-3.8.3-5.4 1.3-3.6 2.1-5.6 5.2-5.6 9.4v.8c0 1.9.5 3.5 1.5 5.2 2.1 3.6 5.4 5.4 9.6 5.4h.8c1.9 0 3.8-.3 5.5-1.2 3.6-2.1 5.7-5.2 5.7-9.3v-.8c0-1.8-.6-3.3-1.4-4.8-2.2-4-5.7-6-10.1-6zm6.4 14.8c-1.5 2.4-3.6 3.9-6.5 3.9-1.3 0-2.6-.3-3.8-1-2.5-1.5-3.9-3.6-3.9-6.5 0-1.1.2-2.1.7-3.1 1.4-2.9 3.7-4.5 6.9-4.5 1.5 0 2.8.4 4 1.2 2.2 1.5 3.5 3.6 3.5 6.3.1 1.2-.2 2.5-.9 3.7zm24.5-13.4l-.1.1c-1.7-1.1-3.6-1.5-5.6-1.5H62c-1.9 0-3.8.3-5.4 1.3-3.6 2.1-5.6 5.2-5.6 9.3v.8c0 1 .2 1.9.4 2.9 1.6 5.5 5.9 8.6 11.7 8.2 1.6-.1 5.9-.6 5.9-3v-.4c0-.9-.7-1.7-1.5-1.9l-.1-.2h-.7l-.2.3c-.9.4-2.4 1.2-3.4 1.2-1.2 0-2.5 0-3.6-.6-2.9-1.4-4.6-3.7-4.6-6.9 0-1.1.2-2.1.7-3.1 1.4-2.8 3.7-4.6 6.9-4.5.6 0 1.7.3 2.3.6.5.2 1.8 1 2.4 1h.2l.1-.2c.9-.2 1.6-.9 1.6-1.8v-.4c0-.4-.2-.7-.4-1l-.2-.2zM5.8 68.2l.1.2c7.9 13.4 21.7 19 36.8 19 29.2 0 53.3-13.1 64.3-40.6 7.4.4 15-1.8 18.6-8.9l.9-1.8-1.8-1c-4.3-2.5-10-2.8-14.8-1.4-.6-5.2-4-9.7-8-12.9l-1.6-1.3-1.3 1.6c-2.7 3.1-3.5 8.3-3.1 12.3.3 2.9 1.2 5.9 3 8.3-1.4.8-2.9 1.9-4.3 2.4-2.8 1-5.9 2-8.9 2H79V32H66V7H51v12H26v13H13v14H1.8l-.2 1.5c-.5 6.4.3 12.6 3 18.5l1.2 2.2zM66 35h11v11H66V35zM53 9h11v11H53V9zm0 13h11v11H53V22zm0 13h11v11H53V35zM40 22h11v11H40V22zm0 13h11v11H40V35zm1.1 31.2c0 1.7-1.4 3.1-3.1 3.1-1.7 0-3.1-1.4-3.1-3.1 0-1.7 1.4-3.1 3.1-3.1 1.7.1 3.1 1.4 3.1 3.1zM28 22h10v11H28V22zm0 13h10v11H28V35zm-13 0h11v11H15V35zm2.4 38c1.6 0 3.2 0 4.7-.1 3.9-.2 7.3-.7 10.1-1.5 2.3 5.3 6.5 10.2 14 13.8l-3.5.1c-15.8-.1-24.3-5.4-31.3-12.4 2.1.1 4.1.1 6 .1zM38 68.4c1.2 0 2.2-1 2.2-2.2 0-.3-.1-.6-.2-.8-.2.3-.4.5-.8.5-.5 0-.9-.4-.9-.9 0-.3.2-.6.4-.8-.1-.1-.4-.2-.7-.2-1.2 0-2.2 1-2.2 2.2.1 1.2 1 2.2 2.2 2.2z" fill="#019BC6"/></svg><svg viewBox="-10.67 -10.67 149.33 149.33" width="28" height="28" id="devicon-dot-net-plain-wordmark" x="56" y="28" xmlns="http://www.w3.org/2000/svg"><path fill="#1384C8" d="M40.335 78.188H38.65v-9.65c0-.762.05-1.69.14-2.785h-.038c-.158.64-.303 1.104-.43 1.391L33.42 78.188h-.821l-4.911-10.964c-.138-.306-.283-.799-.43-1.471h-.036c.052.576.081 1.509.081 2.804v9.631h-1.626V63.817h2.225l4.409 10.021c.332.754.547 1.328.651 1.72h.069a32.45 32.45 0 01.688-1.762l4.505-9.979h2.11v14.371h.001zm5.188 0h-1.639V67.925h1.639v10.263zm.283-13.942c0 .303-.106.555-.317.763a1.04 1.04 0 01-.764.312 1.06 1.06 0 01-.757-.301 1.025 1.025 0 01-.313-.774c0-.296.104-.549.313-.754s.464-.305.757-.305c.3 0 .557.099.764.305.211.205.317.458.317.754M55.764 77.713c-.786.483-1.726.722-2.812.722-1.472 0-2.655-.488-3.561-1.464-.879-.947-1.321-2.169-1.321-3.667 0-1.681.48-3.042 1.45-4.077.964-1.036 2.261-1.553 3.892-1.553.892 0 1.683.174 2.375.521v1.687c-.766-.538-1.576-.805-2.445-.805-1.045 0-1.896.365-2.555 1.093-.687.745-1.034 1.742-1.034 2.985 0 1.194.317 2.14.948 2.837.633.694 1.476 1.042 2.538 1.042.897 0 1.738-.295 2.524-.882v1.561h.001zm7.84-8.123c-.289-.223-.706-.331-1.255-.331-.668 0-1.229.298-1.683.901-.516.673-.771 1.604-.771 2.795v5.232h-1.644V67.925h1.644v2.116h.039c.241-.749.614-1.325 1.112-1.733a2.456 2.456 0 011.572-.561c.438 0 .762.047.984.14l.002 1.703zm9.154 3.485c0-1.313-.296-2.317-.89-3.006-.575-.662-1.38-.992-2.416-.992-1.021 0-1.841.334-2.453 1.003-.647.715-.971 1.725-.971 3.035 0 1.228.308 2.192.93 2.879.618.692 1.45 1.039 2.494 1.039 1.08 0 1.907-.352 2.474-1.051.555-.684.832-1.652.832-2.907m1.685-.057c0 1.635-.462 2.949-1.382 3.934-.924.989-2.167 1.483-3.73 1.483-1.54 0-2.767-.494-3.665-1.483-.881-.953-1.323-2.211-1.323-3.776 0-1.786.5-3.162 1.503-4.139.929-.906 2.17-1.363 3.726-1.363 1.53 0 2.726.477 3.587 1.422.853.95 1.284 2.258 1.284 3.922m8.146 2.424c0 .84-.313 1.536-.942 2.091-.687.601-1.63.901-2.816.901-.971 0-1.822-.203-2.545-.618V76.05c.804.654 1.692.983 2.667.983 1.301 0 1.952-.479 1.952-1.434a1.27 1.27 0 00-.431-.991c-.289-.262-.851-.576-1.685-.943-.859-.376-1.472-.762-1.833-1.163-.434-.476-.652-1.093-.652-1.854 0-.852.341-1.561 1.014-2.125.675-.567 1.542-.85 2.606-.85.815 0 1.546.159 2.194.481v1.654c-.677-.488-1.451-.732-2.329-.732-.544 0-.981.136-1.307.399-.329.27-.494.614-.494 1.034 0 .455.138.808.412 1.061.244.233.761.519 1.541.852.876.367 1.509.748 1.895 1.137.5.494.753 1.121.753 1.883m10.04-2.367c0-1.313-.297-2.317-.892-3.006-.575-.662-1.381-.992-2.415-.992-1.021 0-1.841.334-2.456 1.003-.646.715-.969 1.725-.969 3.035 0 1.228.309 2.192.924 2.879.626.692 1.459 1.039 2.501 1.039 1.082 0 1.906-.352 2.474-1.051.555-.684.833-1.652.833-2.907m1.688-.057c0 1.635-.466 2.949-1.388 3.934-.92.989-2.163 1.483-3.727 1.483-1.542 0-2.768-.494-3.667-1.483-.881-.953-1.323-2.211-1.323-3.776 0-1.786.504-3.162 1.502-4.139.928-.906 2.171-1.363 3.728-1.363 1.531 0 2.725.477 3.584 1.422.855.95 1.291 2.258 1.291 3.922M101.555 64.438a2.2 2.2 0 00-1.091-.27c-1.15 0-1.721.724-1.721 2.175v1.582h2.405v1.392h-2.405v8.871h-1.645v-8.871h-1.745v-1.392h1.745v-1.664c0-1.129.346-2.016 1.05-2.654.603-.555 1.34-.831 2.217-.831.508 0 .902.061 1.189.178v1.484zm6.484 13.647c-.388.222-.904.333-1.543.333-1.791 0-2.687-1.01-2.687-3.029v-6.07h-1.761v-1.394h1.761v-2.504l1.646-.533v3.037h2.583v1.394h-2.583v5.791c0 .688.112 1.18.348 1.465.237.295.625.439 1.173.439.409 0 .763-.109 1.063-.331v1.402zm-88.802 40.157c0 .805-.286 1.5-.867 2.087a2.845 2.845 0 01-2.102.88 2.736 2.736 0 01-2.05-.88 2.915 2.915 0 01-.841-2.087c0-.827.279-1.525.841-2.103a2.742 2.742 0 012.05-.867c.823 0 1.524.292 2.102.878.581.588.867 1.286.867 2.092M56.018 120.606H50.66L31.212 90.572a13.803 13.803 0 01-1.179-2.365h-.16c.139.804.209 2.531.209 5.175v27.224h-4.416v-37.68h5.732l18.865 29.56c.751 1.173 1.265 2.013 1.525 2.519h.104c-.175-1.083-.266-2.932-.266-5.54V82.926h4.39v37.68h.002zm28.314 0H64.361v-37.68h19.104v3.993h-14.69v12.534h13.612v3.995H68.774v13.164h15.558v3.994zm30.291-33.687h-10.854v33.688h-4.415V86.919H88.479v-3.995h26.144v3.995z"/><path fill-rule="evenodd" clip-rule="evenodd" fill="#1384C8" d="M82.108 46.33c.479-1.232 1.022-2.445 1.427-3.701 2.288-7.097 4.554-14.2 6.805-21.309.865-2.731 1.813-5.42 3.515-7.767 2.692-3.709 6.442-5.652 10.88-6.331a37.456 37.456 0 015.28-.406c5.267-.05 10.536-.015 15.804-.01.28 0 .56.029.957.052-.129.304-.199.525-.311.724-1.955 3.494-3.872 7.009-5.885 10.468-3.505 6.022-7.016 12.042-10.631 17.998-2.319 3.819-4.834 7.52-7.687 10.974-2.105 2.548-4.321 4.984-7.146 6.77-1.925 1.217-3.981 1.929-6.315 1.917-8.278-.045-16.556-.012-24.834-.024-2.461-.004-4.568-.941-6.356-2.603-2.563-2.381-4.093-5.412-5.345-8.608-2.284-5.835-3.563-11.951-5.031-18.014-.688-2.838-1.47-5.654-2.215-8.478-.048-.183-.142-.354-.25-.617l-.577.542c-3.228 3.207-6.071 6.741-8.615 10.498-.693 1.024-.926 2.374-1.313 3.591-1.424 4.47-2.722 8.983-4.264 13.411-1.477 4.242-4.125 7.616-8.264 9.61a18.565 18.565 0 01-7.689 1.855c-3.98.088-7.962.098-11.943.134-.952.009-.996-.069-.748-.99 1.707-6.338 3.87-12.514 6.58-18.492 2.794-6.167 6.085-12.048 10.231-17.419 2.823-3.657 5.941-7.031 9.843-9.582 1.979-1.293 4.083-2.315 6.477-2.584.394-.045.793-.073 1.189-.073 8.478-.004 16.956.082 25.433-.039 4.547-.065 7.839 1.855 10.304 5.515 1.533 2.276 2.63 4.761 3.553 7.328 1.861 5.178 3.018 10.547 4.325 15.878.748 3.051 1.581 6.081 2.379 9.12.06.228.157.446.238.668l.199-.006z"/></svg><svg id="devicon-intellij-plain-wordmark" viewBox="-10.67 -10.67 149.33 149.33" width="28" height="28" y="56" xmlns="http://www.w3.org/2000/svg"><defs><style>.aagcls-1{fill:#136ba2}</style></defs><g id="aagplain-wordmark"><path class="aagcls-1" d="M38.51 61.26V72.9h-1.6V61.26zM41.45 66.81c0-.86 0-1.57-.07-2.26h1.44l.09 1.38a3.33 3.33 0 013-1.57c1.24 0 3.16.69 3.16 3.56v5h-1.64v-4.84c0-1.35-.54-2.47-2.07-2.47a2.29 2.29 0 00-2.18 1.55 2.06 2.06 0 00-.11.71v5h-1.62zM53.58 62.14v2.4h2.33v1.16h-2.33v4.51c0 1 .31 1.62 1.22 1.62a3.84 3.84 0 00.94-.1l.07 1.14a4.22 4.22 0 01-1.44.21 2.34 2.34 0 01-1.75-.64 3 3 0 01-.62-2.18V65.7h-1.39v-1.16H52v-2zM58.53 69a2.78 2.78 0 003.07 2.9 6.23 6.23 0 002.47-.43l.28 1.09a7.68 7.68 0 01-3 .52c-2.75 0-4.4-1.69-4.4-4.22s1.59-4.51 4.19-4.51c2.92 0 3.69 2.4 3.69 3.94a5.49 5.49 0 01-.05.71zm4.76-1.09A2.21 2.21 0 0061 65.44a2.59 2.59 0 00-2.49 2.47zM66.87 60.64h1.63V72.9h-1.63zM71.23 60.64h1.63V72.9h-1.63zM77.4 62.19a1 1 0 01-2 0 1 1 0 011-1 .93.93 0 011 1zM75.59 72.9v-8.36h1.63v8.36h-1.63zM82.51 61.26h1.61v7.79c0 3.09-1.63 4-3.77 4a5.52 5.52 0 01-1.72-.28l.24-1.23a4.07 4.07 0 001.35.22c1.44 0 2.29-.6 2.29-2.89v-7.61zM91.4 61.26V72.9h-2.83V61.26zM93.83 61.41a26.81 26.81 0 013.8-.24 8.42 8.42 0 015.1 1.24 5 5 0 012.11 4.39 5.74 5.74 0 01-2.07 4.72A9.38 9.38 0 0197 73a26 26 0 01-3.2-.17V61.41zm2.83 9.5a5.58 5.58 0 001 .05c2.55 0 4.21-1.3 4.21-4.08 0-2.42-1.5-3.7-3.92-3.7a6.25 6.25 0 00-1.27.1zM114.09 68h-4.58v2.76h5.12v2.14h-7.94V61.26h7.68v2.16h-4.86v2.42h4.58V68zM119.44 69.91l-.89 3h-2.92l3.8-11.64h3.69L127 72.9h-3l-1-3zm3.16-2l-.78-2.47c-.22-.69-.44-1.55-.63-2.25-.18.69-.37 1.57-.57 2.25l-.74 2.47zM1 64.13a3.28 3.28 0 003.38 3.16 3.16 3.16 0 100-6.32A3.28 3.28 0 001 64.13zM21.14 53c-1.85 0-3 1.4-3 3.74v14.42c0 2.34 1.1 3.74 3 3.74s3-1.4 3-3.74V56.78C24.1 54.44 23 53 21.14 53z"/><path class="aagcls-1" d="M16 53.35H3.83a2.76 2.76 0 100 5.51H10V64.1a5.5 5.5 0 01-5.67 5.3H4A2.77 2.77 0 104 75h.42C10.76 75 16 70.1 16 64.14v-.1-1.77-8.92z"/></g></svg><svg viewBox="-10.67 -10.67 149.33 149.33" width="28" height="28" id="devicon-jeet-original" x="28" y="56" xmlns="http://www.w3.org/2000/svg"><defs><path id="aaha" d="M81.048 60.31a23.305 23.305 0 01-.744 3.75c-.15 8.476-6.817 15.36-15.206 15.85a23.25 23.25 0 01-4.68 1.03l-9.274 9.273 27.25 27.252 8.642-8.64c.667-11.898 10.196-21.428 22.093-22.094l7.25-7.25-27.25-27.25-8.082 8.08z"/></defs><clipPath id="aahb"><use xlink:href="#aaha" overflow="visible"/></clipPath><linearGradient id="aahc" gradientUnits="userSpaceOnUse" x1="-286.663" y1="7.854" x2="-285.993" y2="7.854" gradientTransform="rotate(130.9 -6240.933 3133.735) scale(44.3)"><stop offset="0" stop-color="#09e09c"/><stop offset="1" stop-color="#00bfff"/></linearGradient><path clip-path="url(#aahb)" fill="url(#aahc)" d="M148.662 80.175l-60.226 69.57L18.864 89.52 79.09 19.948z"/><defs><path id="aahd" d="M12.338 78.658l8.08 8.08c10.818 1.232 19.4 9.814 20.63 20.63l9.275 9.274L77.575 89.39l-8.64-8.642a23.367 23.367 0 01-4.932-.815c-8.537-.072-15.494-6.76-15.996-15.19a23.41 23.41 0 01-1.166-6.088l-7.25-7.25L12.34 78.658z"/></defs><clipPath id="aahe"><use xlink:href="#aahd" overflow="visible"/></clipPath><linearGradient id="aahf" gradientUnits="userSpaceOnUse" x1="-281.399" y1="14.666" x2="-280.73" y2="14.666" gradientTransform="matrix(29.5 31 -31 29.5 8791.172 8364.555)"><stop offset="0" stop-color="#ffc800"/><stop offset="1" stop-color="#00bfff"/></linearGradient><path clip-path="url(#aahe)" fill="url(#aahf)" d="M46.572 18.83l63.58 66.812-66.812 63.58-63.58-66.813z"/><defs><path id="aahg" d="M41.26 19.207C40.595 31.104 31.066 40.633 19.17 41.3l-7.252 7.25L39.17 75.802l8.082-8.082c.144-1.267.393-2.503.73-3.7 0-.084-.006-.166-.006-.25 0-8.93 7.24-16.168 16.17-16.168.26 0 .522.007.782.02a23.327 23.327 0 012.954-.53l9.274-9.275L49.9 10.567l-8.64 8.64z"/></defs><clipPath id="aahh"><use xlink:href="#aahg" overflow="visible"/></clipPath><linearGradient id="aahi" gradientUnits="userSpaceOnUse" x1="-289.46" y1="21.371" x2="-288.79" y2="21.371" gradientTransform="matrix(29 -29.5 29.5 29 7798.318 -9105.38)"><stop offset="0" stop-color="#ffc800"/><stop offset="1" stop-color="#ff664a"/></linearGradient><path clip-path="url(#aahh)" fill="url(#aahi)" d="M-20.698 43.742l64.675-65.79 65.79 64.675-64.674 65.79z"/><defs><path id="aahj" d="M50.257 38.646l8.642 8.64a23.46 23.46 0 013.343.43 16.348 16.348 0 011.9-.114c8.93 0 16.17 7.24 16.17 16.168 0 .35-.014.695-.036 1.04.38 1.47.628 3 .716 4.57l7.25 7.25 27.252-27.252-8.082-8.082c-10.817-1.23-19.398-9.813-20.63-20.63l-9.274-9.274-27.253 27.254z"/></defs><clipPath id="aahk"><use xlink:href="#aahj" overflow="visible"/></clipPath><linearGradient id="aahl" gradientUnits="userSpaceOnUse" x1="-294.236" y1="12.616" x2="-293.566" y2="12.616" gradientTransform="rotate(-135.8 -7139.432 -2558.264) scale(48.1)"><stop offset="0" stop-color="#09e09c"/><stop offset="1" stop-color="#ff664a"/></linearGradient><path clip-path="url(#aahk)" fill="url(#aahl)" d="M83.834 109.235L17.652 44.972 81.916-21.21l66.182 64.264z"/><path fill="#FFC800" d="M23.948 87.24C10.988 87.24.48 76.732.48 63.77c0-12.96 10.507-23.468 23.468-23.468s23.468 10.507 23.468 23.47c0 12.96-10.507 23.468-23.468 23.468"/><path fill="#FF664A" d="M63.528 47.66c-12.96 0-23.468-10.507-23.468-23.468C40.06 11.23 50.566.722 63.528.722c12.96 0 23.468 10.508 23.468 23.47 0 12.96-10.508 23.468-23.468 23.468"/><path fill="#00BFFF" d="M64.143 127.277c-12.96 0-23.468-10.507-23.468-23.468 0-12.963 10.507-23.47 23.468-23.47S87.61 90.847 87.61 103.81c0 12.96-10.506 23.467-23.467 23.467"/><path fill="#09E09C" d="M104.052 88.027c-12.96 0-23.468-10.507-23.468-23.468 0-12.963 10.507-23.47 23.468-23.47s23.468 10.507 23.468 23.47c0 12.96-10.507 23.467-23.468 23.467"/></svg><svg viewBox="-10.67 -10.67 149.33 149.33" width="28" height="28" id="devicon-nodewebkit-original" x="56" y="56" xmlns="http://www.w3.org/2000/svg"><path fill="#3D3B47" d="M64 125.8c-1.2 0-2.3-.3-3.1-.7L12.6 97.3c-1.7-1-3.1-3.5-3.1-5.4V36.1c0-1.9 1.5-4.4 3.1-5.4L60.9 2.9c.8-.5 1.9-.7 3.1-.7 1.2 0 2.3.3 3.1.7l48.2 27.9c1.7 1 3.1 3.5 3.1 5.4v55.7c0 1.9-1.5 4.4-3.1 5.4l-48.2 27.9c-.8.4-1.9.6-3.1.6z"/><path fill="#ccc" d="M64 3.7c.9 0 1.8.2 2.4.5L114.6 32c1.2.7 2.4 2.7 2.4 4.1v55.7c0 1.4-1.2 3.4-2.4 4.1l-48.2 27.9c-.6.3-1.5.5-2.4.5-.9 0-1.8-.2-2.4-.5L13.4 96c-1.2-.7-2.4-2.7-2.4-4.1V36.1c0-1.4 1.2-3.4 2.4-4.1L61.6 4.2c.6-.3 1.5-.5 2.4-.5m0-3c-1.4 0-2.8.3-3.9.9L11.9 29.4C9.8 30.7 8 33.7 8 36.1v55.7c0 2.5 1.7 5.5 3.9 6.7l48.2 27.9c1.1.6 2.5.9 3.9.9s2.8-.3 3.9-.9l48.2-27.9c2.1-1.2 3.9-4.2 3.9-6.7V36.1c0-2.5-1.7-5.5-3.9-6.7L67.9 1.6C66.8 1 65.4.7 64 .7z"/><path fill="#EFF3F3" d="M64 59.7h.3c1.4.1 2.7.9 3.5 2.1.4.7.6 1.6.6 2.5-.2 2.3-2 4-4.3 4h-.3c-1.4-.1-2.7-.9-3.5-2.1-.4-.7-.6-1.6-.6-2.5.1-2.2 2-4 4.3-4m0-.3c-2.4 0-4.4 1.9-4.6 4.3-.1.9.1 1.8.6 2.6.8 1.3 2.1 2.2 3.7 2.3h.3c2.4 0 4.4-1.9 4.6-4.3.1-.9-.2-1.8-.6-2.6-.8-1.3-2.1-2.2-3.7-2.3H64z"/><path fill="#EFF3F3" d="M64.1 62.5c.8.1 1.5.8 1.4 1.6-.1.8-.8 1.5-1.6 1.4-.8-.1-1.5-.8-1.4-1.6 0-.8.8-1.5 1.6-1.4zM64 70.1h-.4c-2-.1-3.9-1.3-4.9-3-.6-1.1-.9-2.3-.8-3.5.1-1.4.7-2.7 1.6-3.7v-.1L20 89.9l45.4-20c-.5.1-.9.2-1.4.2z"/><path fill="#0977F7" d="M62.5 58.1c.6-.1 1.2-.2 1.9-.2 2 .1 3.9 1.3 4.9 3 .6 1.1.9 2.3.8 3.5-.1 1.5-.7 2.8-1.7 3.8l39.9-29.4-45.8 19.3z"/></svg><svg viewBox="-10.67 -10.67 149.33 149.33" width="28" height="28" id="devicon-react-original" x="84" xmlns="http://www.w3.org/2000/svg"><g fill="#61DAFB"><circle cx="64" cy="64" r="11.4"/><path d="M107.3 45.2c-2.2-.8-4.5-1.6-6.9-2.3.6-2.4 1.1-4.8 1.5-7.1 2.1-13.2-.2-22.5-6.6-26.1-1.9-1.1-4-1.6-6.4-1.6-7 0-15.9 5.2-24.9 13.9-9-8.7-17.9-13.9-24.9-13.9-2.4 0-4.5.5-6.4 1.6-6.4 3.7-8.7 13-6.6 26.1.4 2.3.9 4.7 1.5 7.1-2.4.7-4.7 1.4-6.9 2.3C8.2 50 1.4 56.6 1.4 64s6.9 14 19.3 18.8c2.2.8 4.5 1.6 6.9 2.3-.6 2.4-1.1 4.8-1.5 7.1-2.1 13.2.2 22.5 6.6 26.1 1.9 1.1 4 1.6 6.4 1.6 7.1 0 16-5.2 24.9-13.9 9 8.7 17.9 13.9 24.9 13.9 2.4 0 4.5-.5 6.4-1.6 6.4-3.7 8.7-13 6.6-26.1-.4-2.3-.9-4.7-1.5-7.1 2.4-.7 4.7-1.4 6.9-2.3 12.5-4.8 19.3-11.4 19.3-18.8s-6.8-14-19.3-18.8zM92.5 14.7c4.1 2.4 5.5 9.8 3.8 20.3-.3 2.1-.8 4.3-1.4 6.6-5.2-1.2-10.7-2-16.5-2.5-3.4-4.8-6.9-9.1-10.4-13 7.4-7.3 14.9-12.3 21-12.3 1.3 0 2.5.3 3.5.9zM81.3 74c-1.8 3.2-3.9 6.4-6.1 9.6-3.7.3-7.4.4-11.2.4-3.9 0-7.6-.1-11.2-.4-2.2-3.2-4.2-6.4-6-9.6-1.9-3.3-3.7-6.7-5.3-10 1.6-3.3 3.4-6.7 5.3-10 1.8-3.2 3.9-6.4 6.1-9.6 3.7-.3 7.4-.4 11.2-.4 3.9 0 7.6.1 11.2.4 2.2 3.2 4.2 6.4 6 9.6 1.9 3.3 3.7 6.7 5.3 10-1.7 3.3-3.4 6.6-5.3 10zm8.3-3.3c1.5 3.5 2.7 6.9 3.8 10.3-3.4.8-7 1.4-10.8 1.9 1.2-1.9 2.5-3.9 3.6-6 1.2-2.1 2.3-4.2 3.4-6.2zM64 97.8c-2.4-2.6-4.7-5.4-6.9-8.3 2.3.1 4.6.2 6.9.2 2.3 0 4.6-.1 6.9-.2-2.2 2.9-4.5 5.7-6.9 8.3zm-18.6-15c-3.8-.5-7.4-1.1-10.8-1.9 1.1-3.3 2.3-6.8 3.8-10.3 1.1 2 2.2 4.1 3.4 6.1 1.2 2.2 2.4 4.1 3.6 6.1zm-7-25.5c-1.5-3.5-2.7-6.9-3.8-10.3 3.4-.8 7-1.4 10.8-1.9-1.2 1.9-2.5 3.9-3.6 6-1.2 2.1-2.3 4.2-3.4 6.2zM64 30.2c2.4 2.6 4.7 5.4 6.9 8.3-2.3-.1-4.6-.2-6.9-.2-2.3 0-4.6.1-6.9.2 2.2-2.9 4.5-5.7 6.9-8.3zm22.2 21l-3.6-6c3.8.5 7.4 1.1 10.8 1.9-1.1 3.3-2.3 6.8-3.8 10.3-1.1-2.1-2.2-4.2-3.4-6.2zM31.7 35c-1.7-10.5-.3-17.9 3.8-20.3 1-.6 2.2-.9 3.5-.9 6 0 13.5 4.9 21 12.3-3.5 3.8-7 8.2-10.4 13-5.8.5-11.3 1.4-16.5 2.5-.6-2.3-1-4.5-1.4-6.6zM7 64c0-4.7 5.7-9.7 15.7-13.4 2-.8 4.2-1.5 6.4-2.1 1.6 5 3.6 10.3 6 15.6-2.4 5.3-4.5 10.5-6 15.5C15.3 75.6 7 69.6 7 64zm28.5 49.3c-4.1-2.4-5.5-9.8-3.8-20.3.3-2.1.8-4.3 1.4-6.6 5.2 1.2 10.7 2 16.5 2.5 3.4 4.8 6.9 9.1 10.4 13-7.4 7.3-14.9 12.3-21 12.3-1.3 0-2.5-.3-3.5-.9zM96.3 93c1.7 10.5.3 17.9-3.8 20.3-1 .6-2.2.9-3.5.9-6 0-13.5-4.9-21-12.3 3.5-3.8 7-8.2 10.4-13 5.8-.5 11.3-1.4 16.5-2.5.6 2.3 1 4.5 1.4 6.6zm9-15.6c-2 .8-4.2 1.5-6.4 2.1-1.6-5-3.6-10.3-6-15.6 2.4-5.3 4.5-10.5 6-15.5 13.8 4 22.1 10 22.1 15.6 0 4.7-5.8 9.7-15.7 13.4z"/></g></svg><svg viewBox="-10.67 -10.67 149.33 149.33" width="28" height="28" id="devicon-ruby-original-wordmark" x="84" y="28" xmlns="http://www.w3.org/2000/svg"><path d="M30.217 109.422v8.547h-4.724V95.692h6.491c3.026 0 5.266.551 6.719 1.653 1.453 1.103 2.179 2.776 2.179 5.02 0 1.311-.361 2.477-1.083 3.497-.721 1.021-1.742 1.822-3.063 2.401l6.552 9.705h-5.242l-5.317-8.547h-2.512zm0-3.84h1.524c1.492 0 2.595-.25 3.306-.747.71-.498 1.066-1.28 1.066-2.346 0-1.057-.363-1.808-1.089-2.255-.726-.447-1.851-.671-3.375-.671h-1.432v6.019zm27.578 12.387l-.625-2.179h-.244c-.498.793-1.205 1.404-2.118 1.836-.915.432-1.957.647-3.124.647-2.002 0-3.509-.535-4.526-1.607-1.016-1.072-1.524-2.613-1.524-4.624v-11.108h4.648v9.95c0 1.229.218 2.151.656 2.766.436.615 1.131.921 2.086.921 1.301 0 2.24-.435 2.819-1.302.579-.869.869-2.308.869-4.319v-8.015h4.647v17.035h-3.564zm17.918-17.356c2.011 0 3.586.786 4.725 2.355 1.137 1.569 1.706 3.72 1.706 6.453 0 2.813-.587 4.992-1.759 6.535-1.173 1.545-2.771 2.316-4.793 2.316-2 0-3.57-.727-4.708-2.18h-.32l-.776 1.875h-3.551V94.26h4.647v5.516c0 .701-.062 1.823-.184 3.368h.184c1.086-1.686 2.697-2.531 4.829-2.531zm-1.493 3.719c-1.147 0-1.985.353-2.513 1.059-.528.707-.803 1.872-.823 3.498v.502c0 1.829.271 3.139.814 3.932.544.792 1.405 1.188 2.583 1.188.955 0 1.713-.44 2.278-1.318.564-.878.846-2.156.846-3.832 0-1.676-.286-2.934-.854-3.772-.568-.838-1.345-1.257-2.331-1.257zm9.021-3.398h5.088l3.215 9.584c.275.833.463 1.818.564 2.956h.092c.111-1.046.329-2.032.654-2.956l3.154-9.584h4.983l-7.207 19.214c-.661 1.777-1.602 3.108-2.826 3.992-1.225.884-2.654 1.325-4.29 1.325-.803 0-1.59-.086-2.361-.259v-3.687a7.992 7.992 0 001.828.197c.822 0 1.541-.251 2.156-.754.615-.502 1.095-1.261 1.44-2.277l.274-.839-6.764-16.912z"/><linearGradient id="aaka" gradientUnits="userSpaceOnUse" x1="143.917" y1="2125.439" x2="125.854" y2="2157.331" gradientTransform="matrix(1 0 0 -1 -47.5 2221)"><stop offset="0" stop-color="#FB7655"/><stop offset="0" stop-color="#FB7655"/><stop offset=".41" stop-color="#E42B1E"/><stop offset=".99" stop-color="#900"/><stop offset="1" stop-color="#900"/></linearGradient><path fill="url(#aaka)" d="M87.524 58.767L38.638 87.795l63.3-4.294 4.875-63.828z"/><linearGradient id="aakb" gradientUnits="userSpaceOnUse" x1="152.913" y1="2152.229" x2="129.634" y2="2167.85" gradientTransform="matrix(1 0 0 -1 -47.5 2221)"><stop offset="0" stop-color="#871101"/><stop offset="0" stop-color="#871101"/><stop offset=".99" stop-color="#911209"/><stop offset="1" stop-color="#911209"/></linearGradient><path fill="url(#aakb)" d="M102.041 83.457L96.6 45.905l-14.818 19.57z"/><linearGradient id="aakc" gradientUnits="userSpaceOnUse" x1="134.287" y1="2124.472" x2="111.008" y2="2140.093" gradientTransform="matrix(1 0 0 -1 -47.5 2221)"><stop offset="0" stop-color="#871101"/><stop offset="0" stop-color="#871101"/><stop offset=".99" stop-color="#911209"/><stop offset="1" stop-color="#911209"/></linearGradient><path fill="url(#aakc)" d="M102.114 83.457l-39.858-3.129-23.405 7.385z"/><linearGradient id="aakd" gradientUnits="userSpaceOnUse" x1="85.411" y1="2163.54" x2="89.02" y2="2140.086" gradientTransform="matrix(1 0 0 -1 -47.5 2221)"><stop offset="0" stop-color="#fff"/><stop offset="0" stop-color="#fff"/><stop offset=".23" stop-color="#E57252"/><stop offset=".46" stop-color="#DE3B20"/><stop offset=".99" stop-color="#A60003"/><stop offset="1" stop-color="#A60003"/></linearGradient><path fill="url(#aakd)" d="M38.906 87.722l9.957-32.62-21.91 4.686z"/><linearGradient id="aake" gradientUnits="userSpaceOnUse" x1="110.233" y1="2185.439" x2="111.563" y2="2161.502" gradientTransform="matrix(1 0 0 -1 -47.5 2221)"><stop offset="0" stop-color="#fff"/><stop offset="0" stop-color="#fff"/><stop offset=".23" stop-color="#E4714E"/><stop offset=".56" stop-color="#BE1A0D"/><stop offset=".99" stop-color="#A80D00"/><stop offset="1" stop-color="#A80D00"/></linearGradient><path fill="url(#aake)" d="M81.777 65.582l-9.162-35.887-26.219 24.577z"/><linearGradient id="aakf" gradientUnits="userSpaceOnUse" x1="132.261" y1="2207.563" x2="136.242" y2="2190.407" gradientTransform="matrix(1 0 0 -1 -47.5 2221)"><stop offset="0" stop-color="#fff"/><stop offset="0" stop-color="#fff"/><stop offset=".18" stop-color="#E46342"/><stop offset=".4" stop-color="#C82410"/><stop offset=".99" stop-color="#A80D00"/><stop offset="1" stop-color="#A80D00"/></linearGradient><path fill="url(#aakf)" d="M104.734 30.201L79.949 9.958l-6.901 22.313z"/><linearGradient id="aakg" gradientUnits="userSpaceOnUse" x1="120.105" y1="2213.604" x2="137.258" y2="2222.18" gradientTransform="matrix(1 0 0 -1 -47.5 2221)"><stop offset="0" stop-color="#fff"/><stop offset="0" stop-color="#fff"/><stop offset=".54" stop-color="#C81F11"/><stop offset=".99" stop-color="#BF0905"/><stop offset="1" stop-color="#BF0905"/></linearGradient><path fill="url(#aakg)" d="M93.142 2.741l-14.576 8.056-9.197-8.164z"/><linearGradient id="aakh" gradientUnits="userSpaceOnUse" x1="70.375" y1="2169.518" x2="71.787" y2="2155.382" gradientTransform="matrix(1 0 0 -1 -47.5 2221)"><stop offset="0" stop-color="#fff"/><stop offset="0" stop-color="#fff"/><stop offset=".31" stop-color="#DE4024"/><stop offset=".99" stop-color="#BF190B"/><stop offset="1" stop-color="#BF190B"/></linearGradient><path fill="url(#aakh)" d="M21.188 70.73l6.107-11.137-4.941-13.267z"/><path fill="#fff" d="M22.026 45.905l4.97 14.098 21.595-4.845 24.655-22.913 6.958-22.1-10.955-7.737-18.627 6.971c-5.868 5.458-17.256 16.258-17.667 16.461-.406.208-7.519 13.653-10.929 20.065z"/><linearGradient id="aaki" gradientUnits="userSpaceOnUse" x1="60.669" y1="2151.563" x2="127.036" y2="2219.806" gradientTransform="matrix(1 0 0 -1 -47.5 2221)"><stop offset="0" stop-color="#BD0012"/><stop offset="0" stop-color="#BD0012"/><stop offset=".07" stop-color="#fff"/><stop offset=".17" stop-color="#fff"/><stop offset=".27" stop-color="#C82F1C"/><stop offset=".33" stop-color="#820C01"/><stop offset=".46" stop-color="#A31601"/><stop offset=".72" stop-color="#B31301"/><stop offset=".99" stop-color="#E82609"/><stop offset="1" stop-color="#E82609"/></linearGradient><path fill="url(#aaki)" d="M39.477 20.581C52.196 7.97 68.592.52 74.884 6.869c6.289 6.348-.38 21.776-13.099 34.382C49.067 53.858 32.873 61.719 26.586 55.37c-6.294-6.344.173-22.183 12.891-34.789z"/><linearGradient id="aakj" gradientUnits="userSpaceOnUse" x1="111.505" y1="2144.677" x2="91.514" y2="2149.611" gradientTransform="matrix(1 0 0 -1 -47.5 2221)"><stop offset="0" stop-color="#8C0C01"/><stop offset="0" stop-color="#8C0C01"/><stop offset=".54" stop-color="#990C00"/><stop offset=".99" stop-color="#A80D0E"/><stop offset="1" stop-color="#A80D0E"/></linearGradient><path fill="url(#aakj)" d="M38.906 87.709l9.879-32.724 32.811 10.541c-11.864 11.125-25.058 20.528-42.69 22.183z"/><linearGradient id="aakk" gradientUnits="userSpaceOnUse" x1="145.839" y1="2168.67" x2="128.08" y2="2184.586" gradientTransform="matrix(1 0 0 -1 -47.5 2221)"><stop offset="0" stop-color="#7E110B"/><stop offset="0" stop-color="#7E110B"/><stop offset=".99" stop-color="#9E0C00"/><stop offset="1" stop-color="#9E0C00"/></linearGradient><path fill="url(#aakk)" d="M73.289 32.181l8.423 33.363c9.91-10.419 18.804-21.621 23.159-35.476l-31.582 2.113z"/><linearGradient id="aakl" gradientUnits="userSpaceOnUse" x1="152.364" y1="2197.874" x2="143.518" y2="2207.331" gradientTransform="matrix(1 0 0 -1 -47.5 2221)"><stop offset="0" stop-color="#79130D"/><stop offset="0" stop-color="#79130D"/><stop offset=".99" stop-color="#9E120B"/><stop offset="1" stop-color="#9E120B"/></linearGradient><path fill="url(#aakl)" d="M104.785 30.236c3.371-10.174 4.148-24.768-11.746-27.477L79.996 9.963l24.789 20.273z"/><path fill="#9E1209" d="M21.188 70.583c.467 16.789 12.581 17.04 17.741 17.188l-11.92-27.837-5.821 10.649z"/><radialGradient id="aakm" cx="130.847" cy="2184.281" r="21.762" gradientTransform="matrix(1 0 0 -1 -47.5 2221)" gradientUnits="userSpaceOnUse"><stop offset="0" stop-color="#A80D00"/><stop offset="0" stop-color="#A80D00"/><stop offset=".99" stop-color="#7E0E08"/><stop offset="1" stop-color="#7E0E08"/></radialGradient><path fill="url(#aakm)" d="M73.337 32.232c7.615 4.68 22.96 14.08 23.271 14.253.484.272 6.617-10.342 8.008-16.34l-31.279 2.087z"/><radialGradient id="aakn" cx="100.707" cy="2155.602" r="28.932" gradientTransform="matrix(1 0 0 -1 -47.5 2221)" gradientUnits="userSpaceOnUse"><stop offset="0" stop-color="#A30C00"/><stop offset="0" stop-color="#A30C00"/><stop offset=".99" stop-color="#800E08"/><stop offset="1" stop-color="#800E08"/></radialGradient><path fill="url(#aakn)" d="M48.772 54.986l13.207 25.48c7.81-4.235 13.924-9.395 19.526-14.922L48.772 54.986z"/><linearGradient id="aako" gradientUnits="userSpaceOnUse" x1="80.214" y1="2133.309" x2="73.005" y2="2157.766" gradientTransform="matrix(1 0 0 -1 -47.5 2221)"><stop offset="0" stop-color="#8B2114"/><stop offset="0" stop-color="#8B2114"/><stop offset=".43" stop-color="#9E100A"/><stop offset=".99" stop-color="#B3100C"/><stop offset="1" stop-color="#B3100C"/></linearGradient><path fill="url(#aako)" d="M26.957 59.969l-1.872 22.282c3.532 4.823 8.389 5.241 13.485 4.866-3.687-9.175-11.051-27.521-11.613-27.148z"/><linearGradient id="aakp" gradientUnits="userSpaceOnUse" x1="135.518" y1="2214.356" x2="151.68" y2="2207.222" gradientTransform="matrix(1 0 0 -1 -47.5 2221)"><stop offset="0" stop-color="#B31000"/><stop offset="0" stop-color="#B31000"/><stop offset=".44" stop-color="#910F08"/><stop offset=".99" stop-color="#791C12"/><stop offset="1" stop-color="#791C12"/></linearGradient><path fill="url(#aakp)" d="M79.919 10.02l26.237 3.683c-1.401-5.935-5.701-9.763-13.03-10.961L79.919 10.02z"/></svg><svg id="devicon-rubymine-original" data-name="ruby mine" viewBox="-10.67 -10.67 149.33 149.33" width="28" height="28" x="84" y="56" xmlns="http://www.w3.org/2000/svg"><defs><style>.aalcls-1{fill:#c12c4c}.aalcls-2{fill:#fa930d}</style></defs><g id="aaloriginal"><path class="aalcls-1" d="M122.19 97.45c-1.28-2-13.17-18.24-14.14-20.19l-.35-.69.64-.46a38.51 38.51 0 0016.33-31.41v-1.06c0-8.69-3-17-8.34-22.77-6.2-6.76-15.11-10.73-25.33-11.47v25.14c5.37 1.54 9 6.52 9 13 0 7.4-5.73 11.34-10.54 14.19l-1.91 1.16a13.63 13.63 0 00-6.49 11.89 20.74 20.74 0 001.85 8.27l1.7 2.95 17.44 25 .28.43 2.35 3.42a10.44 10.44 0 006 3.88 12.94 12.94 0 0010-1.79 10.83 10.83 0 004.91-7.37l.21-2.08a18.65 18.65 0 00-3.61-10.04z"/><path class="aalcls-2" d="M85.39 9.14A37.23 37.23 0 0076.28 11c-.26.09-.51.21-.77.3-.89.32-1.76.65-2.62 1-.33.15-.65.33-1 .49-.85.42-1.72.8-2.54 1.28a36.86 36.86 0 00-5.76 4.14A37 37 0 002.15 46a.61.61 0 000 .12v70.78h25.19V46.15a.78.78 0 010-.12A11.82 11.82 0 0151 45.92V46a.63.63 0 000 .12v70.78h25.2V46.14v-.08-.1a8.8 8.8 0 01.1-.92v-.64a11.75 11.75 0 019.06-9.85V9.14z"/></g></svg><svg viewBox="-10.67 -10.67 149.33 149.33" width="28" height="28" id="devicon-safari-plain" y="84" xmlns="http://www.w3.org/2000/svg"><path fill="#1B88CA" d="M64 1.5C29.5 1.5 1.5 29.5 1.5 64s28 62.5 62.5 62.5 62.5-28 62.5-62.5S98.5 1.5 64 1.5zm56 57.9l-5 .4-.1-1 5-.4.1 1zm0 3.6v1h-9v-1h9zm-.6-8.4l-9.1 1.6-.2-1 9.1-1.6.2 1zm-1-4.8l-4.9 1.3-.3-1 4.9-1.3.3 1zm-1.4-4.7l-8.6 3.2-.3-.9 8.6-3.2.3.9zm-1.8-4.6l-4.5 2.1-.4-.9 4.5-2.1.4.9zm-2.3-4.3l-8 4.6-.5-.9 8-4.6.5.9zm-3.1-5l.6.8-4.1 2.9-.6-.8 4.1-2.9zm-2.4-3.1l-7.1 5.9-.6-.8 7.1-5.9.6.8zm-6.9-7l-5.9 7.1-.8-.6 5.9-7.1.8.6zm-4.7-3.6l.8.6-2.9 4.1-.8-.6 2.9-4.1zm-3.2-2.1l-4.6 8-.9-.5 4.6-8 .9.5zm-5.3-2.7l.9.4-2.1 4.5-.9-.4 2.1-4.5zm-4.5-1.8l.9.3-3.2 8.6-.9-.3 3.2-8.6zm-4.7-1.5l1 .3-1.3 4.9-1-.3 1.3-4.9zm-4.8-1l1 .2-1.6 9.1-1-.2 1.6-9.1zm-4.9-.6l1 .1-.4 5-1-.1.4-5zM63 8h1v9h-1V8zm-3.4-.2l.4 5-1 .1-.4-5 1-.1zm-4.9.6l1.6 9.1-1 .2-1.6-9.1 1-.2zm-4.8 1l1.3 4.9-1 .3L49 9.7l.9-.3zm-4.7 1.5l3.2 8.6-.9.3-3.2-8.6.9-.3zm-4.5 1.8l2.1 4.5-.9.4-2.1-4.5.9-.4zm-4.4 2.2l4.6 8-.9.5-4.6-8 .9-.5zm-4.1 2.6l2.9 4.1-.8.6-2.9-4.1.8-.6zm-3.9 3l5.9 7.1-.8.6-5.9-7.1.8-.6zm-3.7 3.2l3.5 3.5-.7.8-3.5-3.5.7-.8zm-3.4 3.6l7.1 5.9-.6.8-7.1-5.9.6-.8zm-3 3.9l4.1 2.9-.6.8-4.1-2.9.6-.8zm-2.6 4.1l8 4.6-.6.9-8-4.6.6-.9zm-2.3 4.3l4.5 2.1-.4.9-4.5-2.1.4-.9zm-1.9 4.6l8.6 3.2-.3.9-8.7-3.2.4-.9zm-1.6 4.6l4.9 1.3-.3 1-4.9-1.3.3-1zm-1.1 4.8l9.1 1.6-.2 1-9.1-1.6.2-1zM8 58.5l5 .4-.1 1-5-.4.1-1zm9 4.5v1H8v-1h9zm-9 5.3l5-.4.1 1-5 .4-.1-1zm.6 4.8l9.1-1.6.2 1-9.1 1.6-.2-1zm1 4.8l4.9-1.3.3 1-4.9 1.3-.3-1zm1.4 4.7l8.6-3.2.3.9-8.6 3.2-.3-.9zm1.8 4.6l4.5-2.1.4.9-4.5 2.1-.4-.9zm2.3 4.4l8-4.6.5.9-8 4.6-.5-.9zm3.1 4.9l-.6-.8 4.1-2.9.6.8-4.1 2.9zm9.5-2.8l.6.8-7.1 5.9-.6-.8 7.1-5.9zm-.2 12.9l5.9-7.1.8.6-5.9 7.1-.8-.6zm4.7 3.6l-.8-.6 2.9-4.1.8.6-2.9 4.1zm3.2 2.1l4.6-8 .9.5-4.6 8-.9-.5zm5.3 2.7l-.9-.4 2.1-4.5.9.4-2.1 4.5zm4.5 1.9l-.9-.3 3.2-8.6.9.3-3.2 8.6zm4.7 1.4l-1-.3 1.3-4.9 1 .3-1.3 4.9zm4.8 1l-1-.2 1.6-9.1 1 .2-1.6 9.1zm4.9.6l-1-.1.4-5 1 .1-.4 5zm4.4.1h-1v-9h1v9zm4.4-.1l-.4-5 1-.1.4 5-1 .1zM21 106.7l37.7-48 48-37.7-36.8 48.9L21 106.7zm52.3 12.6l-1.6-9.1 1-.2 1.6 9.1-1 .2zm4.8-1l-1.3-4.9 1-.3L79 118l-.9.3zm4.7-1.4l-3.2-8.6.9-.3 3.2 8.6-.9.3zm4.5-1.9l-2.1-4.5.9-.4 2.1 4.5-.9.4zm4.4-2.2l-4.6-8 .9-.5 4.6 8-.9.5zm4.1-2.6l-2.9-4.1.8-.6 2.9 4.1-.8.6zm3.9-2.9l-5.9-7.1.8-.6 5.9 7.1-.8.6zm3.7-3.3l-3.5-3.5.7-.7 3.5 3.5-.7.7zm3.4-3.6l-7.1-5.9.6-.8 7.1 5.9-.6.8zm3-3.9l-4.1-2.9.6-.8 4.1 2.9-.6.8zm2.6-4.1l-8-4.6.5-.9 8 4.6-.5.9zm2.3-4.3l-4.5-2.1.4-.9 4.5 2.1-.4.9zm1.9-4.5l-8.6-3.2.3-.9 8.6 3.2-.3.9zm1.6-4.7l-4.9-1.3.3-1 4.9 1.3-.3 1zm1.1-4.8l-9.1-1.6.2-1 9.1 1.6-.2 1zm.7-4.8l-5-.4.1-1 5 .4-.1 1z"/></svg><svg viewBox="-10.67 -10.67 149.33 149.33" width="28" height="28" id="devicon-sourcetree-original" x="28" y="84" xmlns="http://www.w3.org/2000/svg"><path fill="#205081" d="M64 .73C29.114.73.73 29.113.73 64S29.114 127.27 64 127.27c34.888 0 63.27-28.384 63.27-63.27S98.887.73 64 .73zm3.335 120.17v-10.988l27.44-13.9a1.955 1.955 0 001.073-1.747v-6.29a5.98 5.98 0 003.99-6.258 5.978 5.978 0 10-11.892 1.225 5.97 5.97 0 003.99 5.03v5.09l-24.6 12.46v-10.22l10.843-5.017a1.957 1.957 0 001.135-1.773l.02-17.026 20.07-11.276c.617-.346 1-1 1-1.706V53.76a5.974 5.974 0 00-2.57-11.59 5.975 5.975 0 00-1.344 11.59v3.606l-20.07 11.27c-.617.35-1 1-1 1.706l-.02 16.92-8.068 3.73V54.2l16.884-8.257a1.95 1.95 0 001.097-1.755v-6.29a5.978 5.978 0 003.99-6.26 5.976 5.976 0 00-6.56-5.33 5.975 5.975 0 00-5.332 6.56 5.964 5.964 0 003.99 5.027v5.07l-14.068 6.877V28.598a5.977 5.977 0 10-7.902-5.03 5.97 5.97 0 003.988 5.028V63.24l-9.943-5.224V42.28a1.95 1.95 0 00-.767-1.552l-6.802-5.21a5.978 5.978 0 10-2.61 2.928l6.265 4.802V59.2c0 .728.404 1.395 1.048 1.733l12.81 6.73v12.724l-21.37-9.884.292-7.742a1.956 1.956 0 00-1.063-1.815l-9.797-5.025c.147-.63.2-1.292.13-1.97a5.978 5.978 0 00-11.892 1.227 5.977 5.977 0 006.56 5.33 5.91 5.91 0 003.1-1.268l9.004 4.616-.295 7.8c-.03.79.417 1.52 1.133 1.85L63.42 84.7v9.084a1.98 1.98 0 000 .516v26.693a57.53 57.53 0 01-6.093-.387V97.66c0-.766-.445-1.46-1.14-1.778l-15.182-6.987a5.974 5.974 0 00-6.563-6.527 5.976 5.976 0 104.924 10.08l14.047 6.463v21.092C27.022 115.028 6.992 91.815 6.992 64c0-31.434 25.574-57.01 57.01-57.01 31.433 0 57.006 25.576 57.006 57.01 0 30.315-23.787 55.17-53.674 56.902z"/></svg><svg height="28" width="28" viewBox="-10.67 -10.67 149.33 149.33" id="devicon-tomcat-original" x="56" y="84" xmlns="http://www.w3.org/2000/svg"><path fill="#d1a41a" d="M22.148 78.306a80.73 80.73 0 004.857 5.446c-5.186 1.56-8.586 4.458-10.706 7.017-3.356 4.05-5.132 9.398-4.723 13.988h-8.93c1.79-3.887 8.94-15.115 19.503-26.45zm103.45 28.886M125.597 107.192H114.74c-24.91-12.999-46.78-22.165-70.012-24.167.049-3.233.624-6.893 1.731-10.972l-2.14-.576c-1.136 4.192-1.732 7.985-1.8 11.38-2.421-.162-4.857-.24-7.317-.24-2.081 0-3.98.191-5.712.526-2.258-2.254-4.182-4.408-5.815-6.45C34.389 65.534 52.038 55.438 67.398 51.64c4.325 14.376 13.609 24.226 24.876 30.853a47.543 47.543 0 002.435-1.485l19.656 21.16.86-.073c5.368-.462 8.419 2.45 9.226 3.356.595.659.95 1.264 1.146 1.741z"/><path fill="#ffdc76" d="M116.008 36.412c.399 19.528-9.564 35.07-23.513 43.04C68.82 67.66 64.362 37.776 68.397 21.747c1.122 6.13 3.164 9.973 7.572 11.857 9.614-2.75 22.844-2.967 32.59-.28 4.06-2.952 5.634-7.464 6.495-11.405 1.072 4.585.95 14.494.954 14.494z"/><path d="M49.096 58.246l7.36-3.345 3.611 10.702zM41.604 62.126l4.284-2.542 3.877 6.688zM33.309 67.61l3.746-2.81 1.873 6.692zM99.536 85.273l-2.677-2.543-3.478 5.353zM104.49 91.158l-2.145-2.274-5.618 4.28zM95.526 30.684l-6.824.134 4.148 9.098zM68.362 47.943l-.669-3.88 6.559 3.479zM69.966 53.696l-.669-2.541 4.015 1.605zM115.191 49.55l.94-2.944-5.353 2.274zM113.184 55.57l.802-2.408-4.148 1.204z"/><g><path d="M65.538 63.203h12.913v1.594H65.538zM65.538 59.377h12.913v1.594H65.538zM104.968 63.203h12.912v1.594h-12.912zM104.968 59.377h12.912v1.594h-12.912zM100.417 49.926H79.374V48.49h6.548c.807-3.453.966-6.753-.006-8.426-.416-.71-.99-1.043-1.808-1.043-3.744 0-5.29 3.959-5.355 4.127l.001-.001-1.343-.504c.077-.207 1.95-5.057 6.697-5.057 1.325 0 2.378.608 3.046 1.757 1.186 2.037 1.047 5.562.243 9.147h11.49c1.527-4.485 4.714-6.6 10.04-6.6v1.435c-5.772 0-7.39 2.447-8.544 5.165h6.27l-.015 1.428-6.222.007zm.944 7.085l.01-.001m-.01.001l.01-.001"/><path d="M101.361 57.011l.01-.001c-1.702-2.51-2.242-4.652-1.53-7.091l-1.462.007c-.509 1.624-.305 4.07.95 6.17h-14.6c.888-1.78 1.711-3.949 2.313-6.17h-1.486c-.664 2.355-1.595 4.686-2.644 6.532l-.339.597 8.193 5.157-4.612 3.04.79 1.198 5.155-3.399 5.566 3.632.764-1.214-5.16-3.192s7.716-5.012 8.099-5.257c-.003-.003-.004-.006-.006-.01zm-9.279 4.334l-6.06-3.815 11.843.003-5.783 3.812z"/></g><g><path d="M118.414 34.682c-.009-2.495-.786-13.038-2.214-15.941-3.872 1.471-10.917 6.239-12.512 11.113-7.642-1.14-16.257-1.006-23.804.3-1.26-5.245-7.588-9.258-12.362-11.52-2.014 3.398-2.906 11.277-2.68 16.866l-.026.018c.886 23.468 12.399 38.08 27.453 46.936 15.49-8.85 26.555-26.104 26.126-47.783l.02.01zm-12.888-4.525l.169.031-.17-.03zm-.964-.166c.136.022.273.046.409.07l-.409-.07zm11.443 6.384c.398 19.528-9.565 35.07-23.513 43.04C68.818 67.62 64.358 37.739 68.395 21.71c1.123 6.127 3.16 9.971 7.574 11.856 9.61-2.75 22.84-2.967 32.586-.28 4.061-2.953 5.636-7.463 6.496-11.404 1.075 4.586.95 14.492.954 14.494zm10.1 67.56"/><path d="M126.104 103.935c-2.431-2.72-7.194-4.007-11.172-3.912-2.823-3.36-19.19-20.596-19.19-20.596l-1.134 1.429 19.76 21.273.857-.074c5.369-.46 8.42 2.452 9.229 3.355.592.663.95 1.267 1.144 1.742h-10.86c-24.911-13-46.78-22.165-70.013-24.163.05-3.233.626-6.893 1.73-10.97l-2.136-.58c-1.135 4.192-1.734 7.988-1.801 11.382-2.42-.16-4.857-.244-7.315-.244-2.085 0-3.983.194-5.714.53-2.259-2.257-4.182-4.408-5.817-6.45 10.79-11.241 28.61-21.402 44.048-25.138l-.501-2.163c-16.625 4.01-34.823 14.923-44.963 25.467-4.706-6.352-6.573-11.564-7.128-15.514-.7-4.989.49-9.565 3.444-13.235 4.623-5.743 11.192-6.148 17.946-5.012-.131 1.067.009 2.087.436 2.717 1.786 2.639 11.387 3.566 17.117 1.009-4.229-5.926-12.795-8.82-15.168-7.66-.786.384-1.38 1.09-1.786 1.912-2.335-.418-4.654-.729-6.348-.716-5.957.044-10.511 2.125-13.922 6.363-3.347 4.157-4.7 9.32-3.912 14.93.746 5.314 3.377 10.966 7.786 16.826-.732.786-1.44 1.562-2.122 2.324C7.853 90.792-.003 103.687-.003 105.824v1.107h14.177l-.248-1.313c-.8-4.232.798-9.52 4.073-13.474 2.057-2.481 5.462-5.314 10.809-6.62 4.754 4.64 10.812 9.567 17.554 14.321h10.536v-1.107c0-1.249-.62-2.342-1.744-3.078-1.665-1.088-4.234-1.238-6.594-.433-2.25-2.506-3.512-5.853-3.784-10.011 22.865 2.024 44.736 11.258 69.412 24.15h13.578l.178-.89c.254-1.267-.437-2.965-1.846-4.541zM16.3 90.729c-3.354 4.048-5.132 9.395-4.724 13.985H2.643c1.795-3.883 8.943-15.11 19.505-26.45a80.408 80.408 0 004.858 5.448c-5.186 1.559-8.586 4.457-10.707 7.017z"/></g></svg><svg viewBox="-10.67 -10.67 149.33 149.33" width="28" height="28" id="devicon-woocommerce-original" x="84" y="84" xmlns="http://www.w3.org/2000/svg"><style>.aapst0{fill:#7f54b3}.aapst1{fill:#fff}</style><path class="aapst0" d="M116.3 89.1H11.7C5.2 89.1 0 83.9 0 77.4v-40C0 31 5.2 25.8 11.7 25.8h104.7c6.4 0 11.7 5.2 11.7 11.7v40c-.1 6.4-5.3 11.6-11.8 11.6z"/><path class="aapst1" d="M13.8 76.7s2.8 11.8 8.5 3.9 11.2-20.3 11.2-20.3.4-3.1 2 3.7S44 80 44 80s6.3 7.9 8.9-.4c-1-11 2.8-31 6.7-40.6 1.6-8.5-7.3-6.1-8.1-4.1s-6.3 14.8-6.7 28.2c0 0-4.7-12.8-5.1-17.4-.4-4.7-5.3-5.9-8.1-1.4S20.3 66.2 20.3 66.2l-5.5-28.4s-5.5-7.3-8.7 1.6c0 0 5.7 34.9 7.7 37.3zM87 45.7c-8.5-14.2-21.1-3.4-21.1-3.4s-9.6 11.1-5.3 26.2c6.9 14.9 16.6 8.3 19.2 7.1 2.7-1.3 14.1-14.3 7.2-29.9zm-6.5 12.5c0 5.9-4.9 11.4-8.9 10.2-2.2-1.3-3.6-4.8-3.6-10.8 2-9.7 6.4-11 8.7-10.8 4.3 2.3 4.1 7.4 3.8 11.4zM118.9 45.7c-8.5-14.2-21.1-3.4-21.1-3.4s-9.6 11.1-5.3 26.2c6.9 14.9 16.6 8.3 19.2 7.1 2.6-1.3 14.1-14.3 7.2-29.9zm-6.5 12.5c0 5.9-4.9 11.4-8.9 10.2-2.2-1.3-3.6-4.8-3.6-10.8 2-9.7 6.4-11 8.7-10.8 4.2 2.3 4 7.4 3.8 11.4z"/><path class="aapst0" d="M61.3 89.1l22.3 13.1-4.7-13.1-12.8-3.6z"/></svg></svg>