<?xml version="1.0" encoding="utf-8"?><svg width="112" height="112" viewBox="0 0 112 112" xmlns="http://www.w3.org/2000/svg" xmlns:xlink="http://www.w3.org/1999/xlink"><svg viewBox="-4.17 -4.17 58.33 58.33" width="28" height="28" id="evil-icons-ei-arrow-right" xmlns="http://www.w3.org/2000/svg"><path d="M25 42c-9.4 0-17-7.6-17-17S15.6 8 25 8s17 7.6 17 17-7.6 17-17 17zm0-32c-8.3 0-15 6.7-15 15s6.7 15 15 15 15-6.7 15-15-6.7-15-15-15z"/><path d="M24.7 34.7l-1.4-1.4 8.3-8.3-8.3-8.3 1.4-1.4 9.7 9.7z"/><path d="M16 24h17v2H16z"/></svg><svg viewBox="-4.17 -4.17 58.33 58.33" width="28" height="28" id="evil-icons-ei-chevron-up" x="28" xmlns="http://www.w3.org/2000/svg"><path d="M33.3 28.7L25 20.4l-8.3 8.3-1.4-1.4 9.7-9.7 9.7 9.7z"/></svg><svg viewBox="-4.17 -4.17 58.33 58.33" width="28" height="28" id="evil-icons-ei-envelope" y="28" xmlns="http://www.w3.org/2000/svg"><path opacity=".9" d="M31.796 24.244l9.97 9.97-1.415 1.414-9.97-9.97zM18.278 24.287l1.414 1.414-9.9 9.9-1.414-1.41z"/><path d="M25 29.9c-1.5 0-3.1-.6-4.2-1.8L8.3 15.7l1.4-1.4 12.5 12.5c1.6 1.6 4.1 1.6 5.7 0l12.5-12.5 1.4 1.4-12.6 12.5c-1.1 1.1-2.7 1.7-4.2 1.7z"/><path d="M39 38H11c-1.7 0-3-1.3-3-3V15c0-1.7 1.3-3 3-3h28c1.7 0 3 1.3 3 3v20c0 1.7-1.3 3-3 3zM11 14c-.6 0-1 .4-1 1v20c0 .6.4 1 1 1h28c.6 0 1-.4 1-1V15c0-.6-.4-1-1-1H11z"/></svg><svg viewBox="-4.17 -4.17 58.33 58.33" width="28" height="28" id="evil-icons-ei-external-link" x="28" y="28" xmlns="http://www.w3.org/2000/svg"><path d="M38.288 10.297l1.414 1.415-14.99 14.99-1.414-1.414z"/><path d="M40 20h-2v-8h-8v-2h10zM35 38H15c-1.7 0-3-1.3-3-3V15c0-1.7 1.3-3 3-3h11v2H15c-.6 0-1 .4-1 1v20c0 .6.4 1 1 1h20c.6 0 1-.4 1-1V24h2v11c0 1.7-1.3 3-3 3z"/></svg><svg viewBox="-4.17 -4.17 58.33 58.33" width="28" height="28" id="evil-icons-ei-eye" x="56" xmlns="http://www.w3.org/2000/svg"><path d="M25 36C13.5 36 8.3 25.9 8.1 25.4c-.1-.3-.1-.6 0-.9C8.3 24.1 13.5 14 25 14s16.7 10.1 16.9 10.6c.1.3.1.6 0 .9-.2.4-5.4 10.5-16.9 10.5zM10.1 25c1.1 1.9 5.9 9 14.9 9s13.7-7.1 14.9-9c-1.1-1.9-5.9-9-14.9-9s-13.7 7.1-14.9 9z"/><path d="M25 34c-5 0-9-4-9-9s4-9 9-9 9 4 9 9-4 9-9 9zm0-16c-3.9 0-7 3.1-7 7s3.1 7 7 7 7-3.1 7-7-3.1-7-7-7z"/><path d="M25 30c-2.8 0-5-2.2-5-5 0-.6.4-1 1-1s1 .4 1 1c0 1.7 1.3 3 3 3s3-1.3 3-3-1.3-3-3-3c-.6 0-1-.4-1-1s.4-1 1-1c2.8 0 5 2.2 5 5s-2.2 5-5 5z"/></svg><svg viewBox="-4.17 -4.17 58.33 58.33" width="28" height="28" id="evil-icons-ei-gear" x="56" y="28" xmlns="http://www.w3.org/2000/svg"><path d="M25 34c-5 0-9-4-9-9s4-9 9-9 9 4 9 9-4 9-9 9zm0-16c-3.9 0-7 3.1-7 7s3.1 7 7 7 7-3.1 7-7-3.1-7-7-7z"/><path d="M27.7 44h-5.4l-1.5-4.6c-1-.3-2-.7-2.9-1.2l-4.4 2.2-3.8-3.8 2.2-4.4c-.5-.9-.9-1.9-1.2-2.9L6 27.7v-5.4l4.6-1.5c.3-1 .7-2 1.2-2.9l-2.2-4.4 3.8-3.8 4.4 2.2c.9-.5 1.9-.9 2.9-1.2L22.3 6h5.4l1.5 4.6c1 .3 2 .7 2.9 1.2l4.4-2.2 3.8 3.8-2.2 4.4c.5.9.9 1.9 1.2 2.9l4.6 1.5v5.4l-4.6 1.5c-.3 1-.7 2-1.2 2.9l2.2 4.4-3.8 3.8-4.4-2.2c-.9.5-1.9.9-2.9 1.2L27.7 44zm-4-2h2.6l1.4-4.3.5-.1c1.2-.3 2.3-.8 3.4-1.4l.5-.3 4 2 1.8-1.8-2-4 .3-.5c.6-1 1.1-2.2 1.4-3.4l.1-.5 4.3-1.4v-2.6l-4.3-1.4-.1-.5c-.3-1.2-.8-2.3-1.4-3.4l-.3-.5 2-4-1.8-1.8-4 2-.5-.3c-1.1-.6-2.2-1.1-3.4-1.4l-.5-.1L26.3 8h-2.6l-1.4 4.3-.5.1c-1.2.3-2.3.8-3.4 1.4l-.5.3-4-2-1.8 1.8 2 4-.3.5c-.6 1-1.1 2.2-1.4 3.4l-.1.5L8 23.7v2.6l4.3 1.4.1.5c.3 1.2.8 2.3 1.4 3.4l.3.5-2 4 1.8 1.8 4-2 .5.3c1.1.6 2.2 1.1 3.4 1.4l.5.1 1.4 4.3z"/></svg><svg viewBox="-4.17 -4.17 58.33 58.33" width="28" height="28" id="evil-icons-ei-heart" y="56" xmlns="http://www.w3.org/2000/svg"><path d="M25 39.7l-.6-.5C11.5 28.7 8 25 8 19c0-5 4-9 9-9 4.1 0 6.4 2.3 8 4.1 1.6-1.8 3.9-4.1 8-4.1 5 0 9 4 9 9 0 6-3.5 9.7-16.4 20.2l-.6.5zM17 12c-3.9 0-7 3.1-7 7 0 5.1 3.2 8.5 15 18.1 11.8-9.6 15-13 15-18.1 0-3.9-3.1-7-7-7-3.5 0-5.4 2.1-6.9 3.8L25 17.1l-1.1-1.3C22.4 14.1 20.5 12 17 12z"/></svg><svg viewBox="-4.17 -4.17 58.33 58.33" width="28" height="28" id="evil-icons-ei-image" x="28" y="56" xmlns="http://www.w3.org/2000/svg"><path d="M39 38H11c-1.7 0-3-1.3-3-3V15c0-1.7 1.3-3 3-3h28c1.7 0 3 1.3 3 3v20c0 1.7-1.3 3-3 3zM11 14c-.6 0-1 .4-1 1v20c0 .6.4 1 1 1h28c.6 0 1-.4 1-1V15c0-.6-.4-1-1-1H11z"/><path d="M30 24c-2.2 0-4-1.8-4-4s1.8-4 4-4 4 1.8 4 4-1.8 4-4 4zm0-6c-1.1 0-2 .9-2 2s.9 2 2 2 2-.9 2-2-.9-2-2-2zM35.3 37.7L19 22.4 9.7 31l-1.4-1.4 10.7-10 17.7 16.7z"/><path d="M40.4 32.7L35 28.3 30.5 32l-1.3-1.6 5.8-4.7 6.6 5.4z"/></svg><svg viewBox="-4.17 -4.17 58.33 58.33" width="28" height="28" id="evil-icons-ei-location" x="56" y="56" xmlns="http://www.w3.org/2000/svg"><path d="M25 42.5l-.8-.9C23.7 41.1 12 27.3 12 19c0-7.2 5.8-13 13-13s13 5.8 13 13c0 8.3-11.7 22.1-12.2 22.7l-.8.8zM25 8c-6.1 0-11 4.9-11 11 0 6.4 8.4 17.2 11 20.4 2.6-3.2 11-14 11-20.4 0-6.1-4.9-11-11-11z"/><path d="M25 24c-2.8 0-5-2.2-5-5s2.2-5 5-5 5 2.2 5 5-2.2 5-5 5zm0-8c-1.7 0-3 1.3-3 3s1.3 3 3 3 3-1.3 3-3-1.3-3-3-3z"/></svg><svg viewBox="-4.17 -4.17 58.33 58.33" width="28" height="28" id="evil-icons-ei-lock" x="84" xmlns="http://www.w3.org/2000/svg"><path d="M34 23h-2v-4c0-3.9-3.1-7-7-7s-7 3.1-7 7v4h-2v-4c0-5 4-9 9-9s9 4 9 9v4z"/><path d="M33 40H17c-1.7 0-3-1.3-3-3V25c0-1.7 1.3-3 3-3h16c1.7 0 3 1.3 3 3v12c0 1.7-1.3 3-3 3zM17 24c-.6 0-1 .4-1 1v12c0 .6.4 1 1 1h16c.6 0 1-.4 1-1V25c0-.6-.4-1-1-1H17z"/><circle cx="25" cy="28" r="2"/><path d="M25.5 28h-1l-1 6h3z"/></svg><svg viewBox="-4.17 -4.17 58.33 58.33" width="28" height="28" id="evil-icons-ei-minus" x="84" y="28" xmlns="http://www.w3.org/2000/svg"><path d="M25 42c-9.4 0-17-7.6-17-17S15.6 8 25 8s17 7.6 17 17-7.6 17-17 17zm0-32c-8.3 0-15 6.7-15 15s6.7 15 15 15 15-6.7 15-15-6.7-15-15-15z"/><path d="M16 24h18v2H16z"/></svg><svg viewBox="-4.17 -4.17 58.33 58.33" width="28" height="28" id="evil-icons-ei-redo" x="84" y="56" xmlns="http://www.w3.org/2000/svg"><path d="M25 38c-7.2 0-13-5.8-13-13s5.8-13 13-13c5.4 0 10.1 3.4 11.9 8.7l-1.9.7c-1.5-4.6-5.4-7.4-10-7.4-6.1 0-11 4.9-11 11s4.9 11 11 11c4.3 0 8.2-2.5 10-6.4l1.8.8C34.7 35 30.1 38 25 38z"/><path d="M38 22h-8v-2h6v-6h2z"/></svg><svg viewBox="-4.17 -4.17 58.33 58.33" width="28" height="28" id="evil-icons-ei-sc-linkedin" y="84" xmlns="http://www.w3.org/2000/svg"><path fill="#231F20" d="M36.1 12H13.9c-1.1 0-1.9.8-1.9 1.9v22.2c0 1 .9 1.9 1.9 1.9h22.2c1.1 0 1.9-.8 1.9-1.9V13.9c0-1.1-.9-1.9-1.9-1.9zM20 34h-4V22h4v12zm-2-13.6c-1.3 0-2.4-1.1-2.4-2.4 0-1.3 1.1-2.4 2.4-2.4 1.3 0 2.4 1.1 2.4 2.4 0 1.3-1.1 2.4-2.4 2.4zM34 34h-4v-6c0-1.6-.4-3.2-2-3.2s-2 1.6-2 3.2v6h-4V22h4v1.4h.2c.5-1 1.8-1.8 3.3-1.8 3.7 0 4.5 2.4 4.5 5.4v7z"/></svg><svg viewBox="-4.17 -4.17 58.33 58.33" width="28" height="28" id="evil-icons-ei-sc-youtube" x="28" y="84" xmlns="http://www.w3.org/2000/svg"><path d="M39.7 18.6s-.3-2.1-1.2-3c-1.1-1.2-2.4-1.2-3-1.3C31.3 14 25 14 25 14s-6.3 0-10.5.3c-.6.1-1.9.1-3 1.3-.9.9-1.2 3-1.2 3S10 21 10 23.4v2.2c0 2.4.3 4.9.3 4.9s.3 2.1 1.2 3c1.1 1.2 2.6 1.2 3.3 1.3 2.4.1 10.2.2 10.2.2s6.3 0 10.5-.3c.6-.1 1.9-.1 3-1.3.9-.9 1.2-3 1.2-3s.3-2.4.3-4.8v-2.2c0-2.4-.3-4.8-.3-4.8zm-17.8 9.8V20l8.1 4.2-8.1 4.2z"/></svg><svg viewBox="-4.17 -4.17 58.33 58.33" width="28" height="28" id="evil-icons-ei-share-apple" x="56" y="84" xmlns="http://www.w3.org/2000/svg"><path d="M30.3 13.7L25 8.4l-5.3 5.3-1.4-1.4L25 5.6l6.7 6.7z"/><path d="M24 7h2v21h-2z"/><path d="M35 40H15c-1.7 0-3-1.3-3-3V19c0-1.7 1.3-3 3-3h7v2h-7c-.6 0-1 .4-1 1v18c0 .6.4 1 1 1h20c.6 0 1-.4 1-1V19c0-.6-.4-1-1-1h-7v-2h7c1.7 0 3 1.3 3 3v18c0 1.7-1.3 3-3 3z"/></svg><svg viewBox="-4.17 -4.17 58.33 58.33" width="28" height="28" id="evil-icons-ei-spinner-3" x="84" y="84" xmlns="http://www.w3.org/2000/svg"><path d="M41.9 23.9c-.3-6.1-4-11.8-9.5-14.4-6-2.7-13.3-1.6-18.3 2.6-4.8 4-7 10.5-5.6 16.6 1.3 6 6 10.9 11.9 12.5 7.1 2 13.6-1.4 17.6-7.2-3.6 4.8-9.1 8-15.2 6.9-6.1-1.1-11.1-5.7-12.5-11.7-1.5-6.4 1.5-13.1 7.2-16.4 5.9-3.4 14.2-2.1 18.1 3.7 1 1.4 1.7 3.1 2 4.8.3 1.4.2 2.9.4 4.3.2 1.3 1.3 3 2.8 2.1 1.3-.8 1.2-2.5 1.1-3.8 0-.4.1.7 0 0z"/></svg></svg>