<?xml version="1.0" encoding="utf-8"?><svg width="112" height="112" viewBox="0 0 112 112" xmlns="http://www.w3.org/2000/svg" xmlns:xlink="http://www.w3.org/1999/xlink"><svg viewBox="-4.17 -4.17 58.33 58.33" width="28" height="28" id="evil-icons-ei-arrow-up" xmlns="http://www.w3.org/2000/svg"><path d="M25 42c-9.4 0-17-7.6-17-17S15.6 8 25 8s17 7.6 17 17-7.6 17-17 17zm0-32c-8.3 0-15 6.7-15 15s6.7 15 15 15 15-6.7 15-15-6.7-15-15-15z"/><path d="M33.3 26.7L25 18.4l-8.3 8.3-1.4-1.4 9.7-9.7 9.7 9.7z"/><path d="M24 17h2v17h-2z"/></svg><svg viewBox="-4.17 -4.17 58.33 58.33" width="28" height="28" id="evil-icons-ei-calendar" x="28" xmlns="http://www.w3.org/2000/svg"><path d="M37 38H13c-1.7 0-3-1.3-3-3V13c0-1.7 1.1-3 2.5-3H14v2h-1.5c-.2 0-.5.4-.5 1v22c0 .6.4 1 1 1h24c.6 0 1-.4 1-1V13c0-.6-.3-1-.5-1H36v-2h1.5c1.4 0 2.5 1.3 2.5 3v22c0 1.7-1.3 3-3 3z"/><path d="M17 14c-.6 0-1-.4-1-1V9c0-.6.4-1 1-1s1 .4 1 1v4c0 .6-.4 1-1 1zM33 14c-.6 0-1-.4-1-1V9c0-.6.4-1 1-1s1 .4 1 1v4c0 .6-.4 1-1 1zM20 10h10v2H20zM12 16h26v2H12zM34 20h2v2h-2zM30 20h2v2h-2zM26 20h2v2h-2zM22 20h2v2h-2zM18 20h2v2h-2zM34 24h2v2h-2zM30 24h2v2h-2zM26 24h2v2h-2zM22 24h2v2h-2zM18 24h2v2h-2zM14 24h2v2h-2zM34 28h2v2h-2zM30 28h2v2h-2zM26 28h2v2h-2zM22 28h2v2h-2zM18 28h2v2h-2zM14 28h2v2h-2zM30 32h2v2h-2zM26 32h2v2h-2zM22 32h2v2h-2zM18 32h2v2h-2zM14 32h2v2h-2z"/></svg><svg viewBox="-4.17 -4.17 58.33 58.33" width="28" height="28" id="evil-icons-ei-chevron-down" y="28" xmlns="http://www.w3.org/2000/svg"><path d="M25 32.4l-9.7-9.7 1.4-1.4 8.3 8.3 8.3-8.3 1.4 1.4z"/></svg><svg viewBox="-4.17 -4.17 58.33 58.33" width="28" height="28" id="evil-icons-ei-chevron-up" x="28" y="28" xmlns="http://www.w3.org/2000/svg"><path d="M33.3 28.7L25 20.4l-8.3 8.3-1.4-1.4 9.7-9.7 9.7 9.7z"/></svg><svg viewBox="-4.17 -4.17 58.33 58.33" width="28" height="28" id="evil-icons-ei-clock" x="56" xmlns="http://www.w3.org/2000/svg"><path d="M25 42c-9.4 0-17-7.6-17-17S15.6 8 25 8s17 7.6 17 17-7.6 17-17 17zm0-32c-8.3 0-15 6.7-15 15s6.7 15 15 15 15-6.7 15-15-6.7-15-15-15z"/><path d="M30.3 33.7L24 27.4V16h2v10.6l5.7 5.7z"/></svg><svg viewBox="-4.17 -4.17 58.33 58.33" width="28" height="28" id="evil-icons-ei-envelope" x="56" y="28" xmlns="http://www.w3.org/2000/svg"><path opacity=".9" d="M31.796 24.244l9.97 9.97-1.415 1.414-9.97-9.97zM18.278 24.287l1.414 1.414-9.9 9.9-1.414-1.41z"/><path d="M25 29.9c-1.5 0-3.1-.6-4.2-1.8L8.3 15.7l1.4-1.4 12.5 12.5c1.6 1.6 4.1 1.6 5.7 0l12.5-12.5 1.4 1.4-12.6 12.5c-1.1 1.1-2.7 1.7-4.2 1.7z"/><path d="M39 38H11c-1.7 0-3-1.3-3-3V15c0-1.7 1.3-3 3-3h28c1.7 0 3 1.3 3 3v20c0 1.7-1.3 3-3 3zM11 14c-.6 0-1 .4-1 1v20c0 .6.4 1 1 1h28c.6 0 1-.4 1-1V15c0-.6-.4-1-1-1H11z"/></svg><svg viewBox="-4.17 -4.17 58.33 58.33" width="28" height="28" id="evil-icons-ei-image" y="56" xmlns="http://www.w3.org/2000/svg"><path d="M39 38H11c-1.7 0-3-1.3-3-3V15c0-1.7 1.3-3 3-3h28c1.7 0 3 1.3 3 3v20c0 1.7-1.3 3-3 3zM11 14c-.6 0-1 .4-1 1v20c0 .6.4 1 1 1h28c.6 0 1-.4 1-1V15c0-.6-.4-1-1-1H11z"/><path d="M30 24c-2.2 0-4-1.8-4-4s1.8-4 4-4 4 1.8 4 4-1.8 4-4 4zm0-6c-1.1 0-2 .9-2 2s.9 2 2 2 2-.9 2-2-.9-2-2-2zM35.3 37.7L19 22.4 9.7 31l-1.4-1.4 10.7-10 17.7 16.7z"/><path d="M40.4 32.7L35 28.3 30.5 32l-1.3-1.6 5.8-4.7 6.6 5.4z"/></svg><svg viewBox="-4.17 -4.17 58.33 58.33" width="28" height="28" id="evil-icons-ei-minus" x="28" y="56" xmlns="http://www.w3.org/2000/svg"><path d="M25 42c-9.4 0-17-7.6-17-17S15.6 8 25 8s17 7.6 17 17-7.6 17-17 17zm0-32c-8.3 0-15 6.7-15 15s6.7 15 15 15 15-6.7 15-15-6.7-15-15-15z"/><path d="M16 24h18v2H16z"/></svg><svg viewBox="-4.17 -4.17 58.33 58.33" width="28" height="28" id="evil-icons-ei-play" x="56" y="56" xmlns="http://www.w3.org/2000/svg"><path d="M25 42c-9.4 0-17-7.6-17-17S15.6 8 25 8s17 7.6 17 17-7.6 17-17 17zm0-32c-8.3 0-15 6.7-15 15s6.7 15 15 15 15-6.7 15-15-6.7-15-15-15z"/><path d="M20 33.7V16.3L35 25l-15 8.7zm2-14v10.5l9-5.3-9-5.2z"/></svg><svg viewBox="-4.17 -4.17 58.33 58.33" width="28" height="28" id="evil-icons-ei-sc-pinterest" x="84" xmlns="http://www.w3.org/2000/svg"><path d="M25 10c-8.3 0-15 6.7-15 15 0 6.4 4 11.8 9.5 14-.1-1.2-.2-3 .1-4.3.3-1.2 1.8-7.5 1.8-7.5s-.4-.9-.4-2.2c0-2.1 1.2-3.6 2.7-3.6 1.3 0 1.9 1 1.9 2.1 0 1.3-.8 3.2-1.2 5-.4 1.5.7 2.7 2.2 2.7 2.7 0 4.7-2.8 4.7-6.9 0-3.6-2.6-6.1-6.3-6.1-4.3 0-6.8 3.2-6.8 6.5 0 1.3.5 2.7 1.1 3.4.1.1.1.3.1.4-.1.5-.4 1.5-.4 1.7-.1.3-.2.3-.5.2-1.9-.9-3-3.6-3-5.8 0-4.7 3.4-9.1 9.9-9.1 5.2 0 9.2 3.7 9.2 8.7 0 5.2-3.3 9.3-7.8 9.3-1.5 0-2.9-.8-3.4-1.7 0 0-.8 2.9-.9 3.6-.3 1.3-1.3 2.9-1.9 3.9 1.4.5 2.9.7 4.4.7 8.3 0 15-6.7 15-15s-6.7-15-15-15z"/></svg><svg viewBox="-4.17 -4.17 58.33 58.33" width="28" height="28" id="evil-icons-ei-sc-soundcloud" x="84" y="28" xmlns="http://www.w3.org/2000/svg"><path d="M40 24h-.2c-.9-4.6-5-8-9.8-8-3.1 0-5.9 1.4-7.7 3.7-.2.3-.3.6-.3 1.2l-.4 9.1.4 5.5c0 .3.3.5.5.5H40c3.3 0 6-2.7 6-6s-2.7-6-6-6zM18.9 20c-.3 0-.5.2-.5.5l-.8 9v1l.8 5c0 .3.3.5.6.5h.2c.3 0 .5-.2.6-.5l.8-5c0-.3.1-.7 0-1l-.8-9c0-.3-.3-.5-.5-.5h-.4zM14.9 21c-.3 0-.5.2-.5.5l-.8 8v1l.8 5c0 .3.3.5.6.5h.2c.3 0 .5-.2.6-.5l.8-5c0-.3.1-.7 0-1l-.8-8c0-.3-.3-.5-.5-.5h-.4zM11 24c-.3 0-.5.2-.6.5l-.8 5v1l.8 5c0 .3.3.5.6.5s.5-.2.6-.5l.8-5v-1l-.8-5c-.1-.3-.3-.5-.6-.5zM7 23c-.3 0-.5.2-.6.5l-.9 6v1l.8 5c.2.3.4.5.7.5.3 0 .5-.2.6-.5l.8-5c0-.3.1-.7 0-1l-.9-6c0-.3-.2-.5-.5-.5zM3.3 26c-.3 0-.5.2-.6.5l-.6 3c-.1.3-.1.7 0 1l.6 4c.1.3.3.5.6.5s.5-.2.6-.5l.6-4v-1l-.6-3c-.1-.3-.3-.5-.6-.5z"/></svg><svg viewBox="-4.17 -4.17 58.33 58.33" width="28" height="28" id="evil-icons-ei-sc-vk" x="84" y="56" xmlns="http://www.w3.org/2000/svg"><path fill-rule="evenodd" clip-rule="evenodd" d="M25.1 35.9h2s.6-.1.9-.4c.3-.3.3-.9.3-.9s0-2.6 1.2-3c1.2-.4 2.8 2.6 4.4 3.7 1.2.9 2.1.7 2.1.7l4.4-.1s2.3-.1 1.2-2c-.1-.1-.6-1.3-3.3-3.8-2.8-2.6-2.4-2.1.9-6.6 2-2.7 2.8-4.3 2.6-5.1-.2-.7-1.7-.5-1.7-.5h-5s-.4-.1-.6.1c-.3.2-.4.5-.4.5s-.8 2.1-1.8 3.9c-2.2 3.7-3.1 3.9-3.4 3.7-.8-.5-.6-2.2-.6-3.3 0-3.6.6-5.1-1.1-5.5-.5-.1-.9-.2-2.3-.2-1.8 0-3.3 0-4.1.4-.6.3-1 .9-.7.9.3 0 1.1.2 1.5.7.4.9.4 2.4.4 2.4s.3 4.3-.7 4.8c-.7.4-1.6-.4-3.6-3.8-1-1.7-1.8-3.7-1.8-3.7s-.1-.4-.4-.6c-.3-.2-.8-.3-.8-.3H10s-.7 0-1 .3c-.2.3 0 .8 0 .8s3.7 8.6 7.9 13c3.9 4.2 8.2 3.9 8.2 3.9z"/></svg><svg viewBox="-4.17 -4.17 58.33 58.33" width="28" height="28" id="evil-icons-ei-sc-youtube" y="84" xmlns="http://www.w3.org/2000/svg"><path d="M39.7 18.6s-.3-2.1-1.2-3c-1.1-1.2-2.4-1.2-3-1.3C31.3 14 25 14 25 14s-6.3 0-10.5.3c-.6.1-1.9.1-3 1.3-.9.9-1.2 3-1.2 3S10 21 10 23.4v2.2c0 2.4.3 4.9.3 4.9s.3 2.1 1.2 3c1.1 1.2 2.6 1.2 3.3 1.3 2.4.1 10.2.2 10.2.2s6.3 0 10.5-.3c.6-.1 1.9-.1 3-1.3.9-.9 1.2-3 1.2-3s.3-2.4.3-4.8v-2.2c0-2.4-.3-4.8-.3-4.8zm-17.8 9.8V20l8.1 4.2-8.1 4.2z"/></svg><svg viewBox="-4.17 -4.17 58.33 58.33" width="28" height="28" id="evil-icons-ei-spinner-2" x="28" y="84" xmlns="http://www.w3.org/2000/svg"><circle cx="25" cy="10" r="2"/><circle opacity=".3" cx="25" cy="40" r="2"/><circle opacity=".3" cx="32.5" cy="12" r="2"/><circle opacity=".3" cx="17.5" cy="38" r="2"/><circle opacity=".93" cx="17.5" cy="12" r="2"/><circle opacity=".3" cx="32.5" cy="38" r="2"/><circle opacity=".65" cx="10" cy="25" r="2"/><circle opacity=".3" cx="40" cy="25" r="2"/><circle opacity=".86" cx="12" cy="17.5" r="2"/><circle opacity=".3" cx="38" cy="32.5" r="2"/><circle opacity=".44" cx="12" cy="32.5" r="2"/><circle opacity=".3" cx="38" cy="17.5" r="2"/></svg><svg viewBox="-4.17 -4.17 58.33 58.33" width="28" height="28" id="evil-icons-ei-tag" x="56" y="84" xmlns="http://www.w3.org/2000/svg"><path d="M22 40.1c-.9 0-1.7-.3-2.3-.9l-8.9-8.9c-1.2-1.2-1.2-3.3 0-4.5l11.9-11.9c1-1 3-1.8 4.5-1.8h7.6c1.8 0 3.2 1.4 3.2 3.2v7.6c0 1.5-.8 3.4-1.8 4.5L24.3 39.2c-.6.6-1.4.9-2.3.9zM27.2 14c-1 0-2.4.6-3 1.3L12.3 27.2c-.5.5-.5 1.2 0 1.7l8.9 8.9c.5.4 1.2.4 1.7 0l11.9-11.9c.7-.7 1.3-2.1 1.3-3v-7.6c0-.7-.5-1.2-1.2-1.2h-7.7z"/><path d="M30 24c-2.2 0-4-1.8-4-4s1.8-4 4-4 4 1.8 4 4-1.8 4-4 4zm0-6c-1.1 0-2 .9-2 2s.9 2 2 2 2-.9 2-2-.9-2-2-2z"/></svg><svg viewBox="-4.17 -4.17 58.33 58.33" width="28" height="28" id="evil-icons-ei-user" x="84" y="84" xmlns="http://www.w3.org/2000/svg"><path d="M25.1 42c-9.4 0-17-7.6-17-17s7.6-17 17-17 17 7.6 17 17-7.7 17-17 17zm0-32c-8.3 0-15 6.7-15 15s6.7 15 15 15 15-6.7 15-15-6.8-15-15-15z"/><path d="M15.3 37.3l-1.8-.8c.5-1.2 2.1-1.9 3.8-2.7 1.7-.8 3.8-1.7 3.8-2.8v-1.5c-.6-.5-1.6-1.6-1.8-3.2-.5-.5-1.3-1.4-1.3-2.6 0-.7.3-1.3.5-1.7-.2-.8-.4-2.3-.4-3.5 0-3.9 2.7-6.5 7-6.5 1.2 0 2.7.3 3.5 1.2 1.9.4 3.5 2.6 3.5 5.3 0 1.7-.3 3.1-.5 3.8.2.3.4.8.4 1.4 0 1.3-.7 2.2-1.3 2.6-.2 1.6-1.1 2.6-1.7 3.1V31c0 .9 1.8 1.6 3.4 2.2 1.9.7 3.9 1.5 4.6 3.1l-1.9.7c-.3-.8-1.9-1.4-3.4-1.9-2.2-.8-4.7-1.7-4.7-4v-2.6l.5-.3s1.2-.8 1.2-2.4v-.7l.6-.3c.1 0 .6-.3.6-1.1 0-.2-.2-.5-.3-.6l-.4-.4.2-.5s.5-1.6.5-3.6c0-1.9-1.1-3.3-2-3.3h-.6l-.3-.5c0-.4-.7-.8-1.9-.8-3.1 0-5 1.7-5 4.5 0 1.3.5 3.5.5 3.5l.1.5-.4.5c-.1 0-.3.3-.3.7 0 .5.6 1.1.9 1.3l.4.3v.5c0 1.5 1.3 2.3 1.3 2.4l.5.3v2.6c0 2.4-2.6 3.6-5 4.6-1.1.4-2.6 1.1-2.8 1.6z"/></svg></svg>