<?xml version="1.0" encoding="utf-8"?><svg width="137" height="110" viewBox="0 0 137 110" xmlns="http://www.w3.org/2000/svg" xmlns:xlink="http://www.w3.org/1999/xlink"><svg viewBox="-42.67 -42.67 533.33 597.33" width="25" height="28" id="font-awesome-accessible-icon" xmlns="http://www.w3.org/2000/svg"><path d="M423.9 255.8L411 413.1c-3.3 40.7-63.9 35.1-60.6-4.9l10-122.5-41.1 2.3c10.1 20.7 15.8 43.9 15.8 68.5 0 41.2-16.1 78.7-42.3 106.5l-39.3-39.3c57.9-63.7 13.1-167.2-74-167.2-25.9 0-49.5 9.9-67.2 26L73 243.2c22-20.7 50.1-35.1 81.4-40.2l75.3-85.7-42.6-24.8-51.6 46c-30 26.8-70.6-18.5-40.5-45.4l68-60.7c9.8-8.8 24.1-10.2 35.5-3.6 0 0 139.3 80.9 139.5 81.1 16.2 10.1 20.7 36 6.1 52.6L285.7 229l106.1-5.9c18.5-1.1 33.6 14.4 32.1 32.7zm-64.9-154c28.1 0 50.9-22.8 50.9-50.9C409.9 22.8 387.1 0 359 0c-28.1 0-50.9 22.8-50.9 50.9 0 28.1 22.8 50.9 50.9 50.9zM179.6 456.5c-80.6 0-127.4-90.6-82.7-156.1l-39.7-39.7C36.4 287 24 320.3 24 356.4c0 130.7 150.7 201.4 251.4 122.5l-39.7-39.7c-16 10.9-35.3 17.3-56.1 17.3z"/></svg><svg viewBox="-53.33 -53.33 746.67 618.67" width="28" height="23.2" id="font-awesome-backspace" x="25" xmlns="http://www.w3.org/2000/svg"><path d="M576 64H205.26A63.97 63.97 0 00160 82.75L9.37 233.37c-12.5 12.5-12.5 32.76 0 45.25L160 429.25c12 12 28.28 18.75 45.25 18.75H576c35.35 0 64-28.65 64-64V128c0-35.35-28.65-64-64-64zm-84.69 254.06c6.25 6.25 6.25 16.38 0 22.63l-22.62 22.62c-6.25 6.25-16.38 6.25-22.63 0L384 301.25l-62.06 62.06c-6.25 6.25-16.38 6.25-22.63 0l-22.62-22.62c-6.25-6.25-6.25-16.38 0-22.63L338.75 256l-62.06-62.06c-6.25-6.25-6.25-16.38 0-22.63l22.62-22.62c6.25-6.25 16.38-6.25 22.63 0L384 210.75l62.06-62.06c6.25-6.25 16.38-6.25 22.63 0l22.62 22.62c6.25 6.25 6.25 16.38 0 22.63L429.25 256l62.06 62.06z"/></svg><svg viewBox="-48 -48 672 608" width="28" height="25.33" id="font-awesome-connectdevelop" x="53" xmlns="http://www.w3.org/2000/svg"><path d="M550.5 241l-50.089-86.786c1.071-2.142 1.875-4.553 1.875-7.232 0-8.036-6.696-14.733-14.732-15.001l-55.447-95.893c.536-1.607 1.071-3.214 1.071-4.821 0-8.571-6.964-15.268-15.268-15.268-4.821 0-8.839 2.143-11.786 5.625H299.518C296.839 18.143 292.821 16 288 16s-8.839 2.143-11.518 5.625H170.411C167.464 18.143 163.447 16 158.625 16c-8.303 0-15.268 6.696-15.268 15.268 0 1.607.536 3.482 1.072 4.821l-55.983 97.233c-5.356 2.41-9.107 7.5-9.107 13.661 0 .535.268 1.071.268 1.607l-53.304 92.143c-7.232 1.339-12.59 7.5-12.59 15 0 7.232 5.089 13.393 12.054 15l55.179 95.358c-.536 1.607-.804 2.946-.804 4.821 0 7.232 5.089 13.393 12.054 14.732l51.697 89.732c-.536 1.607-1.071 3.482-1.071 5.357 0 8.571 6.964 15.268 15.268 15.268 4.821 0 8.839-2.143 11.518-5.357h106.875C279.161 493.857 283.447 496 288 496s8.839-2.143 11.518-5.357h107.143c2.678 2.946 6.696 4.821 10.982 4.821 8.571 0 15.268-6.964 15.268-15.268 0-1.607-.267-2.946-.803-4.285l51.697-90.268c6.964-1.339 12.054-7.5 12.054-14.732 0-1.607-.268-3.214-.804-4.821l54.911-95.358c6.964-1.339 12.322-7.5 12.322-15-.002-7.232-5.092-13.393-11.788-14.732zM153.535 450.732l-43.66-75.803h43.66v75.803zm0-83.839h-43.66c-.268-1.071-.804-2.142-1.339-3.214l44.999-47.41v50.624zm0-62.411l-50.357 53.304c-1.339-.536-2.679-1.34-4.018-1.607L43.447 259.75c.535-1.339.535-2.679.535-4.018s0-2.41-.268-3.482l51.965-90c2.679-.268 5.357-1.072 7.768-2.679l50.089 51.965v92.946zm0-102.322l-45.803-47.41c1.339-2.143 2.143-4.821 2.143-7.767 0-.268-.268-.804-.268-1.072l43.928-15.804v72.053zm0-80.625l-43.66 15.804 43.66-75.536v59.732zm326.519 39.108l.804 1.339L445.5 329.125l-63.75-67.232 98.036-101.518.268.268zM291.75 355.107l11.518 11.786H280.5l11.25-11.786zm-.268-11.25l-83.303-85.446 79.553-84.375 83.036 87.589-79.286 82.232zm5.357 5.893l79.286-82.232 67.5 71.25-5.892 28.125H313.714l-16.875-17.143zM410.411 44.393c1.071.536 2.142 1.072 3.482 1.34l57.857 100.714v.536c0 2.946.803 5.624 2.143 7.767L376.393 256l-83.035-87.589L410.411 44.393zm-9.107-2.143L287.732 162.518l-57.054-60.268 166.339-60h4.287zm-123.483 0c2.678 2.678 6.16 4.285 10.179 4.285s7.5-1.607 10.179-4.285h75L224.786 95.821 173.893 42.25h103.928zm-116.249 5.625l1.071-2.142a33.834 33.834 0 002.679-.804l51.161 53.84-54.911 19.821V47.875zm0 79.286l60.803-21.964 59.732 63.214-79.553 84.107-40.982-42.053v-83.304zm0 92.678L198 257.607l-36.428 38.304v-76.072zm0 87.858l42.053-44.464 82.768 85.982-17.143 17.678H161.572v-59.196zm6.964 162.053c-1.607-1.607-3.482-2.678-5.893-3.482l-1.071-1.607v-89.732h99.91l-91.607 94.821h-1.339zm129.911 0c-2.679-2.41-6.428-4.285-10.447-4.285s-7.767 1.875-10.447 4.285h-96.429l91.607-94.821h38.304l91.607 94.821H298.447zm120-11.786l-4.286 7.5c-1.339.268-2.41.803-3.482 1.339l-89.196-91.875h114.376l-17.412 83.036zm12.856-22.232l12.858-60.803h21.964l-34.822 60.803zm34.822-68.839h-20.357l4.553-21.16 17.143 18.214c-.535.803-1.071 1.874-1.339 2.946zm66.161-107.411l-55.447 96.697c-1.339.535-2.679 1.071-4.018 1.874l-20.625-21.964 34.554-163.928 45.803 79.286c-.267 1.339-.803 2.678-.803 4.285 0 1.339.268 2.411.536 3.75z"/></svg><svg viewBox="-42.67 -42.67 565.33 597.33" width="26.5" height="28" id="font-awesome-draft2digital" y="28" xmlns="http://www.w3.org/2000/svg"><path d="M480 398.1l-144-82.2v64.7h-91.3c30.8-35 81.8-95.9 111.8-149.3 35.2-62.6 16.1-123.4-12.8-153.3-4.4-4.6-62.2-62.9-166-41.2-59.1 12.4-89.4 43.4-104.3 67.3-13.1 20.9-17 39.8-18.2 47.7-5.5 33 19.4 67.1 56.7 67.1 31.7 0 57.3-25.7 57.3-57.4 0-27.1-19.7-52.1-48-56.8 1.8-7.3 17.7-21.1 26.3-24.7 41.1-17.3 78 5.2 83.3 33.5 8.3 44.3-37.1 90.4-69.7 127.6C84.5 328.1 18.3 396.8 0 415.9l336-.1V480zM369.9 371l47.1 27.2-47.1 27.2zM134.2 161.4c0 12.4-10 22.4-22.4 22.4s-22.4-10-22.4-22.4 10-22.4 22.4-22.4 22.4 10.1 22.4 22.4zM82.5 380.5c25.6-27.4 97.7-104.7 150.8-169.9 35.1-43.1 40.3-82.4 28.4-112.7-7.4-18.8-17.5-30.2-24.3-35.7 45.3 2.1 68 23.4 82.2 38.3 0 0 42.4 48.2 5.8 113.3-37 65.9-110.9 147.5-128.5 166.7z"/></svg><svg viewBox="-42.67 -42.67 533.33 597.33" width="25" height="28" id="font-awesome-envira" x="26.5" y="28" xmlns="http://www.w3.org/2000/svg"><path d="M0 32c477.6 0 366.6 317.3 367.1 366.3L448 480h-26l-70.4-71.2c-39 4.2-124.4 34.5-214.4-37C47 300.3 52 214.7 0 32zm79.7 46c-49.7-23.5-5.2 9.2-5.2 9.2 45.2 31.2 66 73.7 90.2 119.9 31.5 60.2 79 139.7 144.2 167.7 65 28 34.2 12.5 6-8.5-28.2-21.2-68.2-87-91-130.2-31.7-60-61-118.6-144.2-158.1z"/></svg><svg viewBox="-42.67 -42.67 533.33 597.33" width="25" height="28" id="font-awesome-facebook-square" x="51.5" y="28" xmlns="http://www.w3.org/2000/svg"><path d="M400 32H48A48 48 0 000 80v352a48 48 0 0048 48h137.25V327.69h-63V256h63v-54.64c0-62.15 37-96.48 93.67-96.48 27.14 0 55.52 4.84 55.52 4.84v61h-31.27c-30.81 0-40.42 19.12-40.42 38.73V256h68.78l-11 71.69h-57.78V480H400a48 48 0 0048-48V80a48 48 0 00-48-48z"/></svg><svg viewBox="-42.67 -42.67 581.33 597.33" width="27.25" height="28" id="font-awesome-grin-tongue-squint" x="81" xmlns="http://www.w3.org/2000/svg"><path d="M293.1 374.6c-14.4-6.5-31.1 2.2-34.6 17.6l-1.8 7.8c-2.1 9.2-15.2 9.2-17.3 0l-1.8-7.8c-3.5-15.4-20.2-24.1-34.6-17.6-.9.4.3-.2-18.9 9.4v63c0 35.2 28 64.5 63.1 64.9 35.7.5 64.9-28.4 64.9-64v-64c-19.5-9.6-18.2-8.9-19-9.3zM248 8C111 8 0 119 0 256c0 106.3 67 196.7 161 232-5.6-12.2-9-25.7-9-40v-45.5c-24.7-16.2-43.5-38.1-47.8-63.8-2-11.8 9.2-21.5 20.7-17.9C155.1 330.5 200 336 248 336s92.9-5.5 123.1-15.2c11.4-3.7 22.6 6.1 20.7 17.9-4.3 25.7-23.1 47.6-47.8 63.8V448c0 14.3-3.4 27.8-9 40 94-35.3 161-125.7 161-232C496 119 385 8 248 8zm-33.8 210.3l-80 48c-11.5 6.8-24-7.6-15.4-18l33.6-40.3-33.6-40.3c-8.6-10.3 3.8-24.9 15.4-18l80 48c7.7 4.7 7.7 15.9 0 20.6zm163 30c8.7 10.4-3.9 24.8-15.4 18l-80-48c-7.8-4.7-7.8-15.9 0-20.6l80-48c11.7-6.9 23.9 7.7 15.4 18L343.6 208l33.6 40.3z"/></svg><svg viewBox="-48 -48 672 608" width="28" height="25.33" id="font-awesome-house-damage" y="56" xmlns="http://www.w3.org/2000/svg"><path d="M288 114.96L69.47 307.71c-1.62 1.46-3.69 2.14-5.47 3.35V496c0 8.84 7.16 16 16 16h149.23L192 439.19l104.11-64-60.16-119.22L384 392.75l-104.11 64L319.81 512H496c8.84 0 16-7.16 16-16V311.1c-1.7-1.16-3.72-1.82-5.26-3.2L288 114.96zm282.69 121.32L512 184.45V48c0-8.84-7.16-16-16-16h-64c-8.84 0-16 7.16-16 16v51.69L314.75 10.31C307.12 3.45 297.56.01 288 0s-19.1 3.41-26.7 10.27L5.31 236.28c-6.57 5.91-7.12 16.02-1.21 22.6l21.4 23.82c5.9 6.57 16.02 7.12 22.6 1.21L277.42 81.63c6.05-5.33 15.12-5.33 21.17 0L527.91 283.9c6.57 5.9 16.69 5.36 22.6-1.21l21.4-23.82c5.9-6.57 5.36-16.69-1.22-22.59z"/></svg><svg viewBox="-42.67 -42.67 597.33 597.33" width="28" height="28" id="font-awesome-list" x="108.25" xmlns="http://www.w3.org/2000/svg"><path d="M80 368H16a16 16 0 00-16 16v64a16 16 0 0016 16h64a16 16 0 0016-16v-64a16 16 0 00-16-16zm0-320H16A16 16 0 000 64v64a16 16 0 0016 16h64a16 16 0 0016-16V64a16 16 0 00-16-16zm0 160H16a16 16 0 00-16 16v64a16 16 0 0016 16h64a16 16 0 0016-16v-64a16 16 0 00-16-16zm416 176H176a16 16 0 00-16 16v32a16 16 0 0016 16h320a16 16 0 0016-16v-32a16 16 0 00-16-16zm0-320H176a16 16 0 00-16 16v32a16 16 0 0016 16h320a16 16 0 0016-16V80a16 16 0 00-16-16zm0 160H176a16 16 0 00-16 16v32a16 16 0 0016 16h320a16 16 0 0016-16v-32a16 16 0 00-16-16z"/></svg><svg viewBox="-42.67 -42.67 597.33 597.33" width="28" height="28" id="font-awesome-question-circle" x="108.25" y="28" xmlns="http://www.w3.org/2000/svg"><path d="M504 256c0 136.997-111.043 248-248 248S8 392.997 8 256C8 119.083 119.043 8 256 8s248 111.083 248 248zM262.655 90c-54.497 0-89.255 22.957-116.549 63.758-3.536 5.286-2.353 12.415 2.715 16.258l34.699 26.31c5.205 3.947 12.621 3.008 16.665-2.122 17.864-22.658 30.113-35.797 57.303-35.797 20.429 0 45.698 13.148 45.698 32.958 0 14.976-12.363 22.667-32.534 33.976C247.128 238.528 216 254.941 216 296v4c0 6.627 5.373 12 12 12h56c6.627 0 12-5.373 12-12v-1.333c0-28.462 83.186-29.647 83.186-106.667 0-58.002-60.165-102-116.531-102zM256 338c-25.365 0-46 20.635-46 46 0 25.364 20.635 46 46 46s46-20.636 46-46c0-25.365-20.635-46-46-46z"/></svg><svg viewBox="-42.67 -42.67 533.33 597.33" width="25" height="28" id="font-awesome-sellcast" x="81" y="28" xmlns="http://www.w3.org/2000/svg"><path d="M353.4 32H94.7C42.6 32 0 74.6 0 126.6v258.7C0 437.4 42.6 480 94.7 480h258.7c52.1 0 94.7-42.6 94.7-94.6V126.6c0-52-42.6-94.6-94.7-94.6zm-50 316.4c-27.9 48.2-89.9 64.9-138.2 37.2-22.9 39.8-54.9 8.6-42.3-13.2l15.7-27.2c5.9-10.3 19.2-13.9 29.5-7.9 18.6 10.8-.1-.1 18.5 10.7 27.6 15.9 63.4 6.3 79.4-21.3 15.9-27.6 6.3-63.4-21.3-79.4-17.8-10.2-.6-.4-18.6-10.6-24.6-14.2-3.4-51.9 21.6-37.5 18.6 10.8-.1-.1 18.5 10.7 48.4 28 65.1 90.3 37.2 138.5zm21.8-208.8c-17 29.5-16.3 28.8-19 31.5-6.5 6.5-16.3 8.7-26.5 3.6-18.6-10.8.1.1-18.5-10.7-27.6-15.9-63.4-6.3-79.4 21.3s-6.3 63.4 21.3 79.4c0 0 18.5 10.6 18.6 10.6 24.6 14.2 3.4 51.9-21.6 37.5-18.6-10.8.1.1-18.5-10.7-48.2-27.8-64.9-90.1-37.1-138.4 27.9-48.2 89.9-64.9 138.2-37.2l4.8-8.4c14.3-24.9 52-3.3 37.7 21.5z"/></svg><svg viewBox="-42.67 -42.67 533.33 597.33" width="25" height="28" id="font-awesome-sort-numeric-down" y="81.33" xmlns="http://www.w3.org/2000/svg"><path d="M304 96h16v64h-16a16 16 0 00-16 16v32a16 16 0 0016 16h96a16 16 0 0016-16v-32a16 16 0 00-16-16h-16V48a16 16 0 00-16-16h-48a16 16 0 00-14.29 8.83l-16 32A16 16 0 00304 96zm26.15 162.91a79 79 0 00-55 54.17c-14.25 51.05 21.21 97.77 68.85 102.53a84.07 84.07 0 01-20.85 12.91c-7.57 3.4-10.8 12.47-8.18 20.34l9.9 20c2.87 8.63 12.53 13.49 20.9 9.91 58-24.76 86.25-61.61 86.25-132V336c-.02-51.21-48.4-91.34-101.85-77.09zM352 356a20 20 0 1120-20 20 20 0 01-20 20zm-176-4h-48V48a16 16 0 00-16-16H80a16 16 0 00-16 16v304H16c-14.19 0-21.36 17.24-11.29 27.31l80 96a16 16 0 0022.62 0l80-96C197.35 369.26 190.22 352 176 352z"/></svg><svg viewBox="-42.67 -42.67 533.33 597.33" width="25" height="28" id="font-awesome-sticky-note" x="25" y="81.33" xmlns="http://www.w3.org/2000/svg"><path d="M312 320h136V56c0-13.3-10.7-24-24-24H24C10.7 32 0 42.7 0 56v400c0 13.3 10.7 24 24 24h264V344c0-13.2 10.8-24 24-24zm129 55l-98 98c-4.5 4.5-10.6 7-17 7h-6V352h128v6.1c0 6.3-2.5 12.4-7 16.9z"/></svg><svg viewBox="-42.67 -42.67 581.33 597.33" width="27.25" height="28" id="font-awesome-surprise" x="50" y="81.33" xmlns="http://www.w3.org/2000/svg"><path d="M248 8C111 8 0 119 0 256s111 248 248 248 248-111 248-248S385 8 248 8zm0 448c-110.3 0-200-89.7-200-200S137.7 56 248 56s200 89.7 200 200-89.7 200-200 200zm0-176c-35.3 0-64 28.7-64 64s28.7 64 64 64 64-28.7 64-64-28.7-64-64-64zm-48-72c0-17.7-14.3-32-32-32s-32 14.3-32 32 14.3 32 32 32 32-14.3 32-32zm128-32c-17.7 0-32 14.3-32 32s14.3 32 32 32 32-14.3 32-32-14.3-32-32-32z"/></svg><svg viewBox="-42.67 -42.67 533.33 597.33" width="25" height="28" id="font-awesome-typo3" x="77.25" y="81.33" xmlns="http://www.w3.org/2000/svg"><path d="M178.7 78.4c0-24.7 5.4-32.4 13.9-39.4-69.5 8.5-149.3 34-176.3 66.4-5.4 7.7-9.3 20.8-9.3 37.1C7 246 113.8 480 191.1 480c36.3 0 97.3-59.5 146.7-139-7 2.3-11.6 2.3-18.5 2.3-57.2 0-140.6-198.5-140.6-264.9zM301.5 32c-30.1 0-41.7 5.4-41.7 36.3 0 66.4 53.8 198.5 101.7 198.5 26.3 0 78.8-99.7 78.8-182.3 0-40.9-67-52.5-138.8-52.5z"/></svg><svg viewBox="-42.67 -42.67 469.33 597.33" width="22" height="28" id="font-awesome-volume-down" x="102.25" y="81.33" xmlns="http://www.w3.org/2000/svg"><path d="M215.03 72.04L126.06 161H24c-13.26 0-24 10.74-24 24v144c0 13.25 10.74 24 24 24h102.06l88.97 88.95c15.03 15.03 40.97 4.47 40.97-16.97V89.02c0-21.47-25.96-31.98-40.97-16.98zm123.2 108.08c-11.58-6.33-26.19-2.16-32.61 9.45-6.39 11.61-2.16 26.2 9.45 32.61C327.98 229.28 336 242.62 336 257c0 14.38-8.02 27.72-20.92 34.81-11.61 6.41-15.84 21-9.45 32.61 6.43 11.66 21.05 15.8 32.61 9.45 28.23-15.55 45.77-45 45.77-76.88s-17.54-61.32-45.78-76.87z"/></svg></svg>