<?xml version="1.0" encoding="utf-8"?><svg width="134" height="112" viewBox="0 0 134 112" xmlns="http://www.w3.org/2000/svg" xmlns:xlink="http://www.w3.org/1999/xlink"><svg viewBox="-42.67 -42.67 533.33 597.33" width="25" height="28" id="font-awesome-angle-double-right" xmlns="http://www.w3.org/2000/svg"><path d="M224.3 273l-136 136c-9.4 9.4-24.6 9.4-33.9 0l-22.6-22.6c-9.4-9.4-9.4-24.6 0-33.9l96.4-96.4-96.4-96.4c-9.4-9.4-9.4-24.6 0-33.9L54.3 103c9.4-9.4 24.6-9.4 33.9 0l136 136c9.5 9.4 9.5 24.6.1 34zm192-34l-136-136c-9.4-9.4-24.6-9.4-33.9 0l-22.6 22.6c-9.4 9.4-9.4 24.6 0 33.9l96.4 96.4-96.4 96.4c-9.4 9.4-9.4 24.6 0 33.9l22.6 22.6c9.4 9.4 24.6 9.4 33.9 0l136-136c9.4-9.2 9.4-24.4 0-33.8z"/></svg><svg viewBox="-42.67 -42.67 533.33 597.33" width="25" height="28" id="font-awesome-angular" x="25" xmlns="http://www.w3.org/2000/svg"><path d="M185.7 268.1h76.2l-38.1-91.6-38.1 91.6zM223.8 32L16 106.4l31.8 275.7 176 97.9 176-97.9 31.8-275.7zM354 373.8h-48.6l-26.2-65.4H168.6l-26.2 65.4H93.7L223.8 81.5z"/></svg><svg viewBox="-48 -48 672 608" width="28" height="25.33" id="font-awesome-clinic-medical" x="50" xmlns="http://www.w3.org/2000/svg"><path d="M288 115L69.47 307.71c-1.62 1.46-3.69 2.14-5.47 3.35V496a16 16 0 0016 16h416a16 16 0 0016-16V311.1c-1.7-1.16-3.72-1.82-5.26-3.2zm96 261a8 8 0 01-8 8h-56v56a8 8 0 01-8 8h-48a8 8 0 01-8-8v-56h-56a8 8 0 01-8-8v-48a8 8 0 018-8h56v-56a8 8 0 018-8h48a8 8 0 018 8v56h56a8 8 0 018 8zm186.69-139.72l-255.94-226a39.85 39.85 0 00-53.45 0l-256 226a16 16 0 00-1.21 22.6L25.5 282.7a16 16 0 0022.6 1.21L277.42 81.63a16 16 0 0121.17 0L527.91 283.9a16 16 0 0022.6-1.21l21.4-23.82a16 16 0 00-1.22-22.59z"/></svg><svg viewBox="-42.67 -42.67 533.33 597.33" width="25" height="28" id="font-awesome-divide" y="28" xmlns="http://www.w3.org/2000/svg"><path d="M224 352c-35.35 0-64 28.65-64 64s28.65 64 64 64 64-28.65 64-64-28.65-64-64-64zm0-192c35.35 0 64-28.65 64-64s-28.65-64-64-64-64 28.65-64 64 28.65 64 64 64zm192 48H32c-17.67 0-32 14.33-32 32v32c0 17.67 14.33 32 32 32h384c17.67 0 32-14.33 32-32v-32c0-17.67-14.33-32-32-32z"/></svg><svg viewBox="-42.67 -42.67 597.33 597.33" width="28" height="28" id="font-awesome-drafting-compass" x="25" y="28" xmlns="http://www.w3.org/2000/svg"><path d="M457.01 344.42c-25.05 20.33-52.63 37.18-82.54 49.05l54.38 94.19 53.95 23.04c9.81 4.19 20.89-2.21 22.17-12.8l7.02-58.25-54.98-95.23zm42.49-94.56c4.86-7.67 1.89-17.99-6.05-22.39l-28.07-15.57c-7.48-4.15-16.61-1.46-21.26 5.72C403.01 281.15 332.25 320 256 320c-23.93 0-47.23-4.25-69.41-11.53l67.36-116.68c.7.02 1.34.21 2.04.21s1.35-.19 2.04-.21l51.09 88.5c31.23-8.96 59.56-25.75 82.61-48.92l-51.79-89.71C347.39 128.03 352 112.63 352 96c0-53.02-42.98-96-96-96s-96 42.98-96 96c0 16.63 4.61 32.03 12.05 45.66l-68.3 118.31c-12.55-11.61-23.96-24.59-33.68-39-4.79-7.1-13.97-9.62-21.38-5.33l-27.75 16.07c-7.85 4.54-10.63 14.9-5.64 22.47 15.57 23.64 34.69 44.21 55.98 62.02L0 439.66l7.02 58.25c1.28 10.59 12.36 16.99 22.17 12.8l53.95-23.04 70.8-122.63C186.13 377.28 220.62 384 256 384c99.05 0 190.88-51.01 243.5-134.14zM256 64c17.67 0 32 14.33 32 32s-14.33 32-32 32-32-14.33-32-32 14.33-32 32-32z"/></svg><svg viewBox="-42.67 -42.67 469.33 597.33" width="22" height="28" id="font-awesome-file-contract" x="53" y="28" xmlns="http://www.w3.org/2000/svg"><path d="M224 136V0H24C10.7 0 0 10.7 0 24v464c0 13.3 10.7 24 24 24h336c13.3 0 24-10.7 24-24V160H248c-13.2 0-24-10.8-24-24zM64 72c0-4.42 3.58-8 8-8h80c4.42 0 8 3.58 8 8v16c0 4.42-3.58 8-8 8H72c-4.42 0-8-3.58-8-8V72zm0 64c0-4.42 3.58-8 8-8h80c4.42 0 8 3.58 8 8v16c0 4.42-3.58 8-8 8H72c-4.42 0-8-3.58-8-8v-16zm192.81 248H304c8.84 0 16 7.16 16 16s-7.16 16-16 16h-47.19c-16.45 0-31.27-9.14-38.64-23.86-2.95-5.92-8.09-6.52-10.17-6.52s-7.22.59-10.02 6.19l-7.67 15.34a15.986 15.986 0 01-14.31 8.84c-.38 0-.75-.02-1.14-.05-6.45-.45-12-4.75-14.03-10.89L144 354.59l-10.61 31.88c-5.89 17.66-22.38 29.53-41 29.53H80c-8.84 0-16-7.16-16-16s7.16-16 16-16h12.39c4.83 0 9.11-3.08 10.64-7.66l18.19-54.64c3.3-9.81 12.44-16.41 22.78-16.41s19.48 6.59 22.77 16.41l13.88 41.64c19.77-16.19 54.05-9.7 66 14.16 2.02 4.06 5.96 6.5 10.16 6.5zM377 105L279.1 7c-4.5-4.5-10.6-7-17-7H256v128h128v-6.1c0-6.3-2.5-12.4-7-16.9z"/></svg><svg viewBox="-42.67 -42.67 597.33 597.33" width="28" height="28" id="font-awesome-heart" x="78" xmlns="http://www.w3.org/2000/svg"><path d="M458.4 64.3C400.6 15.7 311.3 23 256 79.3 200.7 23 111.4 15.6 53.6 64.3-21.6 127.6-10.6 230.8 43 285.5l175.4 178.7c10 10.2 23.4 15.9 37.6 15.9 14.3 0 27.6-5.6 37.6-15.8L469 285.6c53.5-54.7 64.7-157.9-10.6-221.3zm-23.6 187.5L259.4 430.5c-2.4 2.4-4.4 2.4-6.8 0L77.2 251.8c-36.5-37.2-43.9-107.6 7.3-150.7 38.9-32.7 98.9-27.8 136.5 10.5l35 35.7 35-35.7c37.8-38.5 97.8-43.2 136.5-10.6 51.1 43.1 43.5 113.9 7.3 150.8z"/></svg><svg viewBox="-42.67 -42.67 581.33 597.33" width="27.25" height="28" id="font-awesome-laugh-squint" x="78" y="28" xmlns="http://www.w3.org/2000/svg"><path d="M248 8C111 8 0 119 0 256s111 248 248 248 248-111 248-248S385 8 248 8zm33.8 161.7l80-48c11.6-6.9 24 7.7 15.4 18L343.6 180l33.6 40.3c8.7 10.4-3.9 24.8-15.4 18l-80-48c-7.7-4.7-7.7-15.9 0-20.6zm-163-30c-8.6-10.3 3.8-24.9 15.4-18l80 48c7.8 4.7 7.8 15.9 0 20.6l-80 48c-11.5 6.8-24-7.6-15.4-18l33.6-40.3-33.6-40.3zM398.9 306C390 377 329.4 432 256 432h-16c-73.4 0-134-55-142.9-126-1.2-9.5 6.3-18 15.9-18h270c9.6 0 17.1 8.4 15.9 18z"/></svg><svg viewBox="-42.67 -42.67 597.33 597.33" width="28" height="28" id="font-awesome-microscope" y="56" xmlns="http://www.w3.org/2000/svg"><path d="M160 320h12v16c0 8.84 7.16 16 16 16h40c8.84 0 16-7.16 16-16v-16h12c17.67 0 32-14.33 32-32V64c0-17.67-14.33-32-32-32V16c0-8.84-7.16-16-16-16h-64c-8.84 0-16 7.16-16 16v16c-17.67 0-32 14.33-32 32v224c0 17.67 14.33 32 32 32zm304 128h-1.29C493.24 413.99 512 369.2 512 320c0-105.88-86.12-192-192-192v64c70.58 0 128 57.42 128 128s-57.42 128-128 128H48c-26.51 0-48 21.49-48 48 0 8.84 7.16 16 16 16h480c8.84 0 16-7.16 16-16 0-26.51-21.49-48-48-48zm-360-32h208c4.42 0 8-3.58 8-8v-16c0-4.42-3.58-8-8-8H104c-4.42 0-8 3.58-8 8v16c0 4.42 3.58 8 8 8z"/></svg><svg viewBox="-42.67 -42.67 581.33 597.33" width="27.25" height="28" id="font-awesome-opera" x="28" y="56" xmlns="http://www.w3.org/2000/svg"><path d="M313.9 32.7c-170.2 0-252.6 223.8-147.5 355.1 36.5 45.4 88.6 75.6 147.5 75.6 36.3 0 70.3-11.1 99.4-30.4-43.8 39.2-101.9 63-165.3 63-3.9 0-8 0-11.9-.3C104.6 489.6 0 381.1 0 248 0 111 111 0 248 0h.8c63.1.3 120.7 24.1 164.4 63.1-29-19.4-63.1-30.4-99.3-30.4zm101.8 397.7c-40.9 24.7-90.7 23.6-132-5.8 56.2-20.5 97.7-91.6 97.7-176.6 0-84.7-41.2-155.8-97.4-176.6 41.8-29.2 91.2-30.3 132.9-5 105.9 98.7 105.5 265.7-1.2 364z"/></svg><svg viewBox="-42.67 -42.67 469.33 597.33" width="22" height="28" id="font-awesome-pray" x="55.25" y="56" xmlns="http://www.w3.org/2000/svg"><path d="M256 128c35.35 0 64-28.65 64-64S291.35 0 256 0s-64 28.65-64 64 28.65 64 64 64zm-30.63 169.75c14.06 16.72 39 19.09 55.97 5.22l88-72.02c17.09-13.98 19.59-39.19 5.62-56.28-13.97-17.11-39.19-19.59-56.31-5.62l-57.44 47-38.91-46.31c-15.44-18.39-39.22-27.92-64-25.33-24.19 2.48-45.25 16.27-56.37 36.92l-49.37 92.03c-23.4 43.64-8.69 96.37 34.19 123.75L131.56 432H40c-22.09 0-40 17.91-40 40s17.91 40 40 40h208c34.08 0 53.77-42.79 28.28-68.28L166.42 333.86l34.8-64.87 24.15 28.76z"/></svg><svg viewBox="-42.67 -42.67 533.33 597.33" width="25" height="28" id="font-awesome-red-river" x="77.25" y="56" xmlns="http://www.w3.org/2000/svg"><path d="M353.2 32H94.8C42.4 32 0 74.4 0 126.8v258.4C0 437.6 42.4 480 94.8 480h258.4c52.4 0 94.8-42.4 94.8-94.8V126.8c0-52.4-42.4-94.8-94.8-94.8zM144.9 200.9v56.3c0 27-21.9 48.9-48.9 48.9V151.9c0-13.2 10.7-23.9 23.9-23.9h154.2c0 27-21.9 48.9-48.9 48.9h-56.3c-12.3-.6-24.6 11.6-24 24zm176.3 72h-56.3c-12.3-.6-24.6 11.6-24 24v56.3c0 27-21.9 48.9-48.9 48.9V247.9c0-13.2 10.7-23.9 23.9-23.9h154.2c0 27-21.9 48.9-48.9 48.9z"/></svg><svg viewBox="-53.33 -53.33 746.67 618.67" width="28" height="23.2" id="font-awesome-robot" x="106" xmlns="http://www.w3.org/2000/svg"><path d="M32 224h32v192H32a31.962 31.962 0 01-32-32V256a31.962 31.962 0 0132-32zm512-48v272a64.063 64.063 0 01-64 64H160a64.063 64.063 0 01-64-64V176a79.974 79.974 0 0180-80h112V32a32 32 0 0164 0v64h112a79.974 79.974 0 0180 80zm-280 80a40 40 0 10-40 40 39.997 39.997 0 0040-40zm-8 128h-64v32h64zm96 0h-64v32h64zm104-128a40 40 0 10-40 40 39.997 39.997 0 0040-40zm-8 128h-64v32h64zm192-128v128a31.962 31.962 0 01-32 32h-32V224h32a31.962 31.962 0 0132 32z"/></svg><svg viewBox="-42.67 -42.67 533.33 597.33" width="25" height="28" id="font-awesome-speakap" x="106" y="23.2" xmlns="http://www.w3.org/2000/svg"><path d="M64 391.78C-15.41 303.59-8 167.42 80.64 87.64s224.8-73 304.21 15.24 72 224.36-16.64 304.14c-18.74 16.87 64 43.09 42 52.26-82.06 34.21-253.91 35-346.23-67.5zm213.31-211.6l38.5-40.86c-9.61-8.89-32-26.83-76.17-27.6-52.33-.91-95.86 28.3-96.77 80-.2 11.33.29 36.72 29.42 54.83 34.46 21.42 86.52 21.51 86 52.26-.37 21.28-26.42 25.81-38.59 25.6-3-.05-30.23-.46-47.61-24.62l-40 42.61c28.16 27 59 32.62 83.49 33.05 10.23.18 96.42.33 97.84-81 .28-15.81-2.07-39.72-28.86-56.59-34.36-21.64-85-19.45-84.43-49.75.41-23.25 31-25.37 37.53-25.26.43 0 26.62.26 39.62 17.37z"/></svg><svg viewBox="-42.67 -42.67 469.33 597.33" width="22" height="28" id="font-awesome-tenge" x="106" y="51.2" xmlns="http://www.w3.org/2000/svg"><path d="M372 160H12c-6.6 0-12 5.4-12 12v56c0 6.6 5.4 12 12 12h140v228c0 6.6 5.4 12 12 12h56c6.6 0 12-5.4 12-12V240h140c6.6 0 12-5.4 12-12v-56c0-6.6-5.4-12-12-12zm0-128H12C5.4 32 0 37.4 0 44v56c0 6.6 5.4 12 12 12h360c6.6 0 12-5.4 12-12V44c0-6.6-5.4-12-12-12z"/></svg><svg viewBox="-42.67 -42.67 405.33 597.33" width="19" height="28" id="font-awesome-walking" y="84" xmlns="http://www.w3.org/2000/svg"><path d="M208 96c26.5 0 48-21.5 48-48S234.5 0 208 0s-48 21.5-48 48 21.5 48 48 48zm94.5 149.1l-23.3-11.8-9.7-29.4c-14.7-44.6-55.7-75.8-102.2-75.9-36-.1-55.9 10.1-93.3 25.2-21.6 8.7-39.3 25.2-49.7 46.2L17.6 213c-7.8 15.8-1.5 35 14.2 42.9 15.6 7.9 34.6 1.5 42.5-14.3L81 228c3.5-7 9.3-12.5 16.5-15.4l26.8-10.8-15.2 60.7c-5.2 20.8.4 42.9 14.9 58.8l59.9 65.4c7.2 7.9 12.3 17.4 14.9 27.7l18.3 73.3c4.3 17.1 21.7 27.6 38.8 23.3 17.1-4.3 27.6-21.7 23.3-38.8l-22.2-89c-2.6-10.3-7.7-19.9-14.9-27.7l-45.5-49.7 17.2-68.7 5.5 16.5c5.3 16.1 16.7 29.4 31.7 37l23.3 11.8c15.6 7.9 34.6 1.5 42.5-14.3 7.7-15.7 1.4-35.1-14.3-43zM73.6 385.8c-3.2 8.1-8 15.4-14.2 21.5l-50 50.1c-12.5 12.5-12.5 32.8 0 45.3s32.7 12.5 45.2 0l59.4-59.4c6.1-6.1 10.9-13.4 14.2-21.5l13.5-33.8c-55.3-60.3-38.7-41.8-47.4-53.7l-20.7 51.5z"/></svg></svg>