<?xml version="1.0" encoding="iso-8859-1"?><!DOCTYPE svg PUBLIC "-//W3C//DTD SVG 1.1//EN" "http://www.w3.org/Graphics/SVG/1.1/DTD/svg11.dtd"><svg width="112" height="112" viewBox="0 0 112 112" xmlns="http://www.w3.org/2000/svg" xmlns:xlink="http://www.w3.org/1999/xlink"><svg viewBox="-42.67 -42.67 597.33 597.33" width="28" height="28" id="fxemoji-u1F307-sunsetoverbuildings" xmlns="http://www.w3.org/2000/svg"><path fill="#FC7E17" d="M500.951 489.617c0 6.6-5.4 12-12 12H21.716c-6.6 0-12-5.4-12-12V22.383c0-6.6 5.4-12 12-12H488.95c6.6 0 12 5.4 12 12"/><circle fill="#FFC033" cx="263.672" cy="131.315" r="95.714"/><path fill="#D1552A" d="M455.237 501.617V331.889a3.242 3.242 0 013.242-3.242h42.472v160.97c0 6.6-5.4 12-12 12h-33.714zm-392-231.174H9.716v219.174c0 6.6 5.4 12 12 12h44.763V273.685a3.241 3.241 0 00-3.242-3.242zm367.731-66.589H293.092a4.176 4.176 0 00-4.176 4.176v293.588h146.226V208.03a4.174 4.174 0 00-4.174-4.176zm-197.65 108.037h-87.85a2.661 2.661 0 00-2.661 2.661v187.066h93.171V314.551a2.66 2.66 0 00-2.66-2.66z"/><path fill="#ED8135" d="M25.246 334.437h-8.44a2.34 2.34 0 01-2.34-2.34v-25.908a2.34 2.34 0 012.34-2.34h8.44a2.34 2.34 0 012.34 2.34v25.908a2.34 2.34 0 01-2.34 2.34zm27.053-2.339V306.19a2.34 2.34 0 00-2.34-2.34h-8.44a2.34 2.34 0 00-2.34 2.34v25.908a2.34 2.34 0 002.34 2.34h8.44a2.341 2.341 0 002.34-2.34zm-24.713 48.13V354.32a2.34 2.34 0 00-2.34-2.34h-8.44a2.34 2.34 0 00-2.34 2.34v25.908a2.34 2.34 0 002.34 2.34h8.44a2.341 2.341 0 002.34-2.34zm24.713 0V354.32a2.34 2.34 0 00-2.34-2.34h-8.44a2.34 2.34 0 00-2.34 2.34v25.908a2.34 2.34 0 002.34 2.34h8.44a2.341 2.341 0 002.34-2.34zm-24.713 47.035v-25.908a2.34 2.34 0 00-2.34-2.34h-8.44a2.34 2.34 0 00-2.34 2.34v25.908a2.34 2.34 0 002.34 2.34h8.44a2.341 2.341 0 002.34-2.34zm24.713 0v-25.908a2.34 2.34 0 00-2.34-2.34h-8.44a2.34 2.34 0 00-2.34 2.34v25.908a2.34 2.34 0 002.34 2.34h8.44a2.341 2.341 0 002.34-2.34zm-24.713 48.13v-25.908a2.34 2.34 0 00-2.34-2.34h-8.44a2.34 2.34 0 00-2.34 2.34v25.908a2.34 2.34 0 002.34 2.34h8.44a2.341 2.341 0 002.34-2.34zm24.713 0v-25.908a2.34 2.34 0 00-2.34-2.34h-8.44a2.34 2.34 0 00-2.34 2.34v25.908a2.34 2.34 0 002.34 2.34h8.44a2.341 2.341 0 002.34-2.34zm300.917-192.125v-33.371a3.014 3.014 0 00-3.014-3.014h-10.871a3.014 3.014 0 00-3.014 3.014v33.371a3.014 3.014 0 003.014 3.014h10.871a3.014 3.014 0 003.014-3.014zm31.831 0v-33.371a3.014 3.014 0 00-3.014-3.014h-10.871a3.014 3.014 0 00-3.014 3.014v33.371a3.014 3.014 0 003.014 3.014h10.871a3.013 3.013 0 003.014-3.014zm31.831 0v-33.371a3.014 3.014 0 00-3.014-3.014h-10.871a3.014 3.014 0 00-3.014 3.014v33.371a3.014 3.014 0 003.014 3.014h10.871a3.013 3.013 0 003.014-3.014zm-63.662 61.994v-33.371a3.014 3.014 0 00-3.014-3.014h-10.871a3.014 3.014 0 00-3.014 3.014v33.371a3.014 3.014 0 003.014 3.014h10.871a3.015 3.015 0 003.014-3.014zm31.831 0v-33.371a3.014 3.014 0 00-3.014-3.014h-10.871a3.014 3.014 0 00-3.014 3.014v33.371a3.014 3.014 0 003.014 3.014h10.871a3.014 3.014 0 003.014-3.014zm31.831 0v-33.371a3.014 3.014 0 00-3.014-3.014h-10.871a3.014 3.014 0 00-3.014 3.014v33.371a3.014 3.014 0 003.014 3.014h10.871a3.014 3.014 0 003.014-3.014zm-63.662 60.583v-33.371a3.014 3.014 0 00-3.014-3.014h-10.871a3.014 3.014 0 00-3.014 3.014v33.371a3.014 3.014 0 003.014 3.014h10.871a3.014 3.014 0 003.014-3.014zm31.831 0v-33.371a3.014 3.014 0 00-3.014-3.014h-10.871a3.014 3.014 0 00-3.014 3.014v33.371a3.014 3.014 0 003.014 3.014h10.871a3.013 3.013 0 003.014-3.014zm-31.831 61.994v-33.371a3.014 3.014 0 00-3.014-3.014h-10.871a3.014 3.014 0 00-3.014 3.014v33.371a3.014 3.014 0 003.014 3.014h10.871a3.015 3.015 0 003.014-3.014zm31.831 0v-33.371a3.014 3.014 0 00-3.014-3.014h-10.871a3.014 3.014 0 00-3.014 3.014v33.371a3.014 3.014 0 003.014 3.014h10.871a3.015 3.015 0 003.014-3.014z"/><path fill="#2B3B47" d="M342.349 246.034v255.583H215.052V246.034a3.634 3.634 0 013.635-3.635h120.027a3.634 3.634 0 013.635 3.635zm136.165 123.652H372.888a2.212 2.212 0 00-2.097 2.918l3.973 11.805c.12.357.328.665.591.91a2.396 2.396 0 00-.084.597v115.701h100.86V385.916c0-.207-.034-.405-.084-.597.263-.245.471-.553.591-.91l3.973-11.805a2.213 2.213 0 00-2.097-2.918zM190.378 228.355a4.333 4.333 0 004.333-4.333v-10.48a4.333 4.333 0 00-4.333-4.333H159.868v-15.214c3.396-1.251 5.823-4.506 5.823-8.336v-17.782a8.89 8.89 0 00-8.891-8.891H77.326a8.89 8.89 0 00-8.891 8.891v17.782c0 3.83 2.427 7.085 5.823 8.336v15.214H43.748a4.333 4.333 0 00-4.333 4.333v10.48a4.333 4.333 0 004.333 4.333h2.049v66.674h-2.049a4.333 4.333 0 00-4.333 4.333v10.48a4.333 4.333 0 004.333 4.333h2.049V434.66h-2.049a4.333 4.333 0 00-4.333 4.333v10.48a4.333 4.333 0 004.333 4.333h2.049v47.81h143.597v-47.81h.985a4.333 4.333 0 004.333-4.333v-10.48a4.333 4.333 0 00-4.333-4.333h-.985V314.176h.985a4.333 4.333 0 004.333-4.333v-10.48a4.333 4.333 0 00-4.333-4.333h-.985v-66.674h.984zm-38.325-19.146h-69.98V194.55h69.98v14.659z"/><path fill="#FFCF53" d="M240.693 314.157h-9.464a2.624 2.624 0 01-2.624-2.624v-29.051a2.624 2.624 0 012.624-2.624h9.464a2.624 2.624 0 012.624 2.624v29.051a2.625 2.625 0 01-2.624 2.624zm30.334-2.624v-29.051a2.624 2.624 0 00-2.624-2.624h-9.464a2.624 2.624 0 00-2.624 2.624v29.051a2.624 2.624 0 002.624 2.624h9.464a2.624 2.624 0 002.624-2.624zm27.711 0v-29.051a2.624 2.624 0 00-2.624-2.624h-9.464a2.624 2.624 0 00-2.624 2.624v29.051a2.624 2.624 0 002.624 2.624h9.464a2.624 2.624 0 002.624-2.624zm27.711 0v-29.051a2.624 2.624 0 00-2.624-2.624h-9.464a2.624 2.624 0 00-2.624 2.624v29.051a2.624 2.624 0 002.624 2.624h9.464a2.624 2.624 0 002.624-2.624zm-83.133 53.969v-29.051a2.624 2.624 0 00-2.624-2.624h-9.464a2.624 2.624 0 00-2.624 2.624v29.051a2.624 2.624 0 002.624 2.624h9.464a2.624 2.624 0 002.624-2.624zm27.711 0v-29.051a2.624 2.624 0 00-2.624-2.624h-9.464a2.624 2.624 0 00-2.624 2.624v29.051a2.624 2.624 0 002.624 2.624h9.464a2.624 2.624 0 002.624-2.624zm27.711 0v-29.051a2.624 2.624 0 00-2.624-2.624h-9.464a2.624 2.624 0 00-2.624 2.624v29.051a2.624 2.624 0 002.624 2.624h9.464a2.625 2.625 0 002.624-2.624zm27.711 0v-29.051a2.624 2.624 0 00-2.624-2.624h-9.464a2.624 2.624 0 00-2.624 2.624v29.051a2.624 2.624 0 002.624 2.624h9.464a2.625 2.625 0 002.624-2.624zm-83.133 52.741v-29.051a2.624 2.624 0 00-2.624-2.624h-9.464a2.624 2.624 0 00-2.624 2.624v29.051a2.624 2.624 0 002.624 2.624h9.464a2.624 2.624 0 002.624-2.624zm27.711 0v-29.051a2.624 2.624 0 00-2.624-2.624h-9.464a2.624 2.624 0 00-2.624 2.624v29.051a2.624 2.624 0 002.624 2.624h9.464a2.624 2.624 0 002.624-2.624zm27.711 0v-29.051a2.624 2.624 0 00-2.624-2.624h-9.464a2.624 2.624 0 00-2.624 2.624v29.051a2.624 2.624 0 002.624 2.624h9.464a2.625 2.625 0 002.624-2.624zm27.711 0v-29.051a2.624 2.624 0 00-2.624-2.624h-9.464a2.624 2.624 0 00-2.624 2.624v29.051a2.624 2.624 0 002.624 2.624h9.464a2.625 2.625 0 002.624-2.624zm-83.133 53.968V443.16a2.624 2.624 0 00-2.624-2.624h-9.464a2.624 2.624 0 00-2.624 2.624v29.051a2.624 2.624 0 002.624 2.624h9.464a2.624 2.624 0 002.624-2.624zm27.711 0V443.16a2.624 2.624 0 00-2.624-2.624h-9.464a2.624 2.624 0 00-2.624 2.624v29.051a2.624 2.624 0 002.624 2.624h9.464a2.624 2.624 0 002.624-2.624zm27.711 0V443.16a2.624 2.624 0 00-2.624-2.624h-9.464a2.624 2.624 0 00-2.624 2.624v29.051a2.624 2.624 0 002.624 2.624h9.464a2.624 2.624 0 002.624-2.624zm27.711 0V443.16a2.624 2.624 0 00-2.624-2.624h-9.464a2.624 2.624 0 00-2.624 2.624v29.051a2.624 2.624 0 002.624 2.624h9.464a2.624 2.624 0 002.624-2.624zM74.327 364.136v-26.151a2.362 2.362 0 00-2.362-2.362h-8.519a2.362 2.362 0 00-2.362 2.362v26.151a2.362 2.362 0 002.362 2.362h8.519a2.363 2.363 0 002.362-2.362zm24.944 0v-26.151a2.362 2.362 0 00-2.362-2.362H88.39a2.362 2.362 0 00-2.362 2.362v26.151a2.362 2.362 0 002.362 2.362h8.519a2.363 2.363 0 002.362-2.362zm24.944 0v-26.151a2.362 2.362 0 00-2.362-2.362h-8.519a2.362 2.362 0 00-2.362 2.362v26.151a2.362 2.362 0 002.362 2.362h8.519a2.363 2.363 0 002.362-2.362zm24.944 0v-26.151a2.362 2.362 0 00-2.362-2.362h-8.519a2.362 2.362 0 00-2.362 2.362v26.151a2.362 2.362 0 002.362 2.362h8.519a2.363 2.363 0 002.362-2.362zm24.945 0v-26.151a2.362 2.362 0 00-2.362-2.362h-8.519a2.362 2.362 0 00-2.362 2.362v26.151a2.362 2.362 0 002.362 2.362h8.519a2.363 2.363 0 002.362-2.362zm-99.777-87.147v-26.151a2.362 2.362 0 00-2.362-2.362h-8.519a2.362 2.362 0 00-2.362 2.362v26.151a2.362 2.362 0 002.362 2.362h8.519a2.363 2.363 0 002.362-2.362zm24.944 0v-26.151a2.362 2.362 0 00-2.362-2.362H88.39a2.362 2.362 0 00-2.362 2.362v26.151a2.362 2.362 0 002.362 2.362h8.519a2.363 2.363 0 002.362-2.362zm24.944 0v-26.151a2.362 2.362 0 00-2.362-2.362h-8.519a2.362 2.362 0 00-2.362 2.362v26.151a2.362 2.362 0 002.362 2.362h8.519a2.363 2.363 0 002.362-2.362zm24.944 0v-26.151a2.362 2.362 0 00-2.362-2.362h-8.519a2.362 2.362 0 00-2.362 2.362v26.151a2.362 2.362 0 002.362 2.362h8.519a2.363 2.363 0 002.362-2.362zm24.945 0v-26.151a2.362 2.362 0 00-2.362-2.362h-8.519a2.362 2.362 0 00-2.362 2.362v26.151a2.362 2.362 0 002.362 2.362h8.519a2.363 2.363 0 002.362-2.362zM74.327 412.716v-26.151a2.362 2.362 0 00-2.362-2.362h-8.519a2.362 2.362 0 00-2.362 2.362v26.151a2.362 2.362 0 002.362 2.362h8.519a2.363 2.363 0 002.362-2.362zm24.944 0v-26.151a2.362 2.362 0 00-2.362-2.362H88.39a2.362 2.362 0 00-2.362 2.362v26.151a2.362 2.362 0 002.362 2.362h8.519a2.363 2.363 0 002.362-2.362zm24.944 0v-26.151a2.362 2.362 0 00-2.362-2.362h-8.519a2.362 2.362 0 00-2.362 2.362v26.151a2.362 2.362 0 002.362 2.362h8.519a2.363 2.363 0 002.362-2.362zm24.944 0v-26.151a2.362 2.362 0 00-2.362-2.362h-8.519a2.362 2.362 0 00-2.362 2.362v26.151a2.362 2.362 0 002.362 2.362h8.519a2.363 2.363 0 002.362-2.362zm24.945 0v-26.151a2.362 2.362 0 00-2.362-2.362h-8.519a2.362 2.362 0 00-2.362 2.362v26.151a2.362 2.362 0 002.362 2.362h8.519a2.363 2.363 0 002.362-2.362zm242.504 30.937V415.54a6.191 6.191 0 00-6.191-6.191h-13.393a6.191 6.191 0 00-6.191 6.191v28.113a6.191 6.191 0 006.191 6.191h13.393a6.191 6.191 0 006.191-6.191zm44.36 0V415.54a6.191 6.191 0 00-6.191-6.191h-13.393a6.191 6.191 0 00-6.191 6.191v28.113a6.191 6.191 0 006.191 6.191h13.393a6.192 6.192 0 006.191-6.191z"/></svg><svg viewBox="-42.67 -42.67 597.33 597.33" width="28" height="28" id="fxemoji-u1F31B-firstquartermoonface" x="28" xmlns="http://www.w3.org/2000/svg"><path d="M159.035 400.089l-.038.008c13.087-20.624 12.247-28.911 12.247-36.246 0-12.502 38.144 3.06 54.538-14.73 2.798-3.03.495-7.927-3.614-7.612-19.635 1.53-42.787-2.535-42.787-9.93 0-5.22 11.55-17.107 15.547-30.404-23.571-1.732-56.51-7.792-46.378-23.714 11.43-17.969 49.356-76.265 37.506-116.246a261.264 261.264 0 00-4.642-10.627c-.015-.023-.022-.038-.038-.06l.016.023C160.67 105.995 127.236 68.549 85.755 42.81c-7.207-4.47-6.284-15.157 1.568-18.367C116.294 12.622 147.928 6 181.151 6c138.07 0 249.996 111.934 249.996 250.004S319.221 506 181.151 506c-32.902 0-64.235-6.495-92.974-18.097-8.205-3.307-9.165-14.49-1.665-19.184a252.702 252.702 0 0072.523-68.63" fill="#fde364"/><path d="M277.672 182.415c10.844 0 19.634 8.79 19.634 19.634v24.134c0 10.837-8.79 19.634-19.634 19.634-10.845 0-19.635-8.797-19.635-19.634V202.05c0-10.845 8.79-19.635 19.635-19.635" fill="#2c3c47"/><path d="M254.637 159.609a6.854 6.854 0 01-5.535-10.892c6.936-9.519 17.342-14.98 28.549-14.984h.013c11.213 0 21.628 5.458 28.575 14.98a6.852 6.852 0 01-1.496 9.577 6.852 6.852 0 01-9.577-1.496c-4.338-5.944-10.719-9.353-17.503-9.353h-.008c-6.777.003-13.147 3.411-17.475 9.35a6.842 6.842 0 01-5.543 2.818z" fill="#fbb436"/></svg><svg viewBox="-42.67 -42.67 597.33 597.33" width="28" height="28" id="fxemoji-u1F322-blackdroplet" y="28" xmlns="http://www.w3.org/2000/svg"><path fill="#00B1FF" d="M261.891 12.452s.725 3.365 2.765 9.254c1.914 5.889 5.213 14.301 9.64 24.396 2.427 5.048 4.767 10.516 7.77 16.299 3.079 5.784 5.902 11.883 9.612 18.192 3.632 6.309 7.066 12.829 11.189 19.454l12.123 20.085c3.961 6.73 8.442 13.46 12.575 20.085 4.184 6.625 8.294 13.145 12.556 19.454 4.225 6.309 8.143 12.409 12.155 18.192l11.303 16.299 17.868 24.396 7.202 9.254c57.709 74.151 44.38 181.045-29.771 238.754s-181.045 44.38-238.754-29.771c-48.824-62.735-46.685-148.989 0-208.983l7.202-9.254 17.868-24.396 11.303-16.299c4.012-5.784 7.931-11.883 12.155-18.192 4.262-6.309 8.372-12.829 12.556-19.454 4.132-6.625 8.613-13.355 12.575-20.085l12.123-20.085c4.123-6.625 7.557-13.145 11.189-19.454 3.709-6.309 6.533-12.409 9.612-18.192 3.003-5.784 5.344-11.252 7.77-16.299 4.427-10.095 7.726-18.508 9.64-24.396 2.04-5.889 2.765-9.254 2.765-9.254a7.675 7.675 0 0115.009 0z"/><path fill="#76DFFF" d="M162.843 260.414l-.988 4.458c-.35 1.438-.734 3.184-.76 4.824-.092 1.79-.365 3.415-.339 5.751.003 2.242-.166 4.545.074 7.104.116 2.509.314 5.125.736 7.855.66 5.395 1.976 11.114 3.575 16.647 3.231 11.107 8.165 21.538 12.413 28.164a49.992 49.992 0 005.21 7.023l1.882 1.677c13.78 12.276 14.999 33.399 2.723 47.178-12.276 13.78-33.399 14.999-47.178 2.723a33.261 33.261 0 01-10.052-16.297l-1.615-6.023-1.732-6.442c-.812-3.863-1.753-9.208-2.185-15.196-1.008-12.035-.447-27.26 2.327-42.032 1.404-7.384 3.223-14.623 5.595-21.229 1.089-3.3 2.381-6.436 3.69-9.356 1.174-2.926 2.719-5.607 3.97-8.048 1.172-2.386 2.827-4.801 4.005-6.736 1.241-2.097 2.348-3.445 3.264-4.538l2.87-3.549a7.137 7.137 0 0110.037-1.062c2.174 1.758 3.04 4.547 2.478 7.104z"/></svg><svg viewBox="-42.67 -42.67 597.33 597.33" width="28" height="28" id="fxemoji-u1F33A-hibiscus" x="28" y="28" xmlns="http://www.w3.org/2000/svg"><path fill="#00B89C" d="M355.074 370.512c-15.472-16.2-29.694-49.052-37.645-69.73-3.475-9.036 3.015-20.297 12.577-21.825 21.882-3.497 57.421-7.627 79.099-2.074 37.13 9.51 69.773 41.445 86.522 74.031-2.777-5.432-7.948-15.576.15.262 1.942 3.822 1.422 2.813.196.415 4.785 9.464 10.115 26.081 13.322 36.781 1.695 5.655-1.56 11.344-7.299 12.767-10.938 2.712-28.145 6.609-38.773 7.204 2.689-.138 3.823-.193-.458.038-17.765.913 5.78-.213-.302.001-38.314 1.346-81.456-10.716-107.389-37.87zM208.92 307.179c3.133-6.461-8.682 18.713.166-.316 2.12-4.591 1.552-3.379.213-.498 5.242-11.411 10.671-31.515 13.877-44.425 1.682-6.774-2.454-13.327-9.286-14.7-12.926-2.599-33.194-6.271-45.701-6.538 3.176.053 4.515.072-.541-.026-20.982-.353-7.553-.111-.357.011-43.218-.635-94.526 15.662-124.925 49.092-17.749 19.518-33.049 58.864-41.473 83.62-3.681 10.818 4.48 23.838 15.819 25.234 25.948 3.194 68.049 6.611 93.476-.522 42.623-11.958 79-50.238 98.732-90.932z"/><path fill="#FF929D" d="M449.95 201.206c-13.858-47.642-26.576-85.831-74.218-71.973-.873.254-1.747.534-2.623.835a90.077 90.077 0 00-18.675 8.489c-3.981 2.393-8.768-1.295-7.581-5.786a89.818 89.818 0 002.973-22.983c0-49.616-40.222-51.161-89.838-51.161-49.616 0-89.838 1.545-89.838 51.161 0 .908.024 1.826.07 2.75a90.229 90.229 0 001.928 16.057c.922 4.332-3.66 7.784-7.508 5.59a89.746 89.746 0 00-17.409-7.608c-47.307-14.961-60.908 22.923-75.87 70.23-14.961 47.307-25.617 86.123 21.69 101.084.866.274 1.748.527 2.643.763a90.096 90.096 0 0013.553 2.744c4.297.53 6.033 5.818 2.894 8.8a89.716 89.716 0 00-10.902 12.47c-29.076 40.204 2.611 65.027 42.816 94.102 40.204 29.075 73.702 51.394 102.777 11.19a57.027 57.027 0 001.557-2.271l.053-.078c2.148-3.174 6.895-3.111 8.755.24a86.59 86.59 0 001.508 2.608c25.599 42.503 60.851 23.074 103.354-2.524 42.503-25.599 76.161-47.674 50.562-90.177a56.749 56.749 0 00-1.479-2.32 89.661 89.661 0 00-16.525-19.115c-3.641-3.168-1.364-9.171 3.461-9.02a89.532 89.532 0 0027.841-3.544c47.64-13.859 37.889-52.912 24.031-100.553z"/><path fill="#F8BBC6" d="M350.536 207.093l-.41-.268c-.275-.189-.67-.436-1.17-.715l-1.859-1.076c-.709-.361-1.539-.817-2.432-1.229-.895-.418-1.891-.892-2.936-1.302-1.064-.463-2.178-.862-3.365-1.279a56.502 56.502 0 00-7.726-2.129c-5.498-1.111-11.567-1.466-17.645-.684-3.043.38-6.075 1.08-9.087 1.98-3.018.873-6.032 1.9-9.017 3.008-.109-2.984-.289-5.964-.603-8.894-.308-3.128-.809-6.199-1.61-9.16-1.579-5.921-4.207-11.404-7.318-16.071a56.446 56.446 0 00-4.898-6.344c-.835-.94-1.627-1.82-2.458-2.63-.775-.812-1.591-1.553-2.317-2.224-.719-.671-1.456-1.266-2.059-1.785l-1.701-1.313a15.356 15.356 0 00-1.105-.812l-.404-.278c-9.056-6.214-21.484-6.089-30.479 1.152l-.382.307c-.265.203-.621.503-1.04.893l-1.597 1.437c-.562.563-1.251 1.212-1.918 1.935-.673.723-1.431 1.524-2.142 2.392-.768.87-1.491 1.807-2.253 2.808a56.433 56.433 0 00-4.404 6.696c-2.75 4.889-4.956 10.554-6.084 16.578-.575 3.012-.843 6.112-.914 9.255-.098 3.144-.05 6.332.086 9.516.006.124.019.248.025.372-2.948-.748-5.912-1.418-8.866-1.947-3.089-.58-6.178-.96-9.244-1.02-6.126-.143-12.126.844-17.477 2.524a56.623 56.623 0 00-7.462 2.924c-1.137.538-2.203 1.052-3.213 1.624-.996.517-1.937 1.092-2.784 1.601-.845.503-1.623 1.043-2.29 1.476l-1.736 1.265c-.468.33-.835.616-1.089.833l-.38.31c-8.502 6.952-11.863 18.918-7.431 29.581l.188.452c.121.311.309.737.566 1.249l.932 1.935c.383.697.813 1.541 1.321 2.383.506.849 1.063 1.8 1.696 2.727.62.981 1.317 1.938 2.064 2.949a56.575 56.575 0 005.194 6.104c3.923 4.009 8.743 7.714 14.21 10.483 2.73 1.396 5.632 2.521 8.629 3.469.835.272 1.689.513 2.536.766-.512.72-1.037 1.435-1.528 2.164-1.78 2.591-3.375 5.263-4.67 8.043-2.607 5.546-4.129 11.432-4.756 17.006a56.46 56.46 0 00-.341 8.007c.033 1.257.072 2.44.186 3.595.07 1.12.216 2.213.339 3.193.118.976.298 1.906.425 2.691l.455 2.099c.112.561.226 1.013.322 1.333l.13.472c2.922 10.587 12.509 18.498 24.053 18.754l.49.011c.333.015.799.015 1.371-.013l2.147-.071c.792-.069 1.738-.121 2.714-.245.981-.119 2.076-.244 3.18-.449 1.148-.171 2.305-.421 3.532-.696a56.51 56.51 0 007.682-2.283c5.253-1.967 10.59-4.879 15.333-8.76 2.381-1.933 4.582-4.132 6.661-6.49.587-.654 1.152-1.338 1.726-2.01.452.759.894 1.529 1.361 2.273 1.651 2.675 3.449 5.215 5.469 7.522 4.019 4.626 8.787 8.398 13.632 11.225a56.486 56.486 0 007.186 3.549c1.163.478 2.261.92 3.364 1.283 1.053.389 2.112.697 3.058.98.941.286 1.864.498 2.633.7l2.104.432c.559.124 1.018.203 1.349.244l.485.072c10.865 1.606 21.976-3.964 26.876-14.42l.208-.444c.148-.299.337-.725.543-1.259l.803-1.992c.257-.753.592-1.639.873-2.581.287-.945.616-1.998.874-3.09.308-1.119.546-2.278.791-3.512.5-2.473.857-5.151 1.017-7.95.324-5.6-.182-11.659-1.814-17.565-.806-2.959-1.927-5.861-3.243-8.716-1.292-2.867-2.736-5.71-4.257-8.512-1.251-2.286-2.603-4.51-3.989-6.693 2.487-.708 4.976-1.47 7.43-2.345 2.999-1.081 5.968-2.243 8.84-3.525 2.881-1.256 5.649-2.678 8.219-4.352 5.147-3.325 9.555-7.513 13.037-11.911a56.523 56.523 0 004.528-6.613c.637-1.084 1.23-2.109 1.745-3.149.534-.988.988-1.992 1.402-2.889.416-.891.756-1.775 1.064-2.508l.725-2.022c.202-.536.344-.979.432-1.301l.14-.47c3.127-10.522-.819-22.308-10.478-28.636z"/><path fill="#FF473E" d="M244.546 249.384l-.012-.307c-.006-.239-.024-.44-.046-.697l-.234-2.696c-.142-1.265-.297-2.824-.562-4.633l-.422-2.887-.566-3.214c-.355-2.24-.95-4.664-1.47-7.225l-.977-3.922c-.333-1.338-.662-2.705-1.09-4.076l-1.226-4.189c-.4-1.418-.937-2.816-1.402-4.244-.497-1.419-.935-2.869-1.483-4.287l-1.662-4.255c-1.035-2.869-2.401-5.595-3.585-8.341-.31-.68-.593-1.37-.921-2.033l-1.008-1.965-1.967-3.854c-.325-.631-.632-1.264-.963-1.877l-1.045-1.785-2.011-3.451c-.672-1.109-1.237-2.241-1.939-3.239l-1.953-2.933-1.788-2.699c-.568-.856-1.085-1.683-1.663-2.396l-2.864-3.774-2.48-3.291-.644-.854c-6.078-8.064-4.468-19.528 3.596-25.606s19.528-4.468 25.606 3.596c.165.219.362.496.516.72l2.865 4.211 3.27 4.836c.653.919 1.245 1.961 1.891 3.046l2.024 3.42 2.191 3.719c.781 1.271 1.419 2.677 2.165 4.072l2.225 4.328 1.146 2.238c.363.764.701 1.549 1.056 2.333l2.136 4.786 1.084 2.439c.352.822.656 1.667.987 2.506 1.268 3.375 2.703 6.746 3.782 10.24l1.716 5.194c.561 1.729 1.007 3.485 1.508 5.208.469 1.733 1.006 3.43 1.401 5.145l1.201 5.063c.416 1.655.73 3.308 1.045 4.922l.914 4.732c.476 3.108 1.012 6.013 1.312 8.757l.476 3.919.334 3.571c.206 2.246.307 4.238.399 5.894l.085 2.244.025.984.013.87.006 1.095-.004.308c-.097 8.559-7.115 15.419-15.674 15.322-8.276-.094-14.963-6.657-15.309-14.829l-.005-.159z"/><path fill="#FFE564" d="M241.891 133.805l.001-.001-.017-.017a24.468 24.468 0 00-1.878-1.878l-15.395-15.395c-4.459-4.971-10.929-8.1-18.132-8.1-13.45 0-24.353 10.903-24.353 24.353 0 7.847 3.715 14.822 9.478 19.276l12.874 12.874c4.454 5.763 11.429 9.477 19.275 9.477 13.45 0 24.353-10.903 24.353-24.353a24.267 24.267 0 00-6.206-16.236z"/></svg><svg viewBox="-42.67 -42.67 597.33 597.33" width="28" height="28" id="fxemoji-u1F38A-confetti" x="56" xmlns="http://www.w3.org/2000/svg"><path fill="#2B3B47" d="M384.619 132.759a9.786 9.786 0 01-9.786 9.786c-53.909 0-100.22-33.129-119.662-80.093-19.443 46.965-65.754 80.093-119.664 80.093-5.405 0-9.786-4.381-9.786-9.786s4.381-9.786 9.786-9.786c60.586 0 109.877-49.291 109.877-109.877 0-5.405 4.381-9.786 9.786-9.786s9.787 4.381 9.787 9.786c0 60.586 49.29 109.877 109.876 109.877a9.786 9.786 0 019.786 9.786z"/><path fill="#FFB636" d="M1.265 227.373c0-66.976 54.295-121.271 121.271-121.271s121.271 54.295 121.271 121.271m266.928 0c0-66.976-54.295-121.271-121.271-121.271s-121.271 54.295-121.271 121.271"/><path fill="#FFD469" d="M37.587 227.373c0-66.976 72.099-121.271 84.949-121.271S84.12 160.397 84.12 227.373m266.928 0c0-66.976 51.266-121.271 38.416-121.271s-84.949 54.295-84.949 121.271"/><path fill="#A06C33" d="M122.536 250.252c-66.976 0-121.271-8.901-121.271-19.88 0-10.98 54.295-19.88 121.271-19.88s121.271 8.901 121.271 19.88-54.295 19.88-121.271 19.88zm388.199-19.88c0-10.98-54.295-19.88-121.271-19.88s-121.271 8.901-121.271 19.88c0 10.98 54.295 19.88 121.271 19.88s121.271-8.901 121.271-19.88z"/><path fill="#FFB636" d="M277.001 332.669c0 7.738-6.273 14.011-14.011 14.011s-14.011-6.273-14.011-14.011 6.273-14.011 14.011-14.011 14.011 6.274 14.011 14.011zM341.94 468.19c-6.828 0-12.363 5.535-12.363 12.363 0 6.828 5.535 12.363 12.363 12.363 6.828 0 12.363-5.535 12.363-12.363 0-6.827-5.535-12.363-12.363-12.363zM70.596 404.686c-6.828 0-12.363 5.535-12.363 12.363 0 6.828 5.535 12.363 12.363 12.363 6.828 0 12.363-5.535 12.363-12.363 0-6.828-5.535-12.363-12.363-12.363z"/><path fill="#BEA4FF" d="M151.693 475.554c0 8.939-7.247 16.186-16.186 16.186s-16.186-7.247-16.186-16.186 7.247-16.186 16.186-16.186c8.94-.001 16.186 7.246 16.186 16.186zM404.11 238.718c-5.911-6.059-14.208-10.141-23.364-11.494-5.341-.792-10.332 2.905-11.124 8.259-.791 5.353 2.906 10.333 8.259 11.124 4.866.719 9.314 2.831 12.205 5.793 1.295 1.328 3.4 4.013 2.947 7.079-.453 3.066-3.245 5.027-4.869 5.923-3.625 2.001-8.492 2.733-13.359 2.015-19.888-2.936-38.048 8.03-40.478 24.455-2.428 16.424 11.779 32.179 31.67 35.12.104.015.206.011.31.023 9.652 1.544 15.567 7.947 14.847 12.816-.453 3.065-3.245 5.027-4.869 5.923-3.625 2-8.492 2.736-13.359 2.015-19.887-2.938-38.048 8.03-40.478 24.455-2.428 16.424 11.779 32.179 31.67 35.12.485.071.968.106 1.445.106 4.776 0 8.959-3.498 9.679-8.365.791-5.352-2.906-10.332-8.259-11.124-9.836-1.454-15.88-7.951-15.152-12.871.728-4.922 8.39-9.399 18.229-7.938 2.191.324 4.382.484 6.548.484 6.878 0 13.506-1.616 19.143-4.727 8.164-4.505 13.553-11.872 14.786-20.213 2.428-16.424-11.779-32.179-31.67-35.12-.131-.019-.26-.024-.391-.038-9.603-1.567-15.484-7.946-14.767-12.8.728-4.922 8.392-9.397 18.229-7.938 2.192.324 4.382.484 6.548.484 6.879 0 13.506-1.616 19.143-4.727 8.164-4.505 13.553-11.872 14.786-20.213 1.233-8.341-1.794-16.952-8.305-23.626z"/><path fill="#FF6E83" d="M288.333 433.236c0 8.939-7.247 16.186-16.186 16.186s-16.186-7.247-16.186-16.186 7.247-16.186 16.186-16.186c8.939-.001 16.186 7.246 16.186 16.186zM120.579 268.85c-6.291-6.119-14.986-10.123-24.484-11.273-.133-.016-.264-.017-.396-.028-8.554-1.181-14.349-6.623-13.841-10.816.746-6.157-3.641-11.753-9.797-12.499-6.151-.74-11.753 3.641-12.499 9.797-2.127 17.559 12.731 33.317 33.827 35.874.118.014.233.011.35.021 4.442.605 8.503 2.419 11.18 5.023 1.139 1.108 3.006 3.336 2.708 5.801-.298 2.463-2.644 4.18-4.015 4.984-3.306 1.938-7.826 2.733-12.405 2.177-9.5-1.153-18.898.659-26.468 5.099-8.432 4.944-13.881 12.838-14.95 21.655-2.128 17.56 12.73 33.317 33.826 35.875.459.056.915.083 1.366.083 5.598 0 10.443-4.182 11.133-9.879.747-6.157-3.64-11.753-9.796-12.499-8.772-1.063-14.75-6.62-14.234-10.877.299-2.464 2.644-4.181 4.016-4.985 3.305-1.938 7.827-2.733 12.404-2.177 1.867.227 3.729.338 5.575.338 7.547 0 14.811-1.869 20.893-5.437 8.433-4.944 13.881-12.838 14.95-21.655 1.069-8.819-2.336-17.786-9.343-24.602zm333.116 229.3c5.186-3.4 6.633-10.361 3.231-15.548-37.634-57.386-8.78-97.837 8.458-122.005 2.097-2.939 4.077-5.716 5.692-8.206 3.375-5.203 1.894-12.157-3.31-15.532s-12.157-1.893-15.532 3.31c-1.346 2.075-3.102 4.536-5.135 7.387-17.856 25.035-55.014 77.129-8.954 147.363a11.221 11.221 0 009.401 5.072 11.17 11.17 0 006.149-1.841z"/><path fill="#59CAFC" d="M234.634 285.982c0 6.193-5.02 11.213-11.213 11.213s-11.213-5.02-11.213-11.213 5.02-11.213 11.213-11.213 11.213 5.02 11.213 11.213zm239.051-18.867c-6.012 0-10.885 4.874-10.885 10.885s4.873 10.885 10.885 10.885S484.57 284.011 484.57 278s-4.874-10.885-10.885-10.885zM161.53 431.654c1.691-1.831 3.719-3.888 5.867-6.066 10.897-11.054 25.822-26.191 32.28-46.893 7.758-24.87 1.097-51.3-19.8-78.557-3.627-4.732-10.402-5.624-15.132-1.999-4.73 3.627-5.625 10.401-1.999 15.132 16.61 21.665 21.95 40.963 16.325 58.995-4.899 15.703-17.179 28.159-27.045 38.167-2.274 2.307-4.422 4.485-6.352 6.574-4.044 4.379-3.773 11.207.605 15.251a10.75 10.75 0 007.321 2.865 10.76 10.76 0 007.93-3.469z"/></svg><svg viewBox="-42.67 -42.67 597.33 597.33" width="28" height="28" id="fxemoji-u1F3AD-performingarts" x="56" y="28" xmlns="http://www.w3.org/2000/svg"><path fill="#00BEEA" d="M503.508 240.511c-41.927-61.719-89.822-39.813-128.225-45.953-38.119-8.371-79.836-42.616-135.955-4.493-56.364 38.29-14.271 270.161 78.175 295.003l-.01.178c.768.147 1.538.278 2.31.397.755.173 1.513.333 2.275.479l.055-.165c95.213 11.149 223.423-183.549 181.375-245.446z"/><path fill="#FFD469" d="M271.293 26.909c-62.311-41.043-98.218-2.513-136.058 6.47C96.808 40.192 45.178 24.464 7.86 81.12c-37.482 56.905 89.93 255.153 184.858 242.828l.058.168c.765-.157 1.527-.33 2.286-.515a61.644 61.644 0 002.286-.426l-.012-.173c92.26-26.038 136.447-254.932 73.957-296.093z"/><path fill="#2B3B47" d="M318.213 297.626a7.018 7.018 0 01-6.98 6.295 7.017 7.017 0 01-5.941-3.286c-.125-.194-5.271-8.067-13.173-9.576-7.96-1.517-15.703 3.994-15.779 4.051a7.045 7.045 0 01-8.149.078c-2.448-1.712-3.562-4.773-2.748-7.647 3.855-13.63 17.197-21.921 31.05-19.271 13.838 2.642 23.176 15.263 21.72 29.356zm104.859-5.187c-13.855-2.647-27.195 5.642-31.05 19.271-.813 2.874.3 5.936 2.748 7.647a7.045 7.045 0 008.149-.078c.077-.057 7.818-5.568 15.779-4.051 7.902 1.509 13.048 9.382 13.173 9.576a7.018 7.018 0 007.515 3.107 7.017 7.017 0 005.406-6.116c1.458-14.091-7.88-26.712-21.72-29.356zM382.317 422.14c9.715 6.686 22.618-1.991 19.868-13.46-5.007-20.873-20.739-46.1-53.564-52.368-32.999-6.301-57.183 11.881-69.484 29.642-6.649 9.6 1.893 22.428 13.279 19.835 13.084-2.98 30.207-4.878 48.248-1.433 17.141 3.274 31.267 10.637 41.653 17.784zm-260.49-271.713c-4.032-13.582-17.478-21.68-31.282-18.843-13.807 2.841-22.982 15.594-21.343 29.663.346 2.967 2.543 5.372 5.46 6.02a7.006 7.006 0 001.51.166 7.058 7.058 0 005.993-3.349c.05-.081 5.099-8.133 13.037-9.767 7.892-1.623 15.659 3.704 15.832 3.824a7.016 7.016 0 0010.793-7.714zm126.223-25.975c-4.033-13.583-17.48-21.684-31.282-18.843-13.807 2.841-22.982 15.594-21.343 29.663.346 2.967 2.543 5.372 5.46 6.02a7.006 7.006 0 001.51.166 7.058 7.058 0 005.993-3.349c.05-.081 5.099-8.133 13.037-9.767 7.878-1.622 15.633 3.686 15.831 3.823a7.016 7.016 0 0010.794-7.713zm-118.421 87.661c-11.532-2.472-20.146 10.474-13.226 20.024 12.595 17.381 36.765 34.694 69.498 27.958 32.906-6.772 48.318-32.808 52.909-53.919 2.481-11.411-10.31-20.008-19.845-13.265-10.956 7.748-26.058 16.038-44.048 19.74-17.094 3.518-32.961 2.104-45.288-.538z"/></svg><svg viewBox="-42.67 -42.67 597.33 597.33" width="28" height="28" id="fxemoji-u1F3D7-construction" y="56" xmlns="http://www.w3.org/2000/svg"><style/><path fill="#597B91" d="M353.121 207.084H192.345a4.87 4.87 0 00-4.869 4.869v290.223a4.87 4.87 0 004.869 4.869H353.12a4.87 4.87 0 004.869-4.869V211.953a4.868 4.868 0 00-4.868-4.869z" id="aagLayer_2"/><path fill="#2B3B47" d="M234.551 336.73h-18.074a5.011 5.011 0 01-5.011-5.011v-73.954a5.011 5.011 0 015.011-5.011h18.074a5.011 5.011 0 015.011 5.011v73.954a5.011 5.011 0 01-5.011 5.011zm51.598-5.01v-73.954a5.011 5.011 0 00-5.011-5.011h-18.074a5.011 5.011 0 00-5.011 5.011v73.954a5.011 5.011 0 005.011 5.011h18.074a5.012 5.012 0 005.011-5.011zm46.588 0v-73.954a5.011 5.011 0 00-5.011-5.011h-18.074a5.011 5.011 0 00-5.011 5.011v73.954a5.011 5.011 0 005.011 5.011h18.074a5.012 5.012 0 005.011-5.011zm-93.175 148.205v-73.954a5.011 5.011 0 00-5.011-5.011h-18.074a5.011 5.011 0 00-5.011 5.011v73.954a5.011 5.011 0 005.011 5.011h18.074a5.012 5.012 0 005.011-5.011zm46.587 0v-73.954a5.011 5.011 0 00-5.011-5.011h-18.074a5.011 5.011 0 00-5.011 5.011v73.954a5.011 5.011 0 005.011 5.011h18.074a5.012 5.012 0 005.011-5.011zm46.588 0v-73.954a5.011 5.011 0 00-5.011-5.011h-18.074a5.011 5.011 0 00-5.011 5.011v73.954a5.011 5.011 0 005.011 5.011h18.074a5.012 5.012 0 005.011-5.011zm31.568-255.251v-12.445a5.145 5.145 0 00-5.145-5.145H185.043a5.145 5.145 0 00-5.145 5.145v12.445a5.145 5.145 0 005.145 5.145H359.16a5.144 5.144 0 005.145-5.145zm0 149.166v-12.445a5.145 5.145 0 00-5.145-5.145H185.043a5.145 5.145 0 00-5.145 5.145v12.445a5.145 5.145 0 005.145 5.145H359.16a5.144 5.144 0 005.145-5.145z" id="aagLayer_3"/><path fill="#E2AF8D" d="M210.583 508.027h-.121a6.005 6.005 0 01-6.005-6.005v-19.96a6.005 6.005 0 016.005-6.005h.121a6.005 6.005 0 016.005 6.005v19.96a6.006 6.006 0 01-6.005 6.005zm-58.691-6.005v-19.96a6.005 6.005 0 00-6.005-6.005h-.121a6.005 6.005 0 00-6.005 6.005v19.96a6.005 6.005 0 006.005 6.005h.121a6.006 6.006 0 006.005-6.005z" id="aagLayer_4"/><path fill="#E5E4DF" d="M140.266 454.462h76.322v29.316h-76.322z" id="aagLayer_5"/><path fill="#FF473E" d="M187.754 484L217 454.943v16.587L204.34 484h-16.586zm-31.43 0h16.587l29.315-30h-16.587l-29.315 30zm-2.115-30L140 468.405V484h1.481l29.316-30h-16.588z" id="aagLayer_6"/><path fill="#D8D8D8" d="M507.204 371.797c-.006-.092.099-.185.081-.276-.016-.08.01-.155-.014-.232-.018-.058-.003-.117-.027-.174a1.956 1.956 0 00-.111-.236c-.026-.046-.039-.094-.068-.138a2.17 2.17 0 00-.598-.602c-.055-.037-.113-.062-.17-.093-.067-.036-.13-.077-.2-.106-.073-.03-.148-.048-.224-.07-.061-.018-.118.072-.181.06-.14-.028-.282.07-.425.07H461.07c-.142 0-.285-.098-.425-.07-.063.012-.12-.021-.181-.003-.075.022-.151.011-.224.041-.071.029-.135.055-.201.092-.057.031-.117.049-.172.086a2.173 2.173 0 00-.602.599c-.029.044-.049.09-.075.136-.044.077-.09.152-.124.236-.023.057-.036.115-.054.173-.024.077-.053.151-.069.232-.018.091.028.184.021.276-.003.049.035.095.035.145V414h-42.128a2.16 2.16 0 00-.425.029c-.063.012-.12.029-.181.047-.075.022-.151.036-.224.066-.071.029-.135.068-.201.104-.057.031-.117.056-.172.092a2.183 2.183 0 00-.602.602c-.029.044-.049.092-.075.138-.044.077-.09.153-.124.236-.023.057-.036.116-.054.174-.024.077-.053.152-.069.232-.018.091.127.184.121.276-.003.049.134.095.134.145V458h-42.326c-.142 0-.285.099-.425.127-.063.012-.12.078-.181.096-.075.022-.151.061-.224.091-.071.029-.135.08-.201.117-.057.031-.117.062-.172.098a2.194 2.194 0 00-.602.605c-.029.044-.049.093-.075.139-.044.077-.09.154-.124.237-.023.057-.036.116-.054.174-.024.077-.053.152-.069.232-.018.091.226.184.22.276-.003.049.233.095.233.145v44.198c0 .05-.236.096-.233.145.006.092-.114.185-.096.276.016.081-.017.156.007.233.018.058 0 .117.023.173.034.083.065.159.109.237.026.045.037.093.067.137.159.238.36.443.598.603.054.036.11.06.166.091.068.037.132.078.204.108.072.03.146.047.219.068.062.018.121.19.185.202.14.028.282.19.424.19H505.265c.142 0 .284-.162.424-.19.064-.013.123-.11.185-.129.074-.022.148-.076.22-.105.072-.03.137-.089.205-.127.056-.031.114-.064.168-.1.238-.159.443-.369.602-.607.029-.044.049-.094.074-.139.044-.078.09-.155.125-.238.023-.056.035-.116.054-.174.024-.077.053-.152.069-.233.018-.091-.197-.184-.19-.276.003-.049-.204-.095-.204-.145V371.942c.003-.049.21-.096.207-.145zM375 465.573l16.864 16.864L375 499.301v-33.728zm67.136 16.864L459 465.573v33.728l-16.864-16.864zm-44 0L415 465.573v33.728l-16.864-16.864zM463 455.103v-33.727l16.863 16.863L463 455.103zm20.169-13.966L500.032 458h-33.727l16.864-16.863zM466.306 418h33.727l-16.863 16.863L466.306 418zm0-4l16.863-16.864L500.032 414h-33.726zM459 455.103l-16.864-16.863L459 421.376v33.727zM455.835 458h-33.727l16.864-16.863L455.835 458zm-19.971 24.437L419 499.301v-33.728l16.864 16.864zM422.107 463h33.728l-16.864 16.864L422.107 463zm57.756 19.437L463 499.301v-33.727l16.863 16.863zM466.306 463h33.727l-16.863 16.864L466.306 463zm19.831-24.761L503 421.376v33.727l-16.863-16.864zm0-44.197L503 377.178v33.727l-16.863-16.863zm-2.968-3.178L466.306 374h33.727l-16.864 16.864zm-3.306 3.178L463 410.905v-33.727l16.863 16.864zm-40.892 40.821L422.107 418h33.727l-16.863 16.863zm-3.107 3.376L419 455.103v-33.727l16.864 16.863zm-41.091 41.625L377.909 463h33.728l-16.864 16.864zm0 5.272L411.637 502h-33.728l16.864-16.864zm44.198 0L455.835 502h-33.728l16.864-16.864zm44.198 0L500.032 502h-33.727l16.864-16.864zm2.968-2.699L503 465.573V499.3l-16.863-16.863z" id="aagLayer_7"/><path fill="#D7F4F7" d="M350.517 71.566a2.77 2.77 0 01-.677-.084L94.423 7.04 16.102 66.389a2.76 2.76 0 01-3.333-4.399L93.202 1.04l257.987 65.09a2.76 2.76 0 01-.672 5.436z" id="aagLayer_8"/><path fill="#BFBCAF" d="M90.346 4.04h3.751a7.302 7.302 0 017.302 7.302v31.044H73.804L83.33 9.32a7.301 7.301 0 017.016-5.28z" id="aagLayer_9"/><path fill="#D1CFC3" d="M94.87 495.259H64.32a6.801 6.801 0 01-6.801-6.801V42.052a6.801 6.801 0 016.801-6.801h30.55a6.801 6.801 0 016.801 6.801v446.405a6.801 6.801 0 01-6.801 6.802z" id="aagLayer_10"/><path fill="#BFBCAF" d="M110.417 479.72H48.778a3.265 3.265 0 00-3.265 3.265v19.303a3.265 3.265 0 003.265 3.265h61.639a3.265 3.265 0 003.265-3.265v-19.303a3.265 3.265 0 00-3.265-3.265z" id="aagLayer_11"/><path fill="#D1CFC3" d="M353.161 101.92H52.154a4.793 4.793 0 01-1.684-.305L10.212 86.531a4.8 4.8 0 01-3.116-4.495V66.159a4.8 4.8 0 014.8-4.8h341.265a4.8 4.8 0 014.8 4.8V97.12a4.799 4.799 0 01-4.8 4.8z" id="aagLayer_12"/><path fill="#00B89C" d="M308 137v.929c-2-.556-3.705-.866-5.762-.866-11.494 0-20.734 9.318-20.734 20.812s9.202 20.812 20.695 20.812c2.057 0 3.8-.31 5.8-.866V179h81v-42H308z" id="aagLayer_13"/><circle fill="#009E83" cx="388.597" cy="157.875" r="20.812" id="aagLayer_14"/><path fill="#597B91" d="M326.657 174.647a7.441 7.441 0 01-7.441-7.441V85.363a7.441 7.441 0 0114.882 0v81.843a7.44 7.44 0 01-7.441 7.441z" id="aagLayer_15"/><path fill="#597B91" d="M345.017 194.008c-14.227 0-25.801-11.574-25.801-25.801a7.441 7.441 0 0114.882 0c0 6.02 4.897 10.918 10.918 10.918s10.918-4.898 10.918-10.918a7.441 7.441 0 0114.882 0c.001 14.226-11.573 25.801-25.799 25.801z" id="aagLayer_16"/><circle fill="#2B3B47" cx="388.597" cy="157.875" r="13.519" id="aagLayer_17"/><path fill="#00B89C" d="M348.963 137.063h-45.662v41.624h44.661z" id="aagLayer_18"/><path fill="#FF473E" d="M57.362 125.09H101.4v11.729H57.362z" id="aagLayer_19"/><path fill="#F4F3EF" d="M339.743 63.737c-.714-.789-1.743-.85-2.534-.135L303 94.742V64.189c0-.761-.638-1.452-1.333-1.761a1.922 1.922 0 00-2.073.327L264 94.762V65.767c0-.133-.11-.263-.135-.389.104-.57-.089-1.178-.508-1.641-.714-.789-2.049-.85-2.84-.135L226 94.742V64.189c0-.761-.355-1.452-1.051-1.761-.696-.311-1.649-.182-2.215.327L187 94.762V65.767c0-.132.172-.262.147-.387.105-.57.053-1.18-.367-1.643-.716-.79-1.763-.85-2.553-.135L150 94.742V64.189c0-.761-.573-1.452-1.268-1.761a1.979 1.979 0 00-2.106.327L111 94.762V65.767c0-.132-.045-.262-.07-.387a1.928 1.928 0 00-.475-1.643c-.715-.79-2.099-.85-2.889-.135L73 94.742V64.189c0-.761-.29-1.452-.986-1.761-.696-.311-1.43-.182-1.996.327L36.843 92.622c-.792.712-.837 1.932-.125 2.724.712.791 1.711.856 2.504.145L69 68.517v30.572c0 .763.678 1.454 1.375 1.763.251.111.632.166.896.166.47 0 .95-.171 1.312-.499L107 69.379V99.09c0 .761.488 1.452 1.184 1.761.252.112.54.167.805.167.467 0 .992-.17 1.353-.495L146 68.517v30.572c0 .763.396 1.454 1.093 1.763.697.308 1.726.177 2.292-.333L184 69.379V99.09c0 .761.206 1.452.901 1.761.696.311 1.223.182 1.79-.327L222 68.517v30.572c0 .763.613 1.454 1.31 1.763.251.111.6.166.864.166.47 0 .999-.171 1.361-.499L260 69.379V99.09c0 .761.423 1.452 1.119 1.761.252.112.507.167.773.167.467 0 1.041-.17 1.401-.495L299 68.517v30.572c0 .763.331 1.454 1.028 1.763.695.309 1.451.179 2.017-.333l37.592-34.058c.79-.714.821-1.934.106-2.724z" id="aagLayer_20"/><path fill="#2B3B47" d="M317.965 93.228h17.385v17.385h-17.385z" id="aagLayer_21"/><circle fill="#FF473E" cx="326.657" cy="85.363" r="16.557" id="aagLayer_22"/><circle fill="#FFF" cx="326.657" cy="85.363" r="8.692" id="aagLayer_23"/><path fill="#BFBCAF" d="M57.362 61.359h44.037v40.562H57.362z" id="aagLayer_24"/></svg><svg viewBox="-42.42 -42.42 593.88 593.88" width="28" height="28" id="fxemoji-u1F3D8-housebuildings" x="28" y="56" xmlns="http://www.w3.org/2000/svg"><path fill="#BFBCAF" d="M484.785 215.417H353.282a3.845 3.845 0 00-3.845 3.845v167.926a3.845 3.845 0 003.845 3.845h131.503a3.845 3.845 0 003.845-3.845V219.262a3.844 3.844 0 00-3.845-3.845z"/><path fill="#A8A8A8" d="M323.43 136.439H152.171a4.278 4.278 0 00-4.278 4.278v246.038a4.278 4.278 0 004.278 4.278H323.43a4.278 4.278 0 004.278-4.278V140.717a4.278 4.278 0 00-4.278-4.278z"/><path fill="#8E6049" d="M487.908 392.44a2.57 2.57 0 01-2.57-2.57v-72.498a2.57 2.57 0 115.14 0v72.498a2.57 2.57 0 01-2.57 2.57zm-315.718-5.967v-71.729a7.89 7.89 0 10-15.778 0v71.729a7.89 7.89 0 1015.778 0z"/><path fill="#597B91" d="M131.65 239.588a3.822 3.822 0 00-3.822-3.822H8.642a3.822 3.822 0 00-3.822 3.822v73.901c0 .531.108 1.572.304 2.833a3.814 3.814 0 00-.304 1.495v69.395a3.822 3.822 0 003.822 3.822h119.186a3.822 3.822 0 003.822-3.822v-69.395c0-.531-.109-1.036-.304-1.495.196-1.261.304-2.302.304-2.833v-73.901z"/><path fill="#2B3B47" d="M390.579 306.192h-15.218a7.035 7.035 0 01-7.035-7.035v-31.946a7.035 7.035 0 017.035-7.035h15.218a7.035 7.035 0 017.035 7.035v31.946a7.035 7.035 0 01-7.035 7.035zm78.417-7.034v-31.946a7.035 7.035 0 00-7.035-7.035h-15.218a7.035 7.035 0 00-7.035 7.035v31.946a7.035 7.035 0 007.035 7.035h15.218a7.035 7.035 0 007.035-7.035zM221.59 260.827v-50.121c0-6.096-4.941-11.037-11.037-11.037h-23.877c-6.096 0-11.037 4.941-11.037 11.037v50.121c0 6.096 4.941 11.037 11.037 11.037h23.877c6.096-.001 11.037-4.942 11.037-11.037zm72.589 61.541h-52.1v68.586h52.1v-68.586zm-185.823-22.029v-30.544a6.726 6.726 0 00-6.726-6.726H87.079a6.726 6.726 0 00-6.726 6.726v30.544a6.726 6.726 0 006.726 6.726h14.551a6.726 6.726 0 006.726-6.726zm0 63.589v-30.544a6.726 6.726 0 00-6.726-6.726H87.079a6.726 6.726 0 00-6.726 6.726v30.544a6.726 6.726 0 006.726 6.726h14.551a6.726 6.726 0 006.726-6.726zM5.882 244.375h124.705c3.871 0 5.388-5.023 2.163-7.166l-62.352-28.057a3.908 3.908 0 00-4.326 0L3.719 237.209c-3.225 2.142-1.708 7.166 2.163 7.166z"/><path fill="#8E7B70" d="M363.926 303.125v1.046a5.823 5.823 0 015.823-5.823h26.443a5.823 5.823 0 015.823 5.823v-1.046a5.823 5.823 0 01-5.823 5.823h-26.443a5.823 5.823 0 01-5.823-5.823zm78.694 5.823h24.954a5.823 5.823 0 005.823-5.823v1.046a5.823 5.823 0 00-5.823-5.823H442.62a5.823 5.823 0 00-5.823 5.823v-1.046a5.823 5.823 0 005.823 5.823z"/><path fill="#597B91" d="M346.578 225.093h144.911c5.368 0 6.865-7.368 1.922-9.462l-72.561-35.453a4.922 4.922 0 00-3.844 0l-72.349 35.453c-4.944 2.094-3.447 9.462 1.921 9.462z"/><path fill="#FF473E" d="M133.957 136.043l97.125-64.523a6.09 6.09 0 016.739 0l97.125 64.523c5.023 3.337 2.66 11.162-3.37 11.162H137.327c-6.03 0-8.393-7.825-3.37-11.162zm165.987 199.583c4.701 0 8.061-4.421 7.004-9.001-4.08-17.668-19.911-30.839-38.819-30.839s-34.739 13.171-38.819 30.839c-1.058 4.581 2.302 9.001 7.004 9.001h63.63z"/><path fill="#009E83" d="M441.081 391.034h-44.095v-51.823a7.741 7.741 0 017.741-7.741h28.612a7.741 7.741 0 017.741 7.741v51.823zm46.827-56.454c-10.597 0-19.188 8.591-19.188 19.188s8.591 19.188 19.188 19.188 19.188-8.591 19.188-19.188-8.591-19.188-19.188-19.188zm0-32.084c-7.141 0-12.93 5.789-12.93 12.93s5.789 12.93 12.93 12.93 12.93-5.789 12.93-12.93c-.001-7.141-5.789-12.93-12.93-12.93zm-322.233-36.578a4.52 4.52 0 00-5.681 2.934l-1.236 3.876c-.404 1.233-.839 2.731-1.364 4.449a291.363 291.363 0 00-1.706 5.77c-.603 2.114-1.291 4.405-1.956 6.828l-2.096 7.621c-.746 2.643-1.417 5.374-2.154 8.149-.715 2.775-1.479 5.594-2.174 8.413l-2.072 8.413c-.677 2.775-1.376 5.506-1.97 8.149l-3.345 14.448c-1.007 4.229-1.148 7.753-.921 10.219.209 2.467.773 3.876.773 3.876 2.602 6.446 7.762 11.943 14.726 14.726 13.547 5.413 28.917-1.18 34.33-14.726 0 0 .563-1.41.773-3.876.227-2.467.087-5.991-.921-10.219l-3.345-14.448c-.594-2.643-1.292-5.374-1.97-8.149l-2.072-8.413c-.695-2.819-1.459-5.638-2.174-8.413-.736-2.775-1.408-5.506-2.154-8.149l-2.096-7.621c-.665-2.423-1.352-4.713-1.956-6.828a289.374 289.374 0 00-1.706-5.77c-.525-1.718-.96-3.216-1.364-4.449l-1.236-3.876a4.56 4.56 0 00-2.933-2.934z"/><path fill="#76DFFF" d="M43.018 341.478h-.384c-10.502 0-19.016 8.514-19.016 19.016v30.54h38.416v-30.54c0-10.502-8.514-19.016-19.016-19.016z"/><circle fill="#FFF" cx="407.114" cy="366.651" r="3.596"/></svg><svg viewBox="-42.67 -42.67 597.33 597.33" width="28" height="28" id="fxemoji-u1F409-dragonside" x="56" y="56" xmlns="http://www.w3.org/2000/svg"><circle fill="#C4F0F2" cx="435.077" cy="218.333" r="47.145"/><path fill="#FF473E" d="M507.515 50.35a1.522 1.522 0 00-1.955.902l-.022.059-.163.443c-.111.291-.256.731-.493 1.281a27.501 27.501 0 01-2.345 4.554c-1.18 1.826-2.849 3.876-5.228 5.586-2.357 1.733-5.44 3.055-9.052 3.757-1.945.384-4.039.585-6.242.644.539-.559 1.073-1.149 1.634-1.748.696-.88 1.481-1.725 2.145-2.698l1.028-1.44c.343-.482.631-1.009.948-1.512.303-.513.633-1.006.908-1.531l.797-1.578c.562-1.024.943-2.117 1.363-3.143.45-1.014.695-2.067.995-3.034.136-.488.297-.954.398-1.419l.26-1.353c.151-.868.347-1.651.413-2.362l.161-1.838.136-1.594a1.525 1.525 0 00-1.22-1.618 1.518 1.518 0 00-1.782 1.197l-.031.159-.283 1.441-.32 1.646c-.125.633-.385 1.322-.6 2.083l-.357 1.18c-.134.404-.326.804-.492 1.224-.361.83-.664 1.73-1.164 2.583-.47.864-.893 1.781-1.489 2.626l-.839 1.302c-.287.431-.628.832-.937 1.25-.324.408-.615.837-.961 1.225l-1.029 1.155c-.657.781-1.433 1.442-2.105 2.138-.742.634-1.42 1.283-2.132 1.82a32.153 32.153 0 01-2.005 1.497 31.586 31.586 0 01-2.965 1.859c-3.323-.369-6.784-.91-10.376-1.517-4.94-.818-10.067-1.806-15.695-2.346a106.57 106.57 0 00-16.846-.006c-5.638.448-11.272 1.293-16.716 2.596-5.446 1.292-10.732 2.936-15.697 4.906-9.958 3.902-18.676 8.882-25.711 13.704a143.849 143.849 0 00-9.341 6.945c-2.688 2.182-4.983 4.149-6.815 5.826-.92.818-1.751 1.606-2.473 2.287l-.997.941-.755.733-1.383 1.344a9.206 9.206 0 00.365 13.543c3.833 3.341 9.649 2.944 12.99-.889l1.268-1.454.691-.793.775-.86c.556-.618 1.188-1.33 1.959-2.138 1.501-1.626 3.388-3.532 5.608-5.665a126.653 126.653 0 017.747-6.827c5.859-4.777 13.167-9.796 21.647-13.961 4.229-2.101 8.763-3.933 13.484-5.478 4.72-1.556 9.655-2.719 14.663-3.541 4.991-.837 10.143-1.201 15.103-1.279 4.922-.024 10.098.429 15.143.765 5.059.348 10.056.618 14.87.478 4.807-.138 9.456-.688 13.651-1.957 4.19-1.249 7.875-3.269 10.563-5.699 2.721-2.407 4.454-5.064 5.599-7.292a30.976 30.976 0 002.124-5.361c.199-.629.309-1.119.398-1.446l.129-.497a1.527 1.527 0 00-.947-1.805z"/><path fill="#CCC9C4" d="M380.259 208.526l1.023-2.025.611-1.079c.225-.376.429-.79.706-1.175l.816-1.201.965-1.199c.342-.393.74-.769 1.101-1.137.428-.347.811-.698 1.271-.986l.68-.412c.232-.125.488-.223.721-.325.228-.108.48-.178.726-.238.244-.061.47-.129.714-.144a5.577 5.577 0 011.299-.016c.389.062.721.136.99.236a3.97 3.97 0 01.901.438 1.296 1.296 0 01-1.365 2.203c-.006-.002.038.047-.036.058-.044.023-.151.048-.262.1a2.164 2.164 0 00-.386.216 2.124 2.124 0 00-.387.402c-.056.062-.117.175-.17.266a2.048 2.048 0 00-.154.305c-.05.12-.094.213-.139.337l-.128.4c-.08.255-.152.61-.216.89-.057.365-.115.676-.155 1.035l-.094 1.095-.032 1.126c-.023.35.03.7.044 1.012l.065.864.026 2.423a5.147 5.147 0 11-10.294.108 5.13 5.13 0 01.541-2.355l.618-1.222zm31.271-3.415a5.14 5.14 0 105.938 8.047l.436-.516.501-.592c.19-.227.44-.51.558-.695l.512-.71c.176-.265.446-.516.69-.799.255-.291.522-.563.802-.826.282-.281.574-.553.873-.796.304-.268.611-.504.925-.725.319-.246.628-.421.951-.624.628-.358 1.269-.663 1.822-.831.285-.101.538-.154.774-.21.232-.047.436-.08.599-.097l.359-.037c.09 0 .072-.036.072-.036a1.296 1.296 0 101.406-2.178l-.238-.154a5.833 5.833 0 00-.535-.293 8.258 8.258 0 00-.811-.346c-.313-.107-.672-.234-1.062-.319-.785-.207-1.703-.311-2.688-.352-.486.002-1.001-.018-1.504.033-.511.029-1.027.078-1.531.164-.514.064-1.015.162-1.502.277-.495.101-.975.218-1.424.359-.455.14-.898.242-1.317.405l-1.188.435c-.389.139-.663.261-.924.37l-.671.282-.585.246-1.238.518zm22.384 19.386a5.083 5.083 0 10.423 9.944l.736-.187.845-.214c.292-.079.786-.187.964-.261l.841-.286c.307-.128.67-.162 1.049-.243l.593-.112.566-.059.602-.06c.194-.011.371-.003.568-.006.189.003.404-.009.589.007l.553.06c.404.026.698.142 1.081.219.307.123.676.228.949.398.314.148.559.34.818.523.469.387.821.806 1.036 1.117l.224.351c.05.095.068.069.07.079a1.296 1.296 0 002.592.034l.005-.294a7.92 7.92 0 00-.035-.676 9.18 9.18 0 00-.549-2.228c-.192-.432-.393-.913-.69-1.37-.262-.487-.637-.917-1.002-1.394-.414-.407-.819-.899-1.31-1.255-.476-.392-.975-.771-1.507-1.069-.263-.157-.525-.329-.793-.472l-.809-.383-.806-.37-.796-.281c-.528-.176-1.027-.382-1.542-.489l-1.438-.347c-.476-.122-.782-.15-1.112-.213l-.817-.139-.712-.121-1.186-.203zm-28.231-124.194a5.626 5.626 0 009.468-6.076l-8.806-13.72a1.051 1.051 0 00-1.936.593l.385 16.299c.026.989.315 2.009.889 2.904zm28.454-7.761a5.676 5.676 0 0010.623-3.999l-5.187-13.776a1.06 1.06 0 00-2.021.114l-3.606 14.272a5.635 5.635 0 00.191 3.389zm-22.011-42.14a8.29 8.29 0 001.322 16.528l.033-.003.826-.066.435-.035.121-.01c.025-.005-.013-.02-.017-.03a.74.74 0 01-.206-.432c.001-.021-.015-.058.003-.068l.073-.012c.201-.02.431-.106.727-.093.299.053.637.037 1.014.16.373.127.788.209 1.206.424.423.184.868.386 1.303.651.447.238.885.524 1.32.819.445.281.853.614 1.271.919a33.06 33.06 0 012.195 1.865 36.805 36.805 0 011.487 1.455l.534.558.116.122a1.52 1.52 0 002.606-1.19l-.078-.884a39.878 39.878 0 00-.282-2.276 39.27 39.27 0 00-.63-3.243c-.158-.594-.296-1.222-.505-1.854a23.225 23.225 0 00-.665-1.94 19.463 19.463 0 00-.858-1.972c-.288-.659-.71-1.305-1.084-1.941-.376-.635-.893-1.245-1.335-1.829-.48-.58-1.065-1.117-1.574-1.612-.199-.23-.696-.533-1.046-.77a20.424 20.424 0 00-1.641-.96l-.236-.124-.101-.068-.363-.244-.689-.463a8.265 8.265 0 00-5.282-1.382zm19.332-11.617a8.157 8.157 0 00-11.481 8.543 8.157 8.157 0 009.207 6.946l.965-.135 1.108-.155c.151-.016.116-.027.133-.043l.038-.054.117-.155c.06-.046.094-.171.219-.182l.401-.053c.143-.016.314-.06.475-.061l.491.045c.375-.011.724.14 1.137.263.424.11.793.402 1.248.617.384.316.845.593 1.224.988.393.379.794.774 1.132 1.22.372.422.675.886.983 1.328.302.445.553.896.8 1.314.218.425.445.821.604 1.182.171.36.316.679.423.943l.328.805.092.226a1.487 1.487 0 002.832-.275l.06-.294.146-.767c.062-.33.121-.728.18-1.189.072-.464.102-.984.157-1.565.025-.578.066-1.213.054-1.894-.018-.68-.024-1.411-.123-2.176-.059-.769-.208-1.57-.387-2.403-.156-.834-.477-1.682-.753-2.553-.396-.843-.723-1.741-1.264-2.564-.529-.828-1.052-1.674-1.752-2.388-.332-.37-.67-.732-1.01-1.085-.352-.335-.736-.621-1.104-.918a41.664 41.664 0 00-1.109-.841c-.361-.269-.86-.492-1.277-.715-.435-.219-.863-.42-1.276-.603l-1.094-.466-1.016-.465-.885-.406-.023-.015zm-19.653 316.361a5.147 5.147 0 10-1.103 9.948l2.404-.306.85-.165c.308-.05.649-.143 1-.161l1.122-.098 1.098-.033c.361-.001.676.019 1.046.034.285.031.647.061.909.111l.412.081c.129.03.226.063.351.099.133.036.225.075.32.117.097.042.216.09.284.138.181.1.313.214.444.338.102.12.204.249.259.358.064.105.101.208.129.249.02.072.063.023.062.029a1.296 1.296 0 102.346 1.102s.076-.153.129-.291a3.95 3.95 0 00.201-.655c.069-.279.103-.616.12-1.01a5.558 5.558 0 00-.166-1.288c-.043-.24-.137-.457-.225-.693a3.792 3.792 0 00-.321-.693c-.128-.22-.255-.463-.406-.679l-.488-.627c-.339-.423-.732-.763-1.126-1.148-.407-.316-.826-.669-1.256-.963l-1.303-.82-1.287-.672c-.414-.231-.849-.386-1.249-.566l-1.142-.482-2.129-.782-1.285-.472zm8.295 31.14a5.139 5.139 0 10-7.305 6.829l.563.374.646.429c.247.163.557.378.755.474l.765.427c.283.144.564.383.874.593.319.22.62.454.914.701.312.247.616.506.891.775.301.271.571.549.827.835.281.289.491.575.73.872.428.582.805 1.184 1.036 1.714.133.271.216.516.298.745.074.225.13.424.166.584l.079.352c.01.089.044.067.044.067a1.296 1.296 0 002.325 1.145l.126-.255c.068-.145.144-.325.229-.565.086-.236.17-.52.249-.845.07-.324.155-.694.194-1.092.115-.804.112-1.728.039-2.711-.059-.482-.098-.997-.207-1.49a13.945 13.945 0 00-.34-1.502c-.123-.503-.279-.99-.449-1.46a14.25 14.25 0 00-.521-1.373c-.192-.436-.344-.864-.555-1.261a476 476 0 00-.57-1.129c-.183-.371-.336-.628-.474-.875l-.358-.634-.312-.552-.659-1.172zm-16.667 24.476a5.083 5.083 0 10-9.828 1.57l.27.71.31.814c.112.281.277.759.371.928l.381.802c.163.29.239.647.363 1.014l.179.576.124.555.129.591c.033.192.046.368.072.563.019.188.055.401.062.585l.005.556c.021.405-.06.71-.093 1.099-.087.319-.149.698-.286.988-.111.329-.273.595-.425.873a5.71 5.71 0 01-.989 1.159l-.323.263c-.088.06-.061.076-.07.079a1.295 1.295 0 10.266 2.578l.292-.029a8.36 8.36 0 00.667-.112 9.161 9.161 0 002.149-.803c.407-.241.862-.496 1.281-.844.454-.317.837-.738 1.269-1.156.356-.458.798-.918 1.095-1.447.334-.518.653-1.058.888-1.62.126-.279.266-.56.377-.842l.287-.848.274-.843.187-.823c.114-.545.261-1.064.307-1.588l.178-1.469c.066-.487.059-.795.083-1.129l.043-.828.038-.721.067-1.201z"/><path fill="#007F67" d="M352.55 352.246c-4.904-9.432-15.849-16.864-27.724-20.428l10.897-62.412c-5.257-1.952-10.648-1.408-16.013.707l-4.748-44.011c-5.321.115-10.859 1.821-16.126 4.623l-9.104-44.956a29.271 29.271 0 00-3.989.826l6.23-39.826a28.551 28.551 0 00-2.818-.536l29.141-42.05c-1.56-1.245-3.382-2.275-5.394-3.12l18.777-27.513a34.31 34.31 0 00-2.675-2.366l42.935-20.192c-8.171-23.279-33.666-35.526-56.945-27.355-11.991 4.209-21.055 13.014-25.909 23.746-2.47 5.461 6.399 9.539 15.696 13.917-12.402-1.765-25.239.592-32.972 8.418-7.304 7.391-10.809 17.111-10.53 26.737.089 3.054 4.698 4.518 11.034 5.382-10.155 3.145-19.134 8.094-23.92 14.091-6.481 8.122-8.939 18.158-7.644 27.701.782 5.759 15.806 4.866 28.509 5.089-14.125 5.041-27.184 16.254-30.341 28.9-2.517 10.081-.578 20.231 4.568 28.371 2.907 4.598 13.886-2.636 24.254-8.646-10.454 9.869-17.675 24.269-16.055 36.583 1.355 10.302 6.881 19.033 14.654 24.719 2.231 1.632 5.283.077 8.719-2.898-2.09 4.643-3.261 9.439-3.16 14.082.225 10.388 4.767 19.669 11.874 26.168.855.781 1.923.968 3.154.709a470.618 470.618 0 01-5.631 5.776c-7.342 7.353-7.781 20.112-3.568 28.772 1.388 2.853 6.411 3.617 12.741 3.555-8.189 3.816-16.591 7.023-18.914 15.013-1.29 4.436 6.874 12.196 15.787 19.889-6.113-3.401-12.648-5.331-18.841-5.018-10.378.525-19.524 5.332-25.814 12.624-3.018 3.499 3.826 10.085 11.328 16.996-5.362-2.071-10.701-3.455-15.442-3.961-10.332-1.102-20.117 2.218-27.469 8.438-3.489 2.952 2.08 10.394 8.327 18.294-9.034-4.25-17.19-7.793-22.171-10.195-9.359-4.513-12.309-8.738-21.325-5.353-3.633 1.364-8.224 9.104-12.62 18.196.317-4.697-.18-9.238-1.671-13.295-3.585-9.753-5.027-20.86-13.859-24.7-4.237-1.842-12.97 5.271-21.731 13.136 4.149-5.633 6.893-11.87 7.368-18.052.796-10.36-2.812-20.043-9.247-27.208-3.087-3.438-10.489 2.516-18.296 9.08 2.734-5.056 4.785-10.177 5.888-14.815 2.404-10.109.352-20.236-4.885-28.318-1.135-1.752-4.331-2.839-8.69-3.505 5.987-5.435 9.015-5.974 8.971-14.213-.021-3.952-5.864-8.743-12.646-13.373 4.959.466 9.548-.187 13.184-2.25 7.044-3.998 11.259-11.38 12.33-19.996.426-3.43-4.895-6.438-11.537-9.41 4.401.685 8.732.341 12.506-1.373 6.802-3.09 11.651-8.72 13.934-15.258.832-2.383-2.886-4.888-7.916-7.434 1.682.071 3.348-.055 4.969-.423 7.285-1.657 13.168-6.195 16.721-12.139 1.268-2.121-1.71-5.234-5.977-8.654 5.704 1.035 11.12 1.029 15.216-.372 7.069-2.418 12.44-7.553 15.344-13.839 1.753-3.794-7.702-9.061-15.317-14.107 10.513 2.405 22.765.655 29.568-5.792 5.423-5.139 8.172-12.042 8.199-18.967.015-3.912-9.438-3.77-18.048-4.134 10.153-1.942 20.099-7.881 23.877-15.973 3.161-6.77 3.187-14.2.672-20.652-1.155-2.963-7.151-1.137-13.729 1.163 2.836-5.504 4.416-11.393 3.718-15.768a19.19 19.19 0 00-8.075-12.808c-2.52-1.74-7.505 4.429-12.1 9.297 3.05-7.29 3.318-16.355-.487-22.073a19.188 19.188 0 00-12.67-8.29c-2.823-.5-3.902 6.343-5.241 12.514-.133-7.574-3.179-15.497-8.549-19.237a19.19 19.19 0 00-14.828-3.066c-2.269.46-1.722 4.962-.892 9.959-2.557-4.275-5.877-7.839-9.154-9.263a15.93 15.93 0 00-12.569-.069c-2.299.968-.328 7 1.027 12.318-2.509-3.527-6.08-6.277-9.748-6.81a13.297 13.297 0 00-10.138 2.694c-1.22.955.354 3.43 2.322 6.156-3.099-2.165-6.91-3.362-10.062-2.621a11.022 11.022 0 00-6.999 5.159c-.71 1.208 1.699 2.803 4.315 4.457-2.948-.76-6.093-.642-8.33.698a9.609 9.609 0 00-4.448 6.139c-.528 2.333 9.258 2.729 10.583 4.943l9.511-6.92a7.77 7.77 0 00-.464-.669l10.576-3.51c.045.26.055.501.023.722l16.251.896c.136-.935.137-1.912.026-2.906l21.056 7.501c.425-.979.673-2.084.773-3.274l16.419 9.374c.404-.58.766-1.199 1.094-1.847l13.299 16.561c.415-.276.816-.584 1.209-.907l3.912 17.034-9.989 27.59c.873.408 1.79.751 2.738 1.041l-19.175 21.737c.468.494.976.961 1.501 1.414l-33.925 14.228c.902 2.637 2.688 5.166 5.074 7.502l-18.928 8.099c1.141 5.015 4.077 10.077 8.016 14.383l-23.419 16.264c1.906 4.195 5.229 8.137 9.297 11.375-2.773-1.584-4.939-3.241-5.949-5.02l-28.138 20.551c3.308 5.828 8.511 11.041 14.481 15.128l-30.666 35.931c2.586 2.679 5.879 4.862 9.587 6.55l15.621 69.095c6.641 1.579 13.492-.622 19.833-4.976l.435 33.966c6.78.521 14.17-1.495 21.049-5.158-.985.636-1.883 1.129-2.656 1.413l30.438 49.413c5.254-1.931 10.169-5.598 14.384-10.287l117.597 6.265c3.422-7.096-3.706-15.07-14.749-22.676l34.932-4.814c.724-6.788-2.329-13.304-7.452-19.042l33.636-4.741c-.344-6.792-3.281-13.866-7.787-20.225.757.897 1.359 1.725 1.739 2.456l45.154-36.459z"/><path fill="#009E83" d="M451.376 76.206l-63.728 17.447c-3.511.961-5.632-3.765-2.58-5.749l69.398-45.12a3.189 3.189 0 001.056-4.21l-11.973-21.772a3.188 3.188 0 00-4.039-1.399l-17.008 7.218c-3.463-2.88-8.464-3.522-12.649-1.22-3.473 1.91-5.535 5.38-5.809 9.058a28388.516 28388.516 0 00-26.727 11.365 9.773 9.773 0 01-9.662-1.163c-10.291-7.629-24.889-8.416-36.329-.192-10.034 7.214-14.539 19.871-11.895 31.616-19.076 18.521-33.117 41.759-40.733 67.984-11.528 39.695-6.959 81.495 12.852 117.754l.014.032 1.093 2.34c.168.367.409.861.578 1.254l.444 1.11.532 1.303.667 1.713a112.164 112.164 0 013.151 9.001c1.105 3.572 2.231 7.713 3.124 12.409.93 4.685 1.687 9.914 2.033 15.629.154 2.858.272 5.829.245 8.911-.037 3.082-.199 6.27-.506 9.546-.635 6.549-1.747 13.474-3.717 20.561-1.974 7.078-4.64 14.346-8.221 21.516a118.321 118.321 0 01-13.399 20.926c-5.34 6.711-11.705 12.912-18.826 18.543a114.789 114.789 0 01-11.381 7.842c-2.026 1.194-4.032 2.36-6.195 3.464l-1.041.546-.521.273-.351.167-1.346.649c-.409.21-.97.462-1.515.711l-1.623.755c-8.705 3.922-18.039 6.842-27.784 8.438-4.868.813-9.833 1.286-14.848 1.508-5.018.17-10.093.049-15.17-.465-10.158-.996-20.318-3.417-30.094-7.104a112.772 112.772 0 01-27.549-15.203 113.42 113.42 0 01-22.646-22.354 123.803 123.803 0 01-4.641-6.578 130.256 130.256 0 01-2.153-3.419l-1.037-1.738-.13-.217c.381.712.014.032.057.116l-.32-.575-.639-1.15a119.085 119.085 0 01-6.952-14.48c-3.978-9.978-6.491-20.502-7.519-31.149-1.006-10.643-.7-21.422 1.145-31.892a118.677 118.677 0 019.495-30.038c8.789-18.92 21.74-35.207 37.118-47.935a171.778 171.778 0 015.877-4.62l1.501-1.106.375-.277c.216-.131-.219.098.532-.329l.233-.152.929-.609 1.854-1.214.924-.606 1.103-.748c1.495-1.03 3.052-2.068 4.457-3.092 1.381-1.026 2.756-2.028 4.113-3.068l4.023-3.208a242.265 242.265 0 003.912-3.371c5.132-4.609 9.996-9.626 14.331-15.216 4.339-5.575 8.22-11.67 11.158-18.423 1.502-3.329 2.729-6.868 3.702-10.457.97-3.601 1.588-7.342 1.935-11.076a59.796 59.796 0 00-.139-11.245c-.413-3.713-1.213-7.335-2.288-10.791-1.086-3.459-2.558-6.705-4.198-9.739-1.659-3.031-3.585-5.787-5.623-8.324-4.155-5.005-8.811-9.045-13.651-12.094a64.018 64.018 0 00-14.534-6.913c-4.793-1.614-9.489-2.544-13.949-3.057a77.695 77.695 0 00-12.684-.399c-3.984.221-7.697.775-11.146 1.435-6.899 1.356-12.699 3.44-17.513 5.52-4.808 2.129-8.645 4.283-11.637 6.171l-2.102 1.335-1.788 1.228a52.474 52.474 0 00-2.717 1.981l-2.165 1.656a4.436 4.436 0 004.013 7.761l.218-.068 2.4-.746a50.831 50.831 0 012.939-.846l1.875-.528 2.16-.521c3.052-.712 6.798-1.526 11.184-1.989 4.358-.557 9.365-.682 14.722-.312 5.352.429 11.097 1.539 16.648 3.686 5.501 2.194 10.92 5.344 14.848 9.658 4.004 4.232 6.364 9.327 6.556 14.128.236 4.802-1.322 9.629-5.056 14.982-3.707 5.304-9.719 10.781-17.226 15.68l-2.89 1.817-3.017 1.776-3.145 1.719c-1.039.554-2.003.994-3.002 1.506l-3.764 1.85-.998.488-.25.122c.591-.335-.006-.015.049-.055l-.592.271-2.376 1.09c-1.589.728-3.155 1.522-4.74 2.302-1.561.821-3.133 1.645-4.693 2.506-6.243 3.444-12.358 7.396-18.29 11.799-2.934 2.238-5.872 4.534-8.705 6.992-2.844 2.447-5.603 5.031-8.322 7.694a165.49 165.49 0 00-28.085 37.229 182.429 182.429 0 00-17.434 45.278c-3.802 16.042-5.556 32.882-4.737 49.836.794 16.944 3.984 33.99 9.575 50.314 2.816 8.156 6.113 16.136 10.121 23.905l.599 1.171.3.586.564 1.051 1.558 2.843a199.157 199.157 0 003.259 5.615 194.115 194.115 0 007.117 10.9c10.023 14.207 22.109 27.06 35.744 37.882a185.46 185.46 0 0044.74 26.073c15.924 6.537 32.671 10.666 49.47 12.492 16.797 1.817 33.685 1.406 49.922-1.375 16.249-2.704 31.835-7.603 46.218-14.138l2.673-1.264c.885-.422 1.756-.834 2.749-1.345l2.874-1.467.702-.363.517-.281 1.034-.561c3.389-1.805 6.758-3.799 10.031-5.81a188.227 188.227 0 0018.628-13.239c5.877-4.709 11.344-9.766 16.415-15.038a180.31 180.31 0 0014.03-16.393 185.285 185.285 0 0011.638-17.266 186.426 186.426 0 009.192-17.772c10.806-23.834 15.333-47.722 15.989-68.763a176.89 176.89 0 00-6.566-53.86c-4.123-14.488-9.102-25.213-12.752-32.297l-1.311-2.494-1.285-2.331-1.109-1.988-.76-1.271-1.335-2.211c-.069-.113-.144-.222-.214-.334l.026-.014c-11.933-21.7-14.7-46.747-7.794-70.528 3.084-10.618 7.942-20.408 14.295-29.064 7.199 6.848 16.033 9.763 27.425 3.498l68.577-37.71a3.181 3.181 0 001.441-1.654l4.661-12.17c.935-2.432-1.3-4.898-3.819-4.209z"/><path fill="#007F67" d="M421.148 393.215a5.336 5.336 0 01-6.988.54l-1.473-1.096c-.22-.153-.526-.416-.744-.529l-.74-.437-.834-.507-1.069-.546c-.724-.414-1.577-.732-2.45-1.109-.429-.207-.912-.32-1.381-.489-.477-.147-.946-.349-1.456-.45l-1.524-.381c-.191-.04-.386-.072-.58-.104.237.469.462.943.686 1.414.37.777.724 1.553.985 2.366.276.804.565 1.591.801 2.382l.555 2.385c.204.769.258 1.568.361 2.325.077.765.212 1.492.196 2.229.035 1.458.047 2.813-.117 4.064-.06.623-.144 1.216-.214 1.774-.098.604-.225 1.185-.34 1.715a30.155 30.155 0 01-.349 1.471c-.054.246-.124.387-.187.543l-.192.439-.585 1.29-.228.455a5.772 5.772 0 01-10.639-.776l-.16-.483-.392-1.361-.126-.463c-.041-.16-.077-.349-.147-.448a18.108 18.108 0 01-.377-.763l-.865-1.856c-.28-.713-.717-1.441-1.083-2.197-.42-.744-.841-1.511-1.327-2.259l-.728-1.126-.798-1.097c-.239-.377-.567-.709-.837-1.068-.283-.352-.533-.72-.865-1.036-.317-.324-.584-.677-.879-1.007-.324-.31-.644-.616-.945-.93-.275-.335-.643-.59-.946-.888l-.077-.073a168 168 0 01-2.907.202 71.874 71.874 0 01-5.585.086c-2.18-.102-4.638-.173-7.339-.565-2.697-.332-5.621-.963-8.676-1.84-3.028-.975-6.223-2.147-9.305-3.874-3.092-1.678-6.159-3.724-8.917-6.195a53.36 53.36 0 01-7.532-8.2 60.737 60.737 0 01-5.6-9.408c-1.568-3.228-2.787-6.517-3.742-9.743-.961-3.226-1.682-6.391-2.146-9.422a72.612 72.612 0 01-.88-8.596c-.144-2.678-.071-5.154.023-7.352.087-1.103.15-2.134.249-3.091.117-.966.209-1.825.327-2.652l.386-2.293c.059-.36.111-.582.159-.809l.13-.614.239-1.125.24-1.127c1.401-6.597 7.885-10.809 14.482-9.407s10.809 7.885 9.407 14.482c-.099.467-.248.988-.396 1.43l-.376 1.094-.408 1.18a21.8 21.8 0 01-.36.925c-.141.42-.291 1.009-.467 1.586-.162.6-.304 1.275-.483 1.988-.282 1.459-.605 3.142-.781 5.038-.214 1.891-.311 3.981-.285 6.199.028 2.22.239 4.556.604 6.94.36 2.387.897 4.822 1.668 7.187a42.73 42.73 0 002.878 6.9 34.815 34.815 0 004.194 6.02c1.569 1.856 3.382 3.429 5.287 4.818 1.884 1.43 3.969 2.489 6.009 3.461 2.083.88 4.154 1.623 6.164 2.114.664.182 1.315.328 1.958.461a8.292 8.292 0 011.431-1.287c.258-.181.565-.368.835-.516l2.105-1.135 1.109-.583c.182-.087.378-.172.578-.258a8.282 8.282 0 011.275-1.372c.243-.581.506-1.168.829-1.763.325-.626.632-1.275 1.002-1.915l1.196-1.926c.388-.659.879-1.276 1.35-1.91.485-.625.934-1.282 1.492-1.868l1.629-1.794 1.78-1.66c.58-.564 1.24-1.036 1.873-1.527.635-.49 1.273-.963 1.95-1.368.669-.414 1.313-.849 1.983-1.216l2-1.035c.649-.349 1.333-.585 1.975-.868.649-.267 1.277-.542 1.913-.73 1.256-.427 2.449-.782 3.569-1.006.56-.124 1.079-.249 1.599-.35l1.546-.239 1.35-.193c.392-.046.663-.043.956-.06l1.764-.076a5.376 5.376 0 011.789 10.516l-1.69.511c-.255.084-.597.166-.861.267l-.76.329-.854.355-1.008.497c-.717.316-1.43.767-2.187 1.201-.389.2-.746.473-1.119.73-.364.271-.77.491-1.117.804l-1.083.894c-.357.307-.676.663-1.021.987-.353.315-.659.682-.961 1.048-.297.371-.648.683-.904 1.085l-.292.395 1.454.194c.817.087 1.609.315 2.405.472.795.167 1.58.347 2.339.597.762.236 1.521.449 2.253.707l2.134.836c.704.255 1.354.613 2.005.916.641.326 1.287.595 1.869.957 1.18.688 2.297 1.311 3.253 2.016l1.387.967 1.278 1.018 1.106.909c.361.29.514.487.747.702l1.314 1.292.207.204a5.324 5.324 0 01.067 7.538zm14.93-168.313l-.425-.28-1.214-.731-.414-.241c-.147-.081-.279-.167-.518-.249-.431-.17-.905-.342-1.421-.517-.514-.176-1.075-.369-1.664-.536-.546-.134-1.125-.286-1.737-.417-1.224-.307-2.572-.452-4.024-.586-.73-.101-1.468-.051-2.237-.063-.764.015-1.564-.025-2.352.09l-2.433.275c-.813.143-1.628.339-2.459.52-.838.165-1.65.427-2.464.705-.494.168-.991.337-1.484.518.055-.189.108-.379.171-.564l.555-1.47c.16-.495.415-.937.616-1.394.223-.446.39-.913.646-1.315.476-.824.89-1.634 1.385-2.306l.666-.998.6-.77.52-.684c.138-.203.434-.477.612-.677l1.259-1.336a5.334 5.334 0 00-7.228-7.812l-.226.182-1.435 1.156c-.241.207-.454.336-.784.661l-1.03.994-1.159 1.151-1.121 1.266c-.81.868-1.558 1.906-2.378 2.998-.427.536-.769 1.146-1.167 1.746-.376.611-.807 1.216-1.142 1.885l-1.077 2.023c-.341.697-.64 1.426-.963 2.156-.336.725-.606 1.484-.864 2.254-.248.773-.566 1.533-.747 2.335l-.361 1.422-.358-.336c-.369-.301-.639-.686-.973-1.024-.329-.342-.657-.689-.93-1.076-.282-.38-.599-.738-.863-1.128l-.763-1.18c-.27-.382-.442-.81-.669-1.203-.212-.4-.442-.787-.595-1.196-.344-.802-.71-1.563-.94-2.311l-.377-1.058-.254-.889-.239-.793c-.069-.273-.111-.623-.165-.886l-.312-1.737a5.374 5.374 0 00-10.652.561l-.129 1.76c-.017.293-.052.562-.051.956l.036 1.364.059 1.564c.041.528.104 1.059.163 1.629.093 1.138.308 2.364.587 3.661.114.654.314 1.309.504 1.985.206.671.362 1.378.633 2.062l.797 2.106c.287.707.645 1.398.979 2.11.323.719.72 1.407 1.133 2.095.415.686.807 1.396 1.301 2.037l1.443 1.96 1.594 1.826c.518.623 1.118 1.144 1.683 1.698.575.542 1.132 1.101 1.741 1.562l1.774 1.41c.593.441 1.202.822 1.787 1.216a19.15 19.15 0 001.663 1.038c.348.518.755.989 1.207 1.414.062.208.124.412.189.604l.45 1.169.884 2.222a9.4 9.4 0 00.416.889 8.356 8.356 0 001.113 1.571 31.928 31.928 0 01-.684 1.892c-.72 1.939-1.697 3.91-2.813 5.878-1.201 1.913-2.495 3.862-4.133 5.568-1.6 1.731-3.372 3.351-5.397 4.694a34.769 34.769 0 01-6.464 3.47 42.743 42.743 0 01-7.186 2.061c-2.438.493-4.919.745-7.332.826-2.41.087-4.755.027-6.964-.203-2.206-.231-4.271-.568-6.124-1-1.864-.394-3.498-.91-4.914-1.358-.688-.261-1.342-.48-1.919-.71-.553-.241-1.121-.459-1.521-.647-.33-.185-.623-.338-.877-.465l-1.125-.541-1.043-.5a13.772 13.772 0 00-1.375-.559c-6.391-2.155-13.318 1.279-15.473 7.669-2.155 6.391 1.279 13.318 7.669 15.473l1.092.368a903.493 903.493 0 001.684.568c.221.074.434.151.786.251l2.233.649c.808.213 1.65.403 2.596.632.94.209 1.956.391 3.042.605 2.172.347 4.623.706 7.3.873 2.675.205 5.576.252 8.64.12 3.064-.111 6.291-.461 9.607-1.042 3.315-.576 6.723-1.406 10.11-2.59a60.78 60.78 0 009.993-4.474 53.321 53.321 0 009.016-6.533c2.773-2.453 5.16-5.263 7.184-8.141 2.072-2.862 3.606-5.899 4.924-8.794 1.225-2.933 2.19-5.764 2.831-8.404.702-2.638 1.056-5.071 1.41-7.225a71.92 71.92 0 00.56-5.557c.065-1.174.107-2.149.136-2.911l.081-.068c.331-.267.627-.603.991-.837.346-.263.687-.546 1.033-.831.362-.254.744-.478 1.102-.756.352-.294.747-.499 1.129-.74.388-.226.756-.514 1.158-.708l1.182-.666 1.203-.593c.799-.395 1.61-.725 2.398-1.056.793-.276 1.567-.626 2.307-.821l1.944-.645c.278-.092.546-.187.802-.286.107-.058.299-.072.462-.094l.474-.071 1.398-.232.499-.103a5.793 5.793 0 003.657-2.484 5.776 5.776 0 00-1.657-7.995z"/><path fill="#FFD469" d="M345.051 57.584a8.847 8.847 0 00-3.487 12.027l5.24 9.53c2.357 4.287 7.738 5.855 12.024 3.498 4.287-2.357 5.836-7.737 3.479-12.024l-5.24-9.53c-2.361-4.294-7.729-5.858-12.016-3.501z"/><path fill="#2B3B47" d="M412.208 35.827a1.805 1.805 0 01-1.584-.936 5.794 5.794 0 01-.492-4.436 5.787 5.787 0 012.79-3.481 5.79 5.79 0 014.433-.489 5.801 5.801 0 013.479 2.792 1.806 1.806 0 01-3.164 1.74 2.206 2.206 0 00-1.325-1.065 2.19 2.19 0 00-1.683.187 2.2 2.2 0 00-1.062 1.324 2.206 2.206 0 00.188 1.69 1.807 1.807 0 01-1.58 2.674z"/></svg><svg viewBox="-42.67 -42.67 597.33 597.33" width="28" height="28" id="fxemoji-u1F42A-dromedarycamel" x="84" xmlns="http://www.w3.org/2000/svg"><path fill="#D19B61" d="M441.223 221.519l.919.685c.654.491 1.349.998 2.393 1.736 2.119 1.494 5.309 3.529 9.431 6.102 2.055 1.295 4.338 2.741 6.754 4.428 2.412 1.687 4.96 3.624 7.444 5.903 2.479 2.286 4.865 4.94 6.925 7.877 2.075 2.931 3.772 6.156 5.093 9.443 1.325 3.291 2.278 6.649 2.968 9.945l.47 2.462.367 2.435.603 4.471c.092.758.208 1.454.328 2.134l.346 2.045c.2 1.353.542 2.679.795 3.974a83.805 83.805 0 001.924 7.159c.734 2.155 1.466 4.117 2.254 5.764.748 1.681 1.559 3.023 2.238 4.113.705 1.062 1.317 1.82 1.741 2.289.438.463.611.604.547.563a1.964 1.964 0 11-2.105 3.317 11.323 11.323 0 01-1.219-.889c-.663-.554-1.55-1.397-2.551-2.541-.964-1.156-2.104-2.592-3.184-4.338-1.129-1.73-2.215-3.758-3.331-6.006a90.003 90.003 0 01-3.103-7.417c-.458-1.346-1.002-2.694-1.425-4.148l-.677-2.189a44.021 44.021 0 01-.643-2.197l-1.202-4.441-.563-2.106-.647-2.085c-.912-2.763-2.025-5.455-3.373-7.946-1.347-2.492-2.916-4.785-4.713-6.788a37.436 37.436 0 00-5.869-5.309c-4.222-3.066-8.902-5.35-13.143-7.406-4.247-2.033-8.014-3.874-10.635-5.312a118.55 118.55 0 01-3.065-1.736l-.989-.579a8.063 8.063 0 018.143-13.917c.261.157.518.329.754.505zM107.801 66.77c-.304.54-.451.876-.451.876l.01.013c-4.503 9.935-3.251 22.109-3.251 22.109.195-.04.342-.094.537-.135-.04.195-.089.344-.13.539 0 0 13.486 1.429 23.711-3.847.085-.037.152-.048.244-.091.031-.025.068-.044.106-.075a22.368 22.368 0 003.244-2.069c10.553-7.307 15.72-21.03 16.808-24.276.037-.149.084-.285.134-.434.019-.091.101-.331.101-.331l-.012-.033c1.166-4.068 1.105-8.29.876-10.983-.137-1.614-1.604-3.054-3.203-3.173-1.976-.147-4.74-.207-7.48.217l-.01-.014c-.041.012-.064.031-.094.023a29.672 29.672 0 00-7.856 2.449c-8.952 3.481-14.792 8.508-18.504 12.69-2.035 1.863-3.572 4.121-4.78 6.545z"/><path fill="#AF773F" d="M432.733 387.859c10.535 19.783-4.748 58.06-9.826 69.633-.913 2.081-2.765 3.395-4.795 3.395h-12.807c-3.753 0-6.348-4.303-5.018-8.33 5.355-16.219 16.53-39.585 16.53-51.489 0-10.704-22.85-33.436-37.306-67.885-.554 24.888-1.857 49.166-2.076 62.504-.369 22.41-10.396 50.232-15.474 61.805-.913 2.081-2.765 3.395-4.795 3.395h-12.807c-3.753 0-6.348-4.303-5.018-8.33 5.355-16.219 16.53-39.585 16.53-51.489 0-13.869-12.78-55.516-38.37-104.111-19.134-3.175-39.051.178-62.412 3.968-9.809 25.739-18.989 93.552-16.668 104 2.058 9.262 8.656 34.411 12.006 47.083 1.004 3.798-1.861 7.512-5.79 7.512H229.32c-3.533 0-6.272-3.038-5.959-6.557 1.039-11.693-.639-32.525-1.308-35.922-1.884-9.57-5.784-26.946-3.23-38.714 2.243-10.336 4.78-27.539-12.284-60.617-8.845 24.22-16.054 77.246-13.839 87.215 2.058 9.262 8.656 34.411 12.006 47.083 1.004 3.798-1.861 7.512-5.79 7.512h-15.317c-3.533 0-6.272-3.038-5.959-6.557 1.039-11.693-.639-32.525-1.308-35.922-1.884-9.57-5.784-26.946-3.23-38.714 2.356-10.859 3.626-33.631-17.094-72.106-65.275-11.019-10.956-157.771-60.066-169.579-21.191 1.607-58.327-2.586-73.469-2.586-23.053 0-17.572-14.347-13.613-22.815 11.714-25.061 38.761-33.46 46.154-33.46 18.574 0 26.536-22.041 49.559-22.041 3.751 0 8.885 1.973 14.432 5.418a18.75 18.75 0 011.612-.693c5.025-2.453 12.339-4.877 21.942-4.687a29.658 29.658 0 018.197.727c.025.019.054.011.096.015l.004.017c2.694.652 5.227 1.76 6.999 2.648 1.433.719 2.241 2.609 1.754 4.154-.814 2.578-2.365 6.505-4.993 9.822l-.001.035s-.167.19-.219.267c-.103.119-.198.227-.29.35-1.355 1.563-5.556 6.092-11.426 10.039 6.457 9.157 11.099 19.787 11.536 30.698l.021-.018c.234 1.484.481 3.167.743 5.008 31.243 206.452 70.952-46.342 152.005-46.342 76.21 0 78.292 57.505 104.095 88.801 21.032 25.509 47.596 57.602 47.596 93.736 0 14.291-10.483 31.746-28.881 48.848-12.815 34.954-6.78 65.027 2.938 83.276zm56.28-89.022a5.145 5.145 0 00-2.104 6.966l.032.06.209.391.264.457.078.138.014.096c.008.066.022.131.037.198.032.139.053.265.112.427.091.238.187.496.302.758.229.503.465 1.198.764 1.856.255.729.601 1.454.894 2.294.33.811.648 1.684.984 2.584.347.894.656 1.841 1.006 2.786.293.963.683 1.918.942 2.904.358.969.572 1.959.88 2.926.294.972.499 1.929.814 2.869.21.936.484 1.856.729 2.742.19.88.435 1.737.656 2.546.161.798.357 1.557.545 2.25.197.694.284 1.297.432 1.821.238 1.036.463 1.69.463 1.69l.068.201a1.889 1.889 0 003.136.697s.489-.502 1.191-1.487c.345-.493.826-1.098 1.191-1.84a33.76 33.76 0 001.189-2.56c.359-.963.657-2.033.955-3.187.252-1.149.416-2.378.554-3.662.041-.636.052-1.284.061-1.943.017-.66.025-1.332-.048-1.992a33.087 33.087 0 00-.498-4.011 36.165 36.165 0 00-.942-3.913 37.526 37.526 0 00-1.32-3.658l-.767-1.695c-.268-.546-.568-1.068-.841-1.58-.543-1.02-1.189-1.951-1.755-2.798-.644-.849-1.181-1.594-1.808-2.257-.294-.332-.582-.632-.845-.908a23.934 23.934 0 00-.952-.922l-.421-.378-.195-.167-.138-.089a364.43 364.43 0 01-.444-.282l-.38-.224a5.15 5.15 0 00-5.044-.104z"/><path fill="#2B3B47" d="M75.73 83.962a6.227 6.227 0 016.663 5.76l.781 10.741a6.227 6.227 0 01-5.76 6.663 6.227 6.227 0 01-6.663-5.76l-.781-10.741a6.23 6.23 0 015.76-6.663zm-58.525 24.877a3.063 3.063 0 00-2.832 3.276l.384 5.28a3.063 3.063 0 006.108-.444l-.384-5.28a3.062 3.062 0 00-3.276-2.832m184.464 331.63h-23.734c.083 4.512.021 8.929-.296 12.494-.313 3.519 2.426 6.557 5.959 6.557h15.317c3.929 0 6.794-3.714 5.79-7.512-.846-3.2-1.901-7.203-3.036-11.539zm45.721 0h-23.734c.083 4.512.021 8.928-.296 12.494-.313 3.519 2.426 6.557 5.959 6.557h15.317c3.929 0 6.794-3.714 5.79-7.512-.846-3.2-1.901-7.203-3.036-11.539zm157.306 0c-1.638 4.253-3.179 8.362-4.409 12.088-1.33 4.027 1.266 8.33 5.018 8.33h12.807c2.03 0 3.882-1.315 4.795-3.395a206.125 206.125 0 006.554-17.022h-24.765zm-60.946 0c-1.638 4.254-3.179 8.362-4.409 12.088-1.33 4.027 1.266 8.33 5.018 8.33h12.807c2.03 0 3.882-1.315 4.795-3.395 1.762-4.016 4.121-9.997 6.465-17.022H343.75z"/></svg><svg viewBox="-42.67 -42.67 597.33 597.33" width="28" height="28" id="fxemoji-u1F42C-dolphin" x="84" y="28" xmlns="http://www.w3.org/2000/svg"><path fill="#00B1FF" d="M482.405 205.593c0-46.41-25.138-78.075-30.294-106.083l-.004.002a70.26 70.26 0 00-.583-3.416c-.555-2.911-1.074-6.199-1.843-9.414-1.407-6.567-3.139-13.624-5.298-20.643-4.093-14.109-9.891-28.108-15.721-38.429-2.909-5.16-5.695-9.422-7.844-12.379-2.107-2.969-3.587-4.601-3.587-4.601l-.115-.127a7.612 7.612 0 00-10.753-.523 7.754 7.754 0 00-1.918 2.724s-1.427 1.997-1.852 5.665c-7.273 62.845-80.161 45.306-85.483 59.351-3.395 8.958-.632 12.536 3.386 16.558a10.266 10.266 0 006.045 2.943c-.063.013.711.086 1.496.363.789.209 2.072.662 3.838 1.025 3.429.823 8.321 2.032 13.939 3.483 2.817.672 5.797 1.622 8.896 2.503 3.123.741 6.256 2.052 9.538 2.88 3.144 1.349 6.533 2.107 9.693 3.546 3.217 1.285 6.482 2.463 9.542 4.029 3.231 1.224 6.148 2.975 9.156 4.452 3.099 1.338 5.728 3.327 8.595 4.807 2.946 1.378 5.28 3.495 7.921 4.989 2.688 1.452 4.909 3.31 7.135 4.889l.067.051a57.28 57.28 0 015.512 4.768c1.906 6.173 2.686 12.677 2.057 19.245-1.432 14.931-8.018 29.432-19.716 40.616-19.35 18.499-44.463 17.947-70.358 15.426l-46.496-4.753c.209-20.037 2.171-40.974 4.201-57.511 1.777-14.474-13.009-25.204-26.277-19.153-56.468 25.756-80.537 56.985-90.777 78.057-1.23.397-2.46.803-3.688 1.229C85.883 241.64 38.711 330.827 59.916 416.417c1.438 28.198-13.931 49.145-28.318 64.886-16.033 17.54 3.819 33.405 33.828 25.385 30.009-8.02 45.642-7.457 105.557-28.252a1780.728 1780.728 0 0146.25-15.363c12.813-4.055 39.806.807 48.808 10.786 2.232 2.474 4.561 4.784 6.835 6.612 1.243 1.1 2.48 2.091 3.691 2.922 2.739 1.895 5.573 3.676 8.555 5.2 2.939 1.575 6.147 2.746 9.27 3.856 6.339 2.109 12.955 3.239 19.156 3.571 3.086.183 6.102.127 8.912-.087 2.689-.069 5.245-.383 7.426-.733 2.07-.216 3.996-.747 5.221-1.002l1.91-.429c3.493-.786 6.172-3.838 6.32-7.585l.077-1.956c.03-1.251.204-3.242.044-5.316-.049-2.209-.201-4.78-.619-7.436a65.983 65.983 0 00-1.523-8.781c-1.446-6.039-3.751-12.342-6.969-18.197-1.656-2.872-3.386-5.816-5.466-8.422-1.806-2.358-3.797-4.56-5.869-6.67 92.762-32.067 159.393-120.149 159.393-223.813z"/><path fill="#2B3B47" d="M136.236 353.747c9.085-3.153 19.018 1.648 22.181 10.763l7.021 20.23c3.158 9.1-1.658 19.039-10.744 22.192-9.1 3.158-19.038-1.66-22.196-10.76l-7.021-20.23c-3.163-9.114 1.659-19.037 10.759-22.195z"/><path fill="#7EDBFC" d="M173.441 33.676l-27.405 6.038c-8.52 1.14-16.353-4.841-17.493-13.364-1.143-8.521 4.841-16.353 13.364-17.495a15.46 15.46 0 018.916 1.452l24.074 14.419a4.74 4.74 0 012.168 6.34c-.719 1.465-2.125 2.399-3.624 2.61zM150.534 99.99a4.74 4.74 0 00-6.546-1.432l-24.808 13.116a15.46 15.46 0 00-5.862 6.873c-3.44 7.881.157 17.057 8.037 20.496 7.88 3.442 17.054-.157 20.495-8.035l9.039-26.566c.595-1.392.526-3.078-.355-4.452zm103.605-33.043a4.552 4.552 0 00-3.034-5.676l-25.05-9.955a14.863 14.863 0 00-8.678 0c-7.904 2.398-12.368 10.748-9.97 18.65 2.396 7.904 10.746 12.366 18.648 9.97l25.05-9.954c1.39-.433 2.578-1.535 3.034-3.035zM272.876 480.471c-2.274-1.828-4.603-4.138-6.835-6.612-9.003-9.979-35.996-14.841-48.809-10.786a1780.728 1780.728 0 00-46.25 15.363c-59.914 20.794-75.548 20.232-105.557 28.252-25.37 6.78 120.622-45.232 173.15-73.552 6.455 18.902 23.972 36.501 28.483 41.501 1.901 2.107 3.866 4.108 5.818 5.834zm30.673-67.364c2.807 2.656 4.696 4.588 5.337 4.983 4.71 2.898 9.258 6.408 13.336 10.508.261.26.516.528.775.791 69.662-24.077 124.569-79.738 147.606-149.876-25.742 74.527-126.77 117.331-167.054 133.594z"/></svg><svg version="1.0" width="28" height="28" viewBox="-6 -6 84 84" id="fxemoji-u1F475-gma" x="84" y="56" xmlns="http://www.w3.org/2000/svg"><path fill="#FFE0CF" d="M58.2 40.9l.8-11.6C59 16.4 47.8 9.7 34.9 9.7c-12.9 0-22.7 6.7-22.7 19.6l.8 11.6c-2.8.2-5.1 2.5-5.1 5.4 0 3 2.4 5.4 5.4 5.4h.4c.3 11.7 10 20.2 21.9 20.2 11.9 0 21.5-8.5 21.9-20.2h.1c3 0 5.4-2.4 5.4-5.4 0-2.8-2.1-5.1-4.8-5.4z"/><path fill="#FFD3B6" d="M57.6 49.8l-.1 1.1c0 12.1-9.8 21-22 21-6.1 0-12.2-2.5-16.1-6.4 3.2 2.1 7.3 3.5 11.4 4-1.1-.6-1.9-1.3-2.6-2-.4-.4-.7-.8-.9-1.2-.2-.4-.4-.7-.6-1-.2-.3-.2-.5-.3-.7l-.1-.2s.2.3.6.7c.2.2.4.5.7.8.3.3.6.6 1 .9.4.3.8.6 1.3.9.5.3 1 .5 1.6.8.6.2 1.2.4 1.8.5.6.1 1.3.2 1.9.2.7 0 1.3-.1 1.9-.2.6-.1 1.2-.3 1.8-.5 1.2-.4 2.1-1.1 2.9-1.7.4-.3.7-.6 1-.9.3-.3.5-.6.7-.8.4-.5.6-.7.6-.7h.1s0 .1-.1.2c-.1.2-.1.4-.3.7-.1.3-.3.6-.6 1-.2.4-.5.8-.9 1.2-.2.3-.5.5-.8.8 8.7-2.9 14.8-9.6 16.1-18.5zm-16 1.2s-.1.2-.1.6v.7c.1.3.1.6.3.8.1.3.3.6.5.9l.6.9c.2.3.4.6.7.9.2.3.5.6.7.9.5.6.8 1.2 1.2 1.8.1.3.3.6.4.9.1.3.3.6.3.8.1.3.2.5.3.7.1.2.1.4.2.6.1.3.2.5.2.5s0-.2.1-.6c.1-.4.1-.9.1-1.5 0-.3-.1-.6-.1-1-.1-.4-.2-.7-.3-1.1-.2-.4-.3-.8-.5-1.1-.2-.4-.4-.7-.7-1.1-1-1.3-2.2-2.3-2.9-3.2-.2-.2-.3-.4-.4-.6-.1-.2-.2-.4-.3-.5-.2-.1-.2-.3-.3-.3.1 0 .1 0 0 0zm-12.2 0s-.1 0 0 0c0 0-.1.2-.2.5-.1.2-.2.3-.3.5-.1.2-.3.4-.4.6-.7.9-1.9 1.9-2.9 3.2-.2.3-.5.7-.7 1.1-.2.4-.4.7-.5 1.1-.1.4-.3.7-.3 1.1-.1.4-.1.7-.1 1 0 .6 0 1.1.1 1.5.1.4.1.6.1.6s.1-.2.2-.5c0-.2.1-.4.2-.6.1-.2.2-.5.3-.7.1-.3.2-.5.3-.8.1-.3.3-.6.4-.9.3-.6.7-1.2 1.2-1.8.2-.3.5-.6.7-.9.2-.3.5-.6.7-.9l.6-.9c.2-.3.3-.6.5-.9.1-.3.2-.6.3-.8 0-.3.1-.5 0-.7-.1-.6-.2-.8-.2-.8z"/><path fill="#2B3B47" d="M23.6 41.1v3.4c0 1.4-1.1 2.5-2.5 2.5s-2.5-1.1-2.5-2.5v-3.4c.1-1.3 1.2-2.2 2.4-2.2 1.4 0 2.5 1 2.6 2.2zm28.7 0c-.1-1.3-1.1-2.2-2.4-2.2-1.3 0-2.3 1-2.4 2.2v3.4c0 1.4 1.1 2.5 2.5 2.5s2.5-1.1 2.5-2.5l-.2-3.4z"/><path fill="#959DA3" d="M20.8 42v.8c0 .3-.3.6-.6.6s-.6-.3-.6-.6V42c0-.3.3-.5.6-.5.4-.1.6.2.6.5zm28.7 0c0-.3-.3-.5-.6-.5s-.6.2-.6.5v.8c0 .3.3.6.6.6s.6-.3.6-.6V42z"/><path fill="#EDC0A2" d="M35.6 54c-1.6 0-3.1-.8-4-2.2-.3-.5-.1-1.1.3-1.3.5-.3 1-.1 1.3.3.5.8 1.4 1.3 2.4 1.3s1.9-.5 2.4-1.3c.3-.5.9-.6 1.3-.3.5.3.6.9.3 1.3-.9 1.4-2.4 2.2-4 2.2zM23.8 36.4c.5.2 1.1-.1 1.2-.6s-.1-1.1-.6-1.2c0 0-.1 0-.3-.1-.2-.1-.5-.2-.8-.2-.7-.2-1.7-.3-2.7-.1-1 .1-1.9.6-2.5 1.1-.3.2-.5.4-.6.6l-.2.2c-.2.2-.2.5 0 .7.2.2.5.3.7.1l.2-.2c.1-.1.3-.2.6-.4.5-.3 1.2-.6 1.9-.6s1.5.2 2 .4c.3.1.5.2.6.3.2.1.3.1.3.1.1-.1.2-.1.2-.1zm22.5-1.8c-.5.2-.7.8-.5 1.3.2.5.8.7 1.3.5 0 0 .1 0 .3-.1l.6-.3c.5-.2 1.3-.4 2-.4s1.4.3 1.9.6c.2.1.5.3.6.4l.2.2c.2.2.5.1.7 0 .2-.2.2-.5 0-.7l-.2-.2c-.1-.1-.4-.3-.6-.6-.6-.4-1.5-.9-2.5-1.1-1-.2-2 0-2.7.1-.3.1-.7.2-.8.2-.2.1-.3.1-.3.1z"/><path fill="#AFA394" d="M53.6 2.1c-.1-.4-.3-.6-.4-.8l-.2-.2s-.1-.1-.2 0c0 0-.1.1 0 .2l.2.2c.1.2.3.4.3.8.1.3.1.8 0 1.3s-.3 1-.7 1.5c-.2.3-.6.6-1 .9-.1-.3-.2-.6-.3-1l-.6-1.2c-.3-.4-.6-.8-1.1-1-.5-.2-1.2-.1-1.6.2-.4.2-.8.7-.8 1.3 0 .6.2 1 .5 1.4.3.4.7.6 1 .8.6.3 1.2.5 1.9.4v.7c-.2.6-.5 1.2-1 1.6-.5.4-1 .7-1.5.8-.7.2-1.4.2-1.9.1 0-.3.1-.7.1-1.1C46.3 4.2 41.7.3 36 .3S25.7 4 25.7 8.8s4.6 8.7 10.3 8.7c4.5 0 8.4-2.5 9.8-5.9.8.1 1.8 0 2.9-.4.7-.3 1.4-.7 2-1.3.6-.6 1-1.4 1.2-2.4 0-.5 0-.9-.1-1.3.5-.2.9-.6 1.2-1 .4-.5.6-1.1.7-1.7.1-.5 0-1-.1-1.4zm-4.5 3.8c-.6-.4-1.2-1-1.2-1.7 0-.3.2-.5.6-.7.3-.2.6-.2.9-.1.6.3.9 1.1 1.1 1.8.1.3.2.7.2 1.1-.5 0-1.1-.1-1.6-.4z"/><path fill="#BFBCAF" d="M48.4 11c-5-2.3-8.5-2.6-10.8-1.8-1-.4-2.3-.6-3.9-.6-12.7 0-22.9 10.5-22.9 23 0 10 1.9 14.4 1.9 14.4 3.2 0-4.9-24.6 17.3-24.6 2.3 0 4.5-.9 6.3-2.2 1.1 1 2.4 1.7 4.1 1.7 21.2 0 17.5 15.8 17.5 22 0 2.5 2.5-8 2.5-10.5 0-4.5-1.7-16.7-12-21.4z"/><path fill="#FFA9BA" d="M41.6 59.2c-1.4-.4-2.7-1.2-4-1.3-.8-.1-1.4.5-1.6.6-.2 0-1-.6-1.8-.6-1.3 0-2.4.7-3.8 1.3s-2.4.5-2.4.5 2.6 4 8.1 4 8.1-4 8.1-4-1.2 0-2.6-.5z"/><circle fill="#E2AF8D" cx="49.8" cy="28.1" r=".9"/></svg><svg viewBox="-42.67 -42.67 597.33 597.33" width="28" height="28" id="fxemoji-u1F4B1-currencyexchange" y="84" xmlns="http://www.w3.org/2000/svg"><path fill="#2B3B47" d="M415.424 406.307h19.833a3.288 3.288 0 013.288 3.288v17.938a3.288 3.288 0 01-3.288 3.288h-32.705a3.288 3.288 0 00-3.288 3.288v14.394a3.288 3.288 0 003.288 3.288h32.705a3.288 3.288 0 013.288 3.288v17.643a3.288 3.288 0 01-3.288 3.288h-32.705a3.288 3.288 0 00-3.288 3.288v27.684a3.288 3.288 0 01-3.288 3.288h-40.384a3.288 3.288 0 01-3.288-3.288v-27.684a3.288 3.288 0 00-3.288-3.288h-32.409a3.288 3.288 0 01-3.288-3.288v-17.643a3.288 3.288 0 013.288-3.288h32.409a3.288 3.288 0 003.288-3.288v-14.394a3.288 3.288 0 00-3.288-3.288h-32.409a3.288 3.288 0 01-3.288-3.288v-17.938a3.288 3.288 0 013.288-3.288h19.227c2.496 0 4.082-2.673 2.885-4.864l-46.961-85.963c-1.197-2.191.389-4.864 2.885-4.864h42.536a3.29 3.29 0 013 1.942l33.318 74.305c1.165 2.598 4.858 2.587 6.008-.018l32.773-74.269a3.286 3.286 0 013.008-1.96h41.062c2.493 0 4.079 2.666 2.889 4.857l-46.703 85.977c-1.189 2.191.397 4.857 2.89 4.857zM160.145 36.22c15.248 3.088 27.757 9.34 38.494 18.341 3.043 2.551 3.403 7.144.831 10.169l-13.103 15.406c-2.437 2.865-6.663 3.349-9.709 1.144-11.794-8.538-24.017-12.61-38.053-12.61-16.123 0-26.274 6.867-26.274 19.109 0 12.539 7.464 17.615 38.218 27.17 37.62 11.944 59.118 27.768 59.118 64.194 0 28.886-18.267 51.059-49.958 59.38-3.127.821-5.279 3.692-5.279 6.925v25.325a7.195 7.195 0 01-7.195 7.195h-19.946a7.195 7.195 0 01-7.195-7.195v-22.771c0-3.577-2.625-6.649-6.172-7.114-22.509-2.955-40.002-11.482-53.109-22.424-3.122-2.606-5.71-4.764-2.973-7.771l17.909-19.678c3.944-4.334 5.849-2.176 8.801.107 12.825 9.918 27.386 15.491 44.502 15.491 19.407 0 31.052-8.957 31.052-23.887 0-14.331-7.167-20.9-35.83-29.857-44.786-13.735-60.611-32.246-60.611-61.507 0-28.725 20.453-48.949 50.835-55.414 3.282-.698 5.596.111 5.596-3.244V3.151c0-3.974 3.221-3.152 7.195-3.152h19.946a7.195 7.195 0 017.195 7.195v22.005c-.002 3.399 2.383 6.346 5.715 7.021zM440.003 108.485l-31.63 31.63-83.831-83.831c-5.287-5.287-13.859-5.287-19.146 0L290.549 71.13c-5.287 5.287-5.287 13.859 0 19.146l83.832 83.831-31.63 31.63c-7.247 7.247-2.114 19.638 8.134 19.638h97.252c6.353 0 11.504-5.15 11.504-11.504v-97.252c0-10.248-12.391-15.381-19.638-8.134zM221.451 470.462L137.62 386.63 169.25 355c7.247-7.247 2.114-19.638-8.134-19.638H63.863c-6.353 0-11.504 5.15-11.504 11.504v97.252c0 10.249 12.391 15.381 19.638 8.134l31.63-31.63 83.832 83.831c5.287 5.287 13.859 5.287 19.146 0l14.847-14.847c5.285-5.285 5.285-13.857-.001-19.144z"/></svg><svg viewBox="-42.67 -42.67 597.33 597.33" width="28" height="28" id="fxemoji-u1F4CA-barchart" x="28" y="84" xmlns="http://www.w3.org/2000/svg"><path fill="#DCE2E2" d="M478.685 44.5H32a4.5 4.5 0 010-9h446.685a4.5 4.5 0 010 9zm4.5 44.918a4.5 4.5 0 00-4.5-4.5H32a4.5 4.5 0 000 9h446.685a4.5 4.5 0 004.5-4.5zm0 49.418a4.5 4.5 0 00-4.5-4.5H32a4.5 4.5 0 000 9h446.685a4.5 4.5 0 004.5-4.5zm0 49.418a4.5 4.5 0 00-4.5-4.5H32a4.5 4.5 0 000 9h446.685a4.5 4.5 0 004.5-4.5zm0 49.418a4.5 4.5 0 00-4.5-4.5H32a4.5 4.5 0 000 9h446.685a4.5 4.5 0 004.5-4.5zm0 49.418a4.5 4.5 0 00-4.5-4.5H32a4.5 4.5 0 000 9h446.685a4.5 4.5 0 004.5-4.5zm0 49.418a4.5 4.5 0 00-4.5-4.5H32a4.5 4.5 0 000 9h446.685a4.5 4.5 0 004.5-4.5zm0 49.418a4.5 4.5 0 00-4.5-4.5H32a4.5 4.5 0 000 9h446.685a4.5 4.5 0 004.5-4.5zm0 49.418a4.5 4.5 0 00-4.5-4.5H32a4.5 4.5 0 000 9h446.685a4.5 4.5 0 004.5-4.5z"/><path fill="#FF473E" d="M183.96 483.418H82.669V137.39c0-12.364 10.023-22.387 22.387-22.387h56.517c12.364 0 22.387 10.023 22.387 22.387v346.028z"/><path fill="#00B1FF" d="M318.431 483.418H217.14V296.187c0-12.364 10.023-22.387 22.387-22.387h56.517c12.364 0 22.387 10.023 22.387 22.387v187.231z"/><path fill="#A97DFF" d="M452.902 483.418h-101.29V80.91c0-12.364 10.023-22.387 22.387-22.387h56.517c12.364 0 22.387 10.023 22.387 22.387v402.508z"/><path fill="#B9C5C6" d="M478.685 489.418H32a7 7 0 01-7-7V40a7 7 0 1114 0v435.418h439.685a7 7 0 110 14z"/></svg><svg viewBox="-42.67 -42.67 597.33 597.33" width="28" height="28" id="fxemoji-u1F6C4-baggageclaim" x="56" y="84" xmlns="http://www.w3.org/2000/svg"><path fill="#00B1FF" d="M508.333 32.666C508.333 16.35 494.984 3 478.668 3H29.032C14.348 3 2.333 15.015 2.333 29.699v452.602C2.333 496.985 14.348 509 29.032 509h449.635c16.316 0 29.666-13.35 29.666-29.666V32.666z"/><path fill="#0096D1" d="M478.668 488.915H29.032c-14.684 0-26.699-12.015-26.699-26.699v20.085C2.333 496.985 14.348 509 29.032 509h449.635c16.316 0 29.666-13.35 29.666-29.666v-20.085c0 16.316-13.349 29.666-29.665 29.666z"/><path fill="#FFF" d="M334.314 114.624V99.468c0-21.323-17.348-38.67-38.67-38.67h-79.289c-21.323 0-38.67 17.347-38.67 38.67v15.156H133.5v250.539h246V114.624h-45.186zm-26 0H203.686V99.468c0-6.986 5.684-12.67 12.67-12.67h79.289c6.986 0 12.67 5.684 12.67 12.67v15.156zM441.364 404.63v14.068c0 5.228-5.009 9.466-11.187 9.466h-1.715c.011.25.038.497.038.75 0 9.068-7.351 16.418-16.418 16.418-9.068 0-16.418-7.351-16.418-16.418 0-.253.027-.5.038-.75h-18.517c.011.25.038.497.038.75 0 9.068-7.351 16.418-16.418 16.418s-16.418-7.351-16.418-16.418c0-.253.027-.5.038-.75h-18.517c.011.25.038.497.038.75 0 9.068-7.351 16.418-16.418 16.418-9.068 0-16.418-7.351-16.418-16.418 0-.253.027-.5.038-.75H274.63c.011.25.038.497.038.75 0 9.068-7.351 16.418-16.418 16.418s-16.418-7.351-16.418-16.418c0-.253.027-.5.038-.75h-18.517c.011.25.038.497.038.75 0 9.068-7.351 16.418-16.418 16.418-9.068 0-16.418-7.351-16.418-16.418 0-.253.027-.5.038-.75h-18.517c.011.25.038.497.038.75 0 9.068-7.351 16.418-16.418 16.418-9.068 0-16.418-7.351-16.418-16.418 0-.253.027-.5.038-.75h-18.517c.011.25.038.497.038.75 0 9.068-7.351 16.418-16.418 16.418-9.068 0-16.418-7.351-16.418-16.418 0-.253.027-.5.038-.75h-5.295c-6.179 0-11.187-4.238-11.187-9.466V404.63c0-5.228 5.009-9.466 11.187-9.466h347.435c6.177-.001 11.185 4.238 11.185 9.466zm-32.993-290.006H401.5v250.539h6.871c18.222 0 32.993-14.771 32.993-32.993V147.618c0-18.222-14.771-32.994-32.993-32.994zm-296.871 0h-7.871c-18.222 0-32.993 14.772-32.993 32.993V332.17c0 18.222 14.772 32.993 32.993 32.993h7.871V114.624z"/></svg><svg viewBox="-42.67 -42.67 597.33 597.33" width="28" height="28" id="fxemoji-u2653-pisces" x="84" y="84" xmlns="http://www.w3.org/2000/svg"><path fill="#A97DFF" d="M506 32.666C506 16.35 492.65 3 476.334 3H26.699C12.015 3 0 15.015 0 29.699v452.602C0 496.985 12.015 509 26.699 509h449.635C492.65 509 506 495.65 506 479.334V32.666z"/><path fill="#7F4AFF" d="M476.334 488.915H26.699C12.015 488.915 0 476.9 0 462.216v20.085C0 496.985 12.015 509 26.699 509h449.635C492.65 509 506 495.65 506 479.334v-20.085c0 16.316-13.35 29.666-29.666 29.666z"/><path fill="#FFF" d="M417.492 255.934c0-10.217-8.282-18.5-18.5-18.5h-55.566c3.787-49.767 23.457-97.158 56.367-135.018 6.703-7.711 5.886-19.396-1.825-26.099-7.711-6.703-19.396-5.887-26.099 1.826-38.765 44.595-61.693 100.592-65.544 159.291H199.829c-3.851-58.699-26.779-114.696-65.543-159.291-6.704-7.711-18.389-8.529-26.099-1.826-7.711 6.703-8.529 18.388-1.826 26.099 32.91 37.86 52.58 85.251 56.367 135.018h-54.387c-10.217 0-18.5 8.283-18.5 18.5s8.283 18.5 18.5 18.5h54.26c-4.086 49.177-23.686 95.953-56.24 133.402-6.703 7.711-5.886 19.396 1.826 26.099a18.422 18.422 0 0012.129 4.538c5.17 0 10.312-2.155 13.97-6.363 38.409-44.185 61.265-99.565 65.428-157.676H306.44c4.163 58.111 27.02 113.491 65.429 157.676a18.454 18.454 0 0013.97 6.363c4.303 0 8.627-1.493 12.129-4.538 7.711-6.703 8.528-18.388 1.825-26.099-32.554-37.45-52.154-84.226-56.24-133.402h55.439c10.218 0 18.5-8.283 18.5-18.5z"/></svg></svg>