<?xml version="1.0" encoding="iso-8859-1"?><!DOCTYPE svg PUBLIC "-//W3C//DTD SVG 1.1//EN" "http://www.w3.org/Graphics/SVG/1.1/DTD/svg11.dtd"><svg width="140" height="112" viewBox="0 0 140 112" xmlns="http://www.w3.org/2000/svg" xmlns:xlink="http://www.w3.org/1999/xlink"><svg viewBox="-42.67 -42.67 597.33 597.33" width="28" height="28" id="fxemoji-u1F1EE-regionalindicatorI" xmlns="http://www.w3.org/2000/svg"><path fill="#132028" d="M496 496h-40v-16h24v-24h16v40zm-65.532-16h-68.085v16h68.085v-16zm-93.617 0h-68.085v16h68.085v-16zm-93.617 0h-68.085v16h68.085v-16zm-93.617 0H81.532v16h68.085v-16zM56 480H32v-24H16v40h40v-16zM32 362.383H16v68.085h16v-68.085zm0-93.617H16v68.085h16v-68.085zm0-93.618H16v68.085h16v-68.085zm0-93.616H16v68.085h16V81.532zM32 32h24V16H16v40h16V32zm398.468-16h-68.085v16h68.085V16zm-93.617 0h-68.085v16h68.085V16zm-93.617 0h-68.085v16h68.085V16zm-93.617 0H81.532v16h68.085V16zM496 16h-40v16h24v24h16V16zm0 346.383h-16v68.085h16v-68.085zm0-93.617h-16v68.085h16v-68.085zm0-93.617h-16v68.085h16v-68.085zm0-93.617h-16v68.085h16V81.532zM235.188 89.506h41.623v332.987h-41.623z"/></svg><svg viewBox="-42.67 -42.67 597.33 597.33" width="28" height="28" id="fxemoji-u1F326-sunraincloud" x="28" xmlns="http://www.w3.org/2000/svg"><circle fill="#FFD60D" cx="129.407" cy="83.757" r="80.511"/><path fill="#B0E9FF" d="M54.815 416.554a11.073 11.073 0 01-7.854-3.253c-4.337-4.337-4.337-11.37 0-15.707l56.781-56.781c4.337-4.338 11.37-4.338 15.707 0 4.337 4.337 4.337 11.37 0 15.707l-56.781 56.781a11.069 11.069 0 01-7.853 3.253zm51.76 75.419l53.682-53.682c4.337-4.337 4.337-11.369 0-15.707-4.337-4.337-11.37-4.339-15.707 0l-53.682 53.682c-4.337 4.337-4.337 11.369 0 15.707a11.071 11.071 0 007.854 3.253c2.841 0 5.684-1.084 7.853-3.253zm131.046-77.845l42.772-42.772c4.338-4.337 4.338-11.37 0-15.707-4.338-4.338-11.369-4.338-15.707 0l-42.772 42.772c-4.337 4.337-4.337 11.37 0 15.707 2.168 2.169 5.011 3.253 7.854 3.253s5.685-1.084 7.853-3.253zm-15.173 87.562l62.209-62.208c4.338-4.337 4.338-11.369 0-15.707-4.337-4.338-11.368-4.338-15.707 0l-62.209 62.208c-4.337 4.337-4.337 11.369 0 15.707a11.071 11.071 0 007.854 3.253c2.842 0 5.685-1.084 7.853-3.253zm140.635-58.555l54.07-54.07c4.338-4.337 4.338-11.37 0-15.707-4.338-4.338-11.369-4.338-15.707 0l-54.07 54.07c-4.338 4.337-4.338 11.37 0 15.707 2.169 2.169 5.011 3.253 7.854 3.253s5.684-1.084 7.853-3.253zm21.679-135.369l-72.074 72.075c-4.338 4.338-4.338 11.37 0 15.707 2.169 2.169 5.011 3.253 7.854 3.253s5.685-1.084 7.854-3.253l72.074-72.075c4.338-4.338 4.338-11.37 0-15.707-4.339-4.338-11.37-4.338-15.708 0zm44.182-128.062a62.39 62.39 0 00-14.952 1.82 64.746 64.746 0 001.653-14.493c0-35.672-28.918-64.59-64.59-64.59a64.28 64.28 0 00-36.477 11.29c-12.116-46.683-54.536-81.153-105.01-81.153-59.914 0-108.485 48.57-108.485 108.485-45.046 0-81.563 36.422-81.563 81.468 0 45.046 36.517 81.468 81.563 81.468h112.412l-65.175 65.269c-4.337 4.337-4.337 11.418 0 15.754 2.168 2.169 5.011 3.277 7.854 3.277s5.685-1.167 7.854-3.336L244.91 304h184.034c34.376 0 62.243-27.772 62.243-62.148-.001-34.376-27.868-62.148-62.243-62.148z"/></svg><svg viewBox="-42.67 -42.67 597.33 597.33" width="28" height="28" id="fxemoji-u1F3A0-carouselhorse" y="28" xmlns="http://www.w3.org/2000/svg"><path fill="#59CAFC" d="M500.951 489.617c0 6.6-5.4 12-12 12H21.716c-6.6 0-12-5.4-12-12V22.383c0-6.6 5.4-12 12-12H488.95c6.6 0 12 5.4 12 12"/><path fill="#597B91" d="M403.271 365.73s0 12.843-8.219 12.843-64.726 15.925-78.083 15.925c-13.356 0-11.301 8.733-17.98 8.733-.895 0-10.228 7.805-13.356 10.387s-19.82 4.075-24.658-.009c-3.727-3.146 8.434-6.704 6.314-12.487-1.239-3.381-.47-2.208 1.905-4.055 13.738-10.682 23.63-14.897 41.096-14.202 17.466.695 51.884-10.455 64.213-17.133h28.768zm-228.083-46.233s-80.651-14.384-100.172-11.301c-19.521 3.082-9.76 21.062-9.76 28.767 0 7.706-6.678 15.411-6.678 37.773 0 22.362 3.596 14.624 8.219 23.871 4.623 9.247 16.438 15.001 16.438 15.001s15.945 12.896 16.438 7.479c.272-2.986-2.055-23.05-2.645-26.59-.554-3.321-13.922-6.871-15.848-10.017-7.706-12.586-8.219-41.867 0-48.849 8.219-6.982 20.034 3.386 39.041 3.386s17.98-2.055 36.71-3.386l18.257-16.134z"/><path fill="#C18306" d="M260.261 46.39c0-10.637-8.623-19.261-19.261-19.261s-19.261 8.623-19.261 19.261c0 7.385 4.16 13.791 10.261 17.023v419.911h18V63.413c6.1-3.232 10.261-9.638 10.261-17.023z"/><path fill="#D17BFF" d="M397.666 215.457c20.909-16.333 45.803-33.109 65.666-11.101 12.684 14.054 13.994 36.004 9.66 53.823-5.211 21.422-25.952 39.265-25.081 61.958.622 16.205 11.012 21.959 22.963 30.878 6.012 4.487 7.921 13.082 8.527 18.086.146 1.206-1.34 1.874-2.163.98-4.197-4.552-13.941-13.533-30.338-20.086-11.505-4.598-14.951-17.492-16.306-29.566-3.043-27.116 17.547-47.605 18.116-73.677.558-14.173-5.41-27.964-22.692-23.908-6.52 1.53-17.492 11.675-21.43 6.867-6.418-7.833-.506-6.42-6.922-14.254z"/><path fill="#F9F9F7" d="M435.995 365.089c-.066-.219-.152-.434-.232-.65a14.493 14.493 0 01-.129-1.792c0-6.164-21.575-19.007-21.575-38.528 0-19.521 16.952-26.199 16.952-59.589 0-33.391-11.301-60.617-47.774-60.617s-45.206 21.575-103.254 21.575-78.136-50.694-87.329-66.781c-10.025-17.543-32.955-53.085-60.507-65.758v-.001c1.138-23.636-13.466-39.036-12.953-30.303.445 7.568-6.436 15.138-8.281 25.744-12.042.794-21 10.215-21 10.215-9.247 10.274-12.329 27.74-11.815 41.096s-9.717 20.282-14.384 38.014c-5.137 19.521 10.274 26.199 13.099 27.226 2.825 1.027 5.14.107 10.531-19.521 1.424-5.184 9.754-1.019 8.917 4.554-1.441 9.585-5.031 20.406 3.926 17.536 8.957-2.871 10.788-9.247 11.301-22.089.514-12.843 19.521-24.658 23.117-25.171 3.596-.514 0 31.336 0 31.336s-7.706 34.026-7.706 49.119c0 6.996.777 21.746 3.399 37.539 1.309 7.882-4.769 15.026-12.758 14.981-8.325-.046-15.978-.4-20.949-1.981C85.29 287.647 73.988 279.1 67.31 279.1c-6.678 0-20.034 4.438-21.062 20.876-1.027 16.438-19.521 33.904-20.548 42.123-1.027 8.219 9.857 41.949 22.089 47.622 5.101 2.366 6.105-15.04 6.252-25.573.059-4.237-2.897-7.895-7.042-8.778-4.485-.956-8.713-2.501-4.348-4.538 7.706-3.596 6.164 1.217 8.219-19.426 2.055-20.643 6.678-26.837 19.521-26.565 12.842.272 22.089 26.565 73.973 26.565h.09c5.033-.004 9.888 1.853 13.587 5.267 12.432 11.475 22.204 14.159 43.344 14.159 69.564 0 94.007-31.336 112.5-31.336s1.541 5.651 19.521 23.63c17.979 17.98 41.096 33.904 74.487 31.336l.033-.003a2.838 2.838 0 013.047 3.049c-2.163 27.408-43.427 48.394-57.019 62.194-6.323 6.42-10.048 27.74-10.048 27.74s-2.281 11.815.923 14.897c3.204 3.082 14.512-1.272 22.481-10.274 2.858-3.229-1.076-10.688 1.027-15.411 1.849-4.151 9.891-5.782 10.274-6.164 3.596-3.596-9.247-6.678 11.815-21.268 21.064-14.588 49.061-52.626 45.569-64.133z"/><path fill="#FFD469" d="M232.238 201.785a4.624 4.624 0 00-4.624 4.624c0 12.499-6.262 23.585-16.343 28.934-12.412 6.584-28.61 3.872-45.606-7.636-18.959-12.838-21.645-56.002-23.421-84.564-.534-8.579-.995-15.988-1.797-21.403-.075-.503-.16-1.076-.264-1.692a9.901 9.901 0 001.989-5.955c0-5.502-4.46-9.963-9.962-9.963-.907 0-1.782.132-2.618.359-6.29-4.599-17.991-9.608-39.487-10.502a4.616 4.616 0 00-4.812 4.427 4.624 4.624 0 004.427 4.812c18.129.754 27.899 4.557 33.013 7.801a9.903 9.903 0 00.92 8.151L94.515 166.53c-.09.009-.176.029-.265.04-5.146-3.941-13.987-9.598-22.701-9.92a4.616 4.616 0 00-4.791 4.45 4.625 4.625 0 004.45 4.791c5.039.186 10.857 3.363 15.269 6.439a9.914 9.914 0 00-.894 4.109c0 5.502 4.46 9.963 9.963 9.963s9.962-4.46 9.962-9.963a9.921 9.921 0 00-2.31-6.376l28.25-45.909c.682 5.345 1.157 12.956 1.568 19.563 2.002 32.184 4.744 76.261 27.465 91.646 14.331 9.704 26.458 12.744 36.031 12.744 8.424 0 14.87-2.355 19.093-4.596 13.111-6.956 21.256-21.173 21.256-37.102a4.622 4.622 0 00-4.623-4.624z"/><path fill="#D17BFF" d="M69.365 120.694c-17.166 0-23.857-13.335-18.559-23.898.466-.93 1.847-.743 2.087.269.691 2.905 3.527 6.537 13.389 6.537 16.438 0 1.077-30.168 25.685-30.168s33.904 14.897 52.397 14.897 24.658 14.384 30.822 22.603 19.521-1.541 27.74 12.329c8.219 13.87 5.137 21.575 11.301 28.767s21.79 23.4 17.167 39.633-23.63 11.815-12.329 36.473c7.169 15.642-5.594 25.464-15.885 30.556-1.243.615-2.435-.978-1.477-1.981 6.462-6.766 9.968-19.42-14.189-39.955-36.772-31.257 3.475-30.362 2.141-50.625-1.397-21.217-45.347-71.209-65.988-76.315a54.061 54.061 0 00-2.334-.523c-25.258-5.073-39.672 16.675-41.456 30.704l-10.512.697z"/><path fill="#FFD469" d="M252.37 218.472c12.629 2.285 36.709 4.296 62.339-.209 25.63-4.505 49.655-14.284 49.655-14.284s29.287 94.387-60.456 94.387c-71.199 0-51.538-79.894-51.538-79.894z"/></svg><svg viewBox="-42.67 -42.67 597.33 597.33" width="28" height="28" id="fxemoji-u1F3CA-swimming" x="28" y="28" xmlns="http://www.w3.org/2000/svg"><path fill="#E2AF8D" d="M322.973 257.089l-.203-2.241c-.415-4.419-.879-9.777-1.552-15.912-.68-6.135-1.478-13.05-2.404-20.593-.474-3.771-.934-7.701-1.511-11.764l-1.831-12.583a1213.803 1213.803 0 00-4.378-27.19c-.788-4.724-1.807-9.51-2.786-14.371-.504-2.429-1.099-4.865-1.668-7.319-.582-2.453-1.162-4.922-1.83-7.393a515.358 515.358 0 00-8.922-30.174 241.578 241.578 0 00-2.667-7.743 145.662 145.662 0 00-2.972-7.953c-1.139-2.693-2.293-5.463-3.793-8.417a54.076 54.076 0 00-2.633-4.613c-1.044-1.615-2.263-3.332-3.985-5.2l-.323-.347-.498-.521-.083-.079-.332-.317-.696-.663-1.329-1.185c-.443-.384-.934-.805-1.26-1.043-1.475-1.138-2.887-2.198-4.289-3.09-2.794-1.83-5.458-3.321-8.045-4.703-2.592-1.372-5.077-2.651-7.56-3.777-2.469-1.158-4.885-2.277-7.282-3.276a176.847 176.847 0 00-7.107-2.845 218 218 0 00-6.982-2.364 108.883 108.883 0 00-13.594-3.188c-4.436-.748-8.761-1.208-12.914-1.698l-6.119-.646-5.898-.406c-3.851-.22-7.521-.479-11.026-.539-3.503-.067-6.82-.102-9.933-.115-5.647.087-10.618.233-14.832.515l-2.208-1.825c-1.921-1.587-3.927-3.062-6.057-4.263-2.11-1.237-4.309-2.237-6.519-3.051a41.863 41.863 0 00-6.654-1.818c-1.108-.232-2.197-.344-3.292-.494a55.957 55.957 0 00-3.233-.227c-2.127-.059-4.22-.005-6.23.218-2.026.191-3.971.538-5.86.963a53.19 53.19 0 00-10.519 3.604 61.046 61.046 0 00-8.988 5.144c-.701.467-1.373.956-2.031 1.455-.664.494-1.327.986-1.952 1.508-1.285 1.015-2.488 2.085-3.682 3.153-1.155 1.097-2.308 2.186-3.379 3.325-1.104 1.115-2.113 2.288-3.131 3.443l-1.47 1.765c-.486.582-.997 1.254-1.489 1.876l-.739.95c-.239.311-.39.552-.59.832l-1.129 1.623c-2.932 4.216-2.807 10.041.668 14.146 4.147 4.898 11.478 5.507 16.376 1.36l1.509-1.277c.243-.201.521-.453.736-.612l.628-.454 1.263-.915 1.36-.948c.92-.596 1.819-1.214 2.751-1.739.915-.562 1.851-1.044 2.768-1.539.934-.45 1.853-.906 2.78-1.284.458-.211.923-.379 1.382-.552a18.34 18.34 0 011.373-.489 30.026 30.026 0 014.037-1.059c.051.22.101.44.162.659 2.215 7.921 10.432 12.546 18.353 10.33l17.774-4.971a16.274 16.274 0 003.409-1.383c3.84 1.17 8.344 2.459 13.379 3.986 2.884.837 5.942 1.747 9.147 2.732l10.041 3.055 10.754 3.407c3.684 1.175 7.44 2.492 11.242 3.796 1.898.652 3.81 1.33 5.716 2.019 1.919.656 3.821 1.351 5.726 2.059 3.803 1.335 7.6 2.75 11.126 4.296a83.146 83.146 0 015.096 2.261c1.596.775 3.099 1.566 4.331 2.348 1.235.774 2.248 1.541 2.766 2.09.279.275.374.477.336.55.086.084-.194-.1-.369-.234a5.486 5.486 0 01-.529-.457l.541.636.299.349.075.087c.196.208-1.292-1.347-.709-.732l-.168-.155c-.884-.867-1.141-1.176-1.266-1.177-.111.001-.055.299.039.741.202.889.564 2.356.902 3.999.702 3.339 1.349 7.427 1.842 11.68 1.027 8.555 1.61 17.836 2.383 27.009l1.113 13.776c.452 4.563.748 9.114 1.208 13.587.426 4.477.814 8.9 1.171 13.241l.512 6.448.572 6.3 1.022 12.115c.31 3.919.71 7.704 1.02 11.346.483 5.821 1.018 11.249 1.498 16.223-5.131 2.005-10.297 4.66-15.358 7.918l-11.29-11.29c-.076-.076-.16-.14-.237-.214 10.738-22.731 6.72-50.701-12.075-69.495l-3.201-4.048c.187-.168.379-.326.559-.505 5.349-5.349 5.348-14.032-.004-19.384-4.766-4.766-12.168-5.277-17.51-1.557l-1.364-1.725c-25.496-25.496-66.839-25.501-92.345.004-25.496 25.496-25.492 66.839.005 92.336l1.747 1.38-.001.001c-3.589 5.328-3.026 12.627 1.688 17.341 5.352 5.352 14.035 5.353 19.384.004.13-.13.243-.271.367-.406l4.041 3.193c18.278 18.278 45.227 22.576 67.598 12.927.233.264.458.533.71.786l11.35 11.35c-14.801 23.184-16.781 48.554-2.999 62.337l96.771 115.526 114.987-114.987-98.579-82.574z"/><path fill="#2B3B47" d="M133.522 211.268l6.457 6.457-.01.01c.01.01.028.008.028.008 2.536 2.536 2.536 6.651 0 9.187s-6.651 2.536-9.192-.005l-.013-.013-.02.02-6.457-6.457.055-.055c-2.147-2.557-2.051-6.355.355-8.761 2.399-2.399 6.197-2.495 8.751-.345l.046-.046zm54.951-54.952c-2.554-2.15-6.355-2.051-8.761.355-2.396 2.396-2.495 6.197-.345 8.751l-.055.055 6.457 6.457.02-.02.013.013c2.541 2.541 6.656 2.541 9.182.015a6.498 6.498 0 000-9.187l-.018-.018-6.457-6.457-.036.036z"/><path fill="#FFF" d="M128.196 217.096l1.609 1.609.004.004a1.618 1.618 0 01-2.288 2.288l-.004-.004-.002.002-1.609-1.609.011-.011a1.618 1.618 0 01.088-2.181 1.609 1.609 0 012.178-.085l.013-.013zm55.322-55.322a1.61 1.61 0 00-2.178.085 1.618 1.618 0 00-.088 2.181l-.011.011 1.609 1.609.003-.002.004.004a1.618 1.618 0 102.288-2.288l-.004-.004-1.609-1.609-.014.013z"/><path fill="#CE8E63" d="M218.452 243.52c9.891-9.891 16.074-22.082 18.56-34.851-.012 15.645-5.984 31.287-17.921 43.224-23.89 23.89-62.639 23.896-86.533.002l-2.335-2.042c26.492 19.799 64.162 17.734 88.229-6.333z"/><path fill="#8E6049" d="M126.887 202.43l-.558.358a43.015 43.015 0 00-3.583 2.667c-.724.616-1.492 1.286-2.18 1.991-.357.349-.692.705-.998 1.064-.333.353-.597.712-.867 1.058-.293.345-.467.685-.692 1.005-.23.322-.327.617-.491.895-.172.282-.192.511-.294.73-.103.221-.13.395-.147.533-.053.283-.099.449-.099.449l-.225.799a2.543 2.543 0 01-4.989-.807l.049-1.065c.014-.346.05-.757.162-1.18.108-.421.182-.963.376-1.431.186-.474.354-1.049.615-1.545.256-.501.504-1.077.825-1.572.309-.516.628-1.057.988-1.547.347-.515.717-1.012 1.1-1.487.755-.973 1.564-1.863 2.334-2.687a50.086 50.086 0 012.181-2.144 45.056 45.056 0 011.63-1.439l.667-.545a3.63 3.63 0 114.257 5.863l-.061.037zm37.538-47.542a3.628 3.628 0 106.11 3.914l.037-.057.358-.558a43.015 43.015 0 012.667-3.583c.616-.724 1.286-1.492 1.991-2.18.349-.357.705-.692 1.064-.998.353-.333.712-.597 1.058-.867.345-.293.685-.467 1.005-.692.322-.23.617-.327.895-.491.282-.172.511-.192.73-.294.221-.103.395-.13.533-.147.283-.053.449-.099.449-.099l.8-.225a2.544 2.544 0 00-.809-4.989l-1.065.049c-.346.014-.757.05-1.18.162-.421.108-.963.182-1.431.376-.474.186-1.049.354-1.545.615-.501.256-1.077.504-1.572.825-.516.309-1.057.628-1.547.988-.515.347-1.012.717-1.487 1.1-.973.755-1.863 1.564-2.687 2.334a50.086 50.086 0 00-2.144 2.181 45.056 45.056 0 00-1.439 1.63l-.545.667a3.81 3.81 0 00-.246.339z"/><path fill="#CE8E63" d="M172.877 217.448c-.911 0-1.829-.101-2.74-.308a2.573 2.573 0 111.139-5.019c2.451.558 5.005-.205 6.836-2.033 1.834-1.833 2.599-4.393 2.044-6.85a2.573 2.573 0 115.021-1.133c.946 4.19-.335 8.536-3.427 11.624-2.417 2.413-5.6 3.719-8.873 3.719zm16.502 20.719c8.854-1.208 15.614-7.968 16.822-16.821a2.573 2.573 0 10-5.1-.696c-.906 6.638-5.78 11.513-12.418 12.418a2.573 2.573 0 10.696 5.099z"/><path fill="#332A23" d="M200.26 139.885l-18.504-18.504c-17.919-17.919-49.183-34.582-80.832-5.929l-.074-.074-14.139 14.139c-32.694 32.694-20.142 63.501.112 83.755l20.254 20.254c3.608 3.608 7.601 1.041 4.015-5.934-5.345-10.397-27.148-43.703-5.766-45.362 15.312-1.188 62.275-26.566 53.457-27.45-2.873-.288-5.957-.805-9.172-1.496 30.509-20.196 43.125-10.268 47.44-8.991 7.303 2.161 3.209-4.408 3.209-4.408z"/><path fill="#C2CACE" d="M101.298 224.749c.416 3.041-3.082 4.412-5.319 2.311C61 194.21 52.844 152.615 86.711 118.749c35.271-35.271 80.911-31.749 110.093 11.51 1.714 2.54.572 5.752-2.451 5.255-12.976-2.135-35.382-2.184-61.978 24.413-26.557 26.556-32.8 52.235-31.077 64.822z"/><path fill="#59CAFC" d="M488.951 501.617c6.6 0 12-5.4 12-12V341.068c-31.955 1.492-58.707 1.046-66.89-3.674-30.004-17.306 3.167-32.167-8.869-32.167-28 0-36.165 22.584-53.964 19.744-36.001-5.744-2.426-38.761-11.303-38.761-40.698 0-66.982 50.722-92.698 40.517-31.5-12.5 6.042-55.041-4-55.041-62 0-93.404 33.464-151.995 56.902-27.417 10.968-72.645 8.011-101.517 4.487v156.541c0 6.6 5.4 12 12 12h467.236z"/></svg><svg viewBox="-42.78 -42.78 597.48 598.88" width="27.93" height="28" id="fxemoji-u1F46D-girlgirl" x="56" xmlns="http://www.w3.org/2000/svg"><path fill="#597B91" d="M316.671 495.106l-3.525 2.825c-2.373 1.788-4.286 5.047-6.453 6.858-3.595 3.195-6.244 5.039-6.244 5.039-6.106 4.252-14.797 1.988-19.412-5.058-3.507-5.354-3.651-11.928-.837-16.642 0 0 9.014-15.517 10.816-17.299l3.124-3.317c6.061-6.436 16.368-5.797 23.021 1.428 6.653 7.225 7.133 18.299 1.071 24.736-.442.47-.907.902-1.391 1.296l-.17.134zm48.989 0l3.525 2.825c2.373 1.788 4.286 5.047 6.453 6.858 3.595 3.195 6.244 5.039 6.244 5.039 6.106 4.252 14.797 1.988 19.412-5.058 3.507-5.354 3.651-11.928.837-16.642 0 0-9.014-15.517-10.816-17.299l-3.124-3.317c-6.061-6.436-16.368-5.797-23.021 1.428-6.653 7.225-7.133 18.299-1.071 24.736.442.47.907.902 1.391 1.296l.17.134z"/><path fill="#2B3B47" d="M398.252 308.353H283.534l4.208 162.336c0 9.297 7.537 16.834 16.834 16.834s16.834-7.537 16.834-16.834l4.209-90.56c0-8.436 6.839-15.274 15.274-15.274 8.436 0 15.274 6.839 15.274 15.274l4.209 90.56c0 9.297 7.537 16.834 16.834 16.834s16.834-7.537 16.834-16.834l4.208-162.336z"/><path fill="#CECECE" d="M142.144 494.723l-3.605 2.889c-2.427 1.828-4.383 5.162-6.6 7.014-3.677 3.268-6.385 5.154-6.385 5.154-6.245 4.349-15.134 2.033-19.853-5.173-3.587-5.475-3.733-12.199-.857-17.02 0 0 9.219-15.869 11.062-17.692l3.195-3.392c6.199-6.583 16.74-5.929 23.544 1.46 6.804 7.389 7.295 18.715 1.096 25.298-.453.48-.928.922-1.423 1.325l-.174.137zm36.889 0l3.605 2.889c2.427 1.828 4.383 5.162 6.6 7.014 3.677 3.268 6.385 5.154 6.385 5.154 6.245 4.349 15.134 2.033 19.853-5.173 3.587-5.475 3.733-12.199.857-17.02 0 0-9.219-15.869-11.062-17.692l-3.195-3.392c-6.199-6.583-16.74-5.929-23.544 1.46-6.804 7.389-7.295 18.715-1.096 25.298.453.48.928.922 1.423 1.325l.174.137z"/><path fill="#FFD3B6" d="M450.515 336.82a64.627 64.627 0 01-.356 6.308 45.006 45.006 0 01-.289 2.233 7.046 7.046 0 01-13.922-2.17l.001-.009.01-.065c.059-.377.134-.968.189-1.486a50.359 50.359 0 00.278-4.92c.004-.468-.003-.933-.013-1.396a5.074 5.074 0 01-3.103.165 5.122 5.122 0 01-3.806-4.947l.005-13.138-1.359-4.068c-.978-2.9-2.392-7.044-4.129-12-3.471-9.91-8.246-23.078-13.388-35.978-2.569-6.448-5.229-12.828-7.841-18.668a292.656 292.656 0 00-3.855-8.288l-1.855-3.717-1.777-3.363-1.672-2.954-1.529-2.484-1.335-1.951-1.07-1.361c-.203-.29-.189-.172-.232-.202-.031-.005-.05-.015-.062-.029a.076.076 0 01-.013-.023l-.003-.013s.002-.002-.004-.009l-.071-.066-.506-.471-.928-.863-.137-.127c-5.952-5.535-6.29-14.847-.755-20.799s14.847-6.29 20.799-.755c.472.439.961.968 1.363 1.451l.803.981.438.535.924 1.199c.348.464.715.967 1.097 1.509.364.521.844 1.202 1.036 1.574.509.885 1.098 1.887 1.667 2.941l1.618 3.278 1.58 3.598 1.55 3.899 1.525 4.177c.485 1.431 1.011 2.915 1.502 4.428a318.054 318.054 0 012.931 9.48c1.919 6.551 3.764 13.507 5.493 20.459 3.459 13.902 6.453 27.793 8.586 38.235 1.067 5.22 1.92 9.575 2.507 12.63a3237.52 3237.52 0 01.564 2.979c.336.337.642.686.929 1.045.288.358.6.712.849 1.082l.77 1.11.681 1.128c.418.755.828 1.52 1.154 2.28.356.764.634 1.523.92 2.285.252.756.506 1.516.702 2.266.219.755.378 1.497.544 2.243.152.742.291 1.481.4 2.213.459 2.936.615 5.793.595 8.609zM150.29 374.681h-32.106l2.677 103.263c0 5.914 4.794 10.708 10.708 10.708 5.914 0 10.708-4.794 10.708-10.708v-.002l2.677-75.8c0-3.909 2.321-7.256 5.648-8.798-.049-12.286-.165-6.376-.312-18.663zm52.606 0h-35.399c.143 12.027.253 11.844.306 23.872 6.506 1.238 10.924 5.489 8.324 9.576l2.677 69.815v.001c0 5.914 4.794 10.708 10.708 10.708 5.914 0 10.708-4.794 10.708-10.708v-.001l2.676-103.263zm93.503-171.347c-7.152-3.862-16.08-1.196-19.943 5.956l-.602 1.116-.329.609-.68 1.352a64.61 64.61 0 00-.79 1.69c-.258.58-.6 1.34-.718 1.742-.331.965-.72 2.061-1.078 3.204l-.966 3.526-.868 3.833-.781 4.123-.704 4.391c-.204 1.497-.439 3.054-.633 4.632-.394 3.16-.76 6.467-1.077 9.864-.639 6.796-1.129 13.976-1.506 21.131-.754 14.306-1.055 28.513-1.166 39.17-.046 4.338-.061 8.071-.063 10.993a23.721 23.721 0 00-.306-1.184c-.201-.766-.46-1.544-.718-2.317-.292-.78-.577-1.555-.941-2.337-.333-.778-.753-1.56-1.18-2.332l-.697-1.154-.788-1.135c-.255-.378-.573-.741-.868-1.107a13.143 13.143 0 00-.95-1.069c-.024-.026-.051-.049-.075-.074l-.803-3.705-3.256-14.495c-2.753-11.984-6.558-27.93-10.812-43.866a815.522 815.522 0 00-3.264-11.893 554.794 554.794 0 00-3.378-11.534 387.195 387.195 0 00-3.442-10.825 255.99 255.99 0 00-3.468-9.79 149.804 149.804 0 00-3.484-8.48c-1.176-2.589-2.341-4.919-3.554-6.987-.423-.842-1.465-2.344-2.22-3.379l-1.112-1.484-.572-.707-.93-1.133a16.84 16.84 0 00-1.223-1.321 14.97 14.97 0 00-7.939-3.975c-6.771-3.749-17.12-6.644-29.388-8.119.073-.334.117-.672.117-1.015 0-.564-.117-1.114-.311-1.651v-14.255c16.096-6.864 27.503-22.572 28.15-41.017h3.086c6.305 0 11.414-5.1 11.414-11.404 0-6.3-5.108-11.403-11.414-11.403h-1.624l1.629-24.412c0-27.29-23.574-41.39-50.862-41.39-27.295 0-47.961 14.1-47.961 41.39l1.641 24.542a11.462 11.462 0 00-1.636-.131c-6.302 0-11.413 5.103-11.413 11.403 0 6.304 5.111 11.404 11.413 11.404 1.066 0 2.094-.157 3.073-.431.479 18.511 11.796 34.318 27.852 41.306v16.047c0 .331.038.657.106.978-11.08 1.305-20.62 3.761-27.399 6.965-4.874.624-9.322 3.675-11.487 8.484l-.582 1.292-.317.705-.187.419-.279.674c-.384.934-.815 2.013-1.274 3.223a97.32 97.32 0 00-2.1 7.011 152.812 152.812 0 00-1.96 8.582c-2.499 12.359-4.48 28.282-5.984 44.187-1.509 15.892-2.561 31.72-3.229 43.597-.334 5.938-.574 10.886-.732 14.355l-.159 3.731c-.033.051-.072.1-.104.151-.264.392-.497.791-.709 1.195-.214.403-.451.808-.624 1.216l-.542 1.228-.452 1.23c-.265.815-.521 1.639-.695 2.442-.203.813-.331 1.605-.466 2.403-.103.785-.207 1.575-.257 2.343-.072.778-.086 1.532-.108 2.291-.008.752-.004 1.5.027 2.235.112 2.948.499 5.766 1.05 8.509a63.96 63.96 0 001.539 6.087c.214.692.411 1.312.703 2.124l.003.008a7.002 7.002 0 0013.168-4.762l-.022-.061a33.094 33.094 0 01-.465-1.414 49.452 49.452 0 01-1.199-4.748 47.695 47.695 0 01-.251-1.362 5.06 5.06 0 001.815-.014 5.083 5.083 0 004.022-5.958l-2.464-12.705.762-4.635c.565-3.378 1.388-8.208 2.42-13.993 2.063-11.569 4.976-26.969 8.298-42.178.828-3.803 1.69-7.588 2.558-11.301.474-2.01.953-3.99 1.435-5.944l7.703 51.97h73.489l9.926-66.969a360.304 360.304 0 015.675 12.316 530.772 530.772 0 014.547 10.615 780.191 780.191 0 014.535 11.107c5.989 14.964 11.614 30.18 15.733 41.623a65130.26 65130.26 0 004.912 13.852l1.618 4.675-.006 13.387a5.239 5.239 0 003.892 5.059 5.196 5.196 0 003.174-.169 48.434 48.434 0 01-.122 4.792 49.454 49.454 0 01-.148 1.668c-.056.53-.132 1.134-.193 1.52l-.01.066-.001.009a7.205 7.205 0 0010.213 7.616c.174 1.304.389 2.59.643 3.857a64.78 64.78 0 001.549 6.125c.215.697.413 1.32.708 2.138l.003.008a7.045 7.045 0 1013.25-4.792l-.022-.062c-.13-.359-.316-.925-.468-1.423a50.762 50.762 0 01-1.207-4.778 47.669 47.669 0 01-.252-1.371c.59.1 1.205.106 1.826-.014a5.116 5.116 0 004.048-5.996l-2.501-12.898.561-4.252c.409-3.033 1.01-7.37 1.773-12.565 1.525-10.389 3.711-24.224 6.309-37.866 1.297-6.818 2.697-13.587 4.151-19.818a290.6 290.6 0 012.21-8.87l1.115-4.002 1.106-3.64 1.08-3.217 1.029-2.729.94-2.169.792-1.539c.144-.324.153-.204.189-.243.029-.011.047-.024.056-.04a.057.057 0 00.008-.025v-.014s-.003-.002.002-.01l.057-.078.407-.558.747-1.023.161-.218c.367-.51.705-1.049 1.012-1.617 3.859-7.15 1.192-16.079-5.96-19.941zm94.442-103.416c-.551 0-1.089.053-1.619.129l1.624-24.341c0-27.068-23.382-41.053-50.448-41.053-27.072 0-47.57 13.985-47.57 41.053l1.628 24.342a11.27 11.27 0 00-1.623-.13c-6.251 0-11.32 5.062-11.32 11.31 0 6.252 5.07 11.311 11.32 11.311a11.31 11.31 0 003.048-.427c.468 18.094 11.385 33.58 26.94 40.66v10.175c0 4.99 8.091 9.036 18.071 9.036s18.071-4.045 18.071-9.036c0-.552-.114-1.089-.304-1.614v-7.632c16.712-6.578 28.648-22.655 29.139-41.587.969.27 1.986.425 3.042.425 6.254 0 11.32-5.058 11.32-11.311.002-6.248-5.065-11.31-11.319-11.31z"/><path fill="#2B3B47" d="M316.741 99.855V107.098a5.137 5.137 0 01-5.133 5.133 5.134 5.134 0 01-5.133-5.133v-.02h-.011v-7.223h.051c.237-2.623 2.412-4.696 5.093-4.696 2.677 0 4.864 2.073 5.079 4.696h.054zm60.084 0c-.226-2.623-2.401-4.696-5.089-4.696-2.681 0-4.857 2.073-5.082 4.696h-.062v7.223h.022l-.011.02a5.134 5.134 0 005.133 5.133 5.137 5.137 0 005.133-5.133V99.855h-.044zM135.406 85.994c-.216-2.644-2.421-4.735-5.12-4.735-2.703 0-4.896 2.09-5.135 4.735h-.051v7.283h.011v.02a5.177 5.177 0 005.175 5.176 5.179 5.179 0 005.175-5.176v-7.303h-.055zm60.632 0c-.228-2.644-2.421-4.735-5.131-4.735-2.703 0-4.896 2.09-5.124 4.735h-.062v7.283h.022s-.011.009-.011.02a5.177 5.177 0 005.176 5.176 5.18 5.18 0 005.175-5.176v-7.303h-.045z"/><path fill="#FFD3B6" d="M381.28 99.918h9.562v22.621h-9.562z"/><path fill="#E5AB83" d="M341.84 128.793h-.009c-3.48-.003-6.647-1.732-8.471-4.626a2.13 2.13 0 01.666-2.936 2.13 2.13 0 012.936.666c1.04 1.651 2.861 2.637 4.872 2.639h.005c2.015 0 3.842-.987 4.888-2.642a2.128 2.128 0 113.598 2.274c-1.832 2.897-5.004 4.625-8.485 4.625zm22.608-41.777a1.683 1.683 0 101.991 2.715l.522-.382c.185-.146.32-.205.507-.325.165-.117.42-.235.69-.368.263-.148.582-.238.903-.376.335-.095.685-.23 1.063-.299a8.55 8.55 0 011.17-.192c.401-.04.814-.056 1.222-.04l.613.035.597.096c.395.066.772.18 1.132.299a6.638 6.638 0 011.816.98c.262.163.441.383.63.547.192.162.329.335.441.478l.364.443.084.103a.91.91 0 001.46-1.076l-.394-.603a4.418 4.418 0 00-.498-.666c-.218-.238-.432-.541-.744-.794a8.807 8.807 0 00-2.261-1.541c-.454-.208-.94-.407-1.444-.549l-.767-.204-.785-.131a11.516 11.516 0 00-1.578-.113 11.26 11.26 0 00-1.529.089c-.497.043-.966.16-1.416.245-.44.13-.869.216-1.245.371-.38.139-.725.26-1.057.432-.315.153-.635.304-.784.402l-.559.326c-.046.03-.098.064-.144.098zm-47.065 2.811a1.683 1.683 0 101.699-2.907l-.559-.326c-.149-.097-.469-.248-.784-.402-.331-.172-.677-.293-1.057-.432-.376-.155-.805-.241-1.245-.371-.451-.085-.919-.203-1.416-.245a11.241 11.241 0 00-1.529-.089 11.36 11.36 0 00-1.578.113l-.785.131-.767.204c-.504.142-.99.34-1.444.549a8.825 8.825 0 00-2.261 1.541c-.312.253-.526.556-.744.794a4.418 4.418 0 00-.498.666l-.394.603a.908.908 0 001.462 1.072l.082-.099.364-.443c.112-.143.248-.316.441-.478.19-.163.368-.384.63-.547a6.612 6.612 0 011.816-.98 7.57 7.57 0 011.132-.299l.597-.096.613-.035c.408-.016.821 0 1.222.04.403.04.795.1 1.17.192.378.068.728.203 1.063.299.321.138.641.228.903.376.27.133.525.252.69.368.187.12.323.179.507.325l.522.382c.047.03.099.065.148.094z"/><path fill="#FF7DDA" d="M418.222 210.866c-.012-.264-.012-.524-.045-.794-1.544-12.91-27.142-37.899-59.517-41.839v3.1c.19.525.304 1.062.304 1.614 0 4.99-8.091 9.036-18.071 9.036s-18.071-4.045-18.071-9.036v-2.592c-31.402 7.932-53.605 35.553-53.605 48.483 0 .272.031.53.05.793-.471 4.042 4.533 9.634 12.094 13.16 3.439 1.604 6.861 2.518 9.841 2.773l-11.787 78.478a7.534 7.534 0 00-.328 2.182c0 11.67 27.721 21.131 61.917 21.131s61.917-9.461 61.917-21.131c0-.737-.112-1.465-.328-2.182l-12.568-83.684.006.008s1.389-.243 3.543-.771c3.73.43 9.051-1.033 14.2-4.228 7.09-4.397 11.395-10.544 10.448-14.501z"/><path fill="#E5AB83" d="M160.766 113.31h-.008c-3.47-.002-6.627-1.727-8.445-4.612a2.033 2.033 0 113.44-2.168c1.07 1.697 2.942 2.711 5.008 2.713h.005c2.07 0 3.947-1.015 5.022-2.716a2.034 2.034 0 013.438 2.174c-1.826 2.887-4.988 4.609-8.46 4.609zm22.071-43.782a2.037 2.037 0 102.443 3.261l.523-.39c.19-.152.308-.202.484-.32.15-.112.398-.231.659-.365.253-.149.565-.24.876-.38.326-.097.667-.235 1.036-.306.366-.095.75-.16 1.144-.204a8.656 8.656 0 011.196-.056l.6.026.584.086c.387.059.757.165 1.11.276.7.24 1.312.572 1.787.932.259.155.436.369.624.527.191.156.327.324.438.463l.364.431.104.124a1.098 1.098 0 001.763-1.301l-.4-.624a4.632 4.632 0 00-.507-.691c-.222-.247-.442-.561-.761-.825a9.107 9.107 0 00-2.324-1.61 10.218 10.218 0 00-1.487-.578l-.791-.217-.809-.141a11.953 11.953 0 00-1.627-.129 11.647 11.647 0 00-1.577.08c-.513.04-.998.157-1.464.242-.456.13-.899.216-1.289.373-.394.141-.752.263-1.102.442-.331.158-.672.32-.818.413l-.567.323c-.068.039-.148.09-.212.138zm-47.323 3.4a2.037 2.037 0 102.019-3.539l-.567-.323c-.146-.093-.487-.255-.818-.413-.351-.179-.708-.301-1.102-.442-.39-.157-.834-.243-1.289-.373-.466-.085-.951-.201-1.464-.242a11.655 11.655 0 00-1.577-.08c-.537.006-1.085.047-1.627.129l-.809.141-.791.217c-.519.15-1.02.359-1.487.578a9.107 9.107 0 00-2.324 1.61c-.319.264-.539.578-.761.825-.226.247-.381.49-.507.691l-.4.624a1.098 1.098 0 001.763 1.3l.104-.124.364-.431c.112-.139.247-.307.438-.463.188-.157.365-.372.624-.527a6.468 6.468 0 011.787-.932 7.412 7.412 0 011.11-.276l.584-.086.6-.026c.399-.01.804.011 1.196.056.394.044.778.109 1.144.204.369.072.71.209 1.036.306.312.14.623.231.876.38.261.134.509.253.659.365.176.117.294.168.484.32l.523.39a2 2 0 00.212.141z"/><path fill="#FF929D" d="M160.59 136.183h-.009c-5.644-.003-10.681-2.852-13.475-7.62a2.462 2.462 0 114.249-2.489c1.901 3.245 5.351 5.183 9.229 5.185h.006c3.882 0 7.337-1.939 9.245-5.187a2.462 2.462 0 114.246 2.494c-2.802 4.77-7.845 7.617-13.491 7.617zm192.592 6.6a2.547 2.547 0 10-3.428-3.767c-4.723 4.296-11.371 4.227-16.171-.167a2.546 2.546 0 10-3.44 3.757c3.39 3.104 7.539 4.66 11.673 4.66 4.048-.002 8.081-1.494 11.366-4.483z"/><path fill="#EDC0A2" d="M387.986 118.577l-.156 2.326c0 25.397-20.596 45.987-45.99 45.987-12.688 0-24.175-5.139-32.496-13.447a50.61 50.61 0 0028.386 8.658c25.582 0 46.699-18.923 50.256-43.524zm-231.364 29.635a51.026 51.026 0 01-28.619-8.729c8.389 8.376 19.971 13.558 32.763 13.558 25.602 0 46.368-20.76 46.368-46.365l.157-2.345c-3.585 24.802-24.877 43.881-50.669 43.881z"/><path fill="#00B89C" d="M125.46 201.112a4.362 4.362 0 01-4.361-4.361v-23.803a4.362 4.362 0 018.722 0v23.803a4.362 4.362 0 01-4.361 4.361zm74.617-4.361v-23.803a4.362 4.362 0 00-8.722 0v23.803a4.362 4.362 0 008.722 0z"/><path fill="#00D1AE" d="M200.583 271.81s2.623-34.094 9.112-52.626c.432-1.234.561-2.326.433-3.291.37-2.084.587-4.343.587-6.839 0-8.92-10.318-21.077-17.168-21.077-10.926 0-25.387 2.153-33.02 9.508-7.633-7.355-20.787-9.508-33.021-9.508-6.849 0-17.168 12.157-17.168 21.077 0 3.182.331 6.005.923 8.523.077.508.205 1.041.403 1.607.03.086.058.178.088.264l.004.012c6.416 18.591 8.57 52.35 8.57 52.35-11.099 11.099-32.951 118.744-32.951 118.744s12.883 17.575 73.211 17.575 73.211-17.575 73.211-17.575-22.974-108.504-33.214-118.744z"/><path fill="#FFF" d="M311.008 99.596v1.734a1.228 1.228 0 11-2.456 0v-.005h-.003v-1.729h.012a1.229 1.229 0 011.219-1.124c.641 0 1.164.496 1.215 1.124h.013zm60.098 0a1.222 1.222 0 00-1.215-1.124c-.642 0-1.162.496-1.219 1.124h-.012v1.729h.003v.005a1.23 1.23 0 002.456 0v-1.734h-.013zM129.668 85.733a1.232 1.232 0 00-1.225-1.133c-.647 0-1.172.5-1.229 1.133h-.012v1.743h.003v.005a1.24 1.24 0 002.478 0v-1.748h-.015zm60.605 0a1.232 1.232 0 00-1.225-1.133c-.647 0-1.172.5-1.229 1.133h-.012v1.743h.003v.005a1.24 1.24 0 002.478 0v-1.748h-.015z"/><path fill="#FFB636" d="M401.882 73.487c-.015-15.217-14.157-37.996-32.951-47.459-.832-.419-2.462-1.024-4.407-1.676.037-.532.063-1.068.063-1.609C364.586 10.182 354.404 0 341.843 0S319.1 10.182 319.1 22.743c0 .744.038 1.48.108 2.206-1.308.07-2.748.253-3.701.681-19.97 8.981-30.487 27.435-30.487 43.389 0 8.671 1.602 18.509 3.546 25.065v6.672a11.324 11.324 0 012.413-.673c1.121 1.791 2.192 2.015 2.996-.092.161.018.323.033.482.056l-.091-1.361c.623-2.59 1.01-7.093 1.01-14.052 0-21.204 6.684-30.35 13.892-34.115 7.399 23.075 62.458 34.681 80.728 37.927l-.774 11.6a11.37 11.37 0 011.619-.129c1.308 0 2.559.233 3.728.64 4.761-6.362 7.593-14.416 7.593-24.485 0-.918-.1-1.776-.28-2.585z"/><path fill="#68442A" d="M183.598 42.273c-1.396 11.736-10.064 22.077-29.566 22.077-30.029 0-37.313 14.444-40.852 24.094l-1.828-27.338 3.047 45.569c0 16.238 8.353 30.517 20.992 38.799h-16.407s-1.912.004-4.417-1.07c-1.058-.454-2.044-7.558-3.214-8.478-1.025-.805-2.233 4.638-3.201 3.358-2.906-3.84-5.258-21.588-5.258-31.669 0-23.696 1.233-39.753 2.936-50.638C107.008 27.802 129.579 6 159.149 6c25.643 0 34.203 13.716 34.203 13.716s22.402 4.13 22.402 39.661c0 0 .065 12.11-.299 27.442a11.37 11.37 0 00-5.286-1.301c-.556 0-1.098.053-1.632.13l1.638-24.541-1.555 23.3a5.393 5.393 0 01-.074-.864c.001-12.214-12.086-37.545-24.948-41.27zm26.573 66.052a11.39 11.39 0 01-3.075-.431c-.408 15.729-8.637 29.507-20.957 37.58h24.037s.043-.113.121-.371c2.322-7.096 3.659-22.17 4.429-37.727a11.394 11.394 0 01-4.555.949z"/></svg><svg version="1.0" width="28" height="28" viewBox="-6 -6 84 84" id="fxemoji-u1F475-gma" x="83.93" xmlns="http://www.w3.org/2000/svg"><path fill="#FFE0CF" d="M58.2 40.9l.8-11.6C59 16.4 47.8 9.7 34.9 9.7c-12.9 0-22.7 6.7-22.7 19.6l.8 11.6c-2.8.2-5.1 2.5-5.1 5.4 0 3 2.4 5.4 5.4 5.4h.4c.3 11.7 10 20.2 21.9 20.2 11.9 0 21.5-8.5 21.9-20.2h.1c3 0 5.4-2.4 5.4-5.4 0-2.8-2.1-5.1-4.8-5.4z"/><path fill="#FFD3B6" d="M57.6 49.8l-.1 1.1c0 12.1-9.8 21-22 21-6.1 0-12.2-2.5-16.1-6.4 3.2 2.1 7.3 3.5 11.4 4-1.1-.6-1.9-1.3-2.6-2-.4-.4-.7-.8-.9-1.2-.2-.4-.4-.7-.6-1-.2-.3-.2-.5-.3-.7l-.1-.2s.2.3.6.7c.2.2.4.5.7.8.3.3.6.6 1 .9.4.3.8.6 1.3.9.5.3 1 .5 1.6.8.6.2 1.2.4 1.8.5.6.1 1.3.2 1.9.2.7 0 1.3-.1 1.9-.2.6-.1 1.2-.3 1.8-.5 1.2-.4 2.1-1.1 2.9-1.7.4-.3.7-.6 1-.9.3-.3.5-.6.7-.8.4-.5.6-.7.6-.7h.1s0 .1-.1.2c-.1.2-.1.4-.3.7-.1.3-.3.6-.6 1-.2.4-.5.8-.9 1.2-.2.3-.5.5-.8.8 8.7-2.9 14.8-9.6 16.1-18.5zm-16 1.2s-.1.2-.1.6v.7c.1.3.1.6.3.8.1.3.3.6.5.9l.6.9c.2.3.4.6.7.9.2.3.5.6.7.9.5.6.8 1.2 1.2 1.8.1.3.3.6.4.9.1.3.3.6.3.8.1.3.2.5.3.7.1.2.1.4.2.6.1.3.2.5.2.5s0-.2.1-.6c.1-.4.1-.9.1-1.5 0-.3-.1-.6-.1-1-.1-.4-.2-.7-.3-1.1-.2-.4-.3-.8-.5-1.1-.2-.4-.4-.7-.7-1.1-1-1.3-2.2-2.3-2.9-3.2-.2-.2-.3-.4-.4-.6-.1-.2-.2-.4-.3-.5-.2-.1-.2-.3-.3-.3.1 0 .1 0 0 0zm-12.2 0s-.1 0 0 0c0 0-.1.2-.2.5-.1.2-.2.3-.3.5-.1.2-.3.4-.4.6-.7.9-1.9 1.9-2.9 3.2-.2.3-.5.7-.7 1.1-.2.4-.4.7-.5 1.1-.1.4-.3.7-.3 1.1-.1.4-.1.7-.1 1 0 .6 0 1.1.1 1.5.1.4.1.6.1.6s.1-.2.2-.5c0-.2.1-.4.2-.6.1-.2.2-.5.3-.7.1-.3.2-.5.3-.8.1-.3.3-.6.4-.9.3-.6.7-1.2 1.2-1.8.2-.3.5-.6.7-.9.2-.3.5-.6.7-.9l.6-.9c.2-.3.3-.6.5-.9.1-.3.2-.6.3-.8 0-.3.1-.5 0-.7-.1-.6-.2-.8-.2-.8z"/><path fill="#2B3B47" d="M23.6 41.1v3.4c0 1.4-1.1 2.5-2.5 2.5s-2.5-1.1-2.5-2.5v-3.4c.1-1.3 1.2-2.2 2.4-2.2 1.4 0 2.5 1 2.6 2.2zm28.7 0c-.1-1.3-1.1-2.2-2.4-2.2-1.3 0-2.3 1-2.4 2.2v3.4c0 1.4 1.1 2.5 2.5 2.5s2.5-1.1 2.5-2.5l-.2-3.4z"/><path fill="#959DA3" d="M20.8 42v.8c0 .3-.3.6-.6.6s-.6-.3-.6-.6V42c0-.3.3-.5.6-.5.4-.1.6.2.6.5zm28.7 0c0-.3-.3-.5-.6-.5s-.6.2-.6.5v.8c0 .3.3.6.6.6s.6-.3.6-.6V42z"/><path fill="#EDC0A2" d="M35.6 54c-1.6 0-3.1-.8-4-2.2-.3-.5-.1-1.1.3-1.3.5-.3 1-.1 1.3.3.5.8 1.4 1.3 2.4 1.3s1.9-.5 2.4-1.3c.3-.5.9-.6 1.3-.3.5.3.6.9.3 1.3-.9 1.4-2.4 2.2-4 2.2zM23.8 36.4c.5.2 1.1-.1 1.2-.6s-.1-1.1-.6-1.2c0 0-.1 0-.3-.1-.2-.1-.5-.2-.8-.2-.7-.2-1.7-.3-2.7-.1-1 .1-1.9.6-2.5 1.1-.3.2-.5.4-.6.6l-.2.2c-.2.2-.2.5 0 .7.2.2.5.3.7.1l.2-.2c.1-.1.3-.2.6-.4.5-.3 1.2-.6 1.9-.6s1.5.2 2 .4c.3.1.5.2.6.3.2.1.3.1.3.1.1-.1.2-.1.2-.1zm22.5-1.8c-.5.2-.7.8-.5 1.3.2.5.8.7 1.3.5 0 0 .1 0 .3-.1l.6-.3c.5-.2 1.3-.4 2-.4s1.4.3 1.9.6c.2.1.5.3.6.4l.2.2c.2.2.5.1.7 0 .2-.2.2-.5 0-.7l-.2-.2c-.1-.1-.4-.3-.6-.6-.6-.4-1.5-.9-2.5-1.1-1-.2-2 0-2.7.1-.3.1-.7.2-.8.2-.2.1-.3.1-.3.1z"/><path fill="#AFA394" d="M53.6 2.1c-.1-.4-.3-.6-.4-.8l-.2-.2s-.1-.1-.2 0c0 0-.1.1 0 .2l.2.2c.1.2.3.4.3.8.1.3.1.8 0 1.3s-.3 1-.7 1.5c-.2.3-.6.6-1 .9-.1-.3-.2-.6-.3-1l-.6-1.2c-.3-.4-.6-.8-1.1-1-.5-.2-1.2-.1-1.6.2-.4.2-.8.7-.8 1.3 0 .6.2 1 .5 1.4.3.4.7.6 1 .8.6.3 1.2.5 1.9.4v.7c-.2.6-.5 1.2-1 1.6-.5.4-1 .7-1.5.8-.7.2-1.4.2-1.9.1 0-.3.1-.7.1-1.1C46.3 4.2 41.7.3 36 .3S25.7 4 25.7 8.8s4.6 8.7 10.3 8.7c4.5 0 8.4-2.5 9.8-5.9.8.1 1.8 0 2.9-.4.7-.3 1.4-.7 2-1.3.6-.6 1-1.4 1.2-2.4 0-.5 0-.9-.1-1.3.5-.2.9-.6 1.2-1 .4-.5.6-1.1.7-1.7.1-.5 0-1-.1-1.4zm-4.5 3.8c-.6-.4-1.2-1-1.2-1.7 0-.3.2-.5.6-.7.3-.2.6-.2.9-.1.6.3.9 1.1 1.1 1.8.1.3.2.7.2 1.1-.5 0-1.1-.1-1.6-.4z"/><path fill="#BFBCAF" d="M48.4 11c-5-2.3-8.5-2.6-10.8-1.8-1-.4-2.3-.6-3.9-.6-12.7 0-22.9 10.5-22.9 23 0 10 1.9 14.4 1.9 14.4 3.2 0-4.9-24.6 17.3-24.6 2.3 0 4.5-.9 6.3-2.2 1.1 1 2.4 1.7 4.1 1.7 21.2 0 17.5 15.8 17.5 22 0 2.5 2.5-8 2.5-10.5 0-4.5-1.7-16.7-12-21.4z"/><path fill="#FFA9BA" d="M41.6 59.2c-1.4-.4-2.7-1.2-4-1.3-.8-.1-1.4.5-1.6.6-.2 0-1-.6-1.8-.6-1.3 0-2.4.7-3.8 1.3s-2.4.5-2.4.5 2.6 4 8.1 4 8.1-4 8.1-4-1.2 0-2.6-.5z"/><circle fill="#E2AF8D" cx="49.8" cy="28.1" r=".9"/></svg><svg baseProfile="tiny" width="27.98" height="28" viewBox="-42.69 -42.69 597.28 597.68" id="fxemoji-u1F4AA-flexbicep" x="83.93" y="28" xmlns="http://www.w3.org/2000/svg"><path fill="#FFD3B6" d="M472 362.5c-6.9-25.8-29.8-48.2-65-58.1-26.4-7.4-74.2-17.3-118.6-5.5-26.9 7.1-54.7 23.9-78.1 39.4V335c0-5.7.2-24.7.9-36.4.4-12.5.8-25.3 1.6-38 .5-12.9 1.5-25.6 2.6-38.2.8-12.8 2.9-24.6 4.4-36.5 1.9-10.9 5.4-21.5 9.2-31.3 12.8 8.1 30.9 14 53.8 14 30.6 0 45.1-9.4 51.2-16.3 3-3.4 8.2-9.8 3.8-21.9-4.2-11.3-10.2-9.3-10.2-13.6 0-5.7 2.2-5.5 11-10 20-10.1 17.9-27.4 17.8-43.7.1-1.2.1-2.3.1-3.5 0-32.8-31.9-59.4-71.1-59.4-.8 0-1.6 0-2.4.1l-.2-.3c-32.8 0-53.6 9.7-66.1 24.2-.6.4-1.1.8-1.7 1.3-1.6 1.6-3.3 3.2-5.1 5-6.7 6.8-16.8 17.7-20.8 24.6-5.8 8-11.8 16.9-17.4 26.2-6.4 9.4-11.8 19.5-18.5 30-6.6 10.5-12.3 21.9-19.2 33.4-12.5 23.3-26.7 48-38.9 73.7C83 244.1 71.2 270.3 62.2 296c-4.5 12.9-8.4 25.6-11.7 37.9-3.1 12.6-6.5 24.1-7.9 35.9-.2 1.5-.4 3-.5 4.5-7.8 49.9-8.6 106.5-1.7 115.2 7.9 10.1 29.3 13.1 49.5 11.7 13.8-.9 77.9 10.5 140.5 10.5 3.6.1 7.2.2 10.9.2 47.9.2 100.9-3.3 132.2-17.2 91.6-40.5 113.2-77 98.5-132.2z"/><path fill="#EDC0A2" d="M302.4 434.1c-2.1 0-4.2-.1-6.4-.2-27.9-1.7-53.4-14.1-71.9-35-3.4-3.8-3.1-9.7.8-13.1 3.8-3.4 9.7-3.1 13.1.8 15.2 17.2 36.2 27.4 59.1 28.7 22.9 1.4 45-6.3 62.1-21.5 3.8-3.4 9.7-3.1 13.1.8 3.4 3.8 3.1 9.7-.8 13.1-19.2 17.1-43.5 26.4-69.1 26.4z"/></svg><svg viewBox="-42.67 -42.67 597.33 597.33" width="28" height="28" id="fxemoji-u1F4F2-phonerightarrowleft" y="56" xmlns="http://www.w3.org/2000/svg"><path fill="#8F9799" d="M464.381 12.715h-40.098a7.2 7.2 0 00-7.2 7.2v6.956a7.2 7.2 0 007.2 7.2h40.098a7.2 7.2 0 007.2-7.2v-6.956a7.2 7.2 0 00-7.2-7.2z"/><path fill="#464A4C" d="M510.201 49.674V469.81c0 15.906-12.894 28.8-28.8 28.8H267.873c-15.906 0-28.8-12.894-28.8-28.8V49.674c0-15.906 12.894-28.8 28.8-28.8h213.528c15.906 0 28.8 12.894 28.8 28.8z"/><path fill="#CAD6D8" d="M490.282 67.215v349.969c0 7.953-6.447 14.4-14.4 14.4h-202.49c-7.953 0-14.4-6.447-14.4-14.4V67.215c0-7.953 6.447-14.4 14.4-14.4h202.49c7.953 0 14.4 6.447 14.4 14.4z"/><path fill="#F4F9F9" d="M258.992 340.662V65.235c0-6.86 5.827-12.42 13.016-12.42H429.33L258.992 340.662z"/><path fill="#8F9799" d="M353.92 478.024h41.434c7.158 0 12.96-5.802 12.96-12.96v-.474c0-7.158-5.802-12.96-12.96-12.96H353.92c-7.158 0-12.96 5.802-12.96 12.96v.474c0 7.158 5.803 12.96 12.96 12.96z"/><path fill="#59CAFC" d="M225.207 243.821l-95.291-73.751c-13.231-10.24-32.455-.81-32.455 15.921v31.522H25.098c-11.929 0-21.6 9.671-21.6 21.6v45.069c0 11.929 9.671 21.6 21.6 21.6h72.363v27.711c0 16.731 19.224 26.161 32.455 15.921l95.291-73.751c10.413-8.06 10.413-23.782 0-31.842z"/></svg><svg viewBox="-42.67 -42.67 597.33 597.33" width="28" height="28" id="fxemoji-u1F4F5-nomobilephones" x="28" y="56" xmlns="http://www.w3.org/2000/svg"><path fill="#8F9799" d="M316.917 90.367h-27.218a4.887 4.887 0 00-4.887 4.887v4.722a4.887 4.887 0 004.887 4.887h27.218a4.887 4.887 0 004.887-4.887v-4.722a4.887 4.887 0 00-4.887-4.887z"/><path fill="#2B3B47" d="M328.47 95.905H183.53c-10.797 0-19.549 8.752-19.549 19.549v285.182c0 10.797 8.752 19.549 19.549 19.549h144.94c10.797 0 19.549-8.752 19.549-19.549V115.454c0-10.796-8.753-19.549-19.549-19.549zm-1.178 251.953c0 4.646-3.975 8.412-8.877 8.412h-124.83c-4.903 0-8.877-3.766-8.877-8.412V143.407c0-4.646 3.974-8.412 8.877-8.412h124.83c4.903 0 8.877 3.766 8.877 8.412v204.451z"/><path fill="#8F9799" d="M241.938 397.205h28.125a8.798 8.798 0 008.797-8.797v-.322a8.798 8.798 0 00-8.797-8.797h-28.125a8.798 8.798 0 00-8.797 8.797v.322a8.797 8.797 0 008.797 8.797z"/><path fill="#FF473E" d="M255.107 1.894C114.768 1.894 1.001 115.661 1.001 256s113.767 254.106 254.106 254.106S509.213 396.339 509.213 256 395.446 1.894 255.107 1.894zm-149.275 403.38C65.96 365.402 44.001 312.388 44.001 256c0-49.613 17.006-96.609 48.249-134.345l297.202 297.202c-37.736 31.243-84.732 48.249-134.345 48.249-56.389 0-109.402-21.959-149.275-61.832zm313.831-17.018L122.85 91.444c37.375-30.156 83.553-46.55 132.257-46.55 56.388 0 109.402 21.959 149.274 61.831 39.873 39.872 61.831 92.886 61.831 149.274.001 48.704-16.393 94.882-46.549 132.257z"/></svg><svg viewBox="-42.67 -42.67 597.33 597.33" width="28" height="28" id="fxemoji-u1F521-inputsymbolforlatinsmallletters" x="56" y="56" xmlns="http://www.w3.org/2000/svg"><path fill="#597B91" d="M500.951 39.183c0-15.84-12.96-28.8-28.8-28.8H35.636c-14.256 0-25.92 11.664-25.92 25.92v439.394c0 14.256 11.664 25.92 25.92 25.92H472.15c15.84 0 28.8-12.96 28.8-28.8V39.183z"/><path fill="#2B5770" d="M475.031 10.383h-.149v453.166c0 6.6-5.4 12-12 12H9.716v.149c0 14.256 11.664 25.92 25.92 25.92H475.03c14.256 0 25.92-11.664 25.92-25.92V36.303c.001-14.256-11.663-25.92-25.919-25.92z"/><path fill="#F9F9F7" d="M214.929 133.048v46.139c0 7.669 1.71 11.297 5.518 13.466a3.583 3.583 0 011.633 4.189l-5.585 17.77a3.599 3.599 0 01-3.895 2.495c-10.609-1.412-18.329-4.821-23.487-12.305-1.335-1.936-4.115-2.197-5.67-.434-8.646 9.806-20.499 13.529-32.884 13.529-23.857 0-38.937-15.53-38.937-37.361 0-26.107 19.806-40.512 55.817-40.512h8.554a3.6 3.6 0 003.6-3.6v-1.352c0-13.954-5.627-18.23-20.031-18.23-6.938 0-17.205 1.85-27.95 5.214a3.598 3.598 0 01-4.482-2.263l-5.819-16.973a3.61 3.61 0 012.192-4.564c13.977-5.046 29.183-7.748 41.687-7.748 34.885.003 49.739 14.632 49.739 42.54zm-43.888 26.784c-15.98 0-23.632 5.627-23.632 17.555 0 9.453 4.952 14.854 13.729 14.854 7.55 0 13.653-3.722 17.912-10.373a3.546 3.546 0 00.543-1.913v-16.524a3.6 3.6 0 00-3.6-3.6h-4.952zM323.854 97.435c0 3.11 3.643 4.718 5.995 2.684 6.958-6.018 16.172-9.608 25.515-9.608 29.484 0 45.014 23.857 45.014 63.919 0 36.686-17.78 63.469-47.714 63.469-10.376 0-19.33-3.555-26.297-9.874-2.164-1.963-5.629-.758-6.026 2.137l-.11.801a3.6 3.6 0 01-3.567 3.11h-25.22a3.6 3.6 0 01-3.6-3.6V50.311a3.6 3.6 0 013.22-3.58l28.811-3.061a3.6 3.6 0 013.98 3.58v50.185zm0 81.803c0 .701.195 1.396.586 1.978 4.473 6.655 10.768 10.575 18.095 10.575 12.154 0 20.481-9.678 20.481-37.361 0-30.159-7.877-37.361-18.905-37.361-8.255 0-14.622 4.822-19.71 12.847a3.577 3.577 0 00-.546 1.915v47.407zM211.971 328.11l-11.231 15.855c-1.138 1.606-3.363 2.007-4.977.881-6.571-4.585-12.797-6.652-19.885-6.652-15.08 0-23.857 10.128-23.857 36.911 0 26.558 9.453 34.436 23.632 34.436 7.282 0 12.671-2.065 19.176-6.648a3.594 3.594 0 015 .873l12.093 17.133c1.127 1.596.784 3.815-.791 4.971-10.216 7.501-22.257 12.029-37.505 12.029-36.686 0-59.418-24.758-59.418-62.794 0-37.812 22.732-64.595 58.743-64.595 15.565 0 27.685 4.401 38.301 12.674a3.607 3.607 0 01.719 4.926zM343.098 314.333V267.25a3.6 3.6 0 013.98-3.58l28.811 3.061a3.6 3.6 0 013.22 3.58v160.162a3.6 3.6 0 01-3.6 3.6h-25.194a3.6 3.6 0 01-3.57-3.139l-.334-2.59c-.381-2.956-4.001-4.213-6.098-2.095-6.771 6.835-16.277 11.651-28.948 11.651-30.384 0-45.463-25.208-45.463-63.919 0-36.911 18.681-63.47 49.74-63.47 8.047 0 15.573 2.605 21.884 6.824 2.38 1.592 5.572-.137 5.572-3.002zm0 33.805c0-.895-.327-1.766-.935-2.423-5.073-5.475-10.085-8.872-17.295-8.872-12.829 0-21.606 10.578-21.606 37.361 0 29.709 8.103 37.361 19.581 37.361 8.035 0 14.184-4.19 19.66-12.37a3.587 3.587 0 00.596-1.992v-49.065z"/></svg><svg viewBox="-42.67 -42.67 597.33 597.33" width="28" height="28" id="fxemoji-u1F5B1-threebuttonmouse" x="111.93" xmlns="http://www.w3.org/2000/svg"><path fill="#819096" d="M182.648 185.977a9.486 9.486 0 01-9.485-9.485c0-52.443 8.49-88.924 25.956-111.526 13.646-17.659 32.121-26.243 56.48-26.243 30.477 0 50.891 19.158 70.633 37.685 20.543 19.28 39.947 37.491 70.968 37.491 35.709 0 47.277-13.216 52.873-23.157 8.258-14.669 9.949-35.886 9.949-63.228a9.486 9.486 0 0118.97 0c0 24.445-.958 52.226-12.389 72.534-12.432 22.085-35.134 32.821-69.404 32.821-38.528 0-62.659-22.646-83.95-42.627-18.609-17.465-34.681-32.547-57.65-32.547-27.245 0-63.466 12.315-63.466 118.798 0 5.237-4.247 9.484-9.485 9.484z"/><path fill="#C5CFD1" d="M314.512 301.986c0 164.601-58.656 208.012-131.012 208.012S52.487 463.854 52.487 301.986c0-90.907 58.656-164.601 131.012-164.601s131.013 73.695 131.013 164.601z"/><path fill="#1C4C5A" d="M185.656 293.553h-4.312c-14.715 0-26.644-11.929-26.644-26.644v-64.452c0-14.715 11.929-26.644 26.644-26.644h4.312c14.715 0 26.644 11.929 26.644 26.644v64.452c0 14.715-11.929 26.644-26.644 26.644zm-44.89-20.539v-77.499c0-10.612-12.273-16.532-20.562-9.905-12.792 10.226-26.824 31.088-26.824 73.405 0 24.423 14.369 31.221 27.282 32.398 10.801.985 20.104-7.553 20.104-18.399zm105.465 18.399c12.913-1.178 27.282-7.975 27.282-32.398 0-39.812-12.42-60.634-24.543-71.475-8.835-7.901-22.844-1.701-22.844 10.152v75.322c.001 10.846 9.304 19.384 20.105 18.399z"/></svg><svg viewBox="-42.67 -42.67 597.33 597.33" width="28" height="28" id="fxemoji-u1F5FB-mountfuji" x="111.93" y="28" xmlns="http://www.w3.org/2000/svg"><style/><path fill="#76DFFF" d="M501.617 489.617c0 6.6-5.4 12-12 12H22.383c-6.6 0-12-5.4-12-12V22.383c0-6.6 5.4-12 12-12h467.234c6.6 0 12 5.4 12 12v467.234z" id="aalLayer_2"/><path fill="#2B3B47" d="M367 205.547c-25-19.487-49.201-46.413-60-55.071-13.758-11.03-35.959-12.653-51-12.272-15.041-.381-37.242 1.243-51 12.272-10.799 8.657-35 35.584-60 55.071C91.049 247.6 41.48 283.029 10.383 304.693v184.924c0 6.6 5.4 12 12 12h467.234c6.6 0 12-5.4 12-12V304.693C470.52 283.029 420.951 247.601 367 205.547z" id="aalLayer_3"/><path fill="#FFF" d="M352.433 191.829c-19.436-17.205-36.759-35.944-45.433-42.898-13.758-11.03-35.959-12.653-51-12.272-15.041-.381-37.242 1.243-51 12.272-7.454 5.976-21.294 20.656-37.374 35.585L94.924 242.17c21.737-16.364 9.576 19.18 29.576 42.32 7.438 8.606 14.505 13.65 22.546 13.667 8.637.018 18.399-5.766 30.954-19.17 25-26.692 51.677-34.2 80.187 10.159C286 332.419 322.577 307.067 363 277.712c35-25.417 28.335-54.532 54.504-35.222l-65.071-50.661z" id="aalLayer_4"/></svg><svg baseProfile="tiny" width="28" height="28" viewBox="-42.66 -42.66 597.22 597.22" id="fxemoji-u1F62D-loudlycrying" x="111.93" y="56" xmlns="http://www.w3.org/2000/svg"><path fill="#00BEEA" d="M255.9 35.3C134 35.3 35.2 134.1 35.2 256c0 3.3.1 6.6.2 9.9-12.8 1.7-22.8 12.6-22.8 25.9 0 14.5 11.7 26.2 26.2 26.2H44c26.8 91.7 111.4 158.7 211.7 158.7 121.8 0 220.6-98.8 220.6-220.6.2-122-98.6-220.8-220.4-220.8z"/><path fill="#00ADC9" d="M476.2 265.8c.1-3.3.2-6.6.2-9.9 0-58.9-23.1-112.5-60.8-152 21.3 34.5 33.6 75.2 33.6 118.8 0 125.2-101.5 226.7-226.7 226.7-43.6 0-84.2-12.3-118.8-33.6 39.6 37.7 93.1 60.8 152 60.8 100.3 0 185-67 211.7-158.7h5.2c14.5 0 26.2-11.7 26.2-26.2.2-13.3-9.7-24.2-22.6-25.9z"/><path fill="#009AAF" d="M129.6 159.5c-6.2 0-12.4-1.3-18.2-3.8-3.9-1.7-5.7-6.2-4-10.1 1.7-3.9 6.2-5.7 10.1-4 8 3.5 17.1 3.3 25-.4 8-3.7 13.9-10.6 16.4-18.9 1.2-4.1 5.5-6.4 9.6-5.2 4.1 1.2 6.4 5.5 5.2 9.6-3.7 12.6-12.7 22.9-24.7 28.5-6.2 2.8-12.8 4.3-19.4 4.3zM382.5 159.4c-6.7 0-13.3-1.4-19.5-4.3-11.9-5.6-20.9-15.9-24.6-28.5-1.2-4.1 1.1-8.4 5.2-9.6 4.1-1.2 8.4 1.1 9.6 5.2 2.5 8.3 8.4 15.2 16.4 18.9 7.9 3.7 17.1 3.9 25.1.4 3.9-1.7 8.4.1 10.1 4 1.7 3.9-.1 8.4-4 10.1-5.9 2.6-12.1 3.8-18.3 3.8z"/><path fill="#FFF" d="M99.2 243.8l-5.7 45.6c-1.5 12-12.4 20.5-24.4 19.1C57.1 307 48.5 296 50 284c.7-5.9 3.8-11 8.1-14.5l36-28.6c1.3-1.1 3.3-.8 4.4.5.6.8.8 1.7.7 2.4z"/><path fill="#009AAF" d="M253.9 422c-11.6 0-23.1-2.5-33.9-7.7-3.8-1.8-5.4-6.4-3.6-10.2 1.8-3.8 6.4-5.4 10.2-3.6 17.9 8.5 38.5 8.2 56.7-.8 3.8-1.9 8.4-.3 10.3 3.4 1.9 3.8.3 8.4-3.4 10.3-11.6 5.8-24 8.6-36.3 8.6z"/><path fill="#2B3B47" d="M278.6 275.8c-7.3.1-14.7.3-22.1.4-7.4-.1-14.8-.3-22.1-.4-7.3 0-14.5-.7-21.4-1-2.6-.1-5.1-.3-7.6-.5-22.3 15.5-36.9 40.8-36.9 69.5 0 47.2 39.3 29.7 87.8 29.7s87.8 17.4 87.8-29.7c0-28.6-14.6-53.9-36.8-69.4-2.5.2-5 .4-7.5.5-6.8.2-13.9.9-21.2.9z"/><path fill="#009AAF" d="M144.6 259.6c-8.5 0-16.9-1.9-24.8-5.6-4.1-1.9-5.8-6.8-3.9-10.9 1.9-4.1 6.8-5.8 10.9-3.9 11.6 5.5 25.1 5.3 36.9-.5 4-2 9-.4 11 3.7 2 4 .4 8.9-3.7 11-8.4 4.1-17.4 6.2-26.4 6.2zM364.2 259.6c-8.5 0-16.9-1.9-24.8-5.6-4.1-1.9-5.8-6.8-3.9-10.9 1.9-4.1 6.8-5.8 10.9-3.9 11.7 5.5 25.1 5.3 36.9-.5 4-2 8.9-.4 11 3.7 2 4 .4 8.9-3.7 11-8.4 4.1-17.4 6.2-26.4 6.2z"/><path fill="#2B3B47" d="M177.2 206.1c-.3-.9-.7-1.8-1.2-2.6-8.3-12.4-22-18.6-35.7-16.2-13.7 2.4-24.4 12.9-28 27.4-.2 1-.3 1.9-.2 2.8-1 4.2.6 8.7 4.5 11.1 4.8 2.9 11.1 1.4 14-3.4 3.2-5.2 8.6-8.9 14.7-9.9 6.1-1.1 12.4.5 17.2 4.3 2.4 1.9 5.4 2.5 8.1 2.1 2.4-.4 4.6-1.7 6.2-3.7 2.8-3.5 2.7-8.3.4-11.9zM398.2 217.6c0-.9 0-1.9-.2-2.8-3.6-14.5-14.3-25-28-27.4-13.7-2.4-27.3 3.8-35.7 16.2-.6.8-.9 1.7-1.2 2.6-2.4 3.6-2.4 8.4.4 11.9 3.5 4.4 10 5.2 14.4 1.6 4.8-3.8 11.1-5.4 17.2-4.3 6.1 1.1 11.5 4.7 14.7 10 1.6 2.6 4.2 4.2 6.9 4.7 2.4.4 4.9 0 7.1-1.4 3.9-2.4 5.5-6.9 4.4-11.1z"/><path fill="#FFF" d="M205.5 274.3c2.5.2 5 .4 7.6.5 6.9.3 14.1 1 21.4 1 7.3.1 14.7.3 22.1.4 7.4-.1 14.8-.3 22.1-.4 7.3 0 14.5-.7 21.4-1 2.6-.1 5-.3 7.5-.5-14.4-10-32-16-51-16-19.2.1-36.7 6-51.1 16z"/></svg><svg viewBox="-42.67 -42.67 597.33 597.33" width="28" height="28" id="fxemoji-u1F6B8-childrencrossing" y="84" xmlns="http://www.w3.org/2000/svg"><path fill="#FFB636" d="M247.243 507.583L6.082 266.421c-5.755-5.755-5.755-15.087 0-20.842L247.243 4.417c5.755-5.755 15.087-5.755 20.842 0l241.162 241.162c5.755 5.755 5.755 15.087 0 20.842L268.086 507.583c-5.756 5.755-15.087 5.755-20.843 0z"/><path fill="#2B3B47" d="M257.665 38.895c.104 0 .144.039.178.074l216.853 216.853a.253.253 0 010 .357L257.843 473.031c-.035.035-.074.074-.178.074s-.144-.039-.178-.074L40.633 256.178a.253.253 0 010-.357L257.486 38.969c.035-.035.074-.074.179-.074m0-13a13.213 13.213 0 00-9.371 3.881L31.441 246.629c-5.175 5.175-5.175 13.566 0 18.741l216.853 216.853c2.588 2.588 5.979 3.881 9.371 3.881s6.783-1.294 9.371-3.881L483.889 265.37c5.175-5.175 5.175-13.566 0-18.741L267.035 29.776a13.211 13.211 0 00-9.37-3.881z"/><path fill="#2B3B47" d="M217.798 153.711c1.728 12.005-6.604 23.137-18.608 24.864-12.005 1.728-23.137-6.604-24.864-18.608-1.727-12.005 6.604-23.137 18.608-24.864s23.136 6.603 24.864 18.608zm100.158 33.202c-9.382 1.35-15.892 10.05-14.542 19.431s10.05 15.892 19.431 14.542c9.382-1.35 15.892-10.05 14.542-19.431-1.35-9.382-10.05-15.892-19.431-14.542zm65.31 90.995l-6.075-28.204a7.374 7.374 0 00-3.518-4.832l-34.586-20.003a7.363 7.363 0 00-2.17-.829 19.203 19.203 0 00-9.033-.867l-8.169 1.176a19.185 19.185 0 00-10.762 5.349 7.355 7.355 0 00-2.116 1.829l-15.771 20.07-17.185-6.355-6.816-33.576a9.436 9.436 0 00-5.131-6.614l-42.569-20.65a9.469 9.469 0 00-2.02-.703 24.582 24.582 0 00-11.707-1.146l-10.453 1.504a24.591 24.591 0 00-13.876 6.911 9.37 9.37 0 00-3.519 3.682l-19.938 37.583-25.188 3.151a9.438 9.438 0 102.343 18.731l30.055-3.76a9.441 9.441 0 007.167-4.942l5.372-10.126 6.418 44.599c.103.716.397 1.35.802 1.891l-14.168 16.45a11.739 11.739 0 00-2.838 7.27l-1.451 43.488c-.216 6.48 4.862 11.909 11.342 12.125 6.469.241 11.909-4.861 12.125-11.342l1.313-39.354 26.88-31.21 1.077-.155 2.918 31.209c.156 1.67.668 3.287 1.502 4.742l24.108 42.092a11.735 11.735 0 0016.022 4.352c5.627-3.223 7.575-10.396 4.353-16.022l-22.843-39.884-4.561-48.787a24.753 24.753 0 00-.151-5.731l-5.478-38.068 14.525 7.046 7.63 37.585c.908 4.475 4.844 7.562 9.24 7.562.622 0 1.254-.062 1.888-.19a9.403 9.403 0 005.883-3.891l16.852 6.232a7.379 7.379 0 008.359-2.36l5.667-7.212 5.974 41.515c.039.268.117.517.214.757l-8.406 11.663a9.391 9.391 0 00-1.656 4.017l-5.424 34.105c-.815 5.123 2.678 9.937 7.8 10.751 5.128.818 9.936-2.678 10.751-7.8l5.073-31.9 15.684-21.76.978-.141-.884 22.827a9.391 9.391 0 00.776 4.117l12.704 29.135a9.393 9.393 0 008.614 5.641 9.358 9.358 0 003.749-.785 9.39 9.39 0 004.855-12.363l-11.845-27.165 1.533-39.632a9.388 9.388 0 00-.29-2.657c-.033-.455-.061-.91-.127-1.368l-4.005-27.831 12.373 7.156 5.387 25.009a7.378 7.378 0 008.765 5.657 7.375 7.375 0 005.658-8.764z"/></svg><svg viewBox="-42.67 -42.67 597.33 597.33" width="28" height="28" id="fxemoji-u26BD-soccerball" x="28" y="84" xmlns="http://www.w3.org/2000/svg"><path fill="#E5E4DF" d="M256 491.427C126.185 491.427 20.573 385.815 20.573 256S126.185 20.573 256 20.573s235.427 105.612 235.427 235.428c0 129.814-105.612 235.426-235.427 235.426z"/><path fill="#464A4C" d="M425.78 418.927l-24.498-42.432 26.671-46.196h51.451c7.791-23.367 12.023-48.346 12.023-74.298 0-26.017-4.251-51.058-12.08-74.475h-51.495l-26.569-46.021 24.497-42.431c-34.536-35.975-80.361-61.023-131.716-69.408L272.462 61.08h-53.255l-19.456-33.699c-50.168 12.346-94.063 40.807-125.849 79.57l16.414 28.429-26.642 46.145h-31.02c-7.829 23.417-12.08 48.458-12.08 74.475 0 25.952 4.232 50.931 12.023 74.298h31.026l26.718 46.278-16.438 28.472c31.786 38.763 75.681 67.224 125.849 79.57l19.506-33.785h53.156l21.651 37.501c51.354-8.384 97.179-33.432 131.715-69.407zm-39.982-274.533l26.565 46.011-32.724 56.679h-45.808l-36.295-62.865 22.993-39.825h65.269zM219.264 78.836h53.142l32.724 56.679-22.986 39.811h-72.54l-23.024-39.879 32.684-56.611zm-113.495 65.558h65.407l23.016 39.867-36.271 62.823h-46.16l-32.64-56.534 26.648-46.156zm.001 223.212l-26.7-46.242 32.589-56.447h46.363l36.22 62.734-23.068 39.955H105.77zm166.692 65.459h-53.255l-32.653-56.556 23.101-40.011h72.386l23.087 39.987-32.666 56.58zm48.117-65.459l-23.068-39.956 36.219-62.733h46.011l32.648 56.547-26.64 46.142h-65.17z"/></svg><svg baseProfile="tiny" width="27.98" height="28" viewBox="-42.7 -42.7 597.3 597.8" id="fxemoji-u270B-hand" x="56" y="84" xmlns="http://www.w3.org/2000/svg"><path fill="#FFD3B6" d="M472.9 241.8c-10.9-9.7-35-23.1-84.5 24.5-9.2 8.8-14.7 12-21.7 19.6V51.1c0-15.2-12-27.6-27.3-27.6s-27.7 12.4-27.7 27.6v139.3c0 13-16.8 14.1-19.7 3.4V27.6C292 12.4 280 0 264.7 0S237 12.3 237 27.6v166.7c-2.1 10.2-17.1 9.8-18.2-1.2V47.5c0-15.2-12-27.5-27.3-27.5s-27.7 12.3-27.7 27.5v143.3c-.1.2-.1.5-.1 1 0 12.5-16.1 13.6-19 3.5V92.7c0-15.2-12-27.5-27.3-27.5S89.7 77.5 89.7 92.7v241.4c0 49 28.8 91.3 70.4 110.9v39.2c0 15.2 12.4 27.6 27.6 27.6h110.4c15.2 0 27.6-12.4 27.6-27.6v-27.8c18.3-2.1 34.3-11.8 44.7-25.9.2-.2.3-.4.4-.6.3-.4.6-.8.8-1.2.9-1 2-2.8 3.3-5.4.7-1.2 1.3-2.4 1.9-3.7 12.7-25.7 41.7-95.3 93.7-140.3 10.7-10.7 13.3-27.8 2.4-37.5z"/><path fill="#F2C7AA" d="M319.6 456.9h-85.5l.2-.2h-22.4c-18.6 0-36.3-4.2-52.1-11.6v35c5 2.6 9.8 4.3 13.9 4.3h138.1c4 0 8.7-1.3 13.6-3.4v-24.4c-1.9.1-3.8.2-5.8.3z"/></svg></svg>