<?xml version="1.0" encoding="utf-8"?><svg width="112" height="112" viewBox="0 0 112 112" xmlns="http://www.w3.org/2000/svg" xmlns:xlink="http://www.w3.org/1999/xlink"><svg viewBox="-42.67 -42.67 597.33 597.33" width="28" height="28" id="ionicons-calendar-sharp" xmlns="http://www.w3.org/2000/svg"><path d="M32 456a24 24 0 0024 24h400a24 24 0 0024-24V176H32zm320-244a4 4 0 014-4h40a4 4 0 014 4v40a4 4 0 01-4 4h-40a4 4 0 01-4-4zm0 80a4 4 0 014-4h40a4 4 0 014 4v40a4 4 0 01-4 4h-40a4 4 0 01-4-4zm-80-80a4 4 0 014-4h40a4 4 0 014 4v40a4 4 0 01-4 4h-40a4 4 0 01-4-4zm0 80a4 4 0 014-4h40a4 4 0 014 4v40a4 4 0 01-4 4h-40a4 4 0 01-4-4zm0 80a4 4 0 014-4h40a4 4 0 014 4v40a4 4 0 01-4 4h-40a4 4 0 01-4-4zm-80-80a4 4 0 014-4h40a4 4 0 014 4v40a4 4 0 01-4 4h-40a4 4 0 01-4-4zm0 80a4 4 0 014-4h40a4 4 0 014 4v40a4 4 0 01-4 4h-40a4 4 0 01-4-4zm-80-80a4 4 0 014-4h40a4 4 0 014 4v40a4 4 0 01-4 4h-40a4 4 0 01-4-4zm0 80a4 4 0 014-4h40a4 4 0 014 4v40a4 4 0 01-4 4h-40a4 4 0 01-4-4zM456 64h-55.92V32h-48v32H159.92V32h-48v32H56a23.8 23.8 0 00-24 23.77V144h448V87.77A23.8 23.8 0 00456 64z"/></svg><svg width="28" height="28" viewBox="-42.67 -42.67 597.33 597.33" id="ionicons-chatbox-ellipses-outline" x="28" xmlns="http://www.w3.org/2000/svg"><path d="M408 64H104a56.16 56.16 0 00-56 56v192a56.16 56.16 0 0056 56h40v80l93.72-78.14a8 8 0 015.13-1.86H408a56.16 56.16 0 0056-56V120a56.16 56.16 0 00-56-56z" fill="none" stroke="#000" stroke-linejoin="round" stroke-width="32"/><circle cx="160" cy="216" r="32"/><circle cx="256" cy="216" r="32"/><circle cx="352" cy="216" r="32"/></svg><svg width="28" height="28" viewBox="-42.67 -42.67 597.33 597.33" id="ionicons-cloud" y="28" xmlns="http://www.w3.org/2000/svg"><path d="M396 432H136c-36.44 0-70.36-12.57-95.51-35.41C14.38 372.88 0 340 0 304c0-36.58 13.39-68.12 38.72-91.22 18.11-16.53 42.22-28.25 69.18-33.87a16 16 0 0011.37-9.15 156.24 156.24 0 0142.05-56C187.76 91.69 220.5 80 256 80a153.57 153.57 0 01107.14 42.9c24.73 23.81 41.5 55.28 49.18 92a16 16 0 0012.12 12.39C470 237.42 512 270.43 512 328c0 33.39-12.24 60.78-35.41 79.23C456.23 423.43 428.37 432 396 432z"/></svg><svg width="28" height="28" viewBox="-42.67 -42.67 597.33 597.33" id="ionicons-contract" x="28" y="28" xmlns="http://www.w3.org/2000/svg"><path fill="none" stroke="#000" stroke-linecap="round" stroke-linejoin="round" stroke-width="32" d="M304 416V304h112M314.2 314.23L432 432M208 96v112H96M197.8 197.77L80 80M416 208H304V96M314.23 197.8L432 80M96 304h112v112M197.77 314.2L80 432"/></svg><svg width="28" height="28" viewBox="-42.67 -42.67 597.33 597.33" id="ionicons-exit" x="56" xmlns="http://www.w3.org/2000/svg"><path d="M336 376V272H191a16 16 0 010-32h145V136a56.06 56.06 0 00-56-56H88a56.06 56.06 0 00-56 56v240a56.06 56.06 0 0056 56h192a56.06 56.06 0 0056-56zM425.37 272l-52.68 52.69a16 16 0 0022.62 22.62l80-80a16 16 0 000-22.62l-80-80a16 16 0 00-22.62 22.62L425.37 240H336v32z"/></svg><svg width="28" height="28" viewBox="-42.67 -42.67 597.33 597.33" id="ionicons-eye-off" x="56" y="28" xmlns="http://www.w3.org/2000/svg"><path d="M432 448a15.92 15.92 0 01-11.31-4.69l-352-352a16 16 0 0122.62-22.62l352 352A16 16 0 01432 448zM248 315.85l-51.79-51.79a2 2 0 00-3.39 1.69 64.11 64.11 0 0053.49 53.49 2 2 0 001.69-3.39zM264 196.15L315.87 248a2 2 0 003.4-1.69 64.13 64.13 0 00-53.55-53.55 2 2 0 00-1.72 3.39z"/><path d="M491 273.36a32.2 32.2 0 00-.1-34.76c-26.46-40.92-60.79-75.68-99.27-100.53C349 110.55 302 96 255.68 96a226.54 226.54 0 00-71.82 11.79 4 4 0 00-1.56 6.63l47.24 47.24a4 4 0 003.82 1.05 96 96 0 01116 116 4 4 0 001.05 3.81l67.95 68a4 4 0 005.4.24 343.81 343.81 0 0067.24-77.4zM256 352a96 96 0 01-93.3-118.63 4 4 0 00-1.05-3.81l-66.84-66.87a4 4 0 00-5.41-.23c-24.39 20.81-47 46.13-67.67 75.72a31.92 31.92 0 00-.64 35.54c26.41 41.33 60.39 76.14 98.28 100.65C162.06 402 207.92 416 255.68 416a238.22 238.22 0 0072.64-11.55 4 4 0 001.61-6.64l-47.47-47.46a4 4 0 00-3.81-1.05A96 96 0 01256 352z"/></svg><svg width="28" height="28" viewBox="-42.67 -42.67 597.33 597.33" id="ionicons-flash-off-sharp" y="56" xmlns="http://www.w3.org/2000/svg"><path d="M63.998 86.004l21.998-21.998L448 426.01l-21.998 21.998zM80 304h144l-32 192 108.18-129.82-148.36-148.36L80 304zM432 208H288l32-192-108.18 129.82 148.36 148.36L432 208z"/></svg><svg width="28" height="28" viewBox="-42.67 -42.67 597.33 597.33" id="ionicons-football-outline" x="28" y="56" xmlns="http://www.w3.org/2000/svg"><circle cx="256" cy="256" r="192" fill="none" stroke="#000" stroke-linecap="round" stroke-miterlimit="10" stroke-width="32"/><path fill="none" stroke="#000" stroke-linecap="round" stroke-linejoin="round" stroke-width="32" d="M256 175.15l-76.09 63.83L200 320h112l20.09-81.02L256 175.15zM332.09 238.98l52.87-22.4 25.78-73.26M447 269.97l-62.04-53.39M179.91 238.98l-52.87-22.4-25.78-73.26M65 269.97l62.04-53.39M256 175.15v-57.57l64-42.64M192 74.93l64 42.65M312 320l28 48-28 71M410.74 368H342M200 320l-28 48 28.37 71.5M101.63 368H172"/></svg><svg width="28" height="28" viewBox="-42.67 -42.67 597.33 597.33" id="ionicons-headset-sharp" x="56" y="56" xmlns="http://www.w3.org/2000/svg"><path d="M411.16 97.45C368.43 55.85 311.88 32 256 32S143.57 55.85 100.84 97.45C56.45 140.67 32 196 32 256s26.84 118.49 45.42 152.25S121 480 144 480c32 0 96-32 96-32L128 240l-54.42 31.73a176.07 176.07 0 01-1-18.84c0-48.57 19.32-94.1 56.15-130C164.24 88.34 210 70 256 70s91.73 18.34 127.27 52.93c36.83 35.86 56.14 81.39 56.14 130a175.56 175.56 0 01-1 18.82L384 240 272 448s64 32 96 32c23 0 48-38 66.58-71.75S480 316 480 256s-24.45-115.33-68.84-158.55z"/></svg><svg width="28" height="28" viewBox="-42.67 -42.67 597.33 597.33" id="ionicons-heart-dislike" x="84" xmlns="http://www.w3.org/2000/svg"><path d="M417.84 448a16 16 0 01-11.35-4.72l-365.84-368a16 16 0 1122.7-22.56l365.83 368A16 16 0 01417.84 448zM364.92 80c-44.09 0-74.61 24.82-92.39 45.5a6 6 0 01-9.06 0C245.69 104.82 215.16 80 171.08 80a107.71 107.71 0 00-31 4.54l269.13 270.7c3-3.44 5.7-6.64 8.14-9.6 40-48.75 59.15-98.79 58.61-153C475.37 130.53 425.54 80 364.92 80zM69 149.15a115.06 115.06 0 00-9 43.49c-.54 54.21 18.63 104.25 58.61 153 18.77 22.87 52.8 59.45 131.39 112.8a31.88 31.88 0 0036 0c20.35-13.82 37.7-26.5 52.58-38.12z"/></svg><svg width="28" height="28" viewBox="-42.67 -42.67 597.33 597.33" id="ionicons-mic-off-circle" x="84" y="28" xmlns="http://www.w3.org/2000/svg"><path d="M256 48C141.31 48 48 141.31 48 256s93.31 208 208 208 208-93.31 208-208S370.69 48 256 48zm0 80a48.14 48.14 0 0148 48v64a47.84 47.84 0 01-.63 7.71 2 2 0 01-3.46 1l-84.42-92.86a4 4 0 01-.47-4.77A48.08 48.08 0 01256 128zm32 256h-63.55c-8.61 0-16-6.62-16.43-15.23A16 16 0 01224 352h16v-17.74a103.71 103.71 0 01-49.21-23.38c-19.85-17.05-30.79-39.3-30.79-62.66V224a15.91 15.91 0 0116.39-16A16.26 16.26 0 01192 224.4v23.82c0 25.66 28 55.48 64 55.48 1.67 0 3.37-.09 5.06-.24a3.94 3.94 0 013.29 1.29l21.07 23.19a2 2 0 01-.89 3.26 100.33 100.33 0 01-12.53 3.06V352h15.55c8.61 0 16 6.62 16.43 15.23A16 16 0 01288 384zm-77.89-138.91l36.46 40.11a1 1 0 01-.95 1.66 48.26 48.26 0 01-37.25-41 1 1 0 011.74-.77zm152.65 119.75a16 16 0 01-22.6-1.08l-192-210a16 16 0 0123.68-21.52l192 210a16 16 0 01-1.08 22.6zM352 248.22a77.12 77.12 0 01-11.93 40.87 2 2 0 01-3.19.3l-19.19-21.1a4 4 0 01-.76-4.16 43.35 43.35 0 003.07-15.91v-23.8a16.3 16.3 0 0113.64-16.24c9.88-1.48 18.36 6.51 18.36 16.12z"/></svg><svg width="28" height="28" viewBox="-42.67 -42.67 597.33 597.33" id="ionicons-navigate" x="84" y="56" xmlns="http://www.w3.org/2000/svg"><path d="M272 464a16 16 0 01-16-16.42V264.13a8 8 0 00-8-8H64.41a16.31 16.31 0 01-15.49-10.65 16 16 0 018.41-19.87l384-176.15a16 16 0 0121.22 21.19l-176 384A16 16 0 01272 464z"/></svg><svg width="28" height="28" viewBox="-42.67 -42.67 597.33 597.33" id="ionicons-phone-landscape-outline" y="84" xmlns="http://www.w3.org/2000/svg"><rect x="128" y="16" width="256" height="480" rx="48" ry="48" transform="rotate(-90 256 256)" fill="none" stroke="#000" stroke-linecap="round" stroke-linejoin="round" stroke-width="32"/><path d="M16 336v-24a8 8 0 018-8h0a16 16 0 0016-16v-64a16 16 0 00-16-16h0a8 8 0 01-8-8v-24" fill="none" stroke="#000" stroke-linecap="round" stroke-linejoin="round" stroke-width="32"/></svg><svg width="28" height="28" viewBox="-42.67 -42.67 597.33 597.33" id="ionicons-remove" x="28" y="84" xmlns="http://www.w3.org/2000/svg"><path fill="none" stroke="#000" stroke-linecap="round" stroke-linejoin="round" stroke-width="32" d="M400 256H112"/></svg><svg width="28" height="28" viewBox="-42.67 -42.67 597.33 597.33" id="ionicons-server-outline" x="56" y="84" xmlns="http://www.w3.org/2000/svg"><ellipse cx="256" cy="128" rx="192" ry="80" fill="none" stroke="#000" stroke-linecap="round" stroke-miterlimit="10" stroke-width="32"/><path d="M448 214c0 44.18-86 80-192 80S64 258.18 64 214M448 300c0 44.18-86 80-192 80S64 344.18 64 300" fill="none" stroke="#000" stroke-linecap="round" stroke-miterlimit="10" stroke-width="32"/><path d="M64 127.24v257.52C64 428.52 150 464 256 464s192-35.48 192-79.24V127.24" fill="none" stroke="#000" stroke-linecap="round" stroke-miterlimit="10" stroke-width="32"/></svg><svg width="28" height="28" viewBox="-42.67 -42.67 597.33 597.33" id="ionicons-videocam" x="84" y="84" xmlns="http://www.w3.org/2000/svg"><path d="M464 384.39a32 32 0 01-13-2.77 15.77 15.77 0 01-2.71-1.54l-82.71-58.22A32 32 0 01352 295.7v-79.4a32 32 0 0113.58-26.16l82.71-58.22a15.77 15.77 0 012.71-1.54 32 32 0 0145 29.24v192.76a32 32 0 01-32 32zM268 400H84a68.07 68.07 0 01-68-68V180a68.07 68.07 0 0168-68h184.48A67.6 67.6 0 01336 179.52V332a68.07 68.07 0 01-68 68z"/></svg></svg>