<?xml version="1.0" encoding="utf-8"?><svg width="112" height="112" viewBox="0 0 112 112" xmlns="http://www.w3.org/2000/svg" xmlns:xlink="http://www.w3.org/1999/xlink"><svg width="28" height="28" viewBox="-42.67 -42.67 597.33 597.33" id="ionicons-camera-sharp" xmlns="http://www.w3.org/2000/svg"><circle cx="256" cy="272" r="64"/><path d="M456 144h-83c-3 0-6.72-1.94-9.62-5L336.1 96.2C325 80 320 80 302 80h-92c-18 0-24 0-34.07 16.21L148.62 139c-2.22 2.42-5.34 5-8.62 5v-16a8 8 0 00-8-8H92a8 8 0 00-8 8v16H56a24 24 0 00-24 24v240a24 24 0 0024 24h400a24 24 0 0024-24V168a24 24 0 00-24-24zM260.51 367.9a96 96 0 1191.39-91.39 96.11 96.11 0 01-91.39 91.39z"/></svg><svg width="28" height="28" viewBox="-42.67 -42.67 597.33 597.33" id="ionicons-chevron-back-circle-sharp" x="28" xmlns="http://www.w3.org/2000/svg"><path d="M256 48C141.13 48 48 141.13 48 256s93.13 208 208 208 208-93.13 208-208S370.87 48 256 48zm62.63 304L296 374.63 177.37 256 296 137.37 318.63 160l-96 96z"/></svg><svg width="28" height="28" viewBox="-42.67 -42.67 597.33 597.33" id="ionicons-close-outline" y="28" xmlns="http://www.w3.org/2000/svg"><path fill="none" stroke="#000" stroke-linecap="round" stroke-linejoin="round" stroke-width="32" d="M368 368L144 144M368 144L144 368"/></svg><svg width="28" height="28" viewBox="-42.67 -42.67 597.33 597.33" id="ionicons-cube-sharp" x="28" y="28" xmlns="http://www.w3.org/2000/svg"><path d="M48 170v196.92L240 480V284L48 170zM272 480l192-113.08V170L272 284zm176-122.36zM448 144L256 32 64 144l192 112 192-112z"/></svg><svg width="28" height="28" viewBox="-42.67 -42.67 597.33 597.33" id="ionicons-easel-outline" x="56" xmlns="http://www.w3.org/2000/svg"><rect x="48" y="80" width="416" height="272" rx="32" ry="32" fill="none" stroke="#000" stroke-linejoin="round" stroke-width="32"/><path fill="none" stroke="#000" stroke-linecap="round" stroke-linejoin="round" stroke-width="32" d="M256 416v-64M256 80V48M400 464l-32-112M112 464l32-112"/></svg><svg width="28" height="28" viewBox="-42.67 -42.67 597.33 597.33" id="ionicons-flash-off-outline" x="56" y="28" xmlns="http://www.w3.org/2000/svg"><path d="M432 448a15.92 15.92 0 01-11.31-4.69l-352-352a16 16 0 0122.62-22.62l352 352A16 16 0 01432 448zM294.34 84.28l-22.08 120.84a16 16 0 006.17 15.71 16.49 16.49 0 009.93 3.17h94.12l-38.37 47.42a4 4 0 00.28 5.34l17.07 17.07a4 4 0 005.94-.31l60.8-75.16a16.37 16.37 0 003.3-14.36 16 16 0 00-15.5-12H307.19L335.4 37.63c.05-.3.1-.59.13-.89A18.45 18.45 0 00302.73 23l-92.58 114.46a4 4 0 00.28 5.35l17.07 17.06a4 4 0 005.94-.31zM217.78 427.57l22-120.71a16 16 0 00-6.19-15.7 16.54 16.54 0 00-9.92-3.16h-94.1l38.36-47.42a4 4 0 00-.28-5.34l-17.07-17.07a4 4 0 00-5.93.31L83.8 293.64A16.37 16.37 0 0080.5 308 16 16 0 0096 320h108.83l-28.09 154.36v.11a18.37 18.37 0 0032.5 14.53l92.61-114.46a4 4 0 00-.28-5.35l-17.07-17.06a4 4 0 00-5.94.31z"/></svg><svg width="28" height="28" viewBox="-42.67 -42.67 597.33 597.33" id="ionicons-heart-dislike-circle-outline" y="56" xmlns="http://www.w3.org/2000/svg"><path d="M448 256c0-106-86-192-192-192S64 150 64 256s86 192 192 192 192-86 192-192z" fill="none" stroke="#000" stroke-miterlimit="10" stroke-width="32"/><path d="M333.2 297.69c18.28-23.39 27.06-47.43 26.79-73.37-.31-31.06-25.22-56.33-55.53-56.33-20.4 0-35 10.64-44.11 20.42a5.93 5.93 0 01-8.7 0c-9.11-9.78-23.71-20.42-44.11-20.42L206 168a4 4 0 00-2.75 6.84l124 123.21a3.92 3.92 0 005.95-.36zM158.84 221a4 4 0 00-6.82 2.72v.64c-.28 27.1 9.31 52.13 29.3 76.5 9.38 11.44 26.4 29.73 65.7 56.41a15.93 15.93 0 0018 0c5.15-3.49 9.9-6.84 14.31-10a4 4 0 00.46-6.07zM336 368a15.92 15.92 0 01-11.31-4.69l-176-176a16 16 0 0122.62-22.62l176 176A16 16 0 01336 368z"/></svg><svg width="28" height="28" viewBox="-42.67 -42.67 597.33 597.33" id="ionicons-logo-amplify" x="28" y="56" xmlns="http://www.w3.org/2000/svg"><path d="M112.31 268l40.36-68.69 34.65 59-67.54 115h135L289.31 432H16zm58.57-99.76l33.27-56.67L392.44 432h-66.68zM222.67 80h66.59L496 432h-66.68z" fill-rule="evenodd"/></svg><svg width="28" height="28" viewBox="-42.67 -42.67 597.33 597.33" id="ionicons-man" x="56" y="56" xmlns="http://www.w3.org/2000/svg"><circle cx="256" cy="56" r="56"/><path d="M304 128h-96a64.19 64.19 0 00-64 64v107.52c0 10.85 8.43 20.08 19.27 20.47A20 20 0 00184 300v-99.73a8.18 8.18 0 017.47-8.25 8 8 0 018.53 8V489a23 23 0 0023 23 23 23 0 0023-23V346.34a10.24 10.24 0 019.33-10.34A10 10 0 01266 346v143a23 23 0 0023 23 23 23 0 0023-23V200.27a8.18 8.18 0 017.47-8.25 8 8 0 018.53 8v99.52c0 10.85 8.43 20.08 19.27 20.47A20 20 0 00368 300V192a64.19 64.19 0 00-64-64z"/></svg><svg width="28" height="28" viewBox="-42.67 -42.67 597.33 597.33" id="ionicons-notifications-off" x="84" xmlns="http://www.w3.org/2000/svg"><path d="M448 464a15.92 15.92 0 01-11.31-4.69l-384-384a16 16 0 0122.62-22.62l384 384A16 16 0 01448 464zM440.08 341.31c-1.66-2-3.29-4-4.89-5.93-22-26.61-35.31-42.67-35.31-118 0-39-9.33-71-27.72-95-13.56-17.73-31.89-31.18-56.05-41.12a3 3 0 01-.82-.67C306.6 51.49 282.82 32 256 32s-50.59 19.49-59.28 48.56a3.13 3.13 0 01-.81.65 157.88 157.88 0 00-21.88 11 8 8 0 00-1.49 12.49l261.78 261.74a8 8 0 0013.6-6.63 35.39 35.39 0 00-7.84-18.5zM112.14 217.35c0 75.36-13.29 91.42-35.31 118-1.6 1.93-3.23 3.89-4.89 5.93a35.16 35.16 0 00-4.65 37.62c6.17 13 19.32 21.07 34.33 21.07H312.8a8 8 0 005.66-13.66l-192-192a8 8 0 00-13.62 5q-.7 8.69-.7 18.04zM256 480a80.06 80.06 0 0070.44-42.13 4 4 0 00-3.54-5.87H189.12a4 4 0 00-3.55 5.87A80.06 80.06 0 00256 480z"/></svg><svg width="28" height="28" viewBox="-42.67 -42.67 597.33 597.33" id="ionicons-nuclear-outline" x="84" y="28" xmlns="http://www.w3.org/2000/svg"><circle cx="256" cy="256" r="192" fill="none" stroke="#000" stroke-linecap="round" stroke-miterlimit="10" stroke-width="32"/><circle cx="256" cy="256" r="64" fill="none" stroke="#000" stroke-miterlimit="10" stroke-width="32"/><path fill="none" stroke="#000" stroke-linecap="round" stroke-miterlimit="10" stroke-width="32" d="M224 192L171 85M288 192l53-107M327.55 255.81l119.41.13M299.09 313.13l72.25 95.06M184.45 255.81l-119.41.13M212.91 313.13l-72.25 95.06"/></svg><svg width="28" height="28" viewBox="-42.67 -42.67 597.33 597.33" id="ionicons-play-circle-sharp" x="84" y="56" xmlns="http://www.w3.org/2000/svg"><path d="M256 48C141.31 48 48 141.31 48 256s93.31 208 208 208 208-93.31 208-208S370.69 48 256 48zm-56 296V168l144 88z"/></svg><svg width="28" height="28" viewBox="-42.67 -42.67 597.33 597.33" id="ionicons-recording-sharp" y="84" xmlns="http://www.w3.org/2000/svg"><path d="M384 138a117.93 117.93 0 00-91.84 192h-72.32A118 118 0 10128 374h256a118 118 0 000-236zM54 256a74 74 0 1174 74 74.09 74.09 0 01-74-74zm330 74a74 74 0 1174-74 74.09 74.09 0 01-74 74z"/></svg><svg width="28" height="28" viewBox="-42.67 -42.67 597.33 597.33" id="ionicons-save-sharp" x="28" y="84" xmlns="http://www.w3.org/2000/svg"><path d="M380.44 32H64a32 32 0 00-32 32v384a32 32 0 0032 32h384a32.09 32.09 0 0032-32V131.56zM112 176v-64h192v64zm223.91 179.76a80 80 0 11-83.66-83.67 80.21 80.21 0 0183.66 83.67z"/></svg><svg viewBox="-42.67 -42.67 597.33 597.33" width="28" height="28" id="ionicons-today-sharp" x="56" y="84" xmlns="http://www.w3.org/2000/svg"><path d="M32 456a24 24 0 0024 24h400a24 24 0 0024-24V176H32zm80-238.86a9.14 9.14 0 019.14-9.14h109.72a9.14 9.14 0 019.14 9.14v109.72a9.14 9.14 0 01-9.14 9.14H121.14a9.14 9.14 0 01-9.14-9.14zM456 64h-55.92V32h-48v32H159.92V32h-48v32H56a23.8 23.8 0 00-24 23.77V144h448V87.77A23.8 23.8 0 00456 64z"/></svg><svg width="28" height="28" viewBox="-42.67 -42.67 597.33 597.33" id="ionicons-wine" x="84" y="84" xmlns="http://www.w3.org/2000/svg"><path d="M414.56 94.92V80a16 16 0 00-16-16H113.44a16 16 0 00-16 16v14.92c-1.46 11.37-9.65 90.74 36.93 144.69 24.87 28.8 60.36 44.85 105.63 47.86V416h-80a16 16 0 000 32h192a16 16 0 000-32h-80V287.47c45.27-3 80.76-19.06 105.63-47.86 46.58-53.95 38.37-133.32 36.93-144.69zm-285.3 3.41a15.14 15.14 0 00.18-2.33h253.12a15.14 15.14 0 00.18 2.33 201.91 201.91 0 010 45.67H129.32a204.29 204.29 0 01-.06-45.67z"/></svg></svg>