<?xml version="1.0" encoding="utf-8"?><svg width="112" height="112" viewBox="0 0 112 112" xmlns="http://www.w3.org/2000/svg" xmlns:xlink="http://www.w3.org/1999/xlink"><svg viewBox="-2.67 -2.67 37.33 37.33" width="28" height="28" id="line-awesome-angle-double-left-solid" xmlns="http://www.w3.org/2000/svg"><path d="M15.906 4.781L4.687 16l11.22 11.219 1.405-1.438L7.533 16l9.78-9.781zm7 0L11.688 16l11.218 11.219 1.407-1.438L14.53 16l9.781-9.781z"/></svg><svg viewBox="-2.67 -2.67 37.33 37.33" width="28" height="28" id="line-awesome-arrow-alt-circle-down-solid" x="28" xmlns="http://www.w3.org/2000/svg"><path d="M16 3C8.832 3 3 8.832 3 16s5.832 13 13 13 13-5.832 13-13S23.168 3 16 3zm0 2c6.086 0 11 4.914 11 11s-4.914 11-11 11S5 22.086 5 16 9.914 5 16 5zm-1 4v10h-3l4 4 4-4h-3V9z"/></svg><svg viewBox="-2.67 -2.67 37.33 37.33" width="28" height="28" id="line-awesome-cloudsmith" y="28" xmlns="http://www.w3.org/2000/svg"><path d="M18.854 3c-2.41 0-4.563 1.95-4.563 4.35 0 2.41-1.531 3.941-3.941 3.941-2.4 0-4.35 2.152-4.35 4.563C6 18.264 7.95 20 10.35 20c2.41 0 4.357-1.734 4.357-4.145 0-2.41 1.737-4.146 4.147-4.146 2.4 0 4.146-1.95 4.146-4.36C23 4.952 21.254 3 18.854 3zm.652 17a4.501 4.501 0 10-.01 9.002 4.501 4.501 0 00.01-9.002z"/></svg><svg viewBox="-2.67 -2.67 37.33 37.33" width="28" height="28" id="line-awesome-comments-dollar-solid" x="28" y="28" xmlns="http://www.w3.org/2000/svg"><path d="M2 3v18h4v5.094l1.625-1.313L12.344 21H22V3H2zm2 2h16v14h-8.344l-.281.219L8 21.906V19H4V5zm7 2v1.04c-1.121.187-2 1.163-2 2.335 0 .754.422 1.453 1.11 1.797L13 13.617c-.004.223-.16.383-.383.383h-1.234a.369.369 0 01-.383-.383V13H9v.617c0 1.172.875 2.156 2 2.344V17h2v-1.04c1.125-.187 2-1.17 2-2.343 0-.754-.43-1.449-1.105-1.789L11 10.378c.008.009 0 .001 0-.003 0-.223.156-.375.383-.375h1.234c.223 0 .383.16.383.383V11h2v-.617c0-1.172-.875-2.156-2-2.344V7h-2zm13 2v2h4v12h-4v2.906L20.344 23h-7.5l-2.5 2h9.312L26 30.094V25h4V9h-6z"/></svg><svg viewBox="-2.67 -2.67 37.33 37.33" width="28" height="28" id="line-awesome-divide-solid" x="56" xmlns="http://www.w3.org/2000/svg"><path d="M16 6c-1.645 0-3 1.355-3 3s1.355 3 3 3 3-1.355 3-3-1.355-3-3-3zm0 2c.563 0 1 .438 1 1 0 .563-.438 1-1 1-.563 0-1-.438-1-1 0-.563.438-1 1-1zM5 15v2h22v-2zm11 5c-1.645 0-3 1.355-3 3s1.355 3 3 3 3-1.355 3-3-1.355-3-3-3zm0 2c.563 0 1 .438 1 1 0 .563-.438 1-1 1-.563 0-1-.438-1-1 0-.563.438-1 1-1z"/></svg><svg viewBox="-2.67 -2.67 37.33 37.33" width="28" height="28" id="line-awesome-earlybirds" x="56" y="28" xmlns="http://www.w3.org/2000/svg"><path d="M14.85 4c-.05.03-.62 1.02.12 1.96-1.73.33-2.96 1.28-3.92 2.33-1.95.07-4.1.14-4.39 1.67-.13.03-.56.04-.62.13-.01.02-.1.39-.11.74.02.68.32 1.24 1.14 1.12.22 1.17.08 1.98.78 2.92-.06.32-.1.64-.13.96-2.3 1.11-4.08 1.83-3.56 3.3.52 1.26 2.41.83 3.62.21.55 3.06 2.61 4.97 5.56 5.72-1.72-.07-2.88-.07-3-.07-1.01 0-1.01 1.52 0 1.52.11 0 1.16-.16 2.93-.21l-.05.6c-.09.74.91 1.07 1.27.42 0 .89 1.34.92 1.37.02l.03-.25c.06 1.1 1.41.91 1.37.05.2.87 1.52.57 1.34-.3l-.05-.56c1.54-.05 3.644-.016 5.864-.526 1.19-.28 1.59-.41 2.28-.53.71-.09-.02-.68-.15-.64-.08.03-.25.06-.47.1.65-.66.41-1.62.33-1.67-.09-.06-1.05.05-1.46.66-.34-.48-.98-.6-1.05-.56-.07.05-.481 1.18.479 1.84-1.63.24-3.263.366-4.883.296-1.26-.05-1.15 0-1.17-.05 3.3-.62 5.46-2.66 6.11-6.01 1.13.59 2.99 1.3 3.47.14.48-1.18-1.5-2.09-3.29-3.31-.04-.61-.12-1.2-.23-1.77.29-.71.26-1.47.42-2.3.81.11 1.11-.45 1.14-1.12-.02-.35-.1-.72-.12-.75-.05-.08-.48-.09-.61-.12-.26-1.36-1.98-1.57-3.73-1.65-1.15-1.25-2.7-2.28-4.65-2.45.55-.53.29-1.22.24-1.25-.06-.04-.69.09-.95.52-.24-.92-1.19-1.16-1.27-1.13zm5.88 1.014c-.587-.063-1.146.082-1.19.547-.04 1.2 1.34-.04 2.69.32.35-.27-.87-.72-.92-.74a2.736 2.736 0 00-.58-.127zm-9.263.002a2.93 2.93 0 00-.637.14c-.05.02-1.39.51-1.01.81 1.49-.39 3 .971 2.96-.349-.053-.51-.667-.67-1.313-.601zm.586 4.51c1.358.034 2.407.363 2.377 1.872.01.842-.31 2.666-.71 3.1-.62.68-3.7.54-4.18.322-.83-.378-1.67-3.667-1.12-4.63.32-.549 1.15-.586 2.2-.633.492-.022.98-.043 1.433-.032zm7.793.003c.446-.011.926.01 1.414.032 1.05.047 1.93.084 2.25.632.59 1.028-.42 4.286-1.18 4.635-.47.208-3.55.349-4.17-.33-.4-.434-.67-2.258-.64-3.098-.038-1.508.988-1.836 2.326-1.87zM12.006 11c-.554 0-1.006.454-1.006 1a1 1 0 002 0c0-.545-.452-1-.994-1zm7.988 0c-.542 0-.994.454-.994 1a1 1 0 002 0c0-.545-.452-1-1.006-1zm-4.209 1.592c.096-.021.412-.021.508 0 .431.138.506 1.039.707 1.676-.612.148-.707.732-.908.732-.201 0-.384-.498-1.092-.498.287-.775.325-1.762.785-1.91z"/></svg><svg viewBox="-2.67 -2.67 37.33 37.33" width="28" height="28" id="line-awesome-ethereum" y="56" xmlns="http://www.w3.org/2000/svg"><path d="M14.953 3L6.93 15.553l9.074 4.46 8.93-4.464L17.053 3h-2.1zM15 6.637v4.351l-3.914 1.776L15 6.637zm2 .04l3.818 6.08L17 11.005V6.678zm-2 6.507v4.107l-4.344-2.137L15 13.184zm2 .023l4.246 1.95L17 17.278v-4.072zM7 17.512v2.52l7.928 8.843h2.144L25 20.031v-2.52l-9 4.614-9-4.613zm4.521 4.566L15 23.861v2.096l-3.479-3.879zm8.958 0L17 25.957v-2.096l3.479-1.783z"/></svg><svg viewBox="-2.67 -2.67 37.33 37.33" width="28" height="28" id="line-awesome-github" x="28" y="56" xmlns="http://www.w3.org/2000/svg"><path fill-rule="evenodd" d="M16 4C9.371 4 4 9.371 4 16c0 5.3 3.438 9.8 8.207 11.387.602.11.82-.258.82-.578 0-.286-.011-1.04-.015-2.04-3.34.723-4.043-1.609-4.043-1.609-.547-1.387-1.332-1.758-1.332-1.758-1.09-.742.082-.726.082-.726 1.203.086 1.836 1.234 1.836 1.234 1.07 1.836 2.808 1.305 3.492 1 .11-.777.422-1.305.762-1.605-2.664-.301-5.465-1.332-5.465-5.93 0-1.313.469-2.383 1.234-3.223-.121-.3-.535-1.523.117-3.175 0 0 1.008-.32 3.301 1.23A11.487 11.487 0 0116 9.805c1.02.004 2.047.136 3.004.402 2.293-1.55 3.297-1.23 3.297-1.23.656 1.652.246 2.875.12 3.175.77.84 1.231 1.91 1.231 3.223 0 4.61-2.804 5.621-5.476 5.922.43.367.812 1.101.812 2.219 0 1.605-.011 2.898-.011 3.293 0 .32.214.695.824.578C24.566 25.797 28 21.3 28 16c0-6.629-5.371-12-12-12z"/></svg><svg viewBox="-2.67 -2.67 37.33 37.33" width="28" height="28" id="line-awesome-paw-solid" x="56" y="56" xmlns="http://www.w3.org/2000/svg"><path d="M12.5 5c-1.07 0-2 .61-2.594 1.438C9.312 7.266 9 8.34 9 9.5s.313 2.234.906 3.063C10.5 13.39 11.43 14 12.5 14c1.07 0 2-.61 2.594-1.438.594-.828.906-1.902.906-3.062s-.313-2.234-.906-3.063C14.5 5.61 13.57 5 12.5 5zM16 9.5c0 1.16.313 2.234.906 3.063C17.5 13.39 18.43 14 19.5 14c1.07 0 2-.61 2.594-1.438.593-.828.906-1.902.906-3.062s-.313-2.234-.906-3.063C21.5 5.61 20.57 5 19.5 5c-1.07 0-2 .61-2.594 1.438C16.313 7.266 16 8.34 16 9.5zM12.5 7c.313 0 .656.156.969.594C13.78 8.03 14 8.727 14 9.5c0 .773-.219 1.469-.531 1.906-.313.438-.656.594-.969.594-.313 0-.656-.156-.969-.594C11.22 10.97 11 10.273 11 9.5c0-.773.219-1.469.531-1.906.313-.438.656-.594.969-.594zm7 0c.313 0 .656.156.969.594C20.78 8.03 21 8.727 21 9.5c0 .773-.219 1.469-.531 1.906-.313.438-.657.594-.969.594-.313 0-.656-.156-.969-.594C18.22 10.97 18 10.273 18 9.5c0-.773.219-1.469.531-1.906.313-.438.657-.594.969-.594zm-12 5c-1.07 0-2 .61-2.594 1.438C4.313 14.265 4 15.34 4 16.5s.313 2.234.906 3.063C5.5 20.39 6.43 21 7.5 21c1.07 0 2-.61 2.594-1.438.594-.828.906-1.902.906-3.062s-.313-2.234-.906-3.063C9.5 12.61 8.57 12 7.5 12zm17 0c-1.07 0-2 .61-2.594 1.438-.593.828-.906 1.902-.906 3.062s.313 2.234.906 3.063C22.5 20.39 23.43 21 24.5 21c1.07 0 2-.61 2.594-1.438.593-.828.906-1.902.906-3.062s-.313-2.234-.906-3.063C26.5 12.61 25.57 12 24.5 12zm-17 2c.313 0 .656.156.969.594C8.78 15.03 9 15.727 9 16.5c0 .773-.219 1.469-.531 1.906-.313.438-.656.594-.969.594-.313 0-.656-.156-.969-.594C6.22 17.97 6 17.273 6 16.5c0-.773.219-1.469.531-1.906.313-.438.657-.594.969-.594zm17 0c.313 0 .656.156.969.594.312.437.531 1.133.531 1.906 0 .773-.219 1.469-.531 1.906-.313.438-.657.594-.969.594-.313 0-.656-.156-.969-.594C23.22 17.97 23 17.273 23 16.5c0-.773.219-1.469.531-1.906.313-.438.657-.594.969-.594zM16 16c-1.332 0-2.262.867-2.719 1.625-.457.758-.734 1.39-1 1.656-.156.157-1.12.52-2.125 1.032-.504.257-1.011.601-1.437 1.125A3.285 3.285 0 008 23.5c0 1.922 1.578 3.5 3.5 3.5.867 0 1.77-.277 2.656-.531C15.043 26.215 16 26 16 26s.957.215 1.844.469c.886.254 1.789.531 2.656.531 1.922 0 3.5-1.578 3.5-3.5 0-.793-.293-1.52-.719-2.031-.426-.512-.937-.828-1.437-1.094-1-.531-1.985-.953-2.125-1.094-.239-.238-.508-.89-.969-1.656C18.29 16.859 17.34 16 16 16zm0 2c.66 0 .734.16 1.031.656.297.496.524 1.336 1.25 2.063.824.824 1.867 1.004 2.625 1.406.38.203.672.418.844.625.172.207.25.398.25.75 0 .84-.66 1.5-1.5 1.5-.29 0-1.223-.223-2.094-.469-.87-.246-1.59-.531-2.406-.531-.816 0-1.535.285-2.406.531-.871.246-1.805.469-2.094.469-.84 0-1.5-.66-1.5-1.5 0-.402.082-.61.25-.813.168-.203.473-.402.844-.593.746-.38 1.781-.532 2.625-1.375.734-.735.957-1.602 1.25-2.094.293-.492.363-.625 1.031-.625z"/></svg><svg viewBox="-2.67 -2.67 37.33 37.33" width="28" height="28" id="line-awesome-plane-departure-solid" x="84" xmlns="http://www.w3.org/2000/svg"><path d="M25.719 4.781a2.912 2.912 0 00-1.125.344l-4.719 2.5L13.5 6.062l-.375-.093-.375.187-2.156 1.25-1.281.75 1.187.906 2.719 2.063-3.406 1.813-3.657-1.657-.437-.187-.438.219-1.75.937-1.156.625.875.938 5.406 5.812.5.594.688-.375L15 17.094l-1.031 5.687-.344 1.813 1.719-.719 2.562-1.094.375-.156.157-.375 3.718-9.031 5.25-2.813c1.446-.777 2.028-2.617 1.25-4.062a2.988 2.988 0 00-1.781-1.438 3.12 3.12 0 00-1.156-.125zm.187 2c.125-.008.254-.004.375.032a.979.979 0 01.188 1.812l-5.594 3.031-.313.156-.125.344-3.718 8.938-.438.187 1.063-5.906.375-2.031-1.813.969-6.312 3.406-3.969-4.313.156-.094 3.657 1.626.468.218.406-.25 15.22-8.031a.886.886 0 01.374-.094zM13.375 8.094l3.844.937-2.063 1.063-2.25-1.719zM3 26v2h26v-2z"/></svg><svg viewBox="-2.67 -2.67 37.33 37.33" width="28" height="28" id="line-awesome-plug-solid" x="84" y="28" xmlns="http://www.w3.org/2000/svg"><path d="M22 3.594l-4 3.969-2.281-2.282L14.28 6.72l.75.75-5.125 5.125a3.126 3.126 0 000 4.406l1.844 1.844-7.469 7.437L5.72 27.72l7.437-7.469L15 22.094a3.126 3.126 0 004.406 0l5.125-5.125.75.75 1.438-1.438L24.437 14l3.97-4L27 8.594l-4 3.969L19.437 9l3.97-4zm-5.563 5.281l6.688 6.688L18 20.686c-.387.387-1.207.387-1.594 0l-5.093-5.093c-.387-.387-.387-1.207 0-1.594z"/></svg><svg viewBox="-2.67 -2.67 37.33 37.33" width="28" height="28" id="line-awesome-rev" x="84" y="56" xmlns="http://www.w3.org/2000/svg"><path d="M15 3v2.05C9.402 5.559 5 10.274 5 16c0 6.065 4.935 11 11 11h11V16c0-3.367-1.523-6.381-3.914-8.4l-1.863 1.086C23.505 10.32 25 12.986 25 16c0 4.962-4.037 9-9 9s-9-4.038-9-9c0-4.624 3.506-8.442 8-8.941V10l6-3.5L15 3zm1 10a3 3 0 000 6 3 3 0 000-6z"/></svg><svg viewBox="-2.67 -2.67 37.33 37.33" width="28" height="28" id="line-awesome-ribbon-solid" y="84" xmlns="http://www.w3.org/2000/svg"><path d="M16 4c-1.102 0-3.602 0-4.5 1.5v.094c-.102.199-1.688 3.699-2.188 5-.601 1.601.102 3.52 1 4.719.7 1.101 9.387 11.882 9.688 12.28l.594.813 5-4.093-.5-.813c-1.102-1.398-3.008-3.695-4.907-6.094 1.399-1.699 1.625-1.992 1.625-2.093.899-1.2 1.602-3.118 1-4.72-.5-1.3-2.117-4.8-2.218-5V5.5c0-.102-.094-.086-.094-.188C19.3 4.013 17 4 16 4zm0 2c1.8 0 2.488.3 2.688.5 0 .2.007.512-.094.813V7.5c0 .2-.086.387-.188.688C17.805 7.987 17.102 8 16 8s-1.805-.008-2.406.094c-.102-.2-.086-.489-.188-.688v-.218c-.101-.399-.094-.583-.094-.782C13.512 6.305 14.2 6 16 6zm-4.094 3.5c.2.602.5 1.3 1 2 .801 1.2 7.7 9.7 10 12.5L21 25.594c-2.898-3.5-8.594-10.606-9.094-11.407-.601-.8-1.113-2.074-.812-2.874.101-.399.414-1.114.812-1.813zm8.188 0c.3.7.613 1.414.812 1.813.301.8-.21 2.074-.812 2.874-.102.102-.383.524-1.282 1.626-.5-.7-1.125-1.305-1.625-1.907 1.5-1.898 1.805-2.304 1.907-2.406.398-.7.8-1.398 1-2zm-5.688.5h3.188c-.102.102-.086.207-.188.406 0 .2-.406.606-1.406 1.906-.7-.898-1.305-1.605-1.406-1.906-.102-.101-.086-.207-.188-.406zm-3.5 8.594c-2.101 2.601-4 4.906-4 4.906l-.593.813 5 4.093.687-.812s1.395-1.68 3.094-3.782c-.399-.5-.883-1.125-1.281-1.625-1.2 1.399-2.211 2.606-2.813 3.407L9.094 24c.699-.8 1.793-2.21 3.094-3.813-.5-.601-.883-1.093-1.282-1.593z"/></svg><svg viewBox="-2.67 -2.67 37.33 37.33" width="28" height="28" id="line-awesome-soundcloud" x="28" y="84" xmlns="http://www.w3.org/2000/svg"><path d="M19.625 9.05c-.887 0-1.754.177-2.516.473-.297.114-.379.23-.379.461v12.493c0 .242.188.43.422.453h10.91A3.92 3.92 0 0032 19.012a3.939 3.939 0 00-3.938-3.938c-.539 0-1.05.11-1.519.309a6.948 6.948 0 00-6.918-6.332zm-3.7.923c-.105 0-.198.039-.273.101a.426.426 0 00-.16.332v.043l-.18 8.824.09 1.63.09 1.59c.004.234.195.429.434.429a.44.44 0 00.433-.434l.192-3.215-.192-8.867a.453.453 0 00-.214-.37.43.43 0 00-.22-.063zm-1.343.765a.38.38 0 00-.219.067.397.397 0 00-.187.34v.074l-.153 8.05.153 3.27v.012a.413.413 0 00.406.39c.11 0 .211-.046.285-.12a.433.433 0 00.121-.286l.016-.324.156-2.941-.172-8.13a.42.42 0 00-.406-.402zm-4.02.934c-.175 0-.32.14-.324.32l-.203 7.278.203 3.34c.004.18.149.32.325.32.175 0 .316-.14.324-.32l.226-3.34-.226-7.278a.328.328 0 00-.325-.32zm1.329.16a.352.352 0 00-.352.348l-.187 7.09.187 3.308c.004.195.16.348.352.348a.354.354 0 00.351-.348l.207-3.308-.207-7.09a.352.352 0 00-.351-.348zm-2.649.105c-.16 0-.289.13-.297.293l-.218 7.04.218 3.363a.301.301 0 00.297.293c.16 0 .29-.13.297-.297l.246-3.36-.246-7.039a.301.301 0 00-.297-.293zm3.988.126a.378.378 0 00-.378.374l-.168 6.833.168 3.289a.378.378 0 00.757-.004l.192-3.285-.192-6.832a.378.378 0 00-.379-.376zm-5.316.46a.272.272 0 00-.27.266l-.234 6.496.235 3.399a.272.272 0 00.27.265.274.274 0 00.269-.265l.265-3.395-.265-6.5a.274.274 0 00-.27-.266zm-1.277 1.22a.245.245 0 00-.242.237l-.25 5.29.25 3.414c.007.132.113.242.242.242s.234-.11.242-.242l.281-3.414-.281-5.29a.248.248 0 00-.242-.238zM4.07 15.577c-.097 0-.18.078-.187.188l-.281 3.5.28 3.39c.009.106.09.184.188.184s.18-.078.188-.184l.32-3.39-.32-3.504a.192.192 0 00-.188-.184zm-1.265.121c-.086 0-.153.067-.16.156l-.301 3.41.3 3.286c.008.09.075.156.16.156.083 0 .15-.066.16-.156l.337-3.285-.336-3.41c-.012-.09-.078-.157-.16-.157zm2.543.106a.218.218 0 00-.215.21l-.266 3.25.266 3.419c.008.12.101.21.215.21.113 0 .207-.09.215-.21l.3-3.418-.3-3.25a.218.218 0 00-.215-.211zm-3.801.457c-.07 0-.125.054-.137.129l-.312 2.875.312 2.808c.012.078.067.133.137.133.066 0 .121-.055.133-.129l.355-2.812-.355-2.875c-.012-.075-.067-.13-.133-.13zM.363 17.363c-.066 0-.12.051-.129.125L0 19.266l.234 1.746c.008.074.063.125.13.125.062 0 .116-.051.124-.121l.278-1.75-.278-1.778c-.008-.074-.062-.125-.125-.125z"/></svg><svg viewBox="-2.67 -2.67 37.33 37.33" width="28" height="28" id="line-awesome-sun" x="56" y="84" xmlns="http://www.w3.org/2000/svg"><path d="M15 3v5h2V3zM7.5 6.094L6.094 7.5l3.531 3.563 1.438-1.438zm17 0l-3.563 3.531 1.438 1.438L25.906 7.5zM16 9c-3.855 0-7 3.145-7 7s3.145 7 7 7 7-3.145 7-7-3.145-7-7-7zm0 2c2.773 0 5 2.227 5 5s-2.227 5-5 5-5-2.227-5-5 2.227-5 5-5zM3 15v2h5v-2zm21 0v2h5v-2zM9.625 20.938L6.094 24.5 7.5 25.906l3.563-3.531zm12.75 0l-1.438 1.437 3.563 3.531 1.406-1.406zM15 24v5h2v-5z"/></svg><svg viewBox="-2.67 -2.67 37.33 37.33" width="28" height="28" id="line-awesome-weixin" x="84" y="84" xmlns="http://www.w3.org/2000/svg"><path d="M14 5C8.578 5 4 8.71 4 13.5c0 1.617.594 3.102 1.5 4.375l-.375 2.906-.219 1.75 1.594-.687L9 20.812a11.377 11.377 0 004.156 1.125C13.886 24.892 16.976 27 20.5 27c1.453 0 2.781-.41 3.938-1.031l1.187.687 1.719.938-.25-1.938-.219-1.812C27.539 22.89 28 21.8 28 20.594c0-2.559-1.707-4.703-4.125-5.75.086-.438.125-.875.125-1.344C24 8.71 19.422 5 14 5zm0 2c4.52 0 8 3.008 8 6.5 0 .266-.02.527-.063.781a8.302 8.302 0 00-1.437-.125c-3.8 0-7.09 2.461-7.469 5.781-1.32-.132-2.531-.511-3.562-1.093l-.438-.219-.437.188-1.281.53.218-1.53.032-.438-.25-.313C6.473 16.023 6 14.806 6 13.5 6 10.008 9.48 7 14 7zm-3.438 2.156c-.777 0-1.406.63-1.406 1.406 0 .778.63 1.438 1.406 1.438.778 0 1.407-.66 1.407-1.438 0-.777-.63-1.406-1.406-1.406zm6.688 0c-.777 0-1.438.63-1.438 1.406 0 .778.66 1.438 1.438 1.438.777 0 1.406-.66 1.406-1.438 0-.777-.629-1.406-1.406-1.406zm3.25 7c3.14 0 5.5 2.094 5.5 4.438 0 .886-.32 1.691-.906 2.406l-.282.344.063.406.031.188-.468-.25-.5.343c-.934.606-2.125.969-3.438.969-3.14 0-5.5-2.063-5.5-4.406 0-2.344 2.36-4.438 5.5-4.438zM18 17.438c-.59 0-1.094.472-1.094 1.062 0 .59.504 1.063 1.094 1.063.586 0 1.063-.473 1.063-1.063S18.59 17.437 18 17.437zm5.031 0c-.586 0-1.062.472-1.062 1.062 0 .59.472 1.063 1.062 1.063.59 0 1.063-.473 1.063-1.063s-.473-1.063-1.063-1.063z"/></svg></svg>