<?xml version="1.0" encoding="utf-8"?><svg width="112" height="112" viewBox="0 0 112 112" xmlns="http://www.w3.org/2000/svg" xmlns:xlink="http://www.w3.org/1999/xlink"><svg viewBox="-2.67 -2.67 37.33 37.33" width="28" height="28" id="line-awesome-address-book" xmlns="http://www.w3.org/2000/svg"><path d="M6 4v5H5v2h3V6h16v20H8v-3H6v5h20V4zm10 6c-2.2 0-4 1.8-4 4 0 1.113.477 2.117 1.219 2.844A5.041 5.041 0 0011 21h2a3 3 0 016 0h2a5.041 5.041 0 00-2.219-4.156C19.523 16.117 20 15.114 20 14c0-2.2-1.8-4-4-4zM6 12v2H5v2h3v-4zm10 0c1.117 0 2 .883 2 2s-.883 2-2 2-2-.883-2-2 .883-2 2-2zM6 17v2H5v2h3v-4z"/></svg><svg viewBox="-2.67 -2.67 37.33 37.33" width="28" height="28" id="line-awesome-align-right-solid" x="28" xmlns="http://www.w3.org/2000/svg"><path d="M3 7v2h26V7zm8 4v2h18v-2zm-8 4v2h26v-2zm8 4v2h18v-2zm-8 4v2h26v-2z"/></svg><svg viewBox="-2.67 -2.67 37.33 37.33" width="28" height="28" id="line-awesome-app-store" y="28" xmlns="http://www.w3.org/2000/svg"><path d="M16 3C8.832 3 3 8.832 3 16s5.832 13 13 13 13-5.832 13-13S23.168 3 16 3zm0 2c6.086 0 11 4.914 11 11s-4.914 11-11 11S5 22.086 5 16 9.914 5 16 5zm-.031 3.25a.781.781 0 00-.25.094l-.5.281a.616.616 0 00-.219.844l4.281 7.344 1.563-.907-4.282-7.344c-.128-.218-.355-.343-.593-.312zm-1.313 2.438a.641.641 0 00-.625.312l-.531.938 1.625.937.531-.938a.616.616 0 00-.219-.843l-.562-.313c-.074-.043-.14-.082-.219-.094zm-1.281 1.468l-3.781 6.469 1.594.938 3.78-6.47zM8 15.094v1.812h2.281l1.063-1.812zm6.063 0l-1 1.812h5.843l-1-1.812zm6.687 0l.969 1.812h2.25v-1.812zm.281 1.125l-1.562.906.906 1.563 1.563-.907zm.813 1.968a.467.467 0 00-.157.063c-.253.145-.62.367-.843.5-.418.25-.094.996 0 1.156.543.91 1.11.793 1.531 1.438.23.351.145.508.219.625.027.043.12.082.156.031.652-.902.473-2.469 0-3.156-.191-.282-.54-.719-.906-.657zm-12.469.782l-.781 2.937a.151.151 0 00.062.157c.047.027.117.007.156-.032L11 19.906z"/></svg><svg viewBox="-2.67 -2.67 37.33 37.33" width="28" height="28" id="line-awesome-calendar-check-solid" x="28" y="28" xmlns="http://www.w3.org/2000/svg"><path d="M9 5v1H5v22h22V6h-4V5h-2v1H11V5zM7 8h2v1h2V8h10v1h2V8h2v2H7zm0 4h18v14H7zm13.281 2.281L15 19.562l-2.281-2.28-1.438 1.437 3 3 .719.687.719-.687 6-6z"/></svg><svg viewBox="-2.67 -2.67 37.33 37.33" width="28" height="28" id="line-awesome-cash-register-solid" x="56" xmlns="http://www.w3.org/2000/svg"><path d="M22 3v4c-1.848 0-3.613.332-5.266.91l-.527-1.148.902-.403-.812-1.828-3.652 1.625.812 1.828.922-.41.512 1.106a16.126 16.126 0 00-3.043 1.988l-.786-.836.727-.668-1.351-1.476-2.946 2.707 1.352 1.476.742-.684.805.848a15.929 15.929 0 00-2.446 3.395l-1.082-.535.45-.883-1.782-.907-1.812 3.567 1.781.906.457-.902 1.145.57A15.912 15.912 0 006.05 22H4v6h24V3zm2 2h2v17H8.05C8.563 14.727 14.595 9 22 9h2zm-6 6.953a2.001 2.001 0 00-1 3.735V20h5v-2h-3v-2.316a1.998 1.998 0 00-1-3.73zM6 24h20v2H6z"/></svg><svg viewBox="-2.67 -2.67 37.33 37.33" width="28" height="28" id="line-awesome-first-order-alt" x="56" y="28" xmlns="http://www.w3.org/2000/svg"><path d="M16 3C8.817 3 3 8.817 3 16s5.817 13 13 13 13-5.817 13-13S23.183 3 16 3zm0 1c6.63 0 12 5.37 12 12s-5.37 12-12 12S4 22.63 4 16 9.37 4 16 4zm0 1C9.926 5 5 9.926 5 16s4.926 11 11 11 11-4.926 11-11S22.074 5 16 5zm0 1c5.523 0 10 4.477 10 10s-4.477 10-10 10S6 21.523 6 16 10.477 6 16 6zm-.01 1c-.415 0-.821.029-1.228.086l.222 3.805-1.255-3.602a8.878 8.878 0 00-2.28.938l1.682 3.466-2.56-2.879a9.283 9.283 0 00-1.749 1.739l2.88 2.568-3.468-1.68a9.315 9.315 0 00-.947 2.27l3.643 1.275-3.844-.222A8.66 8.66 0 006.998 16c0 .415.03.822.078 1.227l3.844-.223-3.63 1.266c.202.802.522 1.564.937 2.279l3.466-1.682-2.879 2.56a9.334 9.334 0 001.748 1.749l2.56-2.88-1.68 3.468a8.87 8.87 0 002.279.947l1.265-3.65-.222 3.851a8.618 8.618 0 002.46-.002l-.22-3.87 1.273 3.669a9.325 9.325 0 002.27-.945l-1.68-3.467 2.559 2.867a8.703 8.703 0 001.738-1.738l-2.867-2.559 3.467 1.67a8.76 8.76 0 00.935-2.267l-3.63-1.266 3.833.223a8.617 8.617 0 00-.002-2.461l-3.841.22 3.64-1.263a9.232 9.232 0 00-.945-2.28l-3.469 1.68 2.88-2.559a8.973 8.973 0 00-1.74-1.738l-2.558 2.867 1.67-3.466a9.317 9.317 0 00-2.267-.938l-1.266 3.633.223-3.834A8.66 8.66 0 0015.99 7z"/></svg><svg viewBox="-2.67 -2.67 37.33 37.33" width="28" height="28" id="line-awesome-helicopter-solid" y="56" xmlns="http://www.w3.org/2000/svg"><path d="M18 6v4.063c-1.848.16-3.258.722-4.219 1.406a5.466 5.466 0 00-1.25 1.25c-.066.09-.07.199-.125.281H5.812C5.396 11.844 4.293 11 3 11c-1.645 0-3 1.355-3 3s1.355 3 3 3c1.293 0 2.395-.844 2.813-2H14v-.844a.8.8 0 01.125-.281c.152-.21.422-.504.813-.781C15.723 12.535 17.015 12 19 12c.45 0 .91.156 1.375.219-.523.847-.688 1.926-.688 3.562 0 .73.25 1.465.782 2 .531.535 1.304.844 2.156.844 2.016 0 3.348-.074 4.344-.25.086-.016.105-.074.187-.094-.043.074-.039.215-.093.282-.27.343-.672.62-1.25.843-1.157.45-2.91.594-4.657.594H16.22A2.212 2.212 0 0114 17.781V16h-2v1.781C12 20.094 13.906 22 16.219 22h4.937c1.828 0 3.75-.09 5.375-.719.813-.316 1.574-.797 2.125-1.5.551-.703.844-1.617.844-2.656 0-2.172-1.566-3.934-3.563-5.156-.761-.465-1.652-.781-2.53-1.094-1.106-.395-2.25-.695-3.407-.813V6zM7 7v2h10V7zm14 0v2h10V7zm2.063 5.906c.625.242 1.277.457 1.812.781 1.223.747 1.922 1.618 2.281 2.5-.156.07-.164.153-.531.22-.754.132-2.027.218-4 .218-.414 0-.621-.117-.75-.25s-.188-.32-.188-.594c0-1.703.223-2.472.375-2.656.075-.094.145-.137.344-.188.13-.035.41-.019.657-.03zM3 13c.563 0 1 .438 1 1 0 .563-.438 1-1 1-.563 0-1-.438-1-1 0-.563.438-1 1-1zm25 9c0 .566-.434 1-1 1H11v2h16c1.645 0 3-1.355 3-3z"/></svg><svg viewBox="-2.67 -2.67 37.33 37.33" width="28" height="28" id="line-awesome-image" x="28" y="56" xmlns="http://www.w3.org/2000/svg"><path d="M2 5v22h28V5zm2 2h24v13.906l-5.281-5.312-.719-.719-4.531 4.531-5.75-5.812-.719-.719-7 7zm20 2a1.999 1.999 0 100 4 1.999 1.999 0 100-4zm-13 6.719L20.188 25H4v-2.281zm11 2l6 6V25h-4.969l-4.156-4.188z"/></svg><svg viewBox="-2.67 -2.67 37.33 37.33" width="28" height="28" id="line-awesome-jira" x="56" y="56" xmlns="http://www.w3.org/2000/svg"><path d="M16.021 2.2L3.581 14.601a1.989 1.989 0 000 2.802l12.44 12.397.708-.703c3.639-3.625 5.865-5.845 7.181-7.16l1.356-1.358a5.35 5.35 0 00.248-.26l.078-.074-.006-.008.062-.078 2.764-2.758c.38-.374.588-.871.588-1.402 0-.53-.208-1.026-.586-1.4-1.663-1.66-3.58-3.583-5.508-5.516-2.16-2.166-4.333-4.346-6.177-6.182L16.02 2.2zm0 2.823c1.68 1.676 3.58 3.58 5.47 5.473 1.922 1.928 3.834 3.845 5.495 5.502-1.354 1.35-2.308 2.302-2.96 2.99-.125.113-.251.238-.381.366-.224.22-.444.432-.493.478l.018.02a8884.036 8884.036 0 01-7.147 7.125L4.993 16.016 16.02 5.023zm0 5.903L10.928 16l5.093 5.074L21.117 16l-5.096-5.074zm0 2.822L18.283 16l-2.262 2.252L13.761 16l2.26-2.252z"/></svg><svg viewBox="-2.67 -2.67 37.33 37.33" width="28" height="28" id="line-awesome-lock-open-solid" x="84" xmlns="http://www.w3.org/2000/svg"><path d="M16 3c-3.035 0-5.586 1.965-6.625 4.625l1.844.75C11.977 6.434 13.836 5 16 5c2.754 0 5 2.246 5 5v3H6v16h20V13h-3v-3c0-3.844-3.156-7-7-7zM8 15h16v12H8z"/></svg><svg viewBox="-2.67 -2.67 37.33 37.33" width="28" height="28" id="line-awesome-medium" x="84" y="28" xmlns="http://www.w3.org/2000/svg"><path d="M26 10.36h-.79c-.296 0-.71.425-.71.699v9.933c0 .278.414.649.71.649H26V24h-7.168v-2.36h1.5V11.2h-.07L16.758 24h-2.711l-3.461-12.8H10.5v10.44H12V24H6v-2.36h.77c.316 0 .73-.37.73-.648V11.06c0-.274-.414-.7-.73-.7H6V8h7.504l2.46 9.262h.071L18.52 8H26z"/></svg><svg viewBox="-2.67 -2.67 37.33 37.33" width="28" height="28" id="line-awesome-opera" x="84" y="56" xmlns="http://www.w3.org/2000/svg"><path d="M15.969 4C9.672 4 5 8.945 5 15.906 5 22.191 9.46 28 15.969 28 22.527 28 27 22.191 27 15.906 27 8.883 22.21 4 15.969 4zm0 2C21.21 6 25 9.754 25 15.906 25 21.262 21.344 26 15.969 26 10.652 26 7 21.262 7 15.906 7 9.793 10.676 6 15.969 6zm0 .313c-1.043 0-1.996.406-2.656 1.062-.66.656-1.079 1.492-1.376 2.406-.597 1.832-.718 4.016-.718 5.938 0 1.761.066 4.008.625 5.937.277.965.672 1.88 1.344 2.594a3.822 3.822 0 002.78 1.188 3.844 3.844 0 002.782-1.188c.684-.71 1.09-1.629 1.375-2.594.574-1.93.656-4.156.656-5.937 0-2.067-.16-4.227-.781-6.031-.313-.903-.734-1.747-1.406-2.376-.672-.628-1.598-1-2.625-1zm0 2c.57 0 .906.148 1.25.468.343.32.664.832.906 1.531.484 1.403.656 3.442.656 5.407 0 1.719-.105 3.828-.562 5.375-.23.773-.547 1.406-.907 1.781-.359.375-.718.563-1.343.563-.61 0-.961-.188-1.313-.563-.351-.375-.683-1.004-.906-1.781-.45-1.555-.531-3.668-.531-5.375 0-1.828.156-3.867.625-5.313.234-.722.566-1.258.906-1.594.34-.335.664-.5 1.219-.5z"/></svg><svg viewBox="-2.67 -2.67 37.33 37.33" width="28" height="28" id="line-awesome-optin-monster" y="84" xmlns="http://www.w3.org/2000/svg"><path d="M16.844 3.25C14.738 3.25 14 5.031 14 5.031s1.055-.656 2.406-.656c2.317 0 3.719 1.813 3.719 1.813s-.066-2.938-3.281-2.938zm-1.969 2.281c-3.105 0-4.719.5-4.719.5s1.617.262 2.781.782c-4.332.605-6.406 3.218-6.406 3.218s1.606-.281 2.188-.219a6.4 6.4 0 00-1.313 1c-.062 0-.133.004-.187 0-.7-.062-.98-.023-1.032-.718C6.138 9.398 6.02 9 5.375 9s-1.563 1.414-1.563 2.844c0 1.625.372 3.031 3.22 3.125-.005.031 0 .125 0 .125s.956.058 1.218.625c.121.035.227.105.344.187L7.78 16c-.261-.324-.625-.375-.968-.375-.028-.172-.262-.531-.594-.531-.57 0-.844.812-.844.812s-1.25.375-1.25 1.719c0 1.55 1.387 2.313 2.281 2.313v1.03c-.242-.214-.48-.343-.687-.343-.211 0-.43.031-.625.063-.098-.106-.282-.282-.5-.282-.278 0-.336.332-.344.532-.29.12-.574.261-.813.437a.722.722 0 00-.312-.094c-.172 0-.188.176-.188.282 0 .05-.015.148 0 .25a3.657 3.657 0 00-.5.687 1.075 1.075 0 00-.28-.063c-.122 0-.157.04-.157.125 0 .063.07.336.156.532-.066.207-.094.41-.094.593 0 1.153 1.829 3.063 3.688 3.063.21 0 1.406-.203 1.906-1.156.11.004 5.614.156 8.219.156 2.594 0 8.273-.184 8.438-.188.492.977 1.722 1.188 1.937 1.188 1.86 0 3.688-1.91 3.688-3.063 0-.183-.028-.355-.094-.562.086-.195.156-.5.156-.563 0-.085-.035-.125-.156-.125-.074 0-.203.036-.282.063a3.657 3.657 0 00-.5-.688c.016-.101 0-.199 0-.25 0-.105-.015-.28-.187-.28a.722.722 0 00-.313.093 3.943 3.943 0 00-.812-.438c-.008-.199-.066-.53-.344-.53-.218 0-.402.175-.5.28-.195-.03-.414-.03-.625-.03-.207 0-.445.097-.687.312v-1.032c.894 0 2.281-.761 2.281-2.312 0-1.344-1.25-1.719-1.25-1.719s-.273-.812-.844-.812c-.332 0-.566.36-.593.531-.356 0-.739.047-1 .406-.168-.015-.489-.058-.875-.093.128-.086.265-.16.437-.22.367-.558 1.219-.593 1.219-.593v-.156c2.933-.067 3.281-1.512 3.281-3.156 0-1.426-.887-2.813-1.531-2.813-.645 0-.793.367-.844 1.063-.05.695-.332.687-1.031.75-.25.023-.563-.008-.782-.032-1.125-2.543-3.62-5.25-9.187-5.25zm1.188 1a3.718 3.718 0 013.718 3.719 3.718 3.718 0 01-3.718 3.719c-2.055 0-3.75-1.664-3.75-3.719 0-2.055 1.695-3.719 3.75-3.719zm.062 2.563c-.344 0-.672.043-.969.156.446.164.75.586.75 1.063 0 .62-.523 1.124-1.187 1.124-.45 0-.856-.218-1.063-.562a2 2 0 00-.062.531c0 1.29 1.136 2.344 2.531 2.344 1.395 0 2.531-1.055 2.531-2.344s-1.136-2.312-2.531-2.312zm-10.656.594c.234 0 .238.445.25.593.011.149.093.375.093.375-1.113.555-1.34 1.453-1.5 1.781 0-2.316.922-2.75 1.157-2.75zm21.125.03c.234 0 1.187.407 1.187 2.72-.16-.329-.418-1.231-1.531-1.782 0 0 .082-.226.094-.375.011-.148.015-.562.25-.562zM6.03 11c.117.098.223.25.657.281 0 0-.657.95-.657 2 0 1.051.094 1.063.094 1.063s-1.254-.196-1.563-.938c.075-1.113.536-2.078 1.47-2.406zm20.032 0c.933.328 1.363 1.293 1.437 2.406-.309.742-1.563.938-1.563.938s.094-.012.094-1.063c0-1.05-.656-2-.656-2 .434-.031.57-.187.688-.281zm-1.782.344h.625s.75.922.75 1.812-.093 1.281-.093 1.281l-.625.032a10.963 10.963 0 00-.657-3.125zm-16.406.094l-.094.5L7.75 12c-.367.875-.566 1.844-.656 2.469l-.563-.031s-.125-.391-.125-1.282c0-.566.274-1.062.5-1.406.32-.125.664-.227.969-.313zm9.875 3.5c.46 0 1.313.03 1.313.03s.062.493.062 1c0 .282-.012.563-.031.72-.028.203-.035.406-.5.406-.555 0-.477.062-.844.062s-1.32.004-1.375-.5c-.063-.554-.125-1.687-.125-1.687s1.04-.031 1.5-.031zm-2.188.03s.094.79.094 1.532.012.102-.031.719c-.023.332.133.5-1.375.5-1.563 0-1.563-.09-1.563-1.282 0-1.19.094-1.437.094-1.437s2.559 0 2.781-.031zm4.188 0s1.79.067 1.938.095c0 .546-.329 2.812-1.344 2.812-.352 0-.36-1.188-.407-1.688-.054-.597-.187-1.218-.187-1.218zM12.125 15L12 16.688c-.02.265-.094.789-.094.843 0 .055-.058.313-.25.313-.215 0-1.406-.383-1.406-2.063 0-.308.063-.687.063-.687zm-2.344 1.469c.301 1.351 1.48 1.937 1.938 1.937.48 0 .554-.46.594-.718.3.523 1.164.562 1.75.562 2.207 0 2.18-.527 2.218-.75 0 0 .344.219 1.313.219 1.918 0 2.031-.469 2.031-.469s.191 1.219.75 1.219c1.207 0 1.75-1.969 1.75-1.969.094.004.234.016.5.031h.125c.254.016.488.04.688.063-.028.058-.063.105-.063.156 0 .254.406.438.406.438s-.12.093-.218.218c-.57.524-1.52 1.418-2.282 2.063a14.663 14.663 0 01-5.468 2.937c-.258-.054-3.016-1.172-4.626-2.468a35.398 35.398 0 01-2.656-2.375c-.101-.215-.312-.375-.312-.375s.406-.184.406-.438c0-.05-.035-.098-.063-.156zm13.875 1.781c.18.133.375.188.375.188l.032.156s-.282.097-.282.375c0 .37.75.5.75.5s.098.18.344.312v2.094c-.41.688-.7 1.594-.75 2.563-1.555-1.079-4.828-2.176-5.531-2.407a17.87 17.87 0 002.468-1.531c.981-.727 1.926-1.617 2.594-2.25zm-15.343.031c.43.399 1.703 1.559 2.5 2.219.507.422 1.433.992 2.374 1.5-2.617.828-5.054 2.254-5.312 2.406a5.702 5.702 0 00-.75-2.531v-2.094c.246-.133.344-.312.344-.312s.75-.13.75-.5c0-.278-.281-.375-.281-.375l.03-.157s.177-.042.345-.156zm-2.626 3.657c1.239 0 1.907 2.347 1.907 2.875 0 1.019-1.133 1.625-1.907 1.625-1.152 0-2.937-1.387-2.937-1.907 0-1.246 1.625-2.593 2.938-2.593zm20.625 0c1.313 0 2.938 1.347 2.938 2.593 0 .52-1.785 1.907-2.938 1.907-.773 0-1.906-.606-1.906-1.625 0-.528.668-2.875 1.907-2.875zm-20.593.406c-.7 0-2.5 1.226-2.5 2.093 0 .754.984.813 1.125.813.492 0 2.281-.832 2.281-1.813 0-.218-.207-1.093-.906-1.093zm12.218 0c.375.136 2.09.765 2.907 1.125.906.398 2.687 1.468 2.687 1.468s-4.289.157-7.531.157-7.469-.188-7.469-.188c1.813-1.215 5.344-2.445 5.5-2.5.735.36 1.43.684 1.813.75a15.286 15.286 0 002.094-.812zm8.344 0c-.699 0-.906.875-.906 1.093 0 .981 1.79 1.813 2.281 1.813.14 0 1.125-.059 1.125-.813 0-.867-1.8-2.093-2.5-2.093zM6.813 24.375c-.368 0-1.5.777-1.5 1.219 0 .441.578.5.75.5.171 0 1.156-.383 1.156-1.063 0 0-.04-.656-.407-.656zm18.375 0c-.368 0-.407.656-.407.656 0 .68.985 1.063 1.157 1.063.171 0 .75-.059.75-.5 0-.442-1.133-1.219-1.5-1.219z"/></svg><svg viewBox="-2.67 -2.67 37.33 37.33" width="28" height="28" id="line-awesome-phone-alt-solid" x="28" y="84" xmlns="http://www.w3.org/2000/svg"><path d="M22.625 3.031a3.41 3.41 0 00-.969.25V3.25c-.015.004-.047.027-.062.031-2.434.856-7.094 3-11.313 7.219-4.25 4.25-6.3 8.996-7.219 11.344v.031a3.59 3.59 0 00.688 3.469l.031.031v.031l3 2.969.125.125c.828.828 2.266.828 3.094 0l4.094-4.094c.828-.828.828-2.297 0-3.125l-1.969-1.968c.344-.715 1.234-2.473 2.813-4.125C16.503 13.546 18.3 12.71 19 12.405l2.063 2.063.093.062c.469.313 1.004.489 1.563.469.523-.02 1.066-.277 1.468-.719l.032.031.062-.093 4.032-4c.828-.828.828-2.297 0-3.125L25.218 4a3.438 3.438 0 00-1.657-.906 3.006 3.006 0 00-.937-.063zm.156 2c.38-.027.758.133 1 .375L26.906 8.5c.172.172.172.11 0 .281L22.72 12.97c.004-.004 0 .027-.094.031-.078.004-.195-.063-.313-.125h-.062L19.906 10.5l-.468-.469-.594.219s-3.074 1.148-5.375 3.563c-2.262 2.367-3.5 5.28-3.5 5.28l-.25.626.469.5 2.5 2.5c.171.172.171.11 0 .281l-4.094 4.094c-.172.172-.11.172-.281 0L5.25 24.062c-.008-.007.008-.023 0-.03L5.219 24c-.348-.434-.453-.895-.282-1.438.004-.011-.003-.019 0-.03.887-2.259 2.84-6.684 6.782-10.626 3.957-3.957 8.445-5.992 10.625-6.75l.031-.031h.031c.121-.055.25-.086.375-.094z"/></svg><svg viewBox="-2.67 -2.67 37.33 37.33" width="28" height="28" id="line-awesome-sad-cry-solid" x="56" y="84" xmlns="http://www.w3.org/2000/svg"><path d="M16 3C8.832 3 3 8.832 3 16s5.832 13 13 13 13-5.832 13-13S23.168 3 16 3zm0 2c6.065 0 11 4.935 11 11 0 3.408-1.56 6.457-4 8.477V16a1 1 0 10-2 0v9.785A10.917 10.917 0 0116 27c-1.801 0-3.498-.444-5-1.215V16a1 1 0 10-2 0v8.477c-2.44-2.02-4-5.07-4-8.477C5 9.935 9.935 5 16 5zm-4 5c-1.24 0-2.18.69-2.81 1.28-.64.59-1.03 1.16-1.03 1.16l1.68 1.12s.25-.43.69-.84c.44-.41 1.02-.72 1.47-.72h3v-2h-3zm5 0v2h3c.45 0 1.03.31 1.47.72.44.41.69.84.69.84l1.68-1.12s-.39-.57-1.03-1.16C22.18 10.69 21.24 10 20 10h-3zm-1 6c-1.654 0-3 1.57-3 3.5s1.346 3.5 3 3.5 3-1.57 3-3.5-1.346-3.5-3-3.5zm0 2c.532 0 1 .701 1 1.5s-.468 1.5-1 1.5-1-.701-1-1.5.468-1.5 1-1.5z"/></svg><svg viewBox="-2.67 -2.67 37.33 37.33" width="28" height="28" id="line-awesome-star-solid" x="84" y="84" xmlns="http://www.w3.org/2000/svg"><path d="M30.336 12.547l-10.172-1.074L16 2.133l-4.164 9.34-10.172 1.074 7.598 6.848L7.14 29.398 16 24.29l8.86 5.11-2.122-10.004z"/></svg></svg>