<?xml version="1.0" encoding="utf-8"?><svg width="112" height="112" viewBox="0 0 112 112" xmlns="http://www.w3.org/2000/svg" xmlns:xlink="http://www.w3.org/1999/xlink"><svg width="28" height="28" viewBox="-2 -2 28 28" id="material-design-iconic-font-assignment-late" xmlns="http://www.w3.org/2000/svg"><path d="M19 3h-4.18C14.4 1.84 13.3 1 12 1c-1.3 0-2.4.84-2.82 2H5c-1.1 0-2 .9-2 2v14c0 1.1.9 2 2 2h14c1.1 0 2-.9 2-2V5c0-1.1-.9-2-2-2zm-6 15h-2v-2h2v2zm0-4h-2V8h2v6zm-1-9c-.55 0-1-.45-1-1s.45-1 1-1 1 .45 1 1-.45 1-1 1z"/></svg><svg width="28" height="28" viewBox="-2 -2 28 28" id="material-design-iconic-font-comments" x="28" xmlns="http://www.w3.org/2000/svg"><path d="M21 6h-2v9H6v2c0 .55.45 1 1 1h11l4 4V7c0-.55-.45-1-1-1zm-4 6V3c0-.55-.45-1-1-1H3c-.55 0-1 .45-1 1v14l4-4h10c.55 0 1-.45 1-1z"/></svg><svg width="28" height="28" viewBox="-2 -2 28 28" id="material-design-iconic-font-device-hub" y="28" xmlns="http://www.w3.org/2000/svg"><path d="M17 16l-4-4V8.82C14.16 8.4 15 7.3 15 6c0-1.66-1.34-3-3-3S9 4.34 9 6c0 1.3.84 2.4 2 2.82V12l-4 4H3v5h5v-3.05l4-4.2 4 4.2V21h5v-5h-4z"/></svg><svg width="28" height="28" viewBox="-2 -2 28 28" id="material-design-iconic-font-format-align-right" x="28" y="28" xmlns="http://www.w3.org/2000/svg"><path d="M3 21h18v-2H3v2zm6-4h12v-2H9v2zm-6-4h18v-2H3v2zm6-4h12V7H9v2zM3 3v2h18V3H3z"/></svg><svg width="28" height="28" viewBox="-2 -2 28 28" id="material-design-iconic-font-keyboard-arrow-left" x="56" xmlns="http://www.w3.org/2000/svg"><path d="M15.41 16.09l-4.58-4.59 4.58-4.59L14 5.5l-6 6 6 6z"/></svg><svg width="28" height="28" viewBox="-2 -2 28 28" id="material-design-iconic-font-location-city" x="56" y="28" xmlns="http://www.w3.org/2000/svg"><path d="M15 11V5l-3-3-3 3v2H3v14h18V11h-6zm-8 8H5v-2h2v2zm0-4H5v-2h2v2zm0-4H5V9h2v2zm6 8h-2v-2h2v2zm0-4h-2v-2h2v2zm0-4h-2V9h2v2zm0-4h-2V5h2v2zm6 12h-2v-2h2v2zm0-4h-2v-2h2v2z"/></svg><svg width="28" height="28" viewBox="-2 -2 28 28" id="material-design-iconic-font-navigation" y="56" xmlns="http://www.w3.org/2000/svg"><path d="M12 2L4.5 20.29l.71.71L12 18l6.79 3 .71-.71z"/></svg><svg width="28" height="28" viewBox="-2 -2 28 28" id="material-design-iconic-font-phone-msg" x="28" y="56" xmlns="http://www.w3.org/2000/svg"><path d="M20 15.5c-1.25 0-2.45-.2-3.57-.57a1.02 1.02 0 00-1.02.24l-2.2 2.2a15.074 15.074 0 01-6.59-6.58l2.2-2.21c.28-.27.36-.66.25-1.01A11.36 11.36 0 018.5 4c0-.55-.45-1-1-1H4c-.55 0-1 .45-1 1 0 9.39 7.61 17 17 17 .55 0 1-.45 1-1v-3.5c0-.55-.45-1-1-1zM12 3v10l3-3h6V3h-9z"/></svg><svg width="28" height="28" viewBox="-2 -2 28 28" id="material-design-iconic-font-phonelink-lock" x="56" y="56" xmlns="http://www.w3.org/2000/svg"><path d="M19 1H9c-1.1 0-2 .9-2 2v3h2V4h10v16H9v-2H7v3c0 1.1.9 2 2 2h10c1.1 0 2-.9 2-2V3c0-1.1-.9-2-2-2zm-8.2 10V9.5C10.8 8.1 9.4 7 8 7S5.2 8.1 5.2 9.5V11c-.6 0-1.2.6-1.2 1.2v3.5c0 .7.6 1.3 1.2 1.3h5.5c.7 0 1.3-.6 1.3-1.2v-3.5c0-.7-.6-1.3-1.2-1.3zm-1.3 0h-3V9.5c0-.8.7-1.3 1.5-1.3s1.5.5 1.5 1.3V11z"/></svg><svg width="28" height="28" viewBox="-2 -2 28 28" id="material-design-iconic-font-replay-30" x="84" xmlns="http://www.w3.org/2000/svg"><defs><path id="aaja" d="M0 0h24v24H0V0z"/></defs><clipPath id="aajb"><use xlink:href="#aaja" overflow="visible"/></clipPath><path d="M12 5V1L7 6l5 5V7c3.3 0 6 2.7 6 6s-2.7 6-6 6-6-2.7-6-6H4c0 4.4 3.6 8 8 8s8-3.6 8-8-3.6-8-8-8zm-2.4 8.5h.4c.2 0 .4-.1.5-.2s.2-.2.2-.4v-.2s-.1-.1-.1-.2-.1-.1-.2-.1h-.5s-.1.1-.2.1-.1.1-.1.2v.2h-1c0-.2 0-.3.1-.5s.2-.3.3-.4.3-.2.4-.2.4-.1.5-.1c.2 0 .4 0 .6.1s.3.1.5.2.2.2.3.4.1.3.1.5v.3s-.1.2-.1.3-.1.2-.2.2-.2.1-.3.2c.2.1.4.2.5.4s.2.4.2.6c0 .2 0 .4-.1.5s-.2.3-.3.4-.3.2-.5.2-.4.1-.6.1c-.2 0-.4 0-.5-.1s-.3-.1-.5-.2-.2-.2-.3-.4-.1-.4-.1-.6h.8v.2s.1.1.1.2.1.1.2.1h.5s.1-.1.2-.1.1-.1.1-.2v-.5s-.1-.1-.1-.2-.1-.1-.2-.1h-.6v-.7zm5.7.7c0 .3 0 .6-.1.8l-.3.6s-.3.3-.5.3-.4.1-.6.1-.4 0-.6-.1-.3-.2-.5-.3-.2-.3-.3-.6-.1-.5-.1-.8v-.7c0-.3 0-.6.1-.8l.3-.6s.3-.3.5-.3.4-.1.6-.1.4 0 .6.1.3.2.5.3.2.3.3.6.1.5.1.8v.7zm-.8-.8v-.5c0-.1-.1-.2-.1-.3s-.1-.1-.2-.2-.2-.1-.3-.1-.2 0-.3.1l-.2.2s-.1.2-.1.3v2s.1.2.1.3.1.1.2.2.2.1.3.1.2 0 .3-.1l.2-.2s.1-.2.1-.3v-1.5z" clip-path="url(#aajb)"/></svg><svg width="28" height="28" viewBox="-2 -2 28 28" id="material-design-iconic-font-router" x="84" y="28" xmlns="http://www.w3.org/2000/svg"><path d="M20.2 5.9l.8-.8C19.6 3.7 17.8 3 16 3s-3.6.7-5 2.1l.8.8C13 4.8 14.5 4.2 16 4.2s3 .6 4.2 1.7zm-.9.8c-.9-.9-2.1-1.4-3.3-1.4s-2.4.5-3.3 1.4l.8.8c.7-.7 1.6-1 2.5-1 .9 0 1.8.3 2.5 1l.8-.8zM19 13h-2V9h-2v4H5c-1.1 0-2 .9-2 2v4c0 1.1.9 2 2 2h14c1.1 0 2-.9 2-2v-4c0-1.1-.9-2-2-2zM8 18H6v-2h2v2zm3.5 0h-2v-2h2v2zm3.5 0h-2v-2h2v2z"/></svg><svg width="28" height="28" viewBox="-2 -2 28 28" id="material-design-iconic-font-sd-card" x="84" y="56" xmlns="http://www.w3.org/2000/svg"><path d="M18 2h-8L4.02 8 4 20c0 1.1.9 2 2 2h12c1.1 0 2-.9 2-2V4c0-1.1-.9-2-2-2zm-6 6h-2V4h2v4zm3 0h-2V4h2v4zm3 0h-2V4h2v4z"/></svg><svg width="28" height="28" viewBox="-2 -2 28 28" id="material-design-iconic-font-signal-cellular-1-bar" y="84" xmlns="http://www.w3.org/2000/svg"><path fill-opacity=".3" d="M2 22h20V2z"/><path d="M12 12L2 22h10z"/></svg><svg width="28" height="28" viewBox="-2 -2 28 28" id="material-design-iconic-font-smartphone-landscape-lock" x="28" y="84" xmlns="http://www.w3.org/2000/svg"><path d="M21 5H3c-1.1 0-2 .9-2 2v10c0 1.1.9 2 2 2h18c1.1 0 2-.9 2-2V7c0-1.1-.9-2-2-2zm-2 12H5V7h14v10zm-9-1h4c.55 0 1-.45 1-1v-3c0-.55-.45-1-1-1v-1a2 2 0 10-4 0v1c-.55 0-1 .45-1 1v3c0 .55.45 1 1 1zm.8-6c0-.66.54-1.2 1.2-1.2.66 0 1.2.54 1.2 1.2v1h-2.4v-1z"/></svg><svg width="28" height="28" viewBox="-2 -2 28 28" id="material-design-iconic-font-timer-off" x="56" y="84" xmlns="http://www.w3.org/2000/svg"><path d="M19.04 4.55l-1.42 1.42a9.012 9.012 0 00-10.57-.49l1.46 1.46C9.53 6.35 10.73 6 12 6c3.87 0 7 3.13 7 7 0 1.27-.35 2.47-.94 3.49l1.45 1.45A8.878 8.878 0 0021 13c0-2.12-.74-4.07-1.97-5.61l1.42-1.42-1.41-1.42zM15 1H9v2h6V1zm-4 8.44l2 2V8h-2v1.44zM3.02 4L1.75 5.27 4.5 8.03A8.905 8.905 0 003 13c0 4.97 4.02 9 9 9 1.84 0 3.55-.55 4.98-1.5l2.5 2.5 1.27-1.27-7.71-7.71L3.02 4zM12 20c-3.87 0-7-3.13-7-7 0-1.28.35-2.48.95-3.52l9.56 9.56c-1.03.61-2.23.96-3.51.96z"/></svg><svg width="28" height="28" viewBox="-2 -2 28 28" id="material-design-iconic-font-wifi-info" x="84" y="84" xmlns="http://www.w3.org/2000/svg"><path d="M12 3C6.95 3 3.15 4.85 0 7.23L12 22 24 7.25C20.85 4.87 17.05 3 12 3zm1 13h-2v-6h2v6zm-2-8V6h2v2h-2z"/></svg></svg>