<?xml version="1.0" encoding="utf-8"?><svg width="112" height="112" viewBox="0 0 112 112" xmlns="http://www.w3.org/2000/svg" xmlns:xlink="http://www.w3.org/1999/xlink"><svg width="28" height="28" viewBox="-2 -2 28 28" id="material-design-iconic-font-account-box-o" xmlns="http://www.w3.org/2000/svg"><path d="M12 12.25c1.24 0 2.25-1.01 2.25-2.25S13.24 7.75 12 7.75 9.75 8.76 9.75 10s1.01 2.25 2.25 2.25zm4.5 4c0-1.5-3-2.25-4.5-2.25s-4.5.75-4.5 2.25V17h9v-.75zM19 3H5c-1.1 0-2 .9-2 2v14c0 1.1.9 2 2 2h14c1.1 0 2-.9 2-2V5c0-1.1-.9-2-2-2zm0 16H5V5h14v14z"/></svg><svg width="28" height="28" viewBox="-2 -2 28 28" id="material-design-iconic-font-arrow-left-bottom" x="28" xmlns="http://www.w3.org/2000/svg"><path d="M20 5.41L18.59 4 7 15.59V9H5v10h10v-2H8.41z"/></svg><svg width="28" height="28" viewBox="-2 -2 28 28" id="material-design-iconic-font-brightness-6" y="28" xmlns="http://www.w3.org/2000/svg"><path d="M20 15.31L23.31 12 20 8.69V4h-4.69L12 .69 8.69 4H4v4.69L.69 12 4 15.31V20h4.69L12 23.31 15.31 20H20v-4.69zM12 18V6c3.31 0 6 2.69 6 6s-2.69 6-6 6z"/></svg><svg width="28" height="28" viewBox="-2 -2 28 28" id="material-design-iconic-font-case" x="28" y="28" xmlns="http://www.w3.org/2000/svg"><path d="M20 6h-4V4c0-1.11-.89-2-2-2h-4c-1.11 0-2 .89-2 2v2H4c-1.11 0-1.99.89-1.99 2L2 19c0 1.11.89 2 2 2h16c1.11 0 2-.89 2-2V8c0-1.11-.89-2-2-2zm-6 0h-4V4h4v2z"/></svg><svg width="28" height="28" viewBox="-2 -2 28 28" id="material-design-iconic-font-comment-alt" x="56" xmlns="http://www.w3.org/2000/svg"><path d="M21.99 4c0-1.1-.89-2-1.99-2H4c-1.1 0-2 .9-2 2v12c0 1.1.9 2 2 2h14l4 4-.01-18z"/></svg><svg width="28" height="28" viewBox="-2 -2 28 28" id="material-design-iconic-font-content-paste" x="56" y="28" xmlns="http://www.w3.org/2000/svg"><path d="M19 2h-4.18C14.4.84 13.3 0 12 0c-1.3 0-2.4.84-2.82 2H5c-1.1 0-2 .9-2 2v16c0 1.1.9 2 2 2h14c1.1 0 2-.9 2-2V4c0-1.1-.9-2-2-2zm-7 0c.55 0 1 .45 1 1s-.45 1-1 1-1-.45-1-1 .45-1 1-1zm7 18H5V4h2v3h10V4h2v16z"/></svg><svg width="28" height="28" viewBox="-2 -2 28 28" id="material-design-iconic-font-exposure-plus-2" y="56" xmlns="http://www.w3.org/2000/svg"><path d="M16.05 16.29l2.86-3.07c.38-.39.72-.79 1.04-1.18.32-.39.59-.78.82-1.17.23-.39.41-.78.54-1.17.13-.39.19-.79.19-1.18 0-.53-.09-1.02-.27-1.46-.18-.44-.44-.81-.78-1.11-.34-.31-.77-.54-1.26-.71A5.72 5.72 0 0017.47 5c-.69 0-1.31.11-1.85.32-.54.21-1 .51-1.36.88-.37.37-.65.8-.84 1.3-.18.47-.27.97-.28 1.5h2.14c.01-.31.05-.6.13-.87.09-.29.23-.54.4-.75.18-.21.41-.37.68-.49.27-.12.6-.18.96-.18.31 0 .58.05.81.15.23.1.43.25.59.43.16.18.28.4.37.65.08.25.13.52.13.81 0 .22-.03.43-.08.65-.06.22-.15.45-.29.7-.14.25-.32.53-.56.83-.23.3-.52.65-.88 1.03l-4.17 4.55V18H22v-1.71h-5.95zM8 7H6v4H2v2h4v4h2v-4h4v-2H8V7z"/></svg><svg width="28" height="28" viewBox="-2 -2 28 28" id="material-design-iconic-font-format-align-right" x="28" y="56" xmlns="http://www.w3.org/2000/svg"><path d="M3 21h18v-2H3v2zm6-4h12v-2H9v2zm-6-4h18v-2H3v2zm6-4h12V7H9v2zM3 3v2h18V3H3z"/></svg><svg width="28" height="28" viewBox="-2 -2 28 28" id="material-design-iconic-font-label-alt" x="56" y="56" xmlns="http://www.w3.org/2000/svg"><path d="M17.63 5.84C17.27 5.33 16.67 5 16 5L5 5.01C3.9 5.01 3 5.9 3 7v10c0 1.1.9 1.99 2 1.99L16 19c.67 0 1.27-.33 1.63-.84L22 12l-4.37-6.16z"/></svg><svg width="28" height="28" viewBox="-2 -2 28 28" id="material-design-iconic-font-laptop-mac" x="84" xmlns="http://www.w3.org/2000/svg"><path d="M20 18c1.1 0 1.99-.9 1.99-2L22 5c0-1.1-.9-2-2-2H4c-1.1 0-2 .9-2 2v11c0 1.1.9 2 2 2H0c0 1.1.9 2 2 2h20c1.1 0 2-.9 2-2h-4zM4 5h16v11H4V5zm8 14c-.55 0-1-.45-1-1s.45-1 1-1 1 .45 1 1-.45 1-1 1z"/></svg><svg width="28" height="28" viewBox="-2 -2 28 28" id="material-design-iconic-font-minus-circle" x="84" y="28" xmlns="http://www.w3.org/2000/svg"><path d="M12 2C6.48 2 2 6.48 2 12s4.48 10 10 10 10-4.48 10-10S17.52 2 12 2zm5 11H7v-2h10v2z"/></svg><svg width="28" height="28" viewBox="-2 -2 28 28" id="material-design-iconic-font-phone-setting" x="84" y="56" xmlns="http://www.w3.org/2000/svg"><path d="M13 9h-2v2h2V9zm4 0h-2v2h2V9zm3 6.5c-1.25 0-2.45-.2-3.57-.57a1.02 1.02 0 00-1.02.24l-2.2 2.2a15.074 15.074 0 01-6.59-6.58l2.2-2.21c.28-.27.36-.66.25-1.01A11.36 11.36 0 018.5 4c0-.55-.45-1-1-1H4c-.55 0-1 .45-1 1 0 9.39 7.61 17 17 17 .55 0 1-.45 1-1v-3.5c0-.55-.45-1-1-1zM19 9v2h2V9h-2z"/></svg><svg width="28" height="28" viewBox="-2 -2 28 28" id="material-design-iconic-font-phone-sip" y="84" xmlns="http://www.w3.org/2000/svg"><path d="M17 3h-1v5h1V3zm-2 2h-2V4h2V3h-3v3h2v1h-2v1h3V5zm3-2v5h1V6h2V3h-3zm2 2h-1V4h1v1zm0 10.5c-1.25 0-2.45-.2-3.57-.57a.998.998 0 00-1.01.24l-2.2 2.2a15.045 15.045 0 01-6.59-6.59l2.2-2.21c.27-.26.35-.65.24-1A11.36 11.36 0 018.5 4c0-.55-.45-1-1-1H4c-.55 0-1 .45-1 1 0 9.39 7.61 17 17 17 .55 0 1-.45 1-1v-3.5c0-.55-.45-1-1-1z"/></svg><svg width="28" height="28" viewBox="-2 -2 28 28" id="material-design-iconic-font-playlist-add" x="28" y="84" xmlns="http://www.w3.org/2000/svg"><path d="M14 10H2v2h12v-2zm0-4H2v2h12V6zm4 8v-4h-2v4h-4v2h4v4h2v-4h4v-2h-4zM2 16h8v-2H2v2z"/></svg><svg width="28" height="28" viewBox="-2 -2 28 28" id="material-design-iconic-font-ring-volume" x="56" y="84" xmlns="http://www.w3.org/2000/svg"><path d="M23.71 16.67A16.971 16.971 0 0012 12C7.46 12 3.34 13.78.29 16.67c-.18.18-.29.43-.29.71 0 .28.11.53.29.71l2.48 2.48c.18.18.43.29.71.29.27 0 .52-.11.7-.28.79-.74 1.69-1.36 2.66-1.85.33-.16.56-.5.56-.9v-3.1c1.45-.48 3-.73 4.6-.73s3.15.25 4.6.72v3.1c0 .39.23.74.56.9.98.49 1.87 1.12 2.66 1.85.18.18.43.28.7.28.28 0 .53-.11.71-.29l2.48-2.48c.18-.18.29-.43.29-.71a.99.99 0 00-.29-.7zM21.16 6.26l-1.41-1.41-3.56 3.55 1.41 1.41s3.45-3.52 3.56-3.55zM13 2h-2v5h2V2zM6.4 9.81L7.81 8.4 4.26 4.84 2.84 6.26c.11.03 3.56 3.55 3.56 3.55z"/></svg><svg width="28" height="28" viewBox="-2 -2 28 28" id="material-design-iconic-font-search" x="84" y="84" xmlns="http://www.w3.org/2000/svg"><path d="M15.5 14h-.79l-.28-.27A6.471 6.471 0 0016 9.5 6.5 6.5 0 109.5 16c1.61 0 3.09-.59 4.23-1.57l.27.28v.79l5 4.99L20.49 19l-4.99-5zm-6 0C7.01 14 5 11.99 5 9.5S7.01 5 9.5 5 14 7.01 14 9.5 11.99 14 9.5 14z"/></svg></svg>