<?xml version="1.0" encoding="utf-8"?><svg width="137" height="112" viewBox="0 0 137 112" xmlns="http://www.w3.org/2000/svg" xmlns:xlink="http://www.w3.org/1999/xlink"><svg width="26.97" height="28" viewBox="-42.67 -42.67 575.33 597.33" id="microns-audio-description" xmlns="http://www.w3.org/2000/svg"><path d="M64 115q37-37 84-56t97-19q50 0 97 19t84 56l-34 34q-30-30-68-45-38-16-79-16t-79 16q-38 15-68 45l-34-34zm68 68q23-23 53-35 29-12 60-12t61 12q29 12 52 35l-34 34q-33-33-79-33t-79 33l-34-34zm113 265q-53 0-94-31-42-32-66-77 24-45 66-76 41-32 94-32t95 32q41 31 65 76-24 45-65 77-42 31-95 31zm0-40q29 0 49-20 19-20 19-48 0-29-19-48-20-20-49-20-28 0-48 20-20 19-20 48 0 28 20 48t48 20zm0-32q-15 0-25-10-11-11-11-26t11-25q10-11 25-11t26 11q10 10 10 25t-10 26q-11 10-26 10z"/></svg><svg width="28" height="28" viewBox="-42.67 -42.67 597.33 597.33" id="microns-box-minus" x="26.97" xmlns="http://www.w3.org/2000/svg"><path d="M96 448q-14 0-23-9t-9-23V96q0-14 9-23t23-9h320q14 0 23 9t9 23v320q0 14-9 23t-23 9H96zm272-168v-48H144v48h224z"/></svg><svg width="25.38" height="28" viewBox="-42.67 -42.67 541.33 597.33" id="microns-cancel" x="54.97" xmlns="http://www.w3.org/2000/svg"><path d="M64 388l132-132L64 124l32-32 132 132L360 92l32 32-132 132 132 132-32 32-132-132L96 420l-32-32z"/></svg><svg width="28" height="28" viewBox="-42.67 -42.67 597.33 597.33" id="microns-chapters" y="28" xmlns="http://www.w3.org/2000/svg"><path d="M64 96h48v48H64V96zm96 0h288v48H160V96zM64 232h48v48H64v-48zm96 0h288v48H160v-48zM64 368h48v48H64v-48zm96 0h288v48H160v-48z"/></svg><svg width="28" height="26.97" viewBox="-44.58 -44.58 624.17 601.17" id="microns-cloud" x="28" y="28" xmlns="http://www.w3.org/2000/svg"><path d="M167 400q-48 0-75-31-28-31-28-73t28-73q27-31 75-31 13 0 16 1 2-35 23-63 21-29 54-42 22-8 44-8 24 0 46 9t38 27q35 35 35 85 0 21-8 43 27 8 42 29 14 20 14 45 0 33-22 58-22 24-58 24H167z"/></svg><svg width="28" height="28" viewBox="-42.67 -42.67 597.33 597.33" id="microns-code" x="80.35" xmlns="http://www.w3.org/2000/svg"><path d="M48 256l144-144 32 32-112 112 112 112-32 32L48 256zm240 112l112-112-112-112 32-32 144 144-144 144-32-32z"/></svg><svg width="28" height="27.27" viewBox="-44 -44 616 600" id="microns-fail" x="80.35" y="28" xmlns="http://www.w3.org/2000/svg"><path d="M264 456q-54 0-100-27t-73-73q-27-46-27-100t27-100q27-46 73-73t100-27q54 0 100 27t73 73q27 46 27 100t-27 100q-27 46-73 73t-100 27zm0-168l64 64 32-32-64-64 64-64-32-32-64 64-64-64-32 32 64 64-64 64 32 32 64-64z"/></svg><svg width="20.64" height="28" viewBox="-42.67 -42.67 440.33 597.33" id="microns-left" y="56" xmlns="http://www.w3.org/2000/svg"><path d="M257 64l34 34-163 164 163 164-34 34L61 262 257 64z"/></svg><svg width="28" height="28" viewBox="-42.67 -42.67 597.33 597.33" id="microns-outdent" x="20.64" y="56" xmlns="http://www.w3.org/2000/svg"><path d="M64 96h384v48H64V96zm0 160l80-69v138l-80-69zm128-69h256v48H192v-48zm0 90h256v48H192v-48zM64 368h384v48H64v-48z"/></svg><svg width="28" height="27.27" viewBox="-44 -44 616 600" id="microns-pass" x="48.64" y="56" xmlns="http://www.w3.org/2000/svg"><path d="M264 456q-54 0-100-27t-73-73q-27-46-27-100t27-100q27-46 73-73t100-27q54 0 100 27t73 73q27 46 27 100t-27 100q-27 46-73 73t-100 27zm104-264l-36-32-101 122-53-53-32 32 89 89 133-158z"/></svg><svg width="28" height="26.59" viewBox="-45.33 -45.33 634.67 602.67" id="microns-show" x="76.64" y="56" xmlns="http://www.w3.org/2000/svg"><path d="M272 400q-67 0-121-39-55-39-87-105 32-66 87-105 54-39 121-39 64 0 120 41 56 40 88 103-32 63-88 104-56 40-120 40zm0-48q40 0 68-28t28-68q0-40-28-68t-68-28q-40 0-68 28t-28 68q0 40 28 68t68 28zm0-40q-23 0-39-16-17-17-17-40t17-39q16-17 39-17t40 17q16 16 16 39t-16 40q-17 16-40 16z"/></svg><svg width="28" height="26.34" viewBox="-45.83 -45.83 641.67 603.67" id="microns-star" x="108.35" xmlns="http://www.w3.org/2000/svg"><path d="M181 286L64 188l154-12 57-146 58 146 153 12-117 98 38 150-132-82-131 86 37-154z"/></svg><svg width="28" height="28" viewBox="-42.67 -42.67 597.33 597.33" id="microns-text-size" x="108.35" y="26.34" xmlns="http://www.w3.org/2000/svg"><path d="M256 144H128V80h320v64H320v288h-64V144zM144 272H64v-48h168v48h-40v160h-48V272z"/></svg><svg width="28" height="28" viewBox="-42.67 -42.67 597.33 597.33" id="microns-user" x="108.35" y="54.34" xmlns="http://www.w3.org/2000/svg"><path d="M256 288q-40 0-68-28t-28-68q0-40 28-68t68-28q40 0 68 28t28 68q0 40-28 68t-68 28zm-128 97q0-28 19-46 18-19 46-19h126q28 0 47 19 18 18 18 46v31H128v-31z"/></svg><svg width="18.25" height="28" viewBox="-42.67 -42.67 389.33 597.33" id="microns-vol-low" y="84" xmlns="http://www.w3.org/2000/svg"><path d="M128 336H64V176h64L240 64v384L128 336z"/></svg><svg width="23.5" height="28" viewBox="-42.67 -42.67 501.33 597.33" id="microns-vol-mid" x="18.25" y="84" xmlns="http://www.w3.org/2000/svg"><path d="M64 336V176h64L240 64v384L128 336H64zm220-172q30 9 49 34t19 58q0 30-19 57-19 26-49 36V164z"/></svg></svg>