<?xml version="1.0" encoding="utf-8"?><svg width="134" height="112" viewBox="0 0 134 112" xmlns="http://www.w3.org/2000/svg" xmlns:xlink="http://www.w3.org/1999/xlink"><svg width="28" height="28" viewBox="-42.67 -42.67 597.33 597.33" id="microns-align-center" xmlns="http://www.w3.org/2000/svg"><path d="M64 96h384v48H64V96zm64 91h256v48H128v-48zm-64 90h384v48H64v-48zm64 91h256v48H128v-48z"/></svg><svg width="28" height="28" viewBox="-42.67 -42.67 597.33 597.33" id="microns-arrow-right" x="28" xmlns="http://www.w3.org/2000/svg"><path d="M256 384l84-84 28-24-64 4H64v-48h240l64 4-28-24-84-84 32-32 160 160-160 160-32-32z"/></svg><svg width="28" height="28" viewBox="-42.67 -42.67 597.33 597.33" id="microns-arrow-up" y="28" xmlns="http://www.w3.org/2000/svg"><path d="M96 224L256 64l160 160-32 32-84-84-24-28 4 64v240h-48V208l4-64-24 28-84 84-32-32z"/></svg><svg width="26.97" height="28" viewBox="-42.67 -42.67 575.33 597.33" id="microns-audio-description" x="28" y="28" xmlns="http://www.w3.org/2000/svg"><path d="M64 115q37-37 84-56t97-19q50 0 97 19t84 56l-34 34q-30-30-68-45-38-16-79-16t-79 16q-38 15-68 45l-34-34zm68 68q23-23 53-35 29-12 60-12t61 12q29 12 52 35l-34 34q-33-33-79-33t-79 33l-34-34zm113 265q-53 0-94-31-42-32-66-77 24-45 66-76 41-32 94-32t95 32q41 31 65 76-24 45-65 77-42 31-95 31zm0-40q29 0 49-20 19-20 19-48 0-29-19-48-20-20-49-20-28 0-48 20-20 19-20 48 0 28 20 48t48 20zm0-32q-15 0-25-10-11-11-11-26t11-25q10-11 25-11t26 11q10 10 10 25t-10 26q-11 10-26 10z"/></svg><svg width="25" height="28" viewBox="-42.67 -42.67 533.33 597.33" id="microns-bars" x="56" xmlns="http://www.w3.org/2000/svg"><path d="M64 80h48v352H64V80zm136 0h48v352h-48V80zm136 0h48v352h-48V80z"/></svg><svg width="28" height="28" viewBox="-42.67 -42.67 597.33 597.33" id="microns-box-cross" x="81" xmlns="http://www.w3.org/2000/svg"><path d="M96 448q-14 0-23-9t-9-23V96q0-14 9-23t23-9h320q14 0 23 9t9 23v320q0 14-9 23t-23 9H96zm160-160l64 64 32-32-64-64 64-64-32-32-64 64-64-64-32 32 64 64-64 64 32 32 64-64z"/></svg><svg width="28" height="28" viewBox="-42.67 -42.67 597.33 597.33" id="microns-box-plus" x="81" y="28" xmlns="http://www.w3.org/2000/svg"><path d="M96 448q-14 0-23-9t-9-23V96q0-14 9-23t23-9h320q14 0 23 9t9 23v320q0 14-9 23t-23 9H96zm184-80v-88h88v-48h-88v-88h-48v88h-88v48h88v88h48z"/></svg><svg width="28" height="28" viewBox="-42.67 -42.67 597.33 597.33" id="microns-download" y="56" xmlns="http://www.w3.org/2000/svg"><path d="M232 64h48v150l-3 56 23-28 56-53 32 32-132 132-132-132 32-32 56 53 23 28-3-56V64zM64 400h384v48H64v-48z"/></svg><svg width="28" height="28" viewBox="-42.67 -42.67 597.33 597.33" id="microns-hd" x="28" y="56" xmlns="http://www.w3.org/2000/svg"><path d="M96 448q-32 0-32-32V96q0-32 32-32h320q32 0 32 32v320q0 32-32 32H96zm72-80v-88h32v88h40V144h-40v96h-32v-96h-40v224h40zm165 0q51 0 51-53V196q0-52-53-52h-59v224h61zm-1-184q12 0 12 12v120q0 12-12 12h-20V184h20z"/></svg><svg width="28" height="26.59" viewBox="-45.33 -45.33 634.67 602.67" id="microns-hide" x="56" y="56" xmlns="http://www.w3.org/2000/svg"><path d="M108 60l360 360-32 32-74-74q-41 22-90 22-64 0-118-39-55-39-90-105 15-27 38-54 22-28 42-42L76 92l32-32zm260 196q0-40-28-68t-68-28l-43-43q25-5 43-5 65 0 120 40 54 40 88 104-6 13-19 32t-27 34l-66-66zm-96 96q27 0 50-14l-29-29q-10 3-21 3-23 0-39-16-17-17-17-40 0-9 4-20l-30-30q-14 23-14 50 0 40 28 68t68 28z"/></svg><svg width="22.19" height="28" viewBox="-42.67 -42.67 473.33 597.33" id="microns-i-up" x="56" y="28" xmlns="http://www.w3.org/2000/svg"><path d="M194 242l-96 96-32-32 128-128 128 128-32 32-96-96z"/></svg><svg width="24.25" height="28" viewBox="-42.67 -42.67 517.33 597.33" id="microns-italic" x="109" xmlns="http://www.w3.org/2000/svg"><path d="M368 144h-94l-50 224h96v64H64v-64h94l50-224h-96V80h256v64z"/></svg><svg width="25" height="28" viewBox="-42.67 -42.67 533.33 597.33" id="microns-matrix" y="84" xmlns="http://www.w3.org/2000/svg"><path d="M64 96h80v80H64V96zm120 0h80v80h-80V96zm120 0h80v80h-80V96zM64 216h80v80H64v-80zm120 0h80v80h-80v-80zm120 0h80v80h-80v-80zM64 336h80v80H64v-80zm120 0h80v80h-80v-80zm120 0h80v80h-80v-80z"/></svg><svg width="28" height="28" viewBox="-42.67 -42.67 597.33 597.33" id="microns-menu" x="25" y="84" xmlns="http://www.w3.org/2000/svg"><path d="M64 96h384v48H64V96zm0 136h384v48H64v-48zm0 136h384v48H64v-48z"/></svg><svg width="28" height="28" viewBox="-42.67 -42.67 597.33 597.33" id="microns-text-size" x="53" y="84" xmlns="http://www.w3.org/2000/svg"><path d="M256 144H128V80h320v64H320v288h-64V144zM144 272H64v-48h168v48h-40v160h-48V272z"/></svg><svg width="28" height="27.27" viewBox="-44 -44 616 600" id="microns-warn" x="81" y="84" xmlns="http://www.w3.org/2000/svg"><path d="M264 56q54 0 100 27t73 73q27 46 27 100t-27 100q-27 46-73 73t-100 27q-54 0-100-27t-73-73q-27-46-27-100t27-100q27-46 73-73t100-27zm-32 88v128h64V144h-64zm0 160v64h64v-64h-64z"/></svg></svg>