<?xml version="1.0" encoding="utf-8"?><svg width="1540" height="1447" viewBox="0 0 1540 1447" xmlns="http://www.w3.org/2000/svg" xmlns:xlink="http://www.w3.org/1999/xlink"><svg width="132" height="132" viewBox="-8 -8 528 528" id="microns-align-center" xmlns="http://www.w3.org/2000/svg"><path d="M64 96h384v48H64V96zm64 91h256v48H128v-48zm-64 90h384v48H64v-48zm64 91h256v48H128v-48z"/></svg><svg width="132" height="132" viewBox="-8 -8 528 528" id="microns-align-left" x="132" xmlns="http://www.w3.org/2000/svg"><path d="M64 96h384v48H64V96zm0 91h256v48H64v-48zm0 90h384v48H64v-48zm0 91h256v48H64v-48z"/></svg><svg width="132" height="132" viewBox="-8 -8 528 528" id="microns-align-right" y="132" xmlns="http://www.w3.org/2000/svg"><path d="M448 144H64V96h384v48zm0 91H192v-48h256v48zm0 90H64v-48h384v48zm0 91H192v-48h256v48z"/></svg><svg width="132" height="132" viewBox="-8 -8 528 528" id="microns-arrow-down" x="132" y="132" xmlns="http://www.w3.org/2000/svg"><path d="M416 288L256 448 96 288l32-32 84 84 24 28-4-64V64h48v240l-4 64 24-28 84-84 32 32z"/></svg><svg width="132" height="132" viewBox="-8 -8 528 528" id="microns-arrow-left" x="264" xmlns="http://www.w3.org/2000/svg"><path d="M64 256L224 96l32 32-84 84-28 24 64-4h240v48H208l-64-4 28 24 84 84-32 32L64 256z"/></svg><svg width="132" height="132" viewBox="-8 -8 528 528" id="microns-arrow-right" x="264" y="132" xmlns="http://www.w3.org/2000/svg"><path d="M256 384l84-84 28-24-64 4H64v-48h240l64 4-28-24-84-84 32-32 160 160-160 160-32-32z"/></svg><svg width="132" height="132" viewBox="-8 -8 528 528" id="microns-arrow-up" y="264" xmlns="http://www.w3.org/2000/svg"><path d="M96 224L256 64l160 160-32 32-84-84-24-28 4 64v240h-48V208l4-64-24 28-84 84-32-32z"/></svg><svg width="132" height="132" viewBox="-8 -8 528 528" id="microns-audio" x="132" y="264" xmlns="http://www.w3.org/2000/svg"><path d="M128 448q-26 0-45-19t-19-45V256q0-50 26-96 26-45 71-70 44-26 95-26 52 0 96 26 45 26 71 71 25 44 25 95v128q0 26-19 45t-45 19h-64V288h80v-32q0-38-19-72-20-33-53-52-33-20-72-20-40 0-72 19-33 20-52 53-20 33-20 72v32h80v160h-64z"/></svg><svg width="126.5" height="132" viewBox="-8 -8 506 528" id="microns-audio-description" x="264" y="264" xmlns="http://www.w3.org/2000/svg"><path d="M64 115q37-37 84-56t97-19q50 0 97 19t84 56l-34 34q-30-30-68-45-38-16-79-16t-79 16q-38 15-68 45l-34-34zm68 68q23-23 53-35 29-12 60-12t61 12q29 12 52 35l-34 34q-33-33-79-33t-79 33l-34-34zm113 265q-53 0-94-31-42-32-66-77 24-45 66-76 41-32 94-32t95 32q41 31 65 76-24 45-65 77-42 31-95 31zm0-40q29 0 49-20 19-20 19-48 0-29-19-48-20-20-49-20-28 0-48 20-20 19-20 48 0 28 20 48t48 20zm0-32q-15 0-25-10-11-11-11-26t11-25q10-11 25-11t26 11q10 10 10 25t-10 26q-11 10-26 10z"/></svg><svg width="116" height="132" viewBox="-8 -8 464 528" id="microns-bars" x="396" xmlns="http://www.w3.org/2000/svg"><path d="M64 80h48v352H64V80zm136 0h48v352h-48V80zm136 0h48v352h-48V80z"/></svg><svg width="108" height="132" viewBox="-8 -8 432 528" id="microns-bold" x="396" y="132" xmlns="http://www.w3.org/2000/svg"><path d="M214 80q52 0 85 27 32 27 32 69 0 25-11 46-12 21-29 29v2q28 9 45 31 16 22 16 51 0 42-31 70-31 27-79 27H64V80h150zm4 144q21 0 35-13t14-31q0-16-13-26-14-10-36-10h-90v80h90zm18 144q22 0 37-11 15-12 15-29 0-19-14-29-15-11-38-11H128v80h108z"/></svg><svg width="84" height="132" viewBox="-8 -8 336 528" id="microns-bookmark" x="396" y="264" xmlns="http://www.w3.org/2000/svg"><path d="M64 96h192v360l-96-88-96 88V96z"/></svg><svg width="132" height="132" viewBox="-8 -8 528 528" id="microns-box" x="512" xmlns="http://www.w3.org/2000/svg"><path d="M96 448q-14 0-23-9t-9-23V96q0-14 9-23t23-9h320q14 0 23 9t9 23v320q0 14-9 23t-23 9H96zm304-48V112H112v288h288z"/></svg><svg width="132" height="132" viewBox="-8 -8 528 528" id="microns-box-cross" x="512" y="132" xmlns="http://www.w3.org/2000/svg"><path d="M96 448q-14 0-23-9t-9-23V96q0-14 9-23t23-9h320q14 0 23 9t9 23v320q0 14-9 23t-23 9H96zm160-160l64 64 32-32-64-64 64-64-32-32-64 64-64-64-32 32 64 64-64 64 32 32 64-64z"/></svg><svg width="132" height="132" viewBox="-8 -8 528 528" id="microns-box-full" x="512" y="264" xmlns="http://www.w3.org/2000/svg"><path d="M96 448q-14 0-23-9t-9-23V96q0-14 9-23t23-9h320q14 0 23 9t9 23v320q0 14-9 23t-23 9H96z"/></svg><svg width="132" height="132" viewBox="-8 -8 528 528" id="microns-box-minus" y="396" xmlns="http://www.w3.org/2000/svg"><path d="M96 448q-14 0-23-9t-9-23V96q0-14 9-23t23-9h320q14 0 23 9t9 23v320q0 14-9 23t-23 9H96zm272-168v-48H144v48h224z"/></svg><svg width="132" height="132" viewBox="-8 -8 528 528" id="microns-box-plus" x="132" y="396" xmlns="http://www.w3.org/2000/svg"><path d="M96 448q-14 0-23-9t-9-23V96q0-14 9-23t23-9h320q14 0 23 9t9 23v320q0 14-9 23t-23 9H96zm184-80v-88h88v-48h-88v-88h-48v88h-88v48h88v88h48z"/></svg><svg width="132" height="132" viewBox="-8 -8 528 528" id="microns-box-tick" x="264" y="396" xmlns="http://www.w3.org/2000/svg"><path d="M96 448q-14 0-23-9t-9-23V96q0-14 9-23t23-9h320q14 0 23 9t9 23v320q0 14-9 23t-23 9H96zm271-256l-36-32-101 122-53-53-32 32 89 89 133-158z"/></svg><svg width="132" height="132" viewBox="-8 -8 528 528" id="microns-calendar" x="396" y="396" xmlns="http://www.w3.org/2000/svg"><path d="M96 416q-14 0-23-9t-9-23V136q0-14 9-23t23-9h16V64h48v40h72V64h48v40h72V64h48v40h16q14 0 23 9t9 23v248q0 14-9 23t-23 9H96zm304-48V208H112v160h288z"/></svg><svg width="118" height="132" viewBox="-8 -8 472 528" id="microns-cancel" x="644" xmlns="http://www.w3.org/2000/svg"><path d="M64 388l132-132L64 124l32-32 132 132L360 92l32 32-132 132 132 132-32 32-132-132L96 420l-32-32z"/></svg><svg width="132" height="132" viewBox="-8 -8 528 528" id="microns-captions" y="528" xmlns="http://www.w3.org/2000/svg"><path d="M96 448q-14 0-23-9t-9-23V96q0-14 9-23t23-9h320q14 0 23 9t9 23v320q0 14-9 23t-23 9H96zm85-80q21 0 36-15 15-16 15-38v-35h-40v36q0 12-12 12t-12-12V196q0-12 12-12t12 12v36h40v-36q0-21-15-36-15-16-38-16-21 1-36 16t-15 37v119q0 21 15 37 15 15 38 15zm144 0q21 0 36-15 15-16 15-38v-35h-40v36q0 12-12 12-10 0-12-12V196q0-12 12-12t12 12v36h40v-36q0-21-15-36-15-16-38-16-21 1-36 16t-15 37v119q0 21 15 37 15 15 38 15z"/></svg><svg width="84" height="132" viewBox="-8 -8 336 528" id="microns-caret" x="644" y="132" xmlns="http://www.w3.org/2000/svg"><path d="M160 96l96 112H64l96-112zM64 304h192l-96 112-96-112z"/></svg><svg width="84" height="132" viewBox="-8 -8 336 528" id="microns-caret-down" x="644" y="264" xmlns="http://www.w3.org/2000/svg"><path d="M64 208h192l-96 112-96-112z"/></svg><svg width="84" height="132" viewBox="-8 -8 336 528" id="microns-caret-up" x="644" y="396" xmlns="http://www.w3.org/2000/svg"><path d="M160 192l96 112H64l96-112z"/></svg><svg width="132" height="132" viewBox="-8 -8 528 528" id="microns-chapters" x="132" y="528" xmlns="http://www.w3.org/2000/svg"><path d="M64 96h48v48H64V96zm96 0h288v48H160V96zM64 232h48v48H64v-48zm96 0h288v48H160v-48zM64 368h48v48H64v-48zm96 0h288v48H160v-48z"/></svg><svg width="116" height="132" viewBox="-8 -8 464 528" id="microns-chart-bar" x="528" y="396" xmlns="http://www.w3.org/2000/svg"><path d="M336 64h48v288h-48V64zm-181 64h48v224h-48V128zm90 64h48v160h-48V192zM64 256h48v96H64v-96zm0 144h320v48H64v-48z"/></svg><svg width="116" height="132" viewBox="-8 -8 464 528" id="microns-chart-line" x="264" y="528" xmlns="http://www.w3.org/2000/svg"><path d="M64 272l112-112 64 64 112-112 32 32-144 144-64-64-80 80-32-32zm0 128h320v48H64v-48z"/></svg><svg width="126" height="132" viewBox="-8 -8 504 528" id="microns-chart-pie" x="380" y="528" xmlns="http://www.w3.org/2000/svg"><path d="M272 88q41 0 76 21 35 20 56 55 20 35 20 76H272V88zm-48 360q-43 0-80-21-37-22-58-59-22-37-22-80t22-80q21-37 58-58 37-22 80-22v160h160q0 43-21 80-22 37-59 59-37 21-80 21z"/></svg><svg width="116" height="132" viewBox="-8 -8 464 528" id="microns-chart-scatter" x="506" y="528" xmlns="http://www.w3.org/2000/svg"><path d="M336 64h48v48h-48V64zm-181 48h48v48h-48v-48zm90 64h48v48h-48v-48zm-90 48h48v48h-48v-48zm-91 32h48v48H64v-48zm272 0h48v48h-48v-48zM64 400h320v48H64v-48z"/></svg><svg width="132" height="132" viewBox="-8 -8 528 528" id="microns-chat" x="622" y="528" xmlns="http://www.w3.org/2000/svg"><path d="M96 368q-13 0-22-9-10-10-10-23V128q0-14 10-23 9-9 22-9h320q14 0 23 9t9 23v208q0 13-9 23-9 9-23 9H256l-96 96v-96H96z"/></svg><svg width="124" height="132" viewBox="-8 -8 496 528" id="microns-clock" x="762" xmlns="http://www.w3.org/2000/svg"><path d="M240 432q-48 0-88-23-41-24-64-64-24-41-24-89t24-88q23-41 64-64 40-24 88-24t89 24q40 23 64 64 23 40 23 88t-23 89q-24 40-64 64-41 23-89 23zm112-152v-48h-88v-88h-48v136h136z"/></svg><svg width="132" height="126.5" viewBox="-8.36 -8.36 551.72 528.72" id="microns-cloud" y="660" xmlns="http://www.w3.org/2000/svg"><path d="M167 400q-48 0-75-31-28-31-28-73t28-73q27-31 75-31 13 0 16 1 2-35 23-63 21-29 54-42 22-8 44-8 24 0 46 9t38 27q35 35 35 85 0 21-8 43 27 8 42 29 14 20 14 45 0 33-22 58-22 24-58 24H167z"/></svg><svg width="132" height="132" viewBox="-8 -8 528 528" id="microns-code" x="886" xmlns="http://www.w3.org/2000/svg"><path d="M48 256l144-144 32 32-112 112 112 112-32 32L48 256zm240 112l112-112-112-112 32-32 144 144-144 144-32-32z"/></svg><svg width="132" height="126.27" viewBox="-8.37 -8.37 552.75 528.75" id="microns-cog" x="886" y="132" xmlns="http://www.w3.org/2000/svg"><path d="M199 376l-87 26-48-84 67-62-67-62 48-84 87 26 21-88h96l21 88 87-26 48 84-67 62 67 62-48 84-87-26-21 88h-96l-21-88zm70-56q27 0 45-19 17-19 17-47 0-27-18-44-18-18-44-18-28 0-46 18-19 18-19 46 0 27 19 46 18 18 46 18z"/></svg><svg width="132" height="132" viewBox="-8 -8 528 528" id="microns-contract" x="886" y="258.27" xmlns="http://www.w3.org/2000/svg"><path d="M64 176h80v-64h48v112H64v-48zm256-64h48v64h80v48H320V112zM144 336H64v-48h128v112h-48v-64zm176-48h128v48h-80v64h-48V288z"/></svg><svg width="116" height="132" viewBox="-8 -8 464 528" id="microns-delete" x="886" y="390.27" xmlns="http://www.w3.org/2000/svg"><path d="M128 416q-14 0-23-9t-9-23V176H64v-48h80V96q0-14 9-23t23-9h96q14 0 23 9t9 23v32h80v48h-32v208q0 14-9 23t-23 9H128zm128-272v-32h-64v32h64zm-56 224V192h-56v176h56zm104 0V192h-56v176h56z"/></svg><svg width="132" height="129.07" viewBox="-8.19 -8.19 540.38 528.38" id="microns-down" x="886" y="522.27" xmlns="http://www.w3.org/2000/svg"><path d="M64 191l34-34 164 163 164-163 34 34-198 196L64 191z"/></svg><svg width="132" height="132" viewBox="-8 -8 528 528" id="microns-download" x="886" y="651.3399999999999" xmlns="http://www.w3.org/2000/svg"><path d="M232 64h48v150l-3 56 23-28 56-53 32 32-132 132-132-132 32-32 56 53 23 28-3-56V64zM64 400h384v48H64v-48z"/></svg><svg width="132" height="132" viewBox="-8 -8 528 528" id="microns-edit" y="786.5" xmlns="http://www.w3.org/2000/svg"><path d="M320 112l48-48 80 80-48 48-80-80zM128 304l160-160 80 80-160 160-80-80zm-32 32l80 80-112 32 32-112z"/></svg><svg width="132" height="132" viewBox="-8 -8 528 528" id="microns-expand" x="132" y="786.5" xmlns="http://www.w3.org/2000/svg"><path d="M64 112h128v48h-80v64H64V112zm336 48h-80v-48h128v112h-48v-64zM64 288h48v64h80v48H64V288zm256 64h80v-64h48v112H320v-48z"/></svg><svg width="132" height="128.12" viewBox="-8.25 -8.25 544.5 528.5" id="microns-fail" x="264" y="786.5" xmlns="http://www.w3.org/2000/svg"><path d="M264 456q-54 0-100-27t-73-73q-27-46-27-100t27-100q27-46 73-73t100-27q54 0 100 27t73 73q27 46 27 100t-27 100q-27 46-73 73t-100 27zm0-168l64 64 32-32-64-64 64-64-32-32-64 64-64-64-32 32 64 64-64 64 32 32 64-64z"/></svg><svg width="116" height="132" viewBox="-8 -8 464 528" id="microns-file" x="762" y="132" xmlns="http://www.w3.org/2000/svg"><path d="M96 448q-15 0-23-8-9-9-9-24V96q0-15 9-23 8-9 23-9h121q23 0 39 16l112 112q16 16 16 39v185q0 15-8 24-9 8-24 8H96zm240-48V240H208V112h-96v288h224z"/></svg><svg width="126" height="132" viewBox="-8 -8 504 528" id="microns-flag" x="1018" xmlns="http://www.w3.org/2000/svg"><path d="M64 96h48v352H64V96zm80 0h280l-72 120 72 120H144V96z"/></svg><svg width="116" height="132" viewBox="-8 -8 464 528" id="microns-grid" x="1018" y="132" xmlns="http://www.w3.org/2000/svg"><path d="M64 96h136v136H64V96zm184 0h136v136H248V96zM64 280h136v136H64V280zm184 0h136v136H248V280z"/></svg><svg width="132" height="132" viewBox="-8 -8 528 528" id="microns-group" y="918.5" xmlns="http://www.w3.org/2000/svg"><path d="M144 288q-40 0-68-28t-28-68q0-40 28-68t68-28q40 0 68 28t28 68q0 40-28 68t-68 28zm224 0q-40 0-68-28t-28-68q0-40 28-68t68-28q40 0 68 28t28 68q0 40-28 68t-68 28zM48 385q0-28 19-46 18-19 46-19h62q28 0 47 19 18 18 18 46v31H48v-31zm224 0q0-28 19-46 18-19 46-19h62q28 0 47 19 18 18 18 46v31H272v-31z"/></svg><svg width="132" height="132" viewBox="-8 -8 528 528" id="microns-hd" x="132" y="918.5" xmlns="http://www.w3.org/2000/svg"><path d="M96 448q-32 0-32-32V96q0-32 32-32h320q32 0 32 32v320q0 32-32 32H96zm72-80v-88h32v88h40V144h-40v96h-32v-96h-40v224h40zm165 0q51 0 51-53V196q0-52-53-52h-59v224h61zm-1-184q12 0 12 12v120q0 12-12 12h-20V184h20z"/></svg><svg width="132" height="132" viewBox="-8 -8 528 528" id="microns-heart" x="264" y="918.5" xmlns="http://www.w3.org/2000/svg"><path d="M256 418q-69-49-107-81-39-32-62-68t-23-77q0-39 29-67 28-29 67-29t68 29q28 28 28 67 0-39 29-67 28-29 67-29t68 29q28 28 28 67 0 42-23 79-24 36-62 68-39 32-107 79z"/></svg><svg width="132" height="124.47" viewBox="-8.5 -8.5 561 529" id="microns-hide" x="132" y="660" xmlns="http://www.w3.org/2000/svg"><path d="M108 60l360 360-32 32-74-74q-41 22-90 22-64 0-118-39-55-39-90-105 15-27 38-54 22-28 42-42L76 92l32-32zm260 196q0-40-28-68t-68-28l-43-43q25-5 43-5 65 0 120 40 54 40 88 104-6 13-19 32t-27 34l-66-66zm-96 96q27 0 50-14l-29-29q-10 3-21 3-23 0-39-16-17-17-17-40 0-9 4-20l-30-30q-14 23-14 50 0 40 28 68t68 28z"/></svg><svg width="92" height="132" viewBox="-8 -8 368 528" id="microns-i-asterisk" x="1018" y="264" xmlns="http://www.w3.org/2000/svg"><path d="M285 221q-42 25-75 35 33 10 75 35l-24 42q-46-28-68-47 7 31 7 82h-48q0-51 7-82-22 19-68 47l-24-42q42-25 75-35-33-10-75-35l24-42q46 28 68 47-7-31-7-82h48q0 51-7 82 22-19 68-47l24 42z"/></svg><svg width="84" height="132" viewBox="-8 -8 336 528" id="microns-i-bullet" x="1018" y="396" xmlns="http://www.w3.org/2000/svg"><path d="M160 352q-40 0-68-28t-28-68q0-40 28-68t68-28q40 0 68 28t28 68q0 40-28 68t-68 28z"/></svg><svg width="84" height="132" viewBox="-8 -8 336 528" id="microns-i-cross" x="1018" y="528" xmlns="http://www.w3.org/2000/svg"><path d="M64 320l64-64-64-64 32-32 64 64 64-64 32 32-64 64 64 64-32 32-64-64-64 64-32-32z"/></svg><svg width="101" height="132" viewBox="-8 -8 404 528" id="microns-i-down" x="1018" y="660" xmlns="http://www.w3.org/2000/svg"><path d="M194 270l96-96 32 32-128 128L66 206l32-32 96 96z"/></svg><svg width="81" height="132" viewBox="-8 -8 324 528" id="microns-i-left" x="762" y="264" xmlns="http://www.w3.org/2000/svg"><path d="M244 160l-96 96 96 96-32 32L84 256l128-128 32 32z"/></svg><svg width="92" height="132" viewBox="-8 -8 368 528" id="microns-i-minus" x="762" y="396" xmlns="http://www.w3.org/2000/svg"><path d="M64 232h224v48H64v-48z"/></svg><svg width="92" height="132" viewBox="-8 -8 368 528" id="microns-i-plus" x="762" y="528" xmlns="http://www.w3.org/2000/svg"><path d="M152 280H64v-48h88v-88h48v88h88v48h-88v88h-48v-88z"/></svg><svg width="76" height="132" viewBox="-8 -8 304 528" id="microns-i-right" x="396" y="918.5" xmlns="http://www.w3.org/2000/svg"><path d="M64 352l96-96-96-96 32-32 128 128L96 384l-32-32z"/></svg><svg width="91.5" height="132" viewBox="-8 -8 366 528" id="microns-i-tick" x="472" y="918.5" xmlns="http://www.w3.org/2000/svg"><path d="M64 261l32-32 53 53 101-122 36 32-133 158-89-89z"/></svg><svg width="101" height="132" viewBox="-8 -8 404 528" id="microns-i-up" x="563.5" y="918.5" xmlns="http://www.w3.org/2000/svg"><path d="M194 242l-96 96-32-32 128-128 128 128-32 32-96-96z"/></svg><svg width="132" height="132" viewBox="-8 -8 528 528" id="microns-image" x="664.5" y="918.5" xmlns="http://www.w3.org/2000/svg"><path d="M96 416q-14 0-23-9t-9-23V128q0-14 9-23t23-9h320q14 0 23 9t9 23v256q0 14-9 23t-23 9H96zm88-176q20 0 34-14t14-34q0-20-14-34t-34-14q-20 0-34 14t-14 34q0 20 14 34t34 14zm216 128v-64l-64-64-96 96-56-57-88 89h304z"/></svg><svg width="132" height="132" viewBox="-8 -8 528 528" id="microns-indent" x="796.5" y="918.5" xmlns="http://www.w3.org/2000/svg"><path d="M64 96h384v48H64V96zm0 91l80 69-80 69V187zm128 0h256v48H192v-48zm0 90h256v48H192v-48zM64 368h384v48H64v-48z"/></svg><svg width="132" height="128.12" viewBox="-8.25 -8.25 544.5 528.5" id="microns-info" x="396" y="786.5" xmlns="http://www.w3.org/2000/svg"><path d="M264 456q-54 0-100-27t-73-73q-27-46-27-100t27-100q27-46 73-73t100-27q54 0 100 27t73 73q27 46 27 100t-27 100q-27 46-73 73t-100 27zm32-248v-64h-64v64h64zm0 160V240h-64v128h64z"/></svg><svg width="112" height="132" viewBox="-8 -8 448 528" id="microns-italic" x="928.5" y="918.5" xmlns="http://www.w3.org/2000/svg"><path d="M368 144h-94l-50 224h96v64H64v-64h94l50-224h-96V80h256v64z"/></svg><svg width="92.75" height="132" viewBox="-8 -8 371 528" id="microns-left" x="1040.5" y="918.5" xmlns="http://www.w3.org/2000/svg"><path d="M257 64l34 34-163 164 163 164-34 34L61 262 257 64z"/></svg><svg width="132" height="132" viewBox="-8 -8 528 528" id="microns-link" x="1144" xmlns="http://www.w3.org/2000/svg"><path d="M48 226q0-35 24-58 23-24 58-24h35q26 0 46 13t29 35H129q-14 0-23 10-10 9-10 23v62q0 14 10 24 9 9 23 9h111q-9 22-29 35t-46 13h-35q-35 0-58-23-24-24-24-59v-60zm416 60q0 35-23 59-24 23-59 23h-35q-26 0-46-13t-29-35h111q14 0 24-9 9-10 9-24v-62q0-14-9-23-10-10-24-10H272q9-22 29-35t46-13h35q35 0 59 24 23 23 23 58v60zm-320-54h224v48H144v-48z"/></svg><svg width="100" height="132" viewBox="-8 -8 400 528" id="microns-lock" x="1144" y="132" xmlns="http://www.w3.org/2000/svg"><path d="M96 416q-13 0-22-9-10-10-10-23V224q0-13 10-22 9-10 22-10v-32q0-62 48-84 24-11 47-11 40 0 69 27 28 26 28 69v31q14 0 23 9t9 23v160q0 14-9 23t-23 9H96zm145-256q0-20-14-33t-35-13q-20 0-33 14-14 13-14 32l-1 64h97v-64z"/></svg><svg width="132" height="132" viewBox="-8 -8 528 528" id="microns-mail" x="1144" y="264" xmlns="http://www.w3.org/2000/svg"><path d="M64 128q0-15 9-23 8-9 23-9h320q15 0 24 9 8 8 8 23v16L256 272 64 144v-16zm192 200l192-128v184q0 32-32 32H96q-32 0-32-32V200l192 128z"/></svg><svg width="116" height="132" viewBox="-8 -8 464 528" id="microns-matrix" x="1144" y="396" xmlns="http://www.w3.org/2000/svg"><path d="M64 96h80v80H64V96zm120 0h80v80h-80V96zm120 0h80v80h-80V96zM64 216h80v80H64v-80zm120 0h80v80h-80v-80zm120 0h80v80h-80v-80zM64 336h80v80H64v-80zm120 0h80v80h-80v-80zm120 0h80v80h-80v-80z"/></svg><svg width="132" height="132" viewBox="-8 -8 528 528" id="microns-menu" x="1144" y="528" xmlns="http://www.w3.org/2000/svg"><path d="M64 96h384v48H64V96zm0 136h384v48H64v-48zm0 136h384v48H64v-48z"/></svg><svg width="132" height="132" viewBox="-8 -8 528 528" id="microns-minus" x="1144" y="660" xmlns="http://www.w3.org/2000/svg"><path d="M64 232h384v48H64v-48z"/></svg><svg width="132" height="106.4" viewBox="-10 -10 660 532" id="microns-opts-h" x="1144" y="792" xmlns="http://www.w3.org/2000/svg"><path d="M128 320q-26 0-45-19t-19-45q0-26 19-45t45-19q26 0 45 19t19 45q0 26-19 45t-45 19zm192 0q-26 0-45-19t-19-45q0-26 19-45t45-19q26 0 45 19t19 45q0 26-19 45t-45 19zm192 0q-26 0-45-19t-19-45q0-26 19-45t45-19q26 0 45 19t19 45q0 26-19 45t-45 19z"/></svg><svg width="76" height="132" viewBox="-8 -8 304 528" id="microns-opts-v" x="1144" y="898.4" xmlns="http://www.w3.org/2000/svg"><path d="M208 64q0 26-19 45t-45 19q-26 0-45-19T80 64q0-26 19-45t45-19q26 0 45 19t19 45zm0 192q0 26-19 45t-45 19q-26 0-45-19t-19-45q0-26 19-45t45-19q26 0 45 19t19 45zm0 192q0 26-19 45t-45 19q-26 0-45-19t-19-45q0-26 19-45t45-19q26 0 45 19t19 45z"/></svg><svg width="132" height="132" viewBox="-8 -8 528 528" id="microns-outdent" y="1050.5" xmlns="http://www.w3.org/2000/svg"><path d="M64 96h384v48H64V96zm0 160l80-69v138l-80-69zm128-69h256v48H192v-48zm0 90h256v48H192v-48zM64 368h384v48H64v-48z"/></svg><svg width="132" height="128.12" viewBox="-8.25 -8.25 544.5 528.5" id="microns-pass" x="528" y="786.5" xmlns="http://www.w3.org/2000/svg"><path d="M264 456q-54 0-100-27t-73-73q-27-46-27-100t27-100q27-46 73-73t100-27q54 0 100 27t73 73q27 46 27 100t-27 100q-27 46-73 73t-100 27zm104-264l-36-32-101 122-53-53-32 32 89 89 133-158z"/></svg><svg width="100" height="132" viewBox="-8 -8 400 528" id="microns-pause" x="132" y="1050.5" xmlns="http://www.w3.org/2000/svg"><path d="M64 96h96v320H64V96zm160 0h96v320h-96V96z"/></svg><svg width="102" height="132" viewBox="-8 -8 408 528" id="microns-play" x="232" y="1050.5" xmlns="http://www.w3.org/2000/svg"><path d="M64 96l264 160L64 416V96z"/></svg><svg width="132" height="132" viewBox="-8 -8 528 528" id="microns-plus" x="334" y="1050.5" xmlns="http://www.w3.org/2000/svg"><path d="M232 280H64v-48h168V64h48v168h168v48H280v168h-48V280z"/></svg><svg width="116" height="132" viewBox="-8 -8 464 528" id="microns-print" x="466" y="1050.5" xmlns="http://www.w3.org/2000/svg"><path d="M384 240q14 0 23 10 9 9 9 23v78q0 14-9 24-9 9-23 9v32q0 14-9 23t-23 9H96q-14 0-23-9t-9-23v-32q-14 0-23-9-9-10-9-24v-78q0-14 9-23 9-10 23-10V96q0-15 9-23 8-9 23-9h137q23 0 39 16l96 96q16 16 16 39v25zM112 112v128h224v-48h-96v-80H112zm248 216q10 0 17-7t7-17q0-11-6-17-7-7-18-7-10 0-17 7t-7 17q0 10 7 17t17 7zm-24 72v-48H112v48h224z"/></svg><svg width="132" height="128.12" viewBox="-8.25 -8.25 544.5 528.5" id="microns-radio-full" x="660" y="786.5" xmlns="http://www.w3.org/2000/svg"><path d="M264 456q-54 0-100-27t-73-73q-27-46-27-100t27-100q27-46 73-73t100-27q54 0 100 27t73 73q27 46 27 100t-27 100q-27 46-73 73t-100 27z"/></svg><svg width="132" height="117.78" viewBox="-9 -9 594 530" id="microns-radio-off" x="264" y="660" xmlns="http://www.w3.org/2000/svg"><path d="M288 480q-62 0-113-30-52-31-81-82-30-52-30-112 0-62 31-113 30-52 82-81 51-30 111-30 62 0 114 31 51 30 81 82 29 51 29 111 0 62-30 114-31 51-82 81-52 29-112 29zm0-48q48 0 89-23 40-24 64-64 23-41 23-89 0-50-24-90t-64-63q-40-23-88-23-49 0-89 24-41 24-64 65-23 40-23 87t24 88q23 40 64 64 40 24 88 24z"/></svg><svg width="132" height="132" viewBox="-8 -8 528 528" id="microns-radio-on" x="582" y="1050.5" xmlns="http://www.w3.org/2000/svg"><path d="M256 352c53 0 96-43 96-96s-43-96-96-96-96 43-96 96 43 96 96 96zm0 80c-97 0-176-80-176-176 0-95 75-176 176-176 96 0 176 74 176 176 0 98-78 176-176 176zm0 48c121 0 224-97 224-224 0-121-97-224-224-224-121 0-224 97-224 224 0 121 97 224 224 224z"/></svg><svg width="132" height="132" viewBox="-8 -8 528 528" id="microns-redo" x="714" y="1050.5" xmlns="http://www.w3.org/2000/svg"><path d="M64 384q20-107 74-162 54-56 150-78V52l164 164-164 164v-92q-56 0-110 24-55 24-114 72z"/></svg><svg width="120" height="132" viewBox="-8 -8 480 528" id="microns-replay" x="846" y="1050.5" xmlns="http://www.w3.org/2000/svg"><path d="M232 448q-46 0-84-23-39-23-61-62-23-39-23-85v-22h48v24q0 51 35 86 35 34 86 34 32 0 60-16 27-17 43-44t16-59q0-51-34-86-35-35-86-35v72l-96-96 96-96v72q47 0 85 22 38 23 61 62 22 38 22 84 0 47-22 84-22 39-61 62-40 22-85 22z"/></svg><svg width="93.5" height="132" viewBox="-8 -8 374 528" id="microns-right" x="966" y="1050.5" xmlns="http://www.w3.org/2000/svg"><path d="M98 460l-34-34 163-164L64 98l34-34 196 198L98 460z"/></svg><svg width="132" height="132" viewBox="-8 -8 528 528" id="microns-rss" x="1059.5" y="1050.5" xmlns="http://www.w3.org/2000/svg"><path d="M368 448q-2-84-41-153T220 186q-69-41-156-42V64q107 2 194 52t138 137q50 86 52 195h-80zm-136 0q-3-75-48-120-46-46-120-48v-80q69 2 125 34 56 31 89 87 32 55 34 127h-80zm-120 0q-20 0-34-14t-14-34q0-20 14-34t34-14q20 0 34 14t14 34q0 20-14 34t-34 14z"/></svg><svg width="132" height="132" viewBox="-8 -8 528 528" id="microns-search" x="1276" xmlns="http://www.w3.org/2000/svg"><path d="M416 448l-97-97q-42 32-95 32-43 0-80-21-37-22-58-59-22-37-22-80t22-80q21-37 58-58 37-22 80-22t80 22q37 21 59 58 21 37 21 80 0 54-33 96l97 97-32 32zM223 336q47 0 80-33 32-33 32-79 0-47-32-79-33-33-80-33-46 0-79 33-33 32-33 79 0 46 33 79t79 33z"/></svg><svg width="132" height="132" viewBox="-8 -8 528 528" id="microns-share" x="1276" y="132" xmlns="http://www.w3.org/2000/svg"><path d="M385 464q-28 0-46-19-19-19-19-46 0-9 1-11l-150-85q-17 17-42 17-27 0-46-19t-19-46q0-26 19-44 19-19 46-19 25 0 42 17l150-84q-1-3-1-14 0-26 19-44 18-19 45-19 26 0 45 19 18 18 19 44 0 27-19 46t-45 19q-23 0-43-17l-150 85q1 2 1 11 0 10-1 13l150 85q20-17 44-17 30 0 46 19t16 45q0 26-16 45t-46 19z"/></svg><svg width="132" height="124.47" viewBox="-8.5 -8.5 561 529" id="microns-show" x="1276" y="264" xmlns="http://www.w3.org/2000/svg"><path d="M272 400q-67 0-121-39-55-39-87-105 32-66 87-105 54-39 121-39 64 0 120 41 56 40 88 103-32 63-88 104-56 40-120 40zm0-48q40 0 68-28t28-68q0-40-28-68t-68-28q-40 0-68 28t-28 68q0 40 28 68t68 28zm0-40q-23 0-39-16-17-17-17-40t17-39q16-17 39-17t40 17q16 16 16 39t-16 40q-17 16-40 16z"/></svg><svg width="132" height="123.16" viewBox="-8.59 -8.59 567.19 529.19" id="microns-star" x="1276" y="388.47" xmlns="http://www.w3.org/2000/svg"><path d="M181 286L64 188l154-12 57-146 58 146 153 12-117 98 38 150-132-82-131 86 37-154z"/></svg><svg width="116" height="132" viewBox="-8 -8 464 528" id="microns-strikeout" x="1276" y="511.63" xmlns="http://www.w3.org/2000/svg"><path d="M424 280H322q18 23 18 54 0 43-33 71-33 27-77 27-41 0-74-23-34-24-48-69l64-17q6 24 22 38 15 13 37 13 19 0 32-11t13-27q0-19-15-31-15-13-44-25H24v-48h114q-21-25-21-58 0-42 32-68 31-26 72-26 39 0 73 23 34 22 39 60l-64 13q-7-18-17-27-11-9-29-9-17 0-29 10-13 9-13 26t12 27q12 9 30 17 17 8 26 12h175v48z"/></svg><svg width="132" height="132" viewBox="-8 -8 528 528" id="microns-subtitles" x="1276" y="643.63" xmlns="http://www.w3.org/2000/svg"><path d="M96 416q-14 0-23-9t-9-23V128q0-14 9-23t23-9h320q14 0 23 9t9 23v256q0 14-9 23t-23 9H96zm80-120v-40h-64v40h64zm224 0v-40H208v40h192zm-96 72v-40H112v40h192zm96 0v-40h-64v40h64z"/></svg><svg width="129" height="132" viewBox="-8 -8 516 528" id="microns-text" x="1276" y="775.63" xmlns="http://www.w3.org/2000/svg"><path d="M365 432l-37-80H172l-37 80H64L227 80h45l164 352h-71zM201 288h98l-49-105-49 105z"/></svg><svg width="132" height="132" viewBox="-8 -8 528 528" id="microns-text-size" x="1276" y="907.63" xmlns="http://www.w3.org/2000/svg"><path d="M256 144H128V80h320v64H320v288h-64V144zM144 272H64v-48h168v48h-40v160h-48V272z"/></svg><svg width="100" height="132" viewBox="-8 -8 400 528" id="microns-text-unstyle" x="1276" y="1039.63" xmlns="http://www.w3.org/2000/svg"><path d="M356 420l-32 32-113-113v93h-66V273L-36 92l32-32 360 360zM211 144v67L80 80h259v64H211z"/></svg><svg width="100" height="132" viewBox="-8 -8 400 528" id="microns-underline" y="1182.5" xmlns="http://www.w3.org/2000/svg"><path d="M192 352q-53 0-90-37-38-38-38-91V80h64v144q0 27 19 46 18 18 45 18t46-18q18-19 18-46V80h64v144q0 53-37 91-38 37-91 37zM64 384h256v48H64v-48z"/></svg><svg width="132" height="132" viewBox="-8 -8 528 528" id="microns-undo" x="100" y="1182.5" xmlns="http://www.w3.org/2000/svg"><path d="M448 384q-59-48-113-72-55-24-111-24v92L60 216 224 52v92q96 22 150 78 54 55 74 162z"/></svg><svg width="132" height="129.07" viewBox="-8.19 -8.19 540.38 528.38" id="microns-up" x="232" y="1182.5" xmlns="http://www.w3.org/2000/svg"><path d="M460 321l-34 34-164-163L98 355l-34-34 198-196 198 196z"/></svg><svg width="132" height="132" viewBox="-8 -8 528 528" id="microns-upload" x="1408" xmlns="http://www.w3.org/2000/svg"><path d="M64 64h384v48H64V64zm168 234l3-56-23 28-56 53-32-32 132-132 132 132-32 32-56-53-23-28 3 56v150h-48V298z"/></svg><svg width="132" height="132" viewBox="-8 -8 528 528" id="microns-user" x="1408" y="132" xmlns="http://www.w3.org/2000/svg"><path d="M256 288q-40 0-68-28t-28-68q0-40 28-68t68-28q40 0 68 28t28 68q0 40-28 68t-68 28zm-128 97q0-28 19-46 18-19 46-19h126q28 0 47 19 18 18 18 46v31H128v-31z"/></svg><svg width="132" height="128.12" viewBox="-8.25 -8.25 544.5 528.5" id="microns-video" x="1408" y="264" xmlns="http://www.w3.org/2000/svg"><path d="M264 456q-53 0-100-27-46-27-73-73T64 256q0-54 27-100t73-73q46-27 100-27t100 27q46 27 73 73t27 100q0 53-27 100-27 46-73 73t-100 27zm81-200l-129-96v192l129-96z"/></svg><svg width="132" height="131.01" viewBox="-8.06 -8.06 532.13 528.13" id="microns-vol-high" x="1408" y="392.12" xmlns="http://www.w3.org/2000/svg"><path d="M64 176h64L240 64v384L128 336H64V176zm216 224q50-7 85-49t35-95q0-53-35-95t-85-49V64q46 5 85 33 38 27 61 70 22 42 22 89t-22 90q-23 42-61 70-39 27-85 32v-48zm4-236q30 9 49 34t19 58q0 30-19 57-19 26-49 36V164z"/></svg><svg width="80" height="132" viewBox="-8 -8 320 528" id="microns-vol-low" x="1408" y="523.13" xmlns="http://www.w3.org/2000/svg"><path d="M128 336H64V176h64L240 64v384L128 336z"/></svg><svg width="108" height="132" viewBox="-8 -8 432 528" id="microns-vol-mid" x="1408" y="655.13" xmlns="http://www.w3.org/2000/svg"><path d="M64 336V176h64L240 64v384L128 336H64zm220-172q30 9 49 34t19 58q0 30-19 57-19 26-49 36V164z"/></svg><svg width="132" height="132" viewBox="-8 -8 528 528" id="microns-vol-mute" x="1408" y="787.13" xmlns="http://www.w3.org/2000/svg"><path d="M420 452l-44-44q-22 15-47 26-26 11-49 14v-48q31-5 61-27L240 272v176L128 336H64V176h80L60 92l32-32 360 360-32 32zM240 64v80l-39-42 39-38zm160 192q0-53-35-94-35-42-85-50V64q46 5 85 33 38 27 61 70 22 42 22 89 0 19-5 44-6 25-14 41l-37-37q8-26 8-48zm-116-92q30 9 49 34t19 58v4l-68-68v-28z"/></svg><svg width="132" height="128.12" viewBox="-8.25 -8.25 544.5 528.5" id="microns-warn" x="1408" y="919.13" xmlns="http://www.w3.org/2000/svg"><path d="M264 56q54 0 100 27t73 73q27 46 27 100t-27 100q-27 46-73 73t-100 27q-54 0-100-27t-73-73q-27-46-27-100t27-100q27-46 73-73t100-27zm-32 88v128h64V144h-64zm0 160v64h64v-64h-64z"/></svg><svg width="132" height="117.78" viewBox="-9 -9 594 530" id="microns-web" x="1408" y="1047.25" xmlns="http://www.w3.org/2000/svg"><path d="M288 32q62 0 114 31 51 30 81 82 29 51 29 111 0 62-30 114-31 51-82 81-52 29-112 29-62 0-113-30-52-31-81-82-30-52-30-112 0-62 31-113 30-52 82-81 51-30 111-30zm-16 51q-37 12-54 68 27 7 54 9V83zm32 77q27-2 54-9-17-56-54-68v77zm63-62q13 20 20 43 16-8 24-13-19-17-44-30zm-178 43q8-24 20-43-24 12-43 31l23 12zm274 99q-3-47-31-87-20 13-36 19 7 33 8 68h59zm-283-68q-15-6-35-19-27 38-32 87h59q1-35 8-68zm92 20q-34-3-62-10-5 26-6 58h68v-48zm100 48q-1-32-6-58-28 7-62 10v48h68zm-259 32q5 49 32 87 14-10 35-19-7-33-8-68h-59zm91 0q1 32 6 58 28-7 62-10v-48h-68zm100 48q34 3 62 10 5-26 6-58h-68v48zm92 20q15 6 35 19 27-38 32-87h-59q-1 35-8 68zm-92 89q37-12 54-68-27-7-54-9v77zm-32-77q-27 2-54 9 17 56 54 68v-77zm-83 19q-13 5-23 12 19 18 42 30-13-22-19-42zm198 0q-7 23-20 42 23-10 43-30l-23-12z"/></svg><svg width="132" height="108.69" viewBox="-9.78 -9.78 645.56 531.56" id="microns-wifi" x="1408" y="1165.03" xmlns="http://www.w3.org/2000/svg"><path d="M64 166q51-51 116-77 64-26 133-26t134 26q64 26 115 77l-34 34q-44-44-99-66-56-23-116-23t-116 23q-56 22-99 66l-34-34zm68 68q37-37 84-56t97-19q50 0 97 19t84 56l-34 34q-30-30-68-45-38-16-79-16t-79 16q-39 15-68 45l-34-34zm68 68q23-23 52-35t61-12q32 0 61 12t52 35l-34 33q-16-16-37-24t-42-8q-22 0-42 8-21 8-37 24l-34-33zm67 67q20-18 46-18t45 18l-45 46-46-46z"/></svg><svg width="132" height="132" viewBox="-8 -8 528 528" id="microns-zoom-in" y="1314.5" xmlns="http://www.w3.org/2000/svg"><path d="M416 448l-97-97q-42 32-95 32-43 0-80-21-37-22-58-59-22-37-22-80t22-80q21-37 58-58 37-22 80-22t80 22q37 21 59 58 21 37 21 80 0 54-33 96l97 97-32 32zM248 304v-56h56v-48h-56v-56h-48v56h-56v48h56v56h48z"/></svg><svg width="132" height="132" viewBox="-8 -8 528 528" id="microns-zoom-out" x="132" y="1314.5" xmlns="http://www.w3.org/2000/svg"><path d="M416 448l-97-97q-42 32-95 32-43 0-80-21-37-22-58-59-22-37-22-80t22-80q21-37 58-58 37-22 80-22t80 22q37 21 59 58 21 37 21 80 0 54-33 96l97 97-32 32zM144 248h160v-48H144v48z"/></svg></svg>