<?xml version="1.0" encoding="utf-8"?><svg width="112" height="112" viewBox="0 0 112 112" xmlns="http://www.w3.org/2000/svg" xmlns:xlink="http://www.w3.org/1999/xlink"><svg viewBox="-10.67 -10.67 149.33 149.33" width="28" height="28" id="noto-emoji-emoji_u1f3cb_1f3fb" xmlns="http://www.w3.org/2000/svg"><linearGradient id="aaaa" gradientUnits="userSpaceOnUse" x1="77.018" y1="71.379" x2="77.018" y2="109.706" gradientTransform="translate(0 2)"><stop offset="0" stop-color="#ffd29c"/><stop offset=".5" stop-color="#f9ddbd"/></linearGradient><path d="M87.45 86.8c-1.78-1.92-4.11-4.42-6.15-6.58-3.96-4.17-8.8-7.29-8.8-7.29l-8.05 8.64s3.13 5.76 7.12 9.19c1.95 1.68 4.39 3.39 6.38 4.71-.3.99-.6 2.28-.73 3.82-.38 4.78.36 11.08.39 11.78.12 3.66.16 6.37.16 6.37l6.34-.02L89.39 94c.58-2.57-.14-5.27-1.94-7.2z" fill="url(#aaaa)"/><linearGradient id="aaab" gradientUnits="userSpaceOnUse" x1="50.982" y1="71.379" x2="50.982" y2="109.706" gradientTransform="translate(0 2)"><stop offset="0" stop-color="#ffd29c"/><stop offset=".5" stop-color="#f9ddbd"/></linearGradient><path d="M55.49 72.93s-4.84 3.12-8.79 7.3c-2.04 2.16-4.37 4.66-6.15 6.58a7.983 7.983 0 00-1.94 7.2l5.28 23.42 6.34.02s.04-2.71.16-6.37c.02-.7.77-7 .39-11.78-.12-1.54-.43-2.83-.73-3.82 1.99-1.32 4.43-3.03 6.38-4.71 3.99-3.43 7.12-9.19 7.12-9.19l-8.06-8.65z" fill="url(#aaab)"/><path fill="#e0e0e0" d="M42.29 111.07l1.61 6.35 6.34.02.14-6.37z"/><path d="M52.42 119.94c-.01-1.92-1.66-4.1-1.66-4.1h-7.75l-5.98 2.11a4.036 4.036 0 00-2.56 3.75v1.28c0 .56.45 1.02 1.01 1.02l15.79-.05c.64 0 1.16-.52 1.16-1.17l-.01-2.84z" fill="#4568ad"/><path fill="#e0e0e0" d="M77.61 111.07l.17 6.37 6.33-.02 1.6-6.35z"/><path d="M90.97 117.95L85 115.84h-7.75s-1.66 2.18-1.66 4.11l-.01 2.84c0 .64.52 1.16 1.16 1.17l15.78.04c.56 0 1.01-.45 1.01-1.02v-1.28c0-1.66-1.02-3.14-2.56-3.75z" fill="#4568ad"/><path d="M74.86 41.11c-.39-.7.11-1.42.94-2.3 1.33-1.4 2.78-4.66 1.44-7.97.01-.02-.26-.58-.26-.59l-.56-.03c-.18-.03-6.27-.04-12.36-.04s-12.18.01-12.36.04c0 0-.82.6-.81.62-1.35 3.31.1 6.56 1.44 7.97.84.88 1.33 1.6.94 2.3-.37.68-1.49.78-1.49.78s.26.7.88 1.08c.57.35 1.28.43 1.76.44 0 0 1.9 2.63 6.87 2.63h5.54c4.97 0 6.87-2.63 6.87-2.63.49-.01 1.19-.09 1.76-.44.62-.38.88-1.08.88-1.08s-1.11-.09-1.48-.78z" fill="#312d2d"/><radialGradient id="aaac" cx="109.646" cy="42.861" r="7.242" gradientTransform="matrix(1 0 0 -.4912 -41.072 62.879)" gradientUnits="userSpaceOnUse"><stop offset=".728" stop-color="#454140" stop-opacity="0"/><stop offset="1" stop-color="#454140"/></radialGradient><path d="M64.06 46.04v-2.92l8.84-.7.8.99s-1.9 2.63-6.87 2.63h-2.77z" fill="url(#aaac)"/><radialGradient id="aaad" cx="103.996" cy="37.956" r="2.14" gradientTransform="matrix(-.9057 .4238 .3144 .6719 157.967 -28.83)" gradientUnits="userSpaceOnUse"><stop offset=".663" stop-color="#454140"/><stop offset="1" stop-color="#454140" stop-opacity="0"/></radialGradient><path d="M73.68 42.14c-1.32-2.01 1.61-2.76 1.61-2.76-.51.63-.74 1.19-.44 1.73.37.68 1.49.78 1.49.78s-1.52 1.35-2.66.25z" fill="url(#aaad)"/><radialGradient id="aaae" cx="110.132" cy="34.801" r="9.401" gradientTransform="matrix(-.0746 -.9972 -.8311 .0622 107.303 142.355)" gradientUnits="userSpaceOnUse"><stop offset=".725" stop-color="#454140" stop-opacity="0"/><stop offset="1" stop-color="#454140"/></radialGradient><path d="M77.24 30.85c1.31 3.2-.07 6.5-1.36 7.89-.18.19-.93.93-1.1 1.52 0 0-2.95-4.12-3.83-6.53-.18-.49-.34-.99-.36-1.51-.02-.39.04-.85.27-1.18.28-.41 6.24-.52 6.24-.52-.01-.01.14.33.14.33z" fill="url(#aaae)"/><radialGradient id="aaaf" cx="59.899" cy="32.408" r="9.401" gradientTransform="matrix(.0746 -.9972 .8311 .0622 26.571 92.41)" gradientUnits="userSpaceOnUse"><stop offset=".725" stop-color="#454140" stop-opacity="0"/><stop offset="1" stop-color="#454140"/></radialGradient><path d="M50.89 30.85c-1.31 3.2.07 6.5 1.36 7.89.18.19.93.93 1.1 1.52 0 0 2.95-4.12 3.83-6.53.18-.49.34-.99.36-1.51.02-.39-.04-.85-.27-1.18-.28-.41-.6-.3-1.06-.3-.89 0-4.79-.23-5.09-.23.01 0-.23.34-.23.34z" fill="url(#aaaf)"/><radialGradient id="aaag" cx="61.562" cy="42.861" r="7.242" gradientTransform="matrix(-1 0 0 -.4912 121.124 62.879)" gradientUnits="userSpaceOnUse"><stop offset=".728" stop-color="#454140" stop-opacity="0"/><stop offset="1" stop-color="#454140"/></radialGradient><path d="M64.07 46.04v-2.92l-8.84-.7-.8.99s1.9 2.63 6.87 2.63h2.77z" fill="url(#aaag)"/><radialGradient id="aaah" cx="52.1" cy="39.099" r="2.14" gradientTransform="matrix(.9057 .4238 -.3144 .6719 17.533 -7.604)" gradientUnits="userSpaceOnUse"><stop offset=".663" stop-color="#454140"/><stop offset="1" stop-color="#454140" stop-opacity="0"/></radialGradient><path d="M54.46 42.14c1.33-2.01-1.61-2.76-1.61-2.76.51.63.74 1.19.44 1.73-.37.68-1.49.78-1.49.78s1.51 1.35 2.66.25z" fill="url(#aaah)"/><linearGradient id="aaai" gradientUnits="userSpaceOnUse" x1="80.671" y1="41.656" x2="93.508" y2="20.633" gradientTransform="translate(0 2)"><stop offset="0" stop-color="#ffd29c"/><stop offset=".5" stop-color="#f9ddbd"/></linearGradient><path d="M96.26 23.12l-4.54-2.29c-3.63 3.56-5.35 6.61-6.97 11.92-3.43 1.63-6.39 4.62-8.31 7.71-2.04 2.81-3.32 4.37-4.79 7.16-1.11 2.12-.31 4.48 1.7 5.95.95.7 1.72 1 2.47 1 .84 0 1.64-.39 2.62-1.05 2.07-1.18 4.88-4.3 6.68-6.62l-.05-.03c2.29-2.85 4.6-6.87 5.75-10.67 3.22-3.36 5.44-7.77 5.44-13.08z" fill="url(#aaai)"/><linearGradient id="aaaj" gradientUnits="userSpaceOnUse" x1="47.197" y1="41.477" x2="34.267" y2="20.733" gradientTransform="translate(0 2)"><stop offset="0" stop-color="#ffd29c"/><stop offset=".5" stop-color="#f9ddbd"/></linearGradient><path d="M56.35 47.63c-1.47-2.79-2.75-4.35-4.79-7.16-1.92-3.09-4.88-6.08-8.31-7.71-1.63-5.33-3.35-8.37-6.98-11.93l-4.53 2.3c0 5.31 2.22 9.71 5.44 13.08 1.15 3.79 3.45 7.82 5.75 10.67l-.05.03c1.8 2.32 4.61 5.44 6.68 6.62.98.66 1.78 1.05 2.62 1.05.75 0 1.52-.31 2.47-1 2-1.47 2.81-3.84 1.7-5.95z" fill="url(#aaaj)"/><linearGradient id="aaak" gradientUnits="userSpaceOnUse" x1="64" y1="44.123" x2="64" y2="69.62" gradientTransform="translate(0 2)"><stop offset="0" stop-color="#f78c1f"/><stop offset=".494" stop-color="#f37f20"/><stop offset="1" stop-color="#ed6d23"/></linearGradient><path d="M76.44 40.46c-1.79 2.46-2.99 3.97-4.25 6.18-1.23-.32-2.62-.5-4.16-.5h-8.17c-1.51 0-2.86.18-4.06.49-1.26-2.21-2.46-3.72-4.25-6.18l-8.67 6.45c1.8 2.32 5.68 6.62 5.68 6.62.83 4.06 5.61 20.2 5.61 20.2h20.27l5.17-20.28s3.75-4.28 5.51-6.53l-8.68-6.45z" fill="url(#aaak)"/><path d="M60.53 46.84c0 1.66 1.41 3.01 3.15 3.01h.63c1.74 0 3.15-1.35 3.15-3.01v-3.67h-6.93v3.67zM55.54 38.6c-1.55 0-2.82-1.36-2.82-3.03s1.26-3.03 2.82-3.03h16.92c1.55 0 2.82 1.36 2.82 3.03s-1.26 3.03-2.82 3.03H55.54z" fill="#edc391"/><path d="M64 19.95c-5.36 0-10.32 5.73-10.32 13.97 0 8.2 5.11 12.25 10.32 12.25s10.32-4.05 10.32-12.25c0-8.24-4.96-13.97-10.32-13.97z" fill="#f9ddbd"/><path d="M65.19 37.49l-.1-.03H62.9c-.03 0-.07.01-.1.03-.2.08-.31.29-.21.51.09.22.53.83 1.41.83.88 0 1.31-.61 1.41-.83a.38.38 0 00-.22-.51z" fill="#dba689"/><path d="M66.6 39.97c-.99.59-4.22.59-5.2 0-.57-.34-1.15.18-.91.69.23.51 2 1.68 3.52 1.68s3.27-1.17 3.5-1.68-.34-1.03-.91-.69z" /><g fill="#312d2d"><ellipse cx="58.98" cy="34.62" rx="1.5" ry="1.56"/><ellipse cx="69.02" cy="34.62" rx="1.5" ry="1.56"/></g><g fill="#454140"><path d="M61.21 31.82c-.29-.38-.95-.93-2.23-.93-1.29 0-1.95.55-2.23.93-.13.17-.09.36-.01.48.08.11.32.21.59.12s.78-.36 1.65-.37c.87.01 1.39.27 1.65.37.27.09.51-.01.59-.12a.39.39 0 00-.01-.48zM71.25 31.82c-.29-.38-.95-.93-2.23-.93-1.29 0-1.95.55-2.23.93-.13.17-.09.36-.01.48.08.11.32.21.59.12s.78-.36 1.65-.37c.87.01 1.39.27 1.65.37.27.09.51-.01.59-.12a.39.39 0 00-.01-.48z"/></g><path d="M76.46 24.19c-.75-1.14-2.45-2.67-3.96-2.77-.24-1.46-1.81-2.7-3.32-3.17-4.09-1.3-6.75.16-8.19.94-.3.16-2.22 1.23-3.56.46-.84-.48-.83-1.77-.83-1.77s-2.64 1-1.74 3.8c-.9.04-2.09.42-2.72 1.69-.75 1.51-.48 2.78-.27 3.39-.78.66-1.76 2.07-1.09 3.9.51 1.38 2.53 2.01 2.53 2.01-.14 2.48.32 4 .56 4.62.04.11.2.1.22-.01.31-1.23 1.35-5.5 1.25-6.25 0 0 3.51-.7 6.85-3.16.68-.5 1.42-.93 2.2-1.24 4.2-1.67 5.08 1.18 5.08 1.18s2.91-.56 3.79 3.49c.33 1.52.56 3.94.74 5.64.01.12.18.15.22.03.29-.67.88-2.01 1.02-3.37.05-.48 1.34-1.11 1.9-3.17.78-2.78-.14-5.42-.68-6.24z" fill="#312d2d"/><radialGradient id="aaal" cx="69.378" cy="29.603" r="11.019" gradientTransform="matrix(.3076 .9515 -.706 .2282 69.195 -43.035)" gradientUnits="userSpaceOnUse"><stop offset=".699" stop-color="#454140" stop-opacity="0"/><stop offset="1" stop-color="#454140"/></radialGradient><path d="M75.27 33.58c.05-.48 1.34-1.11 1.9-3.17.06-.22.11-.44.15-.67.45-2.5-.36-4.8-.86-5.56-.7-1.06-2.2-2.44-3.62-2.73-.12-.02-.24-.03-.36-.04 0 0 .1.66-.17 1.19-.35.69-1.05.85-1.05.85 3.7 3.72 3.44 6.82 4.01 10.13z" fill="url(#aaal)"/><radialGradient id="aaam" cx="58.541" cy="16.376" r="2.889" gradientTransform="matrix(.8813 .4726 -.5603 1.045 16.48 -27.056)" gradientUnits="userSpaceOnUse"><stop offset=".58" stop-color="#454140"/><stop offset="1" stop-color="#454140" stop-opacity="0"/></radialGradient><path d="M61.89 18.71c-.34.16-.64.33-.9.47-.3.16-2.22 1.23-3.56.46-.83-.47-.83-1.73-.83-1.77-.38.49-1.53 3.95 1.83 4.18 1.45.1 2.35-1.17 2.88-2.24.19-.38.5-.95.58-1.1z" fill="url(#aaam)"/><radialGradient id="aaan" cx="164.404" cy="66.859" r="8.882" gradientTransform="matrix(-.9378 -.3944 .2182 -.5285 204.944 123.14)" gradientUnits="userSpaceOnUse"><stop offset=".699" stop-color="#454140" stop-opacity="0"/><stop offset="1" stop-color="#454140"/></radialGradient><path d="M68.75 18.11c2.26.61 3.37 1.76 3.74 3.3.11.45.24 4.66-7.8-.12-2.99-1.78-2.17-2.9-1.82-3.02 1.36-.49 3.35-.84 5.88-.16z" fill="url(#aaan)"/><radialGradient id="aaao" cx="57.734" cy="18.539" r="2.652" gradientTransform="matrix(1 0 0 1.2233 0 -2.322)" gradientUnits="userSpaceOnUse"><stop offset=".702" stop-color="#454140" stop-opacity="0"/><stop offset="1" stop-color="#454140"/></radialGradient><path d="M56.59 17.87c-.01 0-.01 0-.02.01-.29.12-2.55 1.17-1.71 3.79l2.41.39c-2.12-2.16-.67-4.2-.68-4.19.01-.01.01 0 0 0z" fill="url(#aaao)"/><radialGradient id="aaap" cx="59.595" cy="24.791" r="4.974" gradientTransform="matrix(-.9657 -.2598 .2432 -.9037 108.89 62.925)" gradientUnits="userSpaceOnUse"><stop offset=".66" stop-color="#454140" stop-opacity="0"/><stop offset="1" stop-color="#454140"/></radialGradient><path d="M56.36 21.91l-1.49-.24c-.06 0-.26.02-.36.03-.84.12-1.82.55-2.36 1.66-.57 1.19-.56 2.22-.4 2.9.04.23.14.49.14.49s.74-.7 2.49-.74l1.98-4.1z" fill="url(#aaap)"/><radialGradient id="aaaq" cx="56.063" cy="28.232" r="5.222" gradientTransform="matrix(.9907 .1363 -.1915 1.3921 6.058 -17.103)" gradientUnits="userSpaceOnUse"><stop offset=".598" stop-color="#454140" stop-opacity="0"/><stop offset="1" stop-color="#454140"/></radialGradient><path d="M51.81 26.81c-.73.65-1.72 2.1-.99 3.9.55 1.36 2.5 1.95 2.5 1.95 0 .01.39.12.59.12l.46-6.78c-.94 0-1.84.28-2.42.68.01.02-.14.12-.14.13z" fill="url(#aaaq)"/><radialGradient id="aaar" cx="35.39" cy="19.198" r="5.677" gradientTransform="translate(0 2)" gradientUnits="userSpaceOnUse"><stop offset="0" stop-color="#ffd29c"/><stop offset=".5" stop-color="#f9ddbd"/></radialGradient><path d="M40.26 17.16c-.9-.53-5.17-1.2-8.12-1.2-1.62 0-2.83.21-2.83.76l-.01 3.43c-.01 3.45 2.24 6.27 5.96 6.28h.01c6.74 0 7.27-7.94 4.99-9.27z" fill="url(#aaar)"/><path d="M40.02 20.82c-.04.13-.39.26-.77.36h-.01c-.44.11-.96.33-1.93.6-1.35.38-1.46 2.19-1.46 2.19-.25-.94.39-2.59 1.28-2.97v-.01c.42-.2.89-.31 1.39-.39.08-.01.28-.02.53-.01h.01c.45.01 1.01.07.96.23z" fill="#edbd82"/><g><linearGradient id="aaas" gradientUnits="userSpaceOnUse" x1="64" y1="13.379" x2="64" y2="19.437" gradientTransform="translate(0 2)"><stop offset="0" stop-color="#bdbdbd"/><stop offset="1" stop-color="#757575"/></linearGradient><path d="M124 18.5c0 1.38-.73 2.5-1.64 2.5H5.64C4.74 21 4 19.88 4 18.5S4.74 16 5.64 16h116.71c.91 0 1.65 1.12 1.65 2.5z" fill="url(#aaas)"/><radialGradient id="aaat" cx="-102.258" cy="115.861" r="24.348" gradientTransform="matrix(0 .9016 .507 0 -37.874 100.877)" gradientUnits="userSpaceOnUse"><stop offset=".396" stop-color="#9e9e9e"/><stop offset=".79" stop-color="#646464"/></radialGradient><path d="M20.92 32.99c3.31 0 6-2.69 6-6V10.14c0-3.31-2.69-6-6-6s-6 2.69-6 6v16.85c0 3.31 2.68 6 6 6z" fill="url(#aaat)"/><radialGradient id="aaau" cx="-1251.918" cy="123.75" r="24.348" gradientTransform="matrix(0 .9016 -.507 0 169.876 1137.497)" gradientUnits="userSpaceOnUse"><stop offset=".396" stop-color="#9e9e9e"/><stop offset=".79" stop-color="#646464"/></radialGradient><path d="M107.08 32.99c-3.31 0-6-2.69-6-6V10.14c0-3.31 2.69-6 6-6s6 2.69 6 6v16.85c0 3.31-2.68 6-6 6z" fill="url(#aaau)"/><radialGradient id="aaav" cx="-172.46" cy="114.075" r="3.543" gradientTransform="matrix(1.3333 0 0 -2.3062 240.163 275.933)" gradientUnits="userSpaceOnUse"><stop offset=".441" stop-color="#9e9e9e"/><stop offset=".985" stop-color="#646464"/></radialGradient><path d="M10 27.22c2.21 0 4-1.79 4-4v-9.31c0-2.21-1.79-4-4-4s-4 1.79-4 4v9.31c0 2.21 1.79 4 4 4z" fill="url(#aaav)"/><radialGradient id="aaaw" cx="-1204.1" cy="114.075" r="3.543" gradientTransform="matrix(-1.3333 0 0 -2.3062 -1487.734 275.933)" gradientUnits="userSpaceOnUse"><stop offset=".441" stop-color="#9e9e9e"/><stop offset=".985" stop-color="#646464"/></radialGradient><path d="M118 27.22c-2.21 0-4-1.79-4-4v-9.31c0-2.21 1.79-4 4-4s4 1.79 4 4v9.31c0 2.21-1.79 4-4 4z" fill="url(#aaaw)"/></g><path fill="#646464" d="M38.61 21h-9.33l-.8-5h10.13z"/><linearGradient id="aaax" gradientUnits="userSpaceOnUse" x1="34.798" y1="14.626" x2="34.903" y2="11.312" gradientTransform="translate(0 2)"><stop offset="0" stop-color="#ffd29c"/><stop offset=".5" stop-color="#f9ddbd"/></linearGradient><path d="M41.22 15.04l-.29 1.55-.06.34-.14.75-.08.44a1.88 1.88 0 01-2.18 1.5c-.46-.08-.85-.32-1.12-.68-.33.3-.76.47-1.23.47-.28 0-1.16-.39-1.31-.54a.689.689 0 01-.11-.13c-.04.03-.08.07-.12.1-.02.01-.59.35-1.17.34-.54-.01-1.08-.34-1.24-.5-.16.23-.38.43-.64.57-.18.11-.38.18-.6.21-.1.02-.2.03-.3.03-.4 0-.79-.13-1.11-.37-.42-.3-.69-.74-.76-1.24l-.13-.85v-.01l-.17-1.09c-.08-.5.04-1 .34-1.41.3-.42.74-.69 1.24-.76.12-.02.24-.03.36-.02.03 0 .07 0 .1.01.32.02.64.13.92.33.04.03.07.06.1.08.06-.23.18-.45.33-.63.04-.06.08-.11.13-.16.06-.07.11-.1.13-.12.01 0 .01-.01.01-.01.3-.26.69-.42 1.12-.44.14-.01.28 0 .41.02.1.02.19.05.28.08.26.08.49.21.69.39.06-.08.13-.16.2-.23.1-.1.21-.19.32-.26.06-.04.13-.07.19-.11.25-.12.53-.18.82-.17.32 0 .63.08.91.24.05.02.09.05.13.08.1.07.19.15.28.24.16.16.29.35.38.55.12-.18.28-.35.47-.48.04-.03.09-.06.14-.08.2-.11.41-.19.63-.22.21-.03.42-.03.63.01.5.09.92.37 1.21.78.28.42.38.91.29 1.4z" fill="url(#aaax)"/><path d="M75.45 74.12l-.7-1.96H53.78l-.38 2-9 7.91L54.44 92.5s6.79-5.67 7.4-6.21c.67-.6 1.48-.67 1.97-.68.49.01 1.3.08 1.97.68.61.55 7.4 6.21 7.4 6.21L83.6 82.07l-8.15-7.95z" fill="#7c7c7c"/><path d="M41.03 16.12c-.35.9-2.25.04-2.97-.33-.11-.88-.22-1.46-.22-1.46v.01c.03.5-.47.86-.94.68-.53-.21-1.14-.38-1.58-.36-.17.01-.31.04-.44.08-.12-.39-.19-.65-.19-.65v.11c-.02.34-.18.66-.46.85-1.09.71-1.37 2.05-.08 3.48-.44.3-1.13.28-1.52-.12-.5-.5-.71-2.09-1-3.27.09.84.34 2.34.22 2.92-.15.7-.85 1.14-1.55.97-.61-.15-1.33-.64-1.68-1.99l.13.85c.07.5.34.94.76 1.24.32.24.71.37 1.11.37.1 0 .2-.01.3-.03.19-.03.36-.09.52-.17.01-.01.03-.01.04-.02.01-.01.03-.01.04-.02.42-.23.63-.55.64-.57.05.08.57.51 1.2.51.87 0 1.21-.35 1.21-.35.08.05.16.09.24.12.06.02 2.4.81 2.31 1.7-.01.11 0 .22.01.33v.05c.03.26.09.51.18.74l.01-.01c.24-.19.82-.03.87-.37.19-1.29.14-2.83.02-4.15l2.52.42.3-1.56z" fill="#edbd82"/><linearGradient id="aaay" gradientUnits="userSpaceOnUse" x1="35.008" y1="18.332" x2="40.307" y2="15.679" gradientTransform="translate(0 2)"><stop offset="0" stop-color="#ffd29c"/><stop offset=".469" stop-color="#f9ddbd"/></linearGradient><path d="M41.51 19.38c-.49-2.69-3.74-3.81-4.96-4.24-.15-.05-2.38-.58-2.65 1.4-.12.86.53 1.8 1.36 2.12 2.27.87 2.26 1.35 2.26 1.67-.01.83.45 2.4 1.17 2.87.15.1.32.16.48.16.1 0 .2-.02.3-.06 1.41-.59 2.32-2.35 2.04-3.92z" fill="url(#aaay)"/><radialGradient id="aaaz" cx="39.39" cy="19.198" r="5.677" gradientTransform="matrix(-1 0 0 1 132.12 2)" gradientUnits="userSpaceOnUse"><stop offset="0" stop-color="#ffd29c"/><stop offset=".5" stop-color="#f9ddbd"/></radialGradient><path d="M87.86 17.16c.9-.53 5.17-1.2 8.12-1.2 1.62 0 2.83.21 2.83.76l.01 3.43c.01 3.45-2.24 6.27-5.96 6.28h-.01c-6.74 0-7.28-7.94-4.99-9.27z" fill="url(#aaaz)"/><path d="M88.1 20.82c.04.13.39.26.77.36h.01c.44.11.96.33 1.93.6 1.35.38 1.46 2.19 1.46 2.19.25-.94-.39-2.59-1.28-2.97v-.01c-.42-.2-.89-.31-1.39-.39-.08-.01-.28-.02-.53-.01h-.01c-.45.01-1.01.07-.96.23z" fill="#edbd82"/><path fill="#646464" d="M89.51 16h10.13l-.8 5h-9.33z"/><linearGradient id="aaaA" gradientUnits="userSpaceOnUse" x1="38.798" y1="14.626" x2="38.903" y2="11.312" gradientTransform="matrix(-1 0 0 1 132.12 2)"><stop offset="0" stop-color="#ffd29c"/><stop offset=".5" stop-color="#f9ddbd"/></linearGradient><path d="M86.9 15.04l.29 1.55.06.34.14.75.08.44a1.88 1.88 0 002.18 1.5c.46-.08.85-.32 1.12-.68.33.3.76.47 1.23.47.28 0 1.16-.39 1.31-.54.04-.04.08-.08.11-.13.04.03.08.07.12.1.02.01.59.35 1.17.34.54-.01 1.07-.34 1.24-.5.16.23.38.43.64.57.18.11.38.18.6.21.1.02.2.03.3.03.4 0 .79-.13 1.11-.37.42-.3.69-.74.76-1.24l.13-.85v-.01l.17-1.09c.08-.5-.04-1-.34-1.41-.3-.42-.74-.69-1.24-.76-.12-.02-.24-.03-.36-.02-.03 0-.07 0-.1.01-.32.02-.64.13-.92.33-.04.03-.07.06-.1.08-.06-.23-.18-.45-.33-.63a1.01 1.01 0 00-.13-.16c-.06-.07-.11-.1-.13-.12-.01 0-.01-.01-.01-.01-.3-.26-.69-.42-1.12-.44-.14-.01-.28 0-.41.02-.1.02-.19.05-.28.08-.26.08-.49.21-.69.39-.06-.08-.13-.16-.2-.23-.1-.1-.21-.19-.32-.26-.06-.04-.13-.07-.19-.11-.25-.12-.53-.18-.82-.17-.32 0-.63.08-.91.24-.05.02-.09.05-.13.08-.1.07-.19.15-.28.24-.16.16-.29.35-.38.55-.12-.18-.28-.35-.47-.48a.638.638 0 00-.14-.08c-.2-.11-.41-.19-.63-.22-.21-.03-.42-.03-.63.01-.5.09-.92.37-1.21.78-.28.42-.38.91-.29 1.4z" fill="url(#aaaA)"/><path d="M87.09 16.12c.35.9 2.25.04 2.97-.33.11-.88.22-1.46.22-1.46v.01c-.03.5.47.86.94.68.53-.21 1.14-.38 1.58-.36.17.01.31.04.44.08.12-.39.19-.65.19-.65v.11c.02.34.18.66.46.85 1.09.71 1.37 2.05.08 3.48.44.3 1.13.28 1.52-.12.5-.5.71-2.09 1-3.27-.09.84-.34 2.34-.22 2.92.14.7.85 1.14 1.55.97.61-.15 1.33-.64 1.68-1.99l-.13.85c-.07.5-.34.94-.76 1.24-.32.24-.71.37-1.11.37-.1 0-.2-.01-.3-.03-.19-.03-.36-.09-.52-.17-.01-.01-.03-.01-.04-.02-.01-.01-.03-.01-.04-.02a1.82 1.82 0 01-.64-.57c-.05.08-.57.51-1.2.51-.87 0-1.21-.35-1.21-.35-.08.05-.16.09-.24.12-.07.02-2.39.81-2.31 1.7.01.11 0 .22-.01.33v.05c-.03.26-.09.51-.18.74l-.01-.01c-.24-.19-.82-.03-.87-.37-.19-1.29-.14-2.83-.02-4.15l-2.52.42-.3-1.56z" fill="#edbd82"/><linearGradient id="aaaB" gradientUnits="userSpaceOnUse" x1="39.008" y1="18.332" x2="44.307" y2="15.679" gradientTransform="matrix(-1 0 0 1 132.12 2)"><stop offset="0" stop-color="#ffd29c"/><stop offset=".469" stop-color="#f9ddbd"/></linearGradient><path d="M86.61 19.38c.49-2.69 3.74-3.81 4.96-4.24.15-.05 2.38-.58 2.65 1.4.12.86-.53 1.8-1.36 2.12-2.27.87-2.26 1.35-2.26 1.67.01.83-.45 2.4-1.17 2.87-.15.1-.32.16-.48.16-.1 0-.2-.02-.3-.06-1.41-.59-2.32-2.35-2.04-3.92z" fill="url(#aaaB)"/></svg><svg viewBox="-10.67 -10.67 149.33 149.33" width="28" height="28" id="noto-emoji-emoji_u1f412" x="28" xmlns="http://www.w3.org/2000/svg"><path d="M71.45 84.59L62.06 67.6l-23.18 8.87s-1.13 1.45-.89 3.99c.1 1.13.61 4.32.61 4.32l-4.32.66s-6.19 5.16-4.22 13.23c1.5 6.13 3.1 9.39 3.1 9.39l-.84 6.01s13.8 6 27.22 5.63c17.18-.47 23.65-9.57 23.65-9.57L78.5 88.92l-7.05-4.33z" fill="#845a54"/><path d="M31.66 86.57c-1.99 1.87-2.32 4.83-2.16 5.87.38 2.44 4.13 9.15 8.26 8.87 4.13-.28 2.16-8.54.84-11.54s-3.75-6.21-6.94-3.2zM20.49 118.94c-.14 2.05 2.16 1.97 6.48 1.97s14.73-.75 14.73-.75l-.84-5.73s-2.61.18-6.19-1.78c-1.45-.8-1.92-1.83-1.92-1.83s-11.98 4-12.26 8.12z" fill="#b5885e"/><path d="M51.61 80.46s-4.6-.18-8.03 3.81c-2.18 2.53-6.66 14.69-3.38 16.38 3.28 1.69 5.53-4.27 6.76-7.04 1.13-2.53 3.19-5.44 4.97-6.38 1.78-.94 3.28-1.97 3.28-1.97l-3.6-4.8zM43.96 113.31s-1.6 0-3.19.56c-1.6.56-10.51 4.88-10.42 7.23.09 2.35 5.54 2.35 12.29 2.25 6.76-.09 8.54-1.41 9.1-1.97.56-.56 2.72-3.47 1.97-3.85-.74-.37-9.75-4.22-9.75-4.22z" fill="#ffcd88"/><path d="M69.01 70.23s5.26-4.6 7.32-9.01c2.06-4.41 1.97-8.63 1.97-8.63s9.97-2.63 7.46-14.96c-2.12-10.44-10.56-8.22-10.56-8.22s-5.73-11.92-21.12-15.2-28.87 4.32-34.54 12.01c-6.57 8.92-5.44 20.37-5.44 20.37s-5.07-.47-7.41 4.04C4.26 55.3 5.09 62.92 9.6 66.4c4.5 3.47 11.54 2.53 11.54 2.53s4.88 5.26 10.51 7.6c5.78 2.41 11.26 2.72 17.93 2.06s12.01-4.13 12.01-4.13-.28 1.88.94 4.32c.76 1.51 3.38 4.41 3.38 4.41s-4.27-2.25-7.7-2.86c-3.72-.66-6.1-.42-7.51.42-1.07.64.31 5.73 1.88 6.01 1.6.28 4.22-.47 8.82 1.31 4.6 1.78 10.51 6.01 12.01 6.95 1.5.94 4.55 2.53 4.79 4.6.18 1.59-2.39 3.66-6.9-.94-4.32-4.41-8.49-8.63-13.19-9.2-4.69-.56-7.6.66-9.76 5.35-2.77 6.03-5.07 13.33-5.54 15.2-.47 1.88-1.78 2.91-.75 4.69.72 1.24 8.67 5.87 10.51 5.73 2.35-.19 4.22-4.97 4.79-5.82.56-.84 1.78-2.63 1.78-2.63s4.13 9.76 12.86 8.92 9.95-6.29 9.95-6.29 6.79.34 13.98-1.71c9.64-2.75 16.23-11.56 18.3-25.69 1.5-10.23-.38-25.15-5.16-37.64-1.76-4.58-3.83-10.01-5.16-13.8-3.41-9.66-4.6-16.64.94-18.68 2.82-1.04 4.63.19 5.45 1.8 1.12 2.21 1.31 4.95 4.87 6.36 2.54 1 5.73.19 7.13-2.16 1.76-2.94 1.14-7.24-2.63-12.11-6.48-8.35-17.27-7.56-23.18-3.1-6.32 4.76-9.01 11.1-5.91 22.99 2.91 11.17 9.31 25.39 10.7 32.29 1.88 9.29 3.58 32.13-7.98 36.79-5.35 2.16-9.29 1.31-9.29 1.31s-.94-10.68-4.32-18.4c-3.85-8.81-10.68-12.65-10.68-12.65z" fill="#b5885d"/><path d="M71.36 35.28c-.16.2.91 3.13 1.31 6.19.45 3.39.59 6.67.88 6.77.56.19 8.88-1.89 7.85-9.59s-9.66-3.84-10.04-3.37zM14.58 51.28c-.74-.56-5.55.79-4.97 6.29.75 7.13 7.79 7.13 8.45 6.66.34-.24-1-3.49-1.88-6.66-.85-3.05-1.23-6.02-1.6-6.29zM41.23 36.35c-4.5 1.5-10.79-5.73-16.24 0-6.67 7.01 1.26 13.31 1.88 18.21.38 3-1.31 5.26.38 10.32 1.41 4.22 9.24 10.5 23.48 7.61 13.33-2.71 16.46-11.15 16.11-16.46-.39-5.92-3.17-6.26-3.73-9.26s2.59-14.82-6.57-17.27c-9.49-2.53-10.46 5.24-15.31 6.85z" fill="#ffcf8c"/><path d="M56.88 43.58c.56 3.38.21 5.63-2.18 6.19-2.86.67-4.72-1.27-5.28-4.72-.69-4.21.16-6.19 2.35-6.6 2.7-.5 4.41.88 5.11 5.13zM37.88 46.89c.64 3.22.75 6.1-1.83 6.76-2.47.63-4.52-.95-5.42-4.43-1.06-4.08-.71-6.44 1.62-7.11 2.4-.7 4.64-.22 5.63 4.78zM41.26 52.53c.06 1.62 2.81 3.58 4.42 3.33 1.74-.28 3.38-3.72 2.81-4.74-.74-1.32-7.28-.07-7.23 1.41z" fill="#000504"/><path d="M34.68 62.87c.28 2.25 5.07 5.65 13.8 3.94 9.01-1.76 10.35-7.25 10.21-8.59-.14-1.34-4.72-2.04-12.53-.7-6.13 1.05-11.71 3.55-11.48 5.35z" fill="#ff6b19"/></svg><svg viewBox="-10.67 -10.67 149.33 149.33" width="28" height="28" id="noto-emoji-emoji_u1f42c" y="28" xmlns="http://www.w3.org/2000/svg"><path d="M15.57 49.21c-1.8 4.64-5.62 6.83-6.48 10.56-.99 4.32 3.1 8.73 7.18 8.59s13.08-5.04 16.19-6.76c3.57-1.97 11.92-5.87 11.92-5.87l23.28-5.96L83.7 65.4l-1.41 12.95s-.84 3.38-2.67 6.62-7.18 8.17-10.42 7.32c-3.24-.84-4.83-6.49-9.71-8.87-5.77-2.82-14.5-3.1-14.78-.7s4.22 3.24 5.35 4.5c1.13 1.27 2.67 6.48 4.36 8.17 1.69 1.69 5.35 4.08 5.35 4.08s-3.66 4.65-3.94 8.31.42 7.32-.14 8.59c-.56 1.27-3.94 4.93-2.25 6.19s10.84-5.21 13.37-10.14c2.53-4.93 3.66-8.31 4.79-9.29s16.33-3.52 26.89-17.03 10.7-29.99 10.42-37.03c-.28-7.04-3.28-13.47-.75-17.41s5.27-4.75 6.71-5.21c1.92-.61 4.27-1.13 3.75-3.28-.39-1.65-2.16-6.1-12.11-8.45-7.02-1.65-14.22.28-14.22.28S69.16-.5 43.86 6.56c-24.21 6.76-31.82 22.81-31.53 31.82.16 5.2 4.22 8.3 3.24 10.83z" fill="#36b4e1"/><path d="M61.88 49.49l-9.57 5.35s.48 6.24 3.38 10.7c1.92 2.96 4.79 5.49 7.6 6.48 3.33 1.17 6.88 1.16 7.04.28.28-1.55-2.2-3.48-3.38-6.76-1.03-2.86-1.13-13.23-1.13-13.23l-3.94-2.82z" fill="#006da6"/><path d="M42.88 56.39s12.81-13.94 27.45-11.97 18.21 12.62 17.32 24.35c-.54 7.16-7.89 17.51-8.02 16.19-.09-.94 2.44-16.28-2.35-21.49-5.52-6.01-12.15-7.79-18.49-8.07s-15.91.99-15.91.99z" fill="#ddecf5"/><path d="M40.84 31.33c1.35 2.09.84 4.62-1.06 5.84-1.9 1.22-4.99.54-6.34-1.55s-.87-5.23 1.2-6.12c3.03-1.31 4.85-.26 6.2 1.83z" fill="#2d2b30"/><path d="M9.23 63.08s3.43.1 5.14-.49c4.29-1.5 9.43-6.26 11.76-8.45 1.93-1.81 4.65-5 6.34-6.69 1.69-1.69 3.31-3.52 4.08-3.24s1.55 2.25 1.34 3.1c-.21.84-5.91 5.91-8.66 8.45-2.75 2.53-7.32 6.69-10.56 8.31-1.41.71-3.94 1.81-6.83 1.55-1.76-.16-2.68-1.91-2.61-2.54zM60.69 30.07c.68 1.05 3.1-.27 4.5-1.06 1.76-.99 8.66-5.14 15.35-5.7 6.69-.56 11.68 1.76 12.81 2.25 1.13.49 3.73 1.62 3.73 2.25 0 .63-6.35 3.6-9.01 5.35-2.67 1.76-7.04 3.87-9.92 4.5-2.35.52-6.9-.14-6.97 1.2-.07 1.34-.42 2.11 5.14 2.11s15.13-5.77 17.25-7.18 9.64-5.14 9.08-6.48c-.8-1.9-9.78-7.56-21.54-7.32-10.21.21-15.77 4.72-18.3 6.62-.62.46-2.9 2.26-2.12 3.46z" fill="#006da6"/></svg><svg viewBox="-10.67 -10.67 149.33 149.33" width="28" height="28" id="noto-emoji-emoji_u1f456" x="28" y="28" xmlns="http://www.w3.org/2000/svg"><linearGradient id="aada" gradientUnits="userSpaceOnUse" x1="63.992" y1="111.671" x2="63.992" y2="7.042" gradientTransform="matrix(1 0 0 -1 0 127.89)"><stop offset=".214" stop-color="#42a5f5"/><stop offset=".334" stop-color="#4baaf6"/><stop offset=".531" stop-color="#64b6f8"/><stop offset=".628" stop-color="#73bdf9"/><stop offset=".749" stop-color="#70bbf9"/><stop offset=".845" stop-color="#66b7f8"/><stop offset=".931" stop-color="#55aff7"/><stop offset="1" stop-color="#42a5f5"/></linearGradient><path d="M101 119.2l-5.4-56.6v-.2l-3-35.4c.1-.9.1-1.7 0-2.6l-.9-12.5-.4-7.9H36.6l-.3 8-.7 12.3c-.1.6-.1 1.2-.1 1.8l-3.1 36.2v.2L27 119.2c-.2 1.4.9 2.6 2.4 2.8l18.5 2c1.5.1 2.8-.9 2.9-2.3l7-53.5c.2-.6.3-1.3.4-2L62 41.5h3.9l3.8 24.7c.1.7.2 1.3.4 2l7 53.5c.2 1.4 1.5 2.4 2.9 2.3l18.5-2c1.6-.2 2.6-1.4 2.5-2.8z" fill="url(#aada)"/><path d="M63.9 34.8c-5.4 0-10.2-.8-12.9-3.7 1.8 4.2 6.9 7.2 12.9 7.2s11.2-3 12.9-7.2c-2.7 2.9-7.5 3.7-12.9 3.7zM48.5 4c-.1 4.8-.7 9.8-2.6 14.1-1.8 4.2-6 6.8-10.5 7.5 0-.4.1-.8.1-1.2l.1-1.6c7.7-1.2 9.7-11.1 9.9-18.8h3z" fill="#1e88e5"/><path fill="#1e88e5" d="M92 15.9H36l.3-3.9v-.2h55.4v.1z"/><path d="M92.7 25.6c-4.6-.6-8.9-3.3-10.7-7.5-1.9-4.3-2.5-9.3-2.6-14.1h3c.2 7.7 2.2 17.7 10 18.8l.1 1.6c.1.4.2.8.2 1.2zM68.7 36.5h-.2c-.8 0-1.5-.7-1.5-1.5V14.3c0-.8.7-1.5 1.5-1.5h.2c.8 0 1.5.7 1.5 1.5V35c0 .8-.6 1.5-1.5 1.5zM62.3 4v31.2c0 .8-.7 1.5-1.5 1.5h-.2c-.8 0-1.5-.7-1.5-1.5V4h3.2z" fill="#1e88e5"/><ellipse cx="64.7" cy="7.9" rx="3.2" ry="3" fill="#fdd835"/><path d="M88.4 7l.3 5.1.9 12.5v.2c.1.6.1 1.2 0 1.8v.6l3 35.3V62.8L98 119l-17.8 1.9-7-53.2c0-.1 0-.3-.1-.4-.2-.6-.3-1.1-.3-1.6v-.1L68.9 41c-.2-1.5-1.5-2.5-3-2.5H62c-1.5 0-2.7 1.1-3 2.5l-3.8 24.7v.1c-.1.5-.2 1-.3 1.6 0 .1-.1.3-.1.4l-7 53.2-17.8-2 5.3-56.1V62.6l3-36.2V26c0-.5 0-.9.1-1.3v-.2l.7-12.3v-.1l.4-5.1h48.9zm2.9-3H36.6l-.3 8-.7 12.3c-.1.6-.1 1.2-.1 1.9l-3 36.2v.2L27 119.2c-.1 1.4.9 2.6 2.4 2.8l18.5 1.9h.3c1.4 0 2.5-1 2.7-2.3l7-53.5c.2-.6.3-1.3.4-2L62 41.5h3.9l3.8 24.7c.1.7.2 1.3.4 2l7 53.5c.1 1.3 1.3 2.3 2.7 2.3h.3l18.5-1.9c1.5-.1 2.5-1.4 2.4-2.8l-5.4-56.6v-.2l-3-35.3c.1-.9.1-1.8 0-2.6l-.9-12.5c0-.2-.4-8.1-.4-8.1z" fill="#424242" opacity=".2"/></svg><svg viewBox="-10.67 -10.67 149.33 149.33" width="28" height="28" id="noto-emoji-emoji_u1f468_1f3fe_200d_1f527" x="56" xmlns="http://www.w3.org/2000/svg"><linearGradient id="aaea" gradientUnits="userSpaceOnUse" x1="50.005" y1="32.3" x2="50.005" y2="-3.131" gradientTransform="matrix(1 0 0 -1 0 128)"><stop offset=".003" stop-color="#303f9f"/><stop offset=".472" stop-color="#273492"/><stop offset="1" stop-color="#1a237e"/></linearGradient><path d="M96 120.76v3.2H4v-3.2c0-7.94 4.68-13.79 11.87-17.82 8.9-5 21.65-7.22 34.13-7.24s25.15 2.49 34.02 7.54c7.27 4.13 11.98 9.97 11.98 17.52z" fill="url(#aaea)"/><path d="M50 92.33h-9.08v9.98c0 4.51 3.7 8.17 8.26 8.17h1.65c4.56 0 8.26-3.66 8.26-8.17v-9.98H50z" fill="#7a4c32"/><path d="M104.2 104.61l-4.04 19.35h15.08v-3.2c.01-6.75-4.26-12.14-11.04-16.15z" fill="#1b2b8f"/><path fill="#f5f5f5" d="M59.31 104.52h-19.9l7.9 19.44h5.04z"/><linearGradient id="aaeb" gradientUnits="userSpaceOnUse" x1="30.641" y1="28.749" x2="41.245" y2="2.796" gradientTransform="matrix(1 0 0 -1 0 128)"><stop offset="0" stop-color="#5c6bc0"/><stop offset="1" stop-color="#3949ab"/></linearGradient><path fill="url(#aaeb)" d="M40.88 95.93l-7.78.9-8 17.25 10.88-4.29 9.55 14.17H48.25z"/><linearGradient id="aaec" gradientUnits="userSpaceOnUse" x1="69.02" y1="29.973" x2="61.206" y2="2.763" gradientTransform="matrix(1 0 0 -1 0 128)"><stop offset="0" stop-color="#5c6bc0"/><stop offset="1" stop-color="#3949ab"/></linearGradient><path fill="url(#aaec)" d="M66.91 96.83l-7.79-.9-7.36 28.03h3l10.05-14 10.1 4.12z"/><linearGradient id="aaed" gradientUnits="userSpaceOnUse" x1="110.125" y1="75.487" x2="98.869" y2="4.975" gradientTransform="matrix(1 0 0 -1 0 128)"><stop offset="0" stop-color="#90a4ae"/><stop offset=".267" stop-color="#889da8"/><stop offset=".584" stop-color="#78909c"/><stop offset="1" stop-color="#607d8b"/></linearGradient><path d="M121.82 56.71c-.34-.6-.92-.88-1.49-.88-.76 0-1.5.49-1.67 1.38l-1.46 7.9c-.1.53-.44.99-.93 1.22l-8.08 3.87a1.673 1.673 0 01-1.96-.36l-6.16-6.5c-.37-.39-.53-.94-.44-1.47l1.46-7.9c.21-1.14-.69-2-1.68-2-.37 0-.75.12-1.09.4-2.95 2.45-5.12 5.97-5.89 10.12-1.09 5.9.91 11.61 4.82 15.33 1.76 1.68 2.6 4.1 2.16 6.49l-7.33 39.66h10.32l6.99-37.82c.44-2.39 2.09-4.35 4.33-5.29 4.98-2.08 8.89-6.69 9.98-12.6.77-4.15 0-8.22-1.88-11.55z" fill="url(#aaed)"/><g><linearGradient id="aaee" gradientUnits="userSpaceOnUse" x1="86.712" y1="20.544" x2="111.895" y2="20.544" gradientTransform="matrix(1 0 0 -1 0 128)"><stop offset="0" stop-color="#8d5738"/><stop offset=".5" stop-color="#a56c43"/></linearGradient><path d="M94.5 117.31l-1.9 2.15s-5.68-1.21-5.01-4.5c.16-.78 1.56-2.44 1.56-2.44s-2.85-2.35-2.4-3.94c.45-1.57 3.17-2.79 3.17-2.79s-2.11-1.26-1.28-3.63c.57-1.62 3.53-2.16 3.53-2.16s-2.76-4.05 2.85-4.97c1.77-.29 5.74.3 9.3 2.93s5.19 4.21 6.83 7.67c2.5 5.25-1.92 14.25-5.31 14.33-2.82.06-11.34-2.65-11.34-2.65z" fill="url(#aaee)"/></g><g><path d="M77.27 50.23H22.61c-5.89 0-10.71 5.13-10.71 11.41s4.82 11.41 10.71 11.41h54.66c5.89 0 10.71-5.14 10.71-11.41s-4.82-11.41-10.71-11.41z" fill="#7a4c32"/><path d="M49.94 10.86c-17.4 0-33.52 18.61-33.52 45.4 0 26.64 16.61 39.81 33.52 39.81S83.46 82.9 83.46 56.26c0-26.79-16.12-45.4-33.52-45.4z" fill="#a56c43"/><g fill="#42312c"><ellipse cx="34.13" cy="58.6" rx="4.93" ry="5.1"/><ellipse cx="65.28" cy="58.6" rx="4.93" ry="5.1"/></g><g fill="#42312c"><path d="M25.93 50.52s.13-.19.38-.51c.07-.08.12-.16.22-.26.11-.11.23-.22.36-.33.14-.12.28-.24.43-.38.15-.13.31-.22.48-.35.17-.12.34-.24.53-.35.19-.1.4-.21.6-.32.21-.12.43-.21.66-.3.23-.09.47-.18.71-.27.49-.14 1-.29 1.54-.36.53-.1 1.08-.11 1.62-.14.55.03 1.1.03 1.62.14.53.06 1.05.22 1.54.36.24.08.48.17.71.27.23.09.45.18.66.3.21.11.41.22.6.32.19.11.37.24.53.35.17.12.33.22.47.34.14.12.27.24.4.35.12.11.24.21.34.31.1.1.18.21.26.29.31.36.46.58.46.58.51.7.35 1.69-.36 2.19-.43.31-.96.37-1.43.21l-.29-.1s-.19-.07-.49-.2c-.08-.03-.15-.07-.25-.11-.1-.03-.19-.07-.3-.11-.21-.08-.44-.17-.7-.24-.13-.04-.26-.09-.4-.13-.14-.03-.28-.07-.43-.11l-.22-.06c-.08-.01-.15-.03-.23-.04-.16-.03-.31-.07-.47-.1-.33-.04-.66-.11-1-.12-.34-.04-.69-.03-1.03-.05-.35.02-.69.01-1.03.05-.34.02-.67.09-1 .12-.16.03-.32.07-.47.1-.08.01-.16.03-.23.04l-.22.06c-.15.04-.29.07-.43.11-.14.04-.27.09-.4.13-.13.04-.25.08-.37.11-.1.04-.2.07-.29.1l-.27.09c-.1.04-.2.1-.29.14-.36.18-.57.27-.57.27-.83.34-1.77-.05-2.11-.87-.21-.51-.13-1.08.16-1.52zM71.99 52.92s-.21-.09-.57-.27c-.09-.04-.19-.1-.29-.14-.09-.02-.18-.06-.27-.09-.09-.03-.19-.07-.29-.1-.12-.04-.24-.07-.37-.11-.13-.04-.26-.09-.39-.13-.14-.03-.28-.07-.43-.11l-.22-.06c-.08-.01-.15-.03-.23-.04-.16-.03-.31-.07-.47-.1-.33-.04-.66-.11-1-.12-.34-.04-.69-.03-1.03-.05-.35.02-.69.01-1.03.05-.34.02-.67.09-1 .12-.16.03-.32.07-.47.1-.08.01-.16.03-.23.04l-.22.06c-.15.04-.29.08-.43.11-.14.04-.27.09-.4.13-.26.07-.49.16-.7.24-.1.04-.2.08-.3.11-.09.04-.17.08-.25.11-.3.13-.49.2-.49.2l-.28.1c-.82.29-1.72-.15-2-.97-.17-.5-.08-1.03.21-1.44 0 0 .15-.22.46-.58.08-.09.16-.19.26-.29.1-.1.22-.2.34-.31.12-.11.26-.23.4-.35.14-.12.31-.22.47-.34.17-.12.34-.24.53-.35.19-.1.4-.21.6-.32.21-.12.43-.21.66-.3.23-.09.47-.18.71-.27.49-.14 1-.29 1.54-.36.53-.1 1.08-.11 1.62-.14.55.03 1.1.03 1.62.14.54.06 1.05.22 1.54.36.24.08.48.17.71.27.23.09.45.18.66.3.21.11.41.22.6.32.19.11.36.24.53.35.17.12.32.22.48.35.15.13.3.26.43.38s.26.23.36.33c.09.1.15.18.22.26.25.31.38.51.38.51.5.74.31 1.74-.43 2.25-.47.31-1.05.35-1.54.15z"/></g><path d="M53.8 67.85c-.11-.04-.21-.07-.32-.08H46.4c-.11.01-.22.04-.32.08-.64.26-.99.92-.69 1.63.3.71 1.71 2.69 4.55 2.69s4.25-1.99 4.55-2.69c.3-.7-.05-1.37-.69-1.63z" fill="#875334"/><path d="M58.47 75.94c-3.19 1.89-13.63 1.89-16.81 0-1.83-1.09-3.7.58-2.94 2.24.75 1.63 6.44 5.42 11.37 5.42s10.55-3.79 11.3-5.42c.75-1.67-1.09-3.33-2.92-2.24z" fill="#473530"/></g><g><path d="M49.96 4.55h-.04c-45.43.24-36.13 52.14-36.13 52.14s2.04 5.35 2.97 7.71c.13.34.63.3.71-.05.97-4.34 4.46-19.73 6.22-24.4a6.08 6.08 0 016.8-3.83c4.45.81 11.55 1.81 19.37 1.81h.16c7.83 0 14.92-1 19.37-1.81 2.9-.53 5.76 1.08 6.79 3.83 1.75 4.66 5.22 19.96 6.2 24.36.08.36.58.39.71.05l2.98-7.67c.02 0 9.33-51.9-36.11-52.14z" fill="#3c2c23"/><radialGradient id="aaef" cx="49.941" cy="80.383" r="38.093" gradientTransform="matrix(1 0 0 -1.1282 0 138.304)" gradientUnits="userSpaceOnUse"><stop offset=".794" stop-color="#554138" stop-opacity="0"/><stop offset="1" stop-color="#554138"/></radialGradient><path d="M86.09 56.69S95.4 4.79 49.96 4.55h-.04c-.71 0-1.4.02-2.08.05-1.35.06-2.66.16-3.92.31h-.04c-.09.01-.17.03-.26.04C5.38 9.76 13.79 56.69 13.79 56.69l2.98 7.68c.13.34.62.31.7-.05.98-4.39 4.46-19.71 6.22-24.37a6.08 6.08 0 016.8-3.83c4.45.81 11.55 1.81 19.37 1.81h.16c7.83 0 14.92-1 19.37-1.81 2.9-.53 5.76 1.08 6.79 3.83 1.76 4.68 5.25 20.1 6.21 24.42.08.36.57.39.7.05.95-2.36 3-7.73 3-7.73z" fill="url(#aaef)"/></g><g><linearGradient id="aaeg" gradientUnits="userSpaceOnUse" x1="49.996" y1="89.161" x2="49.996" y2="129.378" gradientTransform="matrix(1 0 0 -1 0 128)"><stop offset="0" stop-color="#0068b5"/><stop offset=".807" stop-color="#4c8eea"/><stop offset="1" stop-color="#5e97f6"/></linearGradient><path d="M49.73 4.55c22.8 0 36.44 13.09 37.27 40.22 0 0-9.75-8.02-36.77-8.02-29.25 0-37.26 8.54-37.23 7.6 1.03-27.27 14.29-39.8 37.23-39.8h-.5z" fill="url(#aaeg)"/><linearGradient id="aaeh" gradientUnits="userSpaceOnUse" x1="49.725" y1="82.577" x2="49.725" y2="108.333" gradientTransform="matrix(1 0 0 -1 0 128)"><stop offset="0" stop-color="#0068b5"/><stop offset="1" stop-color="#5e97f6"/></linearGradient><path d="M26.93 34.41c0-18.74 8.97-28.81 22.8-28.81s22.8 10.47 22.8 28.81c0 14.9-10.78 3.17-22.8 3.17s-22.8 11.74-22.8-3.17z" fill="url(#aaeh)"/><path d="M50.08 28.44c-21.77 0-32.21 11.89-32.21 11.89-.02 1.97 2.2 5.52 7.25 6.33 6.95 1.12 11.44-4.5 24.85-4.5h.07v-.03l.04.03h.07c13.41 0 17.89 5.61 24.85 4.5 5.05-.81 6.89-3.85 6.87-5.81 0 0-9.76-12.41-31.79-12.41z" fill="#5e97f6"/></g></svg><svg viewBox="-10.67 -10.67 149.33 149.33" width="28" height="28" id="noto-emoji-emoji_u1f469_1f3fc_200d_1f91d_200d_1f468_1f3fe" x="56" y="28" xmlns="http://www.w3.org/2000/svg"><linearGradient id="aafa" gradientUnits="userSpaceOnUse" x1="48.373" y1="71.256" x2="65.03" y2="49.223" gradientTransform="scale(-1) rotate(-9.016 -817.514 802.861)"><stop offset="0" stop-color="#8d5738"/><stop offset=".402" stop-color="#a56c43"/></linearGradient><path d="M71.96 53s-3.53 11.93-5 15.33l-4.39 11.02c-.7 1.55-.08 3.58 1.39 4.43 1.69.97 4.14.24 4.95-1.53l12.54-26.41-1.01-3.46-8.48.62z" fill="url(#aafa)"/><path d="M105.56 74.61v48.08h-5.65l-7.87-38.21c-.04-.24-.24-.41-.46-.41s-.42.17-.46.41l-7.87 38.21H77.6V74.61h27.96z" fill="#7c7c7c"/><g fill="#424242"><path d="M102.61 124h4.45c.82-.02 1.41-.96 1.17-1.78-.74-2.5-2.99-4.32-5.62-4.32-2.68 0-4.96 1.9-5.66 4.46-.22.82.39 1.63 1.21 1.63 0 .01 4.45.01 4.45.01zM80.56 124h-4.45c-.82-.02-1.41-.96-1.17-1.78.74-2.5 2.99-4.32 5.62-4.32 2.68 0 4.96 1.9 5.66 4.46.22.82-.39 1.63-1.21 1.63 0 .01-4.45.01-4.45.01z"/></g><linearGradient id="aafb" gradientUnits="userSpaceOnUse" x1="23.735" y1="74.508" x2="4.276" y2="41.407" gradientTransform="rotate(180 63.732 64)"><stop offset="0" stop-color="#8d5738"/><stop offset=".401" stop-color="#a56c43"/></linearGradient><path d="M100.1 54.1l9.7-.6s4.5 10 6 13.33c0 0 4.24 6.32 6.17 9.17 1.88 1.92 2.36 2.62 3.04 5.19.75 2.83.4 4.38.04 5.06-.35.69-2.25 2.46-3.42 1.38-1.24-1.15-1.15-5.22-2.31-4.94-.6.15.16 1.36.23 2.56s-.85 1.41-1.5 1.08c-.33-.17-1.85-2.71-1.85-2.71l-.65-4.21-15.13-21.23-.32-4.08z" fill="url(#aafb)"/><linearGradient id="aafc" gradientUnits="userSpaceOnUse" x1="66.865" y1="50.923" x2="70.29" y2="56.52" gradientTransform="matrix(1 0 0 -1 0 128)"><stop offset="0" stop-color="#8d5738"/><stop offset="1" stop-color="#a56c43" stop-opacity="0"/></linearGradient><path fill="url(#aafc)" d="M66.37 69.83l-1.78 4.46 1.44 2.76 3.91 3.07 3.67-7.74z"/><linearGradient id="aafd" gradientUnits="userSpaceOnUse" x1="35.917" y1="84.186" x2="35.917" y2="50" gradientTransform="rotate(180 63.732 64)"><stop offset="0" stop-color="#00bfa5"/><stop offset=".705" stop-color="#00b29a"/><stop offset="1" stop-color="#00ab94"/></linearGradient><path d="M80.94 44.87c2.42-.64 6.65-1.06 10.65-1.06 4-.01 8.19.42 10.61 1.06 7.55 2.01 9.42 5.56 11.67 11.65l-8.28 3.2V78h-28V59.72l-8.37-3.2c2.25-6.09 4.17-9.64 11.72-11.65z" fill="url(#aafd)"/><path d="M91.54 40.72h-5v5.3c0 2.4 2.04 4.34 4.54 4.34H92c2.51 0 4.54-1.94 4.54-4.34v-5.3h-5zM79.1 33.63c-2.36 0-4.28-2.07-4.28-4.6s1.92-4.6 4.28-4.6h24.48c2.36 0 4.28 2.07 4.28 4.6s-1.92 4.6-4.28 4.6H79.1z" fill="#7a4c32"/><path d="M91.39 43.5c-6.98 0-14.5-5.42-14.5-17.32 0-9.53 5.54-19.82 14.5-19.82s14.5 10.28 14.5 19.82c0 11.9-7.52 17.32-14.5 17.32z" fill="#a56c43"/><g fill="#42312c"><path d="M102.09 24.06l-.17-.23c-.03-.03-.05-.07-.09-.11-.05-.05-.1-.09-.16-.15-.06-.05-.12-.11-.19-.17-.07-.06-.14-.1-.21-.15s-.15-.1-.24-.15c-.09-.05-.17-.09-.27-.14-.09-.05-.19-.09-.3-.13s-.2-.08-.32-.12c-.22-.06-.45-.13-.68-.16-.24-.05-.48-.05-.73-.06-.25.01-.49.02-.73.06-.24.03-.47.1-.68.16-.11.04-.21.08-.32.12s-.2.08-.3.13c-.09.05-.18.1-.27.14l-.24.15-.21.15c-.06.05-.12.11-.17.15-.05.05-.1.09-.15.14-.04.05-.08.09-.11.13-.13.16-.2.26-.2.26a.71.71 0 00.16.98.7.7 0 00.64.09l.13-.04s.08-.03.21-.09c.03-.01.07-.03.11-.05.04-.01.08-.03.13-.05.09-.04.19-.08.32-.11.06-.02.11-.04.17-.06.06-.01.12-.03.19-.05.03-.01.06-.02.1-.03.03-.01.07-.01.1-.02.07-.01.14-.03.21-.04.14-.02.3-.05.45-.05.15-.02.31-.01.46-.02.15.01.31 0 .46.02.15.01.3.04.45.05.07.01.14.03.21.04.03.01.07.01.1.02s.06.02.1.03c.06.02.13.03.19.05s.12.04.17.06c.06.02.11.03.16.05.05.02.09.03.13.04s.08.03.12.04c.04.02.09.04.13.06.16.08.26.12.26.12.37.15.8-.02.95-.39.09-.22.06-.48-.07-.67zM81.46 25.13s.09-.04.26-.12c.04-.02.08-.05.13-.06.04-.01.08-.02.12-.04.04-.01.08-.03.13-.04.05-.02.1-.03.16-.05.06-.02.11-.04.17-.06.06-.02.12-.03.19-.05.03-.01.06-.02.1-.03.03-.01.07-.01.1-.02.07-.01.14-.03.21-.04.14-.02.3-.05.45-.05.15-.02.31-.02.46-.02.15.01.31 0 .46.02.15.01.3.04.45.05.07.01.14.03.21.04.03.01.07.01.1.02s.06.02.1.03c.06.02.13.03.19.05s.12.04.17.06c.11.03.22.07.32.11.05.02.09.04.13.05.04.02.07.03.11.05.13.06.21.09.21.09l.12.04a.702.702 0 00.81-1.07l-.2-.26c-.03-.04-.07-.08-.11-.13-.04-.04-.09-.09-.15-.14a2.59 2.59 0 00-.38-.3c-.07-.05-.15-.1-.24-.15-.09-.05-.17-.09-.27-.14-.09-.05-.19-.09-.3-.13s-.2-.08-.32-.12c-.22-.06-.45-.13-.68-.16-.24-.05-.48-.05-.73-.06-.25.01-.49.02-.73.06-.24.03-.47.1-.68.16-.11.04-.21.08-.32.12-.1.04-.2.08-.3.13-.09.05-.18.1-.27.14l-.24.15-.21.15c-.07.06-.13.11-.19.17-.06.05-.11.1-.16.15a.73.73 0 00-.09.11c-.11.14-.17.23-.17.23a.72.72 0 00.19 1c.21.14.48.15.69.06z"/></g><g fill="#42312c"><ellipse cx="98.7" cy="28.12" rx="2.21" ry="2.29"/><ellipse cx="83.98" cy="28.12" rx="2.21" ry="2.29"/></g><path d="M87.77 35.95c1.43.85 6.1.85 7.53 0 .82-.49 1.66.26 1.32 1-.34.74-2.88 2.43-5.09 2.43s-4.72-1.7-5.06-2.43c-.35-.74.48-1.48 1.3-1z" fill="#473530"/><path d="M89.81 32.37c.05-.02.09-.03.14-.04h3.17c.05.01.09.02.14.04.29.11.45.41.31.73-.13.32-.77 1.21-2.03 1.21s-1.9-.89-2.03-1.21c-.15-.31.02-.61.3-.73z" fill="#875334"/><g><path d="M91.55 4.01s-.01 0 0 0h-.01c-19.47.1-15.48 22.34-15.48 22.34s2.19 3.85 2.18 3.77c-.07-3.11 1.17-8.61 2.06-10.95a2.598 2.598 0 012.91-1.64c1.91.34 4.95.77 8.3.77h.08c3.35 0 6.39-.43 8.3-.77 1.24-.23 2.47.46 2.91 1.64.88 2.34 2.13 7.84 2.06 10.95 0 .08 2.18-3.77 2.18-3.77s3.98-22.24-15.49-22.34z" fill="#3c2c23"/><radialGradient id="aafe" cx="91.542" cy="105.227" r="16.362" gradientTransform="matrix(1 0 0 -1.1282 0 141.438)" gradientUnits="userSpaceOnUse"><stop offset=".794" stop-color="#554138" stop-opacity="0"/><stop offset="1" stop-color="#554138"/></radialGradient><path d="M107.03 26.35s3.99-22.24-15.48-22.34h-.01-.01c-.3 0-.6.01-.89.02-.58.03-1.14.07-1.68.13h-.02c-.04.01-.07.01-.11.01-16.38 2.07-12.78 22.18-12.78 22.18s2.19 3.85 2.18 3.77c-.07-3.11 1.17-8.61 2.06-10.95a2.598 2.598 0 012.91-1.64c1.91.34 4.95.77 8.3.77h.08c3.35 0 6.39-.43 8.3-.77 1.24-.23 2.47.46 2.91 1.64.88 2.34 2.13 7.84 2.06 10.95-.01.08 2.18-3.77 2.18-3.77z" fill="url(#aafe)"/></g><g><path d="M22.53 74.61v48.08h5.65l7.87-38.21c.04-.24.24-.41.46-.41s.42.17.46.41l7.87 38.21h5.65V74.61H22.53z" fill="#7c7c7c"/><g fill="#424242"><path d="M25.48 124h-4.45c-.82-.02-1.41-.96-1.17-1.78.74-2.5 2.99-4.32 5.62-4.32 2.68 0 4.96 1.9 5.66 4.46.22.82-.39 1.63-1.21 1.63 0 .01-4.45.01-4.45.01zM47.53 124h4.45c.82-.02 1.41-.96 1.17-1.78-.74-2.5-2.99-4.32-5.62-4.32-2.68 0-4.96 1.9-5.66 4.46-.22.82.39 1.63 1.21 1.63 0 .01 4.45.01 4.45.01z"/></g><linearGradient id="aaff" gradientUnits="userSpaceOnUse" x1="65.262" y1="74.507" x2="45.803" y2="41.406" gradientTransform="matrix(1 0 0 -1 -40.898 128)"><stop offset="0" stop-color="#cca47a"/><stop offset=".397" stop-color="#e0bb95"/></linearGradient><path d="M27.99 54.1l-9.7-.6s-4.5 10-6 13.33c0 0-4.24 6.32-6.17 9.17-1.88 1.92-2.36 2.62-3.04 5.19-.75 2.83-.4 4.38-.04 5.06s2.25 2.46 3.42 1.38c1.24-1.15 1.15-5.22 2.31-4.94.6.15-.16 1.36-.23 2.56s.85 1.41 1.5 1.08c.33-.17 1.85-2.71 1.85-2.71l.65-4.21 15.13-21.24.32-4.07z" fill="url(#aaff)"/><linearGradient id="aafg" gradientUnits="userSpaceOnUse" x1="143.186" y1="53.383" x2="123.586" y2="86.725" gradientTransform="scale(-1 1) rotate(-4.985 40.38 2284.562)"><stop offset="0" stop-color="#cca47a"/><stop offset=".401" stop-color="#e0bb95"/></linearGradient><path d="M46.93 57.48l14.15 23.51s-1.53 2.62-.39 4.91c1.6 1.15 2.32-2.27 2.94-2.36 1.19-.18 3.08 4.56 4.34 4.56 2.41 1.04 3.53-2.18 3.57-4.08.91-3.31-5.37-6.79-5.37-6.79-1.68-3-4.67-9.8-4.67-9.8-1.21-3.45-4.82-13.8-4.82-13.8l-9.71-.25-.04 4.1z" fill="url(#aafg)"/><path d="M36.67 4.01c-18.18 0-18.03 16.81-18.03 17.08 0 10.89.83 26.27 5.19 32.32 1.73 2.4 5.07 2.53 5.07 2.53l7.52-.01 7.52.01s3.34-.13 5.07-2.53c4.36-6.05 5.19-21.43 5.19-32.32 0-.27.65-17.08-17.53-17.08z" fill="#ab872f"/><radialGradient id="aafh" cx="36.418" cy="99.357" r="21.072" gradientTransform="matrix(1 0 0 -1.1901 0 146.887)" gradientUnits="userSpaceOnUse"><stop offset=".794" stop-color="#bfa055" stop-opacity="0"/><stop offset="1" stop-color="#bfa055"/></radialGradient><path d="M36.67 4.01c-18.18 0-18.03 16.81-18.03 17.08 0 10.89.83 26.27 5.19 32.32 1.73 2.4 5.07 2.53 5.07 2.53l7.52-.01 7.52.01s3.34-.13 5.07-2.53c4.36-6.05 5.19-21.43 5.19-32.32 0-.27.65-17.08-17.53-17.08z" fill="url(#aafh)"/><linearGradient id="aafi" gradientUnits="userSpaceOnUse" x1="77.364" y1="84.186" x2="77.364" y2="50" gradientTransform="matrix(1 0 0 -1 -40.898 128)"><stop offset="0" stop-color="#651fff"/><stop offset=".705" stop-color="#5914f2"/><stop offset="1" stop-color="#530eeb"/></linearGradient><path d="M47.08 44.87c-2.42-.64-6.65-1.06-10.65-1.06-4-.01-8.19.42-10.61 1.06-7.55 2.01-9.42 5.56-11.67 11.65l8.28 3.2V78h28V59.72l8.37-3.2c-2.26-6.09-4.18-9.64-11.72-11.65z" fill="url(#aafi)"/><path d="M36.47 40.72h5v5.3c0 2.4-2.03 4.34-4.55 4.34h-.91c-2.51 0-4.55-1.94-4.55-4.34v-5.3h5.01z" fill="#c48e6a"/><path d="M36.45 8.39c7.63 0 14.69 5.67 14.69 17.7 0 9.66-5.98 15.38-11.19 17.22-1.24.44-2.44.66-3.5.66s-2.25-.22-3.48-.65c-5.21-1.83-11.21-7.55-11.21-17.23 0-12.03 7.06-17.7 14.69-17.7z" fill="#e0bb95"/><path d="M32.73 35.99c1.4.83 5.97.83 7.37 0 .8-.48 1.62.25 1.29.98-.33.72-2.82 2.38-4.98 2.38-2.16 0-4.62-1.66-4.95-2.38-.34-.73.47-1.46 1.27-.98z" fill="#6d4c41"/><path d="M34.73 32.4c.05-.02.09-.03.14-.04h3.1c.05.01.1.02.14.04.28.11.44.4.3.72s-.75 1.18-1.99 1.18-1.86-.87-1.99-1.18.02-.6.3-.72z" fill="#c48e6a"/><g fill="#5d4037"><ellipse cx="43.62" cy="28.33" rx="2.16" ry="2.24"/><ellipse cx="29.21" cy="28.33" rx="2.16" ry="2.24"/></g><g fill="#ab872f"><path d="M40.42 24.32c.41-.54 1.36-1.34 3.21-1.34s2.8.79 3.21 1.34c.18.24.14.52.01.69-.12.16-.46.3-.84.17-.38-.13-1.13-.51-2.37-.52-1.25.01-1.99.39-2.37.52-.38.13-.73-.01-.84-.17a.528.528 0 01-.01-.69zM26.01 24.32c.41-.54 1.36-1.34 3.21-1.34 1.84 0 2.8.79 3.21 1.34.18.24.14.52.01.69-.12.16-.46.3-.84.17-.38-.13-1.13-.51-2.37-.52-1.25.01-1.99.39-2.37.52-.4.12-.75-.02-.86-.18a.54.54 0 01.01-.68z"/></g><g><path d="M36.67 4.01c-18.18 0-18.03 16.81-18.03 17.08 0 3.44.08 7.33.33 11.23l2.98-.01c-.02-1.29.88-9.3 3.58-9.9 9.91-2.23 15.52-7.49 15.52-7.49 1.46 3.18 6.02 6.29 7.66 7.47 1.35.97 1.76 8.22 1.73 9.92h3.42c0-.02.01-.05.01-.07.25-3.88.33-7.74.33-11.16 0-.26.65-17.07-17.53-17.07z" fill="#ab872f"/><radialGradient id="aafj" cx="36.566" cy="97.573" r="22.073" gradientTransform="matrix(1 0 0 -1.2135 0 148.833)" gradientUnits="userSpaceOnUse"><stop offset=".794" stop-color="#bfa055" stop-opacity="0"/><stop offset="1" stop-color="#bfa055"/></radialGradient><path d="M36.67 4.01c-18.18 0-18.03 16.81-18.03 17.08 0 3.44.08 7.33.33 11.23l2.98-.01c-.02-1.29.88-9.3 3.58-9.9 9.91-2.23 15.52-7.49 15.52-7.49 1.46 3.18 6.02 6.29 7.66 7.47 1.35.97 1.76 8.22 1.73 9.92h3.42c0-.02.01-.05.01-.07.25-3.88.33-7.74.33-11.16 0-.26.65-17.07-17.53-17.07z" fill="url(#aafj)"/></g></g><g><path d="M67.34 86.4c-.16-.07-.32-.11-.5-.11-.04 0-.07.01-.11.02l.05-.1c.28-.62.04-1.36-.55-1.66-.16-.08-.33-.12-.51-.12-.07 0-.14.02-.21.03.25-.6.03-1.31-.53-1.61-.17-.09-.35-.14-.54-.14-.26 0-.51.1-.71.26-.07-.37-.29-.72-.66-.91-.17-.09-.35-.13-.53-.13-.46 0-.87.27-1.07.7l-.92 1.96c-.29.62-.05 1.39.58 1.71.17.09.35.13.54.13.19 0 .36-.06.52-.14.01.1 0 .2.03.29.1.32.3.58.58.73.17.09.35.14.54.14.21 0 .4-.06.57-.16.06.39.27.76.63.94.16.08.33.12.51.12.16 0 .31-.04.44-.11.08.38.3.72.65.89.16.07.32.11.5.11.47 0 .9-.29 1.09-.74l.18-.42c.3-.63.03-1.39-.57-1.68z" fill="#a56c43"/><path d="M67.56 86.32c.54-1.78-1.46-2.21-1.46-2.21.28-1.01-1.32-2.17-2.31-1.59-1.48-1.48-2.52-.13-2.66.81 0 0 .74-1.13 1.51-.77.52.24.51.74.35 1.22-.25.75-.46 1.51-.46 1.51s.56-.95 1.04-1.56c.16-.21.67-.63 1.21-.33.54.29.55.96.47 1.2-.26.82-.93 1.92-.93 1.92s.5-.51.92-.99c.33-.38.61-.62 1.11-.39.54.25.51.86.35 1.17-.33.66-.76 1.45-.76 1.45s.78-1.19 1.59-.52c.51.43.06 1.48.12 1.42 1.44-1.46-.09-2.34-.09-2.34z" fill="#875334"/></g></svg><svg viewBox="-10.67 -10.67 149.33 149.33" width="28" height="28" id="noto-emoji-emoji_u1f504" y="56" xmlns="http://www.w3.org/2000/svg"><linearGradient id="aaga" x1="64" x2="64" y1="4.25" y2="124.41" gradientUnits="userSpaceOnUse"><stop stop-color="#40C4FF" offset="0"/><stop stop-color="#2DB5F9" offset=".352"/><stop stop-color="#0091EA" offset="1"/></linearGradient><path d="M116 124H12c-4.42 0-8-3.58-8-8V12c0-4.42 3.58-8 8-8h104c4.42 0 8 3.58 8 8v104c0 4.42-3.58 8-8 8z" fill="url(#aaga)"/><path d="M116 7c2.76 0 5 2.24 5 5v104c0 2.76-2.24 5-5 5H12c-2.76 0-5-2.24-5-5V12c0-2.76 2.24-5 5-5h104m0-3H12c-4.42 0-8 3.58-8 8v104c0 4.42 3.58 8 8 8h104c4.42 0 8-3.58 8-8V12c0-4.42-3.58-8-8-8z" fill="#424242" opacity=".2"/><g fill="#424242" opacity=".2"><path d="M43.98 12c2.06 0 4.02 1.62 4.02 4.01V30c0 1.1.9 2 2 2h34c15.46 0 28 14.33 28 32 0 3.23-.42 6.35-1.2 9.29 0 .01-.02.02-.02.03L96 60c-.45-10.49-7.18-12-12-12H50c-1.1 0-2 .9-2 2v13.99c0 2.39-1.96 4.01-4.02 4.01-.9 0-1.82-.31-2.61-1l-24-23.99a4.001 4.001 0 010-6.02l24-23.99c.78-.69 1.7-1 2.61-1m0-3c-1.68 0-3.3.62-4.59 1.74l-.14.14-23.94 23.93C13.84 36.13 13 38.02 13 40s.84 3.87 2.31 5.19l23.94 23.93.07.07.08.07A6.933 6.933 0 0043.98 71c3.87 0 7.02-3.14 7.02-7.01V51h33c6.04 0 8.73 2.73 9 9.13l.05 1.26.93.84 14.78 13.32 2.87 2.59 1.56-2.97.27-.25.24-.86c.86-3.25 1.3-6.64 1.3-10.06 0-19.3-13.91-35-31-35H51V16.01C51 12.14 47.85 9 43.98 9z"/><path d="M17.22 54.68L32 68c.45 10.49 7.18 12 12 12h34c1.1 0 2-.9 2-2V64.01c0-2.39 1.96-4.01 4.02-4.01.9 0 1.82.31 2.61 1l24 23.99a4.001 4.001 0 010 6.02l-24 23.99c-.79.69-1.71 1-2.61 1-2.06 0-4.02-1.62-4.02-4.01V98c0-1.1-.9-2-2-2H44c-15.46 0-28-14.33-28-32 0-3.23.42-6.35 1.2-9.29 0-.02.02-.02.02-.03m-.86-4.82l-1.56 2.97-.27.25-.24.86C13.44 57.19 13 60.58 13 64c0 19.3 13.91 35 31 35h33v12.99c0 3.86 3.15 7.01 7.02 7.01 1.68 0 3.3-.62 4.59-1.74l.14-.14 23.94-23.93c1.47-1.33 2.31-3.21 2.31-5.19s-.84-3.87-2.31-5.19l-24-24-.08-.07A6.978 6.978 0 0084.02 57C80.15 57 77 60.14 77 64.01V77H44c-6.04 0-8.73-2.73-9-9.13l-.05-1.26-.93-.84-14.79-13.32-2.87-2.59z"/></g><g fill="#FAFAFA"><path d="M41.37 67c2.59 2.26 6.63.43 6.63-3.01V50c0-1.1.9-2 2-2h34c4.82 0 11.55 1.51 12 12l14.78 13.32c.01-.01.02-.02.02-.03.78-2.94 1.2-6.06 1.2-9.29 0-17.67-12.54-32-28-32H50c-1.1 0-2-.9-2-2V16.01c0-3.44-4.05-5.27-6.63-3.01l-24 23.99a4.001 4.001 0 000 6.02l24 23.99z"/><path d="M86.63 61c-2.58-2.27-6.63-.43-6.63 3.01V78c0 1.1-.9 2-2 2H44c-4.82 0-11.55-1.51-12-12L17.22 54.68c-.01.01-.02.02-.02.03A36.22 36.22 0 0016 64c0 17.67 12.54 32 28 32h34c1.1 0 2 .9 2 2v13.99c0 3.44 4.05 5.27 6.63 3.01l24-23.99a4.001 4.001 0 000-6.02L86.63 61z"/></g></svg><svg viewBox="-10.67 -10.67 149.33 149.33" width="28" height="28" id="noto-emoji-emoji_u1f64e_1f3fe_200d_2640" x="28" y="56" xmlns="http://www.w3.org/2000/svg"><path d="M64.46 5.43c-41.01 0-40.68 37.92-40.68 38.52 0 24.56 1.88 59.25 11.71 72.9 3.9 5.41 11.43 5.71 11.43 5.71l16.97-.03 16.97.03s7.54-.3 11.43-5.71C102.12 103.2 104 68.51 104 43.95c0-.6 1.47-38.52-39.54-38.52z" fill="#3c2c23"/><radialGradient id="aaha" cx="63.892" cy="67" r="47.532" gradientTransform="matrix(1 0 0 -1.1901 0 140.734)" gradientUnits="userSpaceOnUse"><stop offset=".794" stop-color="#554138" stop-opacity="0"/><stop offset="1" stop-color="#554138"/></radialGradient><path d="M64.46 5.43c-41.01 0-40.68 37.92-40.68 38.52 0 24.56 1.88 59.25 11.71 72.9 3.9 5.41 11.43 5.71 11.43 5.71l16.97-.03 16.97.03s7.54-.3 11.43-5.71C102.12 103.2 104 68.51 104 43.95c0-.6 1.47-38.52-39.54-38.52z" fill="url(#aaha)"/><linearGradient id="aahb" gradientUnits="userSpaceOnUse" x1="64" y1="33.077" x2="64" y2="6.566" gradientTransform="matrix(1 0 0 -1 0 128)"><stop offset="0" stop-color="#651fff"/><stop offset=".705" stop-color="#5914f2"/><stop offset="1" stop-color="#530eeb"/></linearGradient><path d="M64.13 95.87H64c-25.49.03-52 7.28-52 25.06v2.94h104v-2.94c0-16.76-26.26-25.06-51.87-25.06z" fill="url(#aahb)"/><path d="M73.08 89.95H54.92v9.98c0 4.51 3.7 8.17 8.26 8.17h1.65c4.56 0 8.26-3.66 8.26-8.17v-9.98h-.01z" fill="#7a4c32"/><path d="M64 16.04c-17.2 0-33.13 12.79-33.13 39.91 0 21.79 13.49 34.67 25.23 38.83 2.8.99 5.5 1.49 7.9 1.49 2.38 0 5.07-.49 7.85-1.47 11.76-4.14 25.28-17.03 25.28-38.84 0-27.13-15.93-39.92-33.13-39.92z" fill="#a56c43"/><path d="M67.81 68.05c-.1-.04-.21-.07-.32-.08H60.5c-.11.01-.21.04-.32.08-.63.26-.98.91-.68 1.61s1.69 2.66 4.49 2.66c2.8 0 4.19-1.96 4.49-2.66.31-.69-.03-1.35-.67-1.61z" fill="#875334"/><g fill="#42312c"><path d="M52.62 58.87c0 1.53-.66 2.9-1.7 3.81h-6.34a5.048 5.048 0 01-1.7-3.81c0-2.78 2.18-5.04 4.87-5.04s4.87 2.26 4.87 5.04zM85.12 58.87c0 1.53-.66 2.9-1.7 3.81h-6.34a5.048 5.048 0 01-1.7-3.81c0-2.78 2.18-5.04 4.87-5.04s4.87 2.26 4.87 5.04z"/></g><g fill="#42312c"><path d="M54.98 49.82c-.93-1.23-3.07-3.01-7.23-3.01s-6.31 1.79-7.23 3.01c-.41.54-.31 1.17-.02 1.55.26.35 1.04.68 1.9.39s2.54-1.16 5.35-1.18c2.81.02 4.49.89 5.35 1.18s1.64-.03 1.9-.39c.29-.38.39-1.01-.02-1.55zM87.48 49.82c-.93-1.23-3.07-3.01-7.23-3.01s-6.31 1.79-7.23 3.01c-.41.54-.31 1.17-.02 1.55.26.35 1.04.68 1.9.39s2.54-1.16 5.35-1.18c2.81.02 4.49.89 5.35 1.18s1.64-.03 1.9-.39c.29-.38.39-1.01-.02-1.55z"/></g><path d="M73.6 81.92c-.48-1.71-4.71-5.59-9.89-5.59-5.21 0-8.85 4.24-9.29 5.58-.03.08-.11.33.07.47.23.18.53-.01 1.41-.58 1.58-1.02 4.53-2.92 7.9-2.92 3.19 0 6.15 1.79 7.91 2.86.83.5 1.28.78 1.57.78.08 0 .15-.02.21-.07.21-.16.13-.44.11-.53z" fill="#473530"/><path d="M63.78 82.94c2.86 0 5.39 2.62 5.16 1.79-.24-.84-2.48-2.92-5.21-2.92s-4.66 2.22-4.89 2.92 2.08-1.79 4.94-1.79z" fill="#875334"/><g><path d="M64.46 4.13c-41.01 0-40.68 37.92-40.68 38.52 0 7.76.19 16.53.75 25.32l6.72-.02c-.06-2.92 1.99-20.97 8.08-22.34 22.36-5.03 35.01-16.89 35.01-16.89 3.29 7.18 13.58 14.19 17.27 16.86 3.03 2.19 4.07 18.55 4.01 22.38h7.6c0-.05.02-.1.02-.16.56-8.75.74-17.46.74-25.17.02-.58 1.49-38.5-39.52-38.5z" fill="#3c2c23"/><radialGradient id="aahc" cx="64.225" cy="64.278" r="49.788" gradientTransform="matrix(1 0 0 -1.2135 0 141.726)" gradientUnits="userSpaceOnUse"><stop offset=".794" stop-color="#554138" stop-opacity="0"/><stop offset="1" stop-color="#554138"/></radialGradient><path d="M64.46 4.13c-41.01 0-40.68 37.92-40.68 38.52 0 7.76.19 16.53.75 25.32l6.72-.02c-.06-2.92 1.99-20.97 8.08-22.34 22.36-5.03 35.01-16.89 35.01-16.89 3.29 7.18 13.58 14.19 17.27 16.86 3.03 2.19 4.07 18.55 4.01 22.38h7.6c0-.05.02-.1.02-.16.56-8.75.74-17.46.74-25.17.02-.58 1.49-38.5-39.52-38.5z" fill="url(#aahc)"/></g></svg><svg viewBox="-10.67 -10.67 149.33 149.33" width="28" height="28" id="noto-emoji-emoji_u1f6ad" x="56" y="56" xmlns="http://www.w3.org/2000/svg"><linearGradient id="aaia" x1="64" x2="64" y1="8.25" y2="120.13" gradientUnits="userSpaceOnUse"><stop stop-color="#616161" offset="0"/><stop stop-color="#515151" offset=".305"/><stop stop-color="#292929" offset=".896"/><stop stop-color="#212121" offset="1"/></linearGradient><circle cx="64" cy="64" r="56" fill="url(#aaia)"/><g fill="#424242" opacity=".2"><path d="M91 59c.55 0 1 .45 1 1v8c0 .55-.45 1-1 1H25c-.55 0-1-.45-1-1v-8c0-.55.45-1 1-1h66m0-3H25c-2.21 0-4 1.79-4 4v8c0 2.21 1.79 4 4 4h66c2.21 0 4-1.79 4-4v-8c0-2.21-1.79-4-4-4z"/><path d="M103 59c.55 0 1 .45 1 1v8c0 .55-.45 1-1 1h-6c-.55 0-1-.45-1-1v-8c0-.55.45-1 1-1h6m0-3h-6c-2.21 0-4 1.79-4 4v8c0 2.21 1.79 4 4 4h6c2.21 0 4-1.79 4-4v-8c0-2.21-1.79-4-4-4z"/></g><g fill="#FAFAFA"><path d="M91 69H25c-.55 0-1-.45-1-1v-8c0-.55.45-1 1-1h66c.55 0 1 .45 1 1v8c0 .55-.45 1-1 1zM103 69h-6c-.55 0-1-.45-1-1v-8c0-.55.45-1 1-1h6c.55 0 1 .45 1 1v8c0 .55-.45 1-1 1z"/></g><path d="M64 17c25.92 0 47 21.08 47 47s-21.08 47-47 47-47-21.08-47-47 21.08-47 47-47m0-3c-27.61 0-50 22.39-50 50s22.39 50 50 50 50-22.39 50-50-22.39-50-50-50z" fill="#424242" opacity=".2"/><linearGradient id="aaib" x1="64" x2="64" y1="4" y2="124.13" gradientUnits="userSpaceOnUse"><stop stop-color="#FF5252" offset="0"/><stop stop-color="#F33B3B" offset=".324"/><stop stop-color="#D50000" offset="1"/></linearGradient><path d="M64 4C30.86 4 4 30.86 4 64s26.86 60 60 60 60-26.86 60-60S97.14 4 64 4zm50 60c0 11.99-4.24 23-11.3 31.62L32.38 25.3C41 18.24 52.01 14 64 14c27.57 0 50 22.43 50 50zM14 64c0-11.99 4.24-23 11.3-31.62l70.32 70.32C87 109.76 75.99 114 64 114c-27.57 0-50-22.43-50-50z" fill="url(#aaib)"/><path d="M64 7c31.43 0 57 25.57 57 57s-25.57 57-57 57S7 95.43 7 64 32.57 7 64 7m0-3C30.86 4 4 30.86 4 64s26.86 60 60 60 60-26.86 60-60S97.14 4 64 4z" fill="#424242" opacity=".2"/><path d="M98.14 53.41c-1.08.53-.33 2.24.83 1.89 6.2-1.89 16.19-9.51 15.55-24.01-.63-14.35-.63-21.41 9.11-26.05.63-.3.42-1.26-.28-1.24-6.56.14-22.17 2.88-20.23 20.39 1.58 14.26 1.99 25.58-4.98 29.02z" fill="#FAFAFA"/><path d="M114.6 8.71c-3.84 5.53-3.51 12.97-3.08 22.72.32 7.21-2.25 12.36-5.44 15.8 1.63-6.17.99-14.46.02-23.16-.54-4.87.42-8.76 2.86-11.54 1.56-1.8 3.58-3.01 5.64-3.82M123.36 4h-.02c-6.56.14-22.17 2.88-20.23 20.39 1.59 14.27 1.99 25.58-4.98 29.02-.98.49-.45 1.94.52 1.94.1 0 .2-.01.31-.05 6.2-1.89 16.19-9.51 15.55-24.01-.63-14.35-.63-21.41 9.11-26.05.63-.3.43-1.24-.26-1.24z" fill="#424242" opacity=".2"/></svg><svg viewBox="-10.67 -10.67 149.33 149.33" width="28" height="28" id="noto-emoji-emoji_u1f9a8" x="84" xmlns="http://www.w3.org/2000/svg"><path d="M57.19 51.56s-6-7.8-5.26-18.21c.87-12.08 7.32-22.71 20.28-26.65s25.15-.38 25.15-.38l-2.06 4.69s14.08 3.28 16.14 4.41c2.06 1.13 7.51 7.23 8.07 15.49s-2.75 14.96-4.32 17.27c-1.99 2.93-5.63 5.26-7.13 5.26s1.5-3.19 1.88-6.95c.38-3.75-.54-4.6-.54-4.6s-.8 3.39-1.41 5.21c-.35 1.06-1.76 4.22-2.11 2.89-.35-1.34-.56-10.42-4.43-12.32-1.67-.82-4.93-2.25-12.32 3.73-8.21 6.65-9.57 19.85-9.57 19.85s2.89 3.38 3.24 4.22c.35.84 3.82 4.99 2.32 15.91-.99 7.18-2.75 15.42-3.45 17.39-.7 1.97-1.34 5.42-4.29 6.83-1.82.87-5.98.99-6.48-1.06-.49-2.04 1.34-3.8.99-5.63-.35-1.83-2.53-3.17-6.12-.63-3.59 2.53-6.26 5.28-7.81 8.73-1.55 3.45-3.1 8.59-5.98 12.18-2.89 3.59-5.35 4.22-9.43 3.66-4.52-.62-2.32-2.89-1.55-4.43.77-1.55.35-3.96.07-4.72-.7-1.9-2.53-2.11-2.53-2.11s.28 4.79-1.9 6.34-5.21 3.1-8.66 1.97c-3.45-1.13-1.27-3.1-.28-5.21s.35-2.96.07-3.73c-.28-.77-1.06-3.1-1.41-4.22-.35-1.13-.7-3.03-.7-3.03s-4.36 1.69-10.49-1.34c-3.81-1.88-3.94-5.07-3.66-6.69.27-1.54 1.62-2.46 1.62-2.46s-.77-7.6.42-11.05 2.82-4.36 2.82-4.36-2.37-6.47 2.11-8.02c4.86-1.69 6.83 3.45 6.83 3.45s2.18-.56 5.49.63c3.31 1.2 4.72 2.18 4.93 1.83.21-.35 5.42-14.92 5.42-14.92s5.7-5.77 7.11-6.62c1.37-.87 2.83-1.87 8.93-2.6z" fill="#4d4d4d"/><path d="M20.28 90.32c.84.51 4.29-3.66 8.8-6.69 4.5-3.03 7.6-2.67 7.6-2.67s3.41-2.91 7.39-.92c4.08 2.04 2.6 7.88 2.6 7.88s8.17-13.44 13.23-17.95c5.07-4.5 10.91-6.12 15.06-6.19s7.81 1.69 7.81 1.69-1.5-3.28-6.55-7.53c-5.77-4.86-11.66-3.53-17.46-.63-5.49 2.75-12.67 9.78-13.8 10.98-1.13 1.2-3.94 4.15-3.94 4.15s.35-5 1.76-8.66c1.26-3.27 4.07-6.64 6.12-8.31 2.96-2.39 5.07-3.45 5.07-3.45s-3.94.07-9.5 3.87c-6.5 4.44-8.66 10.56-9.22 11.76-.56 1.2-1.62 4.36-1.69 6.34-2.04-1.41-7.25-.92-7.25-.92s-2.65 3.61-4.15 7.11c-1.3 3.1-2.68 9.65-1.88 10.14z" fill="#ddd"/><path d="M70.75 55.12s-3.17-.99-5.14-1.48c-1.97-.49-3.73-.99-3.73-.99s-4.86-6.69-5-16.75c-.14-10.07 4.65-18.09 4.65-18.09l2.67 8.02s3.25-9.16 9.92-14.01C82.37 5.85 91 3.31 99.82 6.91c9.32 3.79 11.97 7.6 12.39 8.09.42.49 2.39 3.45 2.39 3.45s-9.28-4.12-15.56-3.17c-6.48.99-10.56 2.82-15.27 7.11-4.72 4.29-6.12 8.24-6.12 8.24s4.22-.68 5.91-.63c2.6.07 4.58.77 4.58.77s-8.45 3.38-12.32 9.78-5.41 13.88-4.65 14.64c.07.08-.42-.07-.42-.07z" fill="#ddd"/><path d="M13.95 94.33c-.53.38.87 6.1 1.48 6.26.77.21 4.79-2.82 4.79-3.52 0-.7-2.53-1.62-3.38-1.97-.85-.35-2.4-1.12-2.89-.77z" fill="#ffa7a6"/><path d="M33.54 90.2c0 1.59-1.31 3.12-3.28 2.93-1.57-.15-2.44-1.34-2.44-2.93s1.33-3.12 2.91-3.12c1.96 0 2.81 1.53 2.81 3.12zM19.32 84.17c0 1.59-1.22 3-2.77 2.77-1.11-.17-1.78-1.13-1.78-2.72s.8-2.7 1.97-2.82c1.92-.18 2.58 1.18 2.58 2.77zM18.33 76.38c.13.13 1.42-.56 2.53-.99 1.15-.44 2.18-.72 2.25-.94.14-.42-1.08-3.52-3.66-2.44-2.57 1.09-1.4 4.09-1.12 4.37zM39.03 83.28c0-.58 3.57-2.3 5.02.52 1.45 2.82-1.6 4.93-2.06 4.79-.26-.08-.81-1.53-1.55-2.91-.58-1.08-1.41-2.11-1.41-2.4z" fill="#141414"/></svg><svg viewBox="-10.67 -10.67 149.33 149.33" width="28" height="28" id="noto-emoji-emoji_u1f9b4" x="84" y="28" xmlns="http://www.w3.org/2000/svg"><path d="M122 81.14c-4.21-5.9-14.22-5.49-17.03-5.38l-.37.01c-4.94.2-9.74-1.7-13.2-5.22l-34.1-34.1a17.495 17.495 0 01-4.99-13.29l.02-.37c.16-2.8.35-6.57-.05-9.52-.62-4.57-5.23-11.57-17.29-9.12-6.22 1.26-8.57 3.72-9.04 9.56-.1 1.24.53 7.65-1.94 10.22-1.22 1.27-8.11.62-9.35.7-5.85.38-10.76 4.56-10.76 12.94-.01 9.07 5.68 14.25 8.95 14.45 2.97.18 6.71.33 9.52.22l8.59-.43s1.15 1.14 4.61 4.66l34.48 35.08c3.47 3.53 5.28 8.36 4.99 13.29l-.02.37c-.16 2.8-1.72 13.28 5.07 17.12.94.53 5.6 2.84 12.27 1.53 6.23-1.23 8.57-3.72 9.04-9.56.1-1.24.11-8.87 2.65-11.36s8.43-1.52 9.67-1.6c5.85-.37 9.32-1.99 10.49-8.23 1.03-5.5-1.58-11.09-2.21-11.97z" fill="#fceacc"/><path d="M26.26 11.1c.8-3.07 4.92-2.66 5.94-1.67 1.05 1.01 1.63 2.42 1.82 3.84.75 5.81-1.2 9.15-3.23 10.24-2.06 1.09-3.43 1.28-6.48 1.59-1.85.19-3.38-.11-2.73-.46 1.03-.55 3.14-1.99 3.6-2.83.53-.98.51-1.86.61-2.9.24-2.6-.2-5.25.47-7.81zM124.21 93.1c0-.02.01-.04.01-.06.32-1.75-1.72-3-3.15-1.95-.33.24-.7.48-1.09.7-4.09 2.29-9.73.46-13.55 3.17-6.79 4.82-2.82 17.85-7.43 20.95-2.63 1.77-7.73 2.3-10.55.87-4.55-2.3-5.24-5.19-5.48-8.35-.36-4.73-.41-10.04-1.14-13.72-.99-4.98-7.27-11.72-7.27-11.72S48.8 54.75 39.12 45.96c-3.72-3.37-9.51-2.21-13.93-1.67-5.17.62-8.6.19-11.63-2.4s-3.85-8.54-2.59-12.32 7.01-4.86 7.01-4.86c-2.02-.09-2.7-.12-3.33-.08-5.84.38-10.75 4.56-10.75 12.94-.01 9.07 5.42 13.76 8.6 14.55 3.58.9 12.96-.04 12.96-.04s5.07-.7 7.15 1.38c.71.71 1.68 1.7 2.96 3.01l34.48 35.08c3.47 3.53 5.28 8.36 4.99 13.29l-.02.37c-.16 2.8-1.72 13.28 5.07 17.12.94.53 5.6 2.84 12.27 1.53 6.23-1.23 8.57-3.72 9.04-9.56.1-1.24.11-8.87 2.65-11.36s8.43-1.52 9.67-1.6c5.85-.38 9.33-2 10.49-8.24z" fill="#debca8"/></svg><svg viewBox="-10.67 -10.67 149.33 149.33" width="28" height="28" id="noto-emoji-emoji_u1f9d1_1f3fc_200d_2764_200d_1f48b_200d_1f9d1_1f3fe" x="84" y="56" xmlns="http://www.w3.org/2000/svg"><path d="M102.27 34.74c-27.05 0-31.37 19.51-31.37 47.59 0 23.97 10.35 39.27 28.5 41.22 9.35 1 17.91-.79 24.6-5.64V40.6c-5.31-3.77-12.38-5.86-21.73-5.86z" fill="#a56c43"/><g fill="#42312c"><path d="M106.65 77.36c.97-1.29 3.22-3.16 7.58-3.16 4.36 0 6.61 1.87 7.58 3.16.43.57.32 1.23.02 1.62-.28.37-1.09.71-1.99.41-.9-.31-2.66-1.22-5.61-1.24-2.95.02-4.71.93-5.61 1.24-.9.31-1.72-.04-1.99-.41-.3-.39-.41-1.05.02-1.62zM73.67 77.36c.97-1.29 3.22-3.16 7.58-3.16 4.36 0 6.61 1.87 7.58 3.16.43.57.32 1.23.02 1.62-.28.37-1.09.71-1.99.41-.9-.31-2.66-1.22-5.61-1.24-2.95.02-4.71.93-5.61 1.24-.9.31-1.72-.04-1.99-.41-.3-.39-.41-1.05.02-1.62z"/></g><g fill="#42312c"><path d="M108.65 85.64c-.67-.79-1.07-.16-1.2.36-.45 1.76.25 4.54 3.47 5.43 4.36 1.2 8.76-1.42 9.25-4.98.06-.44-.43-.77-.82-.55-1.31.72-2.93 2.23-6.3 1.88-3.29-.33-3.68-1.29-4.4-2.14zM75.8 85.64c-.67-.79-1.07-.16-1.2.36-.45 1.76.25 4.54 3.47 5.43 4.36 1.2 8.76-1.42 9.25-4.98.06-.44-.43-.77-.82-.55-1.31.72-2.93 2.23-6.3 1.88-3.28-.33-3.68-1.29-4.4-2.14z"/></g><path d="M91.65 114.85c-3.02.38-8.02-2.23-6.91-5.19.42-1.12 2.1-1.45 2.1-1.45s-2.76-3.12-1.34-4.76c1.91-2.21 5.07-.59 7.43-1.27.48-.14.99-.36 1.46-.2-.2.94-.76 1.62-1.95 2.04-1.34.47-2.8.2-3.54.83-.76.66-.11 1.59.87 2.17 1.39.82 3.47 1.24 3.37 1.9-.11.72-2.49.8-3.02.95-.48.14-1.18.32-1.39.83-.38.89.93 1.85 1.6 2.25.74.44 2.61.93 2.68.99.14.12.11.37-.02.51-.13.15-1.05.36-1.34.4z" fill="#473530"/><path d="M89.65 93.53c.11-.04.22-.07.33-.09h7.33c.11.01.22.04.33.09.66.27 1.03.96.72 1.69-.31.73-1.77 2.79-4.71 2.79s-4.4-2.06-4.71-2.79c-.32-.73.05-1.42.71-1.69z" fill="#875334"/><path d="M124 27.87s-2.95-2.12-9.37-.63c-2.82.65-5.76 3.38-8.22 1.85-2.51-1.56-2.46-5.44-.84-7.92 0 0-10.1-.63-10.27 9.57-5.58-2.7-12.1-.75-15.45 1.89-6.14 4.84-5.36 12.19-5.36 12.19s-15.59 4.76-7.71 24.74c0 0-1.73 2.4-1.16 8.61.39 4.26 2.47 8.19 5.46 9.39 0 0 .5-20.15 1.61-19.88 5.06 1.23 9.25.04 11.15-.61 10.89-3.71 15.57-10.67 23.03-10.13 2.7.19 4.62 6.26 5.96 6.25 1.11-.01 6.25-4.18 8.6-.29.95 1.58 1.73 2.92 2.58 4.1V27.87z" fill="#3c2c23"/><radialGradient id="aala" cx="106.827" cy="26.951" r="11.564" gradientTransform="matrix(.9378 .3473 -.3621 .9777 16.407 -36.498)" gradientUnits="userSpaceOnUse"><stop offset=".177" stop-color="#554138"/><stop offset=".663" stop-color="#554138" stop-opacity="0"/></radialGradient><path d="M124 27.87s-2.95-2.12-9.37-.63c-2.82.65-5.76 3.38-8.22 1.85-2.51-1.56-2.46-5.44-.84-7.92-.02.02-3.72 1.14-5.12 4.44-2.82 6.61-1.29 18.29 23.57 21.54-.11 0-.02-17.1-.02-19.28z" fill="url(#aala)"/><radialGradient id="aalb" cx="97.696" cy="57.312" r="33.753" gradientTransform="matrix(.81 .5864 -.7067 .9762 59.058 -55.924)" gradientUnits="userSpaceOnUse"><stop offset=".602" stop-color="#554138" stop-opacity="0"/><stop offset="1" stop-color="#554138"/></radialGradient><path d="M124 27.87s-2.95-2.12-9.37-.63c-2.82.65-5.76 3.38-8.22 1.85-2.51-1.56-7.26 25.42 17.6 28.66-.1 0-.01-27.7-.01-29.88z" fill="url(#aalb)"/><radialGradient id="aalc" cx="84.222" cy="50.581" r="20.851" gradientTransform="matrix(1 0 0 1.3502 0 -3.38)" gradientUnits="userSpaceOnUse"><stop offset=".602" stop-color="#554138" stop-opacity="0"/><stop offset="1" stop-color="#554138"/></radialGradient><path d="M83.56 48.67c-6.8.91-9.09-3.84-9.09-3.84-9.46 3.93-9.79 10.72-9.83 15.18-.03 3.3.83 6.51 2.12 9.56 0 0-1.82 2.9-1.26 8.66.28 2.86 2 7.81 5.55 9.34 0 0 .19-7.83.32-10.25.03-.6.65-9.77 1.29-9.63 5.08 1.13 17.81-13.33 10.9-19.02z" fill="url(#aalc)"/><radialGradient id="aald" cx="92.501" cy="47.092" r="19.552" gradientTransform="matrix(.9554 -.2952 .2576 .8338 -8.01 35.134)" gradientUnits="userSpaceOnUse"><stop offset=".602" stop-color="#554138" stop-opacity="0"/><stop offset="1" stop-color="#554138"/></radialGradient><path d="M97.66 34.59c-1.73-6.9-12.84-5.88-17.82-1.96-2.79 2.2-5.36 5.86-5.36 12.19 0 0 .92 1.33 1.7 2.03 1.26 1.13 2.86 1.8 4.54 2.03 4.42.6 9.07-.69 12.55-3.5 2.35-1.9 4.21-4.57 4.55-7.58.14-1.22.08-2.28-.16-3.21z" fill="url(#aald)"/><radialGradient id="aale" cx="104.323" cy="31.345" r="9.034" gradientTransform="matrix(.9051 .4252 -.6155 1.3102 29.19 -54.078)" gradientUnits="userSpaceOnUse"><stop offset=".598" stop-color="#554138" stop-opacity="0"/><stop offset="1" stop-color="#554138"/></radialGradient><path d="M106.41 29.09c-2.51-1.56-2.46-5.44-.84-7.92-.08.12-1.8.08-1.99.11-1.48.2-2.94.66-4.22 1.44-1.67 1.03-2.88 2.6-3.5 4.46-.45 1.33-.61 2.57-.52 3.78 0 0 2.19 1.39 2.53 4.7.06.64 9.79-5.8 8.54-6.57z" fill="url(#aale)"/><g><path d="M25.73 34.74c27.05 0 31.37 19.51 31.37 47.59 0 23.97-10.35 39.27-28.5 41.22-9.35 1-17.91-.79-24.6-5.64V40.6c5.31-3.77 12.38-5.86 21.73-5.86z" fill="#e0bb95"/><g fill="#ab872f"><path d="M21.35 77.36c-.97-1.29-3.22-3.16-7.58-3.16s-6.61 1.87-7.58 3.16c-.43.57-.32 1.23-.02 1.62.28.37 1.09.71 1.99.41.9-.31 2.66-1.22 5.61-1.24 2.95.02 4.71.93 5.61 1.24.9.31 1.72-.04 1.99-.41.3-.39.41-1.05-.02-1.62zM54.33 77.36c-.97-1.29-3.22-3.16-7.58-3.16s-6.61 1.87-7.58 3.16c-.43.57-.32 1.23-.02 1.62.28.37 1.09.71 1.99.41.9-.31 2.66-1.22 5.61-1.24 2.95.02 4.71.93 5.61 1.24.9.31 1.72-.04 1.99-.41.3-.39.41-1.05-.02-1.62z"/></g><g fill="#5d4037"><path d="M19.35 85.64c.67-.79 1.07-.16 1.2.36.45 1.76-.25 4.54-3.47 5.43-4.36 1.2-8.76-1.42-9.25-4.98-.06-.44.43-.77.82-.55 1.31.72 2.93 2.23 6.3 1.88 3.28-.33 3.68-1.29 4.4-2.14zM52.2 85.64c.67-.79 1.07-.16 1.2.36.45 1.76-.25 4.54-3.47 5.43-4.36 1.2-8.76-1.42-9.25-4.98-.06-.44.43-.77.82-.55 1.31.72 2.93 2.23 6.3 1.88 3.28-.33 3.68-1.29 4.4-2.14z"/></g><path d="M36.35 114.85c3.02.38 8.02-2.23 6.91-5.19-.42-1.12-2.1-1.45-2.1-1.45s2.76-3.12 1.34-4.76c-1.91-2.21-5.07-.59-7.43-1.27-.48-.14-.99-.36-1.46-.2.2.94.76 1.62 1.95 2.04 1.34.47 2.8.2 3.54.83.76.66.11 1.59-.87 2.17-1.39.82-3.47 1.24-3.37 1.9.11.72 2.49.8 3.02.95.48.14 1.18.32 1.39.83.38.89-.93 1.85-1.6 2.25-.74.44-2.61.93-2.68.99-.14.12-.11.37.02.51.13.15 1.05.36 1.34.4z" fill="#6d4c41"/><path d="M38.35 93.53c-.11-.04-.22-.07-.33-.09h-7.33c-.11.01-.22.04-.33.09-.66.27-1.03.96-.72 1.69.31.73 1.77 2.79 4.71 2.79s4.4-2.06 4.71-2.79c.31-.73-.05-1.42-.71-1.69z" fill="#c48e6a"/><path d="M62.52 55.44c-1.44-5.5-3.51-16.65-11.47-22.57-11.22-8.35-18.1-2.25-20.55-3.78-2.51-1.56-2.46-5.44-.84-7.92 0 0-10.1-.63-10.27 9.57-5.55-2.67-12.02-.77-15.39 1.84v38.48c17.28-.69 27.89-13.08 36.67-14.16 3.4-.42 7.01 6.28 8.35 6.27 1.11-.01 5.86-3.42 6.89 1 .97 4.17 1.19 15.34 1.19 15.34 5.08-5.99 8.18-13.5 5.42-24.07z" fill="#ab872f"/><radialGradient id="aalf" cx="33.723" cy="27.052" r="11.78" gradientTransform="matrix(.9378 .3473 -.3751 1.0129 12.247 -12.062)" gradientUnits="userSpaceOnUse"><stop offset=".206" stop-color="#bfa055"/><stop offset=".646" stop-color="#bfa055" stop-opacity="0"/></radialGradient><path d="M37.38 28.49s-1.37.18-2.58.42c-1.83.36-3.86.74-4.71-.04-2.02-1.86-2.05-5.22-.43-7.7-.02.02-2.83 1.04-4.23 5.09-.71 2.07-1.24 8.83 3.53 11.02 6.27 2.88 13.74 1.1 15.53-1.02 2.29-2.69-4.61-8.34-7.11-7.77z" fill="url(#aalf)"/><radialGradient id="aalg" cx="28.408" cy="31.345" r="9.034" gradientTransform="matrix(.9051 .4252 -.6155 1.3102 21.987 -21.802)" gradientUnits="userSpaceOnUse"><stop offset=".598" stop-color="#bfa055" stop-opacity="0"/><stop offset="1" stop-color="#bfa055"/></radialGradient><path d="M30.5 29.09c-2.51-1.56-2.46-5.44-.84-7.92-.08.12-1.8.08-1.99.11-1.48.2-2.94.66-4.22 1.44-1.67 1.03-2.88 2.6-3.5 4.46-.45 1.33-.61 2.57-.52 3.78 0 0 2.19 1.39 2.53 4.7.05.64 9.79-5.8 8.54-6.57z" fill="url(#aalg)"/><radialGradient id="aalh" cx="30.911" cy="54.034" r="36.311" gradientTransform="matrix(.9554 -.2952 .2576 .8338 -12.543 18.105)" gradientUnits="userSpaceOnUse"><stop offset=".602" stop-color="#bfa055" stop-opacity="0"/><stop offset="1" stop-color="#bfa055"/></radialGradient><path d="M18.26 49.03c1.55-2.59 3.29-8.22 3.64-11.22.14-1.22.08-2.29-.15-3.21-.47-1.88-1.48-3.18-2.8-4.03-8.47-3.18-14.67 1.8-14.95 2.01V64c.27.05 7.84-4.23 14.26-14.97z" fill="url(#aalh)"/><radialGradient id="aali" cx="49.402" cy="51.243" r="18.552" gradientTransform="matrix(1 0 0 1.5527 0 -28.322)" gradientUnits="userSpaceOnUse"><stop offset=".475" stop-color="#bfa055" stop-opacity="0"/><stop offset=".845" stop-color="#bfa055"/></radialGradient><path d="M62.52 55.44c-1.44-5.5-3.51-16.65-11.47-22.57-1.52-1.13-2.95-1.99-4.31-2.64l2.28 32.94c1.11-.01 5.86-3.42 6.89 1 .97 4.17 1.19 15.34 1.19 15.34 5.08-5.99 8.18-13.5 5.42-24.07z" fill="url(#aali)"/></g><g><path d="M78.41 3.74C67.87 3.74 64 14.5 64 14.5S60.18 3.74 49.57 3.74c-7.97 0-17.07 6.32-13.71 20.68 3.36 14.36 28.16 32.26 28.16 32.26s24.72-17.9 28.08-32.26c3.36-14.36-5.08-20.68-13.69-20.68z" fill="#ef5592"/><g fill="#da2e75"><path d="M47.94 4.81c8.27 0 12.38 8.89 13.71 12.5.19.51.91.53 1.12.03l1.21-2.83c-1.71-5.45-6.4-10.77-14.41-10.77-3.32 0-6.82 1.1-9.55 3.41 2.4-1.59 5.23-2.34 7.92-2.34zM78.41 3.74c-2.55 0-4.7.74-6.51 1.85 1.27-.49 2.68-.78 4.23-.78 7.8 0 14.77 5.91 11.62 19.58-2.7 11.73-18.5 25.96-23.32 31.39-.31.35-.41.91-.41.91s24.72-17.9 28.08-32.26c3.36-14.37-5.72-20.69-13.69-20.69z"/></g><path d="M41.4 11.36c1.8-2.25 5.03-4.11 7.76-1.97 1.48 1.16.83 3.54-.49 4.54-1.93 1.46-3.6 2.34-4.77 4.63-.7 1.38-1.13 2.88-1.34 4.42-.08.61-.88.75-1.18.22-2.04-3.6-2.61-8.55.02-11.84zM70.31 16.09c-.85 0-1.44-.82-1.13-1.61a19.31 19.31 0 012.2-4.11c1.32-1.85 3.82-2.92 5.41-1.81 1.63 1.15 1.42 3.43.27 4.54-2.45 2.39-5.53 2.99-6.75 2.99z" fill="#f386ab"/></g></svg><svg viewBox="-10.67 -10.67 149.33 149.33" width="28" height="28" id="noto-emoji-emoji_u1f9d4_200d_2642" y="84" xmlns="http://www.w3.org/2000/svg"><path d="M99.09 58.61H28.9c-8 0-14.55 6.97-14.55 15.5s6.54 15.5 14.55 15.5h70.2c8 0 14.55-6.97 14.55-15.5s-6.55-15.5-14.56-15.5z" fill="#e59600"/><path d="M64.11 3.79h-.02-.02C9.78 4.1 19.19 71.7 19.19 71.7s3.28 50.38 42.87 52.04c.14.01.29.01.42.02.52.02 1.06.03 1.6.03h.02c.55 0 1.09-.01 1.63-.03.13 0 .27-.01.4-.02 39.56-1.64 42.23-51.2 42.23-51.2S120.37 4.11 64.11 3.79z" fill="#543930"/><radialGradient id="aama" cx="66.431" cy="66.377" r="62.322" gradientTransform="matrix(0 -.9583 -.7417 0 113.585 127.299)" gradientUnits="userSpaceOnUse"><stop offset=".794" stop-color="#6d4c41" stop-opacity="0"/><stop offset="1" stop-color="#6d4c41"/></radialGradient><path d="M64.11 3.79h-.02-.02C9.78 4.1 19.19 71.7 19.19 71.7s3.4 52.09 44.9 52.09 44.27-51.25 44.27-51.25S120.37 4.11 64.11 3.79z" fill="url(#aama)"/><path d="M98.67 89.2c-1.67 4.8-4.41 7.27-8.74 8.2-7.08 1.84-9.21-7.77-25.95-7.77s-20.24 9.33-27.23 7.72c-5.52-1.19-7.48-7.13-8.67-11.53-2.89-10.76-.04-36.33.95-38.99a8.163 8.163 0 019.13-5.21c5.98 1.1 15.51 2.45 26.02 2.45h.23c10.51 0 20.04-1.36 26.02-2.45a8.169 8.169 0 019.13 5.21c1.08 2.9 4.05 28.13-.89 42.37z" fill="#ffca28"/><path d="M69.24 85.69c-.15-.06-.29-.09-.44-.11h-9.6c-.15.02-.29.05-.44.11-.87.35-1.35 1.25-.94 2.21.42.96 2.33 3.65 6.18 3.65s5.76-2.69 6.18-3.65c.4-.95-.08-1.85-.94-2.21z" fill="#e59600"/><g fill="#6d4c41"><path d="M95.56 62.25c.01-.01-3.09-4.92-10.26-4.92s-10.27 4.9-10.27 4.9l.01.01c-.25.35-.41.78-.41 1.25 0 1.19.95 2.15 2.13 2.15.24 0 .84-.18.89-.2 4.3-1.79 7.66-1.79 7.66-1.79s3.34.01 7.63 1.8c.05.03.65.2.89.2 1.18 0 2.13-.96 2.13-2.14 0-.48-.15-.91-.4-1.26zM52.97 62.23c.01-.01-3.09-4.92-10.26-4.92s-10.27 4.9-10.27 4.9l.01.01c-.25.35-.41.78-.41 1.25 0 1.19.95 2.15 2.13 2.15.24 0 .84-.18.89-.2 4.3-1.79 7.66-1.79 7.66-1.79s3.34.01 7.63 1.8c.05.03.65.2.89.2 1.18 0 2.13-.96 2.13-2.14 0-.48-.15-.91-.4-1.26z"/></g><g fill="#404040"><ellipse cx="42.96" cy="73.33" rx="6.67" ry="6.91"/><ellipse cx="85.43" cy="73.33" rx="6.67" ry="6.91"/></g><path d="M64.24 107.43c5.14 0 10.84-3.12 13.63-5.51.74-.62.29-1.83-.68-1.83h-26c-.97 0-1.41 1.21-.68 1.83 2.84 2.39 8.6 5.51 13.73 5.51z" fill="#ffca28"/></svg><svg viewBox="-10.67 -10.67 149.33 149.33" width="28" height="28" id="noto-emoji-emoji_u1faa0" x="28" y="84" xmlns="http://www.w3.org/2000/svg"><radialGradient id="aana" cx="32.023" cy="77.381" r="40.304" gradientTransform="rotate(45.001 28.579 94.523)" gradientUnits="userSpaceOnUse"><stop offset=".231" stop-color="#e06055"/><stop offset="1" stop-color="#ad3731"/></radialGradient><path d="M59.79 94.85c1.54-7.76-.75-15.45-6.72-21.42s-14.58-7.15-22.33-5.6c-7.13 1.42-9.97 6.17-19.37 5.6 0 0-9.92 13.52 8.79 32.92 19.4 18.71 32.92 8.79 32.92 8.79-.58-9.41 5.29-13.16 6.71-20.29z" fill="url(#aana)"/><radialGradient id="aanb" cx="91.112" cy="68.686" r="17.159" gradientTransform="matrix(-.9979 .0647 .0679 1.0485 123.144 -9.22)" gradientUnits="userSpaceOnUse"><stop offset="0" stop-color="#eee"/><stop offset="1" stop-color="#eee" stop-opacity="0"/></radialGradient><path d="M53.42 79.82c0-7.75-7.05-12.6-16.11-12.6s-18.45 3.54-18.89 15.39c-.29 7.75 5.14 24.76 17.86 20.05 8.49-3.14 17.14-15.09 17.14-22.84z" opacity=".37" fill="url(#aanb)"/><linearGradient id="aanc" gradientUnits="userSpaceOnUse" x1="53.147" y1="74.61" x2="41.307" y2="85.45" gradientTransform="rotate(-1.812 49.319 77.79)"><stop offset="0" stop-color="#e06055"/><stop offset="1" stop-color="#ad3731"/></linearGradient><path d="M56.57 70.49c4.79 4.5 5.9 11.11 2.47 14.76-3.43 3.66-10.1 2.97-14.89-1.53s-5.9-11.11-2.47-14.76c3.43-3.65 10.09-2.97 14.89 1.53z" fill="url(#aanc)"/><ellipse transform="rotate(-46.812 51.296 76.118)" cx="51.29" cy="76.11" rx="7.41" ry="11.48" fill="#e06055"/><linearGradient id="aand" gradientUnits="userSpaceOnUse" x1="28.108" y1="28.496" x2="75.579" y2="76.318" gradientTransform="matrix(-1 0 0 1 128.001 0)"><stop offset=".189" stop-color="#8c5237"/><stop offset="1" stop-color="#754832"/></linearGradient><path d="M58.32 78.5l63-61.26c2.16-2.16 2.67-6.82-.62-10.12-3.33-3.33-8.59-1.25-10.54.69l-61.43 62.9c-1.94 1.94-1.02 5.29 1.29 7.34 3.33 2.96 7.33 1.42 8.3.45z" fill="url(#aand)"/><radialGradient id="aane" cx="122.177" cy="7.305" r="14.446" gradientUnits="userSpaceOnUse"><stop offset="0" stop-color="#ffcc80" stop-opacity=".4"/><stop offset="1" stop-color="#ffcc80" stop-opacity="0"/></radialGradient><path d="M111.07 7.39c-2.43 2.43-2.2 6.6.5 9.3 2.71 2.71 6.87 2.93 9.3.5 2.43-2.43 2.89-6.97.18-9.68-2.7-2.7-7.55-2.55-9.98-.12z" fill="url(#aane)"/><path d="M54.3 107.14c-1.98 2.49-1.64 6.73-1.64 6.73-12.33 4.86-25.01-5.06-30.63-10.24-4.56-4.21-14.65-19.49-8.61-29.99 0 0 4.63.3 7.28-1.74 0 0-3.63-3.03-7.32-2.92-1.28.04-5.83-.77-7.65 5.96-.72 2.64-4.04 16.88 11.69 34.58 17.07 16.78 30.38 12.96 32.91 12.4 6.2-1.38 6.66-5.84 6.86-7.44.57-4.37-2.89-7.34-2.89-7.34z" fill="#e06055"/></svg><svg viewBox="-10.67 -10.67 149.33 149.33" width="28" height="28" id="noto-emoji-emoji_u264b" x="56" y="84" xmlns="http://www.w3.org/2000/svg"><linearGradient id="aaoa" x1="64" x2="64" y1="3.667" y2="124.02" gradientUnits="userSpaceOnUse"><stop stop-color="#FFCA28" offset="0"/><stop stop-color="#FFB716" offset=".505"/><stop stop-color="#FFA000" offset="1"/></linearGradient><circle cx="64" cy="64" r="60" fill="url(#aaoa)"/><path d="M64 7c31.43 0 57 25.57 57 57s-25.57 57-57 57S7 95.43 7 64 32.57 7 64 7m0-3C30.86 4 4 30.86 4 64s26.86 60 60 60 60-26.86 60-60S97.14 4 64 4z" fill="#424242" opacity=".2"/><g fill="#424242" opacity=".2"><path d="M62.43 25.8c6.64 0 12.97 1.09 18.82 3.25 5.79 2.1 10.89 5.18 15.18 9.15.73.68 1.15 1.65 1.15 2.68 0 2-1.6 3.63-3.56 3.63-.69 0-1.36-.21-1.95-.6-3.63-2.43-7.66-4.4-11.98-5.85-5.54-1.82-11.48-2.74-17.65-2.74-2.69 0-5.34.17-7.93.51 6.67 4.54 10.39 12.59 9.45 21.01-1.13 10.08-9.06 18.22-18.87 19.33-.81.09-1.64.14-2.45.14-11.83 0-21.46-9.91-21.46-22.08 0-8.3 3.88-19.43 22.39-25.28 7.05-2.24 12.51-3.15 18.86-3.15M42.64 66.5c6.55 0 11.88-5.51 11.88-12.28s-5.33-12.28-11.88-12.28-11.88 5.51-11.88 12.28S36.09 66.5 42.64 66.5m19.79-43.7c-6.68 0-12.4.95-19.77 3.28-20.24 6.4-24.49 18.83-24.49 28.14 0 13.83 10.97 25.08 24.46 25.08.92 0 1.86-.05 2.78-.16 11.19-1.27 20.23-10.52 21.51-21.98.77-6.93-1.23-13.68-5.37-18.85.29 0 .58-.01.87-.01 5.86 0 11.48.87 16.71 2.59 4.05 1.36 7.85 3.21 11.25 5.49 1.08.73 2.34 1.11 3.62 1.11 3.61 0 6.56-2.97 6.56-6.63 0-1.86-.77-3.64-2.11-4.88-4.58-4.24-10.03-7.53-16.19-9.77-6.15-2.25-12.83-3.41-19.83-3.41zM42.64 63.5c-4.9 0-8.88-4.16-8.88-9.28s3.98-9.28 8.88-9.28 8.88 4.16 8.88 9.28-3.99 9.28-8.88 9.28z"/><path d="M85.36 51.7c11.84 0 21.46 9.91 21.46 22.08 0 8.3-3.88 19.43-22.39 25.28-7.05 2.23-12.52 3.14-18.87 3.14-6.64 0-12.97-1.09-18.82-3.25-5.79-2.1-10.89-5.18-15.18-9.15a3.656 3.656 0 01-1.15-2.68c0-2 1.6-3.63 3.56-3.63.69 0 1.36.21 1.95.6 3.63 2.43 7.66 4.4 11.98 5.85 5.54 1.82 11.48 2.74 17.65 2.74 2.69 0 5.34-.17 7.93-.51-6.67-4.54-10.39-12.59-9.45-21.01 1.13-10.08 9.06-18.22 18.87-19.33.83-.08 1.65-.13 2.46-.13m0 34.36c6.55 0 11.88-5.51 11.88-12.28S91.91 61.5 85.36 61.5s-11.88 5.51-11.88 12.28 5.33 12.28 11.88 12.28m0-37.36c-.92 0-1.86.05-2.78.16-11.19 1.27-20.23 10.52-21.51 21.98-.77 6.93 1.23 13.68 5.37 18.85-.29 0-.58.01-.87.01-5.86 0-11.48-.87-16.71-2.59-4.05-1.36-7.85-3.21-11.25-5.49a6.458 6.458 0 00-3.62-1.11c-3.61 0-6.56 2.97-6.56 6.63 0 1.86.77 3.64 2.11 4.88 4.58 4.24 10.03 7.53 16.19 9.77 6.16 2.27 12.84 3.43 19.84 3.43 6.68 0 12.4-.95 19.77-3.28 20.24-6.4 24.49-18.83 24.49-28.14 0-13.85-10.98-25.1-24.47-25.1zm0 34.36c-4.9 0-8.88-4.16-8.88-9.28s3.98-9.28 8.88-9.28 8.88 4.16 8.88 9.28-3.98 9.28-8.88 9.28z"/></g><g fill="#FAFAFA"><path d="M45.08 76.16c9.81-1.12 17.74-9.25 18.87-19.33.94-8.42-2.78-16.47-9.45-21.01 2.59-.34 5.25-.51 7.93-.51 6.17 0 12.11.92 17.65 2.74 4.32 1.45 8.36 3.42 11.98 5.85.59.39 1.26.6 1.95.6 1.96 0 3.56-1.63 3.56-3.63 0-1.03-.42-2-1.15-2.68-4.28-3.97-9.39-7.05-15.18-9.15-5.84-2.16-12.18-3.25-18.82-3.25-6.35 0-11.81.91-18.87 3.14-18.51 5.85-22.39 16.98-22.39 25.28 0 12.18 9.63 22.08 21.46 22.08.83.01 1.65-.04 2.46-.13zM30.76 54.22c0-6.77 5.33-12.28 11.88-12.28s11.88 5.51 11.88 12.28S49.19 66.5 42.64 66.5s-11.88-5.51-11.88-12.28z"/><path d="M85.36 51.7c-.81 0-1.63.05-2.45.14-9.81 1.12-17.74 9.25-18.87 19.33-.94 8.42 2.78 16.47 9.45 21.01-2.59.34-5.25.51-7.93.51-6.17 0-12.11-.92-17.65-2.74-4.32-1.45-8.36-3.42-11.98-5.85-.59-.39-1.26-.6-1.95-.6-1.96 0-3.56 1.63-3.56 3.63 0 1.03.42 2 1.15 2.68 4.28 3.97 9.39 7.05 15.18 9.15 5.84 2.16 12.18 3.25 18.82 3.25 6.35 0 11.81-.91 18.87-3.14 18.51-5.85 22.39-16.98 22.39-25.28 0-12.18-9.63-22.09-21.47-22.09zm0 34.36c-6.55 0-11.88-5.51-11.88-12.28S78.81 61.5 85.36 61.5s11.88 5.51 11.88 12.28-5.33 12.28-11.88 12.28z"/></g></svg><svg viewBox="-10.67 -10.67 149.33 149.33" width="28" height="28" id="noto-emoji-emoji_u27bf" x="84" y="84" xmlns="http://www.w3.org/2000/svg"><linearGradient id="aapa" gradientUnits="userSpaceOnUse" x1="64.05" y1="95.581" x2="64.05" y2="31.276"><stop offset=".485" stop-color="#504f4f"/><stop offset="1" stop-color="#757575"/></linearGradient><path d="M95.2 34.4c-.2.1-.5.1-.8 0-5.5-2.5-16.7-6.7-30.3-6.7s-24.8 4.2-30.3 6.7c-.2.1-.5.1-.8 0-10.3-3.9-17.2-5.2-25-5.2-2.2 0-4 1.8-4 4v6.4c0 2.2 1.8 4 3.9 4 2.2 0 4.1.3 7.2.8.8.1 1.1 1.1.6 1.7C8 54.2 4.5 64.8 6.1 76.9c1.8 13.3 13.6 23.4 27.7 23.4 13.9 0 25.8-10.1 27.6-23.4 1.7-12.6-2.1-23.5-10.5-31.8-.6-.5-.3-1.5.5-1.7 3.8-.9 8.1-1.5 12.8-1.5s9 .6 12.8 1.5c.8.2 1 1.1.5 1.7-8.5 8.3-12.3 19.3-10.6 31.8 1.8 13.3 13.6 23.4 27.7 23.4 13.9 0 25.8-10.1 27.6-23.4 1.6-12.1-1.8-22.8-9.6-30.9-.6-.6-.2-1.5.6-1.7 3.5-.6 5.3-.9 7.9-.8 1.7 0 3-1.3 3-3v-7.4c0-2.2-1.8-4-4-4-7.9.1-14.6 1.4-24.9 5.3zm-48 40.7C46.3 81.9 39.7 86 33.7 86c-5.9 0-12.4-4.1-13.3-10.9-1.4-10.7 2.8-18.8 12.5-24.2.6-.3 1.3-.3 1.9 0 9.6 5.4 13.8 13.5 12.4 24.2zm60.7 0C107 81.9 100.4 86 94.4 86c-5.8 0-12.4-4.1-13.3-10.9-1.4-10.7 2.8-18.8 12.5-24.2.6-.3 1.3-.3 1.9 0 9.7 5.4 13.8 13.5 12.4 24.2z" fill="url(#aapa)"/></svg></svg>