<?xml version="1.0" encoding="utf-8"?><svg width="112" height="112" viewBox="0 0 112 112" xmlns="http://www.w3.org/2000/svg" xmlns:xlink="http://www.w3.org/1999/xlink"><svg viewBox="-21.33 -21.33 298.67 298.67" width="28" height="28" id="phosphor-icons-arrow-fat-up-duotone" xmlns="http://www.w3.org/2000/svg"><path d="M32 120l96-96 96 96h-48v88a8 8 0 01-8 8H88a8 8 0 01-8-8v-88z" opacity=".2"/><path d="M229.657 114.343l-96-96a8.003 8.003 0 00-11.314 0l-96 96A8 8 0 0032 128h40v80a16.018 16.018 0 0016 16h80a16.018 16.018 0 0016-16v-80h40a8 8 0 005.657-13.657zM176 112a8 8 0 00-8 8v88H88v-88a8 8 0 00-8-8H51.313L128 35.313 204.687 112z"/></svg><svg viewBox="-21.33 -21.33 298.67 298.67" width="28" height="28" id="phosphor-icons-arrow-line-down-right-thin" x="28" xmlns="http://www.w3.org/2000/svg"><path d="M196 104v96a4 4 0 01-4 4H96a4 4 0 010-8h86.344L77.172 90.829a4 4 0 015.656-5.658L188 190.344V104a4 4 0 018 0zm12-68H48a4 4 0 000 8h160a4 4 0 000-8z"/></svg><svg viewBox="-21.33 -21.33 298.67 298.67" width="28" height="28" id="phosphor-icons-arrows-clockwise-thin" y="28" xmlns="http://www.w3.org/2000/svg"><path d="M227.658 101.632c-.055.1-.1.205-.164.302a4.017 4.017 0 01-1.109 1.108c-.098.066-.205.112-.308.168a2.337 2.337 0 01-.787.326c-.114.034-.222.078-.34.1a4.015 4.015 0 01-.783.08h-48a4 4 0 010-8h38.344l-27.114-27.113a84.096 84.096 0 00-118.794 0 4 4 0 01-5.657-5.657 92 92 0 01130.108 0l27.113 27.114V51.716a4 4 0 018 0v48a4.01 4.01 0 01-.08.783c-.023.118-.066.227-.1.341a2.346 2.346 0 01-.33.792zm-40.26 85.765a84.096 84.096 0 01-118.795 0l-27.114-27.113h38.344a4 4 0 000-8h-48a4.018 4.018 0 00-.784.08c-.116.022-.223.066-.335.099a2.334 2.334 0 00-.788.326c-.104.056-.212.102-.312.169a4.018 4.018 0 00-1.108 1.108c-.065.097-.11.203-.165.304a2.349 2.349 0 00-.329.792c-.033.113-.077.221-.1.339a4.015 4.015 0 00-.079.783v48a4 4 0 008 0V165.94l27.113 27.114a92 92 0 00130.108 0 4 4 0 00-5.657-5.657z"/></svg><svg viewBox="-21.33 -21.33 298.67 298.67" width="28" height="28" id="phosphor-icons-arrows-out-cardinal-light" x="28" y="28" xmlns="http://www.w3.org/2000/svg"><path d="M160.526 199.473a5.999 5.999 0 010 8.485l-28.28 28.281q-.21.21-.44.398c-.03.025-.063.047-.094.071a6.018 6.018 0 01-.378.28c-.03.02-.062.036-.092.056-.134.086-.27.17-.412.247l-.064.03c-.153.08-.308.155-.468.221l-.038.014c-.167.068-.338.13-.512.184l-.054.013c-.169.05-.34.095-.513.13-.048.01-.096.013-.144.021-.144.026-.29.051-.438.066a5.944 5.944 0 01-1.198 0 5.82 5.82 0 01-.438-.066c-.048-.008-.096-.012-.144-.022a6.028 6.028 0 01-.513-.129l-.054-.013a6.086 6.086 0 01-.512-.184l-.038-.014a6.096 6.096 0 01-.468-.22c-.02-.012-.043-.02-.064-.031a5.944 5.944 0 01-.412-.247c-.03-.02-.063-.036-.093-.057a6.03 6.03 0 01-.378-.279c-.03-.024-.063-.046-.094-.07q-.229-.189-.439-.399l-28.28-28.28a6 6 0 018.484-8.486L122 217.515V160a6 6 0 0112 0v57.515l18.042-18.042a5.999 5.999 0 018.484 0zM103.958 56.527L122 38.485V96a6 6 0 0012 0V38.485l18.042 18.042a6 6 0 008.484-8.486l-28.28-28.28a5.943 5.943 0 00-.44-.398c-.03-.025-.063-.047-.094-.071a6.018 6.018 0 00-.378-.28c-.03-.02-.062-.036-.092-.055a5.944 5.944 0 00-.412-.248l-.064-.03a6.094 6.094 0 00-.468-.221l-.038-.014a6.086 6.086 0 00-.512-.184l-.054-.013a6.033 6.033 0 00-.513-.13c-.048-.01-.096-.013-.144-.021a5.838 5.838 0 00-.438-.066 5.944 5.944 0 00-1.198 0 5.82 5.82 0 00-.438.066c-.048.008-.096.012-.144.022-.174.034-.344.08-.513.129l-.054.013a6.086 6.086 0 00-.512.184l-.038.014c-.16.066-.315.142-.468.22-.02.012-.043.02-.064.031-.141.077-.278.16-.412.248-.03.02-.063.035-.093.056a6.03 6.03 0 00-.377.279l-.095.07c-.153.126-.3.26-.44.4l-28.28 28.28a6 6 0 008.485 8.485zM38.485 134H96a6 6 0 000-12H38.485l18.041-18.041a6 6 0 00-8.484-8.486l-28.28 28.28a6.024 6.024 0 00-.76.928c-.013.02-.023.042-.037.063a5.987 5.987 0 00-.513.975l-.028.076a5.952 5.952 0 00-.31 1.042l-.008.059a5.804 5.804 0 000 2.208c.003.02.005.04.009.059a5.952 5.952 0 00.309 1.042c.01.025.017.05.028.076a5.987 5.987 0 00.513.975c.014.02.024.042.038.063a6.043 6.043 0 00.758.927l28.281 28.28a6 6 0 008.484-8.485zm198.512-2.681c.014-.02.024-.042.038-.063a5.988 5.988 0 00.513-.975l.028-.076a5.952 5.952 0 00.31-1.042l.008-.059a5.804 5.804 0 000-2.208c-.003-.02-.005-.04-.009-.059a5.952 5.952 0 00-.309-1.042c-.01-.025-.017-.05-.028-.076a5.988 5.988 0 00-.513-.975c-.014-.02-.024-.042-.038-.063a6.024 6.024 0 00-.759-.927l-28.28-28.28a6 6 0 00-8.484 8.484L217.514 122H160a6 6 0 000 12h57.515l-18.041 18.041a6 6 0 108.484 8.486l28.281-28.281a6.043 6.043 0 00.758-.927z"/></svg><svg viewBox="-21.33 -21.33 298.67 298.67" width="28" height="28" id="phosphor-icons-cloud-fog-light" x="56" xmlns="http://www.w3.org/2000/svg"><path d="M120 198H72a6 6 0 010-12h48a6 6 0 010 12zm64-12h-24a6 6 0 000 12h24a6 6 0 000-12zm-24 32h-56a6 6 0 000 12h56a6 6 0 000-12zm70-126a74.084 74.084 0 01-74 74H76a50 50 0 1110.322-98.933A74.003 74.003 0 01230 92zm-12 0a62 62 0 00-124 0 6 6 0 01-12 0 74.215 74.215 0 011.2-13.32A38.004 38.004 0 1076 154h80a62.07 62.07 0 0062-62z"/></svg><svg viewBox="-21.33 -21.33 298.67 298.67" width="28" height="28" id="phosphor-icons-cloud-slash-fill" x="56" y="28" xmlns="http://www.w3.org/2000/svg"><path d="M213.92 210.619a8 8 0 11-11.84 10.762l-10.281-11.31A87.302 87.302 0 01160 216H72a64 64 0 119.262-127.333l.061-.118L42.081 45.38A8 8 0 1153.919 34.62zM160 40a87.32 87.32 0 00-52.11 17.08 8 8 0 00-1.177 11.825L213.76 186.658a8 8 0 005.92 2.618h.034a7.999 7.999 0 005.931-2.67A88 88 0 00160 40z"/></svg><svg viewBox="-21.33 -21.33 298.67 298.67" width="28" height="28" id="phosphor-icons-cloud-snow-light" y="56" xmlns="http://www.w3.org/2000/svg"><path d="M156 18a74.128 74.128 0 00-69.678 49.067A50.004 50.004 0 1076 166h80a74 74 0 000-148zm0 136H76a38 38 0 117.2-75.32A74.206 74.206 0 0082 92a6 6 0 0012 0 62 62 0 1162 62zm18 42a10 10 0 11-10-10 10.011 10.011 0 0110 10zm-88 0a10 10 0 11-10-10 10.011 10.011 0 0110 10zm40 16a10 10 0 11-10-10 10.011 10.011 0 0110 10zm-48 24a10 10 0 11-10-10 10.011 10.011 0 0110 10zm88 0a10 10 0 11-10-10 10.011 10.011 0 0110 10z"/></svg><svg viewBox="-21.33 -21.33 298.67 298.67" width="28" height="28" id="phosphor-icons-download-simple-fill" x="28" y="56" xmlns="http://www.w3.org/2000/svg"><path d="M80.343 115.657a8 8 0 0111.314-11.314L120 132.686V39.971a8 8 0 1116 0v92.715l28.343-28.343a8 8 0 1111.314 11.314l-42 42a8 8 0 01-11.314 0zM224 128a8 8 0 00-8 8v72H40v-72a8 8 0 00-16 0v72a16.018 16.018 0 0016 16h176a16.018 16.018 0 0016-16v-72a8 8 0 00-8-8z"/></svg><svg viewBox="-21.33 -21.33 298.67 298.67" width="28" height="28" id="phosphor-icons-git-merge-thin" x="56" y="56" xmlns="http://www.w3.org/2000/svg"><path d="M188.003 108a32.037 32.037 0 00-32 32h-25.52a43.88 43.88 0 01-33.802-15.832L75.746 99.047A32.016 32.016 0 1064 99.74v56.518a32 32 0 108 0v-49.211l18.534 22.241A51.86 51.86 0 00130.482 148h26.534a32.002 32.002 0 1030.987-40zM44 68a24 24 0 1124 24 24.027 24.027 0 01-24-24zm48 120a24 24 0 11-24-24 24.027 24.027 0 0124 24zm96.003-24a24 24 0 1124-24 24.027 24.027 0 01-24 24z"/></svg><svg viewBox="-21.33 -21.33 298.67 298.67" width="28" height="28" id="phosphor-icons-hand-grabbing" x="84" xmlns="http://www.w3.org/2000/svg"><path d="M188 80a27.829 27.829 0 00-13.358 3.397A27.974 27.974 0 00128 72.431 27.982 27.982 0 0080 92v16H68a28.031 28.031 0 00-28 28v16a88 88 0 00176 0v-44a28.031 28.031 0 00-28-28zm12 72a72 72 0 01-144 0v-16a12.013 12.013 0 0112-12h12v24a8 8 0 0016 0V92a12 12 0 0124 0v32a8 8 0 0016 0V92a12 12 0 0124 0v32a8 8 0 0016 0v-16a12 12 0 0124 0z"/></svg><svg viewBox="-21.33 -21.33 298.67 298.67" width="28" height="28" id="phosphor-icons-number-circle-eight" x="84" y="28" xmlns="http://www.w3.org/2000/svg"><path d="M128 24a104 104 0 10104 104A104.118 104.118 0 00128 24zm0 192a88 88 0 1188-88 88.1 88.1 0 01-88 88zm21.086-92.666l.128-.121a30 30 0 10-42.427 0c.041.042.085.08.126.121a34.655 34.655 0 00-2.955 2.624 34 34 0 1048.084 0 34.646 34.646 0 00-2.956-2.624zM118.101 111.9A14.002 14.002 0 11128 116a13.912 13.912 0 01-9.9-4.1zm22.627 50.828A17.998 17.998 0 11146 150a17.879 17.879 0 01-5.272 12.728z"/></svg><svg viewBox="-21.33 -21.33 298.67 298.67" width="28" height="28" id="phosphor-icons-nut-light" x="84" y="56" xmlns="http://www.w3.org/2000/svg"><path d="M218.888 68.48l-84-47.478a14.07 14.07 0 00-13.778 0l-84 47.478a14.022 14.022 0 00-7.111 12.187v94.665a14.021 14.021 0 007.111 12.188l84 47.478a14.072 14.072 0 0013.778 0l84-47.478A14.022 14.022 0 00226 175.332V80.669a14.021 14.021 0 00-7.111-12.188zm-4.889 106.853a2.005 2.005 0 01-1.016 1.74l-84 47.479a2.009 2.009 0 01-1.968 0l-84-47.478A2.004 2.004 0 0142 175.333V80.668a2.005 2.005 0 011.016-1.742l84-47.478a2.008 2.008 0 011.968 0l84 47.478a2.004 2.004 0 011.016 1.742zm-86-89.333a42 42 0 1042 42 42.047 42.047 0 00-42-42zm0 72a30 30 0 1130-30 30.034 30.034 0 01-30 30z"/></svg><svg viewBox="-21.33 -21.33 298.67 298.67" width="28" height="28" id="phosphor-icons-share-network-fill" y="84" xmlns="http://www.w3.org/2000/svg"><path d="M216 200a40 40 0 11-77.285-14.458l-46.098-29.634a40 40 0 110-55.816l46.098-29.634a40.105 40.105 0 118.667 13.45l-46.097 29.633a39.852 39.852 0 010 28.918l46.097 29.634A39.973 39.973 0 01216 200z"/></svg><svg viewBox="-21.33 -21.33 298.67 298.67" width="28" height="28" id="phosphor-icons-shield-chevron-duotone" x="28" y="84" xmlns="http://www.w3.org/2000/svg"><path d="M202.406 164.084c-21.417 40.201-61.641 55.736-71.95 59.153a7.548 7.548 0 01-4.912 0c-10.309-3.417-50.534-18.952-71.95-59.154l.003-.001L128 112l74.402 52.082z" opacity=".2"/><path d="M208 32H48a16.018 16.018 0 00-16 16v58.667c0 89.453 75.826 119.124 91.026 124.164a15.484 15.484 0 009.948 0c15.2-5.04 91.026-34.711 91.026-124.164V48a16.018 16.018 0 00-16-16zM48 48h160v58.667c0 17.682-3.395 32.696-8.796 45.41l-66.616-46.63a8.001 8.001 0 00-9.176 0l-66.616 46.63C51.395 139.363 48 124.349 48 106.667zm79.997 167.623c-9.231-3.07-43.164-16.237-63.754-49.228L128 121.765l63.755 44.63c-20.563 32.945-54.439 46.125-63.758 49.228z"/></svg><svg viewBox="-21.33 -21.33 298.67 298.67" width="28" height="28" id="phosphor-icons-thermometer-hot" x="56" y="84" xmlns="http://www.w3.org/2000/svg"><path d="M128 161.17V48a8 8 0 00-16 0v113.17a28 28 0 1016 0zM120 200a12 12 0 1112-12 12.013 12.013 0 01-12 12zm58.06-114.343a8 8 0 010-11.314 28 28 0 0139.597 0 12.012 12.012 0 0016.97 0 8 8 0 0111.314 11.314 28 28 0 01-39.598 0 12.012 12.012 0 00-16.97 0 8.002 8.002 0 01-11.314 0zm67.88 28.686a8 8 0 010 11.314 28 28 0 01-39.597 0 12.012 12.012 0 00-16.97 0 8 8 0 01-11.314-11.314 28 28 0 0139.598 0 12.012 12.012 0 0016.97 0 8.002 8.002 0 0111.314 0zM160 143.274V48a40 40 0 00-80 0v95.274a60 60 0 1080 0zM120 232a44.001 44.001 0 01-27.41-78.422 8.003 8.003 0 003.41-6.553V48a24 24 0 0148 0v99.025a7.993 7.993 0 003.332 6.492A44.001 44.001 0 01120 232z"/></svg><svg viewBox="-21.33 -21.33 298.67 298.67" width="28" height="28" id="phosphor-icons-trend-down-fill" x="84" y="84" xmlns="http://www.w3.org/2000/svg"><path d="M238.188 205.073c-.149.18-.307.353-.47.52-.02.02-.038.043-.058.064-.016.016-.035.03-.05.045-.172.169-.35.331-.536.484-.095.078-.194.145-.291.218-.112.084-.222.17-.338.248-.115.077-.234.144-.352.214-.106.063-.21.13-.319.189-.12.064-.244.118-.366.176-.115.054-.227.11-.344.16-.118.048-.239.088-.359.13-.126.046-.251.095-.38.134-.12.036-.242.063-.363.093-.131.033-.262.07-.396.097-.14.028-.283.044-.425.065-.117.016-.23.038-.349.05-.262.026-.526.04-.79.04h-64a8 8 0 110-16h44.686l-76.686-76.686-34.342 34.343a8.001 8.001 0 01-11.315 0l-72-72A8 8 0 1129.66 66.343l66.342 66.343 34.343-34.343a8.001 8.001 0 0111.315 0l82.342 82.343V136a8 8 0 0116 0v63.995q0 .399-.04.797c-.01.108-.03.212-.045.319-.022.152-.04.304-.07.455-.025.126-.06.248-.091.372-.032.13-.06.26-.1.387-.036.123-.083.24-.125.36-.046.127-.088.255-.139.38-.046.11-.1.216-.151.325-.06.129-.117.258-.185.384-.055.103-.118.2-.178.3-.073.124-.144.25-.224.37-.074.11-.156.213-.235.318-.076.104-.148.21-.232.31z"/></svg></svg>