<?xml version="1.0" encoding="utf-8"?><svg width="112" height="112" viewBox="0 0 112 112" xmlns="http://www.w3.org/2000/svg" xmlns:xlink="http://www.w3.org/1999/xlink"><svg viewBox="-21.33 -21.33 298.67 298.67" width="28" height="28" id="phosphor-icons-arrow-right-thin" xmlns="http://www.w3.org/2000/svg"><path d="M218.828 130.828l-72 72a4 4 0 01-5.656-5.656L206.343 132H40a4 4 0 010-8h166.343l-65.171-65.172a4 4 0 015.656-5.656l72 72a3.999 3.999 0 010 5.656z"/></svg><svg viewBox="-21.33 -21.33 298.67 298.67" width="28" height="28" id="phosphor-icons-clipboard-bold" x="28" xmlns="http://www.w3.org/2000/svg"><path d="M200 28h-34.53a51.874 51.874 0 00-74.94 0H56a20.022 20.022 0 00-20 20v168a20.022 20.022 0 0020 20h144a20.022 20.022 0 0020-20V48a20.022 20.022 0 00-20-20zm-44.285 32h-55.43a28.002 28.002 0 0155.43 0zM196 212H60V52h17.413A51.913 51.913 0 0076 64v8a12 12 0 0012 12h80a12 12 0 0012-12v-8a51.913 51.913 0 00-1.413-12H196z"/></svg><svg viewBox="-21.33 -21.33 298.67 298.67" width="28" height="28" id="phosphor-icons-cloud-sun-thin" y="28" xmlns="http://www.w3.org/2000/svg"><path d="M156 76a71.708 71.708 0 00-22.138 3.492 51.78 51.78 0 00-12.836-15.7l11.535-16.472a4 4 0 10-6.553-4.588l-11.534 16.472a51.903 51.903 0 00-31.54-6.965L79.436 32.4a4 4 0 10-7.88 1.39l3.5 19.845a51.514 51.514 0 00-27.228 17.34L31.32 59.415a4 4 0 10-4.589 6.553l16.507 11.558a51.511 51.511 0 00-6.991 31.514L16.4 112.54a4 4 0 00.69 7.94 4.061 4.061 0 00.7-.061l19.838-3.498a51.94 51.94 0 008.327 17.684A47.974 47.974 0 0076 220h80a72 72 0 000-144zM44.677 111.727c-.005-.036-.001-.072-.008-.109-.006-.038-.023-.072-.03-.11a43.706 43.706 0 017.254-32.679c.02-.028.049-.048.07-.077.023-.033.036-.07.058-.105a43.7 43.7 0 0128.207-17.966c.043-.006.086-.004.13-.011.039-.007.074-.024.112-.032A43.92 43.92 0 01112.92 67.7a3.892 3.892 0 00.305.263 4.014 4.014 0 00.423.25 43.802 43.802 0 0112.699 14.196 72.375 72.375 0 00-38.72 43.01 48.016 48.016 0 00-35.037 4.7 43.985 43.985 0 01-7.912-18.39zM156 212H76a40 40 0 119.541-78.856A72.05 72.05 0 0084 148a4 4 0 008 0 64 64 0 1164 64z"/></svg><svg viewBox="-21.33 -21.33 298.67 298.67" width="28" height="28" id="phosphor-icons-device-mobile-camera-fill" x="28" y="28" xmlns="http://www.w3.org/2000/svg"><path d="M176 16H80a24.027 24.027 0 00-24 24v176a24.027 24.027 0 0024 24h96a24.027 24.027 0 0024-24V40a24.027 24.027 0 00-24-24zm-48 56a12 12 0 1112-12 12 12 0 01-12 12z"/></svg><svg viewBox="-21.33 -21.33 298.67 298.67" width="28" height="28" id="phosphor-icons-gender-male-fill" x="56" xmlns="http://www.w3.org/2000/svg"><path d="M223.96 39.21c-.011-.114-.033-.225-.049-.337-.02-.146-.037-.292-.066-.437-.026-.131-.062-.259-.095-.388-.03-.124-.058-.248-.095-.371-.039-.127-.086-.249-.13-.373-.045-.122-.085-.246-.135-.367-.048-.115-.104-.225-.157-.338-.058-.124-.113-.249-.179-.37-.057-.108-.123-.21-.186-.315-.07-.12-.138-.24-.216-.357-.076-.113-.16-.22-.242-.329-.075-.1-.144-.203-.224-.3a8.103 8.103 0 00-.482-.533c-.017-.017-.03-.036-.047-.052-.02-.02-.04-.035-.06-.054a8.109 8.109 0 00-.526-.476c-.091-.074-.187-.14-.281-.21-.116-.086-.23-.176-.35-.256-.107-.073-.219-.135-.33-.2-.113-.07-.225-.14-.343-.204-.109-.058-.221-.107-.332-.16-.126-.06-.25-.122-.38-.176-.103-.042-.208-.076-.313-.114-.142-.052-.282-.106-.427-.15-.098-.03-.197-.05-.296-.076-.154-.04-.307-.083-.465-.113-.104-.02-.209-.032-.313-.048-.153-.024-.305-.051-.46-.067-.159-.015-.318-.018-.477-.024-.102-.003-.201-.015-.304-.015h-48a8 8 0 000 16h28.686l-42.058 42.058a80.001 80.001 0 1011.314 11.314L208 59.314V88a8 8 0 0016 0V40.002c0-.264-.014-.529-.04-.793zm-74.705 158.045a63.97 63.97 0 110-90.51 64.072 64.072 0 010 90.51z"/></svg><svg viewBox="-21.33 -21.33 298.67 298.67" width="28" height="28" id="phosphor-icons-handbag-simple-light" x="56" y="28" xmlns="http://www.w3.org/2000/svg"><path d="M236.976 206.454l-14.222-128A13.985 13.985 0 00208.84 66h-35.244a45.987 45.987 0 00-91.192 0H47.16a13.985 13.985 0 00-13.914 12.454l-14.222 128A14 14 0 0032.938 222h190.123a14 14 0 0013.915-15.546zM128 38a34.048 34.048 0 0133.459 28H94.541A34.048 34.048 0 01128 38zm96.552 171.334a1.979 1.979 0 01-1.49.666H32.938a2 2 0 01-1.988-2.22l14.222-128A1.999 1.999 0 0147.16 78h161.68a1.999 1.999 0 011.988 1.78l14.222 127.999a1.985 1.985 0 01-.498 1.555z"/></svg><svg viewBox="-21.33 -21.33 298.67 298.67" width="28" height="28" id="phosphor-icons-number-circle-one-thin" y="56" xmlns="http://www.w3.org/2000/svg"><path d="M128 28a100 100 0 10100 100A100.113 100.113 0 00128 28zm0 192a92 92 0 1192-92 92.105 92.105 0 01-92 92zm8-136v92a4 4 0 01-8 0V91.473l-17.782 11.85a4 4 0 01-4.436-6.659l24-15.993A4 4 0 01136 84z"/></svg><svg viewBox="-21.33 -21.33 298.67 298.67" width="28" height="28" id="phosphor-icons-package-thin" x="28" y="56" xmlns="http://www.w3.org/2000/svg"><path d="M226.405 72.719c-.012-.023-.018-.046-.03-.069l-.014-.018a11.99 11.99 0 00-4.478-4.412l-88-49.5a12.07 12.07 0 00-11.766 0l-88 49.5a12 12 0 00-4.485 4.425c-.005.01-.013.016-.018.026-.013.024-.02.05-.032.074A11.985 11.985 0 0028 78.679v98.642a12.017 12.017 0 006.117 10.46l88 49.5a11.976 11.976 0 005.612 1.513c.083.006.162.026.246.027h.037c.1 0 .195-.022.293-.029a11.978 11.978 0 005.578-1.512l88-49.5A12.014 12.014 0 00228 177.321V78.68a11.986 11.986 0 00-1.595-5.96zM126.039 25.692a4.023 4.023 0 013.922 0l85.91 48.326-38.719 21.997-88.932-49.05zm2.89 97.719L40.19 73.983l39.83-22.404 88.973 49.071zm-90.89 57.397a4.005 4.005 0 01-2.04-3.487V80.806l88.93 49.533-.87 98.855zm179.922 0l-85.9 48.318.868-98.787 40.093-22.777v44.949a4 4 0 008 0v-49.494L220 80.873v96.448a4.005 4.005 0 01-2.04 3.487z"/></svg><svg viewBox="-21.33 -21.33 298.67 298.67" width="28" height="28" id="phosphor-icons-push-pin-simple-slash-fill" x="56" y="56" xmlns="http://www.w3.org/2000/svg"><path d="M85.349 45.406a7.973 7.973 0 01-2.099-5.14 8.101 8.101 0 01.009-.722A8 8 0 0191.199 32H192a8 8 0 010 16h-6.465l18.758 106.295a8 8 0 01-13.798 6.772zm128.57 165.213l-36.36-39.997-.002-.003-48.42-53.261-75.217-82.74a8 8 0 00-11.84 10.763l24.157 26.574L49.288 168H40a8 8 0 000 16h15.864a7.059 7.059 0 00.29 0H120v56a8 8 0 0016 0v-56h32.097l33.983 37.381a8 8 0 0011.84-10.762z"/></svg><svg viewBox="-21.33 -21.33 298.67 298.67" width="28" height="28" id="phosphor-icons-record-bold" x="84" xmlns="http://www.w3.org/2000/svg"><path d="M128 20a108 108 0 10108 108A108.122 108.122 0 00128 20zm0 192a84 84 0 1184-84 84.096 84.096 0 01-84 84zm0-152a68 68 0 1068 68 68.077 68.077 0 00-68-68zm0 112a44 44 0 1144-44 44.05 44.05 0 01-44 44z"/></svg><svg viewBox="-21.33 -21.33 298.67 298.67" width="28" height="28" id="phosphor-icons-ruler-bold" x="84" y="28" xmlns="http://www.w3.org/2000/svg"><path d="M234.828 73.858L182.142 21.17a20.028 20.028 0 00-28.285.001L51.516 123.514h-.001l-.001.002-30.341 30.34a19.999 19.999 0 00-.001 28.286l52.686 52.688a20.028 20.028 0 0028.285-.001l132.685-132.687a19.998 19.998 0 000-28.284zM88 215.03L40.97 168 60 148.97l23.515 23.515a12 12 0 0016.97-16.97L76.971 132 96 112.97l23.515 23.515a12 12 0 0016.97-16.97L112.971 96 132 76.97l23.515 23.515a12 12 0 0016.97-16.97L148.971 60 168 40.97 215.03 88z"/></svg><svg viewBox="-21.33 -21.33 298.67 298.67" width="28" height="28" id="phosphor-icons-smiley-thin" x="84" y="56" xmlns="http://www.w3.org/2000/svg"><path d="M128 28a100 100 0 10100 100A100.113 100.113 0 00128 28zm0 192a92 92 0 1192-92 92.104 92.104 0 01-92 92zM84 108a8 8 0 118 8 8 8 0 01-8-8zm72 0a8 8 0 118 8 8 8 0 01-8-8zm17.042 46a52.016 52.016 0 01-90.084 0 4 4 0 116.925-4.005 44.016 44.016 0 0076.234 0 4 4 0 116.925 4.005z"/></svg><svg viewBox="-21.33 -21.33 298.67 298.67" width="28" height="28" id="phosphor-icons-test-tube-light" y="84" xmlns="http://www.w3.org/2000/svg"><path d="M236.243 87.757l-60-60a6 6 0 00-8.486 0L63.794 131.721l-.005.005-26.032 26.031a42.77 42.77 0 0060.486 60.486l77.964-77.964.002-.003 35.032-35.032 22.656-7.552a6 6 0 002.346-9.935zm-146.486 122a30.77 30.77 0 01-43.514-43.514l25.695-25.696c2.165-1.558 18.847-12.448 45.379.82 11.627 5.813 21.866 7.775 30.396 7.775.936 0 1.843-.034 2.738-.079zM206.103 94.308a5.997 5.997 0 00-2.346 1.45l-35.695 35.694c-2.164 1.559-18.847 12.449-45.379-.819-12.9-6.45-24.088-8.15-33.132-7.698L172 40.485l48.893 48.893z"/></svg><svg viewBox="-21.33 -21.33 298.67 298.67" width="28" height="28" id="phosphor-icons-toggle-left-duotone" x="28" y="84" xmlns="http://www.w3.org/2000/svg"><path d="M112 128a32 32 0 11-32-32 32 32 0 0132 32z" opacity=".2"/><path d="M176 56H80a72 72 0 000 144h96a72 72 0 000-144zm0 128H80a56 56 0 010-112h96a56 56 0 010 112zM80 88a40 40 0 1040 40 40.046 40.046 0 00-40-40zm0 64a24 24 0 1124-24 24.027 24.027 0 01-24 24z"/></svg><svg viewBox="-21.33 -21.33 298.67 298.67" width="28" height="28" id="phosphor-icons-umbrella" x="56" y="84" xmlns="http://www.w3.org/2000/svg"><path d="M239.613 126.63A112.01 112.01 0 00128.007 24h-.014A112.01 112.01 0 0016.387 126.63 16.022 16.022 0 0032.334 144H120v56a32 32 0 0064 0 8 8 0 00-16 0 16 16 0 01-32 0v-56h87.666a16.021 16.021 0 0015.947-17.37zM96.185 128c1.382-30.768 10.525-52.815 18.299-66.238A106.432 106.432 0 01128 43.157a106.364 106.364 0 0113.516 18.605c13.286 22.94 17.441 47.52 18.299 66.238zm-63.853-.048a95.98 95.98 0 0175.857-85.874C96.473 58.058 81.845 86.13 80.166 128H32.334zm143.502.048c-1.68-41.87-16.307-69.943-28.023-85.922A95.965 95.965 0 01223.666 128z"/></svg><svg viewBox="-21.33 -21.33 298.67 298.67" width="28" height="28" id="phosphor-icons-users-fill" x="84" y="84" xmlns="http://www.w3.org/2000/svg"><path d="M166.542 192.785A8 8 0 01160 205.391l-144.004.006a8 8 0 01-6.542-12.606 96.214 96.214 0 0145.347-34.843 60 60 0 1166.397 0 96.215 96.215 0 0145.343 34.837zm81.522 0a96.214 96.214 0 00-45.344-34.837 60 60 0 00-49.473-107.713 8 8 0 00-4.25 12.479 75.832 75.832 0 013.84 84.886 8 8 0 002.045 10.601 113.206 113.206 0 018.743 7.215c.145.157.29.313.45.46a112.034 112.034 0 0125.478 34.905 8 8 0 007.25 4.615l44.72-.005a8 8 0 006.54-12.606z"/></svg></svg>