<?xml version="1.0" encoding="utf-8"?><svg width="112" height="112" viewBox="0 0 112 112" xmlns="http://www.w3.org/2000/svg" xmlns:xlink="http://www.w3.org/1999/xlink"><svg viewBox="-2 -2 28 28" width="28" height="28" id="remixicon-alarm-warning-line" xmlns="http://www.w3.org/2000/svg"><path fill="none" d="M0 0h24v24H0z"/><path d="M4 20v-6a8 8 0 1116 0v6h1v2H3v-2h1zm2 0h12v-6a6 6 0 10-12 0v6zm5-18h2v3h-2V2zm8.778 2.808l1.414 1.414-2.12 2.121-1.415-1.414 2.121-2.121zM2.808 6.222l1.414-1.414 2.121 2.12L4.93 8.344 2.808 6.222zM7 14a5 5 0 015-5v2a3 3 0 00-3 3H7z"/></svg><svg viewBox="-2 -2 28 28" width="28" height="28" id="remixicon-barcode-box-fill" x="28" xmlns="http://www.w3.org/2000/svg"><path fill="none" d="M0 0h24v24H0z"/><path d="M3 3h18a1 1 0 011 1v16a1 1 0 01-1 1H3a1 1 0 01-1-1V4a1 1 0 011-1zm3 4v10h3V7H6zm4 0v10h2V7h-2zm3 0v10h1V7h-1zm2 0v10h3V7h-3z"/></svg><svg viewBox="-2 -2 28 28" width="28" height="28" id="remixicon-celsius-fill" y="28" xmlns="http://www.w3.org/2000/svg"><path fill="none" d="M0 0h24v24H0z"/><path d="M4.5 10a3.5 3.5 0 110-7 3.5 3.5 0 010 7zm0-2a1.5 1.5 0 100-3 1.5 1.5 0 000 3zM22 10h-2a4 4 0 10-8 0v5a4 4 0 108 0h2a6 6 0 11-12 0v-5a6 6 0 1112 0z"/></svg><svg viewBox="-2 -2 28 28" width="28" height="28" id="remixicon-delete-bin-5-fill" x="28" y="28" xmlns="http://www.w3.org/2000/svg"><path fill="none" d="M0 0h24v24H0z"/><path d="M4 8h16v13a1 1 0 01-1 1H5a1 1 0 01-1-1V8zm3-3V3a1 1 0 011-1h8a1 1 0 011 1v2h5v2H2V5h5zm2-1v1h6V4H9zm0 8v6h2v-6H9zm4 0v6h2v-6h-2z"/></svg><svg viewBox="-2 -2 28 28" width="28" height="28" id="remixicon-font-size" x="56" xmlns="http://www.w3.org/2000/svg"><path fill="none" d="M0 0h24v24H0z"/><path d="M11.246 15H4.754l-2 5H.6L7 4h2l6.4 16h-2.154l-2-5zm-.8-2L8 6.885 5.554 13h4.892zM21 12.535V12h2v8h-2v-.535a4 4 0 110-6.93zM19 18a2 2 0 100-4 2 2 0 000 4z"/></svg><svg viewBox="-2 -2 28 28" width="28" height="28" id="remixicon-heart-add-fill" x="56" y="28" xmlns="http://www.w3.org/2000/svg"><path fill="none" d="M0 0h24v24H0z"/><path d="M19 14v3h3v2h-3v3h-2v-3h-3v-2h3v-3h2zm1.243-9.243a6.001 6.001 0 01.507 7.91 6 6 0 00-8.061 8.127l-.69.691-8.478-8.492a6 6 0 018.48-8.464 5.998 5.998 0 018.242.228z"/></svg><svg viewBox="-2 -2 28 28" width="28" height="28" id="remixicon-leaf-fill" y="56" xmlns="http://www.w3.org/2000/svg"><path fill="none" d="M0 0h24v24H0z"/><path d="M21 3v2c0 9.627-5.373 14-12 14H7.098c.212-3.012 1.15-4.835 3.598-7.001 1.204-1.065 1.102-1.68.509-1.327-4.084 2.43-6.112 5.714-6.202 10.958L5 22H3c0-1.363.116-2.6.346-3.732C3.116 16.974 3 15.218 3 13 3 7.477 7.477 3 13 3c2 0 4 1 8 0z"/></svg><svg viewBox="-2 -2 28 28" width="28" height="28" id="remixicon-netflix-fill" x="28" y="56" xmlns="http://www.w3.org/2000/svg"><path fill="none" d="M0 0h24v24H0z"/><path d="M11.29 3.814l2.02 5.707.395 1.116.007-4.81.01-4.818h4.27L18 11.871c.003 5.98-.003 10.89-.015 10.9-.012.009-.209 0-.436-.027a48.722 48.722 0 00-3.34-.282 14.57 14.57 0 01-.636-.038c-.003-.004-.273-.762-.776-2.184v-.004l-2.144-6.061-.34-.954-.008 4.586c-.006 4.365-.01 4.61-.057 4.61-.163 0-1.57.09-2.04.136-.308.027-.926.09-1.37.145-.446.051-.816.085-.823.078C6.006 22.77 6 17.867 6 11.883V1.002h.005V1h4.288l.028.08c.007.016.065.176.157.437l.641 1.778.173.496-.001.023z"/></svg><svg viewBox="-2 -2 28 28" width="28" height="28" id="remixicon-percent-fill" x="56" y="56" xmlns="http://www.w3.org/2000/svg"><path fill="none" d="M0 0h24v24H0z"/><path d="M17.5 21a3.5 3.5 0 110-7 3.5 3.5 0 010 7zm-11-11a3.5 3.5 0 110-7 3.5 3.5 0 010 7zm12.571-6.485l1.414 1.414L4.93 20.485l-1.414-1.414L19.07 3.515z"/></svg><svg viewBox="-2 -2 28 28" width="28" height="28" id="remixicon-save-line" x="84" xmlns="http://www.w3.org/2000/svg"><path fill="none" d="M0 0h24v24H0z"/><path d="M7 19v-6h10v6h2V7.828L16.172 5H5v14h2zM4 3h13l4 4v13a1 1 0 01-1 1H4a1 1 0 01-1-1V4a1 1 0 011-1zm5 12v4h6v-4H9z"/></svg><svg viewBox="-2 -2 28 28" width="28" height="28" id="remixicon-service-fill" x="84" y="28" xmlns="http://www.w3.org/2000/svg"><path fill="none" d="M0 0h24v24H0z"/><path d="M14.121 10.48a1 1 0 00-1.414 0l-.707.706a2 2 0 11-2.828-2.828l5.63-5.632a6.5 6.5 0 016.377 10.568l-2.108 2.135-4.95-4.95zM3.161 4.468a6.503 6.503 0 018.009-.938L7.757 6.944a4 4 0 005.513 5.794l.144-.137 4.243 4.242-4.243 4.243a2 2 0 01-2.828 0L3.16 13.66a6.5 6.5 0 010-9.192z"/></svg><svg viewBox="-2 -2 28 28" width="28" height="28" id="remixicon-shopping-cart-2-line" x="84" y="56" xmlns="http://www.w3.org/2000/svg"><path fill="none" d="M0 0h24v24H0z"/><path d="M4 6.414L.757 3.172l1.415-1.415L5.414 5h15.242a1 1 0 01.958 1.287l-2.4 8a1 1 0 01-.958.713H6v2h11v2H5a1 1 0 01-1-1V6.414zM6 7v6h11.512l1.8-6H6zm-.5 16a1.5 1.5 0 110-3 1.5 1.5 0 010 3zm12 0a1.5 1.5 0 110-3 1.5 1.5 0 010 3z"/></svg><svg viewBox="-2 -2 28 28" width="28" height="28" id="remixicon-signal-wifi-line" y="84" xmlns="http://www.w3.org/2000/svg"><path fill="none" d="M0 0h24v24H0z"/><path d="M12 3c4.284 0 8.22 1.497 11.31 3.996L12 21 .69 6.997A17.917 17.917 0 0112 3zm0 2c-3.028 0-5.923.842-8.42 2.392L12 17.817 20.42 7.39A15.928 15.928 0 0012 5z"/></svg><svg viewBox="-2 -2 28 28" width="28" height="28" id="remixicon-steering-2-fill" x="28" y="84" xmlns="http://www.w3.org/2000/svg"><path fill="none" d="M0 0h24v24H0z"/><path d="M12 2c5.523 0 10 4.477 10 10s-4.477 10-10 10S2 17.523 2 12 6.477 2 12 2zM8 13l-3.938.001A8.004 8.004 0 0011 19.938V16a3 3 0 01-3-3zm11.938.001L16 13a3 3 0 01-3 3l.001 3.938a8.004 8.004 0 006.937-6.937zM12 4a8.001 8.001 0 00-7.938 7H8a1 1 0 011-1h6a1 1 0 011 1h3.938A8.001 8.001 0 0012 4z"/></svg><svg viewBox="-2 -2 28 28" width="28" height="28" id="remixicon-translate-2" x="56" y="84" xmlns="http://www.w3.org/2000/svg"><path fill="none" d="M0 0h24v24H0z"/><path d="M18.5 10l4.4 11h-2.155l-1.201-3h-4.09l-1.199 3h-2.154L16.5 10h2zM10 2v2h6v2h-1.968a18.222 18.222 0 01-3.62 6.301 14.864 14.864 0 002.336 1.707l-.751 1.878A17.015 17.015 0 019 13.725a16.676 16.676 0 01-6.201 3.548l-.536-1.929a14.7 14.7 0 005.327-3.042A18.078 18.078 0 014.767 8h2.24A16.032 16.032 0 009 10.877a16.165 16.165 0 002.91-4.876L2 6V4h6V2h2zm7.5 10.885L16.253 16h2.492L17.5 12.885z"/></svg><svg viewBox="-2 -2 28 28" width="28" height="28" id="remixicon-virus-line" x="84" y="84" xmlns="http://www.w3.org/2000/svg"><path fill="none" d="M0 0h24v24H0z"/><path d="M13.717 1.947l3.734 1.434-.717 1.867-.934-.359-.746 1.945a6.042 6.042 0 011.945 1.846l1.903-.847-.407-.914 1.827-.813 1.627 3.654-1.827.813-.407-.913-1.902.847a6.023 6.023 0 01.07 2.68l1.944.746.358-.933 1.868.717-1.434 3.734-1.867-.717.358-.933-1.944-.747a6.042 6.042 0 01-1.846 1.945l.847 1.903.914-.407.813 1.827-3.654 1.627-.813-1.827.913-.407-.847-1.902a6.023 6.023 0 01-2.681.069l-.746 1.945.934.358-.717 1.868-3.734-1.434.717-1.867.932.358.748-1.944A6.055 6.055 0 017 15.32l-1.903.847.407.914-1.827.813L2.05 14.24l1.827-.813.406.914 1.903-.848a6.07 6.07 0 01-.069-2.68l-1.945-.746-.357.933-1.868-.717L3.381 6.55l1.867.717-.359.933 1.945.747A6.048 6.048 0 018.68 7l-.847-1.903-.914.407-.813-1.827L9.76 2.051l.813 1.827-.913.407.847 1.902a6.023 6.023 0 012.68-.07l.745-1.945L13 3.815l.717-1.868zM12 8c-2.21 0-4 1.79-4 4s1.79 4 4 4 4-1.79 4-4-1.79-4-4-4zm-.5 4.866a1 1 0 11-1.001 1.732 1 1 0 011.001-1.732zM14 11a1 1 0 110 2 1 1 0 010-2zm-2.134-1.232a1 1 0 11-1.733 1 1 1 0 011.733-1z"/></svg></svg>