<?xml version="1.0" encoding="utf-8"?><svg width="112" height="112" viewBox="0 0 112 112" xmlns="http://www.w3.org/2000/svg" xmlns:xlink="http://www.w3.org/1999/xlink"><svg viewBox="-2 -2 28 28" width="28" height="28" id="remixicon-camera-3-line" xmlns="http://www.w3.org/2000/svg"><path fill="none" d="M0 0h24v24H0z"/><path d="M2 6c0-.552.455-1 .992-1h18.016c.548 0 .992.445.992 1v14c0 .552-.455 1-.992 1H2.992A.994.994 0 012 20V6zm2 1v12h16V7H4zm10 9a3 3 0 100-6 3 3 0 000 6zm0 2a5 5 0 110-10 5 5 0 010 10zM4 2h6v2H4V2z"/></svg><svg viewBox="-2 -2 28 28" width="28" height="28" id="remixicon-creative-commons-nd-fill" x="28" xmlns="http://www.w3.org/2000/svg"><path fill="none" d="M0 0h24v24H0z"/><path d="M12 2c5.523 0 10 4.477 10 10s-4.477 10-10 10S2 17.523 2 12 6.477 2 12 2zm4 11H8v2h8v-2zm0-4H8v2h8V9z"/></svg><svg viewBox="-2 -2 28 28" width="28" height="28" id="remixicon-edit-fill" y="28" xmlns="http://www.w3.org/2000/svg"><path fill="none" d="M0 0h24v24H0z"/><path d="M7.243 18H3v-4.243L14.435 2.322a1 1 0 011.414 0l2.829 2.829a1 1 0 010 1.414L7.243 18zM3 20h18v2H3v-2z"/></svg><svg viewBox="-2 -2 28 28" width="28" height="28" id="remixicon-git-pull-request-line" x="28" y="28" xmlns="http://www.w3.org/2000/svg"><path fill="none" d="M0 0h24v24H0z"/><path d="M15 5h2a2 2 0 012 2v8.17a3.001 3.001 0 11-2 0V7h-2v3l-4.5-4L15 2v3zM5 8.83a3.001 3.001 0 112 0v6.34a3.001 3.001 0 11-2 0V8.83zM6 7a1 1 0 100-2 1 1 0 000 2zm0 12a1 1 0 100-2 1 1 0 000 2zm12 0a1 1 0 100-2 1 1 0 000 2z"/></svg><svg viewBox="-2 -2 28 28" width="28" height="28" id="remixicon-h-3" x="56" xmlns="http://www.w3.org/2000/svg"><path fill="none" d="M0 0h24v24H0z"/><path d="M22 8l-.002 2-2.505 2.883a3.75 3.75 0 11-4.675 4.334l1.964-.382a1.75 1.75 0 10.924-1.895l-1.307-1.547L19.35 10H15V8h7zM4 4v7h7V4h2v16h-2v-7H4v7H2V4h2z"/></svg><svg viewBox="-2 -2 28 28" width="28" height="28" id="remixicon-layout-line" x="56" y="28" xmlns="http://www.w3.org/2000/svg"><path fill="none" d="M0 0h24v24H0z"/><path d="M5 8h14V5H5v3zm9 11v-9H5v9h9zm2 0h3v-9h-3v9zM4 3h16a1 1 0 011 1v16a1 1 0 01-1 1H4a1 1 0 01-1-1V4a1 1 0 011-1z"/></svg><svg viewBox="-2 -2 28 28" width="28" height="28" id="remixicon-layout-top-2-line" y="56" xmlns="http://www.w3.org/2000/svg"><path fill="none" d="M0 0h24v24H0z"/><path d="M21 3a1 1 0 011 1v16a1 1 0 01-1 1H3a1 1 0 01-1-1V4a1 1 0 011-1h18zm-1 2H4v14h16V5zm-2 2v2H6V7h12z"/></svg><svg viewBox="-2 -2 28 28" width="28" height="28" id="remixicon-pin-distance-line" x="28" y="56" xmlns="http://www.w3.org/2000/svg"><path fill="none" d="M0 0h24v24H0z"/><path d="M9.975 8.975a3.5 3.5 0 10-4.95 0L7.5 11.45l2.475-2.475zM7.5 14.278L3.61 10.39a5.5 5.5 0 117.78 0L7.5 14.28zM7.5 8a1.5 1.5 0 110-3 1.5 1.5 0 010 3zm9 12.45l2.475-2.475a3.5 3.5 0 10-4.95 0L16.5 20.45zm3.89-1.06l-3.89 3.888-3.89-3.889a5.5 5.5 0 117.78 0zM16.5 17a1.5 1.5 0 110-3 1.5 1.5 0 010 3z"/></svg><svg viewBox="-2 -2 28 28" width="28" height="28" id="remixicon-service-line" x="56" y="56" xmlns="http://www.w3.org/2000/svg"><path fill="none" d="M0 0h24v24H0z"/><path d="M3.161 4.469a6.5 6.5 0 018.84-.328 6.5 6.5 0 019.178 9.154l-7.765 7.79a2 2 0 01-2.719.102l-.11-.101-7.764-7.791a6.5 6.5 0 01.34-8.826zm1.414 1.414a4.5 4.5 0 00-.146 6.21l.146.154L12 19.672l5.303-5.304-3.535-3.535-1.06 1.06a3 3 0 11-4.244-4.242l2.102-2.103a4.501 4.501 0 00-5.837.189l-.154.146zm8.486 2.828a1 1 0 011.414 0l4.242 4.242.708-.706a4.5 4.5 0 00-6.211-6.51l-.153.146-3.182 3.182a1 1 0 00-.078 1.327l.078.087a1 1 0 001.327.078l.087-.078 1.768-1.768z"/></svg><svg viewBox="-2 -2 28 28" width="28" height="28" id="remixicon-settings-6-line" x="84" xmlns="http://www.w3.org/2000/svg"><path fill="none" d="M0 0h24v24H0z"/><path d="M17.5 2.474L23 12l-5.5 9.526h-11L1 12l5.5-9.526h11zm-1.155 2h-8.69L3.309 12l4.346 7.526h8.69L20.691 12l-4.346-7.526zM8.634 8.17l1.732-1 5 8.66-1.732 1-5-8.66z"/></svg><svg viewBox="-2 -2 28 28" width="28" height="28" id="remixicon-shut-down-line" x="84" y="28" xmlns="http://www.w3.org/2000/svg"><path fill="none" d="M0 0h24v24H0z"/><path d="M6.265 3.807l1.147 1.639a8 8 0 109.176 0l1.147-1.639A9.988 9.988 0 0122 12c0 5.523-4.477 10-10 10S2 17.523 2 12a9.988 9.988 0 014.265-8.193zM11 12V2h2v10h-2z"/></svg><svg viewBox="-2 -2 28 28" width="28" height="28" id="remixicon-split-cells-vertical" x="84" y="56" xmlns="http://www.w3.org/2000/svg"><path fill="none" d="M0 0h24v24H0z"/><path d="M20 3a1 1 0 011 1v16a1 1 0 01-1 1H4a1 1 0 01-1-1V4a1 1 0 011-1h16zm-1 2H5v5.999L9 11v2H5v6h14v-6h-4v-2l4-.001V5zm-7 1l3 3h-2v6h2l-3 3-3-3h2V9H9l3-3z"/></svg><svg viewBox="-2 -2 28 28" width="28" height="28" id="remixicon-unsplash-line" y="84" xmlns="http://www.w3.org/2000/svg"><path fill="none" d="M0 0h24v24H0z"/><path d="M10 10v4h4v-4h7v11H3V10h7zm-2 2H5v7h14v-7h-3l-.001 4H8v-4zm8-9v6H8V3h8zm-2 2h-4v2h4V5z"/></svg><svg viewBox="-2 -2 28 28" width="28" height="28" id="remixicon-user-star-line" x="28" y="84" xmlns="http://www.w3.org/2000/svg"><path fill="none" d="M0 0h24v24H0z"/><path d="M12 14v2a6 6 0 00-6 6H4a8 8 0 018-8zm0-1c-3.315 0-6-2.685-6-6s2.685-6 6-6 6 2.685 6 6-2.685 6-6 6zm0-2c2.21 0 4-1.79 4-4s-1.79-4-4-4-4 1.79-4 4 1.79 4 4 4zm6 10.5l-2.939 1.545.561-3.272-2.377-2.318 3.286-.478L18 14l1.47 2.977 3.285.478-2.377 2.318.56 3.272L18 21.5z"/></svg><svg viewBox="-2 -2 28 28" width="28" height="28" id="remixicon-visa-line" x="56" y="84" xmlns="http://www.w3.org/2000/svg"><path fill="none" d="M0 0h24v24H0z"/><path d="M22.222 15.768l-.225-1.125h-2.514l-.4 1.117-2.015.004a4199.19 4199.19 0 012.884-6.918c.164-.391.455-.59.884-.588.328.003.863.003 1.606.001L24 15.765l-1.778.003zm-2.173-2.666h1.62l-.605-2.82-1.015 2.82zM7.06 8.257l2.026.002-3.132 7.51-2.051-.002a950.849 950.849 0 01-1.528-5.956c-.1-.396-.298-.673-.679-.804A63.566 63.566 0 000 8.465V8.26h3.237c.56 0 .887.271.992.827.106.557.372 1.975.8 4.254L7.06 8.257zm4.81.002l-1.602 7.508-1.928-.002 1.6-7.508 1.93.002zm3.91-.139c.577 0 1.304.18 1.722.345l-.338 1.557c-.378-.152-1-.357-1.523-.35-.76.013-1.23.332-1.23.638 0 .498.816.749 1.656 1.293.959.62 1.085 1.177 1.073 1.782-.013 1.256-1.073 2.495-3.309 2.495-1.02-.015-1.388-.101-2.22-.396l.352-1.625c.847.355 1.206.468 1.93.468.663 0 1.232-.268 1.237-.735.004-.332-.2-.497-.944-.907-.744-.411-1.788-.98-1.774-2.122.017-1.462 1.402-2.443 3.369-2.443z"/></svg><svg viewBox="-2 -2 28 28" width="28" height="28" id="remixicon-zcool-line" x="84" y="84" xmlns="http://www.w3.org/2000/svg"><path fill="none" d="M0 0h24v24H0z"/><path d="M8.26 8.26C5.838 8.803 4 11.208 4 13.935a5.903 5.903 0 0011.703 1.098 2 2 0 011.129-1.448c.482-.222.91-.473 1.284-.743-.863-.603-1.186-1.862-.47-2.834a9.796 9.796 0 001.391-2.651 19.04 19.04 0 01-3.668 1.265c-1.261.303-2.392-.638-2.466-1.814-1.18.572-2.67 1.01-4.642 1.452zm10.996 2.934c1.166 0 1.917-.424 2.744-.587-.325 1.448-1.5 3.49-4.33 4.795A7.903 7.903 0 012 13.936C2 10.29 4.467 7.06 7.824 6.308 11.745 5.43 13.528 4.742 14.9 2c.689 1.333.689 2.892 0 4.677 2.816-.67 5.074-1.852 6.774-3.548 0 4.802-1.822 7.186-2.419 8.065zm-5.84 3.932c.584.145.584.832.584 1.02v1.022c0 .561-.342.773-.844.773H7.742c-.475-.087-.734-.346-.734-.778v-.95c0-.475.216-.82.432-1.08l3.152-3.369H7.526c-.302 0-.518-.216-.518-.604-.044-.735.086-1.9.647-2.16.087 0 .087.13.087.173-.087.173 0 .302.216.302h3.887c.863 0 1.381 0 1.684-.086.13-.043.216 0 .173.13-.087.302-.044.647-.044.95 0 .993 0 1.382-.777 2.159l-2.678 2.937 2.85-.002c.316 0 .364-.146.364-.437z"/></svg></svg>