<?xml version="1.0" encoding="utf-8"?><svg width="80" height="80" viewBox="0 0 80 80" xmlns="http://www.w3.org/2000/svg" xmlns:xlink="http://www.w3.org/1999/xlink"><svg width="20" height="20"  class="aaabi aaabi-arrows-angle-expand" viewBox="-2 -2 20 20" id="twbs-icons-arrows-angle-expand" xmlns="http://www.w3.org/2000/svg"><path fill-rule="evenodd" d="M5.828 10.172a.5.5 0 00-.707 0l-4.096 4.096V11.5a.5.5 0 00-1 0v3.975a.5.5 0 00.5.5H4.5a.5.5 0 000-1H1.732l4.096-4.096a.5.5 0 000-.707zm4.344-4.344a.5.5 0 00.707 0l4.096-4.096V4.5a.5.5 0 101 0V.525a.5.5 0 00-.5-.5H11.5a.5.5 0 000 1h2.768l-4.096 4.096a.5.5 0 000 .707z"/></svg><svg width="20" height="20"  class="aabbi aabbi-bookmark-plus-fill" viewBox="-2 -2 20 20" id="twbs-icons-bookmark-plus-fill" x="20" xmlns="http://www.w3.org/2000/svg"><path fill-rule="evenodd" d="M2 15.5V2a2 2 0 012-2h8a2 2 0 012 2v13.5a.5.5 0 01-.74.439L8 13.069l-5.26 2.87A.5.5 0 012 15.5zm6.5-11a.5.5 0 00-1 0V6H6a.5.5 0 000 1h1.5v1.5a.5.5 0 001 0V7H10a.5.5 0 000-1H8.5V4.5z"/></svg><svg width="20" height="20"  class="aacbi aacbi-caret-down" viewBox="-2 -2 20 20" id="twbs-icons-caret-down" y="20" xmlns="http://www.w3.org/2000/svg"><path d="M3.204 5h9.592L8 10.481 3.204 5zm-.753.659l4.796 5.48a1 1 0 001.506 0l4.796-5.48c.566-.647.106-1.659-.753-1.659H3.204a1 1 0 00-.753 1.659z"/></svg><svg width="20" height="20"  class="aadbi aadbi-cart-x-fill" viewBox="-2 -2 20 20" id="twbs-icons-cart-x-fill" x="20" y="20" xmlns="http://www.w3.org/2000/svg"><path d="M.5 1a.5.5 0 000 1h1.11l.401 1.607 1.498 7.985A.5.5 0 004 12h1a2 2 0 100 4 2 2 0 000-4h7a2 2 0 100 4 2 2 0 000-4h1a.5.5 0 00.491-.408l1.5-8A.5.5 0 0014.5 3H2.89l-.405-1.621A.5.5 0 002 1H.5zM6 14a1 1 0 11-2 0 1 1 0 012 0zm7 0a1 1 0 11-2 0 1 1 0 012 0zM7.354 5.646L8.5 6.793l1.146-1.147a.5.5 0 01.708.708L9.207 7.5l1.147 1.146a.5.5 0 01-.708.708L8.5 8.207 7.354 9.354a.5.5 0 11-.708-.708L7.793 7.5 6.646 6.354a.5.5 0 11.708-.708z"/></svg><svg width="20" height="20"  class="aaebi aaebi-chevron-bar-up" viewBox="-2 -2 20 20" id="twbs-icons-chevron-bar-up" x="40" xmlns="http://www.w3.org/2000/svg"><path fill-rule="evenodd" d="M3.646 11.854a.5.5 0 00.708 0L8 8.207l3.646 3.647a.5.5 0 00.708-.708l-4-4a.5.5 0 00-.708 0l-4 4a.5.5 0 000 .708zM2.4 5.2c0 .22.18.4.4.4h10.4a.4.4 0 000-.8H2.8a.4.4 0 00-.4.4z"/></svg><svg width="20" height="20"  class="aafbi aafbi-cloud-minus-fill" viewBox="-2 -2 20 20" id="twbs-icons-cloud-minus-fill" x="40" y="20" xmlns="http://www.w3.org/2000/svg"><path d="M8 2a5.53 5.53 0 00-3.594 1.342c-.766.66-1.321 1.52-1.464 2.383C1.266 6.095 0 7.555 0 9.318 0 11.366 1.708 13 3.781 13h8.906C14.502 13 16 11.57 16 9.773c0-1.636-1.242-2.969-2.834-3.194C12.923 3.999 10.69 2 8 2zM6 7.5h4a.5.5 0 010 1H6a.5.5 0 010-1z"/></svg><svg width="20" height="20"  class="aagbi aagbi-code-slash" viewBox="-2 -2 20 20" id="twbs-icons-code-slash" y="40" xmlns="http://www.w3.org/2000/svg"><path d="M10.478 1.647a.5.5 0 10-.956-.294l-4 13a.5.5 0 00.956.294l4-13zM4.854 4.146a.5.5 0 010 .708L1.707 8l3.147 3.146a.5.5 0 01-.708.708l-3.5-3.5a.5.5 0 010-.708l3.5-3.5a.5.5 0 01.708 0zm6.292 0a.5.5 0 000 .708L14.293 8l-3.147 3.146a.5.5 0 00.708.708l3.5-3.5a.5.5 0 000-.708l-3.5-3.5a.5.5 0 00-.708 0z"/></svg><svg width="20" height="20"  class="aahbi aahbi-file-earmark-easel" viewBox="-2 -2 20 20" id="twbs-icons-file-earmark-easel" x="20" y="40" xmlns="http://www.w3.org/2000/svg"><path d="M8.5 6a.5.5 0 10-1 0h-2A1.5 1.5 0 004 7.5v2A1.5 1.5 0 005.5 11h.473l-.447 1.342a.5.5 0 10.948.316L7.027 11H7.5v1a.5.5 0 001 0v-1h.473l.553 1.658a.5.5 0 10.948-.316L10.027 11h.473A1.5 1.5 0 0012 9.5v-2A1.5 1.5 0 0010.5 6h-2zM5 7.5a.5.5 0 01.5-.5h5a.5.5 0 01.5.5v2a.5.5 0 01-.5.5h-5a.5.5 0 01-.5-.5v-2z"/><path d="M14 14V4.5L9.5 0H4a2 2 0 00-2 2v12a2 2 0 002 2h8a2 2 0 002-2zM9.5 3A1.5 1.5 0 0011 4.5h2V14a1 1 0 01-1 1H4a1 1 0 01-1-1V2a1 1 0 011-1h5.5v2z"/></svg><svg width="20" height="20"  class="aaibi aaibi-file-earmark-slides" viewBox="-2 -2 20 20" id="twbs-icons-file-earmark-slides" x="40" y="40" xmlns="http://www.w3.org/2000/svg"><path d="M4 0h5.5v1H4a1 1 0 00-1 1v12a1 1 0 001 1h8a1 1 0 001-1V4.5h1V14a2 2 0 01-2 2H4a2 2 0 01-2-2V2a2 2 0 012-2z"/><path d="M9.5 3V0L14 4.5h-3A1.5 1.5 0 019.5 3zm.5 10.5c0 .276-.895.5-2 .5s-2-.224-2-.5.895-.5 2-.5 2 .224 2 .5z"/><path fill-rule="evenodd" d="M4.504 6.438A.5.5 0 015 6h6a.5.5 0 01.496.438l.5 4A.5.5 0 0111.5 11h-3v2.016a7.795 7.795 0 00-1 0V11h-3a.5.5 0 01-.496-.562l.5-4zM7 7.221v2.558c0 .097.106.157.19.107l2.13-1.279a.125.125 0 000-.214l-2.13-1.28a.125.125 0 00-.19.109z"/></svg><svg width="20" height="20"  class="aajbi aajbi-file-lock2" viewBox="-2 -2 20 20" id="twbs-icons-file-lock2" x="60" xmlns="http://www.w3.org/2000/svg"><path d="M8 5a1 1 0 011 1v1H7V6a1 1 0 011-1zm2 2.076V6a2 2 0 10-4 0v1.076c-.54.166-1 .597-1 1.224v2.4c0 .816.781 1.3 1.5 1.3h3c.719 0 1.5-.484 1.5-1.3V8.3c0-.627-.46-1.058-1-1.224z"/><path d="M4 0a2 2 0 00-2 2v12a2 2 0 002 2h8a2 2 0 002-2V2a2 2 0 00-2-2H4zm0 1h8a1 1 0 011 1v12a1 1 0 01-1 1H4a1 1 0 01-1-1V2a1 1 0 011-1z"/></svg><svg width="20" height="20"  class="aakbi aakbi-input-cursor" viewBox="-2 -2 20 20" id="twbs-icons-input-cursor" x="60" y="20" xmlns="http://www.w3.org/2000/svg"><path d="M10 5h4a1 1 0 011 1v4a1 1 0 01-1 1h-4v1h4a2 2 0 002-2V6a2 2 0 00-2-2h-4v1zM6 5V4H2a2 2 0 00-2 2v4a2 2 0 002 2h4v-1H2a1 1 0 01-1-1V6a1 1 0 011-1h4z"/><path fill-rule="evenodd" d="M8 1a.5.5 0 01.5.5v13a.5.5 0 01-1 0v-13A.5.5 0 018 1z"/></svg><svg width="20" height="20"  class="aalbi aalbi-paragraph" viewBox="-2 -2 20 20" id="twbs-icons-paragraph" x="60" y="40" xmlns="http://www.w3.org/2000/svg"><path d="M10.5 15a.5.5 0 01-.5-.5V2H9v12.5a.5.5 0 01-1 0V9H7a4 4 0 110-8h5.5a.5.5 0 010 1H11v12.5a.5.5 0 01-.5.5z"/></svg><svg width="20" height="20"  class="aambi aambi-skip-backward-circle-fill" viewBox="-2 -2 20 20" id="twbs-icons-skip-backward-circle-fill" y="60" xmlns="http://www.w3.org/2000/svg"><path d="M16 8A8 8 0 110 8a8 8 0 0116 0zM4.79 5.093A.5.5 0 004 5.5v5a.5.5 0 00.79.407L7.5 8.972V10.5a.5.5 0 00.79.407L11 8.972V10.5a.5.5 0 001 0v-5a.5.5 0 00-1 0v1.528L8.29 5.093a.5.5 0 00-.79.407v1.528L4.79 5.093z"/></svg><svg width="20" height="20"  class="aanbi aanbi-skip-forward-btn" viewBox="-2 -2 20 20" id="twbs-icons-skip-forward-btn" x="20" y="60" xmlns="http://www.w3.org/2000/svg"><path d="M11.21 5.093A.5.5 0 0112 5.5v5a.5.5 0 01-.79.407L8.5 8.972V10.5a.5.5 0 01-.79.407L5 8.972V10.5a.5.5 0 01-1 0v-5a.5.5 0 011 0v1.528l2.71-1.935a.5.5 0 01.79.407v1.528l2.71-1.935z"/><path d="M0 4a2 2 0 012-2h12a2 2 0 012 2v8a2 2 0 01-2 2H2a2 2 0 01-2-2V4zm15 0a1 1 0 00-1-1H2a1 1 0 00-1 1v8a1 1 0 001 1h12a1 1 0 001-1V4z"/></svg><svg width="20" height="20"  class="aaobi aaobi-stop" viewBox="-2 -2 20 20" id="twbs-icons-stop" x="40" y="60" xmlns="http://www.w3.org/2000/svg"><path d="M3.5 5A1.5 1.5 0 015 3.5h6A1.5 1.5 0 0112.5 5v6a1.5 1.5 0 01-1.5 1.5H5A1.5 1.5 0 013.5 11V5zM5 4.5a.5.5 0 00-.5.5v6a.5.5 0 00.5.5h6a.5.5 0 00.5-.5V5a.5.5 0 00-.5-.5H5z"/></svg><svg width="20" height="20"  class="aapbi aapbi-triangle-fill" viewBox="-2 -2 20 20" id="twbs-icons-triangle-fill" x="60" y="60" xmlns="http://www.w3.org/2000/svg"><path fill-rule="evenodd" d="M7.022 1.566a1.13 1.13 0 011.96 0l6.857 11.667c.457.778-.092 1.767-.98 1.767H1.144c-.889 0-1.437-.99-.98-1.767L7.022 1.566z"/></svg></svg>