<?xml version="1.0" encoding="utf-8"?><svg width="80" height="80" viewBox="0 0 80 80" xmlns="http://www.w3.org/2000/svg" xmlns:xlink="http://www.w3.org/1999/xlink"><svg width="20" height="20"  class="aaabi aaabi-arrow-down-left" viewBox="-2 -2 20 20" id="twbs-icons-arrow-down-left" xmlns="http://www.w3.org/2000/svg"><path fill-rule="evenodd" d="M2 13.5a.5.5 0 00.5.5h6a.5.5 0 000-1H3.707L13.854 2.854a.5.5 0 00-.708-.708L3 12.293V7.5a.5.5 0 00-1 0v6z"/></svg><svg width="20" height="20"  class="aabbi aabbi-badge-3d-fill" viewBox="-2 -2 20 20" id="twbs-icons-badge-3d-fill" x="20" xmlns="http://www.w3.org/2000/svg"><path d="M10.157 5.968h-.844v4.06h.844c1.116 0 1.621-.667 1.621-2.02 0-1.354-.51-2.04-1.621-2.04z"/><path d="M0 4a2 2 0 012-2h12a2 2 0 012 2v8a2 2 0 01-2 2H2a2 2 0 01-2-2V4zm5.184 4.368c.646 0 1.055.378 1.06.9.008.537-.427.919-1.086.919-.598-.004-1.037-.325-1.068-.756H3c.03.914.791 1.688 2.153 1.688 1.24 0 2.285-.66 2.272-1.798-.013-.953-.747-1.38-1.292-1.432v-.062c.44-.07 1.125-.527 1.108-1.375-.013-.906-.8-1.57-2.053-1.565-1.31.005-2.043.734-2.074 1.67h1.103c.022-.391.383-.751.936-.751.532 0 .928.33.928.813.004.479-.383.835-.928.835h-.632v.914h.663zM8.126 11h2.189C12.125 11 13 9.893 13 7.985c0-1.894-.861-2.984-2.685-2.984H8.126V11z"/></svg><svg width="20" height="20"  class="aacbi aacbi-badge-ad" viewBox="-2 -2 20 20" id="twbs-icons-badge-ad" y="20" xmlns="http://www.w3.org/2000/svg"><path d="M3.7 11l.47-1.542h2.004L6.644 11h1.261L5.901 5.001H4.513L2.5 11h1.2zm1.503-4.852l.734 2.426H4.416l.734-2.426h.053zm4.759.128c-1.059 0-1.753.765-1.753 2.043v.695c0 1.279.685 2.043 1.74 2.043.677 0 1.222-.33 1.367-.804h.057V11h1.138V4.685h-1.16v2.36h-.053c-.18-.475-.68-.77-1.336-.77zm.387.923c.58 0 1.002.44 1.002 1.138v.602c0 .76-.396 1.2-.984 1.2-.598 0-.972-.449-.972-1.248v-.453c0-.795.37-1.24.954-1.24z"/><path d="M14 3a1 1 0 011 1v8a1 1 0 01-1 1H2a1 1 0 01-1-1V4a1 1 0 011-1h12zM2 2a2 2 0 00-2 2v8a2 2 0 002 2h12a2 2 0 002-2V4a2 2 0 00-2-2H2z"/></svg><svg width="20" height="20"  class="aadbi aadbi-caret-down-square-fill" viewBox="-2 -2 20 20" id="twbs-icons-caret-down-square-fill" x="20" y="20" xmlns="http://www.w3.org/2000/svg"><path d="M0 2a2 2 0 012-2h12a2 2 0 012 2v12a2 2 0 01-2 2H2a2 2 0 01-2-2V2zm4 4a.5.5 0 00-.374.832l4 4.5a.5.5 0 00.748 0l4-4.5A.5.5 0 0012 6H4z"/></svg><svg width="20" height="20"  class="aaebi aaebi-check-square" viewBox="-2 -2 20 20" id="twbs-icons-check-square" x="40" xmlns="http://www.w3.org/2000/svg"><path d="M14 1a1 1 0 011 1v12a1 1 0 01-1 1H2a1 1 0 01-1-1V2a1 1 0 011-1h12zM2 0a2 2 0 00-2 2v12a2 2 0 002 2h12a2 2 0 002-2V2a2 2 0 00-2-2H2z"/><path d="M10.97 4.97a.75.75 0 011.071 1.05l-3.992 4.99a.75.75 0 01-1.08.02L4.324 8.384a.75.75 0 111.06-1.06l2.094 2.093 3.473-4.425a.235.235 0 01.02-.022z"/></svg><svg width="20" height="20"  class="aafbi aafbi-collection-play" viewBox="-2 -2 20 20" id="twbs-icons-collection-play" x="40" y="20" xmlns="http://www.w3.org/2000/svg"><path d="M2 3a.5.5 0 00.5.5h11a.5.5 0 000-1h-11A.5.5 0 002 3zm2-2a.5.5 0 00.5.5h7a.5.5 0 000-1h-7A.5.5 0 004 1zm2.765 5.576A.5.5 0 006 7v5a.5.5 0 00.765.424l4-2.5a.5.5 0 000-.848l-4-2.5z"/><path d="M1.5 14.5A1.5 1.5 0 010 13V6a1.5 1.5 0 011.5-1.5h13A1.5 1.5 0 0116 6v7a1.5 1.5 0 01-1.5 1.5h-13zm13-1a.5.5 0 00.5-.5V6a.5.5 0 00-.5-.5h-13A.5.5 0 001 6v7a.5.5 0 00.5.5h13z"/></svg><svg width="20" height="20"  class="aagbi aagbi-emoji-neutral-fill" viewBox="-2 -2 20 20" id="twbs-icons-emoji-neutral-fill" y="40" xmlns="http://www.w3.org/2000/svg"><path d="M8 16A8 8 0 108 0a8 8 0 000 16zM7 6.5C7 7.328 6.552 8 6 8s-1-.672-1-1.5S5.448 5 6 5s1 .672 1 1.5zm-3 4a.5.5 0 01.5-.5h7a.5.5 0 010 1h-7a.5.5 0 01-.5-.5zM10 8c-.552 0-1-.672-1-1.5S9.448 5 10 5s1 .672 1 1.5S10.552 8 10 8z"/></svg><svg width="20" height="20"  class="aahbi aahbi-file-earmark-easel" viewBox="-2 -2 20 20" id="twbs-icons-file-earmark-easel" x="20" y="40" xmlns="http://www.w3.org/2000/svg"><path d="M8.5 6a.5.5 0 10-1 0h-2A1.5 1.5 0 004 7.5v2A1.5 1.5 0 005.5 11h.473l-.447 1.342a.5.5 0 10.948.316L7.027 11H7.5v1a.5.5 0 001 0v-1h.473l.553 1.658a.5.5 0 10.948-.316L10.027 11h.473A1.5 1.5 0 0012 9.5v-2A1.5 1.5 0 0010.5 6h-2zM5 7.5a.5.5 0 01.5-.5h5a.5.5 0 01.5.5v2a.5.5 0 01-.5.5h-5a.5.5 0 01-.5-.5v-2z"/><path d="M14 14V4.5L9.5 0H4a2 2 0 00-2 2v12a2 2 0 002 2h8a2 2 0 002-2zM9.5 3A1.5 1.5 0 0011 4.5h2V14a1 1 0 01-1 1H4a1 1 0 01-1-1V2a1 1 0 011-1h5.5v2z"/></svg><svg width="20" height="20"  class="aaibi aaibi-file-earmark-pdf-fill" viewBox="-2 -2 20 20" id="twbs-icons-file-earmark-pdf-fill" x="40" y="40" xmlns="http://www.w3.org/2000/svg"><path d="M5.523 12.424c.14-.082.293-.162.459-.238a7.878 7.878 0 01-.45.606c-.28.337-.498.516-.635.572a.266.266 0 01-.035.012.282.282 0 01-.026-.044c-.056-.11-.054-.216.04-.36.106-.165.319-.354.647-.548zm2.455-1.647c-.119.025-.237.05-.356.078a21.148 21.148 0 00.5-1.05 12.045 12.045 0 00.51.858c-.217.032-.436.07-.654.114zm2.525.939a3.881 3.881 0 01-.435-.41c.228.005.434.022.612.054.317.057.466.147.518.209a.095.095 0 01.026.064.436.436 0 01-.06.2.307.307 0 01-.094.124.107.107 0 01-.069.015c-.09-.003-.258-.066-.498-.256zM8.278 6.97c-.04.244-.108.524-.2.829a4.86 4.86 0 01-.089-.346c-.076-.353-.087-.63-.046-.822.038-.177.11-.248.196-.283a.517.517 0 01.145-.04c.013.03.028.092.032.198.005.122-.007.277-.038.465z"/><path fill-rule="evenodd" d="M4 0h5.293A1 1 0 0110 .293L13.707 4a1 1 0 01.293.707V14a2 2 0 01-2 2H4a2 2 0 01-2-2V2a2 2 0 012-2zm5.5 1.5v2a1 1 0 001 1h2l-3-3zM4.165 13.668c.09.18.23.343.438.419.207.075.412.04.58-.03.318-.13.635-.436.926-.786.333-.401.683-.927 1.021-1.51a11.651 11.651 0 011.997-.406c.3.383.61.713.91.95.28.22.603.403.934.417a.856.856 0 00.51-.138c.155-.101.27-.247.354-.416.09-.181.145-.37.138-.563a.844.844 0 00-.2-.518c-.226-.27-.596-.4-.96-.465a5.76 5.76 0 00-1.335-.05 10.954 10.954 0 01-.98-1.686c.25-.66.437-1.284.52-1.794.036-.218.055-.426.048-.614a1.238 1.238 0 00-.127-.538.7.7 0 00-.477-.365c-.202-.043-.41 0-.601.077-.377.15-.576.47-.651.823-.073.34-.04.736.046 1.136.088.406.238.848.43 1.295a19.697 19.697 0 01-1.062 2.227 7.662 7.662 0 00-1.482.645c-.37.22-.699.48-.897.787-.21.326-.275.714-.08 1.103z"/></svg><svg width="20" height="20"  class="aajbi aajbi-journal-minus" viewBox="-2 -2 20 20" id="twbs-icons-journal-minus" x="60" xmlns="http://www.w3.org/2000/svg"><path fill-rule="evenodd" d="M5.5 8a.5.5 0 01.5-.5h4a.5.5 0 010 1H6a.5.5 0 01-.5-.5z"/><path d="M3 0h10a2 2 0 012 2v12a2 2 0 01-2 2H3a2 2 0 01-2-2v-1h1v1a1 1 0 001 1h10a1 1 0 001-1V2a1 1 0 00-1-1H3a1 1 0 00-1 1v1H1V2a2 2 0 012-2z"/><path d="M1 5v-.5a.5.5 0 011 0V5h.5a.5.5 0 010 1h-2a.5.5 0 010-1H1zm0 3v-.5a.5.5 0 011 0V8h.5a.5.5 0 010 1h-2a.5.5 0 010-1H1zm0 3v-.5a.5.5 0 011 0v.5h.5a.5.5 0 010 1h-2a.5.5 0 010-1H1z"/></svg><svg width="20" height="20"  class="aakbi aakbi-plus-circle-dotted" viewBox="-2 -2 20 20" id="twbs-icons-plus-circle-dotted" x="60" y="20" xmlns="http://www.w3.org/2000/svg"><path d="M8 0c-.176 0-.35.006-.523.017l.064.998a7.117 7.117 0 01.918 0l.064-.998A8.113 8.113 0 008 0zM6.44.152c-.346.069-.684.16-1.012.27l.321.948c.287-.098.582-.177.884-.237L6.44.153zm4.132.271a7.946 7.946 0 00-1.011-.27l-.194.98c.302.06.597.14.884.237l.321-.947zm1.873.925a8 8 0 00-.906-.524l-.443.896c.275.136.54.29.793.459l.556-.831zM4.46.824c-.314.155-.616.33-.905.524l.556.83a7.07 7.07 0 01.793-.458L4.46.824zM2.725 1.985c-.262.23-.51.478-.74.74l.752.66c.202-.23.418-.446.648-.648l-.66-.752zm11.29.74a8.058 8.058 0 00-.74-.74l-.66.752c.23.202.447.418.648.648l.752-.66zm1.161 1.735a7.98 7.98 0 00-.524-.905l-.83.556c.169.253.322.518.458.793l.896-.443zM1.348 3.555c-.194.289-.37.591-.524.906l.896.443c.136-.275.29-.54.459-.793l-.831-.556zM.423 5.428a7.945 7.945 0 00-.27 1.011l.98.194c.06-.302.14-.597.237-.884l-.947-.321zM15.848 6.44a7.943 7.943 0 00-.27-1.012l-.948.321c.098.287.177.582.237.884l.98-.194zM.017 7.477a8.113 8.113 0 000 1.046l.998-.064a7.117 7.117 0 010-.918l-.998-.064zM16 8a8.1 8.1 0 00-.017-.523l-.998.064a7.11 7.11 0 010 .918l.998.064A8.1 8.1 0 0016 8zM.152 9.56c.069.346.16.684.27 1.012l.948-.321a6.944 6.944 0 01-.237-.884l-.98.194zm15.425 1.012c.112-.328.202-.666.27-1.011l-.98-.194c-.06.302-.14.597-.237.884l.947.321zM.824 11.54a8 8 0 00.524.905l.83-.556a6.999 6.999 0 01-.458-.793l-.896.443zm13.828.905c.194-.289.37-.591.524-.906l-.896-.443c-.136.275-.29.54-.459.793l.831.556zm-12.667.83c.23.262.478.51.74.74l.66-.752a7.047 7.047 0 01-.648-.648l-.752.66zm11.29.74c.262-.23.51-.478.74-.74l-.752-.66c-.201.23-.418.447-.648.648l.66.752zm-1.735 1.161c.314-.155.616-.33.905-.524l-.556-.83a7.07 7.07 0 01-.793.458l.443.896zm-7.985-.524c.289.194.591.37.906.524l.443-.896a6.998 6.998 0 01-.793-.459l-.556.831zm1.873.925c.328.112.666.202 1.011.27l.194-.98a6.953 6.953 0 01-.884-.237l-.321.947zm4.132.271a7.944 7.944 0 001.012-.27l-.321-.948a6.954 6.954 0 01-.884.237l.194.98zm-2.083.135a8.1 8.1 0 001.046 0l-.064-.998a7.11 7.11 0 01-.918 0l-.064.998zM8.5 4.5a.5.5 0 00-1 0v3h-3a.5.5 0 000 1h3v3a.5.5 0 001 0v-3h3a.5.5 0 000-1h-3v-3z"/></svg><svg width="20" height="20"  class="aalbi aalbi-rainbow" viewBox="-2 -2 20 20" id="twbs-icons-rainbow" x="60" y="40" xmlns="http://www.w3.org/2000/svg"><path d="M8 4.5a7 7 0 00-7 7 .5.5 0 01-1 0 8 8 0 1116 0 .5.5 0 01-1 0 7 7 0 00-7-7zm0 2a5 5 0 00-5 5 .5.5 0 01-1 0 6 6 0 1112 0 .5.5 0 01-1 0 5 5 0 00-5-5zm0 2a3 3 0 00-3 3 .5.5 0 01-1 0 4 4 0 118 0 .5.5 0 01-1 0 3 3 0 00-3-3zm0 2a1 1 0 00-1 1 .5.5 0 01-1 0 2 2 0 114 0 .5.5 0 01-1 0 1 1 0 00-1-1z"/></svg><svg width="20" height="20"  class="aambi aambi-signpost-split" viewBox="-2 -2 20 20" id="twbs-icons-signpost-split" y="60" xmlns="http://www.w3.org/2000/svg"><path d="M7 7V1.414a1 1 0 012 0V2h5a1 1 0 01.8.4l.975 1.3a.5.5 0 010 .6L14.8 5.6a1 1 0 01-.8.4H9v10H7v-5H2a1 1 0 01-.8-.4L.225 9.3a.5.5 0 010-.6L1.2 7.4A1 1 0 012 7h5zm1 3V8H2l-.75 1L2 10h6zm0-5h6l.75-1L14 3H8v2z"/></svg><svg width="20" height="20"  class="aanbi aanbi-truck-flatbed" viewBox="-2 -2 20 20" id="twbs-icons-truck-flatbed" x="20" y="60" xmlns="http://www.w3.org/2000/svg"><path d="M11.5 4a.5.5 0 01.5.5V5h1.02a1.5 1.5 0 011.17.563l1.481 1.85a1.5 1.5 0 01.329.938V10.5a1.5 1.5 0 01-1.5 1.5H14a2 2 0 11-4 0H5a2 2 0 11-4 0 1 1 0 01-1-1v-1h11V4.5a.5.5 0 01.5-.5zM3 11a1 1 0 100 2 1 1 0 000-2zm9 0a1 1 0 100 2 1 1 0 000-2zm1.732 0h.768a.5.5 0 00.5-.5V8.35a.5.5 0 00-.11-.312l-1.48-1.85A.5.5 0 0013.02 6H12v4a2 2 0 011.732 1z"/></svg><svg width="20" height="20"  class="aaobi aaobi-watch" viewBox="-2 -2 20 20" id="twbs-icons-watch" x="40" y="60" xmlns="http://www.w3.org/2000/svg"><path d="M8.5 5a.5.5 0 00-1 0v2.5H6a.5.5 0 000 1h2a.5.5 0 00.5-.5V5z"/><path d="M5.667 16C4.747 16 4 15.254 4 14.333v-1.86A5.985 5.985 0 012 8c0-1.777.772-3.374 2-4.472V1.667C4 .747 4.746 0 5.667 0h4.666C11.253 0 12 .746 12 1.667v1.86a5.99 5.99 0 011.918 3.48.502.502 0 01.582.493v1a.5.5 0 01-.582.493A5.99 5.99 0 0112 12.473v1.86c0 .92-.746 1.667-1.667 1.667H5.667zM13 8A5 5 0 103 8a5 5 0 0010 0z"/></svg><svg width="20" height="20"  class="aapbi aapbi-window-split" viewBox="-2 -2 20 20" id="twbs-icons-window-split" x="60" y="60" xmlns="http://www.w3.org/2000/svg"><path d="M2.5 4a.5.5 0 100-1 .5.5 0 000 1zm2-.5a.5.5 0 11-1 0 .5.5 0 011 0zm1 .5a.5.5 0 100-1 .5.5 0 000 1z"/><path d="M2 1a2 2 0 00-2 2v10a2 2 0 002 2h12a2 2 0 002-2V3a2 2 0 00-2-2H2zm12 1a1 1 0 011 1v2H1V3a1 1 0 011-1h12zM1 13V6h6.5v8H2a1 1 0 01-1-1zm7.5 1V6H15v7a1 1 0 01-1 1H8.5z"/></svg></svg>