<?xml version="1.0" encoding="utf-8"?><!DOCTYPE svg PUBLIC "-//W3C//DTD SVG 1.1//EN" "http://www.w3.org/Graphics/SVG/1.1/DTD/svg11.dtd"><svg width="80" height="80" viewBox="0 0 80 80" xmlns="http://www.w3.org/2000/svg" xmlns:xlink="http://www.w3.org/1999/xlink"><svg width="20" height="20" viewBox="-2 -2 20 20" id="vaadin-icons-buss" xmlns="http://www.w3.org/2000/svg"><path  d="M14.67 4H14V2a2 2 0 00-2-2H4a2 2 0 00-2 2v2h-.68a.32.32 0 00-.32.32v2.36c0 .177.143.32.32.32H2v6c0 .55 0 1 1 1v1.5a.5.5 0 00.5.5h2a.5.5 0 00.5-.5V14h4v1.5a.5.5 0 00.5.5h2a.5.5 0 00.5-.5V14c1 0 1-.45 1-1V7h.67a.33.33 0 100-.66.33.33 0 000 .66.33.33 0 00.33-.33V4.33a.33.33 0 00-.33-.33zM6 1h4v1H6V1zM4 12a1 1 0 110-2 1 1 0 010 2zM3 8V3h10v5H3zm9 4a1 1 0 110-2 1 1 0 010 2z"/></svg><svg width="20" height="20" viewBox="-2 -2 20 20" id="vaadin-icons-close" x="20" xmlns="http://www.w3.org/2000/svg"><path  d="M15.1 3.1L12.9.9 8 5.9 3.1.9.9 3.1l5 4.9-5 4.9 2.2 2.2 4.9-5 4.9 5 2.2-2.2-5-4.9z"/></svg><svg width="20" height="20" viewBox="-2 -2 20 20" id="vaadin-icons-comment-ellipsis-o" y="20" xmlns="http://www.w3.org/2000/svg"><path  d="M3 11.2c0 .1 0 .1 0 0 0 .1 0 .1 0 0zM8.3 1C3.9 1 0 3.6 0 6.6c0 2 1.1 3.7 3 4.7s0 .1 0 .1c-.1 1.3-.9 1.7-.9 1.7L.3 14h2c2.5 0 4.3-1.1 5.1-1.9h.8c4.3 0 7.8-2.5 7.8-5.6S12.6 1 8.3 1zm-.1 10.1H7.1l-.2.2c-.5.5-1.6 1.4-3.3 1.7.3-.5.5-1.1.5-2v-.3l-.3-.1C2 9.7 1 8.3 1 6.6 1 4.2 4.5 2 8.3 2 12 2 15 4 15 6.6c0 2.4-3.1 4.5-6.8 4.5z"/><path  d="M6 7a1 1 0 11-2 0 1 1 0 012 0zM9 7a1 1 0 11-2 0 1 1 0 012 0zM12 7a1 1 0 11-2 0 1 1 0 012 0z"/></svg><svg width="20" height="20" viewBox="-2 -2 20 20" id="vaadin-icons-ctrl" x="20" y="20" xmlns="http://www.w3.org/2000/svg"><path  d="M0 0v16h16V0H0zm4.19 12C2.16 12 1 10.54 1 8s1.16-4 3.19-4h.029c.539 0 1.052.114 1.515.32l-.424.901a2.719 2.719 0 00-1.08-.22h-.042C2.38 5.001 2 6.631 2 8.001s.38 3 2.19 3c.497-.013.96-.145 1.366-.368l.444.898a3.943 3.943 0 01-1.806.47zM9 7H8v3.5a.902.902 0 001.005.499L8.999 12a1.822 1.822 0 01-1.998-1.428L6.999 7h-.51V6h.51V5h1v1h1v1zm2 2v3h-1V6h1v.92a2.447 2.447 0 012.005-.919l-.004 1a1.88 1.88 0 00-2 2.006zm4 3h-1V3h1v9z"/></svg><svg width="20" height="20" viewBox="-2 -2 20 20" id="vaadin-icons-del" x="40" xmlns="http://www.w3.org/2000/svg"><path  d="M0 0v16h16V0H0zm3 12H1V3h2a4.111 4.111 0 013.999 4.517c.013.1.02.236.02.374A4.11 4.11 0 013.005 12zm10-3H9v.012c0 .607.211 1.164.564 1.603.252.244.601.397.986.397l.074-.002a2.4 2.4 0 001.518-.631l.708.712a3.4 3.4 0 01-2.225.92l-.09.002a2.393 2.393 0 01-1.696-.702 3.522 3.522 0 01-.84-2.289V9v-.019c0-.968.344-1.855.915-2.547a2.144 2.144 0 011.578-.623l.086-.002a2.33 2.33 0 011.641.672c.47.532.762 1.23.78 1.996v.524zm2 3h-1V3h1v9z"/><path  d="M3 4H2v7h1c.31 0 3-.12 3-3.5S3.12 4 3 4zM10.49 6.8a1.432 1.432 0 00-1.339 1.192L11.93 8a1.734 1.734 0 00-.431-.831 1.355 1.355 0 00-.934-.371l-.079.002z"/></svg><svg width="20" height="20" viewBox="-2 -2 20 20" id="vaadin-icons-del-a" x="40" y="20" xmlns="http://www.w3.org/2000/svg"><path  d="M14 3h1v9h-1V3zM3 12H1V3h2a4.111 4.111 0 013.999 4.517c.013.1.02.236.02.374A4.11 4.11 0 013.005 12zm-1-1h1c.31 0 3-.12 3-3.5S3.12 4 3 4H2v7zM13 9v-.5a3.116 3.116 0 00-.783-2.003 2.332 2.332 0 00-1.732-.666l-.054-.001c-.594 0-1.132.241-1.521.631A3.978 3.978 0 008 9.001v.009c0 .881.322 1.686.854 2.306.43.429 1.03.697 1.692.697l.089-.002a3.398 3.398 0 002.228-.922l-.712-.708a2.402 2.402 0 01-1.515.63l-.076.002c-.385 0-.734-.153-.99-.402A2.54 2.54 0 019 9.001h4zm-2.5-2.2l.066-.002c.362 0 .691.141.935.372.209.224.361.505.427.818l-2.778.011a1.433 1.433 0 011.337-1.2z"/></svg><svg width="20" height="20" viewBox="-2 -2 20 20" id="vaadin-icons-ellipsis-v" y="40" xmlns="http://www.w3.org/2000/svg"><path  d="M6 0h4v4H6V0zM6 6h4v4H6V6zM6 12h4v4H6v-4z"/></svg><svg width="20" height="20" viewBox="-2 -2 20 20" id="vaadin-icons-file-text" x="20" y="40" xmlns="http://www.w3.org/2000/svg"><path  d="M10 0v4h4z"/><path  d="M9 0H2v16h12V5H9V0zm3 12H4v-1h8v1zm0-2H4V9h8v1zm0-3v1H4V7h8z"/></svg><svg width="20" height="20" viewBox="-2 -2 20 20" id="vaadin-icons-group" x="40" y="40" xmlns="http://www.w3.org/2000/svg"><path  d="M5 16v-5.3c-.6-.3-1-1-1-1.7V5c0-.7.4-1.3 1-1.7V3c0-1.1-.9-2-2-2s-2 .9-2 2 .9 2 2 2H1c-.5 0-1 .5-1 1v4c0 .5.5 1 1 1v5h4zM15 5h-2c1.1 0 2-.9 2-2s-.9-2-2-2-2 .9-2 2v.3c.6.4 1 1 1 1.7v4c0 .7-.4 1.4-1 1.7V16h4v-5c.5 0 1-.5 1-1V6c0-.5-.5-1-1-1zM10 2a2 2 0 11-3.999.001A2 2 0 0110 2z"/><path  d="M10 4H6c-.5 0-1 .5-1 1v4c0 .5.5 1 1 1v6h4v-6c.5 0 1-.5 1-1V5c0-.5-.5-1-1-1z"/></svg><svg width="20" height="20" viewBox="-2 -2 20 20" id="vaadin-icons-hash" x="60" xmlns="http://www.w3.org/2000/svg"><path  d="M15 6V4h-2.6l.6-2.8-2-.4-.7 3.2h-3L8 1.2 6 .8 5.3 4H2v2h2.9L4 10H1v2h2.6L3 14.8l2 .4.7-3.2h3L8 14.8l2 .4.7-3.2H14v-2h-2.9l.9-4h3zm-6 4H6l1-4h3l-1 4z"/></svg><svg width="20" height="20" viewBox="-2 -2 20 20" id="vaadin-icons-minus-square-o" x="60" y="20" xmlns="http://www.w3.org/2000/svg"><path  d="M4 7h8v2H4V7z"/><path  d="M15 1H1v14h14V1zm-1 13H2V2h12v12z"/></svg><svg width="20" height="20" viewBox="-2 -2 20 20" id="vaadin-icons-padding-top" x="60" y="40" xmlns="http://www.w3.org/2000/svg"><path  d="M0 0v16h16V0H0zm15 3h-1v1h1v11H1V3h1V2H1V1h1v1h1V1h1v1h1V1h1v1h1V1h1v1h1V1h1v1h1V1h1v1h1V1h1v1h1v1z"/><path  d="M3 2h1v1H3V2zM2 3h1v1H2V3zM4 3h1v1H4V3zM6 3h1v1H6V3zM5 2h1v1H5V2zM7 2h1v1H7V2zM9 2h1v1H9V2zM8 3h1v1H8V3zM10 3h1v1h-1V3zM12 3h1v1h-1V3zM11 2h1v1h-1V2zM13 2h1v1h-1V2z"/></svg><svg width="20" height="20" viewBox="-2 -2 20 20" id="vaadin-icons-pencil" y="60" xmlns="http://www.w3.org/2000/svg"><path  d="M1 11.9L0 16l4.1-1 9.2-9.2-3.1-3.1L1 11.9zm.5 3.1l-.4-.5.4-2 2 2-2 .5zm9.4-10.6l-8.1 8-.6-.6 8.1-8 .6.6zM15.3.7C14.2-.4 12.7.2 12.7.2l-1.5 1.5 3.1 3.1 1.5-1.5c0-.1.6-1.5-.5-2.6zm-1.9.9l-.5-.5C13.5.5 14 1 14 1l-.6.6z"/></svg><svg width="20" height="20" viewBox="-2 -2 20 20" id="vaadin-icons-scale-unbalance" x="20" y="60" xmlns="http://www.w3.org/2000/svg"><path  d="M15.81 9l-2.47-4.93.83-.15a.509.509 0 10-.183-.999l-.777.14a5.96 5.96 0 00-4.236-1.178.958.958 0 00-.967-.882h-.008a1 1 0 00-1 1v.2a6.332 6.332 0 00-4.066 2.697l-.754.153a.503.503 0 10.092 1h.088l.35-.05-2.52 5h-.19c0 1.1 1.34 2 3 2s3-.9 3-2h-.19l-2.56-5.12h.1a.512.512 0 00.379-.297c.021-.093.701-1.583 3.271-2.363v10.78h-1v1h-2v1h8v-1h-2v-1h-1V2.881a4.617 4.617 0 013.686 1.065l-.006-.005-2.49 5.06h-.19c0 1.1 1.34 2 3 2s3-.9 3-2h-.19zM5 11H1l2-3.94zm6-2l2-3.94L15 9h-4z"/></svg><svg width="20" height="20" viewBox="-2 -2 20 20" id="vaadin-icons-shop" x="40" y="60" xmlns="http://www.w3.org/2000/svg"><path  d="M0 15h16v1H0v-1zM0 0v6c.005.732.401 1.37.991 1.715L1 14h9V9h3v5h2V7.72c.599-.35.995-.988 1-1.719V0H0zm4 2h2v4a1 1 0 01-2 0V2zM2 7a1 1 0 01-1-1V2h2v4a1 1 0 01-1 1zm6 5H3V9h5v3zm1-6a1 1 0 01-2 0V2h2v4zm3 0a1 1 0 01-2 0V2h2v4zm3 0a1 1 0 01-2 0V2h2v4z"/></svg><svg width="20" height="20" viewBox="-2 -2 20 20" id="vaadin-icons-superscript" x="60" y="60" xmlns="http://www.w3.org/2000/svg"><path  d="M16 5v1h-4V5s3.3-1.6 2.6-3.2c-.5-1.1-2-.2-2-.2l-.5-.9S14-.7 15.2.5C17.6 2.8 13.8 5 13.8 5H16zM12 3H8.6L6 6 3.4 3H0l4.3 5L0 13h3.4L6 10l2.6 3H12L7.7 8z"/></svg></svg>