<?xml version="1.0" encoding="utf-8"?><!DOCTYPE svg PUBLIC "-//W3C//DTD SVG 1.1//EN" "http://www.w3.org/Graphics/SVG/1.1/DTD/svg11.dtd"><svg width="80" height="80" viewBox="0 0 80 80" xmlns="http://www.w3.org/2000/svg" xmlns:xlink="http://www.w3.org/1999/xlink"><svg width="20" height="20" viewBox="-2 -2 20 20" id="vaadin-icons-arrows-long-right" xmlns="http://www.w3.org/2000/svg"><path  d="M1 9V7h11V5l3 3-3 3V9z"/></svg><svg width="20" height="20" viewBox="-2 -2 20 20" id="vaadin-icons-caret-left" x="20" xmlns="http://www.w3.org/2000/svg"><path  d="M11 3v10L4 8z"/></svg><svg width="20" height="20" viewBox="-2 -2 20 20" id="vaadin-icons-corner-upper-left" y="20" xmlns="http://www.w3.org/2000/svg"><path  d="M0 16L16 0H0z"/></svg><svg width="20" height="20" viewBox="-2 -2 20 20" id="vaadin-icons-envelopes-o" x="20" y="20" xmlns="http://www.w3.org/2000/svg"><path  d="M14 2H0v10h14V2zM5.71 8L7 8.55 8.29 8 13 11H1zM1 9.83v-4l3.64 1.63zm8.36-2.37L13 5.78v4zM13 3v1.68L7 7.45 1 4.68V3h12z"/><path  d="M15 4v9H2v1h14V4h-1z"/></svg><svg width="20" height="20" viewBox="-2 -2 20 20" id="vaadin-icons-grab" x="40" xmlns="http://www.w3.org/2000/svg"><path  d="M12.6 4H12c0-.2-.2-.6-.4-.8s-.5-.4-1.1-.4c-.2 0-.4 0-.6.1-.1-.2-.2-.3-.3-.5-.2-.2-.5-.4-1.1-.4-.8 0-1.2.5-1.4 1-.1 0-.3-.1-.5-.1-.5 0-.8.2-1.1.4C5 3.9 5 4.7 5 4.8v.4c-.6 0-1.1.2-1.4.5C3 6.4 3 7.3 3 8.5v.7c0 1.4.7 2.1 1.4 2.8l.3.4C6 13.6 7.2 14 9.8 14c2.9 0 4.2-1.6 4.2-5.1V6.4c0-.7-.2-2.1-1.4-2.4zm-2.1-.2c.4 0 .5.4.5.6v.8c0 .3.2.5.4.5.3 0 .5-.1.5-.4 0 0 0-.4.4-.3.6.2.7 1.1.7 1.3v2.6c0 3.4-1.3 4.1-3.2 4.1-2.4 0-3.3-.3-4.3-1.3l-.4-.4C4.4 10.6 4 10.2 4 9.2v-.6c0-1 0-1.8.3-2.1.1-.2.4-.3.7-.3V7l-.3 1.2c0 .1 0 .1.1.1.1.1.2 0 .2 0l1-1.2V5c0-.1 0-.6.2-.8.1-.1.2-.2.4-.2.3 0 .4.2.4.4v.4c0 .2.2.5.5.5S8 5 8 4.8V3.5c0-.1 0-.5.5-.5.3 0 .5.2.5.5v1.2c0 .3.2.6.5.6s.5-.3.5-.5v-.5c0-.3.2-.5.5-.5z"/></svg><svg width="20" height="20" viewBox="-2 -2 20 20" id="vaadin-icons-money-deposit" x="40" y="20" xmlns="http://www.w3.org/2000/svg"><path  d="M8 16l-2-3h1v-2h2v2h1l-2 3zM15 1v8H1V1h14zm1-1H0v10h16V0z"/><path  d="M8 2a3 3 0 110 6h5V7h1V3h-1V2H8zM5 5a3 3 0 013-3H3v1H2v4h1v1h5a3 3 0 01-3-3z"/></svg><svg width="20" height="20" viewBox="-2 -2 20 20" id="vaadin-icons-native-button" y="40" xmlns="http://www.w3.org/2000/svg"><path  d="M15 12H1c-.6 0-1-.4-1-1V5c0-.6.4-1 1-1h14c.6 0 1 .4 1 1v6c0 .6-.4 1-1 1z"/></svg><svg width="20" height="20" viewBox="-2 -2 20 20" id="vaadin-icons-paragraph" x="20" y="40" xmlns="http://www.w3.org/2000/svg"><path  d="M5.5 0C3 0 1 2 1 4.5S3 9 5.5 9H8v7h2V2h1v14h2V2h2V0H5.5z"/></svg><svg width="20" height="20" viewBox="-2 -2 20 20" id="vaadin-icons-question" x="40" y="40" xmlns="http://www.w3.org/2000/svg"><path  d="M9 11H6c0-3 1.6-4 2.7-4.6.4-.2.7-.4.9-.6.5-.5.3-1.2.2-1.4-.3-.7-1-1.4-2.3-1.4C5.4 3 5 4.9 5 5.3l-3-.4C2.2 3.2 3.7 0 7.5 0c2.3 0 4.3 1.3 5.1 3.2.7 1.7.4 3.5-.8 4.7-.5.5-1.1.8-1.6 1.1-.9.5-1.2 1-1.2 2zM9.5 14a2 2 0 11-3.999.001A2 2 0 019.5 14z"/></svg><svg width="20" height="20" viewBox="-2 -2 20 20" id="vaadin-icons-question-circle-o" x="60" xmlns="http://www.w3.org/2000/svg"><path  d="M9 10H7c0-2 1.2-2.6 2-3 .3-.1.5-.2.7-.4.1-.1.3-.3.1-.7-.2-.5-.8-1-1.7-1-1.4 0-1.6 1.2-1.7 1.5l-2-.3C4.5 5 5.4 2.9 8 2.9c1.6 0 3 .9 3.6 2.2.4 1.1.2 2.2-.6 3-.4.4-.8.6-1.2.7-.6.4-.8.2-.8 1.2z"/><path  d="M8 1c3.9 0 7 3.1 7 7s-3.1 7-7 7-7-3.1-7-7 3.1-7 7-7zm0-1C3.6 0 0 3.6 0 8s3.6 8 8 8 8-3.6 8-8-3.6-8-8-8z"/><path  d="M6.9 11h2v2h-2v-2z"/></svg><svg width="20" height="20" viewBox="-2 -2 20 20" id="vaadin-icons-road" x="60" y="20" xmlns="http://www.w3.org/2000/svg"><path  d="M9 11v4h7L12 1H9v3H7V1H4L0 15h7v-4h2zM7 6h2v3H7V6z"/></svg><svg width="20" height="20" viewBox="-2 -2 20 20" id="vaadin-icons-scissors" x="60" y="40" xmlns="http://www.w3.org/2000/svg"><path  d="M16 3.1s-2.1-1.1-3.5-1c-.3 0-.5.1-.7.2L7.5 5.7 5.7 4.2c.1-.3.2-.6.3-1C6.1 1.4 4.6-.2 2.7 0 1.5.1.4 1 .1 2.2c-.3 1.3.2 2.5 1.2 3.2L4.6 8l-3.3 2.6c-1 .7-1.5 1.9-1.2 3.2.3 1.2 1.4 2 2.6 2.2 1.9.2 3.4-1.4 3.2-3.2 0-.3-.1-.7-.3-1l1.8-1.5 4.3 3.4c.2.1.4.2.7.2 1.4.1 3.5-1 3.5-1L10.2 8 16 3.1zM2.8 4.6c-.9-.1-1.6-.9-1.5-1.8s.9-1.6 1.8-1.5c.9.1 1.6.9 1.5 1.8 0 .9-.9 1.6-1.8 1.5zm.3 10.1c-.9.1-1.7-.6-1.8-1.5s.6-1.7 1.5-1.8c.9-.1 1.7.6 1.8 1.5s-.6 1.7-1.5 1.8zm9.3-11.5h.2c.4 0 .9.1 1.4.2L7.2 9.1 6.3 8l6.1-4.8zm1.6 9.4c-.5.2-1 .3-1.4.2h-.2l-4-3.2 1-.9 4.6 3.9z"/></svg><svg width="20" height="20" viewBox="-2 -2 20 20" id="vaadin-icons-strikethrough" y="60" xmlns="http://www.w3.org/2000/svg"><path  d="M10.5 7c-.5-.3-1-.5-1.4-.7-2-.9-2.1-1.1-2-1.9s.4-1 .6-1.2c.9-.5 2.8-.1 3.5.2L12.3.6C11.9.4 8.6-.8 6.2.6c-.8.5-1.9 1.5-2.1 3.4-.2 1.3.1 2.3.7 3H0v1h16V7h-5.5zM7.7 9s.1 0 .1.1c2 .9 2.4 1.2 2.2 2.5-.2.9-.5 1.1-.8 1.3-1.1.6-3.3 0-4.4-.5L3.6 15c.3.1 2.3 1 4.5 1 .9 0 1.8-.2 2.6-.6.9-.5 2-1.4 2.4-3.4.2-1.3 0-2.3-.4-3.1h-5z"/></svg><svg width="20" height="20" viewBox="-2 -2 20 20" id="vaadin-icons-text-label" x="20" y="60" xmlns="http://www.w3.org/2000/svg"><path  d="M12.5 4.9c-1.4 0-2.5.8-2.6.9l1.2 1.6s.7-.5 1.4-.5c1.4 0 1.5 1.2 1.5 1.6-.4-.1-1.1-.3-2-.1-1.4.3-2.8 2-2.1 3.9.7 1.8 3.1 2.1 4.1.6v1h2V8.6c0-2.7-1.9-3.7-3.5-3.7zm-1 6.5C11.4 9.5 13 9.5 14 9.6v1c0 1.2-2.3 2.3-2.5.8zM6.9 14H9L5.8 2H3.1L0 14h2.1l1-4h2.7l1.1 4zM3.6 8l.8-3.2.9 3.2H3.6z"/></svg><svg width="20" height="20" viewBox="-2 -2 20 20" id="vaadin-icons-vaadin-h" x="40" y="60" xmlns="http://www.w3.org/2000/svg"><path  d="M15.21.35a.79.79 0 00-.79.79v.46c0 .5-.32.85-1.07.85H9.8c-1.61 0-1.73 1.19-1.8 1.83-.06-.64-.18-1.83-1.79-1.83H2.64c-.75 0-1.09-.37-1.09-.86v-.45-.02A.77.77 0 00.78.35a.78.78 0 00-.78.78v.011-.001 1.32C0 4 .7 4.77 2.34 4.77H6c1.09 0 1.19.46 1.19.9v.13a.851.851 0 001.69.004V5.8v-.13c0-.44.1-.9 1.19-.9h3.61C15.29 4.77 16 4 16 2.46V1.14a.79.79 0 00-.79-.79zM11.21 7.38l-.04-.001a1 1 0 00-.958.714l-.002.007L8 12.31l-2.3-4.2a1.003 1.003 0 00-.963-.731l-.039.001H4.7l-.039-.001a1.05 1.05 0 00-.879 1.625L3.78 9l3.29 6.1a.942.942 0 001.718.006l.002-.006L12.13 9a1.05 1.05 0 00-.906-1.58h-.014.001z"/></svg><svg width="20" height="20" viewBox="-2 -2 20 20" id="vaadin-icons-workplace" x="60" y="60" xmlns="http://www.w3.org/2000/svg"><path  d="M11 3V0H2v14H0v1h7v-5h2V8h5V3h-3zm-5 7H4V8h2v2zm0-3H4V5h2v2zm0-3H4V2h2v2zm3 3H7V5h2v2zm0-3H7V2h2v2zm4 3h-2V5h2v2zm1 4h2v5H8v-5h2V9h4v2z"/></svg></svg>