<?xml version="1.0" encoding="utf-8"?><svg width="112" height="112" viewBox="0 0 112 112" xmlns="http://www.w3.org/2000/svg" xmlns:xlink="http://www.w3.org/1999/xlink"><svg viewBox="-2.5 -2.5 35 35" width="28" height="28" id="weather-icons-wi-day-cloudy-windy" xmlns="http://www.w3.org/2000/svg"><path d="M.45 20.97c0 .24.08.45.24.61.44.18.73.27.88.27h7.88c.24 0 .44-.09.6-.26.17-.17.25-.38.25-.61 0-.23-.08-.43-.25-.59a.847.847 0 00-.6-.24H1.57c-.26 0-.52.08-.76.24-.24.16-.36.36-.36.58zm1.39-3c0 .24.08.43.25.59.15.17.34.26.58.26h9.4c.24 0 .44-.08.61-.25.17-.17.25-.37.25-.6 0-.24-.08-.44-.25-.61a.822.822 0 00-.61-.25h-9.4c-.23 0-.43.08-.59.25-.16.17-.24.37-.24.61zm1.05-2.37c0 .09.06.13.17.13h1.39c.12 0 .19-.04.22-.13.26-.53.62-.97 1.09-1.32.47-.35 1-.55 1.58-.62h.54c.11 0 .16-.06.16-.19l.07-.56c.07-.71.3-1.36.69-1.95.39-.58.9-1.04 1.53-1.37s1.3-.5 2.02-.5c1.09 0 2.04.37 2.85 1.1s1.27 1.64 1.39 2.72l.07.56c0 .12.06.19.18.19h1.6c.89 0 1.65.32 2.3.96.65.64.97 1.39.97 2.27 0 .9-.32 1.67-.97 2.31-.64.64-1.41.96-2.31.96h-6.89c-.11 0-.17.06-.17.19v1.33c0 .12.06.18.17.18h6.89c.9 0 1.73-.22 2.49-.67.76-.44 1.37-1.05 1.81-1.81.44-.76.67-1.59.67-2.49 0-.73-.14-1.39-.43-2.01.78-.96 1.16-2.06 1.16-3.28 0-.94-.24-1.81-.71-2.62a5.201 5.201 0 00-1.92-1.92c-.81-.47-1.69-.71-2.63-.71-.73 0-1.43.15-2.1.45-.67.3-1.25.71-1.74 1.25-.83-.43-1.73-.65-2.7-.65-1.41 0-2.67.44-3.76 1.31s-1.79 1.99-2.09 3.36c-.85.21-1.6.63-2.25 1.25s-1.1 1.36-1.35 2.21c.02.02.01.04.01.07zm.71 8.56c0 .24.09.43.26.59.16.17.36.25.59.25h9.42c.23 0 .43-.08.59-.25s.24-.36.24-.6c0-.25-.08-.46-.24-.62s-.36-.25-.6-.25H4.45c-.24 0-.44.08-.6.25s-.25.38-.25.63zm7.49-19.51c0 .25.08.45.24.6l.64.66c.16.16.36.24.6.24.26 0 .46-.08.62-.24.16-.16.24-.36.24-.61 0-.23-.08-.43-.24-.59l-.65-.65a.783.783 0 00-.57-.25c-.25 0-.46.08-.63.25s-.25.36-.25.59zm5.36 4.38c.66-.63 1.48-.95 2.45-.95.97 0 1.8.34 2.49 1.03.68.68 1.03 1.51 1.03 2.49 0 .67-.15 1.27-.46 1.81-.94-.95-2.11-1.43-3.5-1.43h-.3a6.084 6.084 0 00-1.71-2.95zm1.6-5.22c0 .24.08.43.25.59s.36.23.6.23c.25 0 .45-.08.6-.23.15-.15.23-.35.23-.6V1.76c0-.24-.08-.45-.23-.61a.785.785 0 00-.6-.25c-.23 0-.43.08-.6.25s-.25.37-.25.61v2.05zm5.52 2.28c0 .24.08.44.25.6.12.16.33.24.6.24.27 0 .47-.08.59-.24l1.46-1.44c.16-.15.24-.36.24-.62 0-.23-.08-.43-.25-.6-.17-.17-.37-.25-.6-.25s-.44.08-.61.23L23.83 5.5c-.17.17-.26.36-.26.59zm.8 11.86c0 .24.08.44.23.6l.66.63c.24.18.45.27.61.27.16 0 .37-.09.61-.27.16-.16.24-.36.24-.6 0-.23-.08-.43-.24-.61l-.64-.61a.94.94 0 00-.65-.26c-.24 0-.43.08-.59.24a.89.89 0 00-.23.61zm1.44-6.32c0 .24.09.45.27.61.18.17.38.25.6.25h2.03c.23 0 .42-.08.59-.25.17-.17.25-.37.25-.61 0-.22-.08-.41-.24-.57a.84.84 0 00-.59-.23h-2.03c-.24 0-.45.08-.62.23-.17.16-.26.35-.26.57z"/></svg><svg viewBox="-2.5 -2.5 35 35" width="28" height="28" id="weather-icons-wi-direction-up" x="28" xmlns="http://www.w3.org/2000/svg"><path d="M9.95 10.87c-.01.35.1.65.34.9s.53.37.89.36c.34.02.63-.1.88-.37l1.66-1.64v10.3c-.01.35.11.64.36.88s.55.35.92.34c.34.02.64-.09.89-.32s.39-.53.4-.88v-10.3l1.64 1.64c.23.24.53.37.88.37.36 0 .66-.12.9-.36s.36-.53.36-.89c-.02-.36-.15-.64-.4-.85l-3.74-3.84c-.24-.23-.55-.37-.92-.4-.37.02-.68.16-.92.41l-3.75 3.81c-.26.22-.39.5-.39.84z"/></svg><svg viewBox="-2.5 -2.5 35 35" width="28" height="28" id="weather-icons-wi-horizon" y="28" xmlns="http://www.w3.org/2000/svg"><path d="M4.93 20.97c0-.26.09-.47.28-.62.14-.16.35-.23.63-.23h18.34c.25 0 .46.08.64.24.18.16.26.37.26.61s-.09.45-.27.62-.39.27-.63.27H5.84a.87.87 0 01-.64-.27.826.826 0 01-.27-.62zm1.97-8.29c0-.26.08-.47.23-.63.17-.18.38-.26.65-.26.23 0 .43.09.6.26l1.5 1.5a.858.858 0 010 1.25c-.15.18-.35.27-.6.27s-.47-.09-.64-.27l-1.5-1.5c-.16-.15-.24-.35-.24-.62zm2.93 5.59c-.04.16.01.23.15.23h1.49c.07 0 .14-.06.22-.17.3-.64.74-1.14 1.33-1.52s1.24-.56 1.96-.56c.73 0 1.39.19 1.99.56s1.05.88 1.35 1.52c.08.11.16.17.23.17h1.48c.13 0 .18-.08.15-.23a5.225 5.225 0 00-1.95-2.76c-.96-.71-2.04-1.06-3.25-1.06-1.2 0-2.28.35-3.23 1.06-.93.71-1.58 1.63-1.92 2.76zm4.31-6.46V9.68c0-.25.08-.46.24-.64.16-.18.37-.26.61-.26a.874.874 0 01.88.9v2.14a.852.852 0 01-.88.89c-.24 0-.45-.09-.61-.26s-.24-.39-.24-.64zm5.72 2.37c0-.24.08-.45.25-.63l1.54-1.5c.16-.18.36-.26.62-.26.24 0 .44.08.6.25s.23.38.23.64-.08.47-.23.62l-1.48 1.5c-.17.17-.36.26-.56.28-.23.02-.44-.06-.65-.24s-.32-.41-.32-.66z"/></svg><svg viewBox="-2.5 -2.5 35 35" width="28" height="28" id="weather-icons-wi-moon-alt-waning-crescent-2" x="28" y="28" xmlns="http://www.w3.org/2000/svg"><path d="M3.74 14.44c0-1.52.3-2.98.89-4.37s1.4-2.58 2.4-3.59 2.2-1.81 3.59-2.4 2.84-.89 4.37-.89 2.98.3 4.37.89 2.59 1.4 3.6 2.4 1.81 2.2 2.4 3.59.89 2.84.89 4.37-.3 2.98-.89 4.37-1.4 2.59-2.4 3.6-2.2 1.81-3.6 2.4-2.85.89-4.37.89-2.98-.3-4.37-.89-2.58-1.4-3.59-2.4-1.81-2.2-2.4-3.6-.89-2.84-.89-4.37zm1.2 0c0 1.36.26 2.65.79 3.89s1.24 2.3 2.12 3.2 1.95 1.62 3.17 2.15 2.52.81 3.87.82c-1.16-2.47-1.74-5.83-1.74-10.06 0-3.61.6-6.96 1.8-10.05-1.36 0-2.65.27-3.89.81s-2.3 1.25-3.19 2.15-1.61 1.97-2.14 3.2-.79 2.54-.79 3.89z"/></svg><svg viewBox="-2.5 -2.5 35 35" width="28" height="28" id="weather-icons-wi-moon-alt-waning-crescent-4" x="56" xmlns="http://www.w3.org/2000/svg"><path d="M3.74 14.44c0-1.52.3-2.98.89-4.37s1.4-2.58 2.4-3.59 2.2-1.81 3.59-2.4 2.84-.89 4.37-.89 2.98.3 4.37.89 2.59 1.4 3.6 2.4 1.81 2.2 2.4 3.59.89 2.84.89 4.37-.3 2.98-.89 4.37-1.4 2.59-2.4 3.6-2.2 1.81-3.6 2.4-2.85.89-4.37.89-2.98-.3-4.37-.89-2.58-1.4-3.59-2.4-1.81-2.2-2.4-3.6-.89-2.84-.89-4.37zm1.2 0c0 1.33.25 2.6.75 3.81s1.18 2.26 2.03 3.15 1.87 1.61 3.05 2.17 2.43.87 3.74.94c-1.24-1.19-2.11-2.63-2.61-4.31s-.75-3.6-.75-5.76c0-1.93.31-3.78.92-5.54s1.47-3.26 2.56-4.5c-1.77.07-3.39.56-4.88 1.47S7.09 8 6.23 9.51s-1.29 3.17-1.29 4.93z"/></svg><svg viewBox="-2.5 -2.5 35 35" width="28" height="28" id="weather-icons-wi-moon-waning-gibbous-2" x="56" y="28" xmlns="http://www.w3.org/2000/svg"><path d="M3.74 14.49c0 1.22.19 2.4.56 3.54s.91 2.17 1.6 3.09 1.5 1.72 2.42 2.42 1.95 1.23 3.09 1.6 2.32.56 3.54.56c4.33-1.73 6.49-5.47 6.49-11.22 0-1.39-.18-2.7-.54-3.93s-.85-2.31-1.47-3.23-1.31-1.71-2.06-2.39-1.56-1.23-2.42-1.66c-2.03 0-3.91.5-5.63 1.5S6.25 7.14 5.24 8.86s-1.5 3.6-1.5 5.63z"/></svg><svg viewBox="-2.5 -2.5 35 35" width="28" height="28" id="weather-icons-wi-moon-waning-gibbous-3" y="56" xmlns="http://www.w3.org/2000/svg"><path d="M3.74 14.49c0 1.22.19 2.4.56 3.54s.91 2.17 1.6 3.09 1.5 1.72 2.42 2.42 1.95 1.23 3.09 1.6 2.32.56 3.54.56c3.61-2.07 5.42-5.81 5.42-11.22 0-1.31-.15-2.56-.45-3.74s-.71-2.24-1.23-3.17-1.1-1.75-1.72-2.46-1.3-1.33-2.02-1.86c-1.52 0-2.98.3-4.37.89S8 5.53 7 6.54s-1.8 2.2-2.39 3.59-.87 2.83-.87 4.36z"/></svg><svg viewBox="-2.5 -2.5 35 35" width="28" height="28" id="weather-icons-wi-moon-waning-gibbous-4" x="28" y="56" xmlns="http://www.w3.org/2000/svg"><path d="M3.74 14.47c0 1.52.3 2.98.89 4.37s1.39 2.58 2.4 3.59 2.2 1.8 3.59 2.4 2.84.89 4.37.89c2.89-2.39 4.34-6.14 4.34-11.24 0-2.34-.41-4.47-1.22-6.36S16.26 4.6 15 3.25c-2.03 0-3.91.5-5.64 1.51S6.25 7.12 5.24 8.84s-1.5 3.6-1.5 5.63z"/></svg><svg viewBox="-2.5 -2.5 35 35" width="28" height="28" id="weather-icons-wi-moon-waxing-gibbous-6" x="56" y="56" xmlns="http://www.w3.org/2000/svg"><path d="M8.58 14.43c0 1.03.06 1.97.18 2.83s.32 1.73.62 2.59.69 1.65 1.16 2.34 1.1 1.35 1.85 1.96 1.63 1.12 2.63 1.55c1.53 0 2.99-.3 4.38-.89s2.58-1.4 3.59-2.4 1.81-2.2 2.4-3.6.89-2.85.89-4.39c0-2.04-.5-3.93-1.51-5.65s-2.37-3.1-4.1-4.1-3.61-1.51-5.65-1.51c-1.99 1-3.56 2.51-4.72 4.55s-1.72 4.28-1.72 6.72z"/></svg><svg viewBox="-2.5 -2.5 35 35" width="28" height="28" id="weather-icons-wi-night-alt-cloudy" x="84" xmlns="http://www.w3.org/2000/svg"><path d="M4.14 16.9c0-1.16.35-2.18 1.06-3.08s1.62-1.47 2.74-1.72c.23-1.03.7-1.93 1.4-2.7a5.93 5.93 0 012.53-1.65c.62-.21 1.26-.32 1.93-.32.81 0 1.6.16 2.35.48.28-.47.61-.88.99-1.22.38-.34.77-.61 1.17-.79.4-.18.8-.32 1.18-.41s.76-.13 1.12-.13c.38 0 .79.05 1.23.16l.82.25c.14.06.18.13.14.22l-.14.6c-.07.31-.1.6-.1.86 0 .31.05.63.15.95.1.32.24.63.44.94.19.31.46.58.8.83s.72.44 1.15.57l.62.22c.1.03.15.08.15.16 0 .02-.01.04-.02.07l-.18.67c-.27 1.08-.78 1.93-1.5 2.57.4.7.62 1.45.65 2.24.01.05.01.12.01.23 0 .89-.22 1.72-.67 2.48-.44.76-1.05 1.36-1.8 1.8-.76.44-1.59.67-2.48.67H9.07c-.89 0-1.72-.22-2.48-.67s-1.35-1.05-1.79-1.8-.66-1.58-.66-2.48zm1.71 0c0 .89.32 1.66.96 2.31.64.65 1.39.98 2.26.98h10.81c.89 0 1.65-.32 2.28-.97s.95-1.42.95-2.32c0-.88-.32-1.63-.96-2.26-.64-.63-1.4-.95-2.28-.95h-1.78l-.1-.75c-.1-1.01-.52-1.88-1.26-2.59s-1.62-1.11-2.63-1.2c-.03 0-.08 0-.15-.01-.07-.01-.11-.01-.15-.01-.51 0-1.02.1-1.54.29V9.4c-.73.28-1.35.74-1.84 1.37-.5.63-.8 1.35-.9 2.17l-.07.72-.68.03c-.84.1-1.54.45-2.1 1.06s-.82 1.32-.82 2.15zM17.6 8.79c1.06.91 1.72 1.97 1.97 3.18h.32c1.24 0 2.3.39 3.17 1.18.33-.31.58-.67.76-1.07a4.95 4.95 0 01-2.16-1.97c-.52-.88-.79-1.81-.79-2.78v-.24c-.05-.01-.13-.01-.24-.01-.58-.01-1.15.13-1.7.44-.55.3-1 .72-1.33 1.27z"/></svg><svg viewBox="-2.5 -2.5 35 35" width="28" height="28" id="weather-icons-wi-night-alt-lightning" x="84" y="28" xmlns="http://www.w3.org/2000/svg"><path d="M4.12 16.91c0 1.33.46 2.48 1.39 3.43s2.06 1.47 3.4 1.53c.11 0 .17-.06.17-.17v-1.37c0-.12-.06-.18-.17-.18-.87-.07-1.6-.41-2.19-1.04-.59-.62-.89-1.36-.89-2.21 0-.84.28-1.57.85-2.19.57-.62 1.26-.97 2.1-1.04l.53-.07c.13 0 .2-.06.2-.17l.07-.52c.11-1.08.56-1.99 1.37-2.71.81-.73 1.76-1.09 2.85-1.09s2.04.36 2.85 1.09c.81.72 1.27 1.63 1.39 2.72l.07.58c0 .12.06.18.18.18h1.61c.91 0 1.68.32 2.32.95.64.63.96 1.39.96 2.28 0 .85-.3 1.59-.89 2.21-.59.62-1.32.97-2.19 1.04-.13 0-.2.06-.2.18v1.37c0 .11.07.17.2.17 1.33-.04 2.46-.55 3.38-1.51s1.38-2.11 1.38-3.45c0-.89-.23-1.72-.68-2.48.8-.72 1.32-1.58 1.55-2.58l.15-.72c.01-.01.01-.03.01-.07 0-.07-.05-.13-.16-.16l-.58-.17c-.57-.16-1.05-.44-1.45-.82-.4-.39-.68-.8-.85-1.23a3.555 3.555 0 01-.16-2.11l.14-.62c.03-.09-.02-.17-.14-.22l-.79-.24a4.944 4.944 0 00-2.37-.03c-.38.09-.78.22-1.19.41-.41.18-.81.45-1.2.8-.39.35-.72.75-1 1.22-.71-.3-1.48-.45-2.33-.45-1.41 0-2.66.44-3.75 1.31a5.83 5.83 0 00-2.1 3.35c-1.1.26-2.01.84-2.73 1.74-.75.89-1.11 1.91-1.11 3.06zm7.67 4.65c-.05.14 0 .22.14.22h2.16l-1.31 4.14h.3l4.17-5.59c.04-.04.05-.09.03-.14-.02-.05-.06-.07-.13-.07h-2.2l2.31-4.21c.07-.14.02-.22-.14-.22h-2.94c-.08 0-.15.05-.22.14l-2.17 5.73zM17.6 8.81c.33-.57.77-1 1.33-1.3.55-.3 1.13-.45 1.72-.45.13 0 .22.01.27.02v.31c0 .96.26 1.87.78 2.73a5.03 5.03 0 002.17 1.96c-.16.37-.41.73-.75 1.07-.92-.79-1.99-1.18-3.22-1.18h-.32c-.29-1.26-.95-2.31-1.98-3.16z"/></svg><svg viewBox="-2.5 -2.5 35 35" width="28" height="28" id="weather-icons-wi-night-alt-partly-cloudy" x="84" y="56" xmlns="http://www.w3.org/2000/svg"><path d="M6.77 19.65c0-.79.23-1.48.68-2.09.45-.61 1.06-1.03 1.81-1.27.32-1.09.98-1.92 1.99-2.49v-.35c0-1.46.46-2.74 1.38-3.85s2.09-1.8 3.5-2.06c.36-.06.72-.09 1.08-.09h.03c.21 0 .44.02.7.05.26.02.5.06.73.11l.91.28c.13.07.18.16.16.26l-.13.7c-.07.33-.11.65-.11.97 0 .35.05.71.16 1.07.11.37.27.72.5 1.08s.52.68.91.97c.38.29.83.51 1.33.66l.71.21c.11.03.17.08.17.18 0 .04 0 .06-.01.07l-.18.68c-.06.24-.13.49-.22.73-.15.44-.38.89-.7 1.37 0-.01 0-.01-.01-.01-.44.63-.98 1.16-1.64 1.58.14.34.21.75.21 1.24 0 .99-.35 1.83-1.04 2.53-.69.7-1.52 1.05-2.49 1.05h-6.85c-.97 0-1.81-.35-2.52-1.06-.7-.71-1.06-1.55-1.06-2.52zm1.98 0c0 .45.15.83.46 1.15s.69.47 1.14.47h6.85c.43 0 .8-.16 1.12-.48.32-.32.47-.7.47-1.14 0-.43-.16-.8-.47-1.12s-.69-.47-1.12-.47h-1.3c-.11 0-.19-.07-.25-.23l-.08-.64c-.07-.58-.32-1.06-.75-1.44s-.93-.58-1.51-.58c-.57 0-1.06.19-1.48.58-.42.39-.66.87-.73 1.44l-.1.55c0 .15-.06.22-.19.22l-.63.08c-.41.04-.75.21-1.02.51-.27.32-.41.68-.41 1.1zm4.43-6.4h.12c.93 0 1.75.26 2.49.78.73.52 1.25 1.22 1.54 2.1.77 0 1.45.24 2.03.72.69-.43 1.2-1.02 1.53-1.75-1.04-.52-1.85-1.27-2.43-2.25s-.88-2.01-.88-3.11v-.35h-.24c-.61 0-1.2.13-1.77.39-.57.26-1.05.64-1.44 1.12l-.03-.02c-.55.68-.85 1.47-.92 2.37z"/></svg><svg viewBox="-2.5 -2.5 35 35" width="28" height="28" id="weather-icons-wi-night-alt-rain-mix" y="84" xmlns="http://www.w3.org/2000/svg"><path d="M4.07 16.93c0 1.33.47 2.47 1.4 3.43s2.07 1.47 3.4 1.51c.12 0 .18-.06.18-.17v-1.34c0-.11-.06-.17-.18-.17-.85-.04-1.58-.39-2.18-1.03s-.91-1.39-.91-2.23c0-.85.28-1.59.85-2.21.57-.62 1.27-.97 2.1-1.04l.53-.07c.13 0 .2-.06.2-.18l.07-.51c.11-1.1.56-2.02 1.37-2.75s1.76-1.1 2.86-1.1c1.09 0 2.04.37 2.86 1.1.82.73 1.29 1.64 1.4 2.72l.07.57c0 .12.06.19.17.19h1.62c.91 0 1.68.32 2.33.97.65.64.97 1.41.97 2.31 0 .55-.14 1.07-.41 1.56s-.65.89-1.13 1.2c-.48.31-1 .48-1.56.51-.13 0-.2.06-.2.17v1.34c0 .11.07.17.2.17.88-.02 1.69-.26 2.42-.71.73-.45 1.31-1.05 1.73-1.8.42-.75.63-1.56.63-2.43 0-.88-.23-1.72-.68-2.51.83-.74 1.36-1.62 1.58-2.62l.14-.68a.09.09 0 00.03-.07c0-.06-.06-.11-.17-.16l-.55-.18c-.57-.17-1.07-.45-1.47-.85-.41-.4-.7-.81-.87-1.25-.17-.43-.26-.86-.26-1.29-.02-.21.01-.49.09-.82l.13-.58c.04-.1 0-.18-.13-.23l-.8-.24a4.958 4.958 0 00-2.41-.04c-.38.09-.78.22-1.19.41s-.81.46-1.2.81c-.39.35-.72.76-1 1.23-.81-.31-1.6-.46-2.35-.46-1.41 0-2.67.44-3.76 1.32s-1.8 2-2.11 3.37c-1.12.29-2.04.88-2.75 1.77-.71.87-1.06 1.9-1.06 3.06zm5.41 7.05c0 .17.05.34.16.51.11.17.27.28.47.35.23.07.44.06.64-.04s.32-.28.39-.56l.14-.61c.05-.23.02-.44-.09-.63a.82.82 0 00-.52-.4c-.23-.07-.44-.04-.64.08s-.34.3-.4.53l-.13.58c-.02.04-.02.1-.02.19zm.76-2.9c0 .21.08.4.25.57.16.17.34.25.56.25.24 0 .44-.08.6-.24.16-.16.24-.35.24-.59 0-.23-.08-.43-.24-.59a.814.814 0 00-.6-.24c-.23 0-.43.08-.58.23s-.23.38-.23.61zm.61-2.27c-.01.16.03.31.14.45.1.15.26.25.48.32a.8.8 0 00.62-.07c.21-.11.34-.28.41-.51l.28-.9c.07-.24.05-.46-.07-.65a.913.913 0 00-.54-.39.737.737 0 00-.63.07.85.85 0 00-.41.5l-.24.92c0 .02-.01.06-.02.12-.02.05-.02.1-.02.14zm1.16 8.29c0 .18.05.34.15.5.1.16.26.27.48.33.08.02.17.03.25.03.43 0 .69-.2.79-.61l.14-.59c.06-.26.03-.48-.08-.68s-.29-.32-.52-.37a.744.744 0 00-.63.07c-.21.12-.34.29-.41.51l-.14.59c-.02.09-.03.16-.03.22zm.78-2.9c0 .22.08.41.25.58.16.16.35.24.57.24.24 0 .43-.08.59-.23.16-.16.23-.35.23-.59 0-.23-.08-.42-.23-.58s-.35-.23-.59-.23-.43.08-.59.23a.8.8 0 00-.23.58zm.63-2.27c-.01.15.03.31.13.47s.25.26.45.3c.23.06.44.04.64-.06.19-.1.33-.29.41-.56l.27-.9c.07-.22.05-.43-.07-.63a.867.867 0 00-.53-.4c-.22-.07-.43-.04-.64.08s-.34.3-.41.53l-.22.9c-.02.08-.03.17-.03.27zm2.75 2.15c0 .16.05.32.15.48s.26.27.46.33c.03 0 .08.01.14.02.06.01.1.02.14.02.41 0 .66-.22.76-.66l.14-.6c.07-.21.05-.42-.07-.63a.809.809 0 00-.51-.41c-.25-.06-.48-.04-.68.08s-.34.29-.41.53l-.09.59c0 .02-.01.07-.02.12 0 .05-.01.09-.01.13zm.74-2.96c0 .22.08.42.25.57.15.16.34.24.57.24.24 0 .43-.08.59-.23s.23-.35.23-.58c0-.24-.08-.43-.23-.59s-.35-.23-.59-.23-.43.08-.59.23-.23.35-.23.59zm.61-2.31c0 .17.05.33.16.48s.27.26.49.32c.02 0 .06.01.12.02s.11.02.14.02c.1 0 .22-.03.36-.09.21-.11.35-.29.41-.52l.24-.9c.06-.23.04-.44-.08-.63a.827.827 0 00-.51-.4c-.23-.07-.44-.05-.64.06s-.32.27-.39.51l-.28.91c0 .02-.01.06-.02.12.01.03 0 .07 0 .1zm.07-10.05c.32-.58.76-1.02 1.31-1.34.56-.32 1.13-.47 1.73-.46.09 0 .19.01.3.03v.31c-.01.98.25 1.9.77 2.76.53.86 1.27 1.5 2.22 1.94-.19.41-.46.78-.8 1.11-.92-.76-2-1.14-3.23-1.14h-.31c-.31-1.31-.97-2.38-1.99-3.21z"/></svg><svg viewBox="-2.5 -2.5 35 35" width="28" height="28" id="weather-icons-wi-night-alt-snow-thunderstorm" x="28" y="84" xmlns="http://www.w3.org/2000/svg"><path d="M4.09 16.89c0 1.11.33 2.1.99 2.97.66.87 1.52 1.47 2.58 1.79l-.65 1.7c-.04.14 0 .21.14.21h2.12l-1.29 4.18h.28l4.23-5.62c.04-.04.04-.09.02-.14-.03-.05-.07-.07-.14-.07h-2.18l2.47-4.64c.07-.14.03-.22-.13-.22H9.57c-.09 0-.16.05-.22.15l-1.07 2.88c-.71-.18-1.3-.57-1.78-1.17s-.71-1.27-.71-2.01c0-.83.28-1.55.85-2.17.57-.61 1.27-.97 2.1-1.07l.53-.07c.13 0 .2-.06.2-.18l.07-.51c.11-1.08.56-1.99 1.37-2.72.81-.73 1.76-1.1 2.85-1.1s2.04.37 2.86 1.1c.82.73 1.28 1.64 1.4 2.71l.07.57c0 .12.06.19.17.19h1.62c.91 0 1.68.32 2.33.95s.97 1.4.97 2.28c0 .85-.3 1.59-.9 2.21-.6.62-1.33.97-2.2 1.03-.12 0-.19.06-.19.19v1.36c0 .12.06.18.19.18 1.33-.04 2.46-.55 3.39-1.51.93-.97 1.39-2.12 1.39-3.45 0-.87-.22-1.68-.66-2.45.76-.74 1.27-1.61 1.51-2.62l.19-.68c.01-.01.01-.03.01-.07 0-.08-.05-.13-.15-.16l-.62-.17c-.57-.17-1.06-.45-1.46-.84-.4-.39-.68-.8-.85-1.22s-.25-.84-.24-1.26c0-.28.03-.56.1-.85l.11-.61c.02-.1-.02-.18-.14-.23l-.8-.24c-.47-.09-.88-.14-1.24-.14-.37-.01-.75.03-1.13.12-.38.08-.78.22-1.19.4-.41.18-.8.45-1.18.79-.38.34-.71.74-.99 1.2-.83-.31-1.62-.46-2.36-.46-1.41 0-2.67.44-3.76 1.32s-1.8 2-2.11 3.36c-1.11.26-2.02.84-2.74 1.74-.71.89-1.07 1.92-1.07 3.07zm9.59 6.07c0 .24.08.44.24.59.16.16.36.24.58.24.24 0 .44-.08.61-.24s.25-.36.25-.59c0-.24-.08-.44-.25-.61s-.37-.26-.61-.26c-.22 0-.41.09-.58.26s-.24.37-.24.61zm0-3.64c0 .24.08.43.24.58.16.16.36.24.58.24.24 0 .45-.08.61-.23s.25-.35.25-.59c0-.23-.08-.43-.25-.6s-.37-.25-.61-.25c-.23 0-.42.08-.58.25s-.24.37-.24.6zm0 7.31c0 .22.08.41.24.57.17.17.36.25.58.25.24 0 .44-.08.61-.24.17-.16.25-.35.25-.59s-.08-.44-.25-.61a.832.832 0 00-.61-.26c-.22 0-.41.09-.58.26-.16.18-.24.39-.24.62zm3.23-5.61c0 .24.08.44.25.6s.36.25.6.25c.23 0 .43-.08.59-.25.16-.17.24-.37.24-.6 0-.22-.08-.42-.24-.58a.791.791 0 00-.59-.24c-.23 0-.43.08-.6.24s-.25.35-.25.58zm0 3.64c0 .23.08.42.24.58.16.16.36.24.6.24s.43-.08.59-.24c.16-.16.23-.35.23-.59s-.08-.43-.23-.59a.784.784 0 00-.59-.23c-.24 0-.44.08-.6.23-.16.16-.24.36-.24.6zm.68-15.89c.33-.56.78-.99 1.34-1.29s1.15-.45 1.76-.45h.22v.32c0 .64.11 1.26.34 1.86.23.6.56 1.15 1.02 1.66.45.51.99.91 1.61 1.21-.17.38-.42.72-.76 1.03-.91-.78-1.98-1.17-3.22-1.17h-.33c-.29-1.26-.95-2.32-1.98-3.17z"/></svg><svg viewBox="-2.5 -2.5 35 35" width="28" height="28" id="weather-icons-wi-night-cloudy-gusts" x="56" y="84" xmlns="http://www.w3.org/2000/svg"><path d="M3.06 20.98c0 .24.09.44.27.6.18.18.38.27.61.27h5.88c.26 0 .49.09.69.28.2.19.3.42.3.68 0 .26-.1.48-.3.68s-.43.3-.68.3c-.25 0-.48-.1-.68-.3-.19-.17-.39-.26-.62-.26-.23 0-.43.08-.59.25-.16.17-.24.37-.24.61s.08.44.24.6c.52.52 1.15.78 1.88.78.74 0 1.38-.26 1.89-.77.52-.52.78-1.14.78-1.88s-.26-1.38-.78-1.9-1.15-.79-1.89-.79H3.94a.86.86 0 00-.62.25.79.79 0 00-.26.6zm0-3.01c0 .23.09.42.27.58.15.16.35.24.61.24h10.99c.74 0 1.37-.26 1.89-.78.52-.52.78-1.15.78-1.88s-.26-1.36-.78-1.88c-.52-.52-1.15-.77-1.89-.77-.76 0-1.39.25-1.89.75-.15.17-.23.38-.23.63 0 .24.08.43.23.59s.35.23.6.23.45-.07.61-.23c.19-.19.42-.28.68-.28.26 0 .48.09.68.28.19.19.29.42.29.68s-.1.5-.29.69c-.19.19-.42.29-.68.29H3.94a.86.86 0 00-.62.25c-.18.18-.26.38-.26.61zm2.65-2.34c0 .08.06.12.17.12h1.43c.08 0 .15-.05.22-.14.23-.54.57-.99 1.05-1.35.47-.36 1-.56 1.59-.6l.52-.07c.12 0 .19-.06.19-.19l.07-.5c.11-1.08.57-1.99 1.38-2.71.81-.73 1.77-1.09 2.86-1.09s2.04.36 2.85 1.08c.81.72 1.27 1.63 1.39 2.72l.07.57c0 .12.06.18.18.18h1.63c.9 0 1.67.32 2.31.95.64.63.96 1.39.96 2.28 0 .89-.32 1.66-.96 2.29-.64.63-1.41.95-2.31.95H14.4c-.11 0-.17.06-.17.18v1.37c0 .12.06.18.17.18h6.91c.89 0 1.72-.22 2.48-.67.76-.44 1.36-1.05 1.8-1.81.44-.76.66-1.59.66-2.49 0-.74-.14-1.42-.42-2.02.76-1 1.14-2.11 1.14-3.33 0-.71-.14-1.39-.42-2.04s-.65-1.2-1.12-1.67c-.47-.47-1.03-.84-1.67-1.11s-1.34-.41-2.05-.41c-1.54 0-2.84.58-3.88 1.73-.78-.41-1.67-.61-2.65-.61-1.41 0-2.66.44-3.75 1.31s-1.77 1.99-2.07 3.35c-.85.2-1.6.61-2.26 1.23s-1.11 1.35-1.37 2.18v.04c-.01.05-.02.09-.02.1zM19.24 9c.72-.68 1.54-1.02 2.48-1.02.98 0 1.81.35 2.51 1.05s1.05 1.53 1.05 2.5c0 .61-.17 1.22-.51 1.85-.96-.96-2.11-1.43-3.47-1.43h-.33c-.24-1.07-.81-2.06-1.73-2.95z"/></svg><svg viewBox="-2.5 -2.5 35 35" width="28" height="28" id="weather-icons-wi-refresh" x="84" y="84" xmlns="http://www.w3.org/2000/svg"><path d="M9.77 15.53c0 .94.24 1.82.71 2.62s1.11 1.44 1.91 1.9c.8.47 1.67.7 2.61.7.96 0 1.83-.23 2.63-.69.8-.46 1.43-1.09 1.89-1.89.46-.8.69-1.68.69-2.63 0-.24-.08-.44-.24-.61a.764.764 0 00-.59-.25c-.23 0-.43.08-.6.25-.17.17-.25.37-.25.61 0 .98-.35 1.82-1.04 2.51-.69.69-1.53 1.04-2.51 1.04-.97 0-1.79-.35-2.47-1.04-.68-.69-1.02-1.53-1.02-2.51 0-.85.26-1.62.79-2.31s1.14-1.06 1.84-1.1l-.38.37c-.16.18-.24.37-.24.58 0 .22.08.42.24.6.36.35.77.35 1.21 0l1.84-1.82c.16-.12.24-.33.24-.62 0-.26-.08-.45-.24-.57L14.97 8.8c-.18-.16-.37-.24-.57-.24-.25 0-.46.08-.63.25-.17.17-.25.37-.25.6 0 .24.08.45.24.61l.38.36c-1.25.22-2.29.82-3.12 1.8s-1.25 2.09-1.25 3.35z"/></svg></svg>