<?xml version="1.0" encoding="utf-8"?><svg width="112" height="112" viewBox="0 0 112 112" xmlns="http://www.w3.org/2000/svg" xmlns:xlink="http://www.w3.org/1999/xlink"><svg viewBox="-2.5 -2.5 35 35" width="28" height="28" id="weather-icons-wi-day-rain" xmlns="http://www.w3.org/2000/svg"><path d="M1.51 16.89c0 1.33.46 2.48 1.39 3.44s2.06 1.47 3.41 1.53c.11 0 .17-.06.17-.17v-1.34c0-.11-.06-.17-.17-.17-.86-.04-1.59-.39-2.19-1.03s-.9-1.4-.9-2.26c0-.82.28-1.54.85-2.16s1.27-.97 2.1-1.07l.53-.05c.13 0 .2-.06.2-.17l.07-.54c.11-1.08.56-1.99 1.37-2.72s1.76-1.1 2.85-1.1 2.04.37 2.86 1.1 1.28 1.64 1.4 2.72l.07.57c0 .12.06.19.17.19h1.62c.89 0 1.65.32 2.3.96.65.64.97 1.39.97 2.27 0 .87-.3 1.62-.9 2.26-.6.64-1.33.98-2.18 1.03-.12 0-.19.06-.19.17v1.34c0 .11.06.17.19.17 1.33-.04 2.46-.55 3.39-1.51.93-.97 1.39-2.12 1.39-3.45 0-.72-.14-1.39-.42-2.01.78-.97 1.17-2.07 1.17-3.31 0-.95-.24-1.83-.71-2.64s-1.11-1.45-1.92-1.92-1.68-.7-2.62-.7c-1.56 0-2.85.58-3.88 1.74-.82-.44-1.72-.66-2.71-.66-1.41 0-2.67.44-3.76 1.32s-1.79 2-2.1 3.36c-1.11.26-2.02.84-2.74 1.74s-1.08 1.92-1.08 3.07zm5.4 6.86c0 .17.05.33.16.49.11.16.27.27.49.33.11.02.2.04.27.04.39 0 .65-.21.77-.64l1.58-5.88c.07-.24.04-.46-.08-.67a.767.767 0 00-.53-.38.737.737 0 00-.63.07c-.2.11-.34.28-.41.51l-1.58 5.91c-.02.13-.04.2-.04.22zm2.61 3.08c0 .19.05.36.15.52.1.16.27.26.52.3.11.02.2.04.26.04.16 0 .31-.06.45-.17.14-.12.23-.28.27-.48l2.4-8.93c.06-.23.04-.45-.07-.64s-.28-.33-.5-.4a.777.777 0 00-.65.07c-.2.11-.34.28-.4.51l-2.4 8.93c-.02.15-.03.24-.03.25zM9.94 4.6c0 .24.08.44.25.61l.65.66c.19.15.4.22.62.22.21 0 .41-.08.58-.23.17-.16.26-.35.26-.59s-.08-.46-.24-.64l-.64-.65a.854.854 0 00-1.22.01c-.17.17-.26.38-.26.61zm3.73 19.17a.822.822 0 00.61.79c.11.02.2.04.25.04.17 0 .34-.05.49-.15.15-.1.25-.26.3-.49l1.58-5.88a.835.835 0 00-.57-1.04.773.773 0 00-.65.07.78.78 0 00-.39.51l-1.58 5.91c-.02.15-.04.23-.04.24zM15.3 9.03c.71-.67 1.53-1 2.48-1 .98 0 1.82.35 2.5 1.04.69.69 1.03 1.53 1.03 2.52 0 .62-.17 1.24-.52 1.85-.97-.97-2.13-1.45-3.49-1.45h-.33a5.763 5.763 0 00-1.67-2.96zm1.62-5.25c0 .23.08.43.25.59.17.16.37.24.61.24.23 0 .43-.08.59-.23.16-.16.24-.35.24-.59V1.73c0-.26-.08-.47-.23-.63a.791.791 0 00-.59-.24c-.25 0-.46.08-.62.25s-.24.37-.24.62v2.05zm5.53 2.28c0 .24.09.44.27.59.14.16.32.24.55.26.23.02.44-.07.62-.26l1.44-1.43c.18-.17.26-.38.26-.63 0-.24-.08-.45-.25-.61a.853.853 0 00-.61-.24c-.21 0-.4.08-.58.25l-1.43 1.44c-.18.17-.27.38-.27.63zm.81 11.85c0 .24.08.45.24.63l.65.63c.18.14.38.21.6.21l.02.02c.23 0 .42-.08.58-.24.16-.16.24-.37.24-.61s-.09-.43-.26-.58l-.62-.66c-.18-.16-.39-.24-.62-.24s-.43.08-.59.25-.24.35-.24.59zm1.46-6.33c0 .24.09.43.26.59.18.18.38.26.62.26h2.03c.24 0 .44-.08.61-.25.17-.17.25-.37.25-.6 0-.24-.08-.44-.25-.61s-.37-.26-.61-.26H25.6a.87.87 0 00-.62.26c-.18.17-.26.37-.26.61z"/></svg><svg viewBox="-2.5 -2.5 35 35" width="28" height="28" id="weather-icons-wi-day-sunny-overcast" x="28" xmlns="http://www.w3.org/2000/svg"><path d="M3.09 13.43c0 .27.09.49.28.67s.43.26.72.26h1.69c.27 0 .5-.09.69-.27s.29-.4.29-.66c0-.29-.09-.53-.28-.71s-.42-.28-.69-.28h-1.7c-.29 0-.53.09-.72.28-.19.17-.28.41-.28.71zm1.77 6.18c0 .97.35 1.81 1.06 2.52.71.71 1.54 1.06 2.51 1.06h6.86c.97 0 1.8-.35 2.49-1.05.69-.7 1.04-1.54 1.04-2.53 0-.48-.07-.89-.21-1.23.83-.53 1.49-1.24 1.97-2.12.48-.88.73-1.83.73-2.84 0-.81-.16-1.59-.48-2.33a6.1 6.1 0 00-1.28-1.91 6.1 6.1 0 00-1.91-1.28c-.74-.32-1.51-.48-2.32-.48-1.09 0-2.1.27-3.02.81s-1.65 1.27-2.18 2.18c-.53.92-.79 1.92-.79 3.01v.34c-1 .57-1.66 1.4-1.98 2.49-.76.24-1.36.66-1.81 1.27a3.44 3.44 0 00-.68 2.09zM6.42 5.45c0 .28.09.51.26.67l1.61 1.69c.47.36.94.36 1.41 0 .19-.19.28-.42.28-.7 0-.27-.09-.5-.28-.7L8.05 4.76c-.21-.19-.45-.29-.7-.29-.28 0-.51.09-.68.28-.17.19-.25.42-.25.7zm.42 14.16c0-.42.13-.78.4-1.08.27-.3.61-.47 1.02-.51l.62-.08c.13 0 .2-.08.2-.23l.09-.56c.07-.58.31-1.06.73-1.44.42-.39.91-.58 1.48-.58.58 0 1.09.19 1.51.58.43.39.68.87.75 1.44l.08.65c.06.15.14.23.24.23h1.32c.43 0 .8.16 1.12.47.32.31.47.68.47 1.12 0 .45-.16.83-.47 1.15s-.69.48-1.12.48H8.43c-.45 0-.83-.16-1.13-.48-.31-.32-.46-.71-.46-1.16zm4.42-6.39c.07-1.09.49-2.01 1.27-2.76.77-.74 1.71-1.12 2.79-1.12 1.11 0 2.06.4 2.84 1.19.78.79 1.17 1.76 1.17 2.89 0 .7-.17 1.35-.51 1.95-.34.6-.8 1.08-1.38 1.45-.59-.49-1.27-.73-2.03-.73-.29-.88-.81-1.57-1.54-2.09-.73-.52-1.56-.78-2.48-.78h-.13zm3.09-8.75c0 .27.1.51.29.7.19.19.42.29.69.29.28 0 .51-.1.7-.29a.95.95 0 00.29-.7V2.13c0-.26-.1-.48-.29-.66a.974.974 0 00-.7-.27c-.27 0-.5.09-.69.27-.19.18-.29.4-.29.66v2.34zm6.32 15.23c0 .27.09.5.27.7l1.64 1.62c.42.42.89.42 1.41 0 .18-.17.26-.39.26-.68 0-.27-.09-.49-.26-.67L22.3 19a.953.953 0 00-.68-.25c-.28 0-.5.09-.68.27-.18.18-.27.41-.27.68zm0-12.61c0 .28.09.52.27.72.18.18.41.27.68.27.27 0 .5-.09.68-.27l1.69-1.69c.18-.17.26-.39.26-.67s-.1-.51-.29-.69-.42-.28-.7-.28c-.26 0-.49.1-.68.29L20.94 6.4c-.18.18-.27.41-.27.69zm2.58 6.34c0 .27.09.49.28.67s.43.26.72.26h1.69c.27 0 .5-.09.69-.27s.29-.4.29-.66c0-.29-.09-.53-.28-.71s-.42-.28-.69-.28h-1.69c-.29 0-.53.09-.72.28-.19.17-.29.41-.29.71z"/></svg><svg viewBox="-2.5 -2.5 35 35" width="28" height="28" id="weather-icons-wi-degrees" y="28" xmlns="http://www.w3.org/2000/svg"><path d="M13.19 9.21c0-.5.18-.93.53-1.28.36-.36.78-.53 1.28-.53.49 0 .92.18 1.27.53.35.36.53.78.53 1.28s-.18.93-.53 1.29c-.35.36-.78.54-1.27.54s-.92-.18-1.28-.54-.53-.79-.53-1.29zm.88 0c0 .26.09.48.27.67.19.19.41.28.67.28.26 0 .48-.09.67-.28s.28-.41.28-.67a.87.87 0 00-.28-.66.947.947 0 00-.67-.28c-.26 0-.48.09-.67.27-.18.18-.27.4-.27.67z"/></svg><svg viewBox="-2.5 -2.5 35 35" width="28" height="28" id="weather-icons-wi-direction-down-left" x="28" y="28" xmlns="http://www.w3.org/2000/svg"><path d="M11.83 16.77a.648.648 0 00.66.67h2.87c.19 0 .35-.06.47-.19.13-.13.19-.29.19-.48a.59.59 0 00-.19-.46.674.674 0 00-.47-.18h-1.24L18 12.24c.12-.14.18-.3.18-.5a.65.65 0 00-.18-.46c-.12-.12-.29-.18-.5-.18-.2 0-.36.06-.48.18l-3.86 3.87V13.9a.648.648 0 00-.67-.67c-.19 0-.35.07-.47.2-.13.13-.19.29-.19.48v2.86z"/></svg><svg viewBox="-2.5 -2.5 35 35" width="28" height="28" id="weather-icons-wi-direction-up" x="56" xmlns="http://www.w3.org/2000/svg"><path d="M9.95 10.87c-.01.35.1.65.34.9s.53.37.89.36c.34.02.63-.1.88-.37l1.66-1.64v10.3c-.01.35.11.64.36.88s.55.35.92.34c.34.02.64-.09.89-.32s.39-.53.4-.88v-10.3l1.64 1.64c.23.24.53.37.88.37.36 0 .66-.12.9-.36s.36-.53.36-.89c-.02-.36-.15-.64-.4-.85l-3.74-3.84c-.24-.23-.55-.37-.92-.4-.37.02-.68.16-.92.41l-3.75 3.81c-.26.22-.39.5-.39.84z"/></svg><svg viewBox="-2.5 -2.5 35 35" width="28" height="28" id="weather-icons-wi-gale-warning" x="56" y="28" xmlns="http://www.w3.org/2000/svg"><path d="M10.67 24.6V7.45h1.03V24.6h-1.03zm1.73-2.16v-7.41l8.65 3.69-8.65 3.72zm0-7.58V7.45l8.65 3.69-8.65 3.72z"/></svg><svg viewBox="-2.5 -2.5 35 35" width="28" height="28" id="weather-icons-wi-moon-alt-waxing-crescent-3" y="56" xmlns="http://www.w3.org/2000/svg"><path d="M3.74 14.44c0-1.52.3-2.98.89-4.37s1.4-2.58 2.4-3.59 2.2-1.81 3.59-2.4 2.84-.89 4.37-.89 2.98.3 4.37.89 2.59 1.4 3.6 2.4 1.81 2.2 2.4 3.59.89 2.84.89 4.37-.3 2.98-.89 4.37-1.4 2.59-2.4 3.6-2.2 1.81-3.6 2.4-2.85.89-4.37.89-2.98-.3-4.37-.89-2.58-1.4-3.59-2.4-1.81-2.2-2.4-3.6-.89-2.84-.89-4.37zM15.58 4.41c1.28 1.1 2.32 2.51 3.13 4.22s1.22 3.65 1.22 5.82c0 4.64-1.39 7.99-4.16 10.05 1.28-.1 2.49-.43 3.63-1s2.13-1.29 2.96-2.18 1.49-1.93 1.97-3.13.73-2.44.73-3.74c0-1.75-.42-3.38-1.26-4.89s-1.99-2.72-3.44-3.64-3.05-1.42-4.78-1.51z"/></svg><svg viewBox="-2.5 -2.5 35 35" width="28" height="28" id="weather-icons-wi-moon-waning-gibbous-6" x="28" y="56" xmlns="http://www.w3.org/2000/svg"><path d="M3.74 14.46c0 2.04.5 3.92 1.51 5.65s2.37 3.09 4.09 4.09 3.61 1.51 5.65 1.51c1.44-3.08 2.15-6.83 2.15-11.25 0-3.46-.72-7.2-2.15-11.24-1.52 0-2.98.3-4.37.89S8.03 5.5 7.03 6.5s-1.8 2.2-2.4 3.59-.89 2.84-.89 4.37z"/></svg><svg viewBox="-2.5 -2.5 35 35" width="28" height="28" id="weather-icons-wi-moon-waxing-crescent-5" x="56" y="56" xmlns="http://www.w3.org/2000/svg"><path d="M14.99 25.71c2.04 0 3.93-.5 5.65-1.51s3.1-2.37 4.1-4.1 1.51-3.61 1.51-5.65-.5-3.92-1.51-5.65-2.37-3.09-4.1-4.09-3.61-1.51-5.65-1.51c1.67 2.9 2.5 6.65 2.5 11.25 0 2.33-.17 4.43-.52 6.3s-1 3.51-1.98 4.96z"/></svg><svg viewBox="-2.5 -2.5 35 35" width="28" height="28" id="weather-icons-wi-night-alt-snow-thunderstorm" x="84" xmlns="http://www.w3.org/2000/svg"><path d="M4.09 16.89c0 1.11.33 2.1.99 2.97.66.87 1.52 1.47 2.58 1.79l-.65 1.7c-.04.14 0 .21.14.21h2.12l-1.29 4.18h.28l4.23-5.62c.04-.04.04-.09.02-.14-.03-.05-.07-.07-.14-.07h-2.18l2.47-4.64c.07-.14.03-.22-.13-.22H9.57c-.09 0-.16.05-.22.15l-1.07 2.88c-.71-.18-1.3-.57-1.78-1.17s-.71-1.27-.71-2.01c0-.83.28-1.55.85-2.17.57-.61 1.27-.97 2.1-1.07l.53-.07c.13 0 .2-.06.2-.18l.07-.51c.11-1.08.56-1.99 1.37-2.72.81-.73 1.76-1.1 2.85-1.1s2.04.37 2.86 1.1c.82.73 1.28 1.64 1.4 2.71l.07.57c0 .12.06.19.17.19h1.62c.91 0 1.68.32 2.33.95s.97 1.4.97 2.28c0 .85-.3 1.59-.9 2.21-.6.62-1.33.97-2.2 1.03-.12 0-.19.06-.19.19v1.36c0 .12.06.18.19.18 1.33-.04 2.46-.55 3.39-1.51.93-.97 1.39-2.12 1.39-3.45 0-.87-.22-1.68-.66-2.45.76-.74 1.27-1.61 1.51-2.62l.19-.68c.01-.01.01-.03.01-.07 0-.08-.05-.13-.15-.16l-.62-.17c-.57-.17-1.06-.45-1.46-.84-.4-.39-.68-.8-.85-1.22s-.25-.84-.24-1.26c0-.28.03-.56.1-.85l.11-.61c.02-.1-.02-.18-.14-.23l-.8-.24c-.47-.09-.88-.14-1.24-.14-.37-.01-.75.03-1.13.12-.38.08-.78.22-1.19.4-.41.18-.8.45-1.18.79-.38.34-.71.74-.99 1.2-.83-.31-1.62-.46-2.36-.46-1.41 0-2.67.44-3.76 1.32s-1.8 2-2.11 3.36c-1.11.26-2.02.84-2.74 1.74-.71.89-1.07 1.92-1.07 3.07zm9.59 6.07c0 .24.08.44.24.59.16.16.36.24.58.24.24 0 .44-.08.61-.24s.25-.36.25-.59c0-.24-.08-.44-.25-.61s-.37-.26-.61-.26c-.22 0-.41.09-.58.26s-.24.37-.24.61zm0-3.64c0 .24.08.43.24.58.16.16.36.24.58.24.24 0 .45-.08.61-.23s.25-.35.25-.59c0-.23-.08-.43-.25-.6s-.37-.25-.61-.25c-.23 0-.42.08-.58.25s-.24.37-.24.6zm0 7.31c0 .22.08.41.24.57.17.17.36.25.58.25.24 0 .44-.08.61-.24.17-.16.25-.35.25-.59s-.08-.44-.25-.61a.832.832 0 00-.61-.26c-.22 0-.41.09-.58.26-.16.18-.24.39-.24.62zm3.23-5.61c0 .24.08.44.25.6s.36.25.6.25c.23 0 .43-.08.59-.25.16-.17.24-.37.24-.6 0-.22-.08-.42-.24-.58a.791.791 0 00-.59-.24c-.23 0-.43.08-.6.24s-.25.35-.25.58zm0 3.64c0 .23.08.42.24.58.16.16.36.24.6.24s.43-.08.59-.24c.16-.16.23-.35.23-.59s-.08-.43-.23-.59a.784.784 0 00-.59-.23c-.24 0-.44.08-.6.23-.16.16-.24.36-.24.6zm.68-15.89c.33-.56.78-.99 1.34-1.29s1.15-.45 1.76-.45h.22v.32c0 .64.11 1.26.34 1.86.23.6.56 1.15 1.02 1.66.45.51.99.91 1.61 1.21-.17.38-.42.72-.76 1.03-.91-.78-1.98-1.17-3.22-1.17h-.33c-.29-1.26-.95-2.32-1.98-3.17z"/></svg><svg viewBox="-2.5 -2.5 35 35" width="28" height="28" id="weather-icons-wi-night-alt-thunderstorm" x="84" y="28" xmlns="http://www.w3.org/2000/svg"><path d="M4.08 16.88c0 1.11.33 2.1.99 2.98s1.52 1.47 2.58 1.79l-.66 1.69c-.03.14.02.21.15.21h2.12l-.97 3.51h.29l3.91-4.94c.04-.05.04-.1.01-.15-.03-.05-.08-.07-.15-.07h-2.18l2.48-4.63c.07-.14.03-.22-.13-.22H9.56c-.09 0-.16.05-.23.14l-1.07 2.88c-.72-.18-1.31-.57-1.78-1.17s-.7-1.27-.7-2.01c0-.83.28-1.55.85-2.17.57-.62 1.27-.97 2.1-1.07l.52-.08c.13 0 .2-.06.2-.17l.07-.52c.11-1.08.56-1.99 1.37-2.72s1.76-1.1 2.85-1.1c1.08 0 2.03.37 2.85 1.1s1.29 1.64 1.41 2.71l.07.59c0 .11.06.17.18.17h1.62c.91 0 1.68.32 2.33.95s.97 1.4.97 2.29c0 .85-.3 1.59-.9 2.21-.6.62-1.33.97-2.2 1.04-.12 0-.19.06-.19.17v1.38c0 .12.06.18.19.18.88-.03 1.68-.27 2.41-.72a4.94 4.94 0 002.36-4.25c0-.87-.22-1.68-.66-2.45.79-.76 1.31-1.63 1.56-2.62l.14-.72c.01-.01.02-.04.02-.07 0-.07-.05-.12-.16-.15l-.56-.18c-.57-.16-1.06-.44-1.46-.82a3.4 3.4 0 01-.87-1.23c-.17-.44-.26-.88-.26-1.32 0-.26.03-.53.08-.8l.14-.61c.04-.1 0-.18-.14-.23-.21-.09-.51-.17-.9-.26s-.77-.13-1.15-.13c-.36 0-.73.04-1.12.13-.38.09-.78.22-1.19.41-.41.18-.81.45-1.2.8-.39.35-.72.75-1 1.22-.82-.3-1.62-.45-2.38-.45-1.41 0-2.67.44-3.76 1.31s-1.8 1.99-2.11 3.36c-1.11.26-2.02.84-2.74 1.74a4.91 4.91 0 00-1.04 3.07zm8.1 9.82c0 .16.05.32.15.46.1.15.25.25.45.3.11.02.21.03.3.03.41 0 .66-.21.76-.63l2.32-8.79c.06-.24.04-.45-.07-.65a.786.786 0 00-.5-.39.814.814 0 00-.65.06c-.2.11-.34.27-.4.49l-2.32 8.84c-.03.1-.04.19-.04.28zm4.17-3.02c0 .16.05.32.15.46.1.14.25.25.46.31.03 0 .08 0 .15.01.07.01.13.01.16.01.38 0 .62-.21.72-.63l1.5-5.77c.06-.24.04-.46-.08-.66a.799.799 0 00-.51-.38.814.814 0 00-.65.06c-.2.11-.33.27-.39.5l-1.5 5.82c0 .1-.01.19-.01.27zm1.24-14.93c.33-.57.77-1 1.33-1.3.55-.3 1.14-.45 1.76-.45.12 0 .22 0 .27.01v.32c0 .96.26 1.87.78 2.73s1.25 1.51 2.17 1.97c-.18.42-.44.77-.79 1.07-.92-.79-1.99-1.18-3.22-1.18h-.32c-.28-1.26-.94-2.31-1.98-3.17z"/></svg><svg viewBox="-2.5 -2.5 35 35" width="28" height="28" id="weather-icons-wi-smoke" x="84" y="56" xmlns="http://www.w3.org/2000/svg"><path d="M6.34 12.48c0-.94.3-1.78.89-2.52s1.34-1.21 2.25-1.41c.25-1.12.82-2.05 1.72-2.77s1.92-1.08 3.08-1.08c1.12 0 2.13.35 3.02 1.05.89.7 1.46 1.6 1.73 2.69h.27c1.12 0 2.08.39 2.88 1.18.79.78 1.19 1.74 1.19 2.85 0 .6-.12 1.17-.37 1.7s-.59.99-1.03 1.37v.03c0 .59-.19 1.12-.56 1.59-.37.47-.84.76-1.4.89-.14.62-.45 1.15-.91 1.58-.46.43-1.01.7-1.63.8.29.34.43.72.43 1.13 0 .48-.17.89-.51 1.24-.34.34-.75.52-1.23.52s-.89-.17-1.23-.52c-.34-.34-.51-.76-.51-1.24 0-.19.03-.38.1-.57h-.1c-.58 0-1.08-.21-1.5-.63-.42-.42-.63-.92-.63-1.5 0-.4.1-.76.3-1.07-.52-.29-.89-.7-1.12-1.25h-1.28v-.01c-1.07-.07-1.98-.49-2.73-1.27s-1.12-1.7-1.12-2.78zm1.4-.25c0 .8.28 1.48.84 2.04s1.24.84 2.03.84c.49 0 .95-.11 1.37-.34.12.74.47 1.36 1.04 1.86s1.25.74 2.02.74c.87 0 1.61-.31 2.22-.92.41.48.92.71 1.54.71.57 0 1.05-.2 1.46-.6.4-.4.6-.89.6-1.46.4-.27.72-.61.95-1.04.23-.42.35-.88.35-1.37 0-.79-.28-1.47-.85-2.02s-1.25-.83-2.05-.83c-.56 0-1.07.15-1.53.44.06-.24.08-.51.08-.79 0-.96-.34-1.78-1.03-2.46-.69-.68-1.52-1.01-2.49-1.01-.94 0-1.75.33-2.43.97s-1.04 1.44-1.07 2.37H10.62c-.79 0-1.46.28-2.03.84s-.85 1.25-.85 2.03z"/></svg><svg viewBox="-2.5 -2.5 35 35" width="28" height="28" id="weather-icons-wi-strong-wind" y="84" xmlns="http://www.w3.org/2000/svg"><path d="M3.1 16.97c0 .24.09.45.28.62.16.19.37.28.63.28H18.7c.29 0 .53.1.73.3.2.2.3.45.3.74s-.1.53-.3.72c-.2.19-.44.29-.74.29-.29 0-.54-.1-.73-.29a.76.76 0 00-.6-.26c-.25 0-.46.09-.64.26s-.27.38-.27.61c0 .25.09.46.28.63.56.55 1.22.83 1.96.83.78 0 1.45-.27 2.01-.81.56-.54.83-1.19.83-1.97s-.28-1.44-.84-2c-.56-.56-1.23-.84-2-.84H4.01a.9.9 0 00-.64.26c-.18.17-.27.38-.27.63zm0-3.28c0 .23.09.43.28.61.17.18.38.26.63.26h20.04c.78 0 1.45-.27 2.01-.82.56-.54.84-1.2.84-1.97s-.28-1.44-.84-1.99-1.23-.83-2.01-.83c-.77 0-1.42.27-1.95.8-.18.16-.27.38-.27.67 0 .26.09.47.26.63.17.16.38.24.63.24.24 0 .45-.08.63-.24.19-.21.42-.31.7-.31.29 0 .53.1.73.3.2.2.3.44.3.73s-.1.53-.3.72c-.2.19-.44.29-.73.29H4.01a.908.908 0 00-.91.91z"/></svg><svg viewBox="-2.5 -2.5 35 35" width="28" height="28" id="weather-icons-wi-thermometer-exterior" x="28" y="84" xmlns="http://www.w3.org/2000/svg"><path d="M9.91 19.56a5.101 5.101 0 012.24-4.22V5.42c0-.8.27-1.48.82-2.03s1.23-.84 2.03-.84c.81 0 1.49.28 2.04.83.55.56.83 1.23.83 2.03v9.92c.71.49 1.25 1.11 1.64 1.84s.58 1.53.58 2.38c0 .92-.23 1.78-.68 2.56s-1.07 1.4-1.85 1.85-1.63.68-2.56.68c-.92 0-1.77-.23-2.55-.68s-1.4-1.07-1.86-1.85-.68-1.63-.68-2.55zm1.76 0c0 .93.33 1.73.98 2.39.65.66 1.44.99 2.36.99.93 0 1.73-.33 2.4-1s1.01-1.46 1.01-2.37c0-.62-.16-1.2-.48-1.73-.32-.53-.76-.94-1.32-1.23l-.28-.14c-.1-.04-.15-.14-.15-.29V5.42c0-.32-.11-.59-.34-.81-.23-.21-.51-.32-.85-.32-.32 0-.6.11-.83.32-.23.21-.34.48-.34.81v10.74c0 .15-.05.25-.14.29l-.27.14c-.55.29-.98.7-1.29 1.23-.31.53-.46 1.1-.46 1.74z"/></svg><svg viewBox="-2.5 -2.5 35 35" width="28" height="28" id="weather-icons-wi-time-10" x="56" y="84" xmlns="http://www.w3.org/2000/svg"><path d="M3.74 14.47c0-2.04.51-3.93 1.52-5.66s2.38-3.1 4.11-4.11 3.61-1.51 5.64-1.51c1.52 0 2.98.3 4.37.89s2.58 1.4 3.59 2.4 1.81 2.2 2.4 3.6.89 2.85.89 4.39c0 1.52-.3 2.98-.89 4.37s-1.4 2.59-2.4 3.59-2.2 1.8-3.59 2.39-2.84.89-4.37.89c-1.53 0-3-.3-4.39-.89s-2.59-1.4-3.6-2.4-1.8-2.2-2.4-3.58-.88-2.84-.88-4.37zm2.48 0c0 2.37.86 4.43 2.59 6.18 1.73 1.73 3.79 2.59 6.2 2.59 1.58 0 3.05-.39 4.39-1.18s2.42-1.85 3.21-3.2 1.19-2.81 1.19-4.39-.4-3.05-1.19-4.4-1.86-2.42-3.21-3.21-2.81-1.18-4.39-1.18-3.05.39-4.39 1.18S8.2 8.72 7.4 10.07s-1.18 2.82-1.18 4.4zm3.92-2.06a.773.773 0 01.07-.63c.11-.2.28-.33.51-.4s.44-.04.64.07l2.78 1.57V7.81c0-.23.08-.43.24-.59s.36-.24.59-.24.43.08.59.24.24.36.24.59v6.67c0 .23-.08.43-.24.59s-.36.24-.59.24a.81.81 0 01-.56-.22l-3.88-2.17a.91.91 0 01-.39-.51z"/></svg><svg viewBox="-2.5 -2.5 35 35" width="28" height="28" id="weather-icons-wi-wind-beaufort-2" x="84" y="84" xmlns="http://www.w3.org/2000/svg"><path d="M4.94 13.5c0 .18.06.31.17.4.12.11.26.17.42.17h10.4c.17 0 .33.06.46.19.13.12.2.28.2.46s-.07.34-.2.47a.629.629 0 01-.93-.01.584.584 0 00-.4-.16c-.16 0-.3.05-.41.16-.11.11-.16.24-.16.39 0 .16.06.3.17.41.36.36.78.53 1.27.53s.91-.17 1.26-.52.52-.77.52-1.27c0-.49-.17-.92-.52-1.27s-.77-.53-1.26-.53H5.53c-.16 0-.3.06-.42.17-.12.12-.17.25-.17.41zm0-2.02c0 .17.06.3.17.39.12.11.26.16.42.16h13.81c.49 0 .92-.18 1.27-.52.35-.35.52-.77.52-1.27 0-.49-.17-.91-.52-1.26s-.77-.52-1.27-.52c-.49 0-.91.17-1.27.51-.11.12-.16.27-.16.42 0 .16.05.3.16.4.11.1.24.15.4.15.15 0 .29-.05.41-.16.12-.12.27-.18.46-.18.17 0 .33.06.46.18s.2.27.2.45-.07.34-.2.47c-.13.13-.28.2-.46.2H5.53c-.16 0-.3.06-.42.17a.53.53 0 00-.17.41zm12.72 10.37h6.62l.4-1.89H21v-.03c.2-.09.49-.22.86-.37.38-.15.69-.28.95-.38s.55-.25.87-.44.57-.38.77-.57c.19-.19.36-.44.5-.75s.21-.64.21-1c0-.56-.14-1.02-.43-1.4s-.65-.65-1.08-.81a4.16 4.16 0 00-1.45-.24c-.97 0-1.76.26-2.38.78-.62.52-.98 1.29-1.1 2.31h2.09c0-.37.11-.68.32-.94.22-.26.52-.38.91-.38.3 0 .52.08.67.24s.23.34.23.54c0 .12-.01.23-.03.32s-.07.19-.15.28-.15.16-.21.22-.17.13-.34.23c-.17.09-.3.17-.4.22a39.469 39.469 0 00-2.17 1.08c-.8.48-1.35 1.07-1.66 1.78-.16.36-.27.76-.32 1.2z"/></svg></svg>